<?xml version="1.0" encoding="utf-8" standalone="no"?>
<!DOCTYPE svg PUBLIC "-//W3C//DTD SVG 1.1//EN"
  "http://www.w3.org/Graphics/SVG/1.1/DTD/svg11.dtd">
<!-- Created with matplotlib (https://matplotlib.org/) -->
<svg height="288pt" version="1.1" viewBox="0 0 432 288" width="432pt" xmlns="http://www.w3.org/2000/svg" xmlns:xlink="http://www.w3.org/1999/xlink">
 <defs>
  <style type="text/css">
*{stroke-linecap:butt;stroke-linejoin:round;}
  </style>
 </defs>
 <g id="figure_1">
  <g id="patch_1">
   <path d="M 0 288 
L 432 288 
L 432 0 
L 0 0 
z
" style="fill:#ffffff;"/>
  </g>
  <g id="axes_1">
   <g id="patch_2">
    <path d="M 54 252 
L 388.8 252 
L 388.8 34.56 
L 54 34.56 
z
" style="fill:#ffffff;"/>
   </g>
   <g id="matplotlib.axis_1">
    <g id="xtick_1">
     <g id="line2d_1">
      <defs>
       <path d="M 0 0 
L 0 3.5 
" id="mb059f14bcb" style="stroke:#000000;stroke-width:0.8;"/>
      </defs>
      <g>
       <use style="stroke:#000000;stroke-width:0.8;" x="69.218182" xlink:href="#mb059f14bcb" y="252"/>
      </g>
     </g>
     <g id="text_1">
      <!-- 0 -->
      <defs>
       <path d="M 31.78125 66.40625 
Q 24.171875 66.40625 20.328125 58.90625 
Q 16.5 51.421875 16.5 36.375 
Q 16.5 21.390625 20.328125 13.890625 
Q 24.171875 6.390625 31.78125 6.390625 
Q 39.453125 6.390625 43.28125 13.890625 
Q 47.125 21.390625 47.125 36.375 
Q 47.125 51.421875 43.28125 58.90625 
Q 39.453125 66.40625 31.78125 66.40625 
z
M 31.78125 74.21875 
Q 44.046875 74.21875 50.515625 64.515625 
Q 56.984375 54.828125 56.984375 36.375 
Q 56.984375 17.96875 50.515625 8.265625 
Q 44.046875 -1.421875 31.78125 -1.421875 
Q 19.53125 -1.421875 13.0625 8.265625 
Q 6.59375 17.96875 6.59375 36.375 
Q 6.59375 54.828125 13.0625 64.515625 
Q 19.53125 74.21875 31.78125 74.21875 
z
" id="DejaVuSans-48"/>
      </defs>
      <g transform="translate(66.036932 266.598437)scale(0.1 -0.1)">
       <use xlink:href="#DejaVuSans-48"/>
      </g>
     </g>
    </g>
    <g id="xtick_2">
     <g id="line2d_2">
      <g>
       <use style="stroke:#000000;stroke-width:0.8;" x="126.92839" xlink:href="#mb059f14bcb" y="252"/>
      </g>
     </g>
     <g id="text_2">
      <!-- 500 -->
      <defs>
       <path d="M 10.796875 72.90625 
L 49.515625 72.90625 
L 49.515625 64.59375 
L 19.828125 64.59375 
L 19.828125 46.734375 
Q 21.96875 47.46875 24.109375 47.828125 
Q 26.265625 48.1875 28.421875 48.1875 
Q 40.625 48.1875 47.75 41.5 
Q 54.890625 34.8125 54.890625 23.390625 
Q 54.890625 11.625 47.5625 5.09375 
Q 40.234375 -1.421875 26.90625 -1.421875 
Q 22.3125 -1.421875 17.546875 -0.640625 
Q 12.796875 0.140625 7.71875 1.703125 
L 7.71875 11.625 
Q 12.109375 9.234375 16.796875 8.0625 
Q 21.484375 6.890625 26.703125 6.890625 
Q 35.15625 6.890625 40.078125 11.328125 
Q 45.015625 15.765625 45.015625 23.390625 
Q 45.015625 31 40.078125 35.4375 
Q 35.15625 39.890625 26.703125 39.890625 
Q 22.75 39.890625 18.8125 39.015625 
Q 14.890625 38.140625 10.796875 36.28125 
z
" id="DejaVuSans-53"/>
      </defs>
      <g transform="translate(117.38464 266.598437)scale(0.1 -0.1)">
       <use xlink:href="#DejaVuSans-53"/>
       <use x="63.623047" xlink:href="#DejaVuSans-48"/>
       <use x="127.246094" xlink:href="#DejaVuSans-48"/>
      </g>
     </g>
    </g>
    <g id="xtick_3">
     <g id="line2d_3">
      <g>
       <use style="stroke:#000000;stroke-width:0.8;" x="184.638598" xlink:href="#mb059f14bcb" y="252"/>
      </g>
     </g>
     <g id="text_3">
      <!-- 1000 -->
      <defs>
       <path d="M 12.40625 8.296875 
L 28.515625 8.296875 
L 28.515625 63.921875 
L 10.984375 60.40625 
L 10.984375 69.390625 
L 28.421875 72.90625 
L 38.28125 72.90625 
L 38.28125 8.296875 
L 54.390625 8.296875 
L 54.390625 0 
L 12.40625 0 
z
" id="DejaVuSans-49"/>
      </defs>
      <g transform="translate(171.913598 266.598437)scale(0.1 -0.1)">
       <use xlink:href="#DejaVuSans-49"/>
       <use x="63.623047" xlink:href="#DejaVuSans-48"/>
       <use x="127.246094" xlink:href="#DejaVuSans-48"/>
       <use x="190.869141" xlink:href="#DejaVuSans-48"/>
      </g>
     </g>
    </g>
    <g id="xtick_4">
     <g id="line2d_4">
      <g>
       <use style="stroke:#000000;stroke-width:0.8;" x="242.348805" xlink:href="#mb059f14bcb" y="252"/>
      </g>
     </g>
     <g id="text_4">
      <!-- 1500 -->
      <g transform="translate(229.623805 266.598437)scale(0.1 -0.1)">
       <use xlink:href="#DejaVuSans-49"/>
       <use x="63.623047" xlink:href="#DejaVuSans-53"/>
       <use x="127.246094" xlink:href="#DejaVuSans-48"/>
       <use x="190.869141" xlink:href="#DejaVuSans-48"/>
      </g>
     </g>
    </g>
    <g id="xtick_5">
     <g id="line2d_5">
      <g>
       <use style="stroke:#000000;stroke-width:0.8;" x="300.059013" xlink:href="#mb059f14bcb" y="252"/>
      </g>
     </g>
     <g id="text_5">
      <!-- 2000 -->
      <defs>
       <path d="M 19.1875 8.296875 
L 53.609375 8.296875 
L 53.609375 0 
L 7.328125 0 
L 7.328125 8.296875 
Q 12.9375 14.109375 22.625 23.890625 
Q 32.328125 33.6875 34.8125 36.53125 
Q 39.546875 41.84375 41.421875 45.53125 
Q 43.3125 49.21875 43.3125 52.78125 
Q 43.3125 58.59375 39.234375 62.25 
Q 35.15625 65.921875 28.609375 65.921875 
Q 23.96875 65.921875 18.8125 64.3125 
Q 13.671875 62.703125 7.8125 59.421875 
L 7.8125 69.390625 
Q 13.765625 71.78125 18.9375 73 
Q 24.125 74.21875 28.421875 74.21875 
Q 39.75 74.21875 46.484375 68.546875 
Q 53.21875 62.890625 53.21875 53.421875 
Q 53.21875 48.921875 51.53125 44.890625 
Q 49.859375 40.875 45.40625 35.40625 
Q 44.1875 33.984375 37.640625 27.21875 
Q 31.109375 20.453125 19.1875 8.296875 
z
" id="DejaVuSans-50"/>
      </defs>
      <g transform="translate(287.334013 266.598437)scale(0.1 -0.1)">
       <use xlink:href="#DejaVuSans-50"/>
       <use x="63.623047" xlink:href="#DejaVuSans-48"/>
       <use x="127.246094" xlink:href="#DejaVuSans-48"/>
       <use x="190.869141" xlink:href="#DejaVuSans-48"/>
      </g>
     </g>
    </g>
    <g id="xtick_6">
     <g id="line2d_6">
      <g>
       <use style="stroke:#000000;stroke-width:0.8;" x="357.769221" xlink:href="#mb059f14bcb" y="252"/>
      </g>
     </g>
     <g id="text_6">
      <!-- 2500 -->
      <g transform="translate(345.044221 266.598437)scale(0.1 -0.1)">
       <use xlink:href="#DejaVuSans-50"/>
       <use x="63.623047" xlink:href="#DejaVuSans-53"/>
       <use x="127.246094" xlink:href="#DejaVuSans-48"/>
       <use x="190.869141" xlink:href="#DejaVuSans-48"/>
      </g>
     </g>
    </g>
   </g>
   <g id="matplotlib.axis_2">
    <g id="ytick_1">
     <g id="line2d_7">
      <defs>
       <path d="M 0 0 
L -3.5 0 
" id="m494e382d3c" style="stroke:#000000;stroke-width:0.8;"/>
      </defs>
      <g>
       <use style="stroke:#000000;stroke-width:0.8;" x="54" xlink:href="#m494e382d3c" y="239.25258"/>
      </g>
     </g>
     <g id="text_7">
      <!-- 0 -->
      <g transform="translate(40.6375 243.051798)scale(0.1 -0.1)">
       <use xlink:href="#DejaVuSans-48"/>
      </g>
     </g>
    </g>
    <g id="ytick_2">
     <g id="line2d_8">
      <g>
       <use style="stroke:#000000;stroke-width:0.8;" x="54" xlink:href="#m494e382d3c" y="207.316687"/>
      </g>
     </g>
     <g id="text_8">
      <!-- 20 -->
      <g transform="translate(34.275 211.115906)scale(0.1 -0.1)">
       <use xlink:href="#DejaVuSans-50"/>
       <use x="63.623047" xlink:href="#DejaVuSans-48"/>
      </g>
     </g>
    </g>
    <g id="ytick_3">
     <g id="line2d_9">
      <g>
       <use style="stroke:#000000;stroke-width:0.8;" x="54" xlink:href="#m494e382d3c" y="175.380795"/>
      </g>
     </g>
     <g id="text_9">
      <!-- 40 -->
      <defs>
       <path d="M 37.796875 64.3125 
L 12.890625 25.390625 
L 37.796875 25.390625 
z
M 35.203125 72.90625 
L 47.609375 72.90625 
L 47.609375 25.390625 
L 58.015625 25.390625 
L 58.015625 17.1875 
L 47.609375 17.1875 
L 47.609375 0 
L 37.796875 0 
L 37.796875 17.1875 
L 4.890625 17.1875 
L 4.890625 26.703125 
z
" id="DejaVuSans-52"/>
      </defs>
      <g transform="translate(34.275 179.180014)scale(0.1 -0.1)">
       <use xlink:href="#DejaVuSans-52"/>
       <use x="63.623047" xlink:href="#DejaVuSans-48"/>
      </g>
     </g>
    </g>
    <g id="ytick_4">
     <g id="line2d_10">
      <g>
       <use style="stroke:#000000;stroke-width:0.8;" x="54" xlink:href="#m494e382d3c" y="143.444903"/>
      </g>
     </g>
     <g id="text_10">
      <!-- 60 -->
      <defs>
       <path d="M 33.015625 40.375 
Q 26.375 40.375 22.484375 35.828125 
Q 18.609375 31.296875 18.609375 23.390625 
Q 18.609375 15.53125 22.484375 10.953125 
Q 26.375 6.390625 33.015625 6.390625 
Q 39.65625 6.390625 43.53125 10.953125 
Q 47.40625 15.53125 47.40625 23.390625 
Q 47.40625 31.296875 43.53125 35.828125 
Q 39.65625 40.375 33.015625 40.375 
z
M 52.59375 71.296875 
L 52.59375 62.3125 
Q 48.875 64.0625 45.09375 64.984375 
Q 41.3125 65.921875 37.59375 65.921875 
Q 27.828125 65.921875 22.671875 59.328125 
Q 17.53125 52.734375 16.796875 39.40625 
Q 19.671875 43.65625 24.015625 45.921875 
Q 28.375 48.1875 33.59375 48.1875 
Q 44.578125 48.1875 50.953125 41.515625 
Q 57.328125 34.859375 57.328125 23.390625 
Q 57.328125 12.15625 50.6875 5.359375 
Q 44.046875 -1.421875 33.015625 -1.421875 
Q 20.359375 -1.421875 13.671875 8.265625 
Q 6.984375 17.96875 6.984375 36.375 
Q 6.984375 53.65625 15.1875 63.9375 
Q 23.390625 74.21875 37.203125 74.21875 
Q 40.921875 74.21875 44.703125 73.484375 
Q 48.484375 72.75 52.59375 71.296875 
z
" id="DejaVuSans-54"/>
      </defs>
      <g transform="translate(34.275 147.244121)scale(0.1 -0.1)">
       <use xlink:href="#DejaVuSans-54"/>
       <use x="63.623047" xlink:href="#DejaVuSans-48"/>
      </g>
     </g>
    </g>
    <g id="ytick_5">
     <g id="line2d_11">
      <g>
       <use style="stroke:#000000;stroke-width:0.8;" x="54" xlink:href="#m494e382d3c" y="111.50901"/>
      </g>
     </g>
     <g id="text_11">
      <!-- 80 -->
      <defs>
       <path d="M 31.78125 34.625 
Q 24.75 34.625 20.71875 30.859375 
Q 16.703125 27.09375 16.703125 20.515625 
Q 16.703125 13.921875 20.71875 10.15625 
Q 24.75 6.390625 31.78125 6.390625 
Q 38.8125 6.390625 42.859375 10.171875 
Q 46.921875 13.96875 46.921875 20.515625 
Q 46.921875 27.09375 42.890625 30.859375 
Q 38.875 34.625 31.78125 34.625 
z
M 21.921875 38.8125 
Q 15.578125 40.375 12.03125 44.71875 
Q 8.5 49.078125 8.5 55.328125 
Q 8.5 64.0625 14.71875 69.140625 
Q 20.953125 74.21875 31.78125 74.21875 
Q 42.671875 74.21875 48.875 69.140625 
Q 55.078125 64.0625 55.078125 55.328125 
Q 55.078125 49.078125 51.53125 44.71875 
Q 48 40.375 41.703125 38.8125 
Q 48.828125 37.15625 52.796875 32.3125 
Q 56.78125 27.484375 56.78125 20.515625 
Q 56.78125 9.90625 50.3125 4.234375 
Q 43.84375 -1.421875 31.78125 -1.421875 
Q 19.734375 -1.421875 13.25 4.234375 
Q 6.78125 9.90625 6.78125 20.515625 
Q 6.78125 27.484375 10.78125 32.3125 
Q 14.796875 37.15625 21.921875 38.8125 
z
M 18.3125 54.390625 
Q 18.3125 48.734375 21.84375 45.5625 
Q 25.390625 42.390625 31.78125 42.390625 
Q 38.140625 42.390625 41.71875 45.5625 
Q 45.3125 48.734375 45.3125 54.390625 
Q 45.3125 60.0625 41.71875 63.234375 
Q 38.140625 66.40625 31.78125 66.40625 
Q 25.390625 66.40625 21.84375 63.234375 
Q 18.3125 60.0625 18.3125 54.390625 
z
" id="DejaVuSans-56"/>
      </defs>
      <g transform="translate(34.275 115.308229)scale(0.1 -0.1)">
       <use xlink:href="#DejaVuSans-56"/>
       <use x="63.623047" xlink:href="#DejaVuSans-48"/>
      </g>
     </g>
    </g>
    <g id="ytick_6">
     <g id="line2d_12">
      <g>
       <use style="stroke:#000000;stroke-width:0.8;" x="54" xlink:href="#m494e382d3c" y="79.573118"/>
      </g>
     </g>
     <g id="text_12">
      <!-- 100 -->
      <g transform="translate(27.9125 83.372337)scale(0.1 -0.1)">
       <use xlink:href="#DejaVuSans-49"/>
       <use x="63.623047" xlink:href="#DejaVuSans-48"/>
       <use x="127.246094" xlink:href="#DejaVuSans-48"/>
      </g>
     </g>
    </g>
    <g id="ytick_7">
     <g id="line2d_13">
      <g>
       <use style="stroke:#000000;stroke-width:0.8;" x="54" xlink:href="#m494e382d3c" y="47.637226"/>
      </g>
     </g>
     <g id="text_13">
      <!-- 120 -->
      <g transform="translate(27.9125 51.436444)scale(0.1 -0.1)">
       <use xlink:href="#DejaVuSans-49"/>
       <use x="63.623047" xlink:href="#DejaVuSans-50"/>
       <use x="127.246094" xlink:href="#DejaVuSans-48"/>
      </g>
     </g>
    </g>
   </g>
   <g id="line2d_14">
    <path clip-path="url(#pbf54b610ef)" d="M 69.218182 237.655785 
L 69.333602 237.655785 
L 69.449023 239.25258 
L 70.256966 239.25258 
L 70.372386 224.881428 
L 70.487806 224.881428 
L 70.603227 184.961563 
L 70.718647 184.961563 
L 70.834068 221.687839 
L 70.949488 221.687839 
L 71.064908 239.25258 
L 71.180329 239.25258 
L 71.295749 237.655785 
L 71.642011 237.655785 
L 71.757431 188.155152 
L 71.872851 188.155152 
L 71.988272 223.284633 
L 72.103692 223.284633 
L 72.219113 216.897455 
L 72.334533 216.897455 
L 72.449953 103.525037 
L 72.565374 103.525037 
L 72.680794 148.235286 
L 72.796215 148.235286 
L 72.911635 239.25258 
L 73.027056 239.25258 
L 73.142476 231.268607 
L 73.257896 231.268607 
L 73.373317 239.25258 
L 73.950419 239.25258 
L 74.065839 194.54233 
L 74.18126 194.54233 
L 74.29668 239.25258 
L 75.335464 239.25258 
L 75.450884 237.655785 
L 75.566305 237.655785 
L 75.681725 239.25258 
L 75.797146 239.25258 
L 75.912566 231.268607 
L 76.027986 231.268607 
L 76.143407 229.671812 
L 76.258827 229.671812 
L 76.374248 234.462196 
L 76.489668 234.462196 
L 76.605088 239.25258 
L 76.720509 239.25258 
L 76.835929 237.655785 
L 77.182191 237.655785 
L 77.297611 236.05899 
L 77.413031 236.05899 
L 77.528452 173.784 
L 77.643872 173.784 
L 77.759293 221.687839 
L 77.874713 221.687839 
L 77.990133 236.05899 
L 78.105554 236.05899 
L 78.220974 239.25258 
L 78.336395 239.25258 
L 78.451815 237.655785 
L 78.567235 237.655785 
L 78.682656 239.25258 
L 78.798076 239.25258 
L 78.913497 231.268607 
L 79.028917 231.268607 
L 79.144338 192.945536 
L 79.259758 192.945536 
L 79.375178 44.443636 
L 79.490599 44.443636 
L 79.606019 183.364768 
L 79.72144 183.364768 
L 79.83686 234.462196 
L 79.95228 234.462196 
L 80.067701 237.655785 
L 80.183121 237.655785 
L 80.298542 232.865401 
L 80.413962 232.865401 
L 80.529383 229.671812 
L 80.644803 229.671812 
L 80.760223 239.25258 
L 80.875644 239.25258 
L 80.991064 212.107071 
L 81.106485 212.107071 
L 81.221905 239.25258 
L 81.337325 239.25258 
L 81.452746 234.462196 
L 81.568166 234.462196 
L 81.683587 207.316687 
L 81.799007 207.316687 
L 81.914428 176.97759 
L 82.029848 176.97759 
L 82.145268 237.655785 
L 82.49153 237.655785 
L 82.60695 210.510277 
L 82.72237 210.510277 
L 82.837791 232.865401 
L 83.184052 232.865401 
L 83.299473 237.655785 
L 83.414893 237.655785 
L 83.530313 239.25258 
L 83.645734 239.25258 
L 83.761154 191.348741 
L 83.876575 191.348741 
L 83.991995 226.478223 
L 84.107415 226.478223 
L 84.222836 237.655785 
L 84.338256 237.655785 
L 84.453677 239.25258 
L 84.799938 239.25258 
L 84.915358 237.655785 
L 85.030779 237.655785 
L 85.146199 221.687839 
L 85.26162 221.687839 
L 85.37704 228.075017 
L 85.49246 228.075017 
L 85.607881 239.25258 
L 86.184983 239.25258 
L 86.300403 212.107071 
L 86.415824 212.107071 
L 86.531244 231.268607 
L 86.646665 231.268607 
L 86.762085 232.865401 
L 86.877505 232.865401 
L 86.992926 224.881428 
L 87.108346 224.881428 
L 87.223767 237.655785 
L 87.339187 237.655785 
L 87.454608 239.25258 
L 87.570028 239.25258 
L 87.685448 236.05899 
L 87.800869 236.05899 
L 87.916289 237.655785 
L 88.03171 237.655785 
L 88.14713 231.268607 
L 88.26255 231.268607 
L 88.377971 221.687839 
L 88.493391 221.687839 
L 88.608812 232.865401 
L 88.724232 232.865401 
L 88.839652 231.268607 
L 88.955073 231.268607 
L 89.070493 239.25258 
L 89.878436 239.25258 
L 89.993857 234.462196 
L 90.109277 234.462196 
L 90.224697 197.73592 
L 90.340118 197.73592 
L 90.455538 220.091044 
L 90.570959 220.091044 
L 90.686379 239.25258 
L 91.263481 239.25258 
L 91.378902 220.091044 
L 91.494322 220.091044 
L 91.609742 239.25258 
L 91.725163 239.25258 
L 91.840583 236.05899 
L 91.956004 236.05899 
L 92.071424 239.25258 
L 92.186845 239.25258 
L 92.302265 232.865401 
L 92.417685 232.865401 
L 92.533106 239.25258 
L 92.879367 239.25258 
L 92.994787 196.139125 
L 93.110208 196.139125 
L 93.225628 237.655785 
L 93.341049 237.655785 
L 93.456469 207.316687 
L 93.57189 207.316687 
L 93.68731 239.25258 
L 93.80273 239.25258 
L 93.918151 237.655785 
L 94.033571 237.655785 
L 94.148992 236.05899 
L 94.264412 236.05899 
L 94.379832 239.25258 
L 94.495253 239.25258 
L 94.610673 231.268607 
L 94.726094 231.268607 
L 94.841514 239.25258 
L 95.187775 239.25258 
L 95.303196 232.865401 
L 95.418616 232.865401 
L 95.534037 191.348741 
L 95.649457 191.348741 
L 95.764877 218.49425 
L 95.880298 218.49425 
L 95.995718 234.462196 
L 96.111139 234.462196 
L 96.226559 237.655785 
L 96.34198 237.655785 
L 96.4574 239.25258 
L 97.265343 239.25258 
L 97.380763 232.865401 
L 97.496184 232.865401 
L 97.611604 237.655785 
L 97.727025 237.655785 
L 97.842445 239.25258 
L 97.957865 239.25258 
L 98.073286 229.671812 
L 98.188706 229.671812 
L 98.304127 237.655785 
L 98.419547 237.655785 
L 98.534967 239.25258 
L 99.11207 239.25258 
L 99.22749 234.462196 
L 99.34291 234.462196 
L 99.458331 183.364768 
L 99.573751 183.364768 
L 99.689172 218.49425 
L 99.804592 218.49425 
L 99.920012 239.25258 
L 100.266274 239.25258 
L 100.381694 221.687839 
L 100.497114 221.687839 
L 100.612535 237.655785 
L 100.727955 237.655785 
L 100.843376 239.25258 
L 113.424201 239.25258 
L 113.539621 232.865401 
L 113.655042 232.865401 
L 113.770462 239.25258 
L 126.582128 239.25258 
L 126.697549 237.655785 
L 126.812969 237.655785 
L 126.92839 226.478223 
L 127.04381 226.478223 
L 127.159231 234.462196 
L 127.274651 234.462196 
L 127.390071 239.25258 
L 135.35408 239.25258 
L 135.4695 223.284633 
L 135.584921 223.284633 
L 135.700341 239.25258 
L 138.12417 239.25258 
L 138.23959 153.02567 
L 138.355011 153.02567 
L 138.470431 229.671812 
L 138.585852 229.671812 
L 138.701272 239.25258 
L 138.816693 239.25258 
L 138.932113 237.655785 
L 139.047533 237.655785 
L 139.162954 239.25258 
L 143.433509 239.25258 
L 143.54893 237.655785 
L 143.66435 237.655785 
L 143.77977 239.25258 
L 143.895191 239.25258 
L 144.010611 228.075017 
L 144.126032 228.075017 
L 144.241452 221.687839 
L 144.356872 221.687839 
L 144.472293 239.25258 
L 144.818554 239.25258 
L 144.933975 215.30066 
L 145.049395 215.30066 
L 145.164815 234.462196 
L 145.280236 234.462196 
L 145.395656 239.25258 
L 146.203599 239.25258 
L 146.31902 204.123098 
L 146.43444 204.123098 
L 146.54986 239.25258 
L 146.896122 239.25258 
L 147.011542 237.655785 
L 147.126962 237.655785 
L 147.242383 234.462196 
L 147.357803 234.462196 
L 147.473224 239.25258 
L 147.588644 239.25258 
L 147.704065 215.30066 
L 147.819485 215.30066 
L 147.934905 239.25258 
L 150.127893 239.25258 
L 150.243314 184.961563 
L 150.358734 184.961563 
L 150.474155 207.316687 
L 150.589575 207.316687 
L 150.704995 239.25258 
L 150.820416 239.25258 
L 150.935836 223.284633 
L 151.051257 223.284633 
L 151.166677 210.510277 
L 151.282097 210.510277 
L 151.397518 239.25258 
L 151.512938 239.25258 
L 151.628359 229.671812 
L 151.743779 229.671812 
L 151.8592 231.268607 
L 151.97462 231.268607 
L 152.09004 200.929509 
L 152.205461 200.929509 
L 152.320881 156.21926 
L 152.436302 156.21926 
L 152.551722 215.30066 
L 152.667142 215.30066 
L 152.782563 239.25258 
L 154.283028 239.25258 
L 154.398449 204.123098 
L 154.513869 204.123098 
L 154.629289 239.25258 
L 154.74471 239.25258 
L 154.86013 220.091044 
L 154.975551 220.091044 
L 155.090971 239.25258 
L 155.206392 239.25258 
L 155.321812 205.719893 
L 155.437232 205.719893 
L 155.552653 239.25258 
L 155.668073 239.25258 
L 155.783494 215.30066 
L 155.898914 215.30066 
L 156.014334 239.25258 
L 156.129755 239.25258 
L 156.245175 188.155152 
L 156.360596 188.155152 
L 156.476016 218.49425 
L 156.591437 218.49425 
L 156.706857 199.332714 
L 156.822277 199.332714 
L 156.937698 216.897455 
L 157.053118 216.897455 
L 157.168539 175.380795 
L 157.283959 175.380795 
L 157.399379 208.913482 
L 157.5148 208.913482 
L 157.63022 239.25258 
L 157.745641 239.25258 
L 157.861061 237.655785 
L 157.976482 237.655785 
L 158.091902 224.881428 
L 158.207322 224.881428 
L 158.322743 218.49425 
L 158.438163 218.49425 
L 158.553584 223.284633 
L 158.669004 223.284633 
L 158.784424 239.25258 
L 159.361527 239.25258 
L 159.476947 237.655785 
L 159.592367 237.655785 
L 159.707788 232.865401 
L 159.823208 232.865401 
L 159.938629 231.268607 
L 160.054049 231.268607 
L 160.169469 129.073751 
L 160.28489 129.073751 
L 160.40031 234.462196 
L 160.515731 234.462196 
L 160.631151 239.25258 
L 160.746572 239.25258 
L 160.861992 180.171179 
L 160.977412 180.171179 
L 161.092833 239.25258 
L 161.208253 239.25258 
L 161.323674 236.05899 
L 161.439094 236.05899 
L 161.554514 232.865401 
L 161.669935 232.865401 
L 161.785355 239.25258 
L 161.900776 239.25258 
L 162.016196 237.655785 
L 162.131617 237.655785 
L 162.247037 239.25258 
L 162.362457 239.25258 
L 162.477878 231.268607 
L 162.593298 231.268607 
L 162.708719 226.478223 
L 162.824139 226.478223 
L 162.939559 229.671812 
L 163.05498 229.671812 
L 163.1704 234.462196 
L 163.285821 234.462196 
L 163.401241 239.25258 
L 163.516661 239.25258 
L 163.632082 232.865401 
L 163.747502 232.865401 
L 163.862923 224.881428 
L 163.978343 224.881428 
L 164.093764 226.478223 
L 164.209184 226.478223 
L 164.324604 236.05899 
L 164.440025 236.05899 
L 164.555445 239.25258 
L 164.901706 239.25258 
L 165.017127 221.687839 
L 165.132547 221.687839 
L 165.247968 202.526303 
L 165.363388 202.526303 
L 165.478809 234.462196 
L 165.594229 234.462196 
L 165.709649 236.05899 
L 166.055911 236.05899 
L 166.171331 237.655785 
L 166.517592 237.655785 
L 166.633013 239.25258 
L 166.748433 239.25258 
L 166.863854 231.268607 
L 166.979274 231.268607 
L 167.094694 207.316687 
L 167.210115 207.316687 
L 167.325535 221.687839 
L 167.440956 221.687839 
L 167.556376 202.526303 
L 167.671796 202.526303 
L 167.787217 237.655785 
L 167.902637 237.655785 
L 168.018058 239.25258 
L 168.59516 239.25258 
L 168.71058 236.05899 
L 168.826001 236.05899 
L 168.941421 202.526303 
L 169.056841 202.526303 
L 169.172262 216.897455 
L 169.287682 216.897455 
L 169.403103 151.428876 
L 169.518523 151.428876 
L 169.633944 223.284633 
L 169.749364 223.284633 
L 169.864784 213.703866 
L 169.980205 213.703866 
L 170.095625 239.25258 
L 170.211046 239.25258 
L 170.326466 212.107071 
L 170.441886 212.107071 
L 170.557307 119.492983 
L 170.672727 119.492983 
L 170.788148 215.30066 
L 170.903568 215.30066 
L 171.018989 239.25258 
L 171.134409 239.25258 
L 171.249829 213.703866 
L 171.36525 213.703866 
L 171.48067 239.25258 
L 172.057772 239.25258 
L 172.173193 215.30066 
L 172.288613 215.30066 
L 172.404034 224.881428 
L 172.519454 224.881428 
L 172.634874 218.49425 
L 172.750295 218.49425 
L 172.865715 239.25258 
L 172.981136 239.25258 
L 173.096556 161.009643 
L 173.211976 161.009643 
L 173.327397 237.655785 
L 173.442817 237.655785 
L 173.558238 239.25258 
L 174.13534 239.25258 
L 174.25076 237.655785 
L 174.366181 237.655785 
L 174.481601 239.25258 
L 175.982066 239.25258 
L 176.097487 237.655785 
L 176.212907 237.655785 
L 176.328328 239.25258 
L 177.136271 239.25258 
L 177.251691 231.268607 
L 177.367111 231.268607 
L 177.482532 224.881428 
L 177.597952 224.881428 
L 177.713373 184.961563 
L 177.828793 184.961563 
L 177.944213 180.171179 
L 178.059634 180.171179 
L 178.175054 223.284633 
L 178.290475 223.284633 
L 178.405895 183.364768 
L 178.521316 183.364768 
L 178.636736 239.25258 
L 178.752156 239.25258 
L 178.867577 210.510277 
L 178.982997 210.510277 
L 179.098418 239.25258 
L 179.213838 239.25258 
L 179.329258 232.865401 
L 179.444679 232.865401 
L 179.560099 239.25258 
L 179.906361 239.25258 
L 180.021781 237.655785 
L 180.137201 237.655785 
L 180.252622 239.25258 
L 181.753087 239.25258 
L 181.868508 236.05899 
L 181.983928 236.05899 
L 182.099348 239.25258 
L 182.676451 239.25258 
L 182.791871 237.655785 
L 182.907291 237.655785 
L 183.022712 180.171179 
L 183.138132 180.171179 
L 183.253553 239.25258 
L 183.368973 239.25258 
L 183.484393 229.671812 
L 183.599814 229.671812 
L 183.715234 236.05899 
L 183.830655 236.05899 
L 183.946075 239.25258 
L 186.139063 239.25258 
L 186.254483 237.655785 
L 186.369904 237.655785 
L 186.485324 239.25258 
L 202.528762 239.25258 
L 202.644182 237.655785 
L 202.759603 237.655785 
L 202.875023 239.25258 
L 205.529693 239.25258 
L 205.645113 236.05899 
L 205.760534 236.05899 
L 205.875954 239.25258 
L 212.224077 239.25258 
L 212.339497 232.865401 
L 212.454918 232.865401 
L 212.570338 239.25258 
L 213.14744 239.25258 
L 213.262861 236.05899 
L 213.378281 236.05899 
L 213.493702 221.687839 
L 213.609122 221.687839 
L 213.724542 239.25258 
L 217.071734 239.25258 
L 217.187155 232.865401 
L 217.302575 232.865401 
L 217.417996 239.25258 
L 223.535278 239.25258 
L 223.650698 146.638492 
L 223.766119 146.638492 
L 223.881539 239.25258 
L 223.996959 239.25258 
L 224.11238 236.05899 
L 224.2278 236.05899 
L 224.343221 191.348741 
L 224.458641 191.348741 
L 224.574061 205.719893 
L 224.689482 205.719893 
L 224.804902 239.25258 
L 224.920323 239.25258 
L 225.035743 212.107071 
L 225.151164 212.107071 
L 225.266584 239.25258 
L 226.536209 239.25258 
L 226.651629 237.655785 
L 226.767049 237.655785 
L 226.88247 239.25258 
L 227.459572 239.25258 
L 227.574992 215.30066 
L 227.690413 215.30066 
L 227.805833 239.25258 
L 228.382935 239.25258 
L 228.498356 229.671812 
L 228.613776 229.671812 
L 228.729196 236.05899 
L 228.844617 236.05899 
L 228.960037 239.25258 
L 229.075458 239.25258 
L 229.190878 216.897455 
L 229.306298 216.897455 
L 229.421719 239.25258 
L 230.922184 239.25258 
L 231.037605 220.091044 
L 231.153025 220.091044 
L 231.268446 239.25258 
L 232.076388 239.25258 
L 232.191809 226.478223 
L 232.307229 226.478223 
L 232.42265 239.25258 
L 232.768911 239.25258 
L 232.884331 237.655785 
L 232.999752 237.655785 
L 233.115172 196.139125 
L 233.230593 196.139125 
L 233.346013 213.703866 
L 233.461433 213.703866 
L 233.576854 239.25258 
L 233.923115 239.25258 
L 234.038536 165.800027 
L 234.153956 165.800027 
L 234.269376 237.655785 
L 234.384797 237.655785 
L 234.500217 239.25258 
L 235.30816 239.25258 
L 235.423581 221.687839 
L 235.539001 221.687839 
L 235.654421 239.25258 
L 235.769842 239.25258 
L 235.885262 220.091044 
L 236.000683 220.091044 
L 236.116103 239.25258 
L 236.462364 239.25258 
L 236.577785 178.574384 
L 236.693205 178.574384 
L 236.808626 232.865401 
L 236.924046 232.865401 
L 237.039466 237.655785 
L 237.154887 237.655785 
L 237.270307 226.478223 
L 237.385728 226.478223 
L 237.501148 239.25258 
L 238.07825 239.25258 
L 238.19367 207.316687 
L 238.309091 207.316687 
L 238.424511 239.25258 
L 239.694136 239.25258 
L 239.809556 237.655785 
L 240.155818 237.655785 
L 240.271238 138.654519 
L 240.386658 138.654519 
L 240.502079 226.478223 
L 240.617499 226.478223 
L 240.73292 178.574384 
L 240.84834 178.574384 
L 240.96376 231.268607 
L 241.079181 231.268607 
L 241.194601 226.478223 
L 241.310022 226.478223 
L 241.425442 207.316687 
L 241.540863 207.316687 
L 241.656283 239.25258 
L 241.771703 239.25258 
L 241.887124 237.655785 
L 242.002544 237.655785 
L 242.117965 239.25258 
L 242.464226 239.25258 
L 242.579646 234.462196 
L 242.695067 234.462196 
L 242.810487 208.913482 
L 242.925908 208.913482 
L 243.041328 234.462196 
L 243.156748 234.462196 
L 243.272169 224.881428 
L 243.387589 224.881428 
L 243.50301 106.718626 
L 243.61843 106.718626 
L 243.73385 132.26734 
L 243.849271 132.26734 
L 243.964691 197.73592 
L 244.080112 197.73592 
L 244.195532 239.25258 
L 245.003475 239.25258 
L 245.118895 232.865401 
L 245.234316 232.865401 
L 245.349736 239.25258 
L 245.695998 239.25258 
L 245.811418 231.268607 
L 245.926838 231.268607 
L 246.042259 237.655785 
L 246.157679 237.655785 
L 246.2731 239.25258 
L 246.38852 239.25258 
L 246.50394 192.945536 
L 246.619361 192.945536 
L 246.734781 181.767973 
L 246.850202 181.767973 
L 246.965622 175.380795 
L 247.081043 175.380795 
L 247.196463 178.574384 
L 247.311883 178.574384 
L 247.427304 239.25258 
L 248.004406 239.25258 
L 248.119826 218.49425 
L 248.235247 218.49425 
L 248.350667 138.654519 
L 248.466087 138.654519 
L 248.581508 216.897455 
L 248.696928 216.897455 
L 248.812349 159.412849 
L 248.927769 159.412849 
L 249.04319 95.541064 
L 249.15861 95.541064 
L 249.27403 186.558357 
L 249.389451 186.558357 
L 249.504871 168.993616 
L 249.620292 168.993616 
L 249.735712 232.865401 
L 249.851132 232.865401 
L 249.966553 236.05899 
L 250.081973 236.05899 
L 250.197394 220.091044 
L 250.312814 220.091044 
L 250.428235 124.283367 
L 250.543655 124.283367 
L 250.659075 237.655785 
L 250.774496 237.655785 
L 250.889916 196.139125 
L 251.005337 196.139125 
L 251.120757 208.913482 
L 251.236177 208.913482 
L 251.351598 218.49425 
L 251.467018 218.49425 
L 251.582439 239.25258 
L 251.697859 239.25258 
L 251.81328 218.49425 
L 251.9287 218.49425 
L 252.04412 121.089778 
L 252.159541 121.089778 
L 252.274961 165.800027 
L 252.390382 165.800027 
L 252.505802 205.719893 
L 252.621222 205.719893 
L 252.736643 223.284633 
L 252.852063 223.284633 
L 252.967484 239.25258 
L 253.544586 239.25258 
L 253.660006 236.05899 
L 253.775427 236.05899 
L 253.890847 239.25258 
L 254.69879 239.25258 
L 254.81421 237.655785 
L 254.929631 237.655785 
L 255.045051 229.671812 
L 255.160472 229.671812 
L 255.275892 223.284633 
L 255.391312 223.284633 
L 255.506733 239.25258 
L 255.622153 239.25258 
L 255.737574 202.526303 
L 255.852994 202.526303 
L 255.968415 232.865401 
L 256.083835 232.865401 
L 256.199255 228.075017 
L 256.314676 228.075017 
L 256.430096 178.574384 
L 256.545517 178.574384 
L 256.660937 98.734653 
L 256.776357 98.734653 
L 256.891778 226.478223 
L 257.007198 226.478223 
L 257.122619 239.25258 
L 257.238039 239.25258 
L 257.35346 228.075017 
L 257.46888 228.075017 
L 257.5843 239.25258 
L 258.161402 239.25258 
L 258.276823 236.05899 
L 258.392243 236.05899 
L 258.507664 228.075017 
L 258.623084 228.075017 
L 258.738504 234.462196 
L 258.853925 234.462196 
L 258.969345 178.574384 
L 259.084766 178.574384 
L 259.200186 199.332714 
L 259.315607 199.332714 
L 259.431027 137.057724 
L 259.546447 137.057724 
L 259.661868 181.767973 
L 259.777288 181.767973 
L 259.892709 231.268607 
L 260.008129 231.268607 
L 260.123549 239.25258 
L 260.23897 239.25258 
L 260.35439 231.268607 
L 260.700652 231.268607 
L 260.816072 223.284633 
L 260.931492 223.284633 
L 261.046913 239.25258 
L 261.162333 239.25258 
L 261.277754 236.05899 
L 261.393174 236.05899 
L 261.508594 232.865401 
L 261.624015 232.865401 
L 261.739435 224.881428 
L 261.854856 224.881428 
L 261.970276 239.25258 
L 262.085697 239.25258 
L 262.201117 200.929509 
L 262.316537 200.929509 
L 262.431958 239.25258 
L 263.470742 239.25258 
L 263.586162 210.510277 
L 263.701582 210.510277 
L 263.817003 143.444903 
L 263.932423 143.444903 
L 264.047844 213.703866 
L 264.163264 213.703866 
L 264.278684 212.107071 
L 264.394105 212.107071 
L 264.509525 165.800027 
L 264.624946 165.800027 
L 264.740366 239.25258 
L 266.933354 239.25258 
L 267.048774 236.05899 
L 267.164195 236.05899 
L 267.279615 239.25258 
L 267.395036 239.25258 
L 267.510456 223.284633 
L 267.625877 223.284633 
L 267.741297 239.25258 
L 267.856717 239.25258 
L 267.972138 224.881428 
L 268.087558 224.881428 
L 268.202979 237.655785 
L 268.318399 237.655785 
L 268.433819 239.25258 
L 268.54924 239.25258 
L 268.66466 236.05899 
L 268.780081 236.05899 
L 268.895501 239.25258 
L 269.010922 239.25258 
L 269.126342 210.510277 
L 269.241762 210.510277 
L 269.357183 224.881428 
L 269.472603 224.881428 
L 269.588024 239.25258 
L 284.708098 239.25258 
L 284.823518 237.655785 
L 284.938939 237.655785 
L 285.054359 239.25258 
L 292.325845 239.25258 
L 292.441266 234.462196 
L 292.556686 234.462196 
L 292.672107 239.25258 
L 296.711821 239.25258 
L 296.827242 237.655785 
L 296.942662 237.655785 
L 297.058083 239.25258 
L 297.404344 239.25258 
L 297.519764 232.865401 
L 297.635185 232.865401 
L 297.750605 239.25258 
L 300.405275 239.25258 
L 300.520695 226.478223 
L 300.636115 226.478223 
L 300.751536 239.25258 
L 303.406205 239.25258 
L 303.521626 212.107071 
L 303.637046 212.107071 
L 303.752467 239.25258 
L 305.714614 239.25258 
L 305.830034 236.05899 
L 305.945455 236.05899 
L 306.060875 239.25258 
L 306.176295 239.25258 
L 306.291716 208.913482 
L 306.407136 208.913482 
L 306.522557 239.25258 
L 308.484704 239.25258 
L 308.600124 237.655785 
L 308.715545 237.655785 
L 308.830965 218.49425 
L 308.946385 218.49425 
L 309.061806 234.462196 
L 309.177226 234.462196 
L 309.292647 194.54233 
L 309.408067 194.54233 
L 309.523487 239.25258 
L 309.638908 239.25258 
L 309.754328 236.05899 
L 309.869749 236.05899 
L 309.985169 224.881428 
L 310.10059 224.881428 
L 310.21601 213.703866 
L 310.33143 213.703866 
L 310.446851 239.25258 
L 316.564133 239.25258 
L 316.679553 223.284633 
L 316.794974 223.284633 
L 316.910394 239.25258 
L 317.949178 239.25258 
L 318.064598 221.687839 
L 318.180019 221.687839 
L 318.295439 239.25258 
L 318.410859 239.25258 
L 318.52628 236.05899 
L 318.6417 236.05899 
L 318.757121 239.25258 
L 319.103382 239.25258 
L 319.218802 212.107071 
L 319.334223 212.107071 
L 319.449643 192.945536 
L 319.565064 192.945536 
L 319.680484 236.05899 
L 319.795904 236.05899 
L 319.911325 239.25258 
L 320.488427 239.25258 
L 320.603847 204.123098 
L 320.719268 204.123098 
L 320.834688 237.655785 
L 320.950109 237.655785 
L 321.065529 205.719893 
L 321.180949 205.719893 
L 321.29637 156.21926 
L 321.41179 156.21926 
L 321.527211 239.25258 
L 321.873472 239.25258 
L 321.988892 231.268607 
L 322.104313 231.268607 
L 322.219733 208.913482 
L 322.335154 208.913482 
L 322.450574 234.462196 
L 322.565994 234.462196 
L 322.681415 232.865401 
L 322.796835 232.865401 
L 322.912256 216.897455 
L 323.027676 216.897455 
L 323.143096 239.25258 
L 323.489358 239.25258 
L 323.604778 234.462196 
L 323.720199 234.462196 
L 323.835619 239.25258 
L 324.874403 239.25258 
L 324.989823 165.800027 
L 325.105244 165.800027 
L 325.220664 207.316687 
L 325.336084 207.316687 
L 325.451505 239.25258 
L 325.566925 239.25258 
L 325.682346 196.139125 
L 325.797766 196.139125 
L 325.913186 239.25258 
L 326.028607 239.25258 
L 326.144027 119.492983 
L 326.259448 119.492983 
L 326.374868 220.091044 
L 326.490289 220.091044 
L 326.605709 239.25258 
L 326.721129 239.25258 
L 326.83655 234.462196 
L 326.95197 234.462196 
L 327.067391 220.091044 
L 327.182811 220.091044 
L 327.298231 239.25258 
L 327.413652 239.25258 
L 327.529072 232.865401 
L 327.644493 232.865401 
L 327.759913 236.05899 
L 327.875334 236.05899 
L 327.990754 239.25258 
L 328.337015 239.25258 
L 328.452436 236.05899 
L 328.567856 236.05899 
L 328.683276 237.655785 
L 328.798697 237.655785 
L 328.914117 239.25258 
L 329.260379 239.25258 
L 329.375799 234.462196 
L 329.491219 234.462196 
L 329.60664 236.05899 
L 329.72206 236.05899 
L 329.837481 239.25258 
L 330.645424 239.25258 
L 330.760844 236.05899 
L 330.876264 236.05899 
L 330.991685 231.268607 
L 331.107105 231.268607 
L 331.222526 181.767973 
L 331.337946 181.767973 
L 331.453366 146.638492 
L 331.568787 146.638492 
L 331.684207 216.897455 
L 331.799628 216.897455 
L 331.915048 157.816054 
L 332.030469 157.816054 
L 332.145889 191.348741 
L 332.261309 191.348741 
L 332.37673 239.25258 
L 332.953832 239.25258 
L 333.069252 237.655785 
L 333.184673 237.655785 
L 333.300093 223.284633 
L 333.415513 223.284633 
L 333.530934 239.25258 
L 333.646354 239.25258 
L 333.761775 205.719893 
L 333.877195 205.719893 
L 333.992616 239.25258 
L 334.108036 239.25258 
L 334.223456 204.123098 
L 334.338877 204.123098 
L 334.454297 224.881428 
L 334.569718 224.881428 
L 334.685138 218.49425 
L 334.800558 218.49425 
L 334.915979 226.478223 
L 335.031399 226.478223 
L 335.14682 237.655785 
L 335.493081 237.655785 
L 335.608501 234.462196 
L 335.723922 234.462196 
L 335.839342 183.364768 
L 335.954763 183.364768 
L 336.070183 221.687839 
L 336.185603 221.687839 
L 336.301024 234.462196 
L 336.416444 234.462196 
L 336.531865 213.703866 
L 336.647285 213.703866 
L 336.762706 237.655785 
L 336.878126 237.655785 
L 336.993546 239.25258 
L 337.570648 239.25258 
L 337.686069 153.02567 
L 337.801489 153.02567 
L 337.91691 237.655785 
L 338.03233 237.655785 
L 338.147751 223.284633 
L 338.263171 223.284633 
L 338.378591 232.865401 
L 338.494012 232.865401 
L 338.609432 239.25258 
L 338.955693 239.25258 
L 339.071114 237.655785 
L 339.186534 237.655785 
L 339.301955 239.25258 
L 339.648216 239.25258 
L 339.763636 237.655785 
L 339.879057 237.655785 
L 339.994477 231.268607 
L 340.109898 231.268607 
L 340.225318 205.719893 
L 340.340738 205.719893 
L 340.456159 234.462196 
L 340.571579 234.462196 
L 340.687 239.25258 
L 340.80242 239.25258 
L 340.917841 221.687839 
L 341.033261 221.687839 
L 341.148681 236.05899 
L 341.264102 236.05899 
L 341.379522 237.655785 
L 341.494943 237.655785 
L 341.610363 197.73592 
L 341.725783 197.73592 
L 341.841204 239.25258 
L 341.956624 239.25258 
L 342.072045 220.091044 
L 342.187465 220.091044 
L 342.302886 239.25258 
L 342.418306 239.25258 
L 342.533726 236.05899 
L 342.649147 236.05899 
L 342.764567 212.107071 
L 342.879988 212.107071 
L 342.995408 239.25258 
L 343.57251 239.25258 
L 343.68793 186.558357 
L 343.803351 186.558357 
L 343.918771 239.25258 
L 344.034192 239.25258 
L 344.149612 221.687839 
L 344.265033 221.687839 
L 344.380453 223.284633 
L 344.495873 223.284633 
L 344.611294 239.25258 
L 345.188396 239.25258 
L 345.303816 236.05899 
L 345.419237 236.05899 
L 345.534657 237.655785 
L 345.650078 237.655785 
L 345.765498 231.268607 
L 345.880918 231.268607 
L 345.996339 221.687839 
L 346.111759 221.687839 
L 346.22718 232.865401 
L 346.3426 232.865401 
L 346.45802 231.268607 
L 346.573441 231.268607 
L 346.688861 239.25258 
L 347.496804 239.25258 
L 347.612225 234.462196 
L 347.727645 234.462196 
L 347.843065 197.73592 
L 347.958486 197.73592 
L 348.073906 220.091044 
L 348.189327 220.091044 
L 348.304747 239.25258 
L 348.881849 239.25258 
L 348.99727 220.091044 
L 349.11269 220.091044 
L 349.22811 239.25258 
L 349.343531 239.25258 
L 349.458951 236.05899 
L 349.574372 236.05899 
L 349.689792 239.25258 
L 349.805213 239.25258 
L 349.920633 232.865401 
L 350.036053 232.865401 
L 350.151474 239.25258 
L 350.497735 239.25258 
L 350.613155 196.139125 
L 350.728576 196.139125 
L 350.843996 237.655785 
L 350.959417 237.655785 
L 351.074837 207.316687 
L 351.190258 207.316687 
L 351.305678 239.25258 
L 351.421098 239.25258 
L 351.536519 237.655785 
L 351.651939 237.655785 
L 351.76736 236.05899 
L 351.88278 236.05899 
L 351.9982 239.25258 
L 353.498666 239.25258 
L 353.614086 231.268607 
L 353.729507 231.268607 
L 353.844927 239.25258 
L 354.65287 239.25258 
L 354.76829 237.655785 
L 354.883711 237.655785 
L 354.999131 234.462196 
L 355.345392 234.462196 
L 355.460813 239.25258 
L 358.346323 239.25258 
L 358.461744 165.800027 
L 358.577164 165.800027 
L 358.692585 228.075017 
L 358.808005 228.075017 
L 358.923425 223.284633 
L 359.038846 223.284633 
L 359.154266 237.655785 
L 359.269687 237.655785 
L 359.385107 239.25258 
L 359.962209 239.25258 
L 360.07763 237.655785 
L 360.19305 237.655785 
L 360.30847 234.462196 
L 360.423891 234.462196 
L 360.539311 205.719893 
L 360.654732 205.719893 
L 360.770152 239.25258 
L 373.581818 239.25258 
L 373.581818 239.25258 
" style="fill:none;stroke:#1f77b4;stroke-linecap:square;stroke-width:1.5;"/>
   </g>
   <g id="line2d_15">
    <path clip-path="url(#pbf54b610ef)" d="M 69.218182 232.130155 
L 69.333602 228.452402 
L 69.564443 236.296316 
L 69.679863 236.253288 
L 69.910704 239.018137 
L 70.026125 238.895333 
L 70.141545 239.475184 
L 70.372386 238.660879 
L 70.603227 232.405425 
L 70.834068 214.064412 
L 70.949488 222.303644 
L 71.064908 222.450022 
L 71.295749 230.162859 
L 71.52659 234.765753 
L 71.757431 232.895476 
L 71.988272 214.318111 
L 72.103692 222.002352 
L 72.219113 221.32348 
L 72.334533 217.920184 
L 72.449953 218.275447 
L 72.680794 176.406814 
L 72.796215 184.900529 
L 72.911635 179.644676 
L 73.142476 215.285281 
L 73.488737 223.81909 
L 73.719578 219.725521 
L 73.950419 228.45967 
L 74.065839 226.943966 
L 74.29668 204.731819 
L 74.527521 220.378441 
L 74.873782 239.712976 
L 74.989203 239.749589 
L 75.220043 235.340868 
L 75.450884 238.956137 
L 75.566305 237.438619 
L 75.797146 233.663012 
L 75.912566 233.510216 
L 76.027986 228.477655 
L 76.143407 229.763547 
L 76.258827 233.417204 
L 76.374248 230.181951 
L 76.835929 238.617057 
L 77.06677 235.44019 
L 77.297611 235.560692 
L 77.528452 234.942372 
L 77.759293 210.171159 
L 77.990133 220.983605 
L 78.336395 232.962248 
L 78.451815 235.321484 
L 78.567235 233.943901 
L 78.682656 231.12351 
L 78.913497 235.516921 
L 79.144338 230.610517 
L 79.375178 213.607633 
L 79.606019 150.435817 
L 79.83686 188.763854 
L 80.067701 213.814026 
L 80.298542 227.510647 
L 80.529383 217.482247 
L 80.644803 220.059382 
L 80.875644 224.506522 
L 80.991064 220.397002 
L 81.106485 207.859225 
L 81.221905 208.013705 
L 81.337325 208.8982 
L 81.568166 233.884996 
L 81.683587 233.406906 
L 82.145268 208.927048 
L 82.376109 228.362455 
L 82.49153 229.447833 
L 82.60695 229.170171 
L 82.837791 218.141768 
L 82.953211 221.958293 
L 83.068632 221.137324 
L 83.184052 226.962539 
L 83.299473 226.489552 
L 83.530313 232.505032 
L 83.645734 228.479705 
L 83.761154 230.195703 
L 83.876575 213.883086 
L 83.991995 213.812964 
L 84.107415 227.11283 
L 84.222836 225.317022 
L 84.684518 235.168312 
L 84.799938 236.160045 
L 84.915358 233.127953 
L 85.030779 233.618645 
L 85.146199 235.516156 
L 85.37704 227.215192 
L 85.49246 227.572542 
L 85.607881 226.728347 
L 85.723301 228.008587 
L 86.069563 237.39739 
L 86.300403 236.313027 
L 86.531244 225.728325 
L 86.762085 231.411311 
L 86.992926 230.767451 
L 87.108346 227.60489 
L 87.223767 228.46572 
L 87.339187 232.37327 
L 87.454608 231.813392 
L 87.685448 234.933119 
L 87.800869 234.976466 
L 87.916289 235.328378 
L 88.14713 234.181817 
L 88.26255 230.432844 
L 88.377971 231.737263 
L 88.608812 228.428058 
L 88.839652 231.266487 
L 88.955073 231.126849 
L 89.070493 231.852541 
L 89.301334 236.187029 
L 89.532175 235.980261 
L 89.647595 236.032161 
L 89.763016 236.343027 
L 89.878436 236.2996 
L 89.993857 235.489903 
L 90.224697 233.651746 
L 90.455538 219.674214 
L 90.570959 224.853008 
L 90.686379 224.644383 
L 90.91722 232.142859 
L 91.148061 236.355851 
L 91.263481 235.785916 
L 91.378902 234.533542 
L 91.609742 228.014285 
L 91.725163 232.953125 
L 91.840583 232.796379 
L 92.071424 231.096925 
L 92.186845 230.783491 
L 92.417685 234.4142 
L 92.533106 233.353488 
L 92.763947 237.655223 
L 92.879367 237.526538 
L 92.994787 237.033845 
L 93.225628 220.381053 
L 93.456469 230.67173 
L 93.68731 221.306367 
L 93.918151 232.620709 
L 94.033571 232.422482 
L 94.148992 230.273612 
L 94.264412 232.142486 
L 94.379832 235.936549 
L 94.495253 235.835124 
L 94.726094 230.140754 
L 94.841514 231.104466 
L 94.956935 230.931706 
L 95.072355 232.716011 
L 95.187775 236.337478 
L 95.303196 235.293672 
L 95.418616 231.892263 
L 95.534037 234.481235 
L 95.764877 218.307878 
L 96.111139 228.84309 
L 96.226559 229.628737 
L 96.4574 233.618258 
L 96.57282 233.337978 
L 96.688241 232.244374 
L 96.803661 234.087475 
L 96.919082 234.103661 
L 97.149922 234.841842 
L 97.380763 233.021058 
L 97.496184 228.96338 
L 97.727025 235.887647 
L 97.842445 235.83826 
L 98.073286 237.437636 
L 98.304127 234.943036 
L 98.419547 236.703607 
L 98.534967 236.356457 
L 98.765808 237.157381 
L 98.881229 237.159276 
L 99.11207 236.584093 
L 99.458331 234.478135 
L 99.689172 215.321777 
L 99.920012 222.586209 
L 100.150853 230.511152 
L 100.381694 235.515585 
L 100.612535 226.221505 
L 100.843376 232.786279 
L 100.958796 233.709654 
L 101.189637 232.428989 
L 101.305057 232.837678 
L 101.420478 229.860064 
L 101.882159 238.4217 
L 101.99758 237.657354 
L 102.113 237.647946 
L 102.228421 238.002029 
L 102.343841 236.925518 
L 102.574682 239.005276 
L 102.805523 237.805017 
L 102.920943 237.44591 
L 103.036364 237.677572 
L 103.151784 237.366342 
L 103.267204 237.70749 
L 103.382625 237.084332 
L 103.613466 238.666584 
L 103.728886 238.052366 
L 103.844307 238.25103 
L 104.075147 237.489328 
L 104.190568 237.718727 
L 104.305988 237.633411 
L 104.536829 238.421707 
L 104.76767 238.19188 
L 104.998511 238.016445 
L 105.344772 238.152707 
L 108.114862 238.157478 
L 113.539621 238.157478 
L 113.770462 235.638732 
L 114.001303 237.402285 
L 114.462985 238.091121 
L 114.578405 237.928651 
L 114.693826 237.60964 
L 115.040087 238.035911 
L 115.270928 237.712912 
L 115.386348 237.761014 
L 115.501769 237.445781 
L 115.732609 238.41067 
L 115.96345 238.147105 
L 116.309711 238.236935 
L 117.463916 238.034581 
L 117.810177 238.179608 
L 118.502699 238.157478 
L 126.697549 238.157478 
L 126.92839 237.527792 
L 127.159231 232.931187 
L 127.274651 234.613365 
L 127.390071 234.634302 
L 127.620912 236.584651 
L 127.851753 237.516612 
L 127.967173 237.406764 
L 128.082594 236.993529 
L 128.428855 237.538287 
L 128.890537 236.463957 
L 129.121378 238.127495 
L 129.236798 238.070849 
L 129.352218 238.350803 
L 130.160161 238.142399 
L 130.621843 237.913413 
L 130.737263 238.010139 
L 130.852684 237.882674 
L 131.083525 238.280507 
L 131.198945 238.156234 
L 131.314365 238.230555 
L 131.545206 238.056476 
L 132.237729 238.157478 
L 135.4695 238.157478 
L 135.700341 231.860612 
L 135.931182 236.269495 
L 136.392864 237.991584 
L 136.623705 236.787883 
L 136.854545 237.972432 
L 136.969966 237.853561 
L 137.200807 237.046062 
L 137.316227 237.166317 
L 137.431648 236.378236 
L 137.662488 238.790457 
L 137.893329 238.131546 
L 138.12417 238.39925 
L 138.23959 238.356119 
L 138.470431 204.285128 
L 138.701272 224.143242 
L 139.047533 232.885705 
L 139.162954 235.703503 
L 139.278374 234.313738 
L 139.393795 230.166086 
L 139.624635 236.480877 
L 139.740056 235.973563 
L 139.970897 231.812159 
L 140.086317 232.007339 
L 140.201738 227.7467 
L 140.432578 240.477625 
L 140.663419 238.286089 
L 140.89426 239.269562 
L 141.125101 239.113778 
L 141.240521 238.999952 
L 141.586783 237.622388 
L 141.702203 236.992125 
L 141.817623 237.238877 
L 141.933044 237.036772 
L 142.048464 237.477201 
L 142.163885 236.382616 
L 142.394725 239.399592 
L 142.625566 238.337005 
L 142.856407 237.435159 
L 143.087248 238.106989 
L 143.54893 238.144594 
L 143.77977 237.527792 
L 144.010611 237.96868 
L 144.241452 233.625941 
L 144.472293 229.892748 
L 144.703134 235.077625 
L 144.933975 236.661813 
L 145.164815 227.4823 
L 145.280236 231.759423 
L 145.395656 231.70124 
L 145.626497 234.831272 
L 145.857338 235.885525 
L 146.088179 234.419362 
L 146.203599 235.171374 
L 146.31902 236.735251 
L 146.54986 223.215132 
L 146.780701 232.531431 
L 146.896122 232.118276 
L 147.242383 237.280943 
L 147.473224 233.090485 
L 147.704065 237.057988 
L 147.934905 226.210094 
L 148.165746 232.772775 
L 148.281167 231.431805 
L 148.512007 237.94509 
L 148.627428 237.720018 
L 148.858269 235.370211 
L 149.08911 238.250049 
L 149.435371 236.688735 
L 149.550791 236.454603 
L 149.666212 235.157619 
L 149.897052 238.826303 
L 150.012473 238.081068 
L 150.243314 237.714857 
L 150.474155 217.602204 
L 150.589575 220.392558 
L 150.704995 219.272786 
L 150.935836 229.743173 
L 151.051257 227.423256 
L 151.166677 228.434212 
L 151.397518 219.748738 
L 151.628359 229.681775 
L 151.743779 228.681435 
L 151.8592 228.964718 
L 152.09004 227.074884 
L 152.205461 213.673677 
L 152.320881 213.827824 
L 152.551722 197.943445 
L 152.667142 213.517548 
L 152.782563 213.22937 
L 153.013404 226.057542 
L 153.359665 232.844084 
L 153.475085 229.871062 
L 153.590506 230.308893 
L 153.821347 231.881536 
L 154.052187 227.57806 
L 154.167608 228.707489 
L 154.283028 228.285048 
L 154.398449 233.144 
L 154.629289 224.495051 
L 154.86013 234.402348 
L 155.090971 228.732007 
L 155.321812 236.676703 
L 155.552653 219.509404 
L 155.783494 231.736162 
L 156.014334 220.630228 
L 156.245175 231.267411 
L 156.476016 211.346625 
L 156.706857 222.613806 
L 156.937698 210.761323 
L 157.168539 220.575529 
L 157.399379 200.080522 
L 157.63022 213.147741 
L 157.861061 221.654757 
L 158.091902 228.027614 
L 158.322743 219.736477 
L 158.438163 221.307041 
L 158.553584 221.18635 
L 158.669004 220.429973 
L 158.784424 221.040464 
L 159.015265 228.438713 
L 159.130686 227.041774 
L 159.476947 235.98813 
L 159.592367 236.962806 
L 160.054049 231.521263 
L 160.169469 230.347047 
L 160.40031 190.98123 
L 160.631151 220.39259 
L 160.861992 227.625758 
L 161.092833 211.642262 
L 161.208253 224.164533 
L 161.323674 221.612155 
L 161.439094 224.261252 
L 161.554514 229.935025 
L 161.669935 228.978726 
L 162.131617 220.862985 
L 162.362457 240.119186 
L 162.593298 231.027953 
L 162.708719 231.905597 
L 162.824139 227.523459 
L 163.05498 235.268996 
L 163.1704 232.910179 
L 163.285821 233.016154 
L 163.401241 233.521292 
L 163.516661 235.091202 
L 163.632082 234.709532 
L 163.862923 233.06613 
L 164.093764 228.08159 
L 164.324604 230.236586 
L 164.670866 232.644742 
L 164.786286 232.619232 
L 165.017127 236.744204 
L 165.478809 219.769524 
L 165.709649 228.941249 
L 166.286751 234.365819 
L 166.402172 233.234379 
L 166.633013 235.317151 
L 166.748433 235.486248 
L 166.863854 234.616842 
L 166.979274 230.596694 
L 167.094694 231.168219 
L 167.325535 222.022572 
L 167.440956 227.273866 
L 167.556376 226.065306 
L 167.787217 218.750523 
L 168.018058 231.096999 
L 168.479739 234.987775 
L 168.59516 234.248642 
L 168.826001 231.100647 
L 168.941421 232.174802 
L 169.172262 218.158573 
L 169.403103 222.382613 
L 169.633944 196.458449 
L 169.864784 219.674375 
L 170.095625 216.717743 
L 170.326466 230.862697 
L 170.557307 215.031825 
L 170.788148 180.532708 
L 170.903568 200.632129 
L 171.018989 200.816054 
L 171.249829 218.193511 
L 171.36525 210.882342 
L 171.48067 215.974065 
L 171.596091 227.592039 
L 171.711511 223.878233 
L 171.826931 225.91521 
L 172.057772 233.931425 
L 172.173193 230.531011 
L 172.404034 216.931707 
L 172.519454 215.110573 
L 172.750295 227.931714 
L 172.865715 223.402837 
L 173.096556 233.227785 
L 173.327397 202.273675 
L 173.558238 228.620295 
L 173.673658 228.627548 
L 173.789078 227.997386 
L 174.019919 232.75078 
L 174.25076 226.042742 
L 174.481601 232.340524 
L 174.712442 234.143108 
L 174.827862 233.495265 
L 174.943283 233.668042 
L 175.058703 228.69738 
L 175.289544 240.864439 
L 175.404964 239.341407 
L 175.520385 238.097274 
L 175.751226 238.891073 
L 175.982066 238.219889 
L 176.328328 237.144162 
L 176.443748 237.282675 
L 176.559168 236.78104 
L 176.90543 237.467806 
L 177.02085 236.529664 
L 177.136271 237.35172 
L 177.251691 239.149258 
L 177.597952 231.9181 
L 177.713373 230.805511 
L 177.944213 214.299687 
L 178.175054 207.133128 
L 178.405895 219.878305 
L 178.636736 207.777141 
L 178.867577 224.438848 
L 179.098418 215.349386 
L 179.329258 227.815223 
L 179.560099 221.131179 
L 179.67552 222.970839 
L 179.906361 229.992032 
L 180.021781 228.936336 
L 180.252622 234.225992 
L 180.368042 232.442099 
L 180.483463 234.475813 
L 180.598883 239.200279 
L 180.829724 235.476342 
L 181.060565 239.456137 
L 181.291406 236.750623 
L 181.406826 236.90478 
L 181.522246 237.901086 
L 181.637667 236.648969 
L 181.868508 237.12486 
L 181.983928 236.163347 
L 182.214769 236.912588 
L 182.330189 236.242911 
L 182.44561 236.684105 
L 182.56103 238.040566 
L 182.907291 236.86845 
L 183.022712 237.224226 
L 183.253553 214.518683 
L 183.484393 230.724705 
L 183.599814 229.077915 
L 183.715234 229.570663 
L 183.946075 234.773175 
L 184.061496 234.65288 
L 184.176916 232.013013 
L 184.407757 237.064245 
L 184.523177 236.48004 
L 184.754018 233.245998 
L 184.869438 234.051825 
L 184.984859 231.292313 
L 185.2157 239.747037 
L 185.44654 236.763812 
L 185.677381 239.067937 
L 185.908222 238.764444 
L 186.023643 238.804687 
L 186.254483 238.131249 
L 186.485324 236.806347 
L 186.600745 237.376953 
L 186.716165 237.251008 
L 186.831585 237.533842 
L 186.947006 236.786602 
L 187.177847 238.979062 
L 187.408688 237.811597 
L 187.524108 237.587116 
L 187.870369 238.126567 
L 188.10121 237.982438 
L 188.21663 237.930103 
L 188.562892 238.174832 
L 189.139994 238.171329 
L 202.644182 238.157478 
L 202.875023 237.527792 
L 203.105864 237.96868 
L 203.682966 238.100272 
L 203.913807 238.069173 
L 204.144648 238.127087 
L 204.60633 237.979554 
L 204.952591 238.174832 
L 205.529693 238.171329 
L 205.645113 238.170551 
L 205.875954 236.894004 
L 206.106795 237.758389 
L 206.683897 238.031367 
L 206.799317 237.910373 
L 207.145579 238.086284 
L 207.376419 237.930424 
L 207.49184 237.959246 
L 207.60726 237.80163 
L 207.838101 238.284074 
L 207.953522 238.192185 
L 208.184362 238.183905 
L 208.646044 238.183624 
L 209.684828 238.134084 
L 209.915669 238.168543 
L 211.300714 238.157478 
L 212.339497 238.157478 
L 212.570338 235.638732 
L 212.801179 237.402285 
L 213.262861 238.091121 
L 213.493702 236.350267 
L 213.724542 230.77931 
L 213.955383 235.478523 
L 214.532485 237.604784 
L 214.647906 236.683327 
L 214.878747 237.829423 
L 214.994167 237.697594 
L 215.225008 236.634475 
L 215.340428 236.960381 
L 215.455849 236.354299 
L 215.686689 238.804098 
L 215.80211 238.288818 
L 215.91753 238.113178 
L 216.148371 238.407356 
L 216.379212 238.276743 
L 216.494632 238.400334 
L 216.956314 237.832306 
L 217.071734 237.940151 
L 217.187155 237.891344 
L 217.417996 235.354392 
L 217.648836 237.698618 
L 217.764257 237.581385 
L 217.995098 237.760406 
L 218.110518 237.949397 
L 218.225939 237.876166 
L 218.341359 237.60964 
L 218.68762 238.035911 
L 218.918461 237.712912 
L 219.033881 237.761014 
L 219.149302 237.445781 
L 219.380143 238.41067 
L 219.610984 238.147105 
L 219.957245 238.236935 
L 221.111449 238.034581 
L 221.45771 238.179608 
L 222.150233 238.157478 
L 223.650698 238.157478 
L 223.881539 201.635652 
L 224.11238 227.207176 
L 224.343221 229.721742 
L 224.574061 217.927096 
L 224.689482 216.927258 
L 224.804902 211.078997 
L 225.035743 229.374351 
L 225.266584 218.939523 
L 225.497425 224.704999 
L 225.612845 221.308045 
L 225.843686 237.68003 
L 225.959106 235.634759 
L 226.189947 231.600687 
L 226.305368 230.513458 
L 226.536209 236.601499 
L 226.651629 236.284521 
L 226.767049 237.463379 
L 226.99789 234.950869 
L 227.113311 236.269188 
L 227.228731 239.086572 
L 227.574992 236.692023 
L 227.805833 229.7 
L 227.921253 234.354716 
L 228.152094 234.640803 
L 228.267515 234.136994 
L 228.498356 237.604729 
L 228.729196 232.487096 
L 228.960037 234.610751 
L 229.190878 235.905811 
L 229.421719 227.539717 
L 229.76798 236.231989 
L 229.883401 236.296502 
L 230.114241 237.532851 
L 230.229662 236.975575 
L 230.345082 235.747345 
L 230.460503 235.828193 
L 230.691343 237.846952 
L 230.922184 236.551299 
L 231.037605 236.562135 
L 231.153025 229.535393 
L 231.268446 229.341065 
L 231.383866 236.178612 
L 231.499286 235.792142 
L 231.614707 236.166119 
L 231.845548 237.706916 
L 231.960968 238.109691 
L 232.191809 236.349093 
L 232.42265 232.618957 
L 232.53807 235.660009 
L 232.768911 235.376871 
L 232.884331 235.775499 
L 232.999752 234.770091 
L 233.115172 235.934341 
L 233.346013 220.429329 
L 233.461433 222.944915 
L 233.576854 222.881384 
L 233.807695 231.127962 
L 234.038536 234.956864 
L 234.269376 204.524394 
L 234.500217 225.944323 
L 234.846478 231.260959 
L 234.961899 232.886311 
L 235.19274 228.550588 
L 235.423581 236.353628 
L 235.654421 227.460936 
L 235.885262 232.044626 
L 236.000683 222.827452 
L 236.116103 225.902415 
L 236.231523 237.614719 
L 236.577785 235.132308 
L 236.808626 213.773628 
L 236.924046 226.235447 
L 237.039466 225.366169 
L 237.270307 230.816026 
L 237.385728 227.824117 
L 237.616568 232.088146 
L 237.731989 229.03975 
L 237.847409 230.294102 
L 238.07825 236.44631 
L 238.19367 236.073467 
L 238.424511 220.689344 
L 238.770773 236.230206 
L 238.886193 235.123092 
L 239.001613 235.781085 
L 239.117034 237.270821 
L 239.347875 235.010999 
L 239.578715 238.587308 
L 239.694136 237.798233 
L 239.924977 234.990264 
L 240.040397 235.064367 
L 240.155818 233.339542 
L 240.271238 235.063568 
L 240.502079 197.070889 
L 240.73292 222.055115 
L 240.96376 205.121598 
L 241.194601 225.199914 
L 241.540863 216.505155 
L 241.771703 226.378582 
L 241.887124 221.715589 
L 242.002544 222.770798 
L 242.117965 225.902061 
L 242.233385 222.231144 
L 242.464226 234.474128 
L 242.695067 227.430937 
L 242.810487 232.400113 
L 243.041328 224.551334 
L 243.272169 231.21856 
L 243.387589 228.142472 
L 243.50301 228.609323 
L 243.73385 182.610587 
L 243.849271 181.216301 
L 243.964691 175.382136 
L 244.310953 213.190439 
L 244.426373 221.17007 
L 244.541793 221.116214 
L 244.657214 218.657335 
L 244.772634 219.970728 
L 245.003475 227.258472 
L 245.465157 214.834293 
L 245.811418 231.490195 
L 245.926838 234.873582 
L 246.042259 234.978318 
L 246.157679 239.523492 
L 246.2731 238.662994 
L 246.50394 239.475501 
L 246.734781 219.634584 
L 247.081043 201.973087 
L 247.196463 198.724674 
L 247.311883 199.584665 
L 247.427304 196.992522 
L 247.658145 220.584252 
L 248.004406 228.568728 
L 248.119826 228.544373 
L 248.350667 217.181842 
L 248.581508 185.598808 
L 248.812349 206.154681 
L 248.927769 190.050988 
L 249.04319 189.948207 
L 249.27403 166.206352 
L 249.389451 190.490689 
L 249.620292 185.72655 
L 249.735712 189.444266 
L 249.851132 208.409521 
L 249.966553 208.383348 
L 250.197394 207.42933 
L 250.312814 203.624137 
L 250.428235 209.56557 
L 250.659075 168.91575 
L 250.889916 205.612533 
L 251.005337 194.826837 
L 251.120757 199.209086 
L 251.351598 214.609533 
L 251.582439 210.780811 
L 251.81328 231.352444 
L 252.04412 217.003321 
L 252.274961 175.710771 
L 252.505802 182.416167 
L 252.621222 202.217298 
L 252.736643 199.847231 
L 252.967484 211.442662 
L 253.198325 222.14179 
L 253.544586 228.734078 
L 253.660006 226.769298 
L 253.890847 221.470155 
L 254.006267 217.557677 
L 254.237108 230.502496 
L 254.352529 230.290703 
L 254.58337 238.415015 
L 254.69879 238.950506 
L 254.81421 238.159467 
L 254.929631 238.750335 
L 255.045051 238.740975 
L 255.506733 228.871847 
L 255.622153 232.640399 
L 255.737574 232.395132 
L 255.968415 218.794762 
L 256.199255 230.290826 
L 256.314676 228.422386 
L 256.430096 228.904812 
L 256.891778 169.608903 
L 257.122619 208.956612 
L 257.35346 221.2118 
L 257.5843 223.542807 
L 257.699721 222.932265 
L 257.815141 221.418578 
L 258.045982 230.858943 
L 258.276823 226.198498 
L 258.392243 220.933939 
L 258.507664 223.927245 
L 258.623084 219.593998 
L 258.853925 238.674958 
L 258.969345 235.224759 
L 259.200186 213.5614 
L 259.315607 216.535522 
L 259.431027 215.990098 
L 259.661868 187.663349 
L 260.008129 211.320818 
L 260.123549 211.215696 
L 260.35439 223.460023 
L 260.469811 222.34534 
L 260.585231 218.46675 
L 260.816072 223.692531 
L 260.931492 216.314743 
L 261.046913 217.610214 
L 261.277754 223.471535 
L 261.393174 220.528335 
L 261.624015 232.281221 
L 261.854856 233.417908 
L 261.970276 231.357922 
L 262.201117 236.554724 
L 262.431958 220.29233 
L 262.662799 230.749976 
L 262.778219 230.826537 
L 262.893639 230.030189 
L 263.12448 235.556317 
L 263.239901 234.394829 
L 263.355321 231.72779 
L 263.470742 233.303662 
L 263.586162 236.825935 
L 264.047844 193.9407 
L 264.278684 211.920662 
L 264.509525 217.07889 
L 264.740366 200.747655 
L 264.855787 219.009947 
L 264.971207 219.077066 
L 265.317468 228.633372 
L 265.432889 227.201193 
L 265.663729 222.061223 
L 265.77915 221.775669 
L 266.009991 235.51042 
L 266.240832 230.919087 
L 266.356252 234.201254 
L 266.471672 232.797313 
L 266.702513 242.116364 
L 266.933354 238.767051 
L 267.048774 238.679223 
L 267.279615 236.343968 
L 267.395036 237.102962 
L 267.510456 236.298129 
L 267.741297 229.400604 
L 267.972138 236.060976 
L 268.202979 229.839303 
L 268.433819 233.906219 
L 268.66466 236.347179 
L 268.780081 235.281649 
L 268.895501 236.054495 
L 269.010922 235.883307 
L 269.126342 234.892099 
L 269.357183 225.315701 
L 269.588024 227.473008 
L 269.818864 233.189763 
L 269.934285 233.655363 
L 270.165126 237.099932 
L 270.280546 235.632607 
L 270.626807 236.711245 
L 270.973069 235.471133 
L 271.088489 233.841144 
L 271.31933 237.552298 
L 271.43475 237.290159 
L 271.665591 238.631046 
L 272.011852 238.381819 
L 272.127273 238.610343 
L 272.588954 237.556986 
L 272.935216 237.822504 
L 273.050636 237.438349 
L 273.281477 238.337842 
L 273.396897 238.142242 
L 273.512318 238.411221 
L 273.743159 237.931775 
L 274.551101 238.157478 
L 284.823518 238.157478 
L 285.054359 237.527792 
L 285.2852 237.96868 
L 285.862302 238.100272 
L 286.093143 238.069173 
L 286.323984 238.127087 
L 286.785666 237.979554 
L 287.131927 238.174832 
L 287.709029 238.171329 
L 292.441266 238.157478 
L 292.672107 236.268418 
L 292.902948 237.591083 
L 293.48005 237.985858 
L 293.59547 237.7466 
L 293.941731 238.066303 
L 294.172572 237.824053 
L 294.287993 237.86013 
L 294.403413 237.623706 
L 294.634254 238.347372 
L 294.749674 238.209538 
L 294.980515 238.197118 
L 295.326776 238.199031 
L 296.25014 238.124649 
L 296.48098 238.122386 
L 296.596401 238.23792 
L 296.827242 238.159548 
L 297.058083 237.48914 
L 297.288923 237.96868 
L 297.519764 238.033748 
L 297.750605 235.622142 
L 297.981446 237.265326 
L 298.443128 238.002442 
L 298.673968 237.510524 
L 298.789389 237.626333 
L 299.02023 238.099209 
L 299.25107 237.710319 
L 299.366491 237.774227 
L 299.481911 237.469959 
L 299.712752 238.424521 
L 299.943593 238.153953 
L 300.289854 238.215442 
L 300.520695 238.191162 
L 300.751536 233.072858 
L 300.982377 236.587935 
L 301.444058 237.888982 
L 301.674899 237.169058 
L 301.90574 238.0122 
L 302.02116 237.872699 
L 302.252001 237.24926 
L 302.367422 237.364549 
L 302.482842 236.734084 
L 302.713683 238.663861 
L 302.944524 238.136732 
L 303.175365 238.350896 
L 303.521626 238.262062 
L 303.752467 227.419999 
L 303.983307 234.775964 
L 304.444989 237.629663 
L 304.67583 236.043678 
L 304.906671 237.848417 
L 305.022091 237.557528 
L 305.252932 236.229899 
L 305.368352 236.472504 
L 305.483773 235.132766 
L 305.714614 239.233542 
L 306.060875 237.122728 
L 306.176295 238.097228 
L 306.291716 238.117571 
L 306.522557 226.16821 
L 306.753397 234.467419 
L 306.984238 235.167304 
L 307.215079 237.488937 
L 307.3305 236.823731 
L 307.44592 234.855577 
L 307.676761 238.063494 
L 307.792181 237.318237 
L 308.023022 235.995392 
L 308.138442 236.089951 
L 308.253863 234.690618 
L 308.484704 239.408492 
L 308.715545 237.634231 
L 308.830965 237.804987 
L 309.061806 230.151969 
L 309.292647 233.895709 
L 309.523487 218.219643 
L 309.754328 231.6775 
L 309.985169 231.284986 
L 310.10059 229.713242 
L 310.21601 230.325697 
L 310.446851 221.477228 
L 310.677692 231.850828 
L 310.793112 231.332366 
L 310.908532 231.712558 
L 311.139373 233.847287 
L 311.254794 231.585118 
L 311.370214 233.638356 
L 311.485635 238.341498 
L 311.947316 235.700907 
L 312.062737 236.410934 
L 312.178157 236.122986 
L 312.293577 237.122913 
L 312.408998 239.134282 
L 312.639839 237.847932 
L 312.755259 237.543585 
L 312.9861 238.320837 
L 313.10152 238.138494 
L 313.216941 237.502996 
L 313.332361 237.683874 
L 313.447782 238.446584 
L 313.678622 237.565337 
L 313.909463 237.276111 
L 314.140304 237.908594 
L 314.255724 237.99929 
L 314.371145 238.566942 
L 314.601986 238.05256 
L 314.832827 237.951335 
L 315.063667 238.157478 
L 316.679553 238.157478 
L 316.910394 231.860612 
L 317.141235 236.269495 
L 317.602917 237.991584 
L 317.833757 236.787883 
L 318.064598 237.972432 
L 318.295439 230.344142 
L 318.52628 235.089536 
L 318.6417 233.680531 
L 318.757121 234.741512 
L 318.987962 237.770929 
L 319.218802 236.535594 
L 319.565064 219.292892 
L 319.680484 215.568343 
L 319.911325 228.151243 
L 320.142166 232.64228 
L 320.257586 235.211274 
L 320.488427 234.366982 
L 320.603847 233.516883 
L 320.834688 222.507636 
L 320.950109 229.727027 
L 321.065529 229.257701 
L 321.180949 217.70889 
L 321.29637 217.484798 
L 321.527211 198.539685 
L 321.642631 222.616224 
L 321.758052 223.067793 
L 321.988892 231.205679 
L 322.219733 230.383279 
L 322.450574 215.764983 
L 322.796835 228.853607 
L 322.912256 225.301567 
L 323.027676 217.943006 
L 323.143096 219.568119 
L 323.604778 237.368223 
L 323.835619 234.134035 
L 323.951039 234.142343 
L 324.18188 233.281065 
L 324.412721 237.594884 
L 324.643562 234.796603 
L 324.758982 235.49397 
L 324.874403 235.222182 
L 324.989823 235.969187 
L 325.220664 208.191795 
L 325.566925 226.012922 
L 325.682346 228.033237 
L 325.913186 216.895279 
L 326.028607 227.279891 
L 326.144027 225.818739 
L 326.374868 184.104854 
L 326.605709 211.229095 
L 326.721129 216.128056 
L 326.83655 216.00339 
L 326.95197 216.596733 
L 327.067391 227.672951 
L 327.182811 224.826963 
L 327.298231 216.278917 
L 327.529072 230.495523 
L 327.759913 226.341711 
L 327.875334 229.36695 
L 327.990754 228.504349 
L 328.106174 221.931435 
L 328.337015 239.301831 
L 328.452436 237.168026 
L 328.683276 235.221972 
L 328.798697 235.99246 
L 328.914117 235.126361 
L 329.029538 235.642219 
L 329.260379 238.380853 
L 329.375799 237.589545 
L 329.60664 232.610009 
L 329.952901 236.418827 
L 330.068321 234.935965 
L 330.183742 236.242606 
L 330.299162 238.860019 
L 330.414583 237.450346 
L 330.530003 237.60698 
L 330.760844 236.519452 
L 330.991685 236.101809 
L 331.222526 234.416104 
L 331.568787 199.324479 
L 331.684207 193.9761 
L 331.915048 213.664049 
L 332.145889 194.882047 
L 332.261309 202.425256 
L 332.37673 201.716453 
L 332.607571 216.73633 
L 332.838411 226.717203 
L 332.953832 225.34364 
L 333.184673 218.385507 
L 333.300093 222.591943 
L 333.415513 219.082707 
L 333.530934 221.341711 
L 333.646354 230.295924 
L 333.761775 228.980027 
L 333.877195 215.274222 
L 333.992616 218.393632 
L 334.223456 234.106658 
L 334.454297 222.256414 
L 334.685138 228.141042 
L 334.915979 220.877018 
L 335.26224 227.906363 
L 335.377661 226.28735 
L 335.608501 232.090751 
L 335.839342 228.232963 
L 336.070183 211.38113 
L 336.416444 226.555662 
L 336.531865 227.041927 
L 336.647285 221.968738 
L 336.762706 223.330558 
L 336.878126 230.001583 
L 336.993546 228.758605 
L 337.224387 233.385496 
L 337.339808 234.377426 
L 337.455228 233.960038 
L 337.686069 230.40931 
L 337.91691 199.548452 
L 338.03233 223.905896 
L 338.147751 224.261665 
L 338.263171 222.071841 
L 338.378591 223.428055 
L 338.724853 233.669527 
L 338.840273 229.439512 
L 339.071114 236.642794 
L 339.186534 234.9885 
L 339.417375 230.176519 
L 339.532796 230.956138 
L 339.648216 227.079811 
L 339.879057 238.847226 
L 339.994477 237.208736 
L 340.109898 232.784201 
L 340.225318 234.091179 
L 340.456159 223.915905 
L 340.687 232.765722 
L 340.917841 234.716049 
L 341.148681 228.568516 
L 341.264102 231.907725 
L 341.379522 230.703642 
L 341.494943 232.502943 
L 341.610363 232.551335 
L 341.841204 219.83903 
L 342.072045 228.552821 
L 342.187465 222.511991 
L 342.302886 224.468241 
L 342.533726 234.602598 
L 342.764567 230.863494 
L 342.879988 224.308646 
L 342.995408 225.668776 
L 343.110828 232.952035 
L 343.226249 231.002893 
L 343.341669 231.492502 
L 343.45709 233.150023 
L 343.57251 231.901674 
L 343.68793 234.130931 
L 343.918771 213.888977 
L 344.149612 230.258695 
L 344.380453 226.396696 
L 344.495873 226.212722 
L 344.726714 229.39959 
L 344.842135 228.537633 
L 345.072975 236.222771 
L 345.188396 235.524566 
L 345.419237 231.848646 
L 345.534657 231.247684 
L 345.650078 229.780539 
L 345.880918 235.754498 
L 346.111759 227.379281 
L 346.22718 228.283971 
L 346.45802 232.334125 
L 346.573441 233.164305 
L 346.688861 232.762888 
L 346.919702 236.327951 
L 347.150543 235.205618 
L 347.496804 236.080822 
L 347.727645 233.36174 
L 347.843065 234.84215 
L 348.073906 219.142685 
L 348.189327 224.434953 
L 348.304747 224.372985 
L 348.535588 232.822036 
L 348.766429 236.072085 
L 348.881849 235.656727 
L 348.99727 234.423216 
L 349.22811 228.129551 
L 349.343531 233.006479 
L 349.458951 232.809263 
L 349.689792 231.096925 
L 349.805213 230.783491 
L 350.036053 234.4142 
L 350.151474 233.353488 
L 350.382315 237.655223 
L 350.497735 237.526538 
L 350.613155 237.033845 
L 350.843996 220.381053 
L 351.074837 230.67173 
L 351.305678 221.306367 
L 351.536519 232.620709 
L 351.651939 232.422482 
L 351.76736 230.273612 
L 351.88278 232.142486 
L 351.9982 235.936549 
L 352.113621 235.835124 
L 352.344462 232.64914 
L 352.459882 234.2529 
L 352.575303 232.109862 
L 352.690723 233.660002 
L 352.806143 237.107637 
L 353.036984 234.24023 
L 353.267825 239.901732 
L 353.498666 237.891094 
L 353.614086 238.341373 
L 353.844927 235.045403 
L 353.960348 237.019398 
L 354.306609 236.981958 
L 354.422029 237.30293 
L 354.53745 236.797774 
L 354.76829 237.815821 
L 355.114552 235.717071 
L 355.229972 235.763736 
L 355.460813 235.015685 
L 355.922495 237.740643 
L 356.153335 237.732888 
L 356.268756 237.785842 
L 356.384176 237.67596 
L 356.615017 237.802178 
L 356.961278 237.29799 
L 357.42296 238.309054 
L 357.53838 238.115419 
L 357.653801 238.177594 
L 357.769221 238.403852 
L 358.230903 238.098482 
L 358.461744 238.06209 
L 358.692585 209.040866 
L 358.923425 224.943767 
L 359.038846 224.343434 
L 359.154266 224.836384 
L 359.385107 234.08021 
L 359.500527 233.252846 
L 359.615948 230.27853 
L 359.846789 236.01927 
L 359.962209 235.486686 
L 360.19305 231.390283 
L 360.30847 232.025696 
L 360.423891 227.062085 
L 360.539311 230.820949 
L 360.770152 223.405446 
L 361.000993 233.639533 
L 361.231834 236.472626 
L 361.462675 238.269603 
L 361.578095 237.311961 
L 361.693515 235.251867 
L 361.924356 236.536946 
L 362.039777 236.27492 
L 362.270617 234.633088 
L 362.501458 233.822248 
L 362.732299 239.550275 
L 362.96314 237.621296 
L 363.193981 238.464863 
L 363.309401 238.553266 
L 363.540242 238.270064 
L 363.655662 238.193772 
L 364.001924 237.619581 
L 364.117344 237.776272 
L 364.232765 237.701355 
L 364.348185 237.898112 
L 364.463605 237.593399 
L 364.579026 237.91802 
L 364.694446 238.709756 
L 364.925287 238.133313 
L 365.156128 237.886915 
L 365.386969 238.157478 
L 373.581818 238.157478 
L 373.581818 238.157478 
" style="fill:none;stroke:#ff7f0e;stroke-linecap:square;stroke-width:1.5;"/>
   </g>
   <g id="patch_3">
    <path d="M 54 252 
L 54 34.56 
" style="fill:none;stroke:#000000;stroke-linecap:square;stroke-linejoin:miter;stroke-width:0.8;"/>
   </g>
   <g id="patch_4">
    <path d="M 388.8 252 
L 388.8 34.56 
" style="fill:none;stroke:#000000;stroke-linecap:square;stroke-linejoin:miter;stroke-width:0.8;"/>
   </g>
   <g id="patch_5">
    <path d="M 54 252 
L 388.8 252 
" style="fill:none;stroke:#000000;stroke-linecap:square;stroke-linejoin:miter;stroke-width:0.8;"/>
   </g>
   <g id="patch_6">
    <path d="M 54 34.56 
L 388.8 34.56 
" style="fill:none;stroke:#000000;stroke-linecap:square;stroke-linejoin:miter;stroke-width:0.8;"/>
   </g>
   <g id="legend_1">
    <g id="patch_7">
     <path d="M 271.970312 71.91625 
L 381.8 71.91625 
Q 383.8 71.91625 383.8 69.91625 
L 383.8 41.56 
Q 383.8 39.56 381.8 39.56 
L 271.970312 39.56 
Q 269.970312 39.56 269.970312 41.56 
L 269.970312 69.91625 
Q 269.970312 71.91625 271.970312 71.91625 
z
" style="fill:#ffffff;opacity:0.8;stroke:#cccccc;stroke-linejoin:miter;"/>
    </g>
    <g id="line2d_16">
     <path d="M 273.970312 47.658437 
L 293.970312 47.658437 
" style="fill:none;stroke:#1f77b4;stroke-linecap:square;stroke-width:1.5;"/>
    </g>
    <g id="line2d_17"/>
    <g id="text_14">
     <!-- True value -->
     <defs>
      <path d="M -0.296875 72.90625 
L 61.375 72.90625 
L 61.375 64.59375 
L 35.5 64.59375 
L 35.5 0 
L 25.59375 0 
L 25.59375 64.59375 
L -0.296875 64.59375 
z
" id="DejaVuSans-84"/>
      <path d="M 41.109375 46.296875 
Q 39.59375 47.171875 37.8125 47.578125 
Q 36.03125 48 33.890625 48 
Q 26.265625 48 22.1875 43.046875 
Q 18.109375 38.09375 18.109375 28.8125 
L 18.109375 0 
L 9.078125 0 
L 9.078125 54.6875 
L 18.109375 54.6875 
L 18.109375 46.1875 
Q 20.953125 51.171875 25.484375 53.578125 
Q 30.03125 56 36.53125 56 
Q 37.453125 56 38.578125 55.875 
Q 39.703125 55.765625 41.0625 55.515625 
z
" id="DejaVuSans-114"/>
      <path d="M 8.5 21.578125 
L 8.5 54.6875 
L 17.484375 54.6875 
L 17.484375 21.921875 
Q 17.484375 14.15625 20.5 10.265625 
Q 23.53125 6.390625 29.59375 6.390625 
Q 36.859375 6.390625 41.078125 11.03125 
Q 45.3125 15.671875 45.3125 23.6875 
L 45.3125 54.6875 
L 54.296875 54.6875 
L 54.296875 0 
L 45.3125 0 
L 45.3125 8.40625 
Q 42.046875 3.421875 37.71875 1 
Q 33.40625 -1.421875 27.6875 -1.421875 
Q 18.265625 -1.421875 13.375 4.4375 
Q 8.5 10.296875 8.5 21.578125 
z
M 31.109375 56 
z
" id="DejaVuSans-117"/>
      <path d="M 56.203125 29.59375 
L 56.203125 25.203125 
L 14.890625 25.203125 
Q 15.484375 15.921875 20.484375 11.0625 
Q 25.484375 6.203125 34.421875 6.203125 
Q 39.59375 6.203125 44.453125 7.46875 
Q 49.3125 8.734375 54.109375 11.28125 
L 54.109375 2.78125 
Q 49.265625 0.734375 44.1875 -0.34375 
Q 39.109375 -1.421875 33.890625 -1.421875 
Q 20.796875 -1.421875 13.15625 6.1875 
Q 5.515625 13.8125 5.515625 26.8125 
Q 5.515625 40.234375 12.765625 48.109375 
Q 20.015625 56 32.328125 56 
Q 43.359375 56 49.78125 48.890625 
Q 56.203125 41.796875 56.203125 29.59375 
z
M 47.21875 32.234375 
Q 47.125 39.59375 43.09375 43.984375 
Q 39.0625 48.390625 32.421875 48.390625 
Q 24.90625 48.390625 20.390625 44.140625 
Q 15.875 39.890625 15.1875 32.171875 
z
" id="DejaVuSans-101"/>
      <path id="DejaVuSans-32"/>
      <path d="M 2.984375 54.6875 
L 12.5 54.6875 
L 29.59375 8.796875 
L 46.6875 54.6875 
L 56.203125 54.6875 
L 35.6875 0 
L 23.484375 0 
z
" id="DejaVuSans-118"/>
      <path d="M 34.28125 27.484375 
Q 23.390625 27.484375 19.1875 25 
Q 14.984375 22.515625 14.984375 16.5 
Q 14.984375 11.71875 18.140625 8.90625 
Q 21.296875 6.109375 26.703125 6.109375 
Q 34.1875 6.109375 38.703125 11.40625 
Q 43.21875 16.703125 43.21875 25.484375 
L 43.21875 27.484375 
z
M 52.203125 31.203125 
L 52.203125 0 
L 43.21875 0 
L 43.21875 8.296875 
Q 40.140625 3.328125 35.546875 0.953125 
Q 30.953125 -1.421875 24.3125 -1.421875 
Q 15.921875 -1.421875 10.953125 3.296875 
Q 6 8.015625 6 15.921875 
Q 6 25.140625 12.171875 29.828125 
Q 18.359375 34.515625 30.609375 34.515625 
L 43.21875 34.515625 
L 43.21875 35.40625 
Q 43.21875 41.609375 39.140625 45 
Q 35.0625 48.390625 27.6875 48.390625 
Q 23 48.390625 18.546875 47.265625 
Q 14.109375 46.140625 10.015625 43.890625 
L 10.015625 52.203125 
Q 14.9375 54.109375 19.578125 55.046875 
Q 24.21875 56 28.609375 56 
Q 40.484375 56 46.34375 49.84375 
Q 52.203125 43.703125 52.203125 31.203125 
z
" id="DejaVuSans-97"/>
      <path d="M 9.421875 75.984375 
L 18.40625 75.984375 
L 18.40625 0 
L 9.421875 0 
z
" id="DejaVuSans-108"/>
     </defs>
     <g transform="translate(301.970312 51.158437)scale(0.1 -0.1)">
      <use xlink:href="#DejaVuSans-84"/>
      <use x="60.865234" xlink:href="#DejaVuSans-114"/>
      <use x="101.978516" xlink:href="#DejaVuSans-117"/>
      <use x="165.357422" xlink:href="#DejaVuSans-101"/>
      <use x="226.880859" xlink:href="#DejaVuSans-32"/>
      <use x="258.667969" xlink:href="#DejaVuSans-118"/>
      <use x="317.847656" xlink:href="#DejaVuSans-97"/>
      <use x="379.126953" xlink:href="#DejaVuSans-108"/>
      <use x="406.910156" xlink:href="#DejaVuSans-117"/>
      <use x="470.289062" xlink:href="#DejaVuSans-101"/>
     </g>
    </g>
    <g id="line2d_18">
     <path d="M 273.970312 62.336562 
L 293.970312 62.336562 
" style="fill:none;stroke:#ff7f0e;stroke-linecap:square;stroke-width:1.5;"/>
    </g>
    <g id="line2d_19"/>
    <g id="text_15">
     <!-- Predicted value -->
     <defs>
      <path d="M 19.671875 64.796875 
L 19.671875 37.40625 
L 32.078125 37.40625 
Q 38.96875 37.40625 42.71875 40.96875 
Q 46.484375 44.53125 46.484375 51.125 
Q 46.484375 57.671875 42.71875 61.234375 
Q 38.96875 64.796875 32.078125 64.796875 
z
M 9.8125 72.90625 
L 32.078125 72.90625 
Q 44.34375 72.90625 50.609375 67.359375 
Q 56.890625 61.8125 56.890625 51.125 
Q 56.890625 40.328125 50.609375 34.8125 
Q 44.34375 29.296875 32.078125 29.296875 
L 19.671875 29.296875 
L 19.671875 0 
L 9.8125 0 
z
" id="DejaVuSans-80"/>
      <path d="M 45.40625 46.390625 
L 45.40625 75.984375 
L 54.390625 75.984375 
L 54.390625 0 
L 45.40625 0 
L 45.40625 8.203125 
Q 42.578125 3.328125 38.25 0.953125 
Q 33.9375 -1.421875 27.875 -1.421875 
Q 17.96875 -1.421875 11.734375 6.484375 
Q 5.515625 14.40625 5.515625 27.296875 
Q 5.515625 40.1875 11.734375 48.09375 
Q 17.96875 56 27.875 56 
Q 33.9375 56 38.25 53.625 
Q 42.578125 51.265625 45.40625 46.390625 
z
M 14.796875 27.296875 
Q 14.796875 17.390625 18.875 11.75 
Q 22.953125 6.109375 30.078125 6.109375 
Q 37.203125 6.109375 41.296875 11.75 
Q 45.40625 17.390625 45.40625 27.296875 
Q 45.40625 37.203125 41.296875 42.84375 
Q 37.203125 48.484375 30.078125 48.484375 
Q 22.953125 48.484375 18.875 42.84375 
Q 14.796875 37.203125 14.796875 27.296875 
z
" id="DejaVuSans-100"/>
      <path d="M 9.421875 54.6875 
L 18.40625 54.6875 
L 18.40625 0 
L 9.421875 0 
z
M 9.421875 75.984375 
L 18.40625 75.984375 
L 18.40625 64.59375 
L 9.421875 64.59375 
z
" id="DejaVuSans-105"/>
      <path d="M 48.78125 52.59375 
L 48.78125 44.1875 
Q 44.96875 46.296875 41.140625 47.34375 
Q 37.3125 48.390625 33.40625 48.390625 
Q 24.65625 48.390625 19.8125 42.84375 
Q 14.984375 37.3125 14.984375 27.296875 
Q 14.984375 17.28125 19.8125 11.734375 
Q 24.65625 6.203125 33.40625 6.203125 
Q 37.3125 6.203125 41.140625 7.25 
Q 44.96875 8.296875 48.78125 10.40625 
L 48.78125 2.09375 
Q 45.015625 0.34375 40.984375 -0.53125 
Q 36.96875 -1.421875 32.421875 -1.421875 
Q 20.0625 -1.421875 12.78125 6.34375 
Q 5.515625 14.109375 5.515625 27.296875 
Q 5.515625 40.671875 12.859375 48.328125 
Q 20.21875 56 33.015625 56 
Q 37.15625 56 41.109375 55.140625 
Q 45.0625 54.296875 48.78125 52.59375 
z
" id="DejaVuSans-99"/>
      <path d="M 18.3125 70.21875 
L 18.3125 54.6875 
L 36.8125 54.6875 
L 36.8125 47.703125 
L 18.3125 47.703125 
L 18.3125 18.015625 
Q 18.3125 11.328125 20.140625 9.421875 
Q 21.96875 7.515625 27.59375 7.515625 
L 36.8125 7.515625 
L 36.8125 0 
L 27.59375 0 
Q 17.1875 0 13.234375 3.875 
Q 9.28125 7.765625 9.28125 18.015625 
L 9.28125 47.703125 
L 2.6875 47.703125 
L 2.6875 54.6875 
L 9.28125 54.6875 
L 9.28125 70.21875 
z
" id="DejaVuSans-116"/>
     </defs>
     <g transform="translate(301.970312 65.836562)scale(0.1 -0.1)">
      <use xlink:href="#DejaVuSans-80"/>
      <use x="60.287109" xlink:href="#DejaVuSans-114"/>
      <use x="101.369141" xlink:href="#DejaVuSans-101"/>
      <use x="162.892578" xlink:href="#DejaVuSans-100"/>
      <use x="226.369141" xlink:href="#DejaVuSans-105"/>
      <use x="254.152344" xlink:href="#DejaVuSans-99"/>
      <use x="309.132812" xlink:href="#DejaVuSans-116"/>
      <use x="348.341797" xlink:href="#DejaVuSans-101"/>
      <use x="409.865234" xlink:href="#DejaVuSans-100"/>
      <use x="473.341797" xlink:href="#DejaVuSans-32"/>
      <use x="505.128906" xlink:href="#DejaVuSans-118"/>
      <use x="564.308594" xlink:href="#DejaVuSans-97"/>
      <use x="625.587891" xlink:href="#DejaVuSans-108"/>
      <use x="653.371094" xlink:href="#DejaVuSans-117"/>
      <use x="716.75" xlink:href="#DejaVuSans-101"/>
     </g>
    </g>
   </g>
  </g>
 </g>
 <defs>
  <clipPath id="pbf54b610ef">
   <rect height="217.44" width="334.8" x="54" y="34.56"/>
  </clipPath>
 </defs>
</svg>
