<?xml version="1.0" encoding="utf-8" standalone="no"?>
<!DOCTYPE svg PUBLIC "-//W3C//DTD SVG 1.1//EN"
  "http://www.w3.org/Graphics/SVG/1.1/DTD/svg11.dtd">
<!-- Created with matplotlib (https://matplotlib.org/) -->
<svg height="288pt" version="1.1" viewBox="0 0 432 288" width="432pt" xmlns="http://www.w3.org/2000/svg" xmlns:xlink="http://www.w3.org/1999/xlink">
 <defs>
  <style type="text/css">
*{stroke-linecap:butt;stroke-linejoin:round;}
  </style>
 </defs>
 <g id="figure_1">
  <g id="patch_1">
   <path d="M 0 288 
L 432 288 
L 432 0 
L 0 0 
z
" style="fill:#ffffff;"/>
  </g>
  <g id="axes_1">
   <g id="patch_2">
    <path d="M 54 252 
L 388.8 252 
L 388.8 34.56 
L 54 34.56 
z
" style="fill:#ffffff;"/>
   </g>
   <g id="matplotlib.axis_1">
    <g id="xtick_1">
     <g id="line2d_1">
      <defs>
       <path d="M 0 0 
L 0 3.5 
" id="m1a42511cbe" style="stroke:#000000;stroke-width:0.8;"/>
      </defs>
      <g>
       <use style="stroke:#000000;stroke-width:0.8;" x="69.218182" xlink:href="#m1a42511cbe" y="252"/>
      </g>
     </g>
     <g id="text_1">
      <!-- 0 -->
      <defs>
       <path d="M 31.78125 66.40625 
Q 24.171875 66.40625 20.328125 58.90625 
Q 16.5 51.421875 16.5 36.375 
Q 16.5 21.390625 20.328125 13.890625 
Q 24.171875 6.390625 31.78125 6.390625 
Q 39.453125 6.390625 43.28125 13.890625 
Q 47.125 21.390625 47.125 36.375 
Q 47.125 51.421875 43.28125 58.90625 
Q 39.453125 66.40625 31.78125 66.40625 
z
M 31.78125 74.21875 
Q 44.046875 74.21875 50.515625 64.515625 
Q 56.984375 54.828125 56.984375 36.375 
Q 56.984375 17.96875 50.515625 8.265625 
Q 44.046875 -1.421875 31.78125 -1.421875 
Q 19.53125 -1.421875 13.0625 8.265625 
Q 6.59375 17.96875 6.59375 36.375 
Q 6.59375 54.828125 13.0625 64.515625 
Q 19.53125 74.21875 31.78125 74.21875 
z
" id="DejaVuSans-48"/>
      </defs>
      <g transform="translate(66.036932 266.598437)scale(0.1 -0.1)">
       <use xlink:href="#DejaVuSans-48"/>
      </g>
     </g>
    </g>
    <g id="xtick_2">
     <g id="line2d_2">
      <g>
       <use style="stroke:#000000;stroke-width:0.8;" x="118.388398" xlink:href="#m1a42511cbe" y="252"/>
      </g>
     </g>
     <g id="text_2">
      <!-- 200 -->
      <defs>
       <path d="M 19.1875 8.296875 
L 53.609375 8.296875 
L 53.609375 0 
L 7.328125 0 
L 7.328125 8.296875 
Q 12.9375 14.109375 22.625 23.890625 
Q 32.328125 33.6875 34.8125 36.53125 
Q 39.546875 41.84375 41.421875 45.53125 
Q 43.3125 49.21875 43.3125 52.78125 
Q 43.3125 58.59375 39.234375 62.25 
Q 35.15625 65.921875 28.609375 65.921875 
Q 23.96875 65.921875 18.8125 64.3125 
Q 13.671875 62.703125 7.8125 59.421875 
L 7.8125 69.390625 
Q 13.765625 71.78125 18.9375 73 
Q 24.125 74.21875 28.421875 74.21875 
Q 39.75 74.21875 46.484375 68.546875 
Q 53.21875 62.890625 53.21875 53.421875 
Q 53.21875 48.921875 51.53125 44.890625 
Q 49.859375 40.875 45.40625 35.40625 
Q 44.1875 33.984375 37.640625 27.21875 
Q 31.109375 20.453125 19.1875 8.296875 
z
" id="DejaVuSans-50"/>
      </defs>
      <g transform="translate(108.844648 266.598437)scale(0.1 -0.1)">
       <use xlink:href="#DejaVuSans-50"/>
       <use x="63.623047" xlink:href="#DejaVuSans-48"/>
       <use x="127.246094" xlink:href="#DejaVuSans-48"/>
      </g>
     </g>
    </g>
    <g id="xtick_3">
     <g id="line2d_3">
      <g>
       <use style="stroke:#000000;stroke-width:0.8;" x="167.558614" xlink:href="#m1a42511cbe" y="252"/>
      </g>
     </g>
     <g id="text_3">
      <!-- 400 -->
      <defs>
       <path d="M 37.796875 64.3125 
L 12.890625 25.390625 
L 37.796875 25.390625 
z
M 35.203125 72.90625 
L 47.609375 72.90625 
L 47.609375 25.390625 
L 58.015625 25.390625 
L 58.015625 17.1875 
L 47.609375 17.1875 
L 47.609375 0 
L 37.796875 0 
L 37.796875 17.1875 
L 4.890625 17.1875 
L 4.890625 26.703125 
z
" id="DejaVuSans-52"/>
      </defs>
      <g transform="translate(158.014864 266.598437)scale(0.1 -0.1)">
       <use xlink:href="#DejaVuSans-52"/>
       <use x="63.623047" xlink:href="#DejaVuSans-48"/>
       <use x="127.246094" xlink:href="#DejaVuSans-48"/>
      </g>
     </g>
    </g>
    <g id="xtick_4">
     <g id="line2d_4">
      <g>
       <use style="stroke:#000000;stroke-width:0.8;" x="216.728829" xlink:href="#m1a42511cbe" y="252"/>
      </g>
     </g>
     <g id="text_4">
      <!-- 600 -->
      <defs>
       <path d="M 33.015625 40.375 
Q 26.375 40.375 22.484375 35.828125 
Q 18.609375 31.296875 18.609375 23.390625 
Q 18.609375 15.53125 22.484375 10.953125 
Q 26.375 6.390625 33.015625 6.390625 
Q 39.65625 6.390625 43.53125 10.953125 
Q 47.40625 15.53125 47.40625 23.390625 
Q 47.40625 31.296875 43.53125 35.828125 
Q 39.65625 40.375 33.015625 40.375 
z
M 52.59375 71.296875 
L 52.59375 62.3125 
Q 48.875 64.0625 45.09375 64.984375 
Q 41.3125 65.921875 37.59375 65.921875 
Q 27.828125 65.921875 22.671875 59.328125 
Q 17.53125 52.734375 16.796875 39.40625 
Q 19.671875 43.65625 24.015625 45.921875 
Q 28.375 48.1875 33.59375 48.1875 
Q 44.578125 48.1875 50.953125 41.515625 
Q 57.328125 34.859375 57.328125 23.390625 
Q 57.328125 12.15625 50.6875 5.359375 
Q 44.046875 -1.421875 33.015625 -1.421875 
Q 20.359375 -1.421875 13.671875 8.265625 
Q 6.984375 17.96875 6.984375 36.375 
Q 6.984375 53.65625 15.1875 63.9375 
Q 23.390625 74.21875 37.203125 74.21875 
Q 40.921875 74.21875 44.703125 73.484375 
Q 48.484375 72.75 52.59375 71.296875 
z
" id="DejaVuSans-54"/>
      </defs>
      <g transform="translate(207.185079 266.598437)scale(0.1 -0.1)">
       <use xlink:href="#DejaVuSans-54"/>
       <use x="63.623047" xlink:href="#DejaVuSans-48"/>
       <use x="127.246094" xlink:href="#DejaVuSans-48"/>
      </g>
     </g>
    </g>
    <g id="xtick_5">
     <g id="line2d_5">
      <g>
       <use style="stroke:#000000;stroke-width:0.8;" x="265.899045" xlink:href="#m1a42511cbe" y="252"/>
      </g>
     </g>
     <g id="text_5">
      <!-- 800 -->
      <defs>
       <path d="M 31.78125 34.625 
Q 24.75 34.625 20.71875 30.859375 
Q 16.703125 27.09375 16.703125 20.515625 
Q 16.703125 13.921875 20.71875 10.15625 
Q 24.75 6.390625 31.78125 6.390625 
Q 38.8125 6.390625 42.859375 10.171875 
Q 46.921875 13.96875 46.921875 20.515625 
Q 46.921875 27.09375 42.890625 30.859375 
Q 38.875 34.625 31.78125 34.625 
z
M 21.921875 38.8125 
Q 15.578125 40.375 12.03125 44.71875 
Q 8.5 49.078125 8.5 55.328125 
Q 8.5 64.0625 14.71875 69.140625 
Q 20.953125 74.21875 31.78125 74.21875 
Q 42.671875 74.21875 48.875 69.140625 
Q 55.078125 64.0625 55.078125 55.328125 
Q 55.078125 49.078125 51.53125 44.71875 
Q 48 40.375 41.703125 38.8125 
Q 48.828125 37.15625 52.796875 32.3125 
Q 56.78125 27.484375 56.78125 20.515625 
Q 56.78125 9.90625 50.3125 4.234375 
Q 43.84375 -1.421875 31.78125 -1.421875 
Q 19.734375 -1.421875 13.25 4.234375 
Q 6.78125 9.90625 6.78125 20.515625 
Q 6.78125 27.484375 10.78125 32.3125 
Q 14.796875 37.15625 21.921875 38.8125 
z
M 18.3125 54.390625 
Q 18.3125 48.734375 21.84375 45.5625 
Q 25.390625 42.390625 31.78125 42.390625 
Q 38.140625 42.390625 41.71875 45.5625 
Q 45.3125 48.734375 45.3125 54.390625 
Q 45.3125 60.0625 41.71875 63.234375 
Q 38.140625 66.40625 31.78125 66.40625 
Q 25.390625 66.40625 21.84375 63.234375 
Q 18.3125 60.0625 18.3125 54.390625 
z
" id="DejaVuSans-56"/>
      </defs>
      <g transform="translate(256.355295 266.598437)scale(0.1 -0.1)">
       <use xlink:href="#DejaVuSans-56"/>
       <use x="63.623047" xlink:href="#DejaVuSans-48"/>
       <use x="127.246094" xlink:href="#DejaVuSans-48"/>
      </g>
     </g>
    </g>
    <g id="xtick_6">
     <g id="line2d_6">
      <g>
       <use style="stroke:#000000;stroke-width:0.8;" x="315.069261" xlink:href="#m1a42511cbe" y="252"/>
      </g>
     </g>
     <g id="text_6">
      <!-- 1000 -->
      <defs>
       <path d="M 12.40625 8.296875 
L 28.515625 8.296875 
L 28.515625 63.921875 
L 10.984375 60.40625 
L 10.984375 69.390625 
L 28.421875 72.90625 
L 38.28125 72.90625 
L 38.28125 8.296875 
L 54.390625 8.296875 
L 54.390625 0 
L 12.40625 0 
z
" id="DejaVuSans-49"/>
      </defs>
      <g transform="translate(302.344261 266.598437)scale(0.1 -0.1)">
       <use xlink:href="#DejaVuSans-49"/>
       <use x="63.623047" xlink:href="#DejaVuSans-48"/>
       <use x="127.246094" xlink:href="#DejaVuSans-48"/>
       <use x="190.869141" xlink:href="#DejaVuSans-48"/>
      </g>
     </g>
    </g>
    <g id="xtick_7">
     <g id="line2d_7">
      <g>
       <use style="stroke:#000000;stroke-width:0.8;" x="364.239477" xlink:href="#m1a42511cbe" y="252"/>
      </g>
     </g>
     <g id="text_7">
      <!-- 1200 -->
      <g transform="translate(351.514477 266.598437)scale(0.1 -0.1)">
       <use xlink:href="#DejaVuSans-49"/>
       <use x="63.623047" xlink:href="#DejaVuSans-50"/>
       <use x="127.246094" xlink:href="#DejaVuSans-48"/>
       <use x="190.869141" xlink:href="#DejaVuSans-48"/>
      </g>
     </g>
    </g>
   </g>
   <g id="matplotlib.axis_2">
    <g id="ytick_1">
     <g id="line2d_8">
      <defs>
       <path d="M 0 0 
L -3.5 0 
" id="m7684be83d1" style="stroke:#000000;stroke-width:0.8;"/>
      </defs>
      <g>
       <use style="stroke:#000000;stroke-width:0.8;" x="54" xlink:href="#m7684be83d1" y="239.983659"/>
      </g>
     </g>
     <g id="text_8">
      <!-- 0 -->
      <g transform="translate(40.6375 243.782878)scale(0.1 -0.1)">
       <use xlink:href="#DejaVuSans-48"/>
      </g>
     </g>
    </g>
    <g id="ytick_2">
     <g id="line2d_9">
      <g>
       <use style="stroke:#000000;stroke-width:0.8;" x="54" xlink:href="#m7684be83d1" y="207.284659"/>
      </g>
     </g>
     <g id="text_9">
      <!-- 50 -->
      <defs>
       <path d="M 10.796875 72.90625 
L 49.515625 72.90625 
L 49.515625 64.59375 
L 19.828125 64.59375 
L 19.828125 46.734375 
Q 21.96875 47.46875 24.109375 47.828125 
Q 26.265625 48.1875 28.421875 48.1875 
Q 40.625 48.1875 47.75 41.5 
Q 54.890625 34.8125 54.890625 23.390625 
Q 54.890625 11.625 47.5625 5.09375 
Q 40.234375 -1.421875 26.90625 -1.421875 
Q 22.3125 -1.421875 17.546875 -0.640625 
Q 12.796875 0.140625 7.71875 1.703125 
L 7.71875 11.625 
Q 12.109375 9.234375 16.796875 8.0625 
Q 21.484375 6.890625 26.703125 6.890625 
Q 35.15625 6.890625 40.078125 11.328125 
Q 45.015625 15.765625 45.015625 23.390625 
Q 45.015625 31 40.078125 35.4375 
Q 35.15625 39.890625 26.703125 39.890625 
Q 22.75 39.890625 18.8125 39.015625 
Q 14.890625 38.140625 10.796875 36.28125 
z
" id="DejaVuSans-53"/>
      </defs>
      <g transform="translate(34.275 211.083878)scale(0.1 -0.1)">
       <use xlink:href="#DejaVuSans-53"/>
       <use x="63.623047" xlink:href="#DejaVuSans-48"/>
      </g>
     </g>
    </g>
    <g id="ytick_3">
     <g id="line2d_10">
      <g>
       <use style="stroke:#000000;stroke-width:0.8;" x="54" xlink:href="#m7684be83d1" y="174.585658"/>
      </g>
     </g>
     <g id="text_10">
      <!-- 100 -->
      <g transform="translate(27.9125 178.384877)scale(0.1 -0.1)">
       <use xlink:href="#DejaVuSans-49"/>
       <use x="63.623047" xlink:href="#DejaVuSans-48"/>
       <use x="127.246094" xlink:href="#DejaVuSans-48"/>
      </g>
     </g>
    </g>
    <g id="ytick_4">
     <g id="line2d_11">
      <g>
       <use style="stroke:#000000;stroke-width:0.8;" x="54" xlink:href="#m7684be83d1" y="141.886658"/>
      </g>
     </g>
     <g id="text_11">
      <!-- 150 -->
      <g transform="translate(27.9125 145.685877)scale(0.1 -0.1)">
       <use xlink:href="#DejaVuSans-49"/>
       <use x="63.623047" xlink:href="#DejaVuSans-53"/>
       <use x="127.246094" xlink:href="#DejaVuSans-48"/>
      </g>
     </g>
    </g>
    <g id="ytick_5">
     <g id="line2d_12">
      <g>
       <use style="stroke:#000000;stroke-width:0.8;" x="54" xlink:href="#m7684be83d1" y="109.187657"/>
      </g>
     </g>
     <g id="text_12">
      <!-- 200 -->
      <g transform="translate(27.9125 112.986876)scale(0.1 -0.1)">
       <use xlink:href="#DejaVuSans-50"/>
       <use x="63.623047" xlink:href="#DejaVuSans-48"/>
       <use x="127.246094" xlink:href="#DejaVuSans-48"/>
      </g>
     </g>
    </g>
    <g id="ytick_6">
     <g id="line2d_13">
      <g>
       <use style="stroke:#000000;stroke-width:0.8;" x="54" xlink:href="#m7684be83d1" y="76.488657"/>
      </g>
     </g>
     <g id="text_13">
      <!-- 250 -->
      <g transform="translate(27.9125 80.287876)scale(0.1 -0.1)">
       <use xlink:href="#DejaVuSans-50"/>
       <use x="63.623047" xlink:href="#DejaVuSans-53"/>
       <use x="127.246094" xlink:href="#DejaVuSans-48"/>
      </g>
     </g>
    </g>
    <g id="ytick_7">
     <g id="line2d_14">
      <g>
       <use style="stroke:#000000;stroke-width:0.8;" x="54" xlink:href="#m7684be83d1" y="43.789656"/>
      </g>
     </g>
     <g id="text_14">
      <!-- 300 -->
      <defs>
       <path d="M 40.578125 39.3125 
Q 47.65625 37.796875 51.625 33 
Q 55.609375 28.21875 55.609375 21.1875 
Q 55.609375 10.40625 48.1875 4.484375 
Q 40.765625 -1.421875 27.09375 -1.421875 
Q 22.515625 -1.421875 17.65625 -0.515625 
Q 12.796875 0.390625 7.625 2.203125 
L 7.625 11.71875 
Q 11.71875 9.328125 16.59375 8.109375 
Q 21.484375 6.890625 26.8125 6.890625 
Q 36.078125 6.890625 40.9375 10.546875 
Q 45.796875 14.203125 45.796875 21.1875 
Q 45.796875 27.640625 41.28125 31.265625 
Q 36.765625 34.90625 28.71875 34.90625 
L 20.21875 34.90625 
L 20.21875 43.015625 
L 29.109375 43.015625 
Q 36.375 43.015625 40.234375 45.921875 
Q 44.09375 48.828125 44.09375 54.296875 
Q 44.09375 59.90625 40.109375 62.90625 
Q 36.140625 65.921875 28.71875 65.921875 
Q 24.65625 65.921875 20.015625 65.03125 
Q 15.375 64.15625 9.8125 62.3125 
L 9.8125 71.09375 
Q 15.4375 72.65625 20.34375 73.4375 
Q 25.25 74.21875 29.59375 74.21875 
Q 40.828125 74.21875 47.359375 69.109375 
Q 53.90625 64.015625 53.90625 55.328125 
Q 53.90625 49.265625 50.4375 45.09375 
Q 46.96875 40.921875 40.578125 39.3125 
z
" id="DejaVuSans-51"/>
      </defs>
      <g transform="translate(27.9125 47.588875)scale(0.1 -0.1)">
       <use xlink:href="#DejaVuSans-51"/>
       <use x="63.623047" xlink:href="#DejaVuSans-48"/>
       <use x="127.246094" xlink:href="#DejaVuSans-48"/>
      </g>
     </g>
    </g>
   </g>
   <g id="line2d_15">
    <path clip-path="url(#p370da1d014)" d="M 69.218182 239.983659 
L 69.709884 232.789879 
L 69.955735 225.596099 
L 70.447437 239.983659 
L 70.939139 230.173959 
L 71.18499 239.329679 
L 71.430842 239.983659 
L 71.676693 228.865999 
L 71.922544 239.983659 
L 72.414246 221.672219 
L 72.660097 239.983659 
L 72.905948 239.983659 
L 73.151799 227.558039 
L 73.39765 239.329679 
L 73.643501 239.329679 
L 73.889352 239.983659 
L 74.381054 239.983659 
L 74.626906 238.675699 
L 74.872757 239.983659 
L 75.118608 238.021719 
L 75.364459 239.983659 
L 75.61031 237.367739 
L 75.856161 239.983659 
L 76.102012 232.789879 
L 76.347863 239.983659 
L 76.593714 232.789879 
L 76.839565 239.983659 
L 77.085416 236.059779 
L 77.331267 224.288139 
L 77.577119 184.395358 
L 77.82297 224.942119 
L 78.068821 235.405799 
L 78.314672 239.983659 
L 78.560523 222.980179 
L 78.806374 239.983659 
L 81.019034 239.983659 
L 81.264885 238.021719 
L 81.510736 231.481919 
L 81.756587 238.021719 
L 82.002438 235.405799 
L 82.248289 239.983659 
L 82.49414 239.983659 
L 82.739991 233.443859 
L 82.985842 141.886658 
L 83.231693 239.329679 
L 83.477544 239.983659 
L 110.767014 239.983659 
L 111.012865 223.634159 
L 111.504567 239.983659 
L 119.371802 239.983659 
L 119.617653 239.329679 
L 119.863504 239.983659 
L 120.109355 234.751819 
L 120.355206 239.983659 
L 120.601057 234.097839 
L 120.846909 239.983659 
L 123.059568 239.983659 
L 123.305419 232.789879 
L 123.55127 239.983659 
L 123.797121 235.405799 
L 124.042973 239.983659 
L 124.288824 239.983659 
L 124.534675 238.675699 
L 124.780526 239.983659 
L 128.714143 239.983659 
L 128.959994 238.675699 
L 129.205845 239.983659 
L 129.451696 226.250079 
L 129.697547 239.983659 
L 129.943398 239.983659 
L 130.18925 234.751819 
L 130.435101 232.135899 
L 130.680952 239.329679 
L 130.926803 238.675699 
L 131.172654 239.983659 
L 131.418505 239.983659 
L 131.664356 239.329679 
L 131.910207 229.519979 
L 132.156058 239.329679 
L 132.401909 235.405799 
L 132.64776 91.530197 
L 132.893611 239.983659 
L 133.385314 239.983659 
L 133.631165 238.675699 
L 133.877016 239.983659 
L 135.597973 239.983659 
L 135.843824 234.751819 
L 136.089675 239.329679 
L 136.335527 239.329679 
L 136.581378 234.097839 
L 136.827229 236.713759 
L 137.07308 238.021719 
L 137.318931 239.983659 
L 137.564782 204.668739 
L 137.810633 231.481919 
L 138.056484 224.942119 
L 138.302335 223.634159 
L 138.548186 212.516499 
L 138.794037 232.135899 
L 139.039888 239.983659 
L 140.023293 239.983659 
L 140.269144 238.675699 
L 140.514995 239.983659 
L 140.760846 200.090879 
L 141.252548 239.983659 
L 141.498399 223.634159 
L 141.74425 220.364259 
L 141.990101 207.938639 
L 142.235952 65.370997 
L 142.481803 82.374477 
L 142.727655 181.125458 
L 142.973506 61.447117 
L 143.219357 192.243119 
L 143.465208 239.983659 
L 143.711059 221.672219 
L 143.95691 238.021719 
L 144.202761 238.021719 
L 144.448612 189.627199 
L 144.694463 187.665259 
L 144.940314 239.983659 
L 145.186165 239.329679 
L 145.432016 237.367739 
L 145.677868 224.288139 
L 145.923719 221.672219 
L 146.415421 239.329679 
L 146.661272 239.329679 
L 146.907123 239.983659 
L 147.398825 239.983659 
L 147.644676 215.132419 
L 147.890527 234.097839 
L 148.136378 239.983659 
L 148.382229 238.021719 
L 148.62808 239.983659 
L 148.873932 237.367739 
L 149.119783 212.516499 
L 149.365634 233.443859 
L 149.611485 239.329679 
L 149.857336 238.021719 
L 150.349038 185.049338 
L 150.594889 217.748339 
L 150.84074 230.827939 
L 151.086591 237.367739 
L 151.332442 229.519979 
L 151.578293 239.329679 
L 151.824145 234.751819 
L 152.069996 239.983659 
L 152.807549 239.983659 
L 153.0534 234.751819 
L 153.299251 236.059779 
L 153.790953 201.398839 
L 154.036804 201.398839 
L 154.282655 236.059779 
L 154.774357 239.983659 
L 155.020209 238.021719 
L 155.26606 239.329679 
L 155.511911 217.748339 
L 155.757762 232.135899 
L 156.003613 198.128939 
L 156.249464 196.166999 
L 156.495315 151.042378 
L 156.741166 219.056299 
L 156.987017 220.364259 
L 157.232868 235.405799 
L 157.478719 222.980179 
L 157.72457 234.751819 
L 157.970422 227.558039 
L 158.216273 227.558039 
L 158.462124 222.980179 
L 158.707975 238.021719 
L 158.953826 239.983659 
L 159.691379 239.983659 
L 159.93723 232.135899 
L 160.183081 230.827939 
L 160.428932 239.983659 
L 160.920634 239.983659 
L 161.166486 229.519979 
L 161.412337 237.367739 
L 161.658188 239.329679 
L 161.904039 239.983659 
L 163.133294 239.983659 
L 163.379145 207.284659 
L 163.624996 239.983659 
L 163.870847 202.052819 
L 164.116698 204.014759 
L 164.36255 239.983659 
L 164.608401 239.983659 
L 164.854252 237.367739 
L 165.100103 239.329679 
L 165.345954 209.900579 
L 165.591805 196.820979 
L 165.837656 223.634159 
L 166.083507 225.596099 
L 166.329358 239.983659 
L 166.575209 239.983659 
L 166.82106 234.097839 
L 167.066911 236.059779 
L 167.312763 239.983659 
L 168.787869 239.983659 
L 169.03372 236.713759 
L 169.279571 239.983659 
L 169.525422 228.865999 
L 169.771273 239.983659 
L 170.262975 239.983659 
L 170.508827 239.329679 
L 170.754678 219.710279 
L 171.000529 239.983659 
L 171.492231 239.983659 
L 171.738082 210.554559 
L 171.983933 239.983659 
L 174.688295 239.983659 
L 174.934146 236.713759 
L 175.179997 239.983659 
L 190.668615 239.983659 
L 190.914466 238.675699 
L 191.160317 238.675699 
L 191.406168 239.983659 
L 194.602232 239.983659 
L 194.848083 238.675699 
L 195.093934 239.983659 
L 206.894786 239.983659 
L 207.140637 239.329679 
L 207.386488 230.173959 
L 207.63234 239.983659 
L 212.057659 239.983659 
L 212.30351 238.675699 
L 212.549361 239.983659 
L 213.532765 239.983659 
L 213.778617 209.900579 
L 214.024468 236.059779 
L 214.270319 239.983659 
L 214.51617 219.710279 
L 214.762021 237.367739 
L 215.007872 234.751819 
L 215.253723 215.132419 
L 215.499574 239.329679 
L 215.745425 239.983659 
L 216.728829 239.983659 
L 216.974681 237.367739 
L 217.220532 239.983659 
L 218.203936 239.983659 
L 218.449787 236.713759 
L 218.695638 239.983659 
L 218.941489 238.021719 
L 219.18734 215.132419 
L 219.433191 222.326199 
L 219.679042 239.983659 
L 219.924894 235.405799 
L 220.170745 239.983659 
L 221.154149 239.983659 
L 221.4 224.288139 
L 221.891702 239.983659 
L 223.61266 239.983659 
L 223.858511 238.675699 
L 224.104362 239.983659 
L 224.350213 238.021719 
L 224.596064 238.021719 
L 224.841915 239.983659 
L 225.333617 239.983659 
L 225.579468 233.443859 
L 225.825319 239.983659 
L 226.071171 238.675699 
L 226.562873 239.983659 
L 226.808724 239.983659 
L 227.054575 234.751819 
L 227.300426 222.326199 
L 227.546277 239.983659 
L 228.775532 239.983659 
L 229.021383 235.405799 
L 229.267235 239.983659 
L 230.004788 239.983659 
L 230.250639 223.634159 
L 230.49649 237.367739 
L 230.742341 239.983659 
L 230.988192 239.329679 
L 231.234043 239.983659 
L 231.479894 239.983659 
L 231.725745 190.935159 
L 231.971596 239.983659 
L 232.217447 234.751819 
L 232.463299 239.983659 
L 232.70915 228.865999 
L 232.955001 239.329679 
L 233.200852 239.983659 
L 233.446703 232.789879 
L 233.692554 239.983659 
L 233.938405 236.713759 
L 234.184256 227.558039 
L 234.675958 147.118498 
L 234.921809 156.274218 
L 235.16766 183.087398 
L 235.413512 196.166999 
L 235.905214 239.983659 
L 236.642767 239.983659 
L 236.888618 233.443859 
L 237.134469 221.018239 
L 237.38032 238.021719 
L 237.626171 239.983659 
L 237.872022 239.329679 
L 238.117873 236.713759 
L 238.363724 229.519979 
L 238.609576 211.862519 
L 238.855427 161.506058 
L 239.101278 239.329679 
L 239.347129 239.983659 
L 239.59298 239.983659 
L 239.838831 235.405799 
L 240.084682 234.751819 
L 240.330533 224.288139 
L 240.576384 239.983659 
L 240.822235 198.128939 
L 241.068086 185.049338 
L 241.559789 229.519979 
L 241.80564 239.983659 
L 242.051491 232.135899 
L 242.297342 173.277698 
L 242.543193 72.564777 
L 242.789044 44.443636 
L 243.034895 102.647857 
L 243.280746 211.208539 
L 243.526597 225.596099 
L 243.772448 217.094359 
L 244.26415 145.156558 
L 244.510001 233.443859 
L 244.755853 239.983659 
L 245.739257 239.983659 
L 245.985108 238.021719 
L 246.230959 239.329679 
L 246.47681 239.983659 
L 246.722661 226.250079 
L 246.968512 238.675699 
L 247.214363 238.675699 
L 247.460214 239.983659 
L 247.706066 239.329679 
L 247.951917 237.367739 
L 248.197768 215.132419 
L 248.443619 208.592619 
L 248.68947 176.547598 
L 248.935321 212.516499 
L 249.181172 217.748339 
L 249.427023 239.983659 
L 249.918725 239.983659 
L 250.164576 234.751819 
L 250.410427 239.983659 
L 250.656278 239.983659 
L 250.90213 235.405799 
L 251.147981 221.672219 
L 251.393832 221.018239 
L 251.639683 208.592619 
L 251.885534 184.395358 
L 252.131385 187.011279 
L 252.377236 239.983659 
L 253.852342 239.983659 
L 254.098194 238.021719 
L 254.344045 239.983659 
L 254.589896 236.059779 
L 254.835747 223.634159 
L 255.081598 238.021719 
L 255.327449 239.983659 
L 255.5733 238.675699 
L 255.819151 239.983659 
L 256.065002 239.983659 
L 256.310853 239.329679 
L 256.556704 222.980179 
L 256.802555 231.481919 
L 257.048407 216.440379 
L 257.294258 238.675699 
L 257.540109 224.288139 
L 257.78596 226.250079 
L 258.031811 238.021719 
L 258.277662 239.983659 
L 259.752768 239.983659 
L 259.998619 230.827939 
L 260.244471 239.329679 
L 260.490322 232.789879 
L 260.736173 239.983659 
L 260.982024 236.059779 
L 261.227875 238.675699 
L 261.473726 181.779438 
L 261.719577 238.675699 
L 261.965428 222.980179 
L 262.211279 239.329679 
L 262.45713 231.481919 
L 262.702981 230.173959 
L 262.948832 237.367739 
L 263.194684 239.983659 
L 266.636599 239.983659 
L 266.88245 234.097839 
L 267.374152 239.329679 
L 267.620003 239.983659 
L 271.061918 239.983659 
L 271.307769 238.675699 
L 271.55362 239.983659 
L 275.241386 239.983659 
L 275.487237 238.675699 
L 275.733089 239.983659 
L 278.929153 239.983659 
L 279.175004 233.443859 
L 279.420855 239.983659 
L 287.288089 239.983659 
L 287.53394 236.713759 
L 287.779791 239.983659 
L 295.647026 239.983659 
L 295.892877 236.713759 
L 296.138728 239.329679 
L 296.384579 239.983659 
L 302.039154 239.983659 
L 302.285005 239.329679 
L 302.530856 239.983659 
L 302.776707 238.021719 
L 303.022558 232.789879 
L 303.268409 221.018239 
L 303.514261 239.983659 
L 304.251814 239.983659 
L 304.497665 218.402319 
L 304.743516 239.983659 
L 304.989367 239.983659 
L 305.235218 226.904059 
L 305.481069 231.481919 
L 305.72692 239.983659 
L 310.398091 239.983659 
L 310.643942 239.329679 
L 310.889793 239.983659 
L 311.135644 238.675699 
L 311.381495 239.983659 
L 311.873197 239.983659 
L 312.119048 238.021719 
L 312.364899 239.983659 
L 312.856602 239.983659 
L 313.102453 235.405799 
L 313.348304 226.904059 
L 313.594155 237.367739 
L 313.840006 239.329679 
L 314.085857 239.983659 
L 315.560963 239.983659 
L 315.806815 239.329679 
L 316.052666 192.243119 
L 316.298517 239.983659 
L 316.790219 239.983659 
L 317.03607 233.443859 
L 317.281921 239.329679 
L 317.527772 217.748339 
L 317.773623 218.402319 
L 318.019474 200.090879 
L 318.265325 239.329679 
L 318.511176 239.983659 
L 318.757027 239.983659 
L 319.002879 236.059779 
L 319.24873 239.983659 
L 319.494581 239.983659 
L 319.740432 239.329679 
L 319.986283 239.983659 
L 321.215538 239.983659 
L 321.461389 238.675699 
L 321.70724 239.983659 
L 321.953091 230.173959 
L 322.198943 236.713759 
L 322.444794 213.824459 
L 322.690645 234.097839 
L 322.936496 239.983659 
L 323.182347 213.824459 
L 323.428198 232.135899 
L 323.674049 227.558039 
L 323.9199 239.983659 
L 324.411602 239.983659 
L 324.657453 232.135899 
L 324.903304 239.983659 
L 325.886709 239.983659 
L 326.13256 238.675699 
L 326.378411 223.634159 
L 326.624262 236.713759 
L 326.870113 234.097839 
L 327.361815 239.329679 
L 327.607666 239.983659 
L 328.099368 239.983659 
L 328.34522 237.367739 
L 328.591071 232.789879 
L 328.836922 154.966258 
L 329.082773 157.582178 
L 329.328624 192.897099 
L 329.574475 205.976699 
L 329.820326 239.983659 
L 330.066177 238.675699 
L 330.312028 236.713759 
L 330.557879 238.675699 
L 330.80373 236.059779 
L 331.049581 235.405799 
L 331.295433 223.634159 
L 331.541284 239.329679 
L 331.787135 238.675699 
L 332.032986 234.751819 
L 332.278837 217.094359 
L 332.524688 221.018239 
L 332.770539 238.021719 
L 333.01639 236.059779 
L 333.262241 239.983659 
L 333.999794 239.983659 
L 334.245645 227.558039 
L 334.491497 239.983659 
L 334.737348 239.983659 
L 334.983199 225.596099 
L 335.22905 239.329679 
L 335.474901 239.983659 
L 335.720752 232.135899 
L 335.966603 239.983659 
L 336.212454 239.329679 
L 336.458305 236.059779 
L 336.704156 239.983659 
L 336.950007 239.329679 
L 337.195858 236.059779 
L 337.44171 239.329679 
L 337.933412 219.710279 
L 338.179263 166.083918 
L 338.425114 230.173959 
L 338.670965 238.021719 
L 338.916816 239.983659 
L 339.162667 224.942119 
L 339.408518 238.675699 
L 339.654369 239.983659 
L 339.90022 238.675699 
L 340.146071 236.713759 
L 340.391922 239.983659 
L 340.883625 196.820979 
L 341.129476 239.983659 
L 341.375327 235.405799 
L 341.621178 239.329679 
L 341.867029 239.983659 
L 342.11288 232.135899 
L 342.358731 237.367739 
L 342.604582 239.983659 
L 342.850433 220.364259 
L 343.096284 235.405799 
L 343.342135 231.481919 
L 343.587986 162.814018 
L 343.833838 222.980179 
L 344.079689 225.596099 
L 344.571391 238.021719 
L 344.817242 238.675699 
L 345.063093 239.983659 
L 345.800646 239.983659 
L 346.046497 236.059779 
L 346.538199 239.983659 
L 346.784051 239.983659 
L 347.029902 226.250079 
L 347.275753 238.021719 
L 347.521604 233.443859 
L 347.767455 239.983659 
L 348.013306 239.983659 
L 348.505008 232.135899 
L 348.750859 238.021719 
L 348.99671 239.983659 
L 349.242561 238.675699 
L 349.488412 216.440379 
L 349.734263 234.097839 
L 349.980115 236.713759 
L 350.225966 234.097839 
L 350.471817 239.983659 
L 350.717668 239.983659 
L 350.963519 235.405799 
L 351.20937 239.983659 
L 351.455221 237.367739 
L 351.701072 158.890138 
L 351.946923 239.983659 
L 352.192774 235.405799 
L 352.438625 239.983659 
L 352.684476 239.329679 
L 352.930328 239.983659 
L 353.176179 239.983659 
L 353.42203 221.018239 
L 353.667881 212.516499 
L 354.159583 239.983659 
L 355.142987 239.983659 
L 355.388838 239.329679 
L 355.634689 239.983659 
L 357.109796 239.983659 
L 357.355647 239.329679 
L 357.601498 239.983659 
L 357.847349 232.789879 
L 358.0932 238.675699 
L 358.339051 239.983659 
L 359.322456 239.983659 
L 359.568307 234.097839 
L 359.814158 197.474959 
L 360.060009 230.827939 
L 360.30586 239.329679 
L 360.551711 239.983659 
L 373.581818 239.983659 
L 373.581818 239.983659 
" style="fill:none;stroke:#1f77b4;stroke-linecap:square;stroke-width:1.5;"/>
   </g>
   <g id="line2d_16">
    <path clip-path="url(#p370da1d014)" d="M 69.218182 234.578425 
L 69.464033 234.701082 
L 69.709884 232.338506 
L 69.955735 234.477048 
L 70.201586 232.303324 
L 70.447437 232.124926 
L 70.693288 235.979436 
L 70.939139 236.09183 
L 71.18499 234.336888 
L 71.430842 236.241992 
L 71.676693 236.626466 
L 71.922544 233.145437 
L 72.168395 234.405032 
L 72.414246 232.135773 
L 72.660097 231.535771 
L 72.905948 236.21999 
L 73.151799 235.927574 
L 73.39765 232.00527 
L 73.643501 235.868025 
L 73.889352 235.587282 
L 74.381054 238.150312 
L 74.626906 237.290205 
L 74.872757 237.30192 
L 75.118608 237.798247 
L 75.364459 237.740425 
L 75.61031 237.357738 
L 75.856161 236.039855 
L 76.102012 238.207288 
L 76.347863 235.139877 
L 76.593714 236.729346 
L 76.839565 236.766904 
L 77.085416 238.26702 
L 77.577119 233.607639 
L 77.82297 219.795595 
L 78.068821 228.403227 
L 78.560523 234.044453 
L 78.806374 229.542179 
L 79.052225 234.495363 
L 79.298076 236.199971 
L 79.543927 236.895974 
L 79.789778 235.096055 
L 80.035629 234.544387 
L 80.28148 237.023031 
L 80.527331 238.018728 
L 80.773183 236.390739 
L 81.019034 235.754924 
L 81.264885 236.354497 
L 81.510736 234.79515 
L 81.756587 232.035034 
L 82.002438 237.587172 
L 82.248289 237.416422 
L 82.49414 238.031461 
L 82.739991 237.355506 
L 82.985842 237.643612 
L 83.231693 208.476372 
L 83.477544 230.962706 
L 84.215098 234.510366 
L 84.460949 235.478795 
L 84.7068 237.793518 
L 84.952651 238.014242 
L 85.198502 234.763346 
L 85.444353 233.065538 
L 85.690204 237.560429 
L 85.936055 237.48402 
L 86.181906 238.08804 
L 86.427757 235.219836 
L 86.673608 236.719475 
L 86.91946 235.005067 
L 87.165311 232.00627 
L 87.411162 241.926445 
L 87.902864 239.233029 
L 88.148715 239.380908 
L 88.394566 240.151362 
L 88.886268 239.82852 
L 89.132119 239.666931 
L 89.37797 239.725446 
L 89.869672 238.94164 
L 90.115524 238.936575 
L 90.361375 238.469309 
L 90.607226 239.239845 
L 90.853077 238.389552 
L 91.098928 239.499537 
L 91.344779 237.224666 
L 91.59063 240.832253 
L 91.836481 239.539472 
L 92.082332 239.549909 
L 92.574034 238.85582 
L 93.311588 239.374689 
L 111.012865 239.374689 
L 111.258716 234.238041 
L 111.504567 235.598415 
L 111.750419 237.643626 
L 112.242121 238.229769 
L 112.487972 238.49572 
L 112.979674 239.297347 
L 113.471376 238.281141 
L 113.963078 239.234947 
L 114.208929 239.112306 
L 114.45478 238.579733 
L 114.946483 238.592461 
L 115.192334 237.848033 
L 115.438185 239.212332 
L 115.684036 239.794156 
L 115.929887 239.443989 
L 116.175738 239.364122 
L 116.66744 239.554066 
L 118.8801 239.197058 
L 119.125951 239.348822 
L 119.371802 239.032189 
L 119.617653 239.44642 
L 119.863504 239.31455 
L 120.109355 239.365363 
L 120.355206 237.678036 
L 120.601057 238.827662 
L 120.846909 237.054313 
L 121.09276 238.592585 
L 122.076164 239.1574 
L 123.059568 239.025966 
L 123.305419 239.25282 
L 123.55127 236.837079 
L 123.797121 238.526427 
L 124.042973 237.038934 
L 124.534675 238.673092 
L 124.780526 238.117163 
L 125.026377 239.136375 
L 125.272228 239.225255 
L 125.518079 239.031471 
L 125.76393 239.002484 
L 126.009781 239.202851 
L 126.255632 239.151908 
L 126.501483 239.308172 
L 126.747334 239.010725 
L 126.993185 239.064577 
L 127.484888 238.626904 
L 127.730739 239.357021 
L 127.97659 238.942018 
L 128.222441 239.466679 
L 128.468292 239.213022 
L 128.714143 239.423494 
L 129.205845 239.15132 
L 129.451696 239.324019 
L 129.697547 235.015611 
L 129.943398 238.205073 
L 130.18925 238.376336 
L 130.680952 235.782634 
L 130.926803 237.72337 
L 131.172654 237.806825 
L 131.418505 238.544206 
L 131.664356 238.007197 
L 131.910207 238.192477 
L 132.156058 235.680119 
L 132.401909 237.987081 
L 132.64776 236.370734 
L 132.893611 190.636303 
L 133.139462 225.993563 
L 134.614569 238.610813 
L 134.86042 233.923627 
L 135.106271 231.904015 
L 135.352122 238.106724 
L 135.597973 238.230582 
L 135.843824 236.890684 
L 136.089675 230.537639 
L 136.335527 234.796424 
L 136.581378 233.396917 
L 136.827229 225.782856 
L 137.07308 241.537783 
L 137.564782 238.329692 
L 137.810633 227.336076 
L 138.056484 234.673433 
L 138.302335 232.143582 
L 138.548186 231.198842 
L 138.794037 226.441406 
L 139.039888 231.555438 
L 139.531591 235.50326 
L 140.023293 233.863493 
L 140.269144 236.878595 
L 140.514995 235.603609 
L 140.760846 236.660539 
L 141.006697 219.905048 
L 141.252548 231.514358 
L 141.498399 233.207576 
L 141.74425 226.936948 
L 141.990101 227.166119 
L 142.235952 221.901384 
L 142.481803 176.487446 
L 142.727655 170.038179 
L 142.973506 192.607445 
L 143.219357 155.090294 
L 143.711059 206.7607 
L 143.95691 210.119913 
L 144.202761 219.302021 
L 144.448612 219.214141 
L 144.694463 202.260745 
L 144.940314 201.402955 
L 145.186165 217.739365 
L 145.432016 216.40304 
L 145.677868 217.311633 
L 145.923719 212.582469 
L 146.16957 212.152029 
L 146.415421 205.810907 
L 146.907123 226.567402 
L 147.152974 222.358779 
L 147.398825 239.146728 
L 147.644676 242.116364 
L 147.890527 229.11595 
L 148.382229 235.963214 
L 148.62808 233.513308 
L 148.873932 236.457725 
L 149.119783 237.971847 
L 149.365634 228.85161 
L 149.611485 231.113946 
L 149.857336 231.366453 
L 150.103187 231.290361 
L 150.594889 214.151055 
L 151.086591 229.467025 
L 151.332442 227.325254 
L 152.315847 235.106443 
L 152.561698 231.655466 
L 152.807549 232.096061 
L 153.0534 235.06609 
L 153.299251 234.502922 
L 153.545102 234.995024 
L 154.036804 220.041307 
L 154.282655 215.663083 
L 154.528506 226.437671 
L 154.774357 232.200603 
L 155.020209 234.424825 
L 155.26606 234.590654 
L 155.511911 235.914825 
L 155.757762 231.155336 
L 156.003613 232.080681 
L 156.249464 221.23627 
L 156.495315 218.295487 
L 156.741166 202.633717 
L 156.987017 217.166188 
L 157.232868 217.120522 
L 157.478719 221.93605 
L 157.72457 219.867422 
L 157.970422 225.106546 
L 158.462124 228.54271 
L 158.707975 224.203985 
L 159.199677 233.002354 
L 159.445528 233.191427 
L 159.691379 230.93765 
L 159.93723 231.011522 
L 160.183081 227.94241 
L 160.428932 228.009179 
L 160.674783 229.71056 
L 160.920634 236.58593 
L 161.166486 236.993485 
L 161.412337 233.899442 
L 161.904039 237.323974 
L 162.14989 237.552944 
L 162.395741 237.581581 
L 162.887443 239.985407 
L 163.133294 239.247728 
L 163.379145 237.50998 
L 163.624996 226.949803 
L 163.870847 234.412771 
L 164.116698 223.90503 
L 164.36255 221.115726 
L 164.608401 232.0383 
L 164.854252 232.128508 
L 165.100103 234.923954 
L 165.345954 234.845134 
L 165.837656 220.495011 
L 166.083507 226.596846 
L 166.329358 224.997482 
L 166.575209 231.007513 
L 166.82106 232.641169 
L 167.066911 232.817432 
L 167.312763 232.595773 
L 167.558614 231.753589 
L 167.804465 233.961622 
L 168.050316 232.016587 
L 168.542018 238.894623 
L 168.787869 237.963329 
L 169.03372 236.081831 
L 169.525422 234.455438 
L 169.771273 232.792822 
L 170.017124 238.321676 
L 170.262975 238.297525 
L 170.508827 238.906945 
L 170.754678 238.307471 
L 171.000529 232.207039 
L 171.24638 237.096434 
L 171.492231 238.304721 
L 171.738082 237.228629 
L 171.983933 229.174733 
L 172.229784 235.635338 
L 172.721486 237.708967 
L 172.967337 236.161533 
L 173.213188 236.194669 
L 173.45904 237.944265 
L 173.704891 237.433463 
L 173.950742 237.555872 
L 174.196593 237.498485 
L 174.442444 238.623356 
L 174.688295 238.683489 
L 174.934146 237.36847 
L 175.179997 237.322445 
L 175.425848 238.407786 
L 175.671699 238.077455 
L 175.91755 236.98259 
L 176.163401 240.160856 
L 176.655104 239.296408 
L 176.900955 239.315415 
L 177.146806 239.583356 
L 177.392657 239.223934 
L 177.638508 239.553947 
L 177.884359 239.103842 
L 178.13021 239.474675 
L 178.621912 239.026427 
L 178.867763 239.14198 
L 179.113614 238.369795 
L 179.359465 239.693955 
L 179.605316 239.151582 
L 179.851168 239.502171 
L 180.097019 238.680137 
L 180.34287 239.743254 
L 180.588721 239.384284 
L 180.834572 239.447154 
L 181.326274 239.240968 
L 182.555529 239.36973 
L 183.293083 239.301035 
L 183.538934 239.424389 
L 184.522338 239.358076 
L 188.947658 239.374689 
L 190.914466 239.374689 
L 191.160317 238.963757 
L 191.406168 238.858902 
L 191.652019 239.181679 
L 193.127126 239.32783 
L 193.618828 239.302357 
L 194.11053 239.349794 
L 194.848083 239.293501 
L 195.093934 238.818016 
L 195.339786 239.204669 
L 195.585637 239.338382 
L 196.569041 239.380259 
L 198.044147 239.348195 
L 199.027552 239.265385 
L 199.519254 239.381781 
L 201.486063 239.37398 
L 207.140637 239.374689 
L 207.386488 239.169223 
L 207.63234 236.240273 
L 207.878191 238.544202 
L 209.353297 239.355772 
L 209.599148 238.98607 
L 209.844999 238.885749 
L 210.09085 239.313558 
L 210.582553 239.21666 
L 210.828404 238.942415 
L 211.074255 239.083584 
L 211.320106 238.984016 
L 211.565957 238.639724 
L 211.811808 239.646836 
L 212.30351 239.356412 
L 212.549361 238.971514 
L 212.795212 239.353152 
L 213.778617 239.380046 
L 214.024468 229.902383 
L 214.270319 235.707777 
L 214.51617 236.931064 
L 214.762021 231.062154 
L 215.007872 235.326373 
L 215.253723 234.912556 
L 215.499574 229.488323 
L 215.745425 235.472243 
L 216.237127 235.86583 
L 216.482978 237.569491 
L 216.974681 237.530873 
L 217.220532 236.765302 
L 217.466383 236.883817 
L 217.712234 236.489471 
L 217.958085 235.708107 
L 218.203936 238.889074 
L 218.449787 238.454357 
L 218.695638 235.470987 
L 218.941489 238.568807 
L 219.18734 237.729402 
L 219.433191 229.560143 
L 219.679042 232.400031 
L 219.924894 236.672915 
L 220.170745 235.596646 
L 220.416596 236.985254 
L 220.662447 237.483164 
L 220.908298 238.237619 
L 221.154149 238.577165 
L 221.4 238.282574 
L 221.645851 232.203085 
L 222.137553 236.36243 
L 222.383404 237.205144 
L 222.629255 236.587071 
L 222.875106 236.616379 
L 223.120958 237.42475 
L 223.366809 236.514222 
L 223.61266 237.475597 
L 223.858511 239.298778 
L 224.104362 238.274474 
L 224.350213 239.207098 
L 224.841915 237.934047 
L 225.087766 238.459452 
L 225.333617 238.497508 
L 225.579468 237.929186 
L 225.825319 237.057194 
L 226.071171 239.07588 
L 226.317022 238.318475 
L 226.562873 238.336234 
L 227.054575 238.859446 
L 227.300426 237.452847 
L 227.546277 232.887896 
L 227.792128 237.213748 
L 228.28383 237.989162 
L 228.529681 238.037958 
L 228.775532 238.205272 
L 229.021383 238.729544 
L 229.267235 237.356494 
L 229.513086 237.771581 
L 229.758937 237.278966 
L 230.004788 239.217123 
L 230.250639 239.130259 
L 230.49649 233.667353 
L 230.742341 236.344735 
L 230.988192 237.369808 
L 231.234043 236.92395 
L 231.479894 237.009369 
L 231.725745 239.201974 
L 231.971596 223.887016 
L 232.217447 235.251679 
L 232.463299 233.666609 
L 232.70915 235.539233 
L 232.955001 232.990604 
L 233.200852 236.089999 
L 233.446703 237.662929 
L 233.692554 235.785218 
L 233.938405 235.654444 
L 234.430107 232.733784 
L 235.16766 198.301728 
L 235.413512 203.618902 
L 235.659363 205.39541 
L 235.905214 210.50526 
L 236.151065 224.9631 
L 236.396916 228.655342 
L 236.642767 230.55898 
L 236.888618 229.027887 
L 237.134469 228.450068 
L 237.38032 225.38218 
L 237.626171 229.717485 
L 237.872022 230.225524 
L 238.117873 229.173964 
L 238.363724 227.275744 
L 238.855427 217.039443 
L 239.101278 203.647696 
L 239.347129 226.077428 
L 239.59298 228.821239 
L 239.838831 234.034467 
L 240.084682 234.050259 
L 240.330533 236.454918 
L 240.576384 232.861133 
L 240.822235 237.07192 
L 241.068086 220.285497 
L 241.313937 212.616674 
L 241.559789 221.506637 
L 242.051491 227.515917 
L 242.297342 224.004203 
L 242.543193 207.328415 
L 243.034895 150.418528 
L 243.280746 162.826618 
L 243.526597 190.99289 
L 243.772448 200.247288 
L 244.018299 204.83577 
L 244.510001 186.524115 
L 244.755853 207.812463 
L 245.001704 205.202328 
L 245.247555 209.739101 
L 245.739257 226.86114 
L 245.985108 224.005871 
L 246.47681 210.174927 
L 246.722661 210.75091 
L 246.968512 217.929594 
L 247.460214 237.8987 
L 247.706066 233.477058 
L 247.951917 233.589665 
L 248.197768 232.076924 
L 248.443619 227.941449 
L 248.68947 231.879931 
L 248.935321 217.995207 
L 249.181172 221.844551 
L 249.427023 222.887477 
L 249.672874 229.915673 
L 250.164576 231.501408 
L 250.410427 230.827106 
L 250.656278 231.697902 
L 250.90213 229.38643 
L 251.147981 230.92677 
L 251.393832 229.068655 
L 251.639683 229.136221 
L 251.885534 222.530368 
L 252.131385 209.937369 
L 252.377236 205.541076 
L 252.623087 220.142333 
L 253.114789 232.185549 
L 253.36064 233.625759 
L 253.606491 235.757948 
L 253.852342 236.385375 
L 254.098194 235.769664 
L 254.344045 233.795152 
L 254.589896 235.878953 
L 254.835747 236.259024 
L 255.081598 230.056579 
L 255.327449 231.38913 
L 256.065002 232.233228 
L 256.556704 239.711288 
L 256.802555 234.197625 
L 257.048407 233.812876 
L 257.294258 230.523478 
L 257.540109 236.42979 
L 257.78596 232.428271 
L 258.031811 231.311381 
L 258.523513 235.381582 
L 258.769364 235.322357 
L 259.015215 234.80965 
L 259.261066 236.594303 
L 259.506917 236.884639 
L 259.752768 237.485225 
L 259.998619 236.435155 
L 260.244471 234.12805 
L 260.490322 236.130573 
L 260.736173 234.796536 
L 260.982024 236.474977 
L 261.227875 234.649063 
L 261.473726 237.098295 
L 261.719577 218.377279 
L 261.965428 232.904317 
L 262.211279 229.814797 
L 262.45713 234.513816 
L 262.702981 232.505906 
L 262.948832 232.672022 
L 263.440535 237.30351 
L 263.686386 235.615293 
L 263.932237 234.817711 
L 264.178088 236.667099 
L 264.423939 237.230121 
L 264.66979 237.294395 
L 264.915641 235.235327 
L 265.161492 236.5885 
L 265.407343 235.852299 
L 265.653194 234.626311 
L 265.899045 239.564471 
L 266.144896 238.108156 
L 266.390748 239.195596 
L 266.636599 238.552153 
L 266.88245 239.178649 
L 267.128301 237.99514 
L 267.620003 238.806792 
L 267.865854 239.123468 
L 268.111705 239.0948 
L 268.357556 238.81939 
L 268.603407 239.131723 
L 268.849258 238.699537 
L 269.095109 239.149118 
L 269.34096 238.154301 
L 269.586812 239.266562 
L 269.832663 237.672079 
L 270.078514 240.043508 
L 270.324365 238.671239 
L 270.570216 239.351867 
L 271.061918 238.462676 
L 271.307769 239.209497 
L 271.55362 239.03903 
L 271.799471 239.265859 
L 272.291173 239.275824 
L 273.274578 239.416022 
L 273.76628 239.299822 
L 274.503833 239.32285 
L 274.749684 239.250234 
L 274.995535 239.330719 
L 275.241386 239.198672 
L 275.487237 239.307033 
L 275.733089 239.033338 
L 275.97894 239.311631 
L 276.716493 239.293681 
L 277.699897 239.333503 
L 278.929153 239.317455 
L 279.175004 239.325643 
L 279.420855 237.278924 
L 279.666706 238.720614 
L 279.912557 238.98897 
L 281.141812 239.38332 
L 281.633514 239.055669 
L 281.879366 239.342755 
L 282.371068 239.285103 
L 282.616919 239.091979 
L 282.86277 239.184604 
L 283.108621 239.145703 
L 283.354472 238.859729 
L 283.600323 239.554857 
L 284.092025 239.382272 
L 287.53394 239.227382 
L 287.779791 238.446759 
L 288.025643 239.122971 
L 289.500749 239.376301 
L 289.992451 239.212984 
L 290.238302 239.355563 
L 290.730004 239.331221 
L 290.975855 239.236562 
L 291.467558 239.261188 
L 291.713409 239.123838 
L 291.95926 239.462626 
L 292.696813 239.375527 
L 293.680217 239.385665 
L 295.647026 239.385425 
L 295.892877 239.301035 
L 296.138728 238.397059 
L 296.384579 238.912296 
L 296.63043 239.107994 
L 297.859686 239.369184 
L 298.351388 239.189232 
L 298.84309 239.352096 
L 299.826494 239.243294 
L 300.072345 239.101138 
L 300.318197 239.412456 
L 301.301601 239.401076 
L 302.285005 239.392679 
L 302.530856 239.17061 
L 302.776707 239.315281 
L 303.022558 238.696748 
L 303.268409 236.892935 
L 303.514261 232.666873 
L 303.760112 237.214732 
L 304.497665 238.270041 
L 304.743516 231.895554 
L 304.989367 237.373831 
L 305.235218 237.563953 
L 305.481069 233.085959 
L 305.72692 233.63847 
L 305.972771 236.925842 
L 306.218622 237.591843 
L 306.464473 237.696509 
L 306.710325 236.737774 
L 306.956176 236.98344 
L 307.202027 238.003746 
L 307.447878 237.543678 
L 307.693729 238.7355 
L 307.93958 238.199518 
L 308.185431 238.644793 
L 308.431282 238.481627 
L 308.677133 237.270456 
L 308.922984 239.417636 
L 309.168835 239.096327 
L 309.414686 238.129723 
L 309.906389 239.907582 
L 310.398091 239.321048 
L 310.889793 239.349498 
L 311.135644 239.228896 
L 311.381495 238.896339 
L 311.627346 238.906106 
L 311.873197 239.40679 
L 312.119048 239.26242 
L 312.364899 238.406115 
L 312.61075 239.023752 
L 312.856602 238.508204 
L 313.102453 239.369125 
L 313.348304 237.786732 
L 313.594155 234.541126 
L 313.840006 237.134277 
L 314.085857 237.851488 
L 315.069261 239.000078 
L 315.315112 239.022081 
L 315.560963 238.618506 
L 315.806815 238.569568 
L 316.052666 238.848013 
L 316.298517 223.994164 
L 316.544368 235.184057 
L 316.790219 235.444025 
L 317.03607 236.288314 
L 317.281921 234.221128 
L 317.527772 236.148524 
L 317.773623 231.573213 
L 318.019474 230.615538 
L 318.265325 221.54133 
L 318.511176 230.81848 
L 318.757027 234.282934 
L 319.002879 235.429554 
L 319.24873 234.572823 
L 319.494581 235.19312 
L 319.740432 236.549902 
L 319.986283 235.329964 
L 320.232134 232.720069 
L 320.477985 237.805189 
L 320.723836 238.904916 
L 321.215538 236.526912 
L 321.461389 236.540062 
L 321.70724 235.578525 
L 321.953091 237.158861 
L 322.198943 234.119085 
L 322.444794 238.895696 
L 322.690645 230.541694 
L 322.936496 234.496703 
L 323.182347 236.254354 
L 323.428198 229.262759 
L 323.674049 233.485538 
L 323.9199 231.724879 
L 324.165751 236.041862 
L 324.411602 235.335751 
L 324.657453 236.933792 
L 324.903304 233.823161 
L 325.149156 237.353877 
L 325.395007 236.281537 
L 325.640858 236.144486 
L 325.886709 235.482788 
L 326.13256 236.473649 
L 326.378411 236.77937 
L 326.624262 231.484778 
L 326.870113 235.752773 
L 327.115964 234.49369 
L 327.361815 233.889832 
L 327.607666 237.062651 
L 327.853517 237.784196 
L 328.099368 238.941671 
L 328.34522 239.106339 
L 328.591071 237.718127 
L 328.836922 235.669606 
L 329.082773 211.888961 
L 329.328624 205.658287 
L 329.574475 211.27149 
L 329.820326 213.454764 
L 330.066177 224.41226 
L 330.312028 226.101364 
L 330.557879 228.941837 
L 330.80373 233.552318 
L 331.049581 232.383936 
L 331.541284 226.427356 
L 331.787135 232.772494 
L 332.032986 233.201665 
L 332.278837 231.205144 
L 332.524688 223.493361 
L 332.770539 222.272286 
L 333.01639 222.792226 
L 333.508092 234.175406 
L 333.753943 235.70424 
L 333.999794 239.135606 
L 334.245645 238.948503 
L 334.491497 234.642249 
L 334.983199 238.015271 
L 335.22905 233.916289 
L 335.474901 236.193727 
L 335.720752 237.078428 
L 335.966603 233.920882 
L 336.212454 234.939213 
L 336.458305 234.076186 
L 336.704156 234.525812 
L 336.950007 238.199219 
L 337.195858 236.040608 
L 337.44171 236.337099 
L 337.687561 238.73521 
L 338.179263 231.59264 
L 338.425114 211.614987 
L 338.670965 227.292591 
L 338.916816 230.272402 
L 339.162667 231.407079 
L 339.408518 229.534149 
L 339.654369 233.752264 
L 339.90022 235.868085 
L 340.146071 236.552143 
L 340.391922 233.46258 
L 340.637774 233.519383 
L 340.883625 230.48563 
L 341.129476 222.691814 
L 341.375327 231.23777 
L 341.621178 228.841889 
L 341.867029 231.368178 
L 342.11288 231.717723 
L 342.358731 229.105897 
L 342.604582 237.509845 
L 342.850433 238.24738 
L 343.096284 229.449271 
L 343.587986 235.122956 
L 343.833838 212.981278 
L 344.079689 224.710174 
L 344.32554 224.506611 
L 344.571391 227.520562 
L 345.063093 230.251642 
L 345.308944 236.103474 
L 345.554795 236.482116 
L 346.046497 233.346981 
L 346.292348 234.920295 
L 346.538199 234.982056 
L 346.784051 237.467361 
L 347.029902 233.751538 
L 347.275753 231.843618 
L 347.521604 232.702025 
L 347.767455 228.696159 
L 348.013306 237.426059 
L 348.259157 237.720284 
L 348.505008 236.501058 
L 348.750859 235.965941 
L 348.99671 237.990848 
L 349.242561 238.019197 
L 349.488412 238.625387 
L 349.734263 231.162038 
L 349.980115 235.051331 
L 350.225966 235.271149 
L 350.471817 234.160741 
L 350.717668 235.628804 
L 350.963519 235.7788 
L 351.20937 234.718695 
L 351.455221 237.684229 
L 351.701072 236.427332 
L 351.946923 210.022494 
L 352.192774 232.325665 
L 352.438625 231.101483 
L 352.684476 233.644752 
L 352.930328 234.144915 
L 353.42203 236.497497 
L 353.913732 225.929391 
L 354.159583 227.651927 
L 354.405434 234.156588 
L 354.651285 235.582789 
L 354.897136 235.603351 
L 355.142987 234.024131 
L 355.388838 236.208955 
L 355.634689 235.471577 
L 355.88054 231.092188 
L 356.126392 239.524415 
L 356.863945 237.774163 
L 357.109796 238.122803 
L 357.355647 237.765707 
L 357.601498 236.797461 
L 357.847349 236.986408 
L 358.0932 237.564974 
L 358.339051 238.989722 
L 358.584902 238.670635 
L 359.076604 238.51087 
L 359.322456 239.095285 
L 359.568307 238.656818 
L 359.814158 237.918203 
L 360.060009 223.6099 
L 360.30586 233.539498 
L 360.797562 236.086598 
L 361.043413 236.156845 
L 361.289264 236.418109 
L 361.535115 237.809551 
L 361.780966 238.305041 
L 362.026817 236.64575 
L 362.272669 237.146216 
L 362.51852 239.015664 
L 362.764371 239.014328 
L 363.010222 238.396237 
L 363.256073 237.132356 
L 363.501924 237.529395 
L 363.747775 237.166424 
L 363.993626 235.976908 
L 364.239477 239.906673 
L 364.485328 240.10198 
L 364.731179 239.408771 
L 364.97703 239.381423 
L 365.222881 239.682227 
L 365.468733 239.762427 
L 365.714584 239.601303 
L 365.960435 239.619451 
L 366.206286 239.454339 
L 366.452137 239.467253 
L 367.18969 238.947047 
L 367.435541 239.130858 
L 367.681392 238.915517 
L 367.927243 239.283979 
L 368.173094 238.530085 
L 368.418946 239.826081 
L 368.910648 239.470299 
L 369.40235 239.129178 
L 370.631605 239.374689 
L 373.581818 239.374689 
L 373.581818 239.374689 
" style="fill:none;stroke:#ff7f0e;stroke-linecap:square;stroke-width:1.5;"/>
   </g>
   <g id="patch_3">
    <path d="M 54 252 
L 54 34.56 
" style="fill:none;stroke:#000000;stroke-linecap:square;stroke-linejoin:miter;stroke-width:0.8;"/>
   </g>
   <g id="patch_4">
    <path d="M 388.8 252 
L 388.8 34.56 
" style="fill:none;stroke:#000000;stroke-linecap:square;stroke-linejoin:miter;stroke-width:0.8;"/>
   </g>
   <g id="patch_5">
    <path d="M 54 252 
L 388.8 252 
" style="fill:none;stroke:#000000;stroke-linecap:square;stroke-linejoin:miter;stroke-width:0.8;"/>
   </g>
   <g id="patch_6">
    <path d="M 54 34.56 
L 388.8 34.56 
" style="fill:none;stroke:#000000;stroke-linecap:square;stroke-linejoin:miter;stroke-width:0.8;"/>
   </g>
   <g id="legend_1">
    <g id="patch_7">
     <path d="M 271.970312 71.91625 
L 381.8 71.91625 
Q 383.8 71.91625 383.8 69.91625 
L 383.8 41.56 
Q 383.8 39.56 381.8 39.56 
L 271.970312 39.56 
Q 269.970312 39.56 269.970312 41.56 
L 269.970312 69.91625 
Q 269.970312 71.91625 271.970312 71.91625 
z
" style="fill:#ffffff;opacity:0.8;stroke:#cccccc;stroke-linejoin:miter;"/>
    </g>
    <g id="line2d_17">
     <path d="M 273.970312 47.658437 
L 293.970312 47.658437 
" style="fill:none;stroke:#1f77b4;stroke-linecap:square;stroke-width:1.5;"/>
    </g>
    <g id="line2d_18"/>
    <g id="text_15">
     <!-- True value -->
     <defs>
      <path d="M -0.296875 72.90625 
L 61.375 72.90625 
L 61.375 64.59375 
L 35.5 64.59375 
L 35.5 0 
L 25.59375 0 
L 25.59375 64.59375 
L -0.296875 64.59375 
z
" id="DejaVuSans-84"/>
      <path d="M 41.109375 46.296875 
Q 39.59375 47.171875 37.8125 47.578125 
Q 36.03125 48 33.890625 48 
Q 26.265625 48 22.1875 43.046875 
Q 18.109375 38.09375 18.109375 28.8125 
L 18.109375 0 
L 9.078125 0 
L 9.078125 54.6875 
L 18.109375 54.6875 
L 18.109375 46.1875 
Q 20.953125 51.171875 25.484375 53.578125 
Q 30.03125 56 36.53125 56 
Q 37.453125 56 38.578125 55.875 
Q 39.703125 55.765625 41.0625 55.515625 
z
" id="DejaVuSans-114"/>
      <path d="M 8.5 21.578125 
L 8.5 54.6875 
L 17.484375 54.6875 
L 17.484375 21.921875 
Q 17.484375 14.15625 20.5 10.265625 
Q 23.53125 6.390625 29.59375 6.390625 
Q 36.859375 6.390625 41.078125 11.03125 
Q 45.3125 15.671875 45.3125 23.6875 
L 45.3125 54.6875 
L 54.296875 54.6875 
L 54.296875 0 
L 45.3125 0 
L 45.3125 8.40625 
Q 42.046875 3.421875 37.71875 1 
Q 33.40625 -1.421875 27.6875 -1.421875 
Q 18.265625 -1.421875 13.375 4.4375 
Q 8.5 10.296875 8.5 21.578125 
z
M 31.109375 56 
z
" id="DejaVuSans-117"/>
      <path d="M 56.203125 29.59375 
L 56.203125 25.203125 
L 14.890625 25.203125 
Q 15.484375 15.921875 20.484375 11.0625 
Q 25.484375 6.203125 34.421875 6.203125 
Q 39.59375 6.203125 44.453125 7.46875 
Q 49.3125 8.734375 54.109375 11.28125 
L 54.109375 2.78125 
Q 49.265625 0.734375 44.1875 -0.34375 
Q 39.109375 -1.421875 33.890625 -1.421875 
Q 20.796875 -1.421875 13.15625 6.1875 
Q 5.515625 13.8125 5.515625 26.8125 
Q 5.515625 40.234375 12.765625 48.109375 
Q 20.015625 56 32.328125 56 
Q 43.359375 56 49.78125 48.890625 
Q 56.203125 41.796875 56.203125 29.59375 
z
M 47.21875 32.234375 
Q 47.125 39.59375 43.09375 43.984375 
Q 39.0625 48.390625 32.421875 48.390625 
Q 24.90625 48.390625 20.390625 44.140625 
Q 15.875 39.890625 15.1875 32.171875 
z
" id="DejaVuSans-101"/>
      <path id="DejaVuSans-32"/>
      <path d="M 2.984375 54.6875 
L 12.5 54.6875 
L 29.59375 8.796875 
L 46.6875 54.6875 
L 56.203125 54.6875 
L 35.6875 0 
L 23.484375 0 
z
" id="DejaVuSans-118"/>
      <path d="M 34.28125 27.484375 
Q 23.390625 27.484375 19.1875 25 
Q 14.984375 22.515625 14.984375 16.5 
Q 14.984375 11.71875 18.140625 8.90625 
Q 21.296875 6.109375 26.703125 6.109375 
Q 34.1875 6.109375 38.703125 11.40625 
Q 43.21875 16.703125 43.21875 25.484375 
L 43.21875 27.484375 
z
M 52.203125 31.203125 
L 52.203125 0 
L 43.21875 0 
L 43.21875 8.296875 
Q 40.140625 3.328125 35.546875 0.953125 
Q 30.953125 -1.421875 24.3125 -1.421875 
Q 15.921875 -1.421875 10.953125 3.296875 
Q 6 8.015625 6 15.921875 
Q 6 25.140625 12.171875 29.828125 
Q 18.359375 34.515625 30.609375 34.515625 
L 43.21875 34.515625 
L 43.21875 35.40625 
Q 43.21875 41.609375 39.140625 45 
Q 35.0625 48.390625 27.6875 48.390625 
Q 23 48.390625 18.546875 47.265625 
Q 14.109375 46.140625 10.015625 43.890625 
L 10.015625 52.203125 
Q 14.9375 54.109375 19.578125 55.046875 
Q 24.21875 56 28.609375 56 
Q 40.484375 56 46.34375 49.84375 
Q 52.203125 43.703125 52.203125 31.203125 
z
" id="DejaVuSans-97"/>
      <path d="M 9.421875 75.984375 
L 18.40625 75.984375 
L 18.40625 0 
L 9.421875 0 
z
" id="DejaVuSans-108"/>
     </defs>
     <g transform="translate(301.970312 51.158437)scale(0.1 -0.1)">
      <use xlink:href="#DejaVuSans-84"/>
      <use x="60.865234" xlink:href="#DejaVuSans-114"/>
      <use x="101.978516" xlink:href="#DejaVuSans-117"/>
      <use x="165.357422" xlink:href="#DejaVuSans-101"/>
      <use x="226.880859" xlink:href="#DejaVuSans-32"/>
      <use x="258.667969" xlink:href="#DejaVuSans-118"/>
      <use x="317.847656" xlink:href="#DejaVuSans-97"/>
      <use x="379.126953" xlink:href="#DejaVuSans-108"/>
      <use x="406.910156" xlink:href="#DejaVuSans-117"/>
      <use x="470.289062" xlink:href="#DejaVuSans-101"/>
     </g>
    </g>
    <g id="line2d_19">
     <path d="M 273.970312 62.336562 
L 293.970312 62.336562 
" style="fill:none;stroke:#ff7f0e;stroke-linecap:square;stroke-width:1.5;"/>
    </g>
    <g id="line2d_20"/>
    <g id="text_16">
     <!-- Predicted value -->
     <defs>
      <path d="M 19.671875 64.796875 
L 19.671875 37.40625 
L 32.078125 37.40625 
Q 38.96875 37.40625 42.71875 40.96875 
Q 46.484375 44.53125 46.484375 51.125 
Q 46.484375 57.671875 42.71875 61.234375 
Q 38.96875 64.796875 32.078125 64.796875 
z
M 9.8125 72.90625 
L 32.078125 72.90625 
Q 44.34375 72.90625 50.609375 67.359375 
Q 56.890625 61.8125 56.890625 51.125 
Q 56.890625 40.328125 50.609375 34.8125 
Q 44.34375 29.296875 32.078125 29.296875 
L 19.671875 29.296875 
L 19.671875 0 
L 9.8125 0 
z
" id="DejaVuSans-80"/>
      <path d="M 45.40625 46.390625 
L 45.40625 75.984375 
L 54.390625 75.984375 
L 54.390625 0 
L 45.40625 0 
L 45.40625 8.203125 
Q 42.578125 3.328125 38.25 0.953125 
Q 33.9375 -1.421875 27.875 -1.421875 
Q 17.96875 -1.421875 11.734375 6.484375 
Q 5.515625 14.40625 5.515625 27.296875 
Q 5.515625 40.1875 11.734375 48.09375 
Q 17.96875 56 27.875 56 
Q 33.9375 56 38.25 53.625 
Q 42.578125 51.265625 45.40625 46.390625 
z
M 14.796875 27.296875 
Q 14.796875 17.390625 18.875 11.75 
Q 22.953125 6.109375 30.078125 6.109375 
Q 37.203125 6.109375 41.296875 11.75 
Q 45.40625 17.390625 45.40625 27.296875 
Q 45.40625 37.203125 41.296875 42.84375 
Q 37.203125 48.484375 30.078125 48.484375 
Q 22.953125 48.484375 18.875 42.84375 
Q 14.796875 37.203125 14.796875 27.296875 
z
" id="DejaVuSans-100"/>
      <path d="M 9.421875 54.6875 
L 18.40625 54.6875 
L 18.40625 0 
L 9.421875 0 
z
M 9.421875 75.984375 
L 18.40625 75.984375 
L 18.40625 64.59375 
L 9.421875 64.59375 
z
" id="DejaVuSans-105"/>
      <path d="M 48.78125 52.59375 
L 48.78125 44.1875 
Q 44.96875 46.296875 41.140625 47.34375 
Q 37.3125 48.390625 33.40625 48.390625 
Q 24.65625 48.390625 19.8125 42.84375 
Q 14.984375 37.3125 14.984375 27.296875 
Q 14.984375 17.28125 19.8125 11.734375 
Q 24.65625 6.203125 33.40625 6.203125 
Q 37.3125 6.203125 41.140625 7.25 
Q 44.96875 8.296875 48.78125 10.40625 
L 48.78125 2.09375 
Q 45.015625 0.34375 40.984375 -0.53125 
Q 36.96875 -1.421875 32.421875 -1.421875 
Q 20.0625 -1.421875 12.78125 6.34375 
Q 5.515625 14.109375 5.515625 27.296875 
Q 5.515625 40.671875 12.859375 48.328125 
Q 20.21875 56 33.015625 56 
Q 37.15625 56 41.109375 55.140625 
Q 45.0625 54.296875 48.78125 52.59375 
z
" id="DejaVuSans-99"/>
      <path d="M 18.3125 70.21875 
L 18.3125 54.6875 
L 36.8125 54.6875 
L 36.8125 47.703125 
L 18.3125 47.703125 
L 18.3125 18.015625 
Q 18.3125 11.328125 20.140625 9.421875 
Q 21.96875 7.515625 27.59375 7.515625 
L 36.8125 7.515625 
L 36.8125 0 
L 27.59375 0 
Q 17.1875 0 13.234375 3.875 
Q 9.28125 7.765625 9.28125 18.015625 
L 9.28125 47.703125 
L 2.6875 47.703125 
L 2.6875 54.6875 
L 9.28125 54.6875 
L 9.28125 70.21875 
z
" id="DejaVuSans-116"/>
     </defs>
     <g transform="translate(301.970312 65.836562)scale(0.1 -0.1)">
      <use xlink:href="#DejaVuSans-80"/>
      <use x="60.287109" xlink:href="#DejaVuSans-114"/>
      <use x="101.369141" xlink:href="#DejaVuSans-101"/>
      <use x="162.892578" xlink:href="#DejaVuSans-100"/>
      <use x="226.369141" xlink:href="#DejaVuSans-105"/>
      <use x="254.152344" xlink:href="#DejaVuSans-99"/>
      <use x="309.132812" xlink:href="#DejaVuSans-116"/>
      <use x="348.341797" xlink:href="#DejaVuSans-101"/>
      <use x="409.865234" xlink:href="#DejaVuSans-100"/>
      <use x="473.341797" xlink:href="#DejaVuSans-32"/>
      <use x="505.128906" xlink:href="#DejaVuSans-118"/>
      <use x="564.308594" xlink:href="#DejaVuSans-97"/>
      <use x="625.587891" xlink:href="#DejaVuSans-108"/>
      <use x="653.371094" xlink:href="#DejaVuSans-117"/>
      <use x="716.75" xlink:href="#DejaVuSans-101"/>
     </g>
    </g>
   </g>
  </g>
 </g>
 <defs>
  <clipPath id="p370da1d014">
   <rect height="217.44" width="334.8" x="54" y="34.56"/>
  </clipPath>
 </defs>
</svg>
