<?xml version="1.0" encoding="utf-8" standalone="no"?>
<!DOCTYPE svg PUBLIC "-//W3C//DTD SVG 1.1//EN"
  "http://www.w3.org/Graphics/SVG/1.1/DTD/svg11.dtd">
<!-- Created with matplotlib (https://matplotlib.org/) -->
<svg height="288pt" version="1.1" viewBox="0 0 432 288" width="432pt" xmlns="http://www.w3.org/2000/svg" xmlns:xlink="http://www.w3.org/1999/xlink">
 <defs>
  <style type="text/css">
*{stroke-linecap:butt;stroke-linejoin:round;}
  </style>
 </defs>
 <g id="figure_1">
  <g id="patch_1">
   <path d="M 0 288 
L 432 288 
L 432 0 
L 0 0 
z
" style="fill:#ffffff;"/>
  </g>
  <g id="axes_1">
   <g id="patch_2">
    <path d="M 54 252 
L 388.8 252 
L 388.8 34.56 
L 54 34.56 
z
" style="fill:#ffffff;"/>
   </g>
   <g id="matplotlib.axis_1">
    <g id="xtick_1">
     <g id="line2d_1">
      <defs>
       <path d="M 0 0 
L 0 3.5 
" id="m305ce47030" style="stroke:#000000;stroke-width:0.8;"/>
      </defs>
      <g>
       <use style="stroke:#000000;stroke-width:0.8;" x="69.218182" xlink:href="#m305ce47030" y="252"/>
      </g>
     </g>
     <g id="text_1">
      <!-- 0 -->
      <defs>
       <path d="M 31.78125 66.40625 
Q 24.171875 66.40625 20.328125 58.90625 
Q 16.5 51.421875 16.5 36.375 
Q 16.5 21.390625 20.328125 13.890625 
Q 24.171875 6.390625 31.78125 6.390625 
Q 39.453125 6.390625 43.28125 13.890625 
Q 47.125 21.390625 47.125 36.375 
Q 47.125 51.421875 43.28125 58.90625 
Q 39.453125 66.40625 31.78125 66.40625 
z
M 31.78125 74.21875 
Q 44.046875 74.21875 50.515625 64.515625 
Q 56.984375 54.828125 56.984375 36.375 
Q 56.984375 17.96875 50.515625 8.265625 
Q 44.046875 -1.421875 31.78125 -1.421875 
Q 19.53125 -1.421875 13.0625 8.265625 
Q 6.59375 17.96875 6.59375 36.375 
Q 6.59375 54.828125 13.0625 64.515625 
Q 19.53125 74.21875 31.78125 74.21875 
z
" id="DejaVuSans-48"/>
      </defs>
      <g transform="translate(66.036932 266.598437)scale(0.1 -0.1)">
       <use xlink:href="#DejaVuSans-48"/>
      </g>
     </g>
    </g>
    <g id="xtick_2">
     <g id="line2d_2">
      <g>
       <use style="stroke:#000000;stroke-width:0.8;" x="116.115506" xlink:href="#m305ce47030" y="252"/>
      </g>
     </g>
     <g id="text_2">
      <!-- 200 -->
      <defs>
       <path d="M 19.1875 8.296875 
L 53.609375 8.296875 
L 53.609375 0 
L 7.328125 0 
L 7.328125 8.296875 
Q 12.9375 14.109375 22.625 23.890625 
Q 32.328125 33.6875 34.8125 36.53125 
Q 39.546875 41.84375 41.421875 45.53125 
Q 43.3125 49.21875 43.3125 52.78125 
Q 43.3125 58.59375 39.234375 62.25 
Q 35.15625 65.921875 28.609375 65.921875 
Q 23.96875 65.921875 18.8125 64.3125 
Q 13.671875 62.703125 7.8125 59.421875 
L 7.8125 69.390625 
Q 13.765625 71.78125 18.9375 73 
Q 24.125 74.21875 28.421875 74.21875 
Q 39.75 74.21875 46.484375 68.546875 
Q 53.21875 62.890625 53.21875 53.421875 
Q 53.21875 48.921875 51.53125 44.890625 
Q 49.859375 40.875 45.40625 35.40625 
Q 44.1875 33.984375 37.640625 27.21875 
Q 31.109375 20.453125 19.1875 8.296875 
z
" id="DejaVuSans-50"/>
      </defs>
      <g transform="translate(106.571756 266.598437)scale(0.1 -0.1)">
       <use xlink:href="#DejaVuSans-50"/>
       <use x="63.623047" xlink:href="#DejaVuSans-48"/>
       <use x="127.246094" xlink:href="#DejaVuSans-48"/>
      </g>
     </g>
    </g>
    <g id="xtick_3">
     <g id="line2d_3">
      <g>
       <use style="stroke:#000000;stroke-width:0.8;" x="163.012831" xlink:href="#m305ce47030" y="252"/>
      </g>
     </g>
     <g id="text_3">
      <!-- 400 -->
      <defs>
       <path d="M 37.796875 64.3125 
L 12.890625 25.390625 
L 37.796875 25.390625 
z
M 35.203125 72.90625 
L 47.609375 72.90625 
L 47.609375 25.390625 
L 58.015625 25.390625 
L 58.015625 17.1875 
L 47.609375 17.1875 
L 47.609375 0 
L 37.796875 0 
L 37.796875 17.1875 
L 4.890625 17.1875 
L 4.890625 26.703125 
z
" id="DejaVuSans-52"/>
      </defs>
      <g transform="translate(153.469081 266.598437)scale(0.1 -0.1)">
       <use xlink:href="#DejaVuSans-52"/>
       <use x="63.623047" xlink:href="#DejaVuSans-48"/>
       <use x="127.246094" xlink:href="#DejaVuSans-48"/>
      </g>
     </g>
    </g>
    <g id="xtick_4">
     <g id="line2d_4">
      <g>
       <use style="stroke:#000000;stroke-width:0.8;" x="209.910155" xlink:href="#m305ce47030" y="252"/>
      </g>
     </g>
     <g id="text_4">
      <!-- 600 -->
      <defs>
       <path d="M 33.015625 40.375 
Q 26.375 40.375 22.484375 35.828125 
Q 18.609375 31.296875 18.609375 23.390625 
Q 18.609375 15.53125 22.484375 10.953125 
Q 26.375 6.390625 33.015625 6.390625 
Q 39.65625 6.390625 43.53125 10.953125 
Q 47.40625 15.53125 47.40625 23.390625 
Q 47.40625 31.296875 43.53125 35.828125 
Q 39.65625 40.375 33.015625 40.375 
z
M 52.59375 71.296875 
L 52.59375 62.3125 
Q 48.875 64.0625 45.09375 64.984375 
Q 41.3125 65.921875 37.59375 65.921875 
Q 27.828125 65.921875 22.671875 59.328125 
Q 17.53125 52.734375 16.796875 39.40625 
Q 19.671875 43.65625 24.015625 45.921875 
Q 28.375 48.1875 33.59375 48.1875 
Q 44.578125 48.1875 50.953125 41.515625 
Q 57.328125 34.859375 57.328125 23.390625 
Q 57.328125 12.15625 50.6875 5.359375 
Q 44.046875 -1.421875 33.015625 -1.421875 
Q 20.359375 -1.421875 13.671875 8.265625 
Q 6.984375 17.96875 6.984375 36.375 
Q 6.984375 53.65625 15.1875 63.9375 
Q 23.390625 74.21875 37.203125 74.21875 
Q 40.921875 74.21875 44.703125 73.484375 
Q 48.484375 72.75 52.59375 71.296875 
z
" id="DejaVuSans-54"/>
      </defs>
      <g transform="translate(200.366405 266.598437)scale(0.1 -0.1)">
       <use xlink:href="#DejaVuSans-54"/>
       <use x="63.623047" xlink:href="#DejaVuSans-48"/>
       <use x="127.246094" xlink:href="#DejaVuSans-48"/>
      </g>
     </g>
    </g>
    <g id="xtick_5">
     <g id="line2d_5">
      <g>
       <use style="stroke:#000000;stroke-width:0.8;" x="256.80748" xlink:href="#m305ce47030" y="252"/>
      </g>
     </g>
     <g id="text_5">
      <!-- 800 -->
      <defs>
       <path d="M 31.78125 34.625 
Q 24.75 34.625 20.71875 30.859375 
Q 16.703125 27.09375 16.703125 20.515625 
Q 16.703125 13.921875 20.71875 10.15625 
Q 24.75 6.390625 31.78125 6.390625 
Q 38.8125 6.390625 42.859375 10.171875 
Q 46.921875 13.96875 46.921875 20.515625 
Q 46.921875 27.09375 42.890625 30.859375 
Q 38.875 34.625 31.78125 34.625 
z
M 21.921875 38.8125 
Q 15.578125 40.375 12.03125 44.71875 
Q 8.5 49.078125 8.5 55.328125 
Q 8.5 64.0625 14.71875 69.140625 
Q 20.953125 74.21875 31.78125 74.21875 
Q 42.671875 74.21875 48.875 69.140625 
Q 55.078125 64.0625 55.078125 55.328125 
Q 55.078125 49.078125 51.53125 44.71875 
Q 48 40.375 41.703125 38.8125 
Q 48.828125 37.15625 52.796875 32.3125 
Q 56.78125 27.484375 56.78125 20.515625 
Q 56.78125 9.90625 50.3125 4.234375 
Q 43.84375 -1.421875 31.78125 -1.421875 
Q 19.734375 -1.421875 13.25 4.234375 
Q 6.78125 9.90625 6.78125 20.515625 
Q 6.78125 27.484375 10.78125 32.3125 
Q 14.796875 37.15625 21.921875 38.8125 
z
M 18.3125 54.390625 
Q 18.3125 48.734375 21.84375 45.5625 
Q 25.390625 42.390625 31.78125 42.390625 
Q 38.140625 42.390625 41.71875 45.5625 
Q 45.3125 48.734375 45.3125 54.390625 
Q 45.3125 60.0625 41.71875 63.234375 
Q 38.140625 66.40625 31.78125 66.40625 
Q 25.390625 66.40625 21.84375 63.234375 
Q 18.3125 60.0625 18.3125 54.390625 
z
" id="DejaVuSans-56"/>
      </defs>
      <g transform="translate(247.26373 266.598437)scale(0.1 -0.1)">
       <use xlink:href="#DejaVuSans-56"/>
       <use x="63.623047" xlink:href="#DejaVuSans-48"/>
       <use x="127.246094" xlink:href="#DejaVuSans-48"/>
      </g>
     </g>
    </g>
    <g id="xtick_6">
     <g id="line2d_6">
      <g>
       <use style="stroke:#000000;stroke-width:0.8;" x="303.704805" xlink:href="#m305ce47030" y="252"/>
      </g>
     </g>
     <g id="text_6">
      <!-- 1000 -->
      <defs>
       <path d="M 12.40625 8.296875 
L 28.515625 8.296875 
L 28.515625 63.921875 
L 10.984375 60.40625 
L 10.984375 69.390625 
L 28.421875 72.90625 
L 38.28125 72.90625 
L 38.28125 8.296875 
L 54.390625 8.296875 
L 54.390625 0 
L 12.40625 0 
z
" id="DejaVuSans-49"/>
      </defs>
      <g transform="translate(290.979805 266.598437)scale(0.1 -0.1)">
       <use xlink:href="#DejaVuSans-49"/>
       <use x="63.623047" xlink:href="#DejaVuSans-48"/>
       <use x="127.246094" xlink:href="#DejaVuSans-48"/>
       <use x="190.869141" xlink:href="#DejaVuSans-48"/>
      </g>
     </g>
    </g>
    <g id="xtick_7">
     <g id="line2d_7">
      <g>
       <use style="stroke:#000000;stroke-width:0.8;" x="350.602129" xlink:href="#m305ce47030" y="252"/>
      </g>
     </g>
     <g id="text_7">
      <!-- 1200 -->
      <g transform="translate(337.877129 266.598437)scale(0.1 -0.1)">
       <use xlink:href="#DejaVuSans-49"/>
       <use x="63.623047" xlink:href="#DejaVuSans-50"/>
       <use x="127.246094" xlink:href="#DejaVuSans-48"/>
       <use x="190.869141" xlink:href="#DejaVuSans-48"/>
      </g>
     </g>
    </g>
   </g>
   <g id="matplotlib.axis_2">
    <g id="ytick_1">
     <g id="line2d_8">
      <defs>
       <path d="M 0 0 
L -3.5 0 
" id="m12af720173" style="stroke:#000000;stroke-width:0.8;"/>
      </defs>
      <g>
       <use style="stroke:#000000;stroke-width:0.8;" x="54" xlink:href="#m12af720173" y="239.061385"/>
      </g>
     </g>
     <g id="text_8">
      <!-- 0 -->
      <g transform="translate(40.6375 242.860604)scale(0.1 -0.1)">
       <use xlink:href="#DejaVuSans-48"/>
      </g>
     </g>
    </g>
    <g id="ytick_2">
     <g id="line2d_9">
      <g>
       <use style="stroke:#000000;stroke-width:0.8;" x="54" xlink:href="#m12af720173" y="212.761689"/>
      </g>
     </g>
     <g id="text_9">
      <!-- 25 -->
      <defs>
       <path d="M 10.796875 72.90625 
L 49.515625 72.90625 
L 49.515625 64.59375 
L 19.828125 64.59375 
L 19.828125 46.734375 
Q 21.96875 47.46875 24.109375 47.828125 
Q 26.265625 48.1875 28.421875 48.1875 
Q 40.625 48.1875 47.75 41.5 
Q 54.890625 34.8125 54.890625 23.390625 
Q 54.890625 11.625 47.5625 5.09375 
Q 40.234375 -1.421875 26.90625 -1.421875 
Q 22.3125 -1.421875 17.546875 -0.640625 
Q 12.796875 0.140625 7.71875 1.703125 
L 7.71875 11.625 
Q 12.109375 9.234375 16.796875 8.0625 
Q 21.484375 6.890625 26.703125 6.890625 
Q 35.15625 6.890625 40.078125 11.328125 
Q 45.015625 15.765625 45.015625 23.390625 
Q 45.015625 31 40.078125 35.4375 
Q 35.15625 39.890625 26.703125 39.890625 
Q 22.75 39.890625 18.8125 39.015625 
Q 14.890625 38.140625 10.796875 36.28125 
z
" id="DejaVuSans-53"/>
      </defs>
      <g transform="translate(34.275 216.560908)scale(0.1 -0.1)">
       <use xlink:href="#DejaVuSans-50"/>
       <use x="63.623047" xlink:href="#DejaVuSans-53"/>
      </g>
     </g>
    </g>
    <g id="ytick_3">
     <g id="line2d_10">
      <g>
       <use style="stroke:#000000;stroke-width:0.8;" x="54" xlink:href="#m12af720173" y="186.461994"/>
      </g>
     </g>
     <g id="text_10">
      <!-- 50 -->
      <g transform="translate(34.275 190.261212)scale(0.1 -0.1)">
       <use xlink:href="#DejaVuSans-53"/>
       <use x="63.623047" xlink:href="#DejaVuSans-48"/>
      </g>
     </g>
    </g>
    <g id="ytick_4">
     <g id="line2d_11">
      <g>
       <use style="stroke:#000000;stroke-width:0.8;" x="54" xlink:href="#m12af720173" y="160.162298"/>
      </g>
     </g>
     <g id="text_11">
      <!-- 75 -->
      <defs>
       <path d="M 8.203125 72.90625 
L 55.078125 72.90625 
L 55.078125 68.703125 
L 28.609375 0 
L 18.3125 0 
L 43.21875 64.59375 
L 8.203125 64.59375 
z
" id="DejaVuSans-55"/>
      </defs>
      <g transform="translate(34.275 163.961517)scale(0.1 -0.1)">
       <use xlink:href="#DejaVuSans-55"/>
       <use x="63.623047" xlink:href="#DejaVuSans-53"/>
      </g>
     </g>
    </g>
    <g id="ytick_5">
     <g id="line2d_12">
      <g>
       <use style="stroke:#000000;stroke-width:0.8;" x="54" xlink:href="#m12af720173" y="133.862602"/>
      </g>
     </g>
     <g id="text_12">
      <!-- 100 -->
      <g transform="translate(27.9125 137.661821)scale(0.1 -0.1)">
       <use xlink:href="#DejaVuSans-49"/>
       <use x="63.623047" xlink:href="#DejaVuSans-48"/>
       <use x="127.246094" xlink:href="#DejaVuSans-48"/>
      </g>
     </g>
    </g>
    <g id="ytick_6">
     <g id="line2d_13">
      <g>
       <use style="stroke:#000000;stroke-width:0.8;" x="54" xlink:href="#m12af720173" y="107.562906"/>
      </g>
     </g>
     <g id="text_13">
      <!-- 125 -->
      <g transform="translate(27.9125 111.362125)scale(0.1 -0.1)">
       <use xlink:href="#DejaVuSans-49"/>
       <use x="63.623047" xlink:href="#DejaVuSans-50"/>
       <use x="127.246094" xlink:href="#DejaVuSans-53"/>
      </g>
     </g>
    </g>
    <g id="ytick_7">
     <g id="line2d_14">
      <g>
       <use style="stroke:#000000;stroke-width:0.8;" x="54" xlink:href="#m12af720173" y="81.26321"/>
      </g>
     </g>
     <g id="text_14">
      <!-- 150 -->
      <g transform="translate(27.9125 85.062429)scale(0.1 -0.1)">
       <use xlink:href="#DejaVuSans-49"/>
       <use x="63.623047" xlink:href="#DejaVuSans-53"/>
       <use x="127.246094" xlink:href="#DejaVuSans-48"/>
      </g>
     </g>
    </g>
    <g id="ytick_8">
     <g id="line2d_15">
      <g>
       <use style="stroke:#000000;stroke-width:0.8;" x="54" xlink:href="#m12af720173" y="54.963515"/>
      </g>
     </g>
     <g id="text_15">
      <!-- 175 -->
      <g transform="translate(27.9125 58.762733)scale(0.1 -0.1)">
       <use xlink:href="#DejaVuSans-49"/>
       <use x="63.623047" xlink:href="#DejaVuSans-55"/>
       <use x="127.246094" xlink:href="#DejaVuSans-53"/>
      </g>
     </g>
    </g>
   </g>
   <g id="line2d_16">
    <path clip-path="url(#p447f9c9ace)" d="M 69.218182 238.009397 
L 69.452668 235.905422 
L 69.687155 231.69747 
L 69.921642 239.061385 
L 70.156128 239.061385 
L 70.390615 238.009397 
L 70.625102 229.593495 
L 70.859588 215.917653 
L 71.094075 230.645483 
L 71.328561 221.177592 
L 71.563048 225.385543 
L 72.032021 239.061385 
L 72.266508 238.009397 
L 72.500995 233.801446 
L 72.735481 236.95741 
L 73.204454 225.385543 
L 73.438941 238.009397 
L 73.673428 239.061385 
L 73.907914 236.95741 
L 74.142401 231.69747 
L 74.376888 233.801446 
L 74.611374 211.709702 
L 74.845861 226.437531 
L 75.080347 99.147004 
L 75.314834 236.95741 
L 75.549321 235.905422 
L 75.783807 226.437531 
L 76.018294 236.95741 
L 76.252781 239.061385 
L 76.721754 239.061385 
L 76.95624 208.553738 
L 77.190727 228.541507 
L 77.425214 232.749458 
L 77.6597 216.969641 
L 77.894187 239.061385 
L 78.128673 205.397775 
L 78.36316 233.801446 
L 78.597647 227.489519 
L 78.832133 239.061385 
L 79.06662 225.385543 
L 79.301107 195.929884 
L 79.535593 233.801446 
L 80.239053 135.966578 
L 80.47354 205.397775 
L 80.708026 238.009397 
L 80.942513 233.801446 
L 81.177 233.801446 
L 81.411486 239.061385 
L 81.645973 239.061385 
L 81.880459 236.95741 
L 82.114946 222.22958 
L 82.349433 216.969641 
L 82.583919 236.95741 
L 82.818406 234.853434 
L 83.052893 239.061385 
L 83.287379 218.021629 
L 83.521866 216.969641 
L 83.756352 232.749458 
L 83.990839 239.061385 
L 84.694299 239.061385 
L 84.928786 236.95741 
L 85.163272 239.061385 
L 85.397759 239.061385 
L 85.632245 206.449762 
L 85.866732 239.061385 
L 86.101219 211.709702 
L 86.570192 239.061385 
L 86.804679 239.061385 
L 87.039165 236.95741 
L 87.273652 239.061385 
L 87.508138 235.905422 
L 87.742625 239.061385 
L 88.211598 239.061385 
L 88.446085 213.813677 
L 88.680572 239.061385 
L 88.915058 238.009397 
L 89.149545 238.009397 
L 89.384031 222.22958 
L 89.618518 214.865665 
L 89.853005 195.929884 
L 90.087491 239.061385 
L 90.321978 227.489519 
L 90.556464 196.981872 
L 90.790951 230.645483 
L 91.025438 214.865665 
L 91.259924 235.905422 
L 91.494411 235.905422 
L 91.728898 234.853434 
L 91.963384 205.397775 
L 92.197871 230.645483 
L 92.432357 239.061385 
L 93.370304 239.061385 
L 93.604791 238.009397 
L 93.839277 239.061385 
L 94.777224 239.061385 
L 95.01171 238.009397 
L 95.246197 238.009397 
L 95.480684 234.853434 
L 95.71517 239.061385 
L 95.949657 239.061385 
L 96.184143 233.801446 
L 96.41863 180.150067 
L 96.653117 239.061385 
L 122.915618 239.061385 
L 123.150105 222.22958 
L 123.384592 239.061385 
L 131.591623 239.061385 
L 131.82611 226.437531 
L 132.060597 239.061385 
L 132.295083 236.95741 
L 132.52957 239.061385 
L 134.874436 239.061385 
L 135.108923 235.905422 
L 135.343409 235.905422 
L 135.577896 239.061385 
L 139.564169 239.061385 
L 139.798655 236.95741 
L 140.033142 239.061385 
L 140.502115 239.061385 
L 140.736602 238.009397 
L 140.971088 239.061385 
L 141.205575 239.061385 
L 141.440062 227.489519 
L 141.674548 239.061385 
L 141.909035 224.333556 
L 142.143522 238.009397 
L 142.378008 239.061385 
L 143.550441 239.061385 
L 143.784928 226.437531 
L 144.019414 239.061385 
L 144.253901 239.061385 
L 144.722874 228.541507 
L 144.957361 239.061385 
L 146.598767 239.061385 
L 146.833254 222.22958 
L 147.067741 229.593495 
L 147.302227 207.50175 
L 147.536714 235.905422 
L 147.7712 222.22958 
L 148.005687 238.009397 
L 148.240174 239.061385 
L 148.47466 236.95741 
L 148.709147 212.761689 
L 148.943634 239.061385 
L 149.17812 235.905422 
L 149.412607 239.061385 
L 149.647093 235.905422 
L 149.88158 239.061385 
L 150.819527 239.061385 
L 151.054013 235.905422 
L 151.2885 239.061385 
L 151.522986 232.749458 
L 151.757473 239.061385 
L 152.226446 239.061385 
L 152.460933 174.890127 
L 152.69542 230.645483 
L 152.929906 132.810614 
L 153.164393 200.137835 
L 153.633366 153.850371 
L 153.867853 235.905422 
L 154.102339 216.969641 
L 154.336826 233.801446 
L 154.805799 223.281568 
L 155.040286 227.489519 
L 155.274772 214.865665 
L 155.509259 239.061385 
L 155.743746 236.95741 
L 155.978232 228.541507 
L 156.212719 207.50175 
L 156.447205 227.489519 
L 156.681692 236.95741 
L 156.916179 144.38248 
L 157.150665 239.061385 
L 157.619639 239.061385 
L 157.854125 231.69747 
L 158.088612 230.645483 
L 158.557585 239.061385 
L 158.792072 239.061385 
L 159.026558 235.905422 
L 159.261045 215.917653 
L 159.495532 215.917653 
L 159.730018 236.95741 
L 159.964505 235.905422 
L 160.667965 224.333556 
L 161.136938 239.061385 
L 161.371425 223.281568 
L 161.605911 235.905422 
L 161.840398 234.853434 
L 162.074884 239.061385 
L 162.309371 231.69747 
L 162.543858 232.749458 
L 162.778344 230.645483 
L 163.012831 227.489519 
L 163.247318 233.801446 
L 163.481804 232.749458 
L 163.716291 214.865665 
L 164.185264 238.009397 
L 164.419751 219.073616 
L 164.654237 238.009397 
L 164.888724 225.385543 
L 165.123211 238.009397 
L 165.357697 239.061385 
L 165.592184 229.593495 
L 165.82667 203.293799 
L 166.061157 160.162298 
L 166.53013 213.813677 
L 166.764617 176.994103 
L 166.999104 225.385543 
L 167.23359 238.009397 
L 167.468077 228.541507 
L 167.702563 189.617957 
L 167.93705 225.385543 
L 168.171537 239.061385 
L 168.406023 224.333556 
L 168.64051 222.22958 
L 168.874996 236.95741 
L 169.109483 239.061385 
L 169.34397 230.645483 
L 169.578456 236.95741 
L 169.812943 239.061385 
L 170.04743 207.50175 
L 170.516403 233.801446 
L 170.750889 239.061385 
L 170.985376 239.061385 
L 171.219863 236.95741 
L 171.454349 230.645483 
L 171.688836 239.061385 
L 172.392296 239.061385 
L 172.626782 238.009397 
L 172.861269 176.994103 
L 173.330242 239.061385 
L 173.564729 238.009397 
L 173.799216 238.009397 
L 174.033702 239.061385 
L 174.268189 239.061385 
L 174.502675 218.021629 
L 174.737162 176.994103 
L 175.206135 235.905422 
L 175.440622 223.281568 
L 175.675109 239.061385 
L 175.909595 230.645483 
L 176.144082 233.801446 
L 176.378568 231.69747 
L 176.613055 239.061385 
L 179.192408 239.061385 
L 179.426895 238.009397 
L 179.661381 239.061385 
L 179.895868 236.95741 
L 180.130354 216.969641 
L 180.364841 227.489519 
L 180.599328 223.281568 
L 180.833814 239.061385 
L 183.88214 239.061385 
L 184.116627 238.009397 
L 184.351114 239.061385 
L 199.358257 239.061385 
L 199.592744 238.009397 
L 199.827231 239.061385 
L 209.910155 239.061385 
L 210.144642 233.801446 
L 210.379129 239.061385 
L 210.848102 239.061385 
L 211.082589 233.801446 
L 211.317075 239.061385 
L 214.365401 239.061385 
L 214.599888 238.009397 
L 214.834375 224.333556 
L 215.068861 234.853434 
L 215.303348 239.061385 
L 219.524107 239.061385 
L 219.758594 219.073616 
L 219.99308 239.061385 
L 220.462054 239.061385 
L 220.69654 234.853434 
L 220.931027 239.061385 
L 221.165513 239.061385 
L 221.4 238.009397 
L 221.634487 239.061385 
L 222.10346 231.69747 
L 222.337946 208.553738 
L 222.572433 239.061385 
L 222.80692 218.021629 
L 223.041406 239.061385 
L 226.089732 239.061385 
L 226.324219 236.95741 
L 226.558706 216.969641 
L 226.793192 239.061385 
L 227.027679 233.801446 
L 227.262166 239.061385 
L 227.496652 232.749458 
L 227.731139 236.95741 
L 227.965625 239.061385 
L 228.434599 239.061385 
L 228.669085 218.021629 
L 228.903572 239.061385 
L 229.841518 239.061385 
L 230.076005 231.69747 
L 230.310492 239.061385 
L 230.544978 227.489519 
L 230.779465 239.061385 
L 231.013952 223.281568 
L 231.482925 239.061385 
L 232.186385 239.061385 
L 232.420871 235.905422 
L 232.655358 239.061385 
L 233.827791 239.061385 
L 234.062278 226.437531 
L 234.296764 239.061385 
L 235.938171 239.061385 
L 236.172657 235.905422 
L 236.407144 238.009397 
L 236.64163 239.061385 
L 236.876117 238.009397 
L 237.110604 239.061385 
L 237.814064 239.061385 
L 238.04855 238.009397 
L 238.283037 171.734164 
L 238.517523 236.95741 
L 238.75201 195.929884 
L 238.986497 222.22958 
L 239.220983 225.385543 
L 239.689957 238.009397 
L 239.924443 239.061385 
L 240.15893 239.061385 
L 240.393416 238.009397 
L 240.627903 198.03386 
L 240.86239 111.770858 
L 241.096876 189.617957 
L 241.331363 157.006334 
L 241.56585 67.587369 
L 242.034823 211.709702 
L 242.269309 238.009397 
L 242.503796 239.061385 
L 242.738283 239.061385 
L 242.972769 232.749458 
L 243.207256 238.009397 
L 243.441743 222.22958 
L 243.676229 239.061385 
L 243.910716 238.009397 
L 244.145202 160.162298 
L 244.379689 239.061385 
L 244.614176 130.706639 
L 244.848662 138.070553 
L 245.083149 193.825908 
L 245.552122 235.905422 
L 245.786609 232.749458 
L 246.021095 239.061385 
L 246.255582 239.061385 
L 246.490069 211.709702 
L 246.724555 224.333556 
L 247.193529 204.345787 
L 247.428015 221.177592 
L 247.662502 225.385543 
L 247.896988 236.95741 
L 248.131475 222.22958 
L 248.365962 232.749458 
L 248.600448 209.605726 
L 248.834935 225.385543 
L 249.069421 204.345787 
L 249.303908 170.682176 
L 249.538395 190.669945 
L 249.772881 224.333556 
L 250.007368 214.865665 
L 250.241855 214.865665 
L 250.476341 130.706639 
L 250.710828 222.22958 
L 250.945314 229.593495 
L 251.179801 230.645483 
L 251.414288 239.061385 
L 252.352234 239.061385 
L 252.586721 218.021629 
L 252.821207 225.385543 
L 253.055694 236.95741 
L 253.290181 234.853434 
L 253.524667 235.905422 
L 253.759154 215.917653 
L 253.993641 160.162298 
L 254.228127 227.489519 
L 254.462614 198.03386 
L 254.6971 234.853434 
L 254.931587 224.333556 
L 255.166074 238.009397 
L 255.40056 238.009397 
L 255.635047 230.645483 
L 255.869534 239.061385 
L 256.338507 239.061385 
L 256.572993 235.905422 
L 256.80748 223.281568 
L 257.041967 222.22958 
L 257.276453 232.749458 
L 257.51094 234.853434 
L 257.745427 223.281568 
L 257.979913 192.773921 
L 258.2144 238.009397 
L 258.448886 239.061385 
L 258.683373 236.95741 
L 258.91786 239.061385 
L 259.152346 239.061385 
L 259.386833 232.749458 
L 259.855806 239.061385 
L 260.090293 235.905422 
L 260.324779 239.061385 
L 260.559266 235.905422 
L 260.793753 239.061385 
L 261.262726 199.085848 
L 261.497212 239.061385 
L 261.731699 239.061385 
L 261.966186 176.994103 
L 262.200672 155.954346 
L 262.435159 221.177592 
L 262.669646 193.825908 
L 262.904132 202.241811 
L 263.138619 238.009397 
L 263.373105 239.061385 
L 265.952458 239.061385 
L 266.186945 236.95741 
L 266.421432 223.281568 
L 266.655918 130.706639 
L 266.890405 239.061385 
L 267.124891 233.801446 
L 267.359378 184.358018 
L 267.593865 239.061385 
L 268.062838 239.061385 
L 268.297325 238.009397 
L 268.531811 239.061385 
L 271.814624 239.061385 
L 272.049111 232.749458 
L 272.283597 239.061385 
L 283.304468 239.061385 
L 283.538955 236.95741 
L 283.773442 239.061385 
L 291.042527 239.061385 
L 291.277014 238.009397 
L 291.5115 238.009397 
L 291.745987 239.061385 
L 296.435719 239.061385 
L 296.670206 234.853434 
L 296.904693 239.061385 
L 299.015072 239.061385 
L 299.249559 238.009397 
L 299.484045 212.761689 
L 299.718532 238.009397 
L 299.953019 239.061385 
L 305.580698 239.061385 
L 305.815184 231.69747 
L 306.049671 239.061385 
L 307.456591 239.061385 
L 307.691077 221.177592 
L 307.925564 239.061385 
L 308.16005 239.061385 
L 308.394537 208.553738 
L 308.629024 234.853434 
L 308.86351 239.061385 
L 314.725676 239.061385 
L 314.960162 238.009397 
L 315.194649 239.061385 
L 315.663622 239.061385 
L 315.898109 234.853434 
L 316.132596 233.801446 
L 316.367082 239.061385 
L 317.070542 239.061385 
L 317.305029 212.761689 
L 317.539515 239.061385 
L 318.242975 239.061385 
L 318.477462 235.905422 
L 318.711948 204.345787 
L 318.946435 239.061385 
L 319.415408 239.061385 
L 319.649895 231.69747 
L 319.884382 230.645483 
L 320.118868 205.397775 
L 320.353355 60.223454 
L 320.822328 239.061385 
L 321.056815 239.061385 
L 321.291301 228.541507 
L 321.525788 204.345787 
L 321.760275 239.061385 
L 321.994761 231.69747 
L 322.229248 186.461994 
L 322.463734 239.061385 
L 322.698221 225.385543 
L 322.932708 238.009397 
L 323.167194 239.061385 
L 323.636168 239.061385 
L 323.870654 223.281568 
L 324.105141 184.358018 
L 324.339627 233.801446 
L 324.574114 230.645483 
L 324.808601 212.761689 
L 325.043087 232.749458 
L 325.277574 239.061385 
L 325.512061 161.214286 
L 325.746547 178.046091 
L 325.981034 234.853434 
L 326.21552 209.605726 
L 326.450007 239.061385 
L 326.684494 221.177592 
L 326.91898 238.009397 
L 327.153467 212.761689 
L 327.387953 238.009397 
L 327.62244 236.95741 
L 327.856927 236.95741 
L 328.091413 239.061385 
L 329.02936 239.061385 
L 329.263846 236.95741 
L 329.498333 238.009397 
L 329.73282 238.009397 
L 329.967306 239.061385 
L 330.201793 238.009397 
L 330.670766 201.189823 
L 330.905253 191.721933 
L 331.139739 176.994103 
L 331.374226 238.009397 
L 331.608713 225.385543 
L 331.843199 239.061385 
L 332.077686 228.541507 
L 332.312173 234.853434 
L 332.546659 238.009397 
L 333.015632 228.541507 
L 333.250119 231.69747 
L 333.484606 236.95741 
L 333.719092 213.813677 
L 333.953579 212.761689 
L 334.188066 219.073616 
L 334.422552 228.541507 
L 334.657039 226.437531 
L 334.891525 239.061385 
L 335.360499 233.801446 
L 335.594985 227.489519 
L 335.829472 238.009397 
L 336.063959 232.749458 
L 336.298445 238.009397 
L 336.532932 221.177592 
L 336.767418 239.061385 
L 337.001905 214.865665 
L 337.236392 233.801446 
L 337.470878 169.630188 
L 337.705365 221.177592 
L 337.939852 234.853434 
L 338.174338 232.749458 
L 338.408825 238.009397 
L 338.643311 226.437531 
L 338.877798 226.437531 
L 339.112285 238.009397 
L 339.346771 229.593495 
L 339.581258 202.241811 
L 339.815745 211.709702 
L 340.050231 230.645483 
L 340.284718 238.009397 
L 340.519204 239.061385 
L 340.988178 239.061385 
L 341.222664 226.437531 
L 341.457151 198.03386 
L 341.691637 229.593495 
L 341.926124 239.061385 
L 342.395097 44.443636 
L 342.629584 236.95741 
L 342.864071 239.061385 
L 343.098557 239.061385 
L 343.333044 238.009397 
L 343.56753 231.69747 
L 343.802017 238.009397 
L 344.036504 230.645483 
L 344.27099 239.061385 
L 344.505477 238.009397 
L 344.739964 231.69747 
L 345.208937 238.009397 
L 345.443423 239.061385 
L 345.67791 190.669945 
L 345.912397 225.385543 
L 346.146883 238.009397 
L 346.38137 239.061385 
L 347.08483 239.061385 
L 347.319316 170.682176 
L 347.553803 238.009397 
L 347.78829 238.009397 
L 348.022776 239.061385 
L 348.49175 239.061385 
L 348.726236 238.009397 
L 348.960723 239.061385 
L 349.195209 239.061385 
L 349.429696 231.69747 
L 349.664183 189.617957 
L 349.898669 239.061385 
L 350.133156 215.917653 
L 350.367643 233.801446 
L 350.602129 238.009397 
L 350.836616 200.137835 
L 351.071102 226.437531 
L 351.540076 238.009397 
L 351.774562 239.061385 
L 352.009049 238.009397 
L 352.243536 239.061385 
L 352.712509 239.061385 
L 352.946995 234.853434 
L 353.181482 220.125604 
L 353.415969 188.565969 
L 353.650455 236.95741 
L 353.884942 228.541507 
L 354.119428 229.593495 
L 354.353915 194.877896 
L 354.588402 201.189823 
L 354.822888 239.061385 
L 357.871214 239.061385 
L 358.105701 238.009397 
L 358.340188 238.009397 
L 358.574674 239.061385 
L 358.809161 238.009397 
L 359.043648 239.061385 
L 359.981594 239.061385 
L 360.216081 218.021629 
L 360.450567 84.419174 
L 360.685054 232.749458 
L 360.919541 239.061385 
L 373.581818 239.061385 
L 373.581818 239.061385 
" style="fill:none;stroke:#1f77b4;stroke-linecap:square;stroke-width:1.5;"/>
   </g>
   <g id="line2d_17">
    <path clip-path="url(#p447f9c9ace)" d="M 69.218182 228.842111 
L 69.687155 231.775953 
L 69.921642 231.541053 
L 70.156128 230.932255 
L 70.390615 232.203749 
L 70.625102 231.943482 
L 70.859588 229.196095 
L 71.094075 223.535835 
L 71.328561 227.643842 
L 71.563048 228.204959 
L 71.797535 227.130462 
L 72.032021 229.512994 
L 72.266508 235.370924 
L 72.500995 235.369773 
L 72.735481 234.471422 
L 72.969968 234.352643 
L 73.204454 233.550626 
L 73.438941 231.590658 
L 73.907914 234.650352 
L 74.142401 233.770471 
L 74.611374 231.613787 
L 74.845861 224.17488 
L 75.080347 228.686157 
L 75.314834 187.578832 
L 75.549321 222.042928 
L 75.783807 225.149188 
L 76.018294 224.447931 
L 76.252781 228.387483 
L 76.487267 230.163136 
L 76.721754 233.912274 
L 76.95624 234.238809 
L 77.190727 221.219728 
L 77.425214 224.894289 
L 77.6597 231.271154 
L 77.894187 224.998283 
L 78.128673 229.238272 
L 78.36316 216.430687 
L 78.597647 225.176455 
L 78.832133 224.607041 
L 79.06662 222.696346 
L 79.301107 232.202179 
L 79.535593 221.839493 
L 79.77008 228.778627 
L 80.004566 221.620234 
L 80.47354 192.290531 
L 80.942513 217.958211 
L 81.177 223.011397 
L 81.411486 222.456608 
L 81.645973 226.013046 
L 81.880459 231.487944 
L 82.583919 218.229575 
L 82.818406 230.529587 
L 83.052893 225.592946 
L 83.287379 228.88687 
L 83.521866 222.649107 
L 83.756352 219.545005 
L 84.225326 226.746834 
L 84.459812 234.243016 
L 84.694299 236.743067 
L 84.928786 235.719201 
L 85.397759 238.039793 
L 85.632245 235.446389 
L 85.866732 226.290032 
L 86.101219 232.259978 
L 86.335705 225.957491 
L 86.804679 231.18109 
L 87.039165 231.875312 
L 87.273652 230.475291 
L 87.508138 234.871031 
L 87.742625 234.247925 
L 87.977112 235.509301 
L 88.211598 235.630264 
L 88.446085 236.880183 
L 88.680572 229.681646 
L 88.915058 234.340575 
L 89.149545 234.129452 
L 89.384031 233.207698 
L 89.618518 227.125733 
L 89.853005 227.353378 
L 90.087491 218.565875 
L 90.321978 231.236275 
L 90.556464 229.315967 
L 90.790951 218.790842 
L 91.025438 228.157294 
L 91.259924 224.370886 
L 91.494411 230.407335 
L 91.728898 230.412731 
L 91.963384 230.033429 
L 92.197871 221.876918 
L 92.432357 228.102614 
L 92.666844 231.26408 
L 93.135817 230.685773 
L 93.839277 233.282626 
L 94.073764 235.413661 
L 94.30825 233.246465 
L 94.542737 233.755105 
L 94.777224 237.626866 
L 95.01171 236.525211 
L 95.246197 236.770926 
L 95.480684 236.540465 
L 95.71517 235.661563 
L 95.949657 235.259827 
L 96.184143 238.518361 
L 96.41863 236.364551 
L 96.653117 219.354119 
L 96.887603 232.483131 
L 97.12209 233.906067 
L 97.356577 234.076609 
L 97.82555 235.192324 
L 98.060036 237.780869 
L 98.294523 237.734421 
L 98.52901 234.486599 
L 98.763496 235.050788 
L 99.23247 237.660054 
L 99.701443 235.438254 
L 99.935929 235.570618 
L 100.170416 235.905148 
L 100.404903 233.903202 
L 100.639389 239.906871 
L 101.108363 237.887962 
L 101.342849 238.10879 
L 101.577336 238.651404 
L 101.811822 238.626727 
L 102.280796 238.366563 
L 102.515282 238.404845 
L 102.984255 237.961402 
L 103.218742 237.843252 
L 103.453229 237.585535 
L 103.687715 238.097717 
L 103.922202 237.600041 
L 104.156689 238.248746 
L 104.391175 236.911216 
L 104.625662 239.052039 
L 104.860148 238.2639 
L 105.094635 238.275459 
L 105.563608 237.857757 
L 106.267068 238.172776 
L 123.150105 238.172776 
L 123.384592 232.884599 
L 123.619078 236.823429 
L 125.025998 238.181072 
L 125.260485 237.561463 
L 125.494971 237.3404 
L 125.729458 238.074327 
L 125.963945 238.076167 
L 126.198431 237.949025 
L 126.432918 237.461769 
L 126.667404 237.712239 
L 126.901891 237.588531 
L 127.136378 236.881523 
L 127.370864 238.625431 
L 127.839838 238.141128 
L 129.246757 238.254079 
L 129.950217 238.08969 
L 130.184704 238.029306 
L 130.41919 238.147249 
L 130.653677 238.002157 
L 130.888164 238.228042 
L 131.12265 237.793644 
L 131.357137 238.428606 
L 131.591623 238.199591 
L 131.82611 238.204277 
L 132.060597 234.182413 
L 132.295083 237.075251 
L 132.52957 236.610628 
L 132.764057 237.362347 
L 133.23303 237.663611 
L 133.702003 238.111964 
L 133.93649 237.691395 
L 134.170976 237.549531 
L 134.405463 238.022525 
L 134.874436 237.992656 
L 135.108923 237.627445 
L 135.343409 236.807871 
L 135.577896 236.40118 
L 135.812383 236.681058 
L 136.046869 238.066089 
L 136.281356 237.86786 
L 137.219302 238.150163 
L 137.453789 237.986081 
L 138.157249 238.112931 
L 138.626222 237.889657 
L 139.329682 237.869641 
L 139.564169 238.336139 
L 139.798655 237.901397 
L 140.033142 237.705409 
L 140.502115 238.13436 
L 140.736602 238.090255 
L 140.971088 237.713446 
L 141.205575 238.006495 
L 141.440062 238.081823 
L 141.674548 234.470319 
L 141.909035 237.098714 
L 142.143522 232.585649 
L 142.378008 236.017865 
L 142.846981 236.89666 
L 143.081468 237.119774 
L 143.315955 237.574403 
L 143.784928 237.431872 
L 144.019414 233.618086 
L 144.253901 236.305271 
L 144.488388 236.964014 
L 144.957361 233.312406 
L 145.191848 235.492425 
L 145.426334 235.679561 
L 145.660821 237.134744 
L 145.895307 236.032959 
L 146.364281 238.207905 
L 146.598767 237.947916 
L 146.833254 237.382115 
L 147.067741 231.970327 
L 147.302227 233.534385 
L 147.536714 225.924942 
L 147.7712 231.774902 
L 148.005687 229.059248 
L 148.240174 233.294219 
L 148.709147 234.587771 
L 148.943634 228.091117 
L 149.17812 234.357548 
L 149.412607 233.01311 
L 149.647093 234.964056 
L 149.88158 234.347092 
L 150.350553 236.156658 
L 150.58504 235.501118 
L 150.819527 233.974694 
L 151.054013 234.466435 
L 151.2885 234.070149 
L 151.522986 237.601551 
L 151.757473 234.167772 
L 151.99196 236.765803 
L 152.226446 237.125348 
L 152.460933 236.83419 
L 152.69542 215.800038 
L 152.929906 231.220416 
L 153.164393 199.889463 
L 153.398879 213.601462 
L 153.867853 195.534802 
L 154.102339 218.088893 
L 154.336826 216.245044 
L 154.571313 222.304669 
L 154.805799 221.984335 
L 155.040286 222.385177 
L 155.274772 222.338106 
L 155.509259 221.247416 
L 155.978232 225.940073 
L 156.212719 222.663182 
L 156.447205 213.105328 
L 156.681692 221.311699 
L 156.916179 218.830494 
L 157.150665 198.854363 
L 157.385152 220.003486 
L 157.619639 223.518208 
L 157.854125 233.948447 
L 158.088612 229.947189 
L 158.323098 229.988509 
L 158.557585 232.267137 
L 158.792072 235.832823 
L 159.730018 226.441567 
L 159.964505 228.473028 
L 160.198991 226.422694 
L 160.433478 226.847742 
L 160.667965 228.626736 
L 160.902451 220.787077 
L 161.136938 234.881172 
L 161.371425 234.800211 
L 161.605911 227.188688 
L 161.840398 233.128951 
L 162.074884 233.306425 
L 162.309371 235.758648 
L 162.543858 232.298855 
L 162.778344 231.005976 
L 163.012831 231.124647 
L 163.247318 228.792811 
L 163.481804 231.850051 
L 163.716291 232.031152 
L 163.950777 225.75634 
L 164.185264 227.304592 
L 164.419751 231.356393 
L 164.654237 227.434716 
L 164.888724 230.835855 
L 165.123211 231.063644 
L 165.357697 232.694941 
L 165.592184 235.268758 
L 165.82667 231.681439 
L 166.061157 222.171673 
L 166.295644 206.607661 
L 166.764617 216.173296 
L 166.999104 204.481789 
L 167.468077 224.049359 
L 167.702563 223.950396 
L 167.93705 213.905085 
L 168.171537 220.789605 
L 168.406023 224.068298 
L 168.64051 225.221586 
L 168.874996 222.615461 
L 169.109483 226.814838 
L 169.34397 228.625817 
L 170.04743 223.634251 
L 170.281916 221.948378 
L 170.516403 226.947582 
L 170.750889 225.872433 
L 170.985376 232.307779 
L 171.219863 234.709345 
L 171.454349 232.966205 
L 171.688836 229.544066 
L 171.923323 237.181784 
L 172.157809 237.531424 
L 172.392296 233.759075 
L 172.861269 236.773804 
L 173.095756 217.37744 
L 173.330242 220.440133 
L 173.564729 228.401772 
L 173.799216 229.514641 
L 174.033702 228.839117 
L 174.502675 236.831279 
L 174.737162 229.773986 
L 174.971649 214.53413 
L 175.206135 215.966084 
L 175.440622 226.35911 
L 175.675109 225.148331 
L 175.909595 230.512431 
L 176.144082 227.54113 
L 176.378568 229.889887 
L 176.613055 229.61476 
L 176.847542 226.858048 
L 177.316515 236.208456 
L 177.551002 235.808703 
L 178.019975 233.803704 
L 178.254461 234.381107 
L 178.723435 232.089348 
L 178.957921 237.124598 
L 179.192408 238.505442 
L 179.426895 236.341922 
L 179.661381 237.373056 
L 179.895868 237.235052 
L 180.130354 237.448267 
L 180.364841 230.661394 
L 180.599328 233.271227 
L 180.833814 229.957118 
L 181.068301 235.378754 
L 181.302788 235.928172 
L 181.537274 235.882491 
L 181.771761 236.114022 
L 182.006247 236.583254 
L 182.475221 235.815807 
L 182.709707 235.754982 
L 183.17868 238.12855 
L 183.413167 236.532893 
L 183.647654 236.899775 
L 183.88214 235.632211 
L 184.116627 235.401299 
L 184.351114 236.816143 
L 184.5856 237.521647 
L 184.820087 238.602555 
L 185.054573 238.290272 
L 185.28906 238.231262 
L 185.758033 238.47224 
L 186.227007 238.357697 
L 186.930466 237.997093 
L 187.39944 237.873283 
L 187.633926 237.7909 
L 187.868413 238.021851 
L 188.1029 237.506451 
L 188.337386 238.329841 
L 188.571873 238.040422 
L 188.806359 238.464248 
L 189.040846 238.177351 
L 189.509819 238.032749 
L 191.385712 238.171181 
L 194.199552 238.172776 
L 199.592744 238.172776 
L 199.827231 237.842265 
L 200.061717 238.088442 
L 202.64107 238.158791 
L 203.579017 238.092073 
L 203.813503 238.201067 
L 205.923883 238.172206 
L 210.144642 238.172776 
L 210.379129 236.520221 
L 210.613615 237.751105 
L 211.082589 237.905376 
L 211.317075 236.280231 
L 211.551562 237.583519 
L 212.020535 237.907968 
L 212.255022 237.741751 
L 212.489508 237.745073 
L 212.723995 238.084771 
L 212.958482 238.145178 
L 213.427455 237.690469 
L 213.661941 237.998093 
L 213.896428 237.960009 
L 214.130915 237.699337 
L 214.365401 238.092041 
L 214.599888 238.09591 
L 214.834375 237.649798 
L 215.068861 233.059118 
L 215.303348 235.782782 
L 215.537834 236.893839 
L 216.241294 237.567681 
L 216.710268 238.113348 
L 217.179241 237.266038 
L 217.413727 237.861674 
L 217.648214 237.98567 
L 217.882701 237.89971 
L 218.117187 237.302611 
L 218.351674 237.627509 
L 218.586161 237.420785 
L 218.820647 236.952274 
L 219.055134 238.133396 
L 219.28962 238.524932 
L 219.524107 238.191658 
L 219.758594 238.186917 
L 219.99308 232.012161 
L 220.227567 236.687938 
L 220.69654 237.233548 
L 220.931027 236.023464 
L 221.165513 237.208828 
L 221.4 237.634341 
L 221.634487 237.548003 
L 221.868973 237.022612 
L 222.337946 235.237797 
L 222.572433 227.606269 
L 222.80692 234.316341 
L 223.041406 228.054907 
L 223.275893 234.017041 
L 223.51038 234.370422 
L 223.744866 234.392605 
L 223.979353 237.039434 
L 224.213839 237.16219 
L 224.448326 236.242988 
L 224.682813 236.251149 
L 224.917299 237.390628 
L 225.151786 236.885488 
L 225.386273 237.264417 
L 225.620759 236.548746 
L 225.855246 236.704345 
L 226.089732 235.762186 
L 226.324219 235.47712 
L 226.558706 237.613719 
L 226.793192 229.682621 
L 227.027679 236.768603 
L 227.262166 235.074253 
L 227.496652 236.856265 
L 227.731139 234.545981 
L 227.965625 236.677771 
L 228.434599 237.768092 
L 228.669085 236.712635 
L 228.903572 230.091555 
L 229.138059 235.73893 
L 229.607032 236.25718 
L 229.841518 235.248113 
L 230.076005 236.553816 
L 230.310492 233.646279 
L 230.544978 236.259787 
L 230.779465 233.001236 
L 231.013952 235.793088 
L 231.248438 231.74269 
L 231.482925 232.714723 
L 231.717411 235.615892 
L 231.951898 235.749574 
L 232.186385 236.174713 
L 232.420871 236.31671 
L 232.655358 234.848663 
L 232.889845 237.850513 
L 233.124331 237.512551 
L 233.358818 236.411824 
L 233.593304 237.005772 
L 233.827791 237.282661 
L 234.062278 236.872882 
L 234.296764 233.319748 
L 234.765737 237.115752 
L 235.000224 236.001367 
L 235.234711 237.469742 
L 235.469197 237.938282 
L 235.703684 237.872175 
L 235.938171 238.124548 
L 236.172657 237.605704 
L 236.407144 236.577796 
L 236.876117 238.188845 
L 237.110604 237.482662 
L 237.34509 237.36171 
L 237.814064 237.44052 
L 238.04855 236.641142 
L 238.283037 238.098985 
L 238.517523 216.484538 
L 238.75201 232.10422 
L 238.986497 219.476306 
L 239.220983 225.834521 
L 239.45547 226.431383 
L 240.15893 234.382788 
L 240.393416 233.409214 
L 240.627903 233.472346 
L 240.86239 222.574481 
L 241.096876 191.482512 
L 241.331363 207.090252 
L 241.56585 193.411186 
L 241.800336 162.949147 
L 242.738283 215.798422 
L 243.207256 221.605136 
L 243.441743 229.548918 
L 243.676229 220.924769 
L 243.910716 221.455235 
L 244.145202 223.110609 
L 244.379689 201.959045 
L 244.614176 215.956633 
L 244.848662 177.304978 
L 245.083149 181.746883 
L 245.552122 197.087148 
L 245.786609 217.720567 
L 246.021095 227.227794 
L 246.255582 227.371987 
L 246.490069 232.645701 
L 246.724555 224.47023 
L 246.959042 223.735768 
L 247.193529 220.820902 
L 247.428015 215.062834 
L 247.662502 220.943293 
L 247.896988 216.729163 
L 248.131475 215.413086 
L 248.365962 218.701122 
L 248.834935 212.40562 
L 249.069421 226.467305 
L 249.303908 220.010807 
L 249.538395 206.546661 
L 249.772881 211.337704 
L 250.007368 221.140365 
L 250.476341 215.270106 
L 250.710828 190.40421 
L 250.945314 212.065652 
L 251.179801 217.033962 
L 251.648774 221.455119 
L 251.883261 226.618863 
L 252.117748 227.089092 
L 252.352234 231.923856 
L 252.586721 223.693378 
L 252.821207 219.58095 
L 253.055694 224.654393 
L 253.290181 226.230486 
L 253.524667 229.150953 
L 253.759154 229.035972 
L 253.993641 222.26112 
L 254.228127 204.095479 
L 254.462614 217.190766 
L 254.6971 218.903121 
L 254.931587 227.304296 
L 255.166074 224.489773 
L 255.40056 231.725307 
L 255.635047 233.620175 
L 256.10402 230.323608 
L 256.80748 232.152664 
L 257.276453 224.124943 
L 257.51094 227.942663 
L 257.745427 227.354815 
L 257.979913 221.821804 
L 258.2144 219.695697 
L 258.683373 234.612742 
L 258.91786 232.854112 
L 259.152346 234.681907 
L 259.386833 235.511679 
L 259.62132 234.281405 
L 259.855806 235.762187 
L 260.324779 232.873747 
L 260.559266 235.005658 
L 260.793753 233.494185 
L 261.028239 234.503115 
L 261.497212 220.566879 
L 261.731699 229.752824 
L 261.966186 229.043916 
L 262.435159 204.352098 
L 262.669646 220.378381 
L 262.904132 212.811338 
L 263.138619 213.979968 
L 263.607592 226.665221 
L 263.842079 232.279514 
L 264.076565 231.715953 
L 264.311052 228.650178 
L 264.545539 229.831357 
L 264.780025 232.448046 
L 265.014512 229.762334 
L 265.248998 229.663186 
L 265.483485 233.21701 
L 265.717972 232.53085 
L 265.952458 226.681631 
L 266.186945 230.753374 
L 266.421432 236.98414 
L 266.655918 230.034392 
L 266.890405 201.234488 
L 267.124891 230.19303 
L 267.359378 229.735084 
L 267.593865 215.187848 
L 267.828351 228.984494 
L 268.297325 234.527209 
L 268.531811 234.45984 
L 268.766298 231.102936 
L 269.000784 230.899829 
L 269.235271 235.59883 
L 269.469758 234.3767 
L 269.704244 232.088584 
L 269.938731 231.071813 
L 270.173218 232.563242 
L 270.407704 232.740238 
L 270.642191 227.297051 
L 270.876677 239.554797 
L 271.111164 237.423067 
L 271.345651 233.446724 
L 271.580137 239.502075 
L 271.814624 239.48958 
L 272.049111 238.573736 
L 272.283597 236.689133 
L 272.518084 238.606814 
L 272.75257 238.68894 
L 272.987057 238.057385 
L 273.690517 237.102436 
L 273.925004 237.7273 
L 274.15949 236.538267 
L 274.393977 237.423782 
L 274.628463 235.801539 
L 274.86295 239.27316 
L 275.097437 238.343942 
L 275.331923 236.914335 
L 275.56641 238.595869 
L 275.800896 237.442362 
L 276.035383 237.463042 
L 276.26987 238.213355 
L 276.504356 237.975588 
L 276.738843 237.999124 
L 277.207816 238.221874 
L 280.021656 238.030601 
L 280.256142 238.268712 
L 280.725116 238.184589 
L 281.897549 238.172776 
L 283.538955 238.172776 
L 283.773442 237.511754 
L 284.007928 238.004108 
L 285.649335 238.096362 
L 285.883821 238.068729 
L 286.352795 238.1607 
L 287.525228 238.011369 
L 287.759714 238.229358 
L 288.932147 238.187762 
L 291.277014 238.179684 
L 291.5115 237.794873 
L 291.745987 237.789909 
L 291.980473 238.020891 
L 293.387393 238.135087 
L 293.856366 238.114599 
L 294.32534 238.152753 
L 295.263286 238.055557 
L 295.966746 238.184208 
L 296.670206 238.188704 
L 296.904693 236.863818 
L 297.139179 237.844564 
L 298.546099 238.164288 
L 299.015072 237.957472 
L 299.249559 238.127922 
L 299.484045 237.810406 
L 299.718532 229.787393 
L 299.953019 235.4889 
L 300.421992 236.563954 
L 300.656478 236.554527 
L 301.125452 237.907223 
L 301.359938 238.128172 
L 301.594425 237.167172 
L 301.828912 236.861569 
L 302.063398 237.990858 
L 302.297885 238.024063 
L 302.532371 237.786813 
L 302.766858 237.039386 
L 303.001345 237.369953 
L 303.235831 237.141879 
L 303.470318 236.126197 
L 303.704805 238.776889 
L 303.939291 238.527968 
L 304.173778 238.094351 
L 304.877238 238.438083 
L 305.346211 238.279605 
L 305.580698 238.296715 
L 305.815184 238.140097 
L 306.049671 235.787572 
L 306.284157 237.441517 
L 306.518644 237.445497 
L 306.753131 237.7389 
L 306.987617 237.572057 
L 307.222104 237.990151 
L 307.456591 237.519691 
L 307.691077 238.55412 
L 307.925564 232.346496 
L 308.16005 236.424312 
L 308.394537 236.883125 
L 308.629024 227.498253 
L 308.86351 233.407252 
L 309.332484 235.942146 
L 309.56697 236.320121 
L 309.801457 235.794344 
L 310.27043 238.131292 
L 310.739403 236.275417 
L 311.208377 237.53619 
L 311.442863 237.161471 
L 311.67735 235.4809 
L 311.911836 237.676817 
L 312.146323 237.222684 
L 312.38081 235.637771 
L 312.615296 238.638632 
L 312.849783 238.755476 
L 313.08427 238.285265 
L 313.318756 238.193131 
L 313.553243 238.50269 
L 313.787729 238.344323 
L 314.022216 238.467205 
L 314.256703 238.273049 
L 314.491189 238.259765 
L 314.725676 238.013534 
L 314.960162 238.044145 
L 315.194649 237.479859 
L 315.429136 237.866351 
L 315.663622 237.616911 
L 315.898109 238.075488 
L 316.367082 235.509477 
L 316.601569 237.799211 
L 316.836055 237.626562 
L 317.305029 237.710653 
L 317.539515 229.529416 
L 317.774002 235.890679 
L 318.242975 236.392207 
L 318.477462 236.659312 
L 318.711948 236.251882 
L 318.946435 226.559881 
L 319.180922 234.97062 
L 319.415408 234.39346 
L 319.649895 234.671395 
L 319.884382 233.515765 
L 320.118868 233.365072 
L 320.353355 225.902185 
L 320.587841 177.201895 
L 321.056815 215.025026 
L 321.291301 219.8539 
L 321.525788 222.167234 
L 321.760275 216.368537 
L 321.994761 228.061375 
L 322.229248 229.524049 
L 322.463734 209.340195 
L 323.167194 231.37287 
L 323.401681 229.454822 
L 323.636168 223.498563 
L 323.870654 225.563527 
L 324.105141 221.729677 
L 324.339627 201.593318 
L 324.574114 226.957939 
L 324.808601 232.263596 
L 325.043087 223.754022 
L 325.512061 230.372129 
L 325.746547 211.872136 
L 325.981034 209.422624 
L 326.21552 219.184572 
L 326.450007 219.096995 
L 326.684494 227.055343 
L 326.91898 223.540869 
L 327.153467 228.068546 
L 327.387953 221.86404 
L 327.62244 227.511942 
L 327.856927 222.698603 
L 328.091413 225.608589 
L 328.3259 231.121575 
L 328.560387 233.990445 
L 328.794873 231.896043 
L 329.02936 232.318991 
L 329.263846 232.151569 
L 329.498333 225.175995 
L 329.967306 238.180046 
L 330.201793 234.782489 
L 330.43628 237.492904 
L 330.905253 224.471605 
L 331.374226 211.692887 
L 331.608713 226.564254 
L 331.843199 224.480532 
L 332.077686 229.114197 
L 332.312173 229.528357 
L 332.781146 232.024566 
L 333.015632 230.501179 
L 333.250119 227.663108 
L 333.484606 228.208037 
L 333.719092 232.174845 
L 334.188066 220.626785 
L 334.422552 219.94123 
L 334.657039 222.521005 
L 334.891525 223.812427 
L 335.360499 234.361425 
L 335.829472 231.762055 
L 336.063959 233.182339 
L 336.298445 232.770308 
L 336.532932 234.874328 
L 336.767418 229.407469 
L 337.001905 233.132793 
L 337.236392 226.436095 
L 337.470878 230.233989 
L 337.705365 208.240753 
L 337.939852 220.44914 
L 338.174338 226.7617 
L 338.643311 229.883919 
L 338.877798 229.13761 
L 339.112285 229.222618 
L 339.346771 234.325848 
L 339.581258 229.226061 
L 339.815745 219.85882 
L 340.050231 221.846144 
L 340.284718 226.867179 
L 340.519204 229.005817 
L 340.753691 229.52547 
L 340.988178 229.042612 
L 341.222664 232.338945 
L 341.691637 221.724975 
L 341.926124 228.096032 
L 342.160611 230.944657 
L 342.629584 163.564064 
L 342.864071 210.472543 
L 343.098557 216.592164 
L 343.333044 219.746982 
L 343.56753 219.356721 
L 343.802017 224.662871 
L 344.036504 234.312352 
L 344.27099 230.830277 
L 344.505477 222.312799 
L 344.739964 224.726795 
L 344.97445 230.465352 
L 345.208937 231.14719 
L 345.443423 225.080481 
L 345.67791 226.972501 
L 345.912397 213.667193 
L 346.146883 213.644282 
L 346.38137 220.285154 
L 346.615857 240.188885 
L 346.850343 236.426263 
L 347.08483 234.699291 
L 347.319316 236.940896 
L 347.553803 217.458607 
L 347.78829 232.139132 
L 348.022776 230.801875 
L 348.257263 234.363825 
L 348.49175 234.587101 
L 348.960723 233.121952 
L 349.195209 234.134371 
L 349.664183 227.274955 
L 349.898669 220.434971 
L 350.133156 232.471597 
L 350.367643 223.583462 
L 350.602129 231.705657 
L 350.836616 232.150676 
L 351.071102 220.683891 
L 351.305589 223.331269 
L 351.540076 231.96433 
L 351.774562 232.492239 
L 352.009049 232.431724 
L 352.243536 234.462086 
L 352.712509 236.125945 
L 353.181482 232.201935 
L 353.415969 227.841443 
L 353.650455 214.344844 
L 353.884942 231.993917 
L 354.119428 226.767704 
L 354.353915 228.538859 
L 354.588402 218.09215 
L 354.822888 215.570562 
L 355.057375 230.687357 
L 355.291862 230.941153 
L 355.526348 232.560768 
L 355.760835 232.771965 
L 355.995321 235.997572 
L 356.229808 236.485902 
L 356.698781 231.200967 
L 356.933268 233.395255 
L 357.167755 233.345354 
L 357.402241 233.160411 
L 357.636728 235.144051 
L 357.871214 235.271367 
L 358.340188 233.572066 
L 358.809161 238.974566 
L 359.278134 238.361869 
L 359.512621 238.78106 
L 359.747107 238.676379 
L 360.216081 237.899928 
L 360.450567 231.19852 
L 360.685054 187.639449 
L 360.919541 221.525367 
L 361.154027 225.487512 
L 361.388514 227.337592 
L 362.091974 235.89459 
L 362.32646 236.447237 
L 362.560947 231.061286 
L 362.795434 230.590752 
L 363.02992 236.931616 
L 363.264407 236.918432 
L 363.498893 234.898742 
L 363.73338 230.669749 
L 363.967867 232.849052 
L 364.202353 231.034359 
L 364.43684 226.666218 
L 364.671327 242.116364 
L 365.1403 237.953133 
L 365.374786 238.356545 
L 365.609273 239.546803 
L 365.84376 239.420532 
L 366.312733 238.808677 
L 366.547219 238.950653 
L 366.781706 238.056792 
L 367.016193 237.768597 
L 367.485166 236.785059 
L 367.719653 237.666519 
L 367.954139 236.659385 
L 368.188626 238.139497 
L 368.423112 235.030015 
L 368.657599 240.414559 
L 368.892086 238.554456 
L 369.126572 238.441963 
L 369.595546 237.315155 
L 370.064519 238.153915 
L 371.471439 238.172776 
L 373.581818 238.172776 
L 373.581818 238.172776 
" style="fill:none;stroke:#ff7f0e;stroke-linecap:square;stroke-width:1.5;"/>
   </g>
   <g id="patch_3">
    <path d="M 54 252 
L 54 34.56 
" style="fill:none;stroke:#000000;stroke-linecap:square;stroke-linejoin:miter;stroke-width:0.8;"/>
   </g>
   <g id="patch_4">
    <path d="M 388.8 252 
L 388.8 34.56 
" style="fill:none;stroke:#000000;stroke-linecap:square;stroke-linejoin:miter;stroke-width:0.8;"/>
   </g>
   <g id="patch_5">
    <path d="M 54 252 
L 388.8 252 
" style="fill:none;stroke:#000000;stroke-linecap:square;stroke-linejoin:miter;stroke-width:0.8;"/>
   </g>
   <g id="patch_6">
    <path d="M 54 34.56 
L 388.8 34.56 
" style="fill:none;stroke:#000000;stroke-linecap:square;stroke-linejoin:miter;stroke-width:0.8;"/>
   </g>
   <g id="legend_1">
    <g id="patch_7">
     <path d="M 61 71.91625 
L 170.829688 71.91625 
Q 172.829688 71.91625 172.829688 69.91625 
L 172.829688 41.56 
Q 172.829688 39.56 170.829688 39.56 
L 61 39.56 
Q 59 39.56 59 41.56 
L 59 69.91625 
Q 59 71.91625 61 71.91625 
z
" style="fill:#ffffff;opacity:0.8;stroke:#cccccc;stroke-linejoin:miter;"/>
    </g>
    <g id="line2d_18">
     <path d="M 63 47.658437 
L 83 47.658437 
" style="fill:none;stroke:#1f77b4;stroke-linecap:square;stroke-width:1.5;"/>
    </g>
    <g id="line2d_19"/>
    <g id="text_16">
     <!-- True value -->
     <defs>
      <path d="M -0.296875 72.90625 
L 61.375 72.90625 
L 61.375 64.59375 
L 35.5 64.59375 
L 35.5 0 
L 25.59375 0 
L 25.59375 64.59375 
L -0.296875 64.59375 
z
" id="DejaVuSans-84"/>
      <path d="M 41.109375 46.296875 
Q 39.59375 47.171875 37.8125 47.578125 
Q 36.03125 48 33.890625 48 
Q 26.265625 48 22.1875 43.046875 
Q 18.109375 38.09375 18.109375 28.8125 
L 18.109375 0 
L 9.078125 0 
L 9.078125 54.6875 
L 18.109375 54.6875 
L 18.109375 46.1875 
Q 20.953125 51.171875 25.484375 53.578125 
Q 30.03125 56 36.53125 56 
Q 37.453125 56 38.578125 55.875 
Q 39.703125 55.765625 41.0625 55.515625 
z
" id="DejaVuSans-114"/>
      <path d="M 8.5 21.578125 
L 8.5 54.6875 
L 17.484375 54.6875 
L 17.484375 21.921875 
Q 17.484375 14.15625 20.5 10.265625 
Q 23.53125 6.390625 29.59375 6.390625 
Q 36.859375 6.390625 41.078125 11.03125 
Q 45.3125 15.671875 45.3125 23.6875 
L 45.3125 54.6875 
L 54.296875 54.6875 
L 54.296875 0 
L 45.3125 0 
L 45.3125 8.40625 
Q 42.046875 3.421875 37.71875 1 
Q 33.40625 -1.421875 27.6875 -1.421875 
Q 18.265625 -1.421875 13.375 4.4375 
Q 8.5 10.296875 8.5 21.578125 
z
M 31.109375 56 
z
" id="DejaVuSans-117"/>
      <path d="M 56.203125 29.59375 
L 56.203125 25.203125 
L 14.890625 25.203125 
Q 15.484375 15.921875 20.484375 11.0625 
Q 25.484375 6.203125 34.421875 6.203125 
Q 39.59375 6.203125 44.453125 7.46875 
Q 49.3125 8.734375 54.109375 11.28125 
L 54.109375 2.78125 
Q 49.265625 0.734375 44.1875 -0.34375 
Q 39.109375 -1.421875 33.890625 -1.421875 
Q 20.796875 -1.421875 13.15625 6.1875 
Q 5.515625 13.8125 5.515625 26.8125 
Q 5.515625 40.234375 12.765625 48.109375 
Q 20.015625 56 32.328125 56 
Q 43.359375 56 49.78125 48.890625 
Q 56.203125 41.796875 56.203125 29.59375 
z
M 47.21875 32.234375 
Q 47.125 39.59375 43.09375 43.984375 
Q 39.0625 48.390625 32.421875 48.390625 
Q 24.90625 48.390625 20.390625 44.140625 
Q 15.875 39.890625 15.1875 32.171875 
z
" id="DejaVuSans-101"/>
      <path id="DejaVuSans-32"/>
      <path d="M 2.984375 54.6875 
L 12.5 54.6875 
L 29.59375 8.796875 
L 46.6875 54.6875 
L 56.203125 54.6875 
L 35.6875 0 
L 23.484375 0 
z
" id="DejaVuSans-118"/>
      <path d="M 34.28125 27.484375 
Q 23.390625 27.484375 19.1875 25 
Q 14.984375 22.515625 14.984375 16.5 
Q 14.984375 11.71875 18.140625 8.90625 
Q 21.296875 6.109375 26.703125 6.109375 
Q 34.1875 6.109375 38.703125 11.40625 
Q 43.21875 16.703125 43.21875 25.484375 
L 43.21875 27.484375 
z
M 52.203125 31.203125 
L 52.203125 0 
L 43.21875 0 
L 43.21875 8.296875 
Q 40.140625 3.328125 35.546875 0.953125 
Q 30.953125 -1.421875 24.3125 -1.421875 
Q 15.921875 -1.421875 10.953125 3.296875 
Q 6 8.015625 6 15.921875 
Q 6 25.140625 12.171875 29.828125 
Q 18.359375 34.515625 30.609375 34.515625 
L 43.21875 34.515625 
L 43.21875 35.40625 
Q 43.21875 41.609375 39.140625 45 
Q 35.0625 48.390625 27.6875 48.390625 
Q 23 48.390625 18.546875 47.265625 
Q 14.109375 46.140625 10.015625 43.890625 
L 10.015625 52.203125 
Q 14.9375 54.109375 19.578125 55.046875 
Q 24.21875 56 28.609375 56 
Q 40.484375 56 46.34375 49.84375 
Q 52.203125 43.703125 52.203125 31.203125 
z
" id="DejaVuSans-97"/>
      <path d="M 9.421875 75.984375 
L 18.40625 75.984375 
L 18.40625 0 
L 9.421875 0 
z
" id="DejaVuSans-108"/>
     </defs>
     <g transform="translate(91 51.158437)scale(0.1 -0.1)">
      <use xlink:href="#DejaVuSans-84"/>
      <use x="60.865234" xlink:href="#DejaVuSans-114"/>
      <use x="101.978516" xlink:href="#DejaVuSans-117"/>
      <use x="165.357422" xlink:href="#DejaVuSans-101"/>
      <use x="226.880859" xlink:href="#DejaVuSans-32"/>
      <use x="258.667969" xlink:href="#DejaVuSans-118"/>
      <use x="317.847656" xlink:href="#DejaVuSans-97"/>
      <use x="379.126953" xlink:href="#DejaVuSans-108"/>
      <use x="406.910156" xlink:href="#DejaVuSans-117"/>
      <use x="470.289062" xlink:href="#DejaVuSans-101"/>
     </g>
    </g>
    <g id="line2d_20">
     <path d="M 63 62.336562 
L 83 62.336562 
" style="fill:none;stroke:#ff7f0e;stroke-linecap:square;stroke-width:1.5;"/>
    </g>
    <g id="line2d_21"/>
    <g id="text_17">
     <!-- Predicted value -->
     <defs>
      <path d="M 19.671875 64.796875 
L 19.671875 37.40625 
L 32.078125 37.40625 
Q 38.96875 37.40625 42.71875 40.96875 
Q 46.484375 44.53125 46.484375 51.125 
Q 46.484375 57.671875 42.71875 61.234375 
Q 38.96875 64.796875 32.078125 64.796875 
z
M 9.8125 72.90625 
L 32.078125 72.90625 
Q 44.34375 72.90625 50.609375 67.359375 
Q 56.890625 61.8125 56.890625 51.125 
Q 56.890625 40.328125 50.609375 34.8125 
Q 44.34375 29.296875 32.078125 29.296875 
L 19.671875 29.296875 
L 19.671875 0 
L 9.8125 0 
z
" id="DejaVuSans-80"/>
      <path d="M 45.40625 46.390625 
L 45.40625 75.984375 
L 54.390625 75.984375 
L 54.390625 0 
L 45.40625 0 
L 45.40625 8.203125 
Q 42.578125 3.328125 38.25 0.953125 
Q 33.9375 -1.421875 27.875 -1.421875 
Q 17.96875 -1.421875 11.734375 6.484375 
Q 5.515625 14.40625 5.515625 27.296875 
Q 5.515625 40.1875 11.734375 48.09375 
Q 17.96875 56 27.875 56 
Q 33.9375 56 38.25 53.625 
Q 42.578125 51.265625 45.40625 46.390625 
z
M 14.796875 27.296875 
Q 14.796875 17.390625 18.875 11.75 
Q 22.953125 6.109375 30.078125 6.109375 
Q 37.203125 6.109375 41.296875 11.75 
Q 45.40625 17.390625 45.40625 27.296875 
Q 45.40625 37.203125 41.296875 42.84375 
Q 37.203125 48.484375 30.078125 48.484375 
Q 22.953125 48.484375 18.875 42.84375 
Q 14.796875 37.203125 14.796875 27.296875 
z
" id="DejaVuSans-100"/>
      <path d="M 9.421875 54.6875 
L 18.40625 54.6875 
L 18.40625 0 
L 9.421875 0 
z
M 9.421875 75.984375 
L 18.40625 75.984375 
L 18.40625 64.59375 
L 9.421875 64.59375 
z
" id="DejaVuSans-105"/>
      <path d="M 48.78125 52.59375 
L 48.78125 44.1875 
Q 44.96875 46.296875 41.140625 47.34375 
Q 37.3125 48.390625 33.40625 48.390625 
Q 24.65625 48.390625 19.8125 42.84375 
Q 14.984375 37.3125 14.984375 27.296875 
Q 14.984375 17.28125 19.8125 11.734375 
Q 24.65625 6.203125 33.40625 6.203125 
Q 37.3125 6.203125 41.140625 7.25 
Q 44.96875 8.296875 48.78125 10.40625 
L 48.78125 2.09375 
Q 45.015625 0.34375 40.984375 -0.53125 
Q 36.96875 -1.421875 32.421875 -1.421875 
Q 20.0625 -1.421875 12.78125 6.34375 
Q 5.515625 14.109375 5.515625 27.296875 
Q 5.515625 40.671875 12.859375 48.328125 
Q 20.21875 56 33.015625 56 
Q 37.15625 56 41.109375 55.140625 
Q 45.0625 54.296875 48.78125 52.59375 
z
" id="DejaVuSans-99"/>
      <path d="M 18.3125 70.21875 
L 18.3125 54.6875 
L 36.8125 54.6875 
L 36.8125 47.703125 
L 18.3125 47.703125 
L 18.3125 18.015625 
Q 18.3125 11.328125 20.140625 9.421875 
Q 21.96875 7.515625 27.59375 7.515625 
L 36.8125 7.515625 
L 36.8125 0 
L 27.59375 0 
Q 17.1875 0 13.234375 3.875 
Q 9.28125 7.765625 9.28125 18.015625 
L 9.28125 47.703125 
L 2.6875 47.703125 
L 2.6875 54.6875 
L 9.28125 54.6875 
L 9.28125 70.21875 
z
" id="DejaVuSans-116"/>
     </defs>
     <g transform="translate(91 65.836562)scale(0.1 -0.1)">
      <use xlink:href="#DejaVuSans-80"/>
      <use x="60.287109" xlink:href="#DejaVuSans-114"/>
      <use x="101.369141" xlink:href="#DejaVuSans-101"/>
      <use x="162.892578" xlink:href="#DejaVuSans-100"/>
      <use x="226.369141" xlink:href="#DejaVuSans-105"/>
      <use x="254.152344" xlink:href="#DejaVuSans-99"/>
      <use x="309.132812" xlink:href="#DejaVuSans-116"/>
      <use x="348.341797" xlink:href="#DejaVuSans-101"/>
      <use x="409.865234" xlink:href="#DejaVuSans-100"/>
      <use x="473.341797" xlink:href="#DejaVuSans-32"/>
      <use x="505.128906" xlink:href="#DejaVuSans-118"/>
      <use x="564.308594" xlink:href="#DejaVuSans-97"/>
      <use x="625.587891" xlink:href="#DejaVuSans-108"/>
      <use x="653.371094" xlink:href="#DejaVuSans-117"/>
      <use x="716.75" xlink:href="#DejaVuSans-101"/>
     </g>
    </g>
   </g>
  </g>
 </g>
 <defs>
  <clipPath id="p447f9c9ace">
   <rect height="217.44" width="334.8" x="54" y="34.56"/>
  </clipPath>
 </defs>
</svg>
