<?xml version="1.0" encoding="utf-8" standalone="no"?>
<!DOCTYPE svg PUBLIC "-//W3C//DTD SVG 1.1//EN"
  "http://www.w3.org/Graphics/SVG/1.1/DTD/svg11.dtd">
<!-- Created with matplotlib (https://matplotlib.org/) -->
<svg height="288pt" version="1.1" viewBox="0 0 432 288" width="432pt" xmlns="http://www.w3.org/2000/svg" xmlns:xlink="http://www.w3.org/1999/xlink">
 <defs>
  <style type="text/css">
*{stroke-linecap:butt;stroke-linejoin:round;}
  </style>
 </defs>
 <g id="figure_1">
  <g id="patch_1">
   <path d="M 0 288 
L 432 288 
L 432 0 
L 0 0 
z
" style="fill:#ffffff;"/>
  </g>
  <g id="axes_1">
   <g id="patch_2">
    <path d="M 54 252 
L 388.8 252 
L 388.8 34.56 
L 54 34.56 
z
" style="fill:#ffffff;"/>
   </g>
   <g id="matplotlib.axis_1">
    <g id="xtick_1">
     <g id="line2d_1">
      <defs>
       <path d="M 0 0 
L 0 3.5 
" id="m8e55c9f588" style="stroke:#000000;stroke-width:0.8;"/>
      </defs>
      <g>
       <use style="stroke:#000000;stroke-width:0.8;" x="69.218182" xlink:href="#m8e55c9f588" y="252"/>
      </g>
     </g>
     <g id="text_1">
      <!-- 0 -->
      <defs>
       <path d="M 31.78125 66.40625 
Q 24.171875 66.40625 20.328125 58.90625 
Q 16.5 51.421875 16.5 36.375 
Q 16.5 21.390625 20.328125 13.890625 
Q 24.171875 6.390625 31.78125 6.390625 
Q 39.453125 6.390625 43.28125 13.890625 
Q 47.125 21.390625 47.125 36.375 
Q 47.125 51.421875 43.28125 58.90625 
Q 39.453125 66.40625 31.78125 66.40625 
z
M 31.78125 74.21875 
Q 44.046875 74.21875 50.515625 64.515625 
Q 56.984375 54.828125 56.984375 36.375 
Q 56.984375 17.96875 50.515625 8.265625 
Q 44.046875 -1.421875 31.78125 -1.421875 
Q 19.53125 -1.421875 13.0625 8.265625 
Q 6.59375 17.96875 6.59375 36.375 
Q 6.59375 54.828125 13.0625 64.515625 
Q 19.53125 74.21875 31.78125 74.21875 
z
" id="DejaVuSans-48"/>
      </defs>
      <g transform="translate(66.036932 266.598437)scale(0.1 -0.1)">
       <use xlink:href="#DejaVuSans-48"/>
      </g>
     </g>
    </g>
    <g id="xtick_2">
     <g id="line2d_2">
      <g>
       <use style="stroke:#000000;stroke-width:0.8;" x="116.115506" xlink:href="#m8e55c9f588" y="252"/>
      </g>
     </g>
     <g id="text_2">
      <!-- 200 -->
      <defs>
       <path d="M 19.1875 8.296875 
L 53.609375 8.296875 
L 53.609375 0 
L 7.328125 0 
L 7.328125 8.296875 
Q 12.9375 14.109375 22.625 23.890625 
Q 32.328125 33.6875 34.8125 36.53125 
Q 39.546875 41.84375 41.421875 45.53125 
Q 43.3125 49.21875 43.3125 52.78125 
Q 43.3125 58.59375 39.234375 62.25 
Q 35.15625 65.921875 28.609375 65.921875 
Q 23.96875 65.921875 18.8125 64.3125 
Q 13.671875 62.703125 7.8125 59.421875 
L 7.8125 69.390625 
Q 13.765625 71.78125 18.9375 73 
Q 24.125 74.21875 28.421875 74.21875 
Q 39.75 74.21875 46.484375 68.546875 
Q 53.21875 62.890625 53.21875 53.421875 
Q 53.21875 48.921875 51.53125 44.890625 
Q 49.859375 40.875 45.40625 35.40625 
Q 44.1875 33.984375 37.640625 27.21875 
Q 31.109375 20.453125 19.1875 8.296875 
z
" id="DejaVuSans-50"/>
      </defs>
      <g transform="translate(106.571756 266.598437)scale(0.1 -0.1)">
       <use xlink:href="#DejaVuSans-50"/>
       <use x="63.623047" xlink:href="#DejaVuSans-48"/>
       <use x="127.246094" xlink:href="#DejaVuSans-48"/>
      </g>
     </g>
    </g>
    <g id="xtick_3">
     <g id="line2d_3">
      <g>
       <use style="stroke:#000000;stroke-width:0.8;" x="163.012831" xlink:href="#m8e55c9f588" y="252"/>
      </g>
     </g>
     <g id="text_3">
      <!-- 400 -->
      <defs>
       <path d="M 37.796875 64.3125 
L 12.890625 25.390625 
L 37.796875 25.390625 
z
M 35.203125 72.90625 
L 47.609375 72.90625 
L 47.609375 25.390625 
L 58.015625 25.390625 
L 58.015625 17.1875 
L 47.609375 17.1875 
L 47.609375 0 
L 37.796875 0 
L 37.796875 17.1875 
L 4.890625 17.1875 
L 4.890625 26.703125 
z
" id="DejaVuSans-52"/>
      </defs>
      <g transform="translate(153.469081 266.598437)scale(0.1 -0.1)">
       <use xlink:href="#DejaVuSans-52"/>
       <use x="63.623047" xlink:href="#DejaVuSans-48"/>
       <use x="127.246094" xlink:href="#DejaVuSans-48"/>
      </g>
     </g>
    </g>
    <g id="xtick_4">
     <g id="line2d_4">
      <g>
       <use style="stroke:#000000;stroke-width:0.8;" x="209.910155" xlink:href="#m8e55c9f588" y="252"/>
      </g>
     </g>
     <g id="text_4">
      <!-- 600 -->
      <defs>
       <path d="M 33.015625 40.375 
Q 26.375 40.375 22.484375 35.828125 
Q 18.609375 31.296875 18.609375 23.390625 
Q 18.609375 15.53125 22.484375 10.953125 
Q 26.375 6.390625 33.015625 6.390625 
Q 39.65625 6.390625 43.53125 10.953125 
Q 47.40625 15.53125 47.40625 23.390625 
Q 47.40625 31.296875 43.53125 35.828125 
Q 39.65625 40.375 33.015625 40.375 
z
M 52.59375 71.296875 
L 52.59375 62.3125 
Q 48.875 64.0625 45.09375 64.984375 
Q 41.3125 65.921875 37.59375 65.921875 
Q 27.828125 65.921875 22.671875 59.328125 
Q 17.53125 52.734375 16.796875 39.40625 
Q 19.671875 43.65625 24.015625 45.921875 
Q 28.375 48.1875 33.59375 48.1875 
Q 44.578125 48.1875 50.953125 41.515625 
Q 57.328125 34.859375 57.328125 23.390625 
Q 57.328125 12.15625 50.6875 5.359375 
Q 44.046875 -1.421875 33.015625 -1.421875 
Q 20.359375 -1.421875 13.671875 8.265625 
Q 6.984375 17.96875 6.984375 36.375 
Q 6.984375 53.65625 15.1875 63.9375 
Q 23.390625 74.21875 37.203125 74.21875 
Q 40.921875 74.21875 44.703125 73.484375 
Q 48.484375 72.75 52.59375 71.296875 
z
" id="DejaVuSans-54"/>
      </defs>
      <g transform="translate(200.366405 266.598437)scale(0.1 -0.1)">
       <use xlink:href="#DejaVuSans-54"/>
       <use x="63.623047" xlink:href="#DejaVuSans-48"/>
       <use x="127.246094" xlink:href="#DejaVuSans-48"/>
      </g>
     </g>
    </g>
    <g id="xtick_5">
     <g id="line2d_5">
      <g>
       <use style="stroke:#000000;stroke-width:0.8;" x="256.80748" xlink:href="#m8e55c9f588" y="252"/>
      </g>
     </g>
     <g id="text_5">
      <!-- 800 -->
      <defs>
       <path d="M 31.78125 34.625 
Q 24.75 34.625 20.71875 30.859375 
Q 16.703125 27.09375 16.703125 20.515625 
Q 16.703125 13.921875 20.71875 10.15625 
Q 24.75 6.390625 31.78125 6.390625 
Q 38.8125 6.390625 42.859375 10.171875 
Q 46.921875 13.96875 46.921875 20.515625 
Q 46.921875 27.09375 42.890625 30.859375 
Q 38.875 34.625 31.78125 34.625 
z
M 21.921875 38.8125 
Q 15.578125 40.375 12.03125 44.71875 
Q 8.5 49.078125 8.5 55.328125 
Q 8.5 64.0625 14.71875 69.140625 
Q 20.953125 74.21875 31.78125 74.21875 
Q 42.671875 74.21875 48.875 69.140625 
Q 55.078125 64.0625 55.078125 55.328125 
Q 55.078125 49.078125 51.53125 44.71875 
Q 48 40.375 41.703125 38.8125 
Q 48.828125 37.15625 52.796875 32.3125 
Q 56.78125 27.484375 56.78125 20.515625 
Q 56.78125 9.90625 50.3125 4.234375 
Q 43.84375 -1.421875 31.78125 -1.421875 
Q 19.734375 -1.421875 13.25 4.234375 
Q 6.78125 9.90625 6.78125 20.515625 
Q 6.78125 27.484375 10.78125 32.3125 
Q 14.796875 37.15625 21.921875 38.8125 
z
M 18.3125 54.390625 
Q 18.3125 48.734375 21.84375 45.5625 
Q 25.390625 42.390625 31.78125 42.390625 
Q 38.140625 42.390625 41.71875 45.5625 
Q 45.3125 48.734375 45.3125 54.390625 
Q 45.3125 60.0625 41.71875 63.234375 
Q 38.140625 66.40625 31.78125 66.40625 
Q 25.390625 66.40625 21.84375 63.234375 
Q 18.3125 60.0625 18.3125 54.390625 
z
" id="DejaVuSans-56"/>
      </defs>
      <g transform="translate(247.26373 266.598437)scale(0.1 -0.1)">
       <use xlink:href="#DejaVuSans-56"/>
       <use x="63.623047" xlink:href="#DejaVuSans-48"/>
       <use x="127.246094" xlink:href="#DejaVuSans-48"/>
      </g>
     </g>
    </g>
    <g id="xtick_6">
     <g id="line2d_6">
      <g>
       <use style="stroke:#000000;stroke-width:0.8;" x="303.704805" xlink:href="#m8e55c9f588" y="252"/>
      </g>
     </g>
     <g id="text_6">
      <!-- 1000 -->
      <defs>
       <path d="M 12.40625 8.296875 
L 28.515625 8.296875 
L 28.515625 63.921875 
L 10.984375 60.40625 
L 10.984375 69.390625 
L 28.421875 72.90625 
L 38.28125 72.90625 
L 38.28125 8.296875 
L 54.390625 8.296875 
L 54.390625 0 
L 12.40625 0 
z
" id="DejaVuSans-49"/>
      </defs>
      <g transform="translate(290.979805 266.598437)scale(0.1 -0.1)">
       <use xlink:href="#DejaVuSans-49"/>
       <use x="63.623047" xlink:href="#DejaVuSans-48"/>
       <use x="127.246094" xlink:href="#DejaVuSans-48"/>
       <use x="190.869141" xlink:href="#DejaVuSans-48"/>
      </g>
     </g>
    </g>
    <g id="xtick_7">
     <g id="line2d_7">
      <g>
       <use style="stroke:#000000;stroke-width:0.8;" x="350.602129" xlink:href="#m8e55c9f588" y="252"/>
      </g>
     </g>
     <g id="text_7">
      <!-- 1200 -->
      <g transform="translate(337.877129 266.598437)scale(0.1 -0.1)">
       <use xlink:href="#DejaVuSans-49"/>
       <use x="63.623047" xlink:href="#DejaVuSans-50"/>
       <use x="127.246094" xlink:href="#DejaVuSans-48"/>
       <use x="190.869141" xlink:href="#DejaVuSans-48"/>
      </g>
     </g>
    </g>
   </g>
   <g id="matplotlib.axis_2">
    <g id="ytick_1">
     <g id="line2d_8">
      <defs>
       <path d="M 0 0 
L -3.5 0 
" id="m841b92fcef" style="stroke:#000000;stroke-width:0.8;"/>
      </defs>
      <g>
       <use style="stroke:#000000;stroke-width:0.8;" x="54" xlink:href="#m841b92fcef" y="240.405168"/>
      </g>
     </g>
     <g id="text_8">
      <!-- 0 -->
      <g transform="translate(40.6375 244.204386)scale(0.1 -0.1)">
       <use xlink:href="#DejaVuSans-48"/>
      </g>
     </g>
    </g>
    <g id="ytick_2">
     <g id="line2d_9">
      <g>
       <use style="stroke:#000000;stroke-width:0.8;" x="54" xlink:href="#m841b92fcef" y="200.896794"/>
      </g>
     </g>
     <g id="text_9">
      <!-- 50 -->
      <defs>
       <path d="M 10.796875 72.90625 
L 49.515625 72.90625 
L 49.515625 64.59375 
L 19.828125 64.59375 
L 19.828125 46.734375 
Q 21.96875 47.46875 24.109375 47.828125 
Q 26.265625 48.1875 28.421875 48.1875 
Q 40.625 48.1875 47.75 41.5 
Q 54.890625 34.8125 54.890625 23.390625 
Q 54.890625 11.625 47.5625 5.09375 
Q 40.234375 -1.421875 26.90625 -1.421875 
Q 22.3125 -1.421875 17.546875 -0.640625 
Q 12.796875 0.140625 7.71875 1.703125 
L 7.71875 11.625 
Q 12.109375 9.234375 16.796875 8.0625 
Q 21.484375 6.890625 26.703125 6.890625 
Q 35.15625 6.890625 40.078125 11.328125 
Q 45.015625 15.765625 45.015625 23.390625 
Q 45.015625 31 40.078125 35.4375 
Q 35.15625 39.890625 26.703125 39.890625 
Q 22.75 39.890625 18.8125 39.015625 
Q 14.890625 38.140625 10.796875 36.28125 
z
" id="DejaVuSans-53"/>
      </defs>
      <g transform="translate(34.275 204.696013)scale(0.1 -0.1)">
       <use xlink:href="#DejaVuSans-53"/>
       <use x="63.623047" xlink:href="#DejaVuSans-48"/>
      </g>
     </g>
    </g>
    <g id="ytick_3">
     <g id="line2d_10">
      <g>
       <use style="stroke:#000000;stroke-width:0.8;" x="54" xlink:href="#m841b92fcef" y="161.388421"/>
      </g>
     </g>
     <g id="text_10">
      <!-- 100 -->
      <g transform="translate(27.9125 165.18764)scale(0.1 -0.1)">
       <use xlink:href="#DejaVuSans-49"/>
       <use x="63.623047" xlink:href="#DejaVuSans-48"/>
       <use x="127.246094" xlink:href="#DejaVuSans-48"/>
      </g>
     </g>
    </g>
    <g id="ytick_4">
     <g id="line2d_11">
      <g>
       <use style="stroke:#000000;stroke-width:0.8;" x="54" xlink:href="#m841b92fcef" y="121.880048"/>
      </g>
     </g>
     <g id="text_11">
      <!-- 150 -->
      <g transform="translate(27.9125 125.679267)scale(0.1 -0.1)">
       <use xlink:href="#DejaVuSans-49"/>
       <use x="63.623047" xlink:href="#DejaVuSans-53"/>
       <use x="127.246094" xlink:href="#DejaVuSans-48"/>
      </g>
     </g>
    </g>
    <g id="ytick_5">
     <g id="line2d_12">
      <g>
       <use style="stroke:#000000;stroke-width:0.8;" x="54" xlink:href="#m841b92fcef" y="82.371675"/>
      </g>
     </g>
     <g id="text_12">
      <!-- 200 -->
      <g transform="translate(27.9125 86.170893)scale(0.1 -0.1)">
       <use xlink:href="#DejaVuSans-50"/>
       <use x="63.623047" xlink:href="#DejaVuSans-48"/>
       <use x="127.246094" xlink:href="#DejaVuSans-48"/>
      </g>
     </g>
    </g>
    <g id="ytick_6">
     <g id="line2d_13">
      <g>
       <use style="stroke:#000000;stroke-width:0.8;" x="54" xlink:href="#m841b92fcef" y="42.863301"/>
      </g>
     </g>
     <g id="text_13">
      <!-- 250 -->
      <g transform="translate(27.9125 46.66252)scale(0.1 -0.1)">
       <use xlink:href="#DejaVuSans-50"/>
       <use x="63.623047" xlink:href="#DejaVuSans-53"/>
       <use x="127.246094" xlink:href="#DejaVuSans-48"/>
      </g>
     </g>
    </g>
   </g>
   <g id="line2d_14">
    <path clip-path="url(#p428172278e)" d="M 69.218182 206.427967 
L 69.452668 210.378804 
L 69.687155 232.503493 
L 69.921642 236.45433 
L 70.156128 219.070646 
L 70.390615 237.244498 
L 70.625102 220.650981 
L 70.859588 223.021483 
L 71.094075 214.329641 
L 71.328561 228.552656 
L 71.563048 200.106627 
L 71.797535 219.860814 
L 72.032021 221.441148 
L 72.266508 237.244498 
L 72.500995 220.650981 
L 72.735481 238.034665 
L 72.969968 221.441148 
L 73.438941 239.615 
L 73.673428 239.615 
L 73.907914 221.441148 
L 74.142401 177.981938 
L 74.376888 238.824833 
L 74.611374 231.713326 
L 74.845861 228.552656 
L 75.314834 240.405168 
L 75.549321 235.664163 
L 76.018294 240.405168 
L 76.487267 192.204952 
L 76.721754 235.664163 
L 76.95624 234.873995 
L 77.190727 214.329641 
L 77.425214 181.142608 
L 77.6597 239.615 
L 77.894187 239.615 
L 78.128673 226.182153 
L 78.36316 231.713326 
L 78.597647 188.254115 
L 78.832133 226.972321 
L 79.06662 226.972321 
L 79.301107 240.405168 
L 79.535593 238.034665 
L 79.77008 216.700144 
L 80.004566 238.824833 
L 80.239053 237.244498 
L 80.47354 236.45433 
L 80.708026 240.405168 
L 80.942513 221.441148 
L 81.177 240.405168 
L 81.411486 238.824833 
L 81.645973 238.034665 
L 81.880459 192.204952 
L 82.114946 225.391986 
L 82.583919 236.45433 
L 82.818406 237.244498 
L 83.052893 226.972321 
L 83.287379 232.503493 
L 83.521866 224.601818 
L 83.756352 236.45433 
L 83.990839 211.959139 
L 84.225326 200.106627 
L 84.459812 226.182153 
L 84.694299 238.824833 
L 84.928786 235.664163 
L 85.163272 216.700144 
L 85.397759 231.713326 
L 85.632245 193.785287 
L 85.866732 240.405168 
L 86.335705 240.405168 
L 86.570192 221.441148 
L 86.804679 240.405168 
L 87.039165 236.45433 
L 87.273652 240.405168 
L 87.508138 238.824833 
L 87.742625 240.405168 
L 87.977112 240.405168 
L 88.211598 226.972321 
L 88.446085 240.405168 
L 88.680572 239.615 
L 88.915058 230.132991 
L 89.384031 240.405168 
L 89.618518 233.29366 
L 90.087491 240.405168 
L 90.321978 234.873995 
L 90.556464 240.405168 
L 90.790951 240.405168 
L 91.025438 223.021483 
L 91.259924 223.811651 
L 91.494411 211.168971 
L 91.728898 44.443636 
L 91.963384 240.405168 
L 94.777224 240.405168 
L 95.246197 210.378804 
L 95.480684 233.29366 
L 95.71517 240.405168 
L 95.949657 240.405168 
L 96.184143 208.008302 
L 96.41863 236.45433 
L 96.653117 240.405168 
L 96.887603 240.405168 
L 97.12209 239.615 
L 97.356577 240.405168 
L 122.681132 240.405168 
L 122.915618 228.552656 
L 123.150105 228.552656 
L 123.384592 237.244498 
L 123.619078 240.405168 
L 130.888164 240.405168 
L 131.12265 211.959139 
L 131.357137 240.405168 
L 131.591623 240.405168 
L 131.82611 230.923158 
L 132.060597 240.405168 
L 132.295083 236.45433 
L 132.52957 227.762488 
L 132.998543 239.615 
L 133.23303 240.405168 
L 134.405463 240.405168 
L 134.63995 238.824833 
L 134.874436 238.034665 
L 135.108923 240.405168 
L 135.343409 240.405168 
L 135.577896 236.45433 
L 136.046869 210.378804 
L 136.281356 239.615 
L 136.515843 240.405168 
L 136.750329 236.45433 
L 136.984816 240.405168 
L 137.688276 240.405168 
L 137.922762 238.824833 
L 138.157249 240.405168 
L 139.798655 240.405168 
L 140.033142 236.45433 
L 140.267629 214.329641 
L 140.502115 240.405168 
L 140.736602 237.244498 
L 140.971088 240.405168 
L 141.205575 240.405168 
L 141.440062 234.873995 
L 141.674548 206.427967 
L 141.909035 240.405168 
L 142.143522 206.427967 
L 142.378008 238.824833 
L 142.612495 238.034665 
L 142.846981 196.945957 
L 143.081468 175.611436 
L 143.315955 185.093445 
L 143.550441 239.615 
L 143.784928 236.45433 
L 144.019414 215.119809 
L 144.253901 210.378804 
L 144.488388 240.405168 
L 144.722874 208.008302 
L 144.957361 235.664163 
L 145.191848 225.391986 
L 145.660821 239.615 
L 145.895307 240.405168 
L 146.598767 240.405168 
L 146.833254 238.824833 
L 147.067741 225.391986 
L 147.302227 240.405168 
L 147.536714 240.405168 
L 147.7712 199.316459 
L 148.005687 240.405168 
L 148.240174 232.503493 
L 148.47466 240.405168 
L 148.709147 230.132991 
L 148.943634 232.503493 
L 149.17812 208.798469 
L 149.647093 240.405168 
L 150.116067 240.405168 
L 150.350553 226.972321 
L 150.58504 131.362057 
L 151.054013 238.824833 
L 151.2885 187.463947 
L 151.522986 230.923158 
L 151.757473 240.405168 
L 151.99196 240.405168 
L 152.226446 218.280479 
L 152.460933 215.119809 
L 152.69542 224.601818 
L 152.929906 218.280479 
L 153.164393 205.637799 
L 153.398879 218.280479 
L 153.633366 178.772105 
L 153.867853 218.280479 
L 154.102339 238.824833 
L 154.336826 240.405168 
L 154.571313 238.034665 
L 154.805799 223.021483 
L 155.040286 237.244498 
L 155.274772 233.29366 
L 155.509259 240.405168 
L 155.743746 228.552656 
L 155.978232 233.29366 
L 156.212719 233.29366 
L 156.447205 236.45433 
L 156.916179 232.503493 
L 157.150665 177.981938 
L 157.385152 239.615 
L 157.619639 201.686962 
L 157.854125 240.405168 
L 158.323098 233.29366 
L 158.557585 240.405168 
L 158.792072 218.280479 
L 159.026558 238.824833 
L 159.261045 240.405168 
L 159.495532 235.664163 
L 159.730018 239.615 
L 159.964505 234.873995 
L 160.198991 239.615 
L 160.433478 238.824833 
L 160.667965 240.405168 
L 160.902451 233.29366 
L 161.136938 240.405168 
L 161.371425 234.873995 
L 161.605911 240.405168 
L 161.840398 240.405168 
L 162.074884 235.664163 
L 162.543858 219.860814 
L 162.778344 234.873995 
L 163.012831 228.552656 
L 163.247318 207.218134 
L 163.716291 238.824833 
L 164.419751 230.132991 
L 164.654237 166.129426 
L 164.888724 238.034665 
L 165.123211 238.034665 
L 165.592184 230.923158 
L 165.82667 229.342823 
L 166.061157 239.615 
L 166.295644 234.873995 
L 166.53013 199.316459 
L 166.764617 217.490311 
L 166.999104 187.463947 
L 167.23359 185.883613 
L 167.468077 195.365622 
L 167.93705 225.391986 
L 168.171537 219.860814 
L 168.406023 161.388421 
L 168.64051 200.106627 
L 169.109483 240.405168 
L 169.34397 234.873995 
L 169.578456 240.405168 
L 169.812943 240.405168 
L 170.04743 237.244498 
L 170.281916 232.503493 
L 170.516403 230.923158 
L 170.750889 240.405168 
L 170.985376 238.824833 
L 171.219863 223.021483 
L 171.454349 228.552656 
L 171.688836 166.129426 
L 171.923323 230.132991 
L 172.157809 224.601818 
L 172.392296 239.615 
L 172.626782 240.405168 
L 172.861269 240.405168 
L 173.095756 237.244498 
L 173.330242 229.342823 
L 173.564729 238.824833 
L 173.799216 240.405168 
L 174.033702 183.51311 
L 174.268189 240.405168 
L 174.502675 189.044282 
L 174.737162 185.093445 
L 175.206135 238.034665 
L 175.440622 181.142608 
L 175.675109 171.660598 
L 175.909595 223.021483 
L 176.144082 216.700144 
L 176.378568 203.267297 
L 176.613055 230.132991 
L 176.847542 240.405168 
L 177.082028 239.615 
L 177.316515 240.405168 
L 180.364841 240.405168 
L 180.599328 239.615 
L 180.833814 224.601818 
L 181.302788 240.405168 
L 183.413167 240.405168 
L 183.647654 239.615 
L 183.88214 240.405168 
L 200.061717 240.405168 
L 200.296204 227.762488 
L 200.530691 240.405168 
L 210.613615 240.405168 
L 210.848102 226.182153 
L 211.082589 235.664163 
L 211.317075 240.405168 
L 211.551562 237.244498 
L 211.786048 240.405168 
L 212.489508 240.405168 
L 212.723995 230.923158 
L 212.958482 240.405168 
L 220.227567 240.405168 
L 220.462054 238.824833 
L 220.69654 240.405168 
L 220.931027 219.860814 
L 221.165513 240.405168 
L 221.4 231.713326 
L 221.634487 196.945957 
L 221.868973 200.896794 
L 222.10346 175.611436 
L 222.337946 192.99512 
L 222.572433 239.615 
L 222.80692 240.405168 
L 223.041406 230.923158 
L 223.275893 228.552656 
L 223.51038 238.034665 
L 224.213839 240.405168 
L 224.917299 240.405168 
L 225.151786 239.615 
L 225.386273 179.562273 
L 225.620759 222.231316 
L 225.855246 226.182153 
L 226.089732 208.798469 
L 226.324219 204.057464 
L 226.558706 231.713326 
L 226.793192 240.405168 
L 227.027679 239.615 
L 227.262166 240.405168 
L 227.731139 240.405168 
L 227.965625 216.700144 
L 228.200112 240.405168 
L 228.434599 230.132991 
L 228.669085 239.615 
L 228.903572 207.218134 
L 229.372545 240.405168 
L 229.607032 230.923158 
L 229.841518 240.405168 
L 230.076005 229.342823 
L 230.310492 240.405168 
L 230.544978 239.615 
L 230.779465 190.624617 
L 231.013952 226.972321 
L 231.248438 238.034665 
L 231.717411 192.99512 
L 231.951898 235.664163 
L 232.186385 196.15579 
L 232.420871 231.713326 
L 232.655358 240.405168 
L 233.124331 240.405168 
L 233.358818 236.45433 
L 233.593304 214.329641 
L 234.062278 236.45433 
L 234.296764 215.909976 
L 234.765737 209.588637 
L 235.000224 202.477129 
L 235.234711 211.959139 
L 235.469197 121.08988 
L 235.703684 226.972321 
L 235.938171 183.51311 
L 236.172657 238.034665 
L 236.407144 240.405168 
L 236.876117 240.405168 
L 237.110604 215.909976 
L 237.34509 227.762488 
L 237.579577 230.132991 
L 238.04855 125.040718 
L 238.283037 152.696579 
L 238.517523 205.637799 
L 238.75201 163.758924 
L 239.220983 236.45433 
L 239.45547 222.231316 
L 239.689957 240.405168 
L 239.924443 240.405168 
L 240.15893 209.588637 
L 240.393416 234.873995 
L 240.627903 228.552656 
L 240.86239 228.552656 
L 241.096876 207.218134 
L 241.331363 237.244498 
L 241.56585 239.615 
L 242.034823 230.132991 
L 242.269309 233.29366 
L 242.503796 240.405168 
L 242.972769 240.405168 
L 243.207256 238.034665 
L 243.441743 240.405168 
L 243.676229 233.29366 
L 243.910716 198.526292 
L 244.145202 183.51311 
L 244.379689 240.405168 
L 244.614176 240.405168 
L 244.848662 235.664163 
L 245.083149 240.405168 
L 245.317636 238.824833 
L 245.552122 218.280479 
L 245.786609 236.45433 
L 246.021095 179.562273 
L 246.255582 166.919593 
L 246.724555 224.601818 
L 246.959042 238.034665 
L 247.428015 217.490311 
L 247.662502 230.132991 
L 247.896988 214.329641 
L 248.131475 237.244498 
L 248.365962 169.290096 
L 248.600448 219.070646 
L 248.834935 240.405168 
L 249.772881 240.405168 
L 250.007368 236.45433 
L 250.241855 221.441148 
L 250.710828 240.405168 
L 250.945314 230.132991 
L 251.179801 189.044282 
L 251.414288 238.824833 
L 251.648774 234.873995 
L 251.883261 223.021483 
L 252.117748 234.083828 
L 252.352234 228.552656 
L 252.586721 193.785287 
L 252.821207 234.083828 
L 253.055694 224.601818 
L 253.290181 208.798469 
L 253.524667 212.749306 
L 253.759154 233.29366 
L 253.993641 237.244498 
L 254.228127 233.29366 
L 254.462614 215.909976 
L 254.6971 126.621053 
L 254.931587 221.441148 
L 255.166074 240.405168 
L 255.40056 236.45433 
L 255.635047 183.51311 
L 255.869534 238.824833 
L 256.10402 228.552656 
L 256.338507 234.873995 
L 256.572993 215.909976 
L 256.80748 234.083828 
L 257.041967 235.664163 
L 257.276453 194.575455 
L 257.51094 79.211005 
L 257.745427 134.522727 
L 257.979913 222.231316 
L 258.2144 179.562273 
L 258.448886 230.923158 
L 258.683373 240.405168 
L 258.91786 240.405168 
L 259.152346 232.503493 
L 259.386833 239.615 
L 259.62132 194.575455 
L 259.855806 204.847632 
L 260.090293 240.405168 
L 260.324779 239.615 
L 260.559266 222.231316 
L 260.793753 177.19177 
L 261.028239 233.29366 
L 261.262726 240.405168 
L 261.497212 240.405168 
L 261.966186 233.29366 
L 262.200672 237.244498 
L 262.435159 220.650981 
L 262.669646 219.070646 
L 262.904132 194.575455 
L 263.373105 238.034665 
L 263.607592 240.405168 
L 265.014512 240.405168 
L 265.248998 220.650981 
L 265.483485 239.615 
L 265.717972 240.405168 
L 265.952458 240.405168 
L 266.186945 239.615 
L 266.421432 224.601818 
L 266.655918 239.615 
L 266.890405 238.824833 
L 267.124891 239.615 
L 267.359378 238.824833 
L 267.593865 240.405168 
L 271.814624 240.405168 
L 272.049111 237.244498 
L 272.283597 240.405168 
L 279.787169 240.405168 
L 280.021656 235.664163 
L 280.256142 240.405168 
L 282.132035 240.405168 
L 282.366522 239.615 
L 282.601009 240.405168 
L 291.042527 240.405168 
L 291.277014 231.713326 
L 291.5115 240.405168 
L 296.201233 240.405168 
L 296.435719 234.083828 
L 296.670206 240.405168 
L 298.546099 240.405168 
L 298.780586 226.972321 
L 299.015072 240.405168 
L 299.484045 238.824833 
L 299.718532 240.405168 
L 305.346211 240.405168 
L 305.580698 223.021483 
L 305.815184 229.342823 
L 306.049671 210.378804 
L 306.284157 240.405168 
L 307.222104 240.405168 
L 307.456591 219.070646 
L 307.691077 231.713326 
L 307.925564 236.45433 
L 308.16005 226.972321 
L 308.394537 236.45433 
L 308.629024 239.615 
L 308.86351 240.405168 
L 309.097997 212.749306 
L 309.332484 215.119809 
L 309.56697 109.237368 
L 309.801457 229.342823 
L 310.035943 239.615 
L 310.27043 188.254115 
L 310.504917 232.503493 
L 310.739403 240.405168 
L 310.97389 235.664163 
L 311.208377 238.824833 
L 311.442863 215.119809 
L 311.67735 213.539474 
L 311.911836 230.132991 
L 312.146323 119.509546 
L 312.615296 240.405168 
L 312.849783 227.762488 
L 313.08427 240.405168 
L 313.318756 125.040718 
L 313.787729 240.405168 
L 314.022216 230.132991 
L 314.256703 154.276914 
L 314.491189 238.824833 
L 314.725676 237.244498 
L 314.960162 226.182153 
L 315.194649 240.405168 
L 315.429136 240.405168 
L 315.663622 215.119809 
L 315.898109 239.615 
L 316.132596 239.615 
L 316.367082 238.824833 
L 316.601569 230.923158 
L 316.836055 235.664163 
L 317.070542 235.664163 
L 317.539515 240.405168 
L 318.242975 240.405168 
L 318.477462 235.664163 
L 318.711948 222.231316 
L 318.946435 220.650981 
L 319.180922 202.477129 
L 319.415408 231.713326 
L 319.649895 96.594689 
L 319.884382 146.375239 
L 320.118868 237.244498 
L 320.353355 208.798469 
L 320.587841 202.477129 
L 320.822328 236.45433 
L 321.056815 240.405168 
L 321.291301 217.490311 
L 321.525788 238.824833 
L 321.760275 239.615 
L 321.994761 182.722943 
L 322.229248 225.391986 
L 322.463734 240.405168 
L 322.698221 236.45433 
L 322.932708 240.405168 
L 323.870654 240.405168 
L 324.105141 238.034665 
L 324.339627 229.342823 
L 324.574114 163.758924 
L 325.043087 226.972321 
L 325.277574 226.182153 
L 325.512061 240.405168 
L 325.746547 240.405168 
L 325.981034 239.615 
L 326.21552 208.008302 
L 326.450007 238.034665 
L 326.684494 233.29366 
L 326.91898 239.615 
L 327.153467 238.034665 
L 327.387953 222.231316 
L 327.62244 196.945957 
L 327.856927 187.463947 
L 328.091413 192.204952 
L 328.560387 211.959139 
L 328.794873 240.405168 
L 329.02936 180.35244 
L 329.263846 238.034665 
L 329.498333 215.909976 
L 329.73282 238.824833 
L 329.967306 240.405168 
L 330.201793 239.615 
L 330.43628 191.414785 
L 330.670766 221.441148 
L 330.905253 211.168971 
L 331.139739 231.713326 
L 331.374226 231.713326 
L 331.608713 207.218134 
L 331.843199 224.601818 
L 332.077686 174.821268 
L 332.312173 234.873995 
L 332.546659 233.29366 
L 332.781146 240.405168 
L 333.015632 223.021483 
L 333.250119 233.29366 
L 333.484606 236.45433 
L 333.719092 238.034665 
L 333.953579 232.503493 
L 334.188066 238.034665 
L 334.422552 231.713326 
L 334.657039 211.168971 
L 334.891525 230.132991 
L 335.126012 238.824833 
L 335.360499 213.539474 
L 335.594985 211.168971 
L 335.829472 226.972321 
L 336.298445 240.405168 
L 336.532932 239.615 
L 336.767418 240.405168 
L 337.001905 235.664163 
L 337.236392 237.244498 
L 337.470878 240.405168 
L 337.939852 240.405168 
L 338.174338 230.132991 
L 338.408825 171.660598 
L 338.643311 230.923158 
L 338.877798 238.824833 
L 339.112285 217.490311 
L 339.346771 206.427967 
L 339.581258 237.244498 
L 339.815745 234.083828 
L 340.050231 240.405168 
L 340.284718 229.342823 
L 340.519204 239.615 
L 340.753691 238.824833 
L 340.988178 222.231316 
L 341.222664 240.405168 
L 341.457151 240.405168 
L 341.691637 237.244498 
L 341.926124 221.441148 
L 342.160611 237.244498 
L 342.395097 238.034665 
L 342.629584 240.405168 
L 343.098557 240.405168 
L 343.333044 238.824833 
L 343.56753 240.405168 
L 344.036504 240.405168 
L 344.27099 228.552656 
L 344.505477 156.647416 
L 344.739964 172.450766 
L 345.208937 240.405168 
L 345.443423 225.391986 
L 345.67791 240.405168 
L 345.912397 240.405168 
L 346.146883 230.923158 
L 346.38137 237.244498 
L 346.615857 223.021483 
L 346.850343 240.405168 
L 347.08483 156.647416 
L 347.319316 223.811651 
L 347.78829 237.244498 
L 348.022776 240.405168 
L 348.49175 240.405168 
L 348.726236 212.749306 
L 348.960723 167.709761 
L 349.195209 237.244498 
L 349.664183 205.637799 
L 349.898669 240.405168 
L 350.133156 239.615 
L 350.367643 226.182153 
L 350.836616 240.405168 
L 351.071102 240.405168 
L 351.305589 231.713326 
L 351.540076 238.824833 
L 351.774562 240.405168 
L 352.243536 240.405168 
L 352.478022 237.244498 
L 352.712509 240.405168 
L 353.181482 240.405168 
L 353.415969 239.615 
L 353.650455 235.664163 
L 353.884942 234.873995 
L 354.119428 232.503493 
L 354.353915 196.945957 
L 354.588402 221.441148 
L 354.822888 205.637799 
L 355.057375 240.405168 
L 358.105701 240.405168 
L 358.340188 234.873995 
L 358.574674 240.405168 
L 359.981594 240.405168 
L 360.216081 217.490311 
L 360.450567 205.637799 
L 360.685054 214.329641 
L 360.919541 238.824833 
L 361.154027 240.405168 
L 372.409385 240.405168 
L 372.643872 236.45433 
L 372.878358 240.405168 
L 373.581818 240.405168 
L 373.581818 240.405168 
" style="fill:none;stroke:#1f77b4;stroke-linecap:square;stroke-width:1.5;"/>
   </g>
   <g id="line2d_15">
    <path clip-path="url(#p428172278e)" d="M 69.218182 232.352054 
L 69.452668 224.110888 
L 69.687155 223.863808 
L 70.156128 230.744285 
L 70.390615 224.866019 
L 70.625102 229.547298 
L 70.859588 226.44318 
L 71.094075 226.014727 
L 71.328561 222.737365 
L 71.563048 227.909132 
L 71.797535 218.422714 
L 72.032021 224.928887 
L 72.266508 221.448559 
L 72.500995 229.409632 
L 72.735481 224.917954 
L 72.969968 229.066922 
L 73.204454 224.774784 
L 73.673428 233.302246 
L 73.907914 232.618619 
L 74.142401 226.687631 
L 74.376888 214.197591 
L 74.611374 227.68848 
L 74.845861 226.72411 
L 75.080347 226.786556 
L 76.018294 235.501063 
L 76.252781 234.273932 
L 76.487267 225.492796 
L 76.721754 220.89925 
L 76.95624 229.531341 
L 77.190727 230.393012 
L 77.425214 224.160031 
L 77.6597 213.058226 
L 77.894187 226.351554 
L 78.128673 227.298224 
L 78.36316 230.64275 
L 78.597647 227.72011 
L 78.832133 215.237951 
L 79.06662 227.711227 
L 79.301107 228.596463 
L 79.535593 228.173576 
L 79.77008 229.125896 
L 80.004566 226.099245 
L 80.239053 231.002104 
L 80.47354 229.52031 
L 80.708026 232.124394 
L 80.942513 231.62614 
L 81.177 226.381569 
L 81.645973 237.716497 
L 81.880459 234.412089 
L 82.114946 217.638876 
L 82.349433 228.337335 
L 82.583919 228.39968 
L 82.818406 234.16576 
L 83.052893 233.16432 
L 83.287379 230.784394 
L 83.521866 232.941336 
L 83.756352 230.277505 
L 83.990839 233.778944 
L 84.225326 224.111435 
L 84.459812 219.95901 
L 84.694299 228.03549 
L 84.928786 230.354376 
L 85.163272 230.768258 
L 85.397759 224.040155 
L 85.632245 228.920188 
L 85.866732 215.917731 
L 86.101219 231.273752 
L 86.335705 231.437358 
L 86.570192 231.048218 
L 86.804679 228.862875 
L 87.039165 234.399108 
L 87.273652 233.443174 
L 87.508138 233.665471 
L 87.742625 232.830025 
L 87.977112 232.870066 
L 88.211598 235.740431 
L 88.446085 234.061988 
L 88.680572 236.944654 
L 88.915058 233.630878 
L 89.149545 232.695447 
L 89.384031 234.962895 
L 89.618518 235.439564 
L 89.853005 236.192877 
L 90.087491 237.78949 
L 90.321978 237.413073 
L 90.556464 235.06568 
L 90.790951 239.218771 
L 91.025438 237.821168 
L 91.259924 232.783985 
L 91.494411 231.409871 
L 91.728898 227.372103 
L 91.963384 172.052259 
L 92.197871 218.014892 
L 92.666844 226.728019 
L 92.901331 228.283913 
L 93.135817 231.075861 
L 93.370304 236.11314 
L 93.604791 235.934717 
L 93.839277 231.538764 
L 94.073764 229.579462 
L 94.30825 237.342548 
L 94.542737 236.70404 
L 94.777224 235.133314 
L 95.01171 228.699236 
L 95.246197 227.255644 
L 95.480684 220.610672 
L 95.71517 219.767611 
L 95.949657 241.884976 
L 96.184143 239.236045 
L 96.41863 227.327028 
L 96.653117 234.914571 
L 96.887603 238.471995 
L 97.12209 238.839447 
L 97.356577 237.124652 
L 97.591063 237.293933 
L 97.82555 239.43551 
L 98.060036 238.950335 
L 98.52901 234.869741 
L 98.763496 235.852264 
L 98.997983 236.089219 
L 99.23247 235.245311 
L 99.466956 239.090022 
L 99.701443 235.386121 
L 99.935929 241.662453 
L 100.170416 237.585339 
L 100.404903 240.919486 
L 100.639389 240.210616 
L 100.873876 238.977625 
L 101.108363 239.407161 
L 101.342849 240.271415 
L 102.046309 239.649043 
L 102.280796 239.688568 
L 103.218742 239.149293 
L 103.453229 240.070539 
L 103.687715 239.682359 
L 103.922202 239.934814 
L 104.156689 238.988162 
L 104.391175 240.017374 
L 104.625662 239.807689 
L 104.860148 239.878159 
L 105.329122 239.671618 
L 106.736041 239.829889 
L 122.915618 239.829889 
L 123.150105 236.106094 
L 123.384592 235.15592 
L 123.853565 238.175117 
L 124.557025 239.17907 
L 124.791511 239.606049 
L 125.025998 239.370865 
L 125.260485 238.814838 
L 125.494971 239.059634 
L 125.729458 239.536231 
L 125.963945 239.585813 
L 126.198431 239.153516 
L 126.432918 238.962903 
L 126.667404 238.960668 
L 126.901891 238.422733 
L 127.370864 240.057258 
L 127.605351 240.043695 
L 127.839838 239.850931 
L 128.543297 240.002677 
L 130.41919 239.664828 
L 130.653677 239.743867 
L 130.888164 239.569793 
L 131.12265 239.753441 
L 131.357137 231.02062 
L 131.591623 237.638574 
L 131.82611 237.92282 
L 132.060597 235.333374 
L 132.295083 237.671687 
L 132.52957 236.991763 
L 132.764057 234.740081 
L 132.998543 236.145459 
L 133.467516 237.007601 
L 133.702003 238.590855 
L 134.170976 238.609749 
L 134.405463 238.341592 
L 134.63995 238.337119 
L 135.108923 235.937735 
L 135.343409 239.837764 
L 135.577896 239.247416 
L 136.046869 233.8913 
L 136.281356 228.171078 
L 136.515843 234.963641 
L 136.750329 236.734603 
L 136.984816 236.43238 
L 137.453789 238.446045 
L 137.688276 239.210638 
L 137.922762 238.855552 
L 138.157249 237.053614 
L 138.626222 238.913075 
L 138.860709 238.943683 
L 139.095195 237.767105 
L 139.329682 238.16219 
L 139.564169 238.009286 
L 139.798655 237.344117 
L 140.033142 237.751991 
L 140.267629 239.126394 
L 140.502115 231.28843 
L 140.736602 237.21101 
L 140.971088 237.193117 
L 141.205575 238.436024 
L 141.440062 238.530304 
L 141.674548 237.132409 
L 141.909035 228.281574 
L 142.143522 236.661165 
L 142.378008 225.362971 
L 142.612495 233.128349 
L 142.846981 234.351566 
L 143.315955 213.110286 
L 143.550441 211.290185 
L 143.784928 225.397579 
L 144.019414 225.947879 
L 144.253901 221.316034 
L 144.488388 221.732202 
L 144.722874 231.987783 
L 144.957361 222.030181 
L 145.191848 226.738868 
L 145.426334 221.919385 
L 145.660821 226.522203 
L 145.895307 234.293616 
L 146.129794 230.995169 
L 146.364281 231.987435 
L 146.598767 232.005805 
L 146.833254 230.999046 
L 147.067741 231.180351 
L 147.302227 230.690817 
L 147.536714 237.680454 
L 147.7712 236.51872 
L 148.005687 221.983983 
L 148.240174 233.264118 
L 148.47466 234.54903 
L 148.709147 234.421867 
L 148.943634 234.423997 
L 149.17812 233.346757 
L 149.412607 227.205371 
L 149.647093 229.879894 
L 149.88158 234.220195 
L 150.116067 232.990671 
L 150.350553 235.956134 
L 150.58504 232.226466 
L 150.819527 200.692369 
L 151.054013 205.929414 
L 151.2885 223.302609 
L 151.522986 209.382437 
L 151.99196 228.212845 
L 152.226446 230.879492 
L 152.460933 226.94754 
L 152.69542 219.985989 
L 152.929906 221.61029 
L 153.164393 222.212112 
L 153.398879 220.451525 
L 153.633366 221.575685 
L 153.867853 207.145808 
L 154.336826 221.885464 
L 154.571313 218.165651 
L 154.805799 228.471847 
L 155.040286 229.654321 
L 155.274772 229.124403 
L 155.509259 232.657994 
L 155.743746 233.235484 
L 155.978232 229.708601 
L 156.212719 229.928278 
L 156.681692 233.328757 
L 156.916179 229.896218 
L 157.150665 228.463325 
L 157.385152 214.217471 
L 157.619639 227.604016 
L 157.854125 221.31067 
L 158.088612 231.362907 
L 158.323098 230.955564 
L 158.557585 229.720568 
L 158.792072 234.913814 
L 159.026558 231.703663 
L 159.261045 232.445159 
L 159.495532 234.358753 
L 159.730018 232.830311 
L 159.964505 233.887656 
L 160.198991 233.65338 
L 160.433478 233.646182 
L 160.667965 234.474387 
L 160.902451 233.71472 
L 161.136938 229.44784 
L 161.371425 238.934173 
L 161.605911 233.500072 
L 161.840398 239.378856 
L 162.309371 236.591659 
L 162.543858 234.79648 
L 162.778344 229.665683 
L 163.012831 235.621662 
L 163.247318 233.1566 
L 163.481804 225.68105 
L 163.716291 228.185189 
L 163.950777 233.201239 
L 164.185264 233.321252 
L 164.419751 233.096739 
L 164.654237 230.89644 
L 164.888724 212.077491 
L 165.123211 228.931926 
L 165.357697 231.223241 
L 165.592184 228.915321 
L 165.82667 230.127456 
L 166.061157 230.065139 
L 166.295644 232.990086 
L 166.53013 232.288406 
L 166.764617 219.436891 
L 166.999104 222.043259 
L 167.23359 214.029294 
L 167.468077 212.627702 
L 167.93705 213.699173 
L 168.171537 220.099525 
L 168.406023 220.199959 
L 168.64051 199.401187 
L 168.874996 213.705168 
L 169.34397 223.342482 
L 169.578456 223.699734 
L 170.04743 231.180719 
L 170.281916 230.135747 
L 170.516403 224.073914 
L 170.750889 224.387766 
L 171.219863 229.956498 
L 171.454349 227.751293 
L 171.688836 228.0591 
L 171.923323 209.320406 
L 172.157809 222.840402 
L 172.392296 220.563587 
L 172.861269 235.859534 
L 173.095756 237.451368 
L 173.330242 236.147181 
L 173.564729 234.060936 
L 173.799216 233.970315 
L 174.033702 233.479028 
L 174.268189 218.112234 
L 174.502675 230.57357 
L 174.971649 209.512047 
L 175.206135 214.245905 
L 175.440622 222.96981 
L 175.675109 206.002916 
L 175.909595 207.3382 
L 176.144082 218.209979 
L 176.613055 216.213863 
L 177.316515 229.558092 
L 177.551002 231.801076 
L 177.785488 227.445136 
L 178.019975 225.753053 
L 178.254461 233.737622 
L 178.488948 229.407596 
L 178.723435 229.229048 
L 178.957921 233.711141 
L 179.192408 235.046291 
L 179.426895 231.69217 
L 179.661381 232.223779 
L 179.895868 240.750003 
L 180.130354 238.67183 
L 180.364841 238.165293 
L 180.599328 241.051356 
L 180.833814 240.808114 
L 181.068301 234.939937 
L 181.302788 235.903991 
L 181.537274 237.85328 
L 181.771761 238.763991 
L 182.006247 236.783897 
L 182.240734 239.157993 
L 182.475221 237.447802 
L 182.709707 238.613127 
L 183.17868 238.095262 
L 183.413167 237.55753 
L 183.88214 239.244632 
L 184.116627 238.602358 
L 184.351114 238.475232 
L 184.5856 238.930984 
L 184.820087 238.011918 
L 185.28906 240.060404 
L 185.523547 239.638526 
L 185.758033 239.633552 
L 186.227007 240.00771 
L 187.39944 239.76183 
L 187.868413 239.672331 
L 188.1029 239.733898 
L 188.337386 239.657622 
L 188.571873 239.776076 
L 188.806359 239.520808 
L 189.040846 239.881192 
L 189.275333 239.992855 
L 189.978793 239.734298 
L 200.296204 239.829889 
L 200.530691 235.857841 
L 200.765177 238.816369 
L 202.172097 239.83612 
L 202.406584 239.37072 
L 202.64107 239.204675 
L 202.875557 239.755941 
L 203.34453 239.661825 
L 203.579017 239.295839 
L 203.813503 239.483971 
L 204.04799 239.391051 
L 204.282477 238.860004 
L 204.516963 240.169886 
L 204.985936 239.806117 
L 206.392856 239.890957 
L 207.330803 239.722125 
L 207.565289 239.810715 
L 207.799776 239.701734 
L 208.034263 239.8714 
L 208.268749 239.545116 
L 208.503236 240.022047 
L 208.737722 239.85003 
L 210.848102 239.829889 
L 211.082589 235.361335 
L 211.551562 238.491206 
L 211.786048 237.794282 
L 212.020535 238.68655 
L 212.489508 239.363381 
L 212.723995 239.641098 
L 212.958482 236.235924 
L 213.192968 238.159801 
L 213.427455 238.874726 
L 213.661941 239.123693 
L 214.130915 238.845468 
L 214.365401 239.119137 
L 214.599888 239.169135 
L 214.834375 238.096316 
L 215.303348 239.973529 
L 215.537834 239.566688 
L 215.772321 239.78357 
L 216.006808 239.584905 
L 216.241294 239.703827 
L 216.475781 239.610968 
L 216.710268 239.200771 
L 216.944754 240.192014 
L 217.413727 239.791281 
L 218.351674 239.713343 
L 218.586161 239.833418 
L 218.820647 239.566094 
L 219.055134 239.902101 
L 219.28962 239.915772 
L 219.524107 239.746062 
L 219.99308 239.741458 
L 220.227567 239.673101 
L 220.462054 239.842306 
L 220.69654 239.103745 
L 220.931027 239.837873 
L 221.165513 233.283905 
L 221.4 238.120325 
L 221.634487 235.62869 
L 221.868973 224.33624 
L 222.10346 222.364561 
L 222.337946 212.281156 
L 222.572433 214.190733 
L 222.80692 227.077609 
L 223.041406 229.240012 
L 223.275893 228.678676 
L 223.51038 230.212914 
L 223.744866 233.070791 
L 223.979353 233.402052 
L 224.213839 232.740974 
L 224.448326 232.491503 
L 224.682813 234.512842 
L 224.917299 234.674781 
L 225.151786 235.630915 
L 225.386273 232.275276 
L 225.620759 211.63198 
L 225.855246 223.57683 
L 226.089732 224.584086 
L 226.324219 222.439295 
L 226.558706 222.551194 
L 227.027679 232.612011 
L 227.262166 235.296061 
L 227.496652 235.630616 
L 227.731139 235.182463 
L 227.965625 237.783121 
L 228.200112 230.366254 
L 228.434599 233.75014 
L 228.669085 229.29576 
L 228.903572 232.837943 
L 229.138059 222.758292 
L 229.372545 223.437765 
L 229.607032 231.624095 
L 229.841518 231.087749 
L 230.076005 231.608873 
L 230.310492 230.659974 
L 230.544978 238.978685 
L 230.779465 238.601816 
L 231.013952 221.666681 
L 231.482925 233.318557 
L 231.951898 216.841024 
L 232.186385 228.56242 
L 232.420871 216.81936 
L 232.655358 227.441653 
L 232.889845 226.722941 
L 233.358818 233.959495 
L 233.593304 234.67571 
L 233.827791 226.515482 
L 234.062278 228.072928 
L 234.296764 231.720308 
L 234.765737 220.255408 
L 235.000224 221.736846 
L 235.469197 216.601092 
L 235.703684 187.904984 
L 235.938171 216.808373 
L 236.172657 205.195235 
L 236.407144 223.650406 
L 236.64163 226.890317 
L 236.876117 228.170006 
L 237.110604 231.28076 
L 237.34509 225.660885 
L 237.579577 223.372505 
L 237.814064 224.77765 
L 238.283037 185.806601 
L 238.517523 189.051714 
L 238.75201 198.938268 
L 238.986497 190.225672 
L 239.689957 221.006619 
L 239.924443 226.230549 
L 240.15893 227.096878 
L 240.393416 218.663223 
L 240.627903 227.570079 
L 240.86239 225.623847 
L 241.331363 215.271374 
L 241.56585 221.860681 
L 241.800336 219.91511 
L 242.034823 220.291147 
L 243.207256 239.089058 
L 243.441743 233.209242 
L 243.676229 241.405313 
L 243.910716 236.083241 
L 244.379689 215.955304 
L 244.614176 228.910419 
L 244.848662 230.186571 
L 245.083149 228.396255 
L 245.317636 233.730718 
L 245.552122 234.85169 
L 245.786609 228.264001 
L 246.021095 232.045626 
L 246.255582 213.772165 
L 246.490069 208.339783 
L 246.724555 213.250812 
L 246.959042 220.958571 
L 247.193529 224.484012 
L 247.662502 220.564369 
L 247.896988 223.932327 
L 248.131475 220.282585 
L 248.365962 230.242239 
L 248.600448 207.412803 
L 249.069421 228.04809 
L 249.303908 229.286389 
L 249.538395 226.920411 
L 249.772881 229.399632 
L 250.007368 228.11695 
L 250.241855 230.614711 
L 250.476341 228.41889 
L 250.710828 229.929228 
L 250.945314 234.555076 
L 251.179801 231.236362 
L 251.414288 218.357219 
L 251.648774 229.870376 
L 251.883261 229.444687 
L 252.117748 228.216045 
L 252.352234 228.081213 
L 252.586721 231.666178 
L 252.821207 222.727952 
L 253.055694 230.588317 
L 253.524667 220.290573 
L 254.228127 228.868341 
L 254.462614 230.318893 
L 254.6971 224.812994 
L 254.931587 193.913921 
L 255.166074 215.128877 
L 255.40056 225.297341 
L 255.635047 225.475577 
L 255.869534 207.716082 
L 256.10402 227.37772 
L 256.338507 225.168641 
L 256.572993 227.89107 
L 256.80748 221.517746 
L 257.041967 224.076085 
L 257.276453 229.647698 
L 257.51094 219.489429 
L 257.745427 178.70823 
L 257.979913 180.589995 
L 258.2144 205.383314 
L 258.448886 194.780719 
L 259.152346 228.587949 
L 259.386833 227.983211 
L 259.62132 222.8618 
L 259.855806 212.089268 
L 260.090293 216.358559 
L 260.324779 226.8903 
L 260.793753 220.92737 
L 261.028239 204.255694 
L 261.262726 215.407297 
L 261.497212 214.575245 
L 261.731699 227.116581 
L 261.966186 231.849272 
L 262.200672 228.015449 
L 262.435159 236.96181 
L 262.669646 230.806987 
L 262.904132 228.195317 
L 263.138619 216.545527 
L 263.373105 226.081748 
L 263.607592 226.85333 
L 263.842079 231.892696 
L 264.076565 232.390558 
L 264.311052 233.407531 
L 264.545539 231.371823 
L 264.780025 231.677501 
L 265.014512 236.45073 
L 265.248998 235.573874 
L 265.483485 228.783216 
L 265.717972 235.656219 
L 265.952458 237.995202 
L 266.186945 235.021957 
L 266.421432 235.059727 
L 266.655918 229.705396 
L 267.124891 236.969001 
L 267.359378 238.106388 
L 267.593865 236.22484 
L 268.062838 240.229497 
L 268.531811 238.498059 
L 268.766298 237.262315 
L 269.000784 239.589617 
L 269.235271 238.066751 
L 269.469758 239.616981 
L 269.704244 238.563621 
L 269.938731 238.077719 
L 270.173218 238.540272 
L 270.407704 237.829413 
L 270.642191 239.99515 
L 270.876677 239.307158 
L 271.111164 240.10366 
L 271.345651 240.139059 
L 271.580137 240.01665 
L 272.049111 239.513541 
L 272.283597 238.506954 
L 272.518084 239.576368 
L 272.75257 239.422756 
L 272.987057 239.7084 
L 273.221544 239.165237 
L 273.45603 239.875837 
L 274.15949 239.697287 
L 274.393977 239.200036 
L 274.628463 239.966801 
L 274.86295 239.799031 
L 275.097437 239.828981 
L 275.331923 239.650022 
L 275.800896 239.670664 
L 276.035383 239.578848 
L 276.26987 239.903876 
L 276.97333 239.830698 
L 278.145763 239.845156 
L 279.552682 239.79785 
L 279.787169 239.840267 
L 280.021656 239.758695 
L 280.256142 238.388411 
L 280.490629 239.454854 
L 281.897549 239.832225 
L 282.366522 239.595434 
L 282.601009 239.553905 
L 282.835495 239.739332 
L 283.773442 239.640149 
L 284.007928 239.457583 
L 284.242415 239.957777 
L 284.711388 239.781898 
L 285.414848 239.853153 
L 286.352795 239.766702 
L 286.821768 239.816559 
L 287.525228 239.788167 
L 287.759714 239.851083 
L 287.994201 239.7273 
L 288.228687 239.9046 
L 288.932147 239.821463 
L 290.339067 239.81209 
L 291.277014 239.828751 
L 291.5115 237.095092 
L 291.745987 239.130733 
L 293.152907 239.834173 
L 293.387393 239.51421 
L 293.62188 239.400055 
L 293.856366 239.77905 
L 294.32534 239.714345 
L 294.559826 239.462729 
L 294.794313 239.59207 
L 295.0288 239.528188 
L 295.263286 239.163093 
L 295.497773 240.063637 
L 295.966746 239.813546 
L 296.435719 239.899585 
L 296.670206 237.905773 
L 296.904693 239.369347 
L 298.311612 239.758917 
L 298.780586 239.429176 
L 299.015072 235.601154 
L 299.249559 238.52096 
L 299.484045 238.724357 
L 299.718532 238.333973 
L 299.953019 238.880363 
L 300.421992 239.038218 
L 300.656478 239.883257 
L 300.890965 239.363655 
L 301.125452 239.136906 
L 301.359938 239.72502 
L 301.828912 239.613572 
L 302.063398 239.282295 
L 302.297885 239.463995 
L 302.532371 239.339772 
L 302.766858 238.707585 
L 303.001345 240.10766 
L 303.470318 239.650764 
L 303.704805 239.876316 
L 304.173778 239.943551 
L 304.408264 239.765671 
L 304.642751 239.989357 
L 305.580698 239.738671 
L 305.815184 234.232479 
L 306.049671 234.933283 
L 306.284157 228.187109 
L 306.518644 235.822893 
L 306.753131 236.137648 
L 306.987617 237.435591 
L 307.222104 237.927071 
L 307.456591 238.762967 
L 307.691077 232.180346 
L 307.925564 234.077901 
L 308.16005 234.676327 
L 308.394537 231.966808 
L 308.629024 235.349605 
L 309.097997 236.785939 
L 309.332484 227.889647 
L 309.56697 225.667623 
L 309.801457 191.628614 
L 310.035943 220.184904 
L 310.27043 227.359648 
L 310.504917 213.135688 
L 310.739403 224.203423 
L 310.97389 229.773512 
L 311.208377 231.409625 
L 311.442863 231.465349 
L 311.67735 222.743912 
L 311.911836 220.740539 
L 312.146323 229.623504 
L 312.38081 193.398949 
L 312.849783 216.829321 
L 313.08427 216.725132 
L 313.318756 223.038964 
L 313.553243 183.220361 
L 313.787729 211.456243 
L 314.022216 224.706604 
L 314.256703 218.129295 
L 314.491189 196.571495 
L 314.725676 222.980857 
L 314.960162 226.561649 
L 315.194649 225.781518 
L 315.429136 221.429778 
L 315.663622 222.073824 
L 315.898109 221.708623 
L 316.132596 223.890491 
L 316.367082 230.32762 
L 316.601569 229.128394 
L 317.070542 228.48352 
L 317.305029 225.176783 
L 317.774002 239.920398 
L 318.242975 231.488323 
L 318.477462 242.116364 
L 318.711948 237.92531 
L 318.946435 230.314992 
L 319.180922 230.236317 
L 319.415408 223.66832 
L 319.649895 228.310766 
L 319.884382 189.670325 
L 320.118868 191.876031 
L 320.353355 217.626253 
L 320.822328 210.530067 
L 321.056815 222.093296 
L 321.291301 224.378404 
L 321.525788 225.496006 
L 321.760275 228.155913 
L 321.994761 224.46284 
L 322.229248 210.324653 
L 322.463734 223.84657 
L 322.698221 224.58678 
L 322.932708 221.972453 
L 323.401681 227.984643 
L 323.636168 220.875021 
L 323.870654 233.751476 
L 324.105141 239.36338 
L 324.339627 232.987756 
L 324.574114 232.065947 
L 324.808601 216.045632 
L 325.277574 223.735959 
L 325.512061 226.518058 
L 325.746547 230.878116 
L 325.981034 229.062895 
L 326.21552 235.778946 
L 326.450007 227.778378 
L 326.684494 230.271965 
L 326.91898 228.736973 
L 327.387953 234.952566 
L 328.091413 214.82217 
L 328.3259 209.314112 
L 328.560387 207.565816 
L 329.02936 227.314794 
L 329.263846 210.847137 
L 329.498333 226.907412 
L 329.73282 221.963725 
L 329.967306 226.700397 
L 330.201793 228.673979 
L 330.43628 232.993913 
L 330.670766 218.153479 
L 330.905253 224.359779 
L 331.139739 217.703996 
L 331.374226 220.446224 
L 331.608713 221.244691 
L 331.843199 215.614208 
L 332.077686 223.010695 
L 332.312173 208.863454 
L 332.546659 223.125364 
L 333.015632 227.425059 
L 333.250119 228.911965 
L 333.484606 231.708043 
L 333.719092 232.188955 
L 333.953579 233.009034 
L 334.188066 228.369387 
L 334.422552 228.369086 
L 334.657039 232.224399 
L 334.891525 224.595927 
L 335.126012 229.146644 
L 335.360499 228.672765 
L 335.594985 221.977783 
L 335.829472 222.262451 
L 336.063959 224.281196 
L 336.298445 232.556623 
L 336.532932 234.211656 
L 336.767418 234.646914 
L 337.001905 232.36473 
L 337.236392 236.854976 
L 337.470878 235.73682 
L 337.705365 236.018036 
L 337.939852 234.484167 
L 338.174338 236.632624 
L 338.408825 231.808489 
L 338.643311 213.079609 
L 338.877798 227.622035 
L 339.112285 230.990678 
L 339.581258 219.485824 
L 339.815745 231.78493 
L 340.050231 231.743997 
L 340.284718 236.915695 
L 340.519204 230.340955 
L 340.988178 236.065392 
L 341.222664 231.535573 
L 341.457151 233.873419 
L 341.691637 232.825075 
L 341.926124 233.953521 
L 342.160611 227.969124 
L 342.395097 228.671279 
L 342.629584 234.821437 
L 342.864071 236.977879 
L 343.098557 234.351894 
L 343.333044 235.09474 
L 343.56753 239.318535 
L 343.802017 239.630453 
L 344.27099 237.689023 
L 344.505477 235.922383 
L 344.739964 211.784213 
L 344.97445 209.050624 
L 345.443423 227.275817 
L 345.67791 224.165747 
L 346.146883 234.394604 
L 346.38137 232.629484 
L 346.615857 234.099799 
L 346.850343 226.298223 
L 347.08483 232.508559 
L 347.319316 208.697841 
L 347.553803 224.099991 
L 347.78829 223.122819 
L 348.022776 226.227526 
L 348.257263 226.426042 
L 348.49175 225.4583 
L 348.726236 232.395721 
L 348.960723 229.405175 
L 349.195209 212.38429 
L 349.429696 224.792926 
L 349.664183 225.393955 
L 349.898669 220.724051 
L 350.133156 229.805317 
L 350.367643 229.838131 
L 350.602129 228.388215 
L 350.836616 230.758016 
L 351.071102 225.734458 
L 351.305589 234.365626 
L 351.540076 234.432322 
L 351.774562 234.083369 
L 352.009049 233.972054 
L 352.243536 235.053869 
L 352.478022 234.129107 
L 352.712509 232.005878 
L 352.946995 232.882495 
L 353.181482 240.967665 
L 353.415969 236.822233 
L 353.650455 235.417476 
L 353.884942 237.763309 
L 354.353915 235.497572 
L 354.588402 223.671252 
L 354.822888 230.334273 
L 355.057375 222.12698 
L 355.291862 233.278979 
L 355.760835 235.389387 
L 355.995321 235.946568 
L 356.229808 236.893562 
L 356.464295 235.990622 
L 356.698781 236.168442 
L 356.933268 235.578704 
L 357.167755 237.983803 
L 357.402241 237.977246 
L 357.636728 236.385757 
L 357.871214 236.993782 
L 358.340188 234.600278 
L 358.574674 236.610689 
L 358.809161 237.589104 
L 359.043648 240.572989 
L 359.278134 239.877669 
L 359.512621 239.9579 
L 359.981594 240.433934 
L 360.216081 240.34945 
L 360.685054 226.910095 
L 360.919541 227.242144 
L 361.154027 233.315974 
L 362.091974 238.180816 
L 362.32646 237.123933 
L 362.560947 237.938024 
L 362.795434 236.655504 
L 363.02992 238.724054 
L 363.264407 239.068119 
L 363.73338 237.141712 
L 363.967867 236.756843 
L 364.202353 235.999636 
L 364.43684 236.857328 
L 364.905813 240.79881 
L 365.1403 240.117989 
L 365.374786 239.946511 
L 365.609273 240.267205 
L 365.84376 240.352793 
L 366.078246 240.308236 
L 366.312733 240.082599 
L 366.547219 240.165409 
L 367.250679 239.401294 
L 367.719653 239.298291 
L 367.954139 239.499688 
L 368.188626 239.161179 
L 368.657599 239.812676 
L 368.892086 240.288895 
L 369.361059 239.714739 
L 369.595546 239.550201 
L 370.064519 239.743943 
L 370.533492 239.829889 
L 372.643872 239.829889 
L 372.878358 238.588624 
L 373.112845 239.513164 
L 373.581818 239.629039 
L 373.581818 239.629039 
" style="fill:none;stroke:#ff7f0e;stroke-linecap:square;stroke-width:1.5;"/>
   </g>
   <g id="patch_3">
    <path d="M 54 252 
L 54 34.56 
" style="fill:none;stroke:#000000;stroke-linecap:square;stroke-linejoin:miter;stroke-width:0.8;"/>
   </g>
   <g id="patch_4">
    <path d="M 388.8 252 
L 388.8 34.56 
" style="fill:none;stroke:#000000;stroke-linecap:square;stroke-linejoin:miter;stroke-width:0.8;"/>
   </g>
   <g id="patch_5">
    <path d="M 54 252 
L 388.8 252 
" style="fill:none;stroke:#000000;stroke-linecap:square;stroke-linejoin:miter;stroke-width:0.8;"/>
   </g>
   <g id="patch_6">
    <path d="M 54 34.56 
L 388.8 34.56 
" style="fill:none;stroke:#000000;stroke-linecap:square;stroke-linejoin:miter;stroke-width:0.8;"/>
   </g>
   <g id="legend_1">
    <g id="patch_7">
     <path d="M 271.970312 71.91625 
L 381.8 71.91625 
Q 383.8 71.91625 383.8 69.91625 
L 383.8 41.56 
Q 383.8 39.56 381.8 39.56 
L 271.970312 39.56 
Q 269.970312 39.56 269.970312 41.56 
L 269.970312 69.91625 
Q 269.970312 71.91625 271.970312 71.91625 
z
" style="fill:#ffffff;opacity:0.8;stroke:#cccccc;stroke-linejoin:miter;"/>
    </g>
    <g id="line2d_16">
     <path d="M 273.970312 47.658437 
L 293.970312 47.658437 
" style="fill:none;stroke:#1f77b4;stroke-linecap:square;stroke-width:1.5;"/>
    </g>
    <g id="line2d_17"/>
    <g id="text_14">
     <!-- True value -->
     <defs>
      <path d="M -0.296875 72.90625 
L 61.375 72.90625 
L 61.375 64.59375 
L 35.5 64.59375 
L 35.5 0 
L 25.59375 0 
L 25.59375 64.59375 
L -0.296875 64.59375 
z
" id="DejaVuSans-84"/>
      <path d="M 41.109375 46.296875 
Q 39.59375 47.171875 37.8125 47.578125 
Q 36.03125 48 33.890625 48 
Q 26.265625 48 22.1875 43.046875 
Q 18.109375 38.09375 18.109375 28.8125 
L 18.109375 0 
L 9.078125 0 
L 9.078125 54.6875 
L 18.109375 54.6875 
L 18.109375 46.1875 
Q 20.953125 51.171875 25.484375 53.578125 
Q 30.03125 56 36.53125 56 
Q 37.453125 56 38.578125 55.875 
Q 39.703125 55.765625 41.0625 55.515625 
z
" id="DejaVuSans-114"/>
      <path d="M 8.5 21.578125 
L 8.5 54.6875 
L 17.484375 54.6875 
L 17.484375 21.921875 
Q 17.484375 14.15625 20.5 10.265625 
Q 23.53125 6.390625 29.59375 6.390625 
Q 36.859375 6.390625 41.078125 11.03125 
Q 45.3125 15.671875 45.3125 23.6875 
L 45.3125 54.6875 
L 54.296875 54.6875 
L 54.296875 0 
L 45.3125 0 
L 45.3125 8.40625 
Q 42.046875 3.421875 37.71875 1 
Q 33.40625 -1.421875 27.6875 -1.421875 
Q 18.265625 -1.421875 13.375 4.4375 
Q 8.5 10.296875 8.5 21.578125 
z
M 31.109375 56 
z
" id="DejaVuSans-117"/>
      <path d="M 56.203125 29.59375 
L 56.203125 25.203125 
L 14.890625 25.203125 
Q 15.484375 15.921875 20.484375 11.0625 
Q 25.484375 6.203125 34.421875 6.203125 
Q 39.59375 6.203125 44.453125 7.46875 
Q 49.3125 8.734375 54.109375 11.28125 
L 54.109375 2.78125 
Q 49.265625 0.734375 44.1875 -0.34375 
Q 39.109375 -1.421875 33.890625 -1.421875 
Q 20.796875 -1.421875 13.15625 6.1875 
Q 5.515625 13.8125 5.515625 26.8125 
Q 5.515625 40.234375 12.765625 48.109375 
Q 20.015625 56 32.328125 56 
Q 43.359375 56 49.78125 48.890625 
Q 56.203125 41.796875 56.203125 29.59375 
z
M 47.21875 32.234375 
Q 47.125 39.59375 43.09375 43.984375 
Q 39.0625 48.390625 32.421875 48.390625 
Q 24.90625 48.390625 20.390625 44.140625 
Q 15.875 39.890625 15.1875 32.171875 
z
" id="DejaVuSans-101"/>
      <path id="DejaVuSans-32"/>
      <path d="M 2.984375 54.6875 
L 12.5 54.6875 
L 29.59375 8.796875 
L 46.6875 54.6875 
L 56.203125 54.6875 
L 35.6875 0 
L 23.484375 0 
z
" id="DejaVuSans-118"/>
      <path d="M 34.28125 27.484375 
Q 23.390625 27.484375 19.1875 25 
Q 14.984375 22.515625 14.984375 16.5 
Q 14.984375 11.71875 18.140625 8.90625 
Q 21.296875 6.109375 26.703125 6.109375 
Q 34.1875 6.109375 38.703125 11.40625 
Q 43.21875 16.703125 43.21875 25.484375 
L 43.21875 27.484375 
z
M 52.203125 31.203125 
L 52.203125 0 
L 43.21875 0 
L 43.21875 8.296875 
Q 40.140625 3.328125 35.546875 0.953125 
Q 30.953125 -1.421875 24.3125 -1.421875 
Q 15.921875 -1.421875 10.953125 3.296875 
Q 6 8.015625 6 15.921875 
Q 6 25.140625 12.171875 29.828125 
Q 18.359375 34.515625 30.609375 34.515625 
L 43.21875 34.515625 
L 43.21875 35.40625 
Q 43.21875 41.609375 39.140625 45 
Q 35.0625 48.390625 27.6875 48.390625 
Q 23 48.390625 18.546875 47.265625 
Q 14.109375 46.140625 10.015625 43.890625 
L 10.015625 52.203125 
Q 14.9375 54.109375 19.578125 55.046875 
Q 24.21875 56 28.609375 56 
Q 40.484375 56 46.34375 49.84375 
Q 52.203125 43.703125 52.203125 31.203125 
z
" id="DejaVuSans-97"/>
      <path d="M 9.421875 75.984375 
L 18.40625 75.984375 
L 18.40625 0 
L 9.421875 0 
z
" id="DejaVuSans-108"/>
     </defs>
     <g transform="translate(301.970312 51.158437)scale(0.1 -0.1)">
      <use xlink:href="#DejaVuSans-84"/>
      <use x="60.865234" xlink:href="#DejaVuSans-114"/>
      <use x="101.978516" xlink:href="#DejaVuSans-117"/>
      <use x="165.357422" xlink:href="#DejaVuSans-101"/>
      <use x="226.880859" xlink:href="#DejaVuSans-32"/>
      <use x="258.667969" xlink:href="#DejaVuSans-118"/>
      <use x="317.847656" xlink:href="#DejaVuSans-97"/>
      <use x="379.126953" xlink:href="#DejaVuSans-108"/>
      <use x="406.910156" xlink:href="#DejaVuSans-117"/>
      <use x="470.289062" xlink:href="#DejaVuSans-101"/>
     </g>
    </g>
    <g id="line2d_18">
     <path d="M 273.970312 62.336562 
L 293.970312 62.336562 
" style="fill:none;stroke:#ff7f0e;stroke-linecap:square;stroke-width:1.5;"/>
    </g>
    <g id="line2d_19"/>
    <g id="text_15">
     <!-- Predicted value -->
     <defs>
      <path d="M 19.671875 64.796875 
L 19.671875 37.40625 
L 32.078125 37.40625 
Q 38.96875 37.40625 42.71875 40.96875 
Q 46.484375 44.53125 46.484375 51.125 
Q 46.484375 57.671875 42.71875 61.234375 
Q 38.96875 64.796875 32.078125 64.796875 
z
M 9.8125 72.90625 
L 32.078125 72.90625 
Q 44.34375 72.90625 50.609375 67.359375 
Q 56.890625 61.8125 56.890625 51.125 
Q 56.890625 40.328125 50.609375 34.8125 
Q 44.34375 29.296875 32.078125 29.296875 
L 19.671875 29.296875 
L 19.671875 0 
L 9.8125 0 
z
" id="DejaVuSans-80"/>
      <path d="M 45.40625 46.390625 
L 45.40625 75.984375 
L 54.390625 75.984375 
L 54.390625 0 
L 45.40625 0 
L 45.40625 8.203125 
Q 42.578125 3.328125 38.25 0.953125 
Q 33.9375 -1.421875 27.875 -1.421875 
Q 17.96875 -1.421875 11.734375 6.484375 
Q 5.515625 14.40625 5.515625 27.296875 
Q 5.515625 40.1875 11.734375 48.09375 
Q 17.96875 56 27.875 56 
Q 33.9375 56 38.25 53.625 
Q 42.578125 51.265625 45.40625 46.390625 
z
M 14.796875 27.296875 
Q 14.796875 17.390625 18.875 11.75 
Q 22.953125 6.109375 30.078125 6.109375 
Q 37.203125 6.109375 41.296875 11.75 
Q 45.40625 17.390625 45.40625 27.296875 
Q 45.40625 37.203125 41.296875 42.84375 
Q 37.203125 48.484375 30.078125 48.484375 
Q 22.953125 48.484375 18.875 42.84375 
Q 14.796875 37.203125 14.796875 27.296875 
z
" id="DejaVuSans-100"/>
      <path d="M 9.421875 54.6875 
L 18.40625 54.6875 
L 18.40625 0 
L 9.421875 0 
z
M 9.421875 75.984375 
L 18.40625 75.984375 
L 18.40625 64.59375 
L 9.421875 64.59375 
z
" id="DejaVuSans-105"/>
      <path d="M 48.78125 52.59375 
L 48.78125 44.1875 
Q 44.96875 46.296875 41.140625 47.34375 
Q 37.3125 48.390625 33.40625 48.390625 
Q 24.65625 48.390625 19.8125 42.84375 
Q 14.984375 37.3125 14.984375 27.296875 
Q 14.984375 17.28125 19.8125 11.734375 
Q 24.65625 6.203125 33.40625 6.203125 
Q 37.3125 6.203125 41.140625 7.25 
Q 44.96875 8.296875 48.78125 10.40625 
L 48.78125 2.09375 
Q 45.015625 0.34375 40.984375 -0.53125 
Q 36.96875 -1.421875 32.421875 -1.421875 
Q 20.0625 -1.421875 12.78125 6.34375 
Q 5.515625 14.109375 5.515625 27.296875 
Q 5.515625 40.671875 12.859375 48.328125 
Q 20.21875 56 33.015625 56 
Q 37.15625 56 41.109375 55.140625 
Q 45.0625 54.296875 48.78125 52.59375 
z
" id="DejaVuSans-99"/>
      <path d="M 18.3125 70.21875 
L 18.3125 54.6875 
L 36.8125 54.6875 
L 36.8125 47.703125 
L 18.3125 47.703125 
L 18.3125 18.015625 
Q 18.3125 11.328125 20.140625 9.421875 
Q 21.96875 7.515625 27.59375 7.515625 
L 36.8125 7.515625 
L 36.8125 0 
L 27.59375 0 
Q 17.1875 0 13.234375 3.875 
Q 9.28125 7.765625 9.28125 18.015625 
L 9.28125 47.703125 
L 2.6875 47.703125 
L 2.6875 54.6875 
L 9.28125 54.6875 
L 9.28125 70.21875 
z
" id="DejaVuSans-116"/>
     </defs>
     <g transform="translate(301.970312 65.836562)scale(0.1 -0.1)">
      <use xlink:href="#DejaVuSans-80"/>
      <use x="60.287109" xlink:href="#DejaVuSans-114"/>
      <use x="101.369141" xlink:href="#DejaVuSans-101"/>
      <use x="162.892578" xlink:href="#DejaVuSans-100"/>
      <use x="226.369141" xlink:href="#DejaVuSans-105"/>
      <use x="254.152344" xlink:href="#DejaVuSans-99"/>
      <use x="309.132812" xlink:href="#DejaVuSans-116"/>
      <use x="348.341797" xlink:href="#DejaVuSans-101"/>
      <use x="409.865234" xlink:href="#DejaVuSans-100"/>
      <use x="473.341797" xlink:href="#DejaVuSans-32"/>
      <use x="505.128906" xlink:href="#DejaVuSans-118"/>
      <use x="564.308594" xlink:href="#DejaVuSans-97"/>
      <use x="625.587891" xlink:href="#DejaVuSans-108"/>
      <use x="653.371094" xlink:href="#DejaVuSans-117"/>
      <use x="716.75" xlink:href="#DejaVuSans-101"/>
     </g>
    </g>
   </g>
  </g>
 </g>
 <defs>
  <clipPath id="p428172278e">
   <rect height="217.44" width="334.8" x="54" y="34.56"/>
  </clipPath>
 </defs>
</svg>
