<?xml version="1.0" encoding="utf-8" standalone="no"?>
<!DOCTYPE svg PUBLIC "-//W3C//DTD SVG 1.1//EN"
  "http://www.w3.org/Graphics/SVG/1.1/DTD/svg11.dtd">
<!-- Created with matplotlib (https://matplotlib.org/) -->
<svg height="288pt" version="1.1" viewBox="0 0 432 288" width="432pt" xmlns="http://www.w3.org/2000/svg" xmlns:xlink="http://www.w3.org/1999/xlink">
 <defs>
  <style type="text/css">
*{stroke-linecap:butt;stroke-linejoin:round;}
  </style>
 </defs>
 <g id="figure_1">
  <g id="patch_1">
   <path d="M 0 288 
L 432 288 
L 432 0 
L 0 0 
z
" style="fill:#ffffff;"/>
  </g>
  <g id="axes_1">
   <g id="patch_2">
    <path d="M 54 252 
L 388.8 252 
L 388.8 34.56 
L 54 34.56 
z
" style="fill:#ffffff;"/>
   </g>
   <g id="matplotlib.axis_1">
    <g id="xtick_1">
     <g id="line2d_1">
      <defs>
       <path d="M 0 0 
L 0 3.5 
" id="me4e62693ca" style="stroke:#000000;stroke-width:0.8;"/>
      </defs>
      <g>
       <use style="stroke:#000000;stroke-width:0.8;" x="69.218182" xlink:href="#me4e62693ca" y="252"/>
      </g>
     </g>
     <g id="text_1">
      <!-- 0 -->
      <defs>
       <path d="M 31.78125 66.40625 
Q 24.171875 66.40625 20.328125 58.90625 
Q 16.5 51.421875 16.5 36.375 
Q 16.5 21.390625 20.328125 13.890625 
Q 24.171875 6.390625 31.78125 6.390625 
Q 39.453125 6.390625 43.28125 13.890625 
Q 47.125 21.390625 47.125 36.375 
Q 47.125 51.421875 43.28125 58.90625 
Q 39.453125 66.40625 31.78125 66.40625 
z
M 31.78125 74.21875 
Q 44.046875 74.21875 50.515625 64.515625 
Q 56.984375 54.828125 56.984375 36.375 
Q 56.984375 17.96875 50.515625 8.265625 
Q 44.046875 -1.421875 31.78125 -1.421875 
Q 19.53125 -1.421875 13.0625 8.265625 
Q 6.59375 17.96875 6.59375 36.375 
Q 6.59375 54.828125 13.0625 64.515625 
Q 19.53125 74.21875 31.78125 74.21875 
z
" id="DejaVuSans-48"/>
      </defs>
      <g transform="translate(66.036932 266.598437)scale(0.1 -0.1)">
       <use xlink:href="#DejaVuSans-48"/>
      </g>
     </g>
    </g>
    <g id="xtick_2">
     <g id="line2d_2">
      <g>
       <use style="stroke:#000000;stroke-width:0.8;" x="117.036506" xlink:href="#me4e62693ca" y="252"/>
      </g>
     </g>
     <g id="text_2">
      <!-- 200 -->
      <defs>
       <path d="M 19.1875 8.296875 
L 53.609375 8.296875 
L 53.609375 0 
L 7.328125 0 
L 7.328125 8.296875 
Q 12.9375 14.109375 22.625 23.890625 
Q 32.328125 33.6875 34.8125 36.53125 
Q 39.546875 41.84375 41.421875 45.53125 
Q 43.3125 49.21875 43.3125 52.78125 
Q 43.3125 58.59375 39.234375 62.25 
Q 35.15625 65.921875 28.609375 65.921875 
Q 23.96875 65.921875 18.8125 64.3125 
Q 13.671875 62.703125 7.8125 59.421875 
L 7.8125 69.390625 
Q 13.765625 71.78125 18.9375 73 
Q 24.125 74.21875 28.421875 74.21875 
Q 39.75 74.21875 46.484375 68.546875 
Q 53.21875 62.890625 53.21875 53.421875 
Q 53.21875 48.921875 51.53125 44.890625 
Q 49.859375 40.875 45.40625 35.40625 
Q 44.1875 33.984375 37.640625 27.21875 
Q 31.109375 20.453125 19.1875 8.296875 
z
" id="DejaVuSans-50"/>
      </defs>
      <g transform="translate(107.492756 266.598437)scale(0.1 -0.1)">
       <use xlink:href="#DejaVuSans-50"/>
       <use x="63.623047" xlink:href="#DejaVuSans-48"/>
       <use x="127.246094" xlink:href="#DejaVuSans-48"/>
      </g>
     </g>
    </g>
    <g id="xtick_3">
     <g id="line2d_3">
      <g>
       <use style="stroke:#000000;stroke-width:0.8;" x="164.854831" xlink:href="#me4e62693ca" y="252"/>
      </g>
     </g>
     <g id="text_3">
      <!-- 400 -->
      <defs>
       <path d="M 37.796875 64.3125 
L 12.890625 25.390625 
L 37.796875 25.390625 
z
M 35.203125 72.90625 
L 47.609375 72.90625 
L 47.609375 25.390625 
L 58.015625 25.390625 
L 58.015625 17.1875 
L 47.609375 17.1875 
L 47.609375 0 
L 37.796875 0 
L 37.796875 17.1875 
L 4.890625 17.1875 
L 4.890625 26.703125 
z
" id="DejaVuSans-52"/>
      </defs>
      <g transform="translate(155.311081 266.598437)scale(0.1 -0.1)">
       <use xlink:href="#DejaVuSans-52"/>
       <use x="63.623047" xlink:href="#DejaVuSans-48"/>
       <use x="127.246094" xlink:href="#DejaVuSans-48"/>
      </g>
     </g>
    </g>
    <g id="xtick_4">
     <g id="line2d_4">
      <g>
       <use style="stroke:#000000;stroke-width:0.8;" x="212.673156" xlink:href="#me4e62693ca" y="252"/>
      </g>
     </g>
     <g id="text_4">
      <!-- 600 -->
      <defs>
       <path d="M 33.015625 40.375 
Q 26.375 40.375 22.484375 35.828125 
Q 18.609375 31.296875 18.609375 23.390625 
Q 18.609375 15.53125 22.484375 10.953125 
Q 26.375 6.390625 33.015625 6.390625 
Q 39.65625 6.390625 43.53125 10.953125 
Q 47.40625 15.53125 47.40625 23.390625 
Q 47.40625 31.296875 43.53125 35.828125 
Q 39.65625 40.375 33.015625 40.375 
z
M 52.59375 71.296875 
L 52.59375 62.3125 
Q 48.875 64.0625 45.09375 64.984375 
Q 41.3125 65.921875 37.59375 65.921875 
Q 27.828125 65.921875 22.671875 59.328125 
Q 17.53125 52.734375 16.796875 39.40625 
Q 19.671875 43.65625 24.015625 45.921875 
Q 28.375 48.1875 33.59375 48.1875 
Q 44.578125 48.1875 50.953125 41.515625 
Q 57.328125 34.859375 57.328125 23.390625 
Q 57.328125 12.15625 50.6875 5.359375 
Q 44.046875 -1.421875 33.015625 -1.421875 
Q 20.359375 -1.421875 13.671875 8.265625 
Q 6.984375 17.96875 6.984375 36.375 
Q 6.984375 53.65625 15.1875 63.9375 
Q 23.390625 74.21875 37.203125 74.21875 
Q 40.921875 74.21875 44.703125 73.484375 
Q 48.484375 72.75 52.59375 71.296875 
z
" id="DejaVuSans-54"/>
      </defs>
      <g transform="translate(203.129406 266.598437)scale(0.1 -0.1)">
       <use xlink:href="#DejaVuSans-54"/>
       <use x="63.623047" xlink:href="#DejaVuSans-48"/>
       <use x="127.246094" xlink:href="#DejaVuSans-48"/>
      </g>
     </g>
    </g>
    <g id="xtick_5">
     <g id="line2d_5">
      <g>
       <use style="stroke:#000000;stroke-width:0.8;" x="260.49148" xlink:href="#me4e62693ca" y="252"/>
      </g>
     </g>
     <g id="text_5">
      <!-- 800 -->
      <defs>
       <path d="M 31.78125 34.625 
Q 24.75 34.625 20.71875 30.859375 
Q 16.703125 27.09375 16.703125 20.515625 
Q 16.703125 13.921875 20.71875 10.15625 
Q 24.75 6.390625 31.78125 6.390625 
Q 38.8125 6.390625 42.859375 10.171875 
Q 46.921875 13.96875 46.921875 20.515625 
Q 46.921875 27.09375 42.890625 30.859375 
Q 38.875 34.625 31.78125 34.625 
z
M 21.921875 38.8125 
Q 15.578125 40.375 12.03125 44.71875 
Q 8.5 49.078125 8.5 55.328125 
Q 8.5 64.0625 14.71875 69.140625 
Q 20.953125 74.21875 31.78125 74.21875 
Q 42.671875 74.21875 48.875 69.140625 
Q 55.078125 64.0625 55.078125 55.328125 
Q 55.078125 49.078125 51.53125 44.71875 
Q 48 40.375 41.703125 38.8125 
Q 48.828125 37.15625 52.796875 32.3125 
Q 56.78125 27.484375 56.78125 20.515625 
Q 56.78125 9.90625 50.3125 4.234375 
Q 43.84375 -1.421875 31.78125 -1.421875 
Q 19.734375 -1.421875 13.25 4.234375 
Q 6.78125 9.90625 6.78125 20.515625 
Q 6.78125 27.484375 10.78125 32.3125 
Q 14.796875 37.15625 21.921875 38.8125 
z
M 18.3125 54.390625 
Q 18.3125 48.734375 21.84375 45.5625 
Q 25.390625 42.390625 31.78125 42.390625 
Q 38.140625 42.390625 41.71875 45.5625 
Q 45.3125 48.734375 45.3125 54.390625 
Q 45.3125 60.0625 41.71875 63.234375 
Q 38.140625 66.40625 31.78125 66.40625 
Q 25.390625 66.40625 21.84375 63.234375 
Q 18.3125 60.0625 18.3125 54.390625 
z
" id="DejaVuSans-56"/>
      </defs>
      <g transform="translate(250.94773 266.598437)scale(0.1 -0.1)">
       <use xlink:href="#DejaVuSans-56"/>
       <use x="63.623047" xlink:href="#DejaVuSans-48"/>
       <use x="127.246094" xlink:href="#DejaVuSans-48"/>
      </g>
     </g>
    </g>
    <g id="xtick_6">
     <g id="line2d_6">
      <g>
       <use style="stroke:#000000;stroke-width:0.8;" x="308.309805" xlink:href="#me4e62693ca" y="252"/>
      </g>
     </g>
     <g id="text_6">
      <!-- 1000 -->
      <defs>
       <path d="M 12.40625 8.296875 
L 28.515625 8.296875 
L 28.515625 63.921875 
L 10.984375 60.40625 
L 10.984375 69.390625 
L 28.421875 72.90625 
L 38.28125 72.90625 
L 38.28125 8.296875 
L 54.390625 8.296875 
L 54.390625 0 
L 12.40625 0 
z
" id="DejaVuSans-49"/>
      </defs>
      <g transform="translate(295.584805 266.598437)scale(0.1 -0.1)">
       <use xlink:href="#DejaVuSans-49"/>
       <use x="63.623047" xlink:href="#DejaVuSans-48"/>
       <use x="127.246094" xlink:href="#DejaVuSans-48"/>
       <use x="190.869141" xlink:href="#DejaVuSans-48"/>
      </g>
     </g>
    </g>
    <g id="xtick_7">
     <g id="line2d_7">
      <g>
       <use style="stroke:#000000;stroke-width:0.8;" x="356.12813" xlink:href="#me4e62693ca" y="252"/>
      </g>
     </g>
     <g id="text_7">
      <!-- 1200 -->
      <g transform="translate(343.40313 266.598437)scale(0.1 -0.1)">
       <use xlink:href="#DejaVuSans-49"/>
       <use x="63.623047" xlink:href="#DejaVuSans-50"/>
       <use x="127.246094" xlink:href="#DejaVuSans-48"/>
       <use x="190.869141" xlink:href="#DejaVuSans-48"/>
      </g>
     </g>
    </g>
   </g>
   <g id="matplotlib.axis_2">
    <g id="ytick_1">
     <g id="line2d_8">
      <defs>
       <path d="M 0 0 
L -3.5 0 
" id="mc43a584fa1" style="stroke:#000000;stroke-width:0.8;"/>
      </defs>
      <g>
       <use style="stroke:#000000;stroke-width:0.8;" x="54" xlink:href="#mc43a584fa1" y="241.104904"/>
      </g>
     </g>
     <g id="text_8">
      <!-- 0 -->
      <g transform="translate(40.6375 244.904123)scale(0.1 -0.1)">
       <use xlink:href="#DejaVuSans-48"/>
      </g>
     </g>
    </g>
    <g id="ytick_2">
     <g id="line2d_9">
      <g>
       <use style="stroke:#000000;stroke-width:0.8;" x="54" xlink:href="#mc43a584fa1" y="198.993283"/>
      </g>
     </g>
     <g id="text_9">
      <!-- 100 -->
      <g transform="translate(27.9125 202.792502)scale(0.1 -0.1)">
       <use xlink:href="#DejaVuSans-49"/>
       <use x="63.623047" xlink:href="#DejaVuSans-48"/>
       <use x="127.246094" xlink:href="#DejaVuSans-48"/>
      </g>
     </g>
    </g>
    <g id="ytick_3">
     <g id="line2d_10">
      <g>
       <use style="stroke:#000000;stroke-width:0.8;" x="54" xlink:href="#mc43a584fa1" y="156.881663"/>
      </g>
     </g>
     <g id="text_10">
      <!-- 200 -->
      <g transform="translate(27.9125 160.680882)scale(0.1 -0.1)">
       <use xlink:href="#DejaVuSans-50"/>
       <use x="63.623047" xlink:href="#DejaVuSans-48"/>
       <use x="127.246094" xlink:href="#DejaVuSans-48"/>
      </g>
     </g>
    </g>
    <g id="ytick_4">
     <g id="line2d_11">
      <g>
       <use style="stroke:#000000;stroke-width:0.8;" x="54" xlink:href="#mc43a584fa1" y="114.770042"/>
      </g>
     </g>
     <g id="text_11">
      <!-- 300 -->
      <defs>
       <path d="M 40.578125 39.3125 
Q 47.65625 37.796875 51.625 33 
Q 55.609375 28.21875 55.609375 21.1875 
Q 55.609375 10.40625 48.1875 4.484375 
Q 40.765625 -1.421875 27.09375 -1.421875 
Q 22.515625 -1.421875 17.65625 -0.515625 
Q 12.796875 0.390625 7.625 2.203125 
L 7.625 11.71875 
Q 11.71875 9.328125 16.59375 8.109375 
Q 21.484375 6.890625 26.8125 6.890625 
Q 36.078125 6.890625 40.9375 10.546875 
Q 45.796875 14.203125 45.796875 21.1875 
Q 45.796875 27.640625 41.28125 31.265625 
Q 36.765625 34.90625 28.71875 34.90625 
L 20.21875 34.90625 
L 20.21875 43.015625 
L 29.109375 43.015625 
Q 36.375 43.015625 40.234375 45.921875 
Q 44.09375 48.828125 44.09375 54.296875 
Q 44.09375 59.90625 40.109375 62.90625 
Q 36.140625 65.921875 28.71875 65.921875 
Q 24.65625 65.921875 20.015625 65.03125 
Q 15.375 64.15625 9.8125 62.3125 
L 9.8125 71.09375 
Q 15.4375 72.65625 20.34375 73.4375 
Q 25.25 74.21875 29.59375 74.21875 
Q 40.828125 74.21875 47.359375 69.109375 
Q 53.90625 64.015625 53.90625 55.328125 
Q 53.90625 49.265625 50.4375 45.09375 
Q 46.96875 40.921875 40.578125 39.3125 
z
" id="DejaVuSans-51"/>
      </defs>
      <g transform="translate(27.9125 118.569261)scale(0.1 -0.1)">
       <use xlink:href="#DejaVuSans-51"/>
       <use x="63.623047" xlink:href="#DejaVuSans-48"/>
       <use x="127.246094" xlink:href="#DejaVuSans-48"/>
      </g>
     </g>
    </g>
    <g id="ytick_5">
     <g id="line2d_12">
      <g>
       <use style="stroke:#000000;stroke-width:0.8;" x="54" xlink:href="#mc43a584fa1" y="72.658422"/>
      </g>
     </g>
     <g id="text_12">
      <!-- 400 -->
      <g transform="translate(27.9125 76.457641)scale(0.1 -0.1)">
       <use xlink:href="#DejaVuSans-52"/>
       <use x="63.623047" xlink:href="#DejaVuSans-48"/>
       <use x="127.246094" xlink:href="#DejaVuSans-48"/>
      </g>
     </g>
    </g>
   </g>
   <g id="line2d_13">
    <path clip-path="url(#p2d5a05898f)" d="M 69.218182 209.100072 
L 69.457273 230.998115 
L 69.935457 213.73235 
L 70.174548 235.209277 
L 70.41364 240.683788 
L 70.652732 241.104904 
L 70.891823 241.104904 
L 71.130915 238.999323 
L 71.370006 234.788161 
L 71.609098 240.683788 
L 71.84819 241.104904 
L 72.087281 241.104904 
L 72.565465 240.262671 
L 72.804556 241.104904 
L 73.282739 241.104904 
L 73.521831 234.788161 
L 73.760923 190.992075 
L 74.000014 100.452092 
L 74.239106 202.362213 
L 74.478198 211.205653 
L 74.717289 199.835516 
L 74.956381 237.735974 
L 75.195472 241.104904 
L 75.434564 241.104904 
L 75.912747 240.262671 
L 76.151839 237.735974 
L 76.390931 203.625562 
L 76.630022 226.786953 
L 76.869114 230.576999 
L 77.108205 241.104904 
L 77.586389 238.15709 
L 77.82548 227.208069 
L 78.303664 239.841555 
L 78.542755 222.996907 
L 78.781847 241.104904 
L 79.020938 237.735974 
L 79.26003 238.15709 
L 79.499122 241.104904 
L 79.738213 241.104904 
L 79.977305 240.262671 
L 80.216396 241.104904 
L 80.455488 238.15709 
L 80.69458 238.578207 
L 80.933671 240.683788 
L 81.172763 240.262671 
L 81.411855 216.259048 
L 81.650946 241.104904 
L 81.890038 240.683788 
L 82.129129 241.104904 
L 82.368221 241.104904 
L 82.607313 240.262671 
L 82.846404 240.683788 
L 83.085496 237.314858 
L 83.324588 239.841555 
L 83.563679 234.788161 
L 83.802771 239.420439 
L 84.041862 241.104904 
L 84.280954 238.578207 
L 84.520046 241.104904 
L 84.998229 241.104904 
L 85.237321 226.786953 
L 85.476412 229.734766 
L 85.954595 198.151051 
L 86.193687 226.786953 
L 86.432779 241.104904 
L 89.062787 241.104904 
L 89.301878 233.945928 
L 89.54097 241.104904 
L 89.780061 234.367045 
L 90.019153 240.262671 
L 90.258245 241.104904 
L 90.736428 238.15709 
L 90.97552 193.097656 
L 91.214611 240.683788 
L 91.453703 241.104904 
L 117.992873 241.104904 
L 118.231965 232.261463 
L 118.710148 241.104904 
L 126.839263 241.104904 
L 127.078355 240.683788 
L 127.317446 241.104904 
L 130.425637 241.104904 
L 130.664729 239.420439 
L 130.903821 241.104904 
L 136.402928 241.104904 
L 136.64202 238.578207 
L 136.881111 240.683788 
L 137.120203 240.262671 
L 137.598386 241.104904 
L 138.076569 241.104904 
L 138.315661 239.420439 
L 138.554753 239.841555 
L 138.793844 241.104904 
L 139.032936 238.999323 
L 139.272027 219.206861 
L 139.511119 241.104904 
L 141.902035 241.104904 
L 142.141127 231.419231 
L 142.380219 240.262671 
L 142.61931 241.104904 
L 143.097493 241.104904 
L 143.336585 234.367045 
L 143.575677 230.998115 
L 143.814768 241.104904 
L 144.05386 240.262671 
L 144.292952 241.104904 
L 144.532043 237.314858 
L 144.771135 236.472626 
L 145.010226 239.841555 
L 145.249318 241.104904 
L 145.48841 238.999323 
L 145.727501 234.788161 
L 145.966593 240.683788 
L 146.205684 241.104904 
L 147.162051 241.104904 
L 147.401143 238.15709 
L 147.640234 240.683788 
L 147.879326 241.104904 
L 148.118417 237.735974 
L 148.835692 203.204445 
L 149.074784 222.154675 
L 149.313876 182.569751 
L 149.552967 202.783329 
L 149.792059 240.262671 
L 150.03115 212.890118 
L 150.270242 233.945928 
L 150.509334 237.735974 
L 150.987517 223.839139 
L 151.226609 241.104904 
L 151.4657 238.999323 
L 151.704792 233.103696 
L 151.943883 220.47021 
L 152.661158 241.104904 
L 153.617525 241.104904 
L 153.856616 237.314858 
L 154.095708 241.104904 
L 154.812983 241.104904 
L 155.052075 232.261463 
L 155.291166 207.836724 
L 155.530258 218.364629 
L 155.769349 234.367045 
L 156.008441 192.255424 
L 156.247533 187.20203 
L 156.486624 199.4144 
L 156.725716 224.260256 
L 156.964808 234.367045 
L 157.203899 239.420439 
L 157.442991 241.104904 
L 157.921174 241.104904 
L 158.160266 238.999323 
L 158.399357 238.15709 
L 158.638449 238.999323 
L 158.877541 237.735974 
L 159.116632 237.735974 
L 159.355724 234.367045 
L 159.594815 227.629185 
L 159.833907 214.574583 
L 160.072999 238.15709 
L 160.31209 228.892534 
L 160.551182 240.262671 
L 160.790274 238.578207 
L 161.029365 238.15709 
L 161.268457 222.154675 
L 161.507548 233.524812 
L 161.74664 237.735974 
L 161.985732 233.103696 
L 162.224823 232.68258 
L 162.463915 211.626769 
L 162.703006 208.25784 
L 162.942098 230.998115 
L 163.18119 241.104904 
L 163.420281 219.627977 
L 163.659373 240.262671 
L 163.898465 231.840347 
L 164.137556 241.104904 
L 164.376648 223.418023 
L 164.615739 241.104904 
L 165.093923 241.104904 
L 165.333014 235.209277 
L 165.572106 241.104904 
L 165.811198 241.104904 
L 166.050289 232.68258 
L 166.528472 241.104904 
L 166.767564 241.104904 
L 167.006656 233.945928 
L 167.245747 239.841555 
L 167.484839 237.314858 
L 167.723931 241.104904 
L 167.963022 240.262671 
L 168.202114 237.735974 
L 168.441205 241.104904 
L 168.680297 241.104904 
L 168.919389 239.841555 
L 169.15848 240.262671 
L 169.397572 241.104904 
L 169.636664 236.893742 
L 170.114847 241.104904 
L 170.353938 241.104904 
L 170.59303 235.630393 
L 170.832122 240.683788 
L 171.071213 231.840347 
L 171.310305 239.420439 
L 171.549397 238.999323 
L 171.788488 182.148635 
L 172.02758 236.051509 
L 172.266671 240.262671 
L 172.505763 241.104904 
L 173.940313 241.104904 
L 174.179404 239.420439 
L 174.418496 241.104904 
L 174.657588 233.524812 
L 174.896679 241.104904 
L 175.853046 241.104904 
L 176.092137 237.314858 
L 176.331229 238.15709 
L 176.570321 241.104904 
L 177.287596 241.104904 
L 177.526687 240.262671 
L 177.765779 241.104904 
L 180.634878 241.104904 
L 180.87397 240.683788 
L 181.113061 241.104904 
L 195.697651 241.104904 
L 195.936742 239.841555 
L 196.175834 240.262671 
L 196.414925 241.104904 
L 199.284025 241.104904 
L 199.523116 240.683788 
L 199.762208 239.841555 
L 200.0013 240.683788 
L 200.240391 241.104904 
L 211.716789 241.104904 
L 211.955881 236.051509 
L 212.194973 241.104904 
L 216.498622 241.104904 
L 216.737713 239.420439 
L 216.976805 241.104904 
L 218.650446 241.104904 
L 218.889538 239.420439 
L 219.12863 241.104904 
L 222.954096 241.104904 
L 223.67137 227.208069 
L 223.910462 241.104904 
L 225.584103 241.104904 
L 225.823195 236.893742 
L 226.062287 241.104904 
L 227.97502 241.104904 
L 228.214111 236.472626 
L 228.453203 241.104904 
L 229.409569 241.104904 
L 229.648661 239.420439 
L 229.887753 238.999323 
L 230.126844 241.104904 
L 231.083211 241.104904 
L 231.322302 214.574583 
L 231.561394 241.104904 
L 232.278669 241.104904 
L 232.51776 239.841555 
L 232.756852 241.104904 
L 233.95231 241.104904 
L 234.191402 233.524812 
L 234.430493 238.999323 
L 234.908677 215.416815 
L 235.147768 220.47021 
L 235.38686 241.104904 
L 235.625952 229.31365 
L 235.865043 241.104904 
L 236.104135 240.262671 
L 236.343226 222.154675 
L 236.582318 229.734766 
L 236.82141 230.155882 
L 237.060501 241.104904 
L 237.299593 240.262671 
L 237.538685 239.841555 
L 237.777776 240.262671 
L 238.016868 211.626769 
L 238.255959 209.521188 
L 238.495051 199.4144 
L 238.734143 44.443636 
L 238.973234 152.670501 
L 239.212326 130.351342 
L 239.451418 206.994491 
L 239.690509 241.104904 
L 240.168692 241.104904 
L 240.407784 239.841555 
L 240.646876 233.524812 
L 240.885967 234.788161 
L 241.125059 241.104904 
L 241.842334 241.104904 
L 242.081425 233.945928 
L 242.320517 209.942305 
L 242.559609 211.626769 
L 242.7987 239.841555 
L 243.037792 241.104904 
L 243.276884 241.104904 
L 243.515975 238.578207 
L 243.755067 241.104904 
L 243.994158 239.420439 
L 244.23325 236.893742 
L 244.472342 205.310026 
L 244.711433 204.467794 
L 244.950525 212.469002 
L 245.189617 240.683788 
L 245.428708 234.367045 
L 245.6678 212.890118 
L 245.906891 221.733558 
L 246.145983 176.253008 
L 246.385075 192.255424 
L 246.624166 156.039431 
L 246.863258 204.467794 
L 247.102349 209.521188 
L 247.341441 195.624354 
L 247.580533 212.469002 
L 247.819624 153.512733 
L 248.058716 240.262671 
L 248.297808 241.104904 
L 248.536899 241.104904 
L 248.775991 239.420439 
L 249.015082 227.629185 
L 249.254174 241.104904 
L 249.493266 241.104904 
L 249.732357 240.262671 
L 249.971449 241.104904 
L 250.210541 239.841555 
L 250.449632 241.104904 
L 250.927815 241.104904 
L 251.166907 239.841555 
L 251.64509 198.151051 
L 251.884182 226.365837 
L 252.123274 230.998115 
L 252.362365 230.998115 
L 252.601457 227.629185 
L 252.840548 241.104904 
L 253.07964 239.420439 
L 253.318732 238.578207 
L 253.557823 238.15709 
L 253.796915 241.104904 
L 254.036007 241.104904 
L 254.275098 233.103696 
L 254.51419 236.051509 
L 254.753281 216.680164 
L 254.992373 232.68258 
L 255.231465 173.726311 
L 255.470556 169.515149 
L 255.709648 216.680164 
L 255.94874 240.683788 
L 256.187831 241.104904 
L 256.426923 238.999323 
L 256.666014 240.683788 
L 256.905106 241.104904 
L 257.144198 241.104904 
L 257.383289 237.735974 
L 257.622381 240.262671 
L 257.861473 241.104904 
L 258.100564 238.578207 
L 258.339656 234.788161 
L 258.578747 240.262671 
L 258.817839 240.262671 
L 259.056931 241.104904 
L 259.296022 241.104904 
L 259.535114 228.471418 
L 259.774206 205.731143 
L 260.252389 240.683788 
L 260.49148 241.104904 
L 260.730572 225.102488 
L 260.969664 240.262671 
L 261.208755 241.104904 
L 262.404213 241.104904 
L 262.643305 238.999323 
L 262.882397 241.104904 
L 263.36058 238.15709 
L 263.599671 241.104904 
L 263.838763 241.104904 
L 264.077855 222.575791 
L 264.316946 234.788161 
L 264.556038 208.25784 
L 264.79513 241.104904 
L 265.273313 241.104904 
L 265.512404 235.209277 
L 265.751496 241.104904 
L 269.576962 241.104904 
L 269.816054 224.260256 
L 270.055145 234.788161 
L 270.294237 232.68258 
L 270.533329 240.683788 
L 270.77242 241.104904 
L 273.880611 241.104904 
L 274.119703 240.262671 
L 274.358795 240.262671 
L 274.597886 241.104904 
L 280.575177 241.104904 
L 280.814268 240.262671 
L 281.05336 239.841555 
L 281.292452 241.104904 
L 281.531543 241.104904 
L 281.770635 231.840347 
L 282.009726 241.104904 
L 304.723431 241.104904 
L 304.962522 235.209277 
L 305.201614 241.104904 
L 306.15798 241.104904 
L 306.397072 236.472626 
L 306.636164 241.104904 
L 306.875255 241.104904 
L 307.114347 239.841555 
L 307.353439 236.051509 
L 307.59253 241.104904 
L 312.613454 241.104904 
L 312.852546 240.262671 
L 313.091638 241.104904 
L 313.808912 241.104904 
L 314.048004 238.999323 
L 314.287096 241.104904 
L 314.526187 241.104904 
L 314.765279 231.419231 
L 315.00437 234.788161 
L 315.243462 241.104904 
L 315.482554 237.314858 
L 315.721645 240.262671 
L 315.960737 241.104904 
L 317.395287 241.104904 
L 317.634378 238.15709 
L 317.87347 241.104904 
L 318.351653 241.104904 
L 318.590745 239.420439 
L 318.829836 240.262671 
L 319.068928 209.100072 
L 319.30802 201.941097 
L 319.547111 212.047886 
L 319.786203 241.104904 
L 320.025295 230.576999 
L 320.264386 237.314858 
L 320.503478 232.261463 
L 320.742569 241.104904 
L 320.981661 241.104904 
L 321.220753 240.262671 
L 321.459844 241.104904 
L 321.698936 240.262671 
L 321.938028 241.104904 
L 322.416211 241.104904 
L 322.655302 237.735974 
L 322.894394 240.683788 
L 323.133486 241.104904 
L 323.372577 200.677748 
L 323.611669 233.103696 
L 323.850761 228.892534 
L 324.089852 180.043054 
L 324.568035 231.419231 
L 324.807127 222.575791 
L 325.046219 207.836724 
L 325.28531 238.999323 
L 325.524402 241.104904 
L 327.676227 241.104904 
L 327.915318 240.683788 
L 328.15441 241.104904 
L 328.393501 241.104904 
L 328.632593 239.420439 
L 328.871685 241.104904 
L 329.110776 241.104904 
L 329.349868 230.576999 
L 329.58896 232.68258 
L 329.828051 213.311234 
L 330.067143 212.469002 
L 330.306234 183.411984 
L 330.545326 191.413192 
L 330.784418 195.624354 
L 331.023509 241.104904 
L 331.262601 237.735974 
L 331.501692 226.786953 
L 331.740784 224.260256 
L 331.979876 202.783329 
L 332.218967 235.630393 
L 332.458059 234.788161 
L 332.697151 212.469002 
L 332.936242 225.102488 
L 333.175334 212.890118 
L 333.414425 213.311234 
L 333.653517 236.472626 
L 333.892609 241.104904 
L 334.1317 240.683788 
L 334.370792 241.104904 
L 334.609884 240.683788 
L 334.848975 234.367045 
L 335.088067 241.104904 
L 335.327158 237.314858 
L 335.56625 240.262671 
L 335.805342 236.472626 
L 336.044433 211.205653 
L 336.283525 239.841555 
L 336.522617 238.578207 
L 336.761708 230.155882 
L 337.0008 241.104904 
L 337.239891 241.104904 
L 337.478983 238.999323 
L 337.718075 234.788161 
L 337.957166 236.051509 
L 338.196258 215.416815 
L 338.43535 238.999323 
L 338.913533 217.10128 
L 339.391716 239.841555 
L 339.630808 221.733558 
L 339.869899 241.104904 
L 340.108991 241.104904 
L 340.587174 238.578207 
L 340.826266 230.576999 
L 341.065357 241.104904 
L 341.304449 241.104904 
L 341.543541 228.471418 
L 341.782632 232.68258 
L 342.021724 241.104904 
L 342.260816 227.208069 
L 342.499907 224.681372 
L 342.738999 241.104904 
L 342.97809 237.314858 
L 343.217182 240.262671 
L 343.456274 241.104904 
L 343.695365 240.262671 
L 343.934457 238.999323 
L 344.41264 217.522396 
L 344.890823 236.051509 
L 345.129915 233.945928 
L 345.369007 225.102488 
L 345.608098 239.841555 
L 345.84719 238.15709 
L 346.086282 241.104904 
L 346.803556 241.104904 
L 347.042648 239.420439 
L 347.28174 238.578207 
L 347.520831 240.683788 
L 347.759923 241.104904 
L 347.999014 238.578207 
L 348.238106 239.841555 
L 348.477198 238.999323 
L 348.716289 230.576999 
L 348.955381 241.104904 
L 349.194473 238.15709 
L 349.433564 238.578207 
L 349.672656 241.104904 
L 350.150839 241.104904 
L 350.389931 238.15709 
L 350.868114 228.050301 
L 351.107206 241.104904 
L 351.82448 241.104904 
L 352.063572 238.999323 
L 352.302664 220.47021 
L 352.541755 237.735974 
L 352.780847 241.104904 
L 353.019939 241.104904 
L 353.25903 240.262671 
L 353.498122 240.262671 
L 353.737213 234.367045 
L 353.976305 199.835516 
L 354.215397 229.31365 
L 354.454488 169.094033 
L 354.69358 241.104904 
L 355.410855 241.104904 
L 355.649946 237.314858 
L 355.889038 239.841555 
L 356.12813 241.104904 
L 357.323588 241.104904 
L 357.562679 238.578207 
L 357.801771 241.104904 
L 358.040863 241.104904 
L 358.279954 232.261463 
L 358.519046 241.104904 
L 359.714504 241.104904 
L 360.192687 234.788161 
L 360.431779 233.945928 
L 360.670871 241.104904 
L 373.581818 241.104904 
L 373.581818 241.104904 
" style="fill:none;stroke:#1f77b4;stroke-linecap:square;stroke-width:1.5;"/>
   </g>
   <g id="line2d_14">
    <path clip-path="url(#p2d5a05898f)" d="M 69.218182 222.053315 
L 69.457273 219.087375 
L 69.696365 225.911943 
L 69.935457 227.041725 
L 70.174548 224.17185 
L 70.41364 231.714004 
L 70.652732 231.597893 
L 71.370006 235.273654 
L 71.609098 234.351699 
L 71.84819 236.131447 
L 72.326373 233.988666 
L 72.565465 232.677674 
L 72.804556 236.292449 
L 73.043648 237.148573 
L 73.282739 236.828422 
L 73.521831 238.626519 
L 73.760923 236.117531 
L 74.000014 223.259479 
L 74.239106 192.861035 
L 74.478198 214.326962 
L 74.717289 215.668989 
L 74.956381 212.864168 
L 75.195472 224.08833 
L 75.673656 233.757992 
L 75.912747 234.630384 
L 76.151839 230.033963 
L 76.390931 229.308543 
L 76.630022 222.957174 
L 76.869114 227.326509 
L 77.108205 226.372872 
L 77.586389 228.508136 
L 78.064572 220.581685 
L 78.303664 235.852071 
L 78.542755 235.696407 
L 78.781847 228.802969 
L 79.020938 238.102304 
L 79.26003 238.463351 
L 79.738213 238.568914 
L 79.977305 238.521783 
L 80.216396 237.796232 
L 80.455488 236.583309 
L 80.69458 237.774662 
L 80.933671 237.239584 
L 81.172763 237.804476 
L 81.411855 237.593933 
L 81.650946 229.530392 
L 81.890038 235.344677 
L 82.129129 235.682691 
L 82.368221 239.935873 
L 82.607313 238.397443 
L 83.085496 240.096389 
L 83.324588 238.201214 
L 83.563679 238.075071 
L 83.802771 236.465168 
L 84.280954 239.337551 
L 84.520046 237.704808 
L 84.759137 239.016698 
L 84.998229 239.335428 
L 85.237321 239.421642 
L 85.476412 233.552339 
L 85.715504 235.749059 
L 86.193687 223.044808 
L 86.67187 233.606781 
L 86.910962 235.667079 
L 87.150054 236.387471 
L 87.389145 237.504828 
L 87.867328 238.7245 
L 88.10642 237.47546 
L 88.345512 237.249017 
L 88.584603 238.546283 
L 88.823695 239.101867 
L 89.301878 236.521938 
L 89.54097 234.664822 
L 89.780061 237.000679 
L 90.019153 235.046557 
L 90.258245 239.802795 
L 90.497336 240.676343 
L 90.736428 239.633203 
L 90.97552 239.402637 
L 91.214611 225.442271 
L 91.453703 236.682678 
L 91.692794 237.119283 
L 91.931886 238.025326 
L 92.170978 238.064536 
L 92.888253 239.500644 
L 93.127344 237.596381 
L 93.366436 236.672245 
L 93.605527 239.784143 
L 93.844619 239.36617 
L 94.083711 239.436294 
L 94.322802 238.930857 
L 94.561894 239.376716 
L 94.800986 238.750742 
L 95.040077 236.891602 
L 95.279169 241.659816 
L 95.757352 240.51163 
L 95.996444 240.67022 
L 96.235535 240.983058 
L 96.95281 240.647988 
L 97.191902 240.840464 
L 97.430993 240.338191 
L 97.670085 240.604783 
L 97.909177 240.202741 
L 98.148268 240.273489 
L 98.38736 240.516311 
L 98.626451 240.07674 
L 98.865543 240.681858 
L 99.104635 239.536614 
L 99.343726 241.308044 
L 99.582818 240.689274 
L 99.82191 240.685065 
L 100.300093 240.351892 
L 101.017368 240.605209 
L 118.231965 240.605209 
L 118.471056 237.826798 
L 118.949239 239.739097 
L 120.144698 240.572907 
L 120.622881 240.045522 
L 121.101064 240.534746 
L 121.340156 240.468314 
L 121.579247 240.186861 
L 122.057431 240.206068 
L 122.296522 239.809846 
L 122.535614 240.584587 
L 122.774705 240.808543 
L 123.013797 240.631527 
L 123.49198 240.676984 
L 124.448347 240.659234 
L 125.404713 240.5132 
L 126.121988 240.600096 
L 126.36108 240.417075 
L 126.600171 240.663738 
L 127.078355 240.627127 
L 127.317446 240.466478 
L 128.273813 240.585995 
L 130.664729 240.593687 
L 130.903821 240.061371 
L 131.142912 240.437865 
L 131.860187 240.527562 
L 132.816554 240.54627 
L 133.294737 240.597391 
L 134.490195 240.546101 
L 134.729287 240.471716 
L 134.968378 240.651892 
L 135.924745 240.619504 
L 136.64202 240.609605 
L 136.881111 239.819514 
L 137.120203 240.269435 
L 137.359294 240.13313 
L 138.315661 240.487385 
L 138.554753 240.032133 
L 138.793844 239.921172 
L 139.032936 240.271589 
L 139.272027 239.709599 
L 139.511119 233.344698 
L 139.750211 238.532314 
L 140.467486 239.338047 
L 140.706577 239.506137 
L 140.945669 240.290509 
L 141.18476 240.486778 
L 141.423852 239.667087 
L 141.662944 239.443947 
L 141.902035 240.38974 
L 142.141127 240.379293 
L 142.380219 237.032366 
L 142.61931 238.549985 
L 142.858402 239.289191 
L 143.097493 239.153092 
L 143.336585 238.495379 
L 143.575677 238.759129 
L 143.814768 237.029265 
L 144.05386 239.301358 
L 144.292952 238.96488 
L 144.532043 239.409023 
L 144.771135 238.691237 
L 145.010226 238.494175 
L 145.249318 239.368454 
L 145.48841 239.4049 
L 145.966593 237.072506 
L 146.444776 239.726726 
L 146.683868 239.670675 
L 146.922959 239.055437 
L 147.162051 239.573628 
L 147.401143 239.126055 
L 147.640234 239.301134 
L 147.879326 240.087659 
L 148.118417 239.839336 
L 148.357509 238.999767 
L 149.074784 225.440629 
L 149.313876 228.971505 
L 149.552967 215.745874 
L 149.792059 218.48741 
L 150.03115 229.940611 
L 150.270242 223.54686 
L 150.509334 229.715533 
L 150.748425 231.490437 
L 150.987517 230.538091 
L 151.226609 229.057802 
L 151.4657 232.969107 
L 151.704792 231.762457 
L 151.943883 232.213022 
L 152.182975 227.244017 
L 152.422067 227.277106 
L 152.661158 228.618694 
L 153.139342 233.446896 
L 153.378433 231.863377 
L 153.856616 240.187779 
L 154.095708 236.025866 
L 154.573891 239.697215 
L 155.052075 239.356677 
L 155.291166 237.470485 
L 155.530258 228.256885 
L 155.769349 228.226974 
L 156.008441 231.411241 
L 156.247533 219.922505 
L 156.486624 215.313507 
L 156.725716 216.949567 
L 157.203899 228.462176 
L 157.442991 229.75315 
L 157.682082 232.242937 
L 157.921174 236.120182 
L 158.160266 236.05478 
L 158.638449 232.38494 
L 158.877541 233.376777 
L 159.116632 233.429079 
L 159.355724 232.000556 
L 159.594815 231.96295 
L 159.833907 230.291463 
L 160.072999 222.720783 
L 160.31209 230.973829 
L 160.551182 231.789313 
L 160.790274 237.44123 
L 161.029365 237.47121 
L 161.268457 238.105901 
L 161.507548 233.682687 
L 161.74664 235.889306 
L 161.985732 235.948361 
L 162.224823 234.665113 
L 162.463915 234.439201 
L 162.703006 227.262799 
L 162.942098 224.069089 
L 163.420281 231.317716 
L 163.659373 225.257933 
L 163.898465 232.539442 
L 164.137556 232.615004 
L 164.376648 235.779029 
L 164.615739 230.782564 
L 164.854831 234.654157 
L 165.333014 236.513181 
L 165.572106 235.573982 
L 165.811198 236.225842 
L 166.050289 236.349478 
L 166.289381 234.181981 
L 166.528472 234.367468 
L 166.767564 235.710355 
L 167.006656 239.359449 
L 167.245747 237.144926 
L 167.484839 236.735705 
L 167.963022 238.861422 
L 168.202114 239.734798 
L 168.441205 237.113255 
L 168.680297 240.485211 
L 168.919389 240.116529 
L 169.397572 238.16157 
L 169.636664 239.733227 
L 169.875755 238.33762 
L 170.114847 238.311528 
L 170.353938 239.201351 
L 170.59303 239.251695 
L 170.832122 237.769661 
L 171.071213 239.027465 
L 171.310305 237.229866 
L 171.788488 238.902246 
L 172.02758 220.132219 
L 172.266671 233.322695 
L 172.744855 236.885262 
L 172.983946 236.799001 
L 173.701221 239.831617 
L 173.940313 237.971171 
L 174.179404 237.074602 
L 174.418496 238.8812 
L 174.657588 239.201923 
L 174.896679 236.990561 
L 175.135771 236.430265 
L 175.374863 238.275155 
L 175.613954 237.859934 
L 175.853046 235.675303 
L 176.092137 241.582661 
L 176.331229 240.083792 
L 176.570321 239.353534 
L 177.048504 240.303238 
L 177.287596 240.672492 
L 177.526687 240.56578 
L 177.765779 240.135405 
L 178.00487 240.398676 
L 178.243962 239.947913 
L 178.483054 239.909377 
L 178.722145 239.295315 
L 178.961237 240.270937 
L 179.200329 240.258647 
L 179.43942 239.9088 
L 179.678512 240.487259 
L 179.917603 239.124773 
L 180.156695 241.026552 
L 180.395787 240.629552 
L 180.634878 240.838052 
L 181.113061 240.121346 
L 181.591245 240.503496 
L 182.069428 240.619164 
L 182.30852 240.503631 
L 182.547611 240.663519 
L 182.786703 240.434837 
L 183.025794 240.689596 
L 183.264886 240.551657 
L 183.982161 240.543207 
L 184.221253 240.487373 
L 184.699436 240.634255 
L 185.416711 240.589844 
L 185.894894 240.60931 
L 195.936742 240.605209 
L 196.175834 240.208293 
L 196.414925 240.23932 
L 196.654017 240.452542 
L 198.088567 240.559741 
L 198.56675 240.556169 
L 199.044933 240.583581 
L 199.762208 240.406007 
L 200.0013 240.048381 
L 200.479483 240.503648 
L 203.826766 240.50061 
L 204.304949 240.632078 
L 207.891323 240.584536 
L 208.84769 240.602039 
L 211.955881 240.605209 
L 212.194973 239.017545 
L 212.434064 240.200096 
L 213.868614 240.6077 
L 214.346797 240.355306 
L 214.585889 240.575652 
L 215.064072 240.538032 
L 215.303164 240.391744 
L 215.781347 240.429802 
L 216.020438 240.217537 
L 216.25953 240.741109 
L 216.737713 240.595707 
L 216.976805 240.077283 
L 217.215897 240.510692 
L 218.889538 240.519086 
L 219.12863 239.949613 
L 219.367721 240.452655 
L 220.084996 240.343372 
L 220.324088 240.582259 
L 220.802271 240.486273 
L 221.041363 240.582057 
L 221.280454 240.517707 
L 221.997729 240.596324 
L 222.954096 240.484122 
L 223.193187 240.649596 
L 223.910462 235.108149 
L 224.149554 238.592399 
L 225.345012 240.276993 
L 225.823195 239.581212 
L 226.062287 238.486349 
L 226.301378 240.055975 
L 226.779562 239.664514 
L 227.018653 239.347682 
L 227.496836 239.472559 
L 227.735928 239.869235 
L 227.97502 240.937533 
L 228.214111 240.548634 
L 228.453203 239.137059 
L 228.692295 240.326903 
L 228.931386 240.444309 
L 229.170478 240.359276 
L 229.648661 240.402142 
L 229.887753 239.754158 
L 230.365936 240.089281 
L 230.605027 239.981846 
L 231.083211 240.359988 
L 231.322302 240.265317 
L 231.561394 231.978879 
L 231.800486 238.147859 
L 232.039577 238.752987 
L 232.278669 238.817849 
L 232.51776 239.475187 
L 232.756852 239.282491 
L 233.235035 240.35138 
L 233.474127 239.455808 
L 233.713219 239.080085 
L 233.95231 240.223329 
L 234.191402 240.59684 
L 234.430493 237.924418 
L 234.669585 238.171284 
L 235.147768 229.713288 
L 235.38686 228.404086 
L 235.625952 236.732251 
L 235.865043 233.538957 
L 236.104135 236.823049 
L 236.343226 237.182446 
L 236.582318 232.778159 
L 236.82141 234.152476 
L 237.060501 232.89177 
L 237.299593 235.659609 
L 237.777776 237.186691 
L 238.016868 236.973051 
L 238.255959 228.02111 
L 238.495051 224.916346 
L 238.734143 218.72674 
L 238.973234 167.6851 
L 239.212326 189.59362 
L 239.451418 180.401784 
L 239.929601 214.524013 
L 240.646876 230.406188 
L 240.885967 226.229343 
L 241.125059 224.390097 
L 241.364151 228.130107 
L 241.603242 228.578352 
L 241.842334 230.66485 
L 242.081425 225.201775 
L 242.320517 223.852406 
L 242.7987 206.404473 
L 243.037792 228.744944 
L 243.276884 231.325006 
L 243.515975 239.022396 
L 243.755067 239.648313 
L 243.994158 240.812277 
L 244.23325 241.038554 
L 244.472342 239.187376 
L 244.711433 227.66476 
L 244.950525 225.510466 
L 245.189617 226.24996 
L 245.428708 232.484208 
L 245.6678 229.018579 
L 245.906891 221.671811 
L 246.145983 223.741116 
L 246.385075 208.30664 
L 246.624166 212.71594 
L 246.863258 196.425444 
L 247.102349 212.120091 
L 247.341441 212.738823 
L 247.580533 212.322101 
L 247.819624 214.87801 
L 248.058716 195.288386 
L 248.297808 217.397045 
L 248.536899 219.019152 
L 249.015082 225.821317 
L 249.493266 229.0829 
L 249.732357 228.253006 
L 250.210541 225.264431 
L 250.449632 231.285072 
L 250.688724 231.258481 
L 250.927815 236.682438 
L 251.166907 233.932379 
L 251.405999 234.23102 
L 251.64509 228.995177 
L 251.884182 220.226587 
L 252.123274 233.713733 
L 252.362365 233.41572 
L 252.601457 231.72944 
L 252.840548 231.314202 
L 253.07964 235.641356 
L 253.318732 237.91162 
L 253.557823 236.723512 
L 253.796915 233.430735 
L 254.036007 235.868386 
L 254.275098 235.867499 
L 254.51419 235.352407 
L 254.753281 233.373448 
L 254.992373 227.719181 
L 255.231465 231.704535 
L 255.470556 210.306391 
L 255.709648 206.037289 
L 256.187831 229.242382 
L 256.666014 231.634138 
L 256.905106 235.320203 
L 257.144198 236.900325 
L 257.383289 237.237928 
L 257.622381 233.296655 
L 258.100564 236.882364 
L 258.339656 236.12813 
L 258.578747 232.596941 
L 258.817839 231.876309 
L 259.056931 233.865226 
L 259.296022 231.674262 
L 259.535114 234.860602 
L 259.774206 236.258028 
L 260.013297 230.155036 
L 260.730572 237.633602 
L 260.969664 233.704774 
L 261.208755 237.407738 
L 261.447847 238.575147 
L 261.686939 238.894288 
L 261.92603 237.260557 
L 262.165122 236.620179 
L 262.404213 237.553871 
L 262.643305 239.424579 
L 262.882397 236.884924 
L 263.121488 237.27963 
L 263.36058 236.469405 
L 263.599671 236.310215 
L 263.838763 237.712439 
L 264.077855 240.074427 
L 264.316946 234.824049 
L 264.556038 236.02816 
L 264.79513 226.583349 
L 265.034221 236.825082 
L 265.273313 237.68723 
L 265.512404 238.027702 
L 265.751496 236.901317 
L 265.990588 239.197571 
L 266.229679 239.188547 
L 266.468771 238.831157 
L 266.707863 238.203358 
L 266.946954 238.251473 
L 267.186046 239.574625 
L 267.425137 238.97446 
L 267.664229 238.852017 
L 267.903321 237.433106 
L 268.142412 238.249054 
L 268.381504 239.586122 
L 268.620596 238.576316 
L 268.859687 240.879214 
L 269.098779 240.86325 
L 269.33787 240.364151 
L 269.576962 240.334526 
L 269.816054 241.124987 
L 270.055145 235.617897 
L 270.294237 237.442185 
L 270.533329 236.426359 
L 270.77242 238.611637 
L 271.250603 239.074535 
L 271.728787 239.852768 
L 271.967878 239.832424 
L 272.20697 238.797621 
L 272.446062 240.093916 
L 272.685153 239.355175 
L 272.924245 240.801185 
L 273.163336 239.736602 
L 273.402428 239.740713 
L 273.880611 238.749331 
L 274.119703 240.180994 
L 274.358795 240.075502 
L 274.597886 240.507639 
L 276.032436 240.746811 
L 276.749711 240.460154 
L 276.988802 240.403394 
L 277.227894 240.467363 
L 277.466986 240.304239 
L 277.706077 240.521503 
L 277.945169 240.108237 
L 278.184261 240.648491 
L 278.423352 240.497765 
L 278.662444 240.798712 
L 279.140627 240.525602 
L 279.857902 240.58838 
L 280.814268 240.603046 
L 281.292452 240.129438 
L 281.531543 240.438709 
L 281.770635 240.46743 
L 282.009726 237.586068 
L 282.248818 239.76182 
L 282.966093 240.155456 
L 283.205185 240.222863 
L 283.683368 240.590756 
L 284.161551 240.094681 
L 284.400643 240.47461 
L 284.639734 240.488233 
L 285.117918 240.139589 
L 285.357009 240.396432 
L 285.596101 240.29815 
L 285.835192 239.892318 
L 286.074284 240.861437 
L 286.791559 240.617128 
L 287.269742 240.676842 
L 289.421567 240.531841 
L 289.660658 240.639218 
L 289.89975 240.397679 
L 290.138842 240.739925 
L 290.377933 240.611034 
L 293.486124 240.605209 
L 304.962522 240.605209 
L 305.201614 238.752935 
L 305.440706 240.132577 
L 306.397072 240.41737 
L 306.636164 239.085694 
L 306.875255 240.236761 
L 307.114347 240.078877 
L 307.353439 239.681247 
L 307.59253 238.670431 
L 307.831622 239.933521 
L 308.070713 240.07161 
L 309.02708 240.071462 
L 309.266172 240.693779 
L 309.744355 240.141155 
L 309.983446 240.443167 
L 310.222538 240.445895 
L 310.46163 240.171292 
L 310.700721 240.513102 
L 310.939813 240.501931 
L 311.417996 240.249505 
L 311.657088 240.782412 
L 312.135271 240.57041 
L 312.852546 240.664768 
L 313.091638 240.229527 
L 313.330729 240.627498 
L 313.808912 240.561103 
L 314.048004 240.494863 
L 314.287096 239.866392 
L 314.765279 240.513648 
L 315.00437 237.38486 
L 315.243462 237.703249 
L 315.482554 239.272712 
L 315.721645 238.523868 
L 315.960737 239.260135 
L 316.678012 240.254503 
L 317.156195 239.823392 
L 317.634378 240.31624 
L 317.87347 239.223174 
L 318.351653 239.910633 
L 318.590745 239.922423 
L 318.829836 238.806768 
L 319.068928 239.752857 
L 319.547111 225.349769 
L 319.786203 225.987657 
L 320.025295 233.92145 
L 320.264386 231.957678 
L 320.503478 234.347664 
L 320.742569 233.88683 
L 320.981661 237.603382 
L 321.220753 237.790984 
L 321.459844 236.26727 
L 321.698936 236.407001 
L 322.177119 239.025489 
L 322.894394 235.36726 
L 323.133486 235.38061 
L 323.372577 236.734323 
L 323.611669 226.277443 
L 323.850761 235.082148 
L 324.089852 232.330648 
L 324.328944 217.63507 
L 324.568035 221.558699 
L 324.807127 229.094413 
L 325.046219 227.634213 
L 325.28531 223.319196 
L 325.524402 230.727078 
L 325.763494 232.757158 
L 326.002585 235.961137 
L 326.480768 233.688873 
L 326.71986 234.924374 
L 326.958952 236.943689 
L 327.437135 231.576575 
L 327.676227 236.761398 
L 327.915318 237.019162 
L 328.15441 233.185676 
L 328.632593 239.771245 
L 328.871685 238.270044 
L 329.110776 238.687386 
L 329.349868 242.116364 
L 329.58896 238.595993 
L 329.828051 237.614871 
L 330.067143 230.986522 
L 330.306234 228.845727 
L 330.545326 217.518254 
L 331.023509 214.593952 
L 331.262601 227.856294 
L 331.501692 228.220252 
L 331.979876 227.469144 
L 332.218967 220.140791 
L 332.458059 229.292238 
L 332.697151 228.276013 
L 332.936242 221.753986 
L 333.175334 224.588926 
L 333.653517 219.795229 
L 333.892609 224.169837 
L 334.370792 227.820067 
L 334.609884 233.310071 
L 335.088067 236.291428 
L 335.327158 236.057814 
L 335.56625 234.11699 
L 335.805342 235.967741 
L 336.044433 235.074631 
L 336.283525 229.740405 
L 336.522617 234.810289 
L 336.761708 232.877962 
L 337.0008 232.355283 
L 337.239891 234.92963 
L 337.478983 236.207647 
L 337.718075 238.814248 
L 337.957166 237.004156 
L 338.196258 236.274271 
L 338.43535 228.951361 
L 338.674441 236.628921 
L 339.152624 229.337119 
L 339.391716 229.802873 
L 339.630808 233.512403 
L 339.869899 228.350152 
L 340.348083 236.567026 
L 340.587174 236.553715 
L 340.826266 236.010908 
L 341.065357 234.374679 
L 341.304449 236.599133 
L 341.543541 237.107052 
L 341.782632 233.839952 
L 342.021724 233.395211 
L 342.260816 235.207529 
L 342.738999 230.648713 
L 343.217182 235.758728 
L 343.456274 238.344395 
L 343.695365 237.11388 
L 343.934457 238.928822 
L 344.173549 238.431979 
L 344.41264 236.42601 
L 344.651732 230.302409 
L 344.890823 231.674416 
L 345.129915 235.232216 
L 345.369007 233.980523 
L 345.608098 230.162305 
L 345.84719 234.765434 
L 346.086282 236.319362 
L 346.325373 235.855473 
L 347.042648 238.947462 
L 347.28174 238.925107 
L 347.759923 237.438176 
L 347.999014 238.570727 
L 348.238106 237.031435 
L 348.477198 237.051342 
L 348.716289 238.143666 
L 348.955381 235.925896 
L 349.194473 238.276781 
L 349.433564 237.322109 
L 349.672656 238.906685 
L 349.911747 239.721406 
L 350.150839 240.095495 
L 350.389931 240.013395 
L 350.629022 239.304997 
L 350.868114 237.476483 
L 351.107206 234.762652 
L 351.346297 238.293784 
L 351.82448 238.614429 
L 352.302664 238.575491 
L 352.541755 232.577096 
L 352.780847 236.409937 
L 353.019939 238.07236 
L 353.498122 238.564773 
L 353.737213 239.352596 
L 353.976305 237.4184 
L 354.215397 226.097885 
L 354.454488 231.342365 
L 354.69358 211.661127 
L 354.932672 230.537235 
L 355.171763 233.260277 
L 355.410855 234.695226 
L 355.889038 235.938192 
L 356.12813 236.385433 
L 356.367221 236.122671 
L 356.606313 237.201804 
L 356.845405 236.541667 
L 357.084496 239.254779 
L 357.323588 237.85811 
L 357.562679 237.813805 
L 357.801771 234.455395 
L 358.040863 234.751387 
L 358.279954 238.115673 
L 358.519046 232.901145 
L 358.758138 241.633739 
L 358.997229 240.493338 
L 359.236321 240.314963 
L 359.475412 240.322327 
L 359.714504 240.720744 
L 359.953596 240.857923 
L 360.192687 239.994595 
L 360.431779 237.780672 
L 360.670871 237.579069 
L 360.909962 239.039289 
L 361.388145 239.019037 
L 361.627237 238.338072 
L 361.866329 239.849152 
L 362.10542 238.596508 
L 362.344512 240.109562 
L 362.583604 238.857919 
L 362.822695 241.460967 
L 363.061787 240.502184 
L 363.779062 239.591295 
L 364.257245 240.023855 
L 364.496336 240.313547 
L 364.735428 240.841712 
L 365.213611 240.536748 
L 365.930886 240.65127 
L 366.169978 240.715849 
L 366.409069 240.46323 
L 366.648161 240.759463 
L 366.887253 240.571074 
L 368.082711 240.468012 
L 368.799986 240.731176 
L 369.278169 240.590259 
L 369.995444 240.583817 
L 371.429994 240.605209 
L 373.581818 240.605209 
L 373.581818 240.605209 
" style="fill:none;stroke:#ff7f0e;stroke-linecap:square;stroke-width:1.5;"/>
   </g>
   <g id="patch_3">
    <path d="M 54 252 
L 54 34.56 
" style="fill:none;stroke:#000000;stroke-linecap:square;stroke-linejoin:miter;stroke-width:0.8;"/>
   </g>
   <g id="patch_4">
    <path d="M 388.8 252 
L 388.8 34.56 
" style="fill:none;stroke:#000000;stroke-linecap:square;stroke-linejoin:miter;stroke-width:0.8;"/>
   </g>
   <g id="patch_5">
    <path d="M 54 252 
L 388.8 252 
" style="fill:none;stroke:#000000;stroke-linecap:square;stroke-linejoin:miter;stroke-width:0.8;"/>
   </g>
   <g id="patch_6">
    <path d="M 54 34.56 
L 388.8 34.56 
" style="fill:none;stroke:#000000;stroke-linecap:square;stroke-linejoin:miter;stroke-width:0.8;"/>
   </g>
   <g id="legend_1">
    <g id="patch_7">
     <path d="M 271.970312 71.91625 
L 381.8 71.91625 
Q 383.8 71.91625 383.8 69.91625 
L 383.8 41.56 
Q 383.8 39.56 381.8 39.56 
L 271.970312 39.56 
Q 269.970312 39.56 269.970312 41.56 
L 269.970312 69.91625 
Q 269.970312 71.91625 271.970312 71.91625 
z
" style="fill:#ffffff;opacity:0.8;stroke:#cccccc;stroke-linejoin:miter;"/>
    </g>
    <g id="line2d_15">
     <path d="M 273.970312 47.658437 
L 293.970312 47.658437 
" style="fill:none;stroke:#1f77b4;stroke-linecap:square;stroke-width:1.5;"/>
    </g>
    <g id="line2d_16"/>
    <g id="text_13">
     <!-- True value -->
     <defs>
      <path d="M -0.296875 72.90625 
L 61.375 72.90625 
L 61.375 64.59375 
L 35.5 64.59375 
L 35.5 0 
L 25.59375 0 
L 25.59375 64.59375 
L -0.296875 64.59375 
z
" id="DejaVuSans-84"/>
      <path d="M 41.109375 46.296875 
Q 39.59375 47.171875 37.8125 47.578125 
Q 36.03125 48 33.890625 48 
Q 26.265625 48 22.1875 43.046875 
Q 18.109375 38.09375 18.109375 28.8125 
L 18.109375 0 
L 9.078125 0 
L 9.078125 54.6875 
L 18.109375 54.6875 
L 18.109375 46.1875 
Q 20.953125 51.171875 25.484375 53.578125 
Q 30.03125 56 36.53125 56 
Q 37.453125 56 38.578125 55.875 
Q 39.703125 55.765625 41.0625 55.515625 
z
" id="DejaVuSans-114"/>
      <path d="M 8.5 21.578125 
L 8.5 54.6875 
L 17.484375 54.6875 
L 17.484375 21.921875 
Q 17.484375 14.15625 20.5 10.265625 
Q 23.53125 6.390625 29.59375 6.390625 
Q 36.859375 6.390625 41.078125 11.03125 
Q 45.3125 15.671875 45.3125 23.6875 
L 45.3125 54.6875 
L 54.296875 54.6875 
L 54.296875 0 
L 45.3125 0 
L 45.3125 8.40625 
Q 42.046875 3.421875 37.71875 1 
Q 33.40625 -1.421875 27.6875 -1.421875 
Q 18.265625 -1.421875 13.375 4.4375 
Q 8.5 10.296875 8.5 21.578125 
z
M 31.109375 56 
z
" id="DejaVuSans-117"/>
      <path d="M 56.203125 29.59375 
L 56.203125 25.203125 
L 14.890625 25.203125 
Q 15.484375 15.921875 20.484375 11.0625 
Q 25.484375 6.203125 34.421875 6.203125 
Q 39.59375 6.203125 44.453125 7.46875 
Q 49.3125 8.734375 54.109375 11.28125 
L 54.109375 2.78125 
Q 49.265625 0.734375 44.1875 -0.34375 
Q 39.109375 -1.421875 33.890625 -1.421875 
Q 20.796875 -1.421875 13.15625 6.1875 
Q 5.515625 13.8125 5.515625 26.8125 
Q 5.515625 40.234375 12.765625 48.109375 
Q 20.015625 56 32.328125 56 
Q 43.359375 56 49.78125 48.890625 
Q 56.203125 41.796875 56.203125 29.59375 
z
M 47.21875 32.234375 
Q 47.125 39.59375 43.09375 43.984375 
Q 39.0625 48.390625 32.421875 48.390625 
Q 24.90625 48.390625 20.390625 44.140625 
Q 15.875 39.890625 15.1875 32.171875 
z
" id="DejaVuSans-101"/>
      <path id="DejaVuSans-32"/>
      <path d="M 2.984375 54.6875 
L 12.5 54.6875 
L 29.59375 8.796875 
L 46.6875 54.6875 
L 56.203125 54.6875 
L 35.6875 0 
L 23.484375 0 
z
" id="DejaVuSans-118"/>
      <path d="M 34.28125 27.484375 
Q 23.390625 27.484375 19.1875 25 
Q 14.984375 22.515625 14.984375 16.5 
Q 14.984375 11.71875 18.140625 8.90625 
Q 21.296875 6.109375 26.703125 6.109375 
Q 34.1875 6.109375 38.703125 11.40625 
Q 43.21875 16.703125 43.21875 25.484375 
L 43.21875 27.484375 
z
M 52.203125 31.203125 
L 52.203125 0 
L 43.21875 0 
L 43.21875 8.296875 
Q 40.140625 3.328125 35.546875 0.953125 
Q 30.953125 -1.421875 24.3125 -1.421875 
Q 15.921875 -1.421875 10.953125 3.296875 
Q 6 8.015625 6 15.921875 
Q 6 25.140625 12.171875 29.828125 
Q 18.359375 34.515625 30.609375 34.515625 
L 43.21875 34.515625 
L 43.21875 35.40625 
Q 43.21875 41.609375 39.140625 45 
Q 35.0625 48.390625 27.6875 48.390625 
Q 23 48.390625 18.546875 47.265625 
Q 14.109375 46.140625 10.015625 43.890625 
L 10.015625 52.203125 
Q 14.9375 54.109375 19.578125 55.046875 
Q 24.21875 56 28.609375 56 
Q 40.484375 56 46.34375 49.84375 
Q 52.203125 43.703125 52.203125 31.203125 
z
" id="DejaVuSans-97"/>
      <path d="M 9.421875 75.984375 
L 18.40625 75.984375 
L 18.40625 0 
L 9.421875 0 
z
" id="DejaVuSans-108"/>
     </defs>
     <g transform="translate(301.970312 51.158437)scale(0.1 -0.1)">
      <use xlink:href="#DejaVuSans-84"/>
      <use x="60.865234" xlink:href="#DejaVuSans-114"/>
      <use x="101.978516" xlink:href="#DejaVuSans-117"/>
      <use x="165.357422" xlink:href="#DejaVuSans-101"/>
      <use x="226.880859" xlink:href="#DejaVuSans-32"/>
      <use x="258.667969" xlink:href="#DejaVuSans-118"/>
      <use x="317.847656" xlink:href="#DejaVuSans-97"/>
      <use x="379.126953" xlink:href="#DejaVuSans-108"/>
      <use x="406.910156" xlink:href="#DejaVuSans-117"/>
      <use x="470.289062" xlink:href="#DejaVuSans-101"/>
     </g>
    </g>
    <g id="line2d_17">
     <path d="M 273.970312 62.336562 
L 293.970312 62.336562 
" style="fill:none;stroke:#ff7f0e;stroke-linecap:square;stroke-width:1.5;"/>
    </g>
    <g id="line2d_18"/>
    <g id="text_14">
     <!-- Predicted value -->
     <defs>
      <path d="M 19.671875 64.796875 
L 19.671875 37.40625 
L 32.078125 37.40625 
Q 38.96875 37.40625 42.71875 40.96875 
Q 46.484375 44.53125 46.484375 51.125 
Q 46.484375 57.671875 42.71875 61.234375 
Q 38.96875 64.796875 32.078125 64.796875 
z
M 9.8125 72.90625 
L 32.078125 72.90625 
Q 44.34375 72.90625 50.609375 67.359375 
Q 56.890625 61.8125 56.890625 51.125 
Q 56.890625 40.328125 50.609375 34.8125 
Q 44.34375 29.296875 32.078125 29.296875 
L 19.671875 29.296875 
L 19.671875 0 
L 9.8125 0 
z
" id="DejaVuSans-80"/>
      <path d="M 45.40625 46.390625 
L 45.40625 75.984375 
L 54.390625 75.984375 
L 54.390625 0 
L 45.40625 0 
L 45.40625 8.203125 
Q 42.578125 3.328125 38.25 0.953125 
Q 33.9375 -1.421875 27.875 -1.421875 
Q 17.96875 -1.421875 11.734375 6.484375 
Q 5.515625 14.40625 5.515625 27.296875 
Q 5.515625 40.1875 11.734375 48.09375 
Q 17.96875 56 27.875 56 
Q 33.9375 56 38.25 53.625 
Q 42.578125 51.265625 45.40625 46.390625 
z
M 14.796875 27.296875 
Q 14.796875 17.390625 18.875 11.75 
Q 22.953125 6.109375 30.078125 6.109375 
Q 37.203125 6.109375 41.296875 11.75 
Q 45.40625 17.390625 45.40625 27.296875 
Q 45.40625 37.203125 41.296875 42.84375 
Q 37.203125 48.484375 30.078125 48.484375 
Q 22.953125 48.484375 18.875 42.84375 
Q 14.796875 37.203125 14.796875 27.296875 
z
" id="DejaVuSans-100"/>
      <path d="M 9.421875 54.6875 
L 18.40625 54.6875 
L 18.40625 0 
L 9.421875 0 
z
M 9.421875 75.984375 
L 18.40625 75.984375 
L 18.40625 64.59375 
L 9.421875 64.59375 
z
" id="DejaVuSans-105"/>
      <path d="M 48.78125 52.59375 
L 48.78125 44.1875 
Q 44.96875 46.296875 41.140625 47.34375 
Q 37.3125 48.390625 33.40625 48.390625 
Q 24.65625 48.390625 19.8125 42.84375 
Q 14.984375 37.3125 14.984375 27.296875 
Q 14.984375 17.28125 19.8125 11.734375 
Q 24.65625 6.203125 33.40625 6.203125 
Q 37.3125 6.203125 41.140625 7.25 
Q 44.96875 8.296875 48.78125 10.40625 
L 48.78125 2.09375 
Q 45.015625 0.34375 40.984375 -0.53125 
Q 36.96875 -1.421875 32.421875 -1.421875 
Q 20.0625 -1.421875 12.78125 6.34375 
Q 5.515625 14.109375 5.515625 27.296875 
Q 5.515625 40.671875 12.859375 48.328125 
Q 20.21875 56 33.015625 56 
Q 37.15625 56 41.109375 55.140625 
Q 45.0625 54.296875 48.78125 52.59375 
z
" id="DejaVuSans-99"/>
      <path d="M 18.3125 70.21875 
L 18.3125 54.6875 
L 36.8125 54.6875 
L 36.8125 47.703125 
L 18.3125 47.703125 
L 18.3125 18.015625 
Q 18.3125 11.328125 20.140625 9.421875 
Q 21.96875 7.515625 27.59375 7.515625 
L 36.8125 7.515625 
L 36.8125 0 
L 27.59375 0 
Q 17.1875 0 13.234375 3.875 
Q 9.28125 7.765625 9.28125 18.015625 
L 9.28125 47.703125 
L 2.6875 47.703125 
L 2.6875 54.6875 
L 9.28125 54.6875 
L 9.28125 70.21875 
z
" id="DejaVuSans-116"/>
     </defs>
     <g transform="translate(301.970312 65.836562)scale(0.1 -0.1)">
      <use xlink:href="#DejaVuSans-80"/>
      <use x="60.287109" xlink:href="#DejaVuSans-114"/>
      <use x="101.369141" xlink:href="#DejaVuSans-101"/>
      <use x="162.892578" xlink:href="#DejaVuSans-100"/>
      <use x="226.369141" xlink:href="#DejaVuSans-105"/>
      <use x="254.152344" xlink:href="#DejaVuSans-99"/>
      <use x="309.132812" xlink:href="#DejaVuSans-116"/>
      <use x="348.341797" xlink:href="#DejaVuSans-101"/>
      <use x="409.865234" xlink:href="#DejaVuSans-100"/>
      <use x="473.341797" xlink:href="#DejaVuSans-32"/>
      <use x="505.128906" xlink:href="#DejaVuSans-118"/>
      <use x="564.308594" xlink:href="#DejaVuSans-97"/>
      <use x="625.587891" xlink:href="#DejaVuSans-108"/>
      <use x="653.371094" xlink:href="#DejaVuSans-117"/>
      <use x="716.75" xlink:href="#DejaVuSans-101"/>
     </g>
    </g>
   </g>
  </g>
 </g>
 <defs>
  <clipPath id="p2d5a05898f">
   <rect height="217.44" width="334.8" x="54" y="34.56"/>
  </clipPath>
 </defs>
</svg>
