<?xml version="1.0" encoding="utf-8" standalone="no"?>
<!DOCTYPE svg PUBLIC "-//W3C//DTD SVG 1.1//EN"
  "http://www.w3.org/Graphics/SVG/1.1/DTD/svg11.dtd">
<!-- Created with matplotlib (https://matplotlib.org/) -->
<svg height="288pt" version="1.1" viewBox="0 0 432 288" width="432pt" xmlns="http://www.w3.org/2000/svg" xmlns:xlink="http://www.w3.org/1999/xlink">
 <defs>
  <style type="text/css">
*{stroke-linecap:butt;stroke-linejoin:round;}
  </style>
 </defs>
 <g id="figure_1">
  <g id="patch_1">
   <path d="M 0 288 
L 432 288 
L 432 0 
L 0 0 
z
" style="fill:#ffffff;"/>
  </g>
  <g id="axes_1">
   <g id="patch_2">
    <path d="M 54 252 
L 388.8 252 
L 388.8 34.56 
L 54 34.56 
z
" style="fill:#ffffff;"/>
   </g>
   <g id="matplotlib.axis_1">
    <g id="xtick_1">
     <g id="line2d_1">
      <defs>
       <path d="M 0 0 
L 0 3.5 
" id="m81c4a6d723" style="stroke:#000000;stroke-width:0.8;"/>
      </defs>
      <g>
       <use style="stroke:#000000;stroke-width:0.8;" x="69.218182" xlink:href="#m81c4a6d723" y="252"/>
      </g>
     </g>
     <g id="text_1">
      <!-- 0 -->
      <defs>
       <path d="M 31.78125 66.40625 
Q 24.171875 66.40625 20.328125 58.90625 
Q 16.5 51.421875 16.5 36.375 
Q 16.5 21.390625 20.328125 13.890625 
Q 24.171875 6.390625 31.78125 6.390625 
Q 39.453125 6.390625 43.28125 13.890625 
Q 47.125 21.390625 47.125 36.375 
Q 47.125 51.421875 43.28125 58.90625 
Q 39.453125 66.40625 31.78125 66.40625 
z
M 31.78125 74.21875 
Q 44.046875 74.21875 50.515625 64.515625 
Q 56.984375 54.828125 56.984375 36.375 
Q 56.984375 17.96875 50.515625 8.265625 
Q 44.046875 -1.421875 31.78125 -1.421875 
Q 19.53125 -1.421875 13.0625 8.265625 
Q 6.59375 17.96875 6.59375 36.375 
Q 6.59375 54.828125 13.0625 64.515625 
Q 19.53125 74.21875 31.78125 74.21875 
z
" id="DejaVuSans-48"/>
      </defs>
      <g transform="translate(66.036932 266.598437)scale(0.1 -0.1)">
       <use xlink:href="#DejaVuSans-48"/>
      </g>
     </g>
    </g>
    <g id="xtick_2">
     <g id="line2d_2">
      <g>
       <use style="stroke:#000000;stroke-width:0.8;" x="117.036506" xlink:href="#m81c4a6d723" y="252"/>
      </g>
     </g>
     <g id="text_2">
      <!-- 200 -->
      <defs>
       <path d="M 19.1875 8.296875 
L 53.609375 8.296875 
L 53.609375 0 
L 7.328125 0 
L 7.328125 8.296875 
Q 12.9375 14.109375 22.625 23.890625 
Q 32.328125 33.6875 34.8125 36.53125 
Q 39.546875 41.84375 41.421875 45.53125 
Q 43.3125 49.21875 43.3125 52.78125 
Q 43.3125 58.59375 39.234375 62.25 
Q 35.15625 65.921875 28.609375 65.921875 
Q 23.96875 65.921875 18.8125 64.3125 
Q 13.671875 62.703125 7.8125 59.421875 
L 7.8125 69.390625 
Q 13.765625 71.78125 18.9375 73 
Q 24.125 74.21875 28.421875 74.21875 
Q 39.75 74.21875 46.484375 68.546875 
Q 53.21875 62.890625 53.21875 53.421875 
Q 53.21875 48.921875 51.53125 44.890625 
Q 49.859375 40.875 45.40625 35.40625 
Q 44.1875 33.984375 37.640625 27.21875 
Q 31.109375 20.453125 19.1875 8.296875 
z
" id="DejaVuSans-50"/>
      </defs>
      <g transform="translate(107.492756 266.598437)scale(0.1 -0.1)">
       <use xlink:href="#DejaVuSans-50"/>
       <use x="63.623047" xlink:href="#DejaVuSans-48"/>
       <use x="127.246094" xlink:href="#DejaVuSans-48"/>
      </g>
     </g>
    </g>
    <g id="xtick_3">
     <g id="line2d_3">
      <g>
       <use style="stroke:#000000;stroke-width:0.8;" x="164.854831" xlink:href="#m81c4a6d723" y="252"/>
      </g>
     </g>
     <g id="text_3">
      <!-- 400 -->
      <defs>
       <path d="M 37.796875 64.3125 
L 12.890625 25.390625 
L 37.796875 25.390625 
z
M 35.203125 72.90625 
L 47.609375 72.90625 
L 47.609375 25.390625 
L 58.015625 25.390625 
L 58.015625 17.1875 
L 47.609375 17.1875 
L 47.609375 0 
L 37.796875 0 
L 37.796875 17.1875 
L 4.890625 17.1875 
L 4.890625 26.703125 
z
" id="DejaVuSans-52"/>
      </defs>
      <g transform="translate(155.311081 266.598437)scale(0.1 -0.1)">
       <use xlink:href="#DejaVuSans-52"/>
       <use x="63.623047" xlink:href="#DejaVuSans-48"/>
       <use x="127.246094" xlink:href="#DejaVuSans-48"/>
      </g>
     </g>
    </g>
    <g id="xtick_4">
     <g id="line2d_4">
      <g>
       <use style="stroke:#000000;stroke-width:0.8;" x="212.673156" xlink:href="#m81c4a6d723" y="252"/>
      </g>
     </g>
     <g id="text_4">
      <!-- 600 -->
      <defs>
       <path d="M 33.015625 40.375 
Q 26.375 40.375 22.484375 35.828125 
Q 18.609375 31.296875 18.609375 23.390625 
Q 18.609375 15.53125 22.484375 10.953125 
Q 26.375 6.390625 33.015625 6.390625 
Q 39.65625 6.390625 43.53125 10.953125 
Q 47.40625 15.53125 47.40625 23.390625 
Q 47.40625 31.296875 43.53125 35.828125 
Q 39.65625 40.375 33.015625 40.375 
z
M 52.59375 71.296875 
L 52.59375 62.3125 
Q 48.875 64.0625 45.09375 64.984375 
Q 41.3125 65.921875 37.59375 65.921875 
Q 27.828125 65.921875 22.671875 59.328125 
Q 17.53125 52.734375 16.796875 39.40625 
Q 19.671875 43.65625 24.015625 45.921875 
Q 28.375 48.1875 33.59375 48.1875 
Q 44.578125 48.1875 50.953125 41.515625 
Q 57.328125 34.859375 57.328125 23.390625 
Q 57.328125 12.15625 50.6875 5.359375 
Q 44.046875 -1.421875 33.015625 -1.421875 
Q 20.359375 -1.421875 13.671875 8.265625 
Q 6.984375 17.96875 6.984375 36.375 
Q 6.984375 53.65625 15.1875 63.9375 
Q 23.390625 74.21875 37.203125 74.21875 
Q 40.921875 74.21875 44.703125 73.484375 
Q 48.484375 72.75 52.59375 71.296875 
z
" id="DejaVuSans-54"/>
      </defs>
      <g transform="translate(203.129406 266.598437)scale(0.1 -0.1)">
       <use xlink:href="#DejaVuSans-54"/>
       <use x="63.623047" xlink:href="#DejaVuSans-48"/>
       <use x="127.246094" xlink:href="#DejaVuSans-48"/>
      </g>
     </g>
    </g>
    <g id="xtick_5">
     <g id="line2d_5">
      <g>
       <use style="stroke:#000000;stroke-width:0.8;" x="260.49148" xlink:href="#m81c4a6d723" y="252"/>
      </g>
     </g>
     <g id="text_5">
      <!-- 800 -->
      <defs>
       <path d="M 31.78125 34.625 
Q 24.75 34.625 20.71875 30.859375 
Q 16.703125 27.09375 16.703125 20.515625 
Q 16.703125 13.921875 20.71875 10.15625 
Q 24.75 6.390625 31.78125 6.390625 
Q 38.8125 6.390625 42.859375 10.171875 
Q 46.921875 13.96875 46.921875 20.515625 
Q 46.921875 27.09375 42.890625 30.859375 
Q 38.875 34.625 31.78125 34.625 
z
M 21.921875 38.8125 
Q 15.578125 40.375 12.03125 44.71875 
Q 8.5 49.078125 8.5 55.328125 
Q 8.5 64.0625 14.71875 69.140625 
Q 20.953125 74.21875 31.78125 74.21875 
Q 42.671875 74.21875 48.875 69.140625 
Q 55.078125 64.0625 55.078125 55.328125 
Q 55.078125 49.078125 51.53125 44.71875 
Q 48 40.375 41.703125 38.8125 
Q 48.828125 37.15625 52.796875 32.3125 
Q 56.78125 27.484375 56.78125 20.515625 
Q 56.78125 9.90625 50.3125 4.234375 
Q 43.84375 -1.421875 31.78125 -1.421875 
Q 19.734375 -1.421875 13.25 4.234375 
Q 6.78125 9.90625 6.78125 20.515625 
Q 6.78125 27.484375 10.78125 32.3125 
Q 14.796875 37.15625 21.921875 38.8125 
z
M 18.3125 54.390625 
Q 18.3125 48.734375 21.84375 45.5625 
Q 25.390625 42.390625 31.78125 42.390625 
Q 38.140625 42.390625 41.71875 45.5625 
Q 45.3125 48.734375 45.3125 54.390625 
Q 45.3125 60.0625 41.71875 63.234375 
Q 38.140625 66.40625 31.78125 66.40625 
Q 25.390625 66.40625 21.84375 63.234375 
Q 18.3125 60.0625 18.3125 54.390625 
z
" id="DejaVuSans-56"/>
      </defs>
      <g transform="translate(250.94773 266.598437)scale(0.1 -0.1)">
       <use xlink:href="#DejaVuSans-56"/>
       <use x="63.623047" xlink:href="#DejaVuSans-48"/>
       <use x="127.246094" xlink:href="#DejaVuSans-48"/>
      </g>
     </g>
    </g>
    <g id="xtick_6">
     <g id="line2d_6">
      <g>
       <use style="stroke:#000000;stroke-width:0.8;" x="308.309805" xlink:href="#m81c4a6d723" y="252"/>
      </g>
     </g>
     <g id="text_6">
      <!-- 1000 -->
      <defs>
       <path d="M 12.40625 8.296875 
L 28.515625 8.296875 
L 28.515625 63.921875 
L 10.984375 60.40625 
L 10.984375 69.390625 
L 28.421875 72.90625 
L 38.28125 72.90625 
L 38.28125 8.296875 
L 54.390625 8.296875 
L 54.390625 0 
L 12.40625 0 
z
" id="DejaVuSans-49"/>
      </defs>
      <g transform="translate(295.584805 266.598437)scale(0.1 -0.1)">
       <use xlink:href="#DejaVuSans-49"/>
       <use x="63.623047" xlink:href="#DejaVuSans-48"/>
       <use x="127.246094" xlink:href="#DejaVuSans-48"/>
       <use x="190.869141" xlink:href="#DejaVuSans-48"/>
      </g>
     </g>
    </g>
    <g id="xtick_7">
     <g id="line2d_7">
      <g>
       <use style="stroke:#000000;stroke-width:0.8;" x="356.12813" xlink:href="#m81c4a6d723" y="252"/>
      </g>
     </g>
     <g id="text_7">
      <!-- 1200 -->
      <g transform="translate(343.40313 266.598437)scale(0.1 -0.1)">
       <use xlink:href="#DejaVuSans-49"/>
       <use x="63.623047" xlink:href="#DejaVuSans-50"/>
       <use x="127.246094" xlink:href="#DejaVuSans-48"/>
       <use x="190.869141" xlink:href="#DejaVuSans-48"/>
      </g>
     </g>
    </g>
   </g>
   <g id="matplotlib.axis_2">
    <g id="ytick_1">
     <g id="line2d_8">
      <defs>
       <path d="M 0 0 
L -3.5 0 
" id="m249dc52abd" style="stroke:#000000;stroke-width:0.8;"/>
      </defs>
      <g>
       <use style="stroke:#000000;stroke-width:0.8;" x="54" xlink:href="#m249dc52abd" y="240.99747"/>
      </g>
     </g>
     <g id="text_8">
      <!-- 0 -->
      <g transform="translate(40.6375 244.796689)scale(0.1 -0.1)">
       <use xlink:href="#DejaVuSans-48"/>
      </g>
     </g>
    </g>
    <g id="ytick_2">
     <g id="line2d_9">
      <g>
       <use style="stroke:#000000;stroke-width:0.8;" x="54" xlink:href="#m249dc52abd" y="198.908855"/>
      </g>
     </g>
     <g id="text_9">
      <!-- 100 -->
      <g transform="translate(27.9125 202.708073)scale(0.1 -0.1)">
       <use xlink:href="#DejaVuSans-49"/>
       <use x="63.623047" xlink:href="#DejaVuSans-48"/>
       <use x="127.246094" xlink:href="#DejaVuSans-48"/>
      </g>
     </g>
    </g>
    <g id="ytick_3">
     <g id="line2d_10">
      <g>
       <use style="stroke:#000000;stroke-width:0.8;" x="54" xlink:href="#m249dc52abd" y="156.820239"/>
      </g>
     </g>
     <g id="text_10">
      <!-- 200 -->
      <g transform="translate(27.9125 160.619458)scale(0.1 -0.1)">
       <use xlink:href="#DejaVuSans-50"/>
       <use x="63.623047" xlink:href="#DejaVuSans-48"/>
       <use x="127.246094" xlink:href="#DejaVuSans-48"/>
      </g>
     </g>
    </g>
    <g id="ytick_4">
     <g id="line2d_11">
      <g>
       <use style="stroke:#000000;stroke-width:0.8;" x="54" xlink:href="#m249dc52abd" y="114.731624"/>
      </g>
     </g>
     <g id="text_11">
      <!-- 300 -->
      <defs>
       <path d="M 40.578125 39.3125 
Q 47.65625 37.796875 51.625 33 
Q 55.609375 28.21875 55.609375 21.1875 
Q 55.609375 10.40625 48.1875 4.484375 
Q 40.765625 -1.421875 27.09375 -1.421875 
Q 22.515625 -1.421875 17.65625 -0.515625 
Q 12.796875 0.390625 7.625 2.203125 
L 7.625 11.71875 
Q 11.71875 9.328125 16.59375 8.109375 
Q 21.484375 6.890625 26.8125 6.890625 
Q 36.078125 6.890625 40.9375 10.546875 
Q 45.796875 14.203125 45.796875 21.1875 
Q 45.796875 27.640625 41.28125 31.265625 
Q 36.765625 34.90625 28.71875 34.90625 
L 20.21875 34.90625 
L 20.21875 43.015625 
L 29.109375 43.015625 
Q 36.375 43.015625 40.234375 45.921875 
Q 44.09375 48.828125 44.09375 54.296875 
Q 44.09375 59.90625 40.109375 62.90625 
Q 36.140625 65.921875 28.71875 65.921875 
Q 24.65625 65.921875 20.015625 65.03125 
Q 15.375 64.15625 9.8125 62.3125 
L 9.8125 71.09375 
Q 15.4375 72.65625 20.34375 73.4375 
Q 25.25 74.21875 29.59375 74.21875 
Q 40.828125 74.21875 47.359375 69.109375 
Q 53.90625 64.015625 53.90625 55.328125 
Q 53.90625 49.265625 50.4375 45.09375 
Q 46.96875 40.921875 40.578125 39.3125 
z
" id="DejaVuSans-51"/>
      </defs>
      <g transform="translate(27.9125 118.530843)scale(0.1 -0.1)">
       <use xlink:href="#DejaVuSans-51"/>
       <use x="63.623047" xlink:href="#DejaVuSans-48"/>
       <use x="127.246094" xlink:href="#DejaVuSans-48"/>
      </g>
     </g>
    </g>
    <g id="ytick_5">
     <g id="line2d_12">
      <g>
       <use style="stroke:#000000;stroke-width:0.8;" x="54" xlink:href="#m249dc52abd" y="72.643009"/>
      </g>
     </g>
     <g id="text_12">
      <!-- 400 -->
      <g transform="translate(27.9125 76.442227)scale(0.1 -0.1)">
       <use xlink:href="#DejaVuSans-52"/>
       <use x="63.623047" xlink:href="#DejaVuSans-48"/>
       <use x="127.246094" xlink:href="#DejaVuSans-48"/>
      </g>
     </g>
    </g>
   </g>
   <g id="line2d_13">
    <path clip-path="url(#pf89ca06885)" d="M 69.218182 209.010122 
L 69.457273 230.896202 
L 69.935457 213.63987 
L 70.174548 235.105064 
L 70.41364 240.576584 
L 70.652732 240.99747 
L 70.891823 240.99747 
L 71.130915 238.893039 
L 71.370006 234.684178 
L 71.609098 240.576584 
L 71.84819 240.99747 
L 72.087281 240.99747 
L 72.565465 240.155698 
L 72.804556 240.99747 
L 73.282739 240.99747 
L 73.521831 234.684178 
L 73.760923 190.912018 
L 74.000014 100.421495 
L 74.239106 202.275944 
L 74.478198 211.114553 
L 74.717289 199.750627 
L 74.956381 237.630381 
L 75.195472 240.99747 
L 75.434564 240.99747 
L 75.912747 240.155698 
L 76.151839 237.630381 
L 76.390931 203.538602 
L 76.630022 226.687341 
L 76.869114 230.475316 
L 77.108205 240.99747 
L 77.586389 238.051267 
L 77.82548 227.108227 
L 78.303664 239.734812 
L 78.542755 222.899365 
L 78.781847 240.99747 
L 79.020938 237.630381 
L 79.26003 238.051267 
L 79.499122 240.99747 
L 79.738213 240.99747 
L 79.977305 240.155698 
L 80.216396 240.99747 
L 80.455488 238.051267 
L 80.69458 238.472153 
L 80.933671 240.576584 
L 81.172763 240.155698 
L 81.411855 216.165187 
L 81.650946 240.99747 
L 81.890038 240.576584 
L 82.129129 240.99747 
L 82.368221 240.99747 
L 82.607313 240.155698 
L 82.846404 240.576584 
L 83.085496 237.209495 
L 83.324588 239.734812 
L 83.563679 234.684178 
L 83.802771 239.313925 
L 84.041862 240.99747 
L 84.280954 238.472153 
L 84.520046 240.99747 
L 84.998229 240.99747 
L 85.237321 226.687341 
L 85.476412 229.633544 
L 85.954595 198.067082 
L 86.193687 226.687341 
L 86.432779 240.99747 
L 89.062787 240.99747 
L 89.301878 233.842405 
L 89.54097 240.99747 
L 89.780061 234.263292 
L 90.019153 240.155698 
L 90.258245 240.99747 
L 90.736428 238.051267 
L 90.97552 193.016449 
L 91.214611 240.576584 
L 91.453703 240.99747 
L 117.992873 240.99747 
L 118.231965 232.158861 
L 118.710148 240.99747 
L 126.839263 240.99747 
L 127.078355 240.576584 
L 127.317446 240.99747 
L 130.425637 240.99747 
L 130.664729 239.313925 
L 130.903821 240.99747 
L 136.402928 240.99747 
L 136.64202 238.472153 
L 136.881111 240.576584 
L 137.120203 240.155698 
L 137.598386 240.99747 
L 138.076569 240.99747 
L 138.315661 239.313925 
L 138.554753 239.734812 
L 138.793844 240.99747 
L 139.032936 238.893039 
L 139.272027 219.11139 
L 139.511119 240.99747 
L 141.902035 240.99747 
L 142.141127 231.317089 
L 142.380219 240.155698 
L 142.61931 240.99747 
L 143.097493 240.99747 
L 143.336585 234.263292 
L 143.575677 230.896202 
L 143.814768 240.99747 
L 144.05386 240.155698 
L 144.292952 240.99747 
L 144.532043 237.209495 
L 144.771135 236.367722 
L 145.010226 239.734812 
L 145.249318 240.99747 
L 145.48841 238.893039 
L 145.727501 234.684178 
L 145.966593 240.576584 
L 146.205684 240.99747 
L 147.162051 240.99747 
L 147.401143 238.051267 
L 147.640234 240.576584 
L 147.879326 240.99747 
L 148.118417 237.630381 
L 148.835692 203.117716 
L 149.074784 222.057593 
L 149.313876 182.494295 
L 149.552967 202.69683 
L 149.792059 240.155698 
L 150.03115 212.798098 
L 150.270242 233.842405 
L 150.509334 237.630381 
L 150.987517 223.741138 
L 151.226609 240.99747 
L 151.4657 238.893039 
L 151.704792 233.000633 
L 151.943883 220.374049 
L 152.661158 240.99747 
L 153.617525 240.99747 
L 153.856616 237.209495 
L 154.095708 240.99747 
L 154.812983 240.99747 
L 155.052075 232.158861 
L 155.291166 207.747464 
L 155.530258 218.269618 
L 155.769349 234.263292 
L 156.008441 192.174676 
L 156.247533 187.124042 
L 156.486624 199.329741 
L 156.725716 224.162024 
L 156.964808 234.263292 
L 157.203899 239.313925 
L 157.442991 240.99747 
L 157.921174 240.99747 
L 158.160266 238.893039 
L 158.399357 238.051267 
L 158.638449 238.893039 
L 158.877541 237.630381 
L 159.116632 237.630381 
L 159.355724 234.263292 
L 159.594815 227.529113 
L 159.833907 214.481642 
L 160.072999 238.051267 
L 160.31209 228.791772 
L 160.551182 240.155698 
L 160.790274 238.472153 
L 161.029365 238.051267 
L 161.268457 222.057593 
L 161.507548 233.421519 
L 161.74664 237.630381 
L 161.985732 233.000633 
L 162.224823 232.579747 
L 162.463915 211.535439 
L 162.703006 208.16835 
L 162.942098 230.896202 
L 163.18119 240.99747 
L 163.420281 219.532276 
L 163.659373 240.155698 
L 163.898465 231.737975 
L 164.137556 240.99747 
L 164.376648 223.320252 
L 164.615739 240.99747 
L 165.093923 240.99747 
L 165.333014 235.105064 
L 165.572106 240.99747 
L 165.811198 240.99747 
L 166.050289 232.579747 
L 166.528472 240.99747 
L 166.767564 240.99747 
L 167.006656 233.842405 
L 167.245747 239.734812 
L 167.484839 237.209495 
L 167.723931 240.99747 
L 167.963022 240.155698 
L 168.202114 237.630381 
L 168.441205 240.99747 
L 168.680297 240.99747 
L 168.919389 239.734812 
L 169.15848 240.155698 
L 169.397572 240.99747 
L 169.636664 236.788609 
L 170.114847 240.99747 
L 170.353938 240.99747 
L 170.59303 235.52595 
L 170.832122 240.576584 
L 171.071213 231.737975 
L 171.310305 239.313925 
L 171.549397 238.893039 
L 171.788488 182.073409 
L 172.02758 235.946836 
L 172.266671 240.155698 
L 172.505763 240.99747 
L 173.940313 240.99747 
L 174.179404 239.313925 
L 174.418496 240.99747 
L 174.657588 233.421519 
L 174.896679 240.99747 
L 175.853046 240.99747 
L 176.092137 237.209495 
L 176.331229 238.051267 
L 176.570321 240.99747 
L 177.287596 240.99747 
L 177.526687 240.155698 
L 177.765779 240.99747 
L 180.634878 240.99747 
L 180.87397 240.576584 
L 181.113061 240.99747 
L 195.697651 240.99747 
L 195.936742 239.734812 
L 196.175834 240.155698 
L 196.414925 240.99747 
L 199.284025 240.99747 
L 199.523116 240.576584 
L 199.762208 239.734812 
L 200.0013 240.576584 
L 200.240391 240.99747 
L 211.716789 240.99747 
L 211.955881 235.946836 
L 212.194973 240.99747 
L 216.498622 240.99747 
L 216.737713 239.313925 
L 216.976805 240.99747 
L 218.650446 240.99747 
L 218.889538 239.313925 
L 219.12863 240.99747 
L 222.954096 240.99747 
L 223.67137 227.108227 
L 223.910462 240.99747 
L 225.584103 240.99747 
L 225.823195 236.788609 
L 226.062287 240.99747 
L 227.97502 240.99747 
L 228.214111 236.367722 
L 228.453203 240.99747 
L 229.409569 240.99747 
L 229.648661 239.313925 
L 229.887753 238.893039 
L 230.126844 240.99747 
L 231.083211 240.99747 
L 231.322302 214.481642 
L 231.561394 240.99747 
L 232.278669 240.99747 
L 232.51776 239.734812 
L 232.756852 240.99747 
L 233.95231 240.99747 
L 234.191402 233.421519 
L 234.430493 238.893039 
L 234.908677 215.323415 
L 235.147768 220.374049 
L 235.38686 240.99747 
L 235.625952 229.212658 
L 235.865043 240.99747 
L 236.104135 240.155698 
L 236.343226 222.057593 
L 236.582318 229.633544 
L 236.82141 230.05443 
L 237.060501 240.99747 
L 237.299593 240.155698 
L 237.538685 239.734812 
L 237.777776 240.155698 
L 238.016868 211.535439 
L 238.255959 209.431009 
L 238.495051 199.329741 
L 238.734143 44.443636 
L 238.973234 152.611378 
L 239.212326 130.304412 
L 239.451418 206.905692 
L 239.690509 240.99747 
L 240.168692 240.99747 
L 240.407784 239.734812 
L 240.646876 233.421519 
L 240.885967 234.684178 
L 241.125059 240.99747 
L 241.842334 240.99747 
L 242.081425 233.842405 
L 242.320517 209.851895 
L 242.559609 211.535439 
L 242.7987 239.734812 
L 243.037792 240.99747 
L 243.276884 240.99747 
L 243.515975 238.472153 
L 243.755067 240.99747 
L 243.994158 239.313925 
L 244.23325 236.788609 
L 244.472342 205.222147 
L 244.711433 204.380375 
L 244.950525 212.377212 
L 245.189617 240.576584 
L 245.428708 234.263292 
L 245.6678 212.798098 
L 245.906891 221.636707 
L 246.145983 176.181002 
L 246.385075 192.174676 
L 246.624166 155.978467 
L 246.863258 204.380375 
L 247.102349 209.431009 
L 247.341441 195.541765 
L 247.580533 212.377212 
L 247.819624 153.45315 
L 248.058716 240.155698 
L 248.297808 240.99747 
L 248.536899 240.99747 
L 248.775991 239.313925 
L 249.015082 227.529113 
L 249.254174 240.99747 
L 249.493266 240.99747 
L 249.732357 240.155698 
L 249.971449 240.99747 
L 250.210541 239.734812 
L 250.449632 240.99747 
L 250.927815 240.99747 
L 251.166907 239.734812 
L 251.64509 198.067082 
L 251.884182 226.266455 
L 252.123274 230.896202 
L 252.362365 230.896202 
L 252.601457 227.529113 
L 252.840548 240.99747 
L 253.07964 239.313925 
L 253.318732 238.472153 
L 253.557823 238.051267 
L 253.796915 240.99747 
L 254.036007 240.99747 
L 254.275098 233.000633 
L 254.51419 235.946836 
L 254.753281 216.586073 
L 254.992373 232.579747 
L 255.231465 173.655686 
L 255.470556 169.446824 
L 255.709648 216.586073 
L 255.94874 240.576584 
L 256.187831 240.99747 
L 256.426923 238.893039 
L 256.666014 240.576584 
L 256.905106 240.99747 
L 257.144198 240.99747 
L 257.383289 237.630381 
L 257.622381 240.155698 
L 257.861473 240.99747 
L 258.100564 238.472153 
L 258.339656 234.684178 
L 258.578747 240.155698 
L 258.817839 240.155698 
L 259.056931 240.99747 
L 259.296022 240.99747 
L 259.535114 228.370885 
L 259.774206 205.643033 
L 260.252389 240.576584 
L 260.49148 240.99747 
L 260.730572 225.003796 
L 260.969664 240.155698 
L 261.208755 240.99747 
L 262.404213 240.99747 
L 262.643305 238.893039 
L 262.882397 240.99747 
L 263.36058 238.051267 
L 263.599671 240.99747 
L 263.838763 240.99747 
L 264.077855 222.478479 
L 264.316946 234.684178 
L 264.556038 208.16835 
L 264.79513 240.99747 
L 265.273313 240.99747 
L 265.512404 235.105064 
L 265.751496 240.99747 
L 269.576962 240.99747 
L 269.816054 224.162024 
L 270.055145 234.684178 
L 270.294237 232.579747 
L 270.533329 240.576584 
L 270.77242 240.99747 
L 273.880611 240.99747 
L 274.119703 240.155698 
L 274.358795 240.155698 
L 274.597886 240.99747 
L 280.575177 240.99747 
L 280.814268 240.155698 
L 281.05336 239.734812 
L 281.292452 240.99747 
L 281.531543 240.99747 
L 281.770635 231.737975 
L 282.009726 240.99747 
L 304.723431 240.99747 
L 304.962522 235.105064 
L 305.201614 240.99747 
L 306.15798 240.99747 
L 306.397072 236.367722 
L 306.636164 240.99747 
L 306.875255 240.99747 
L 307.114347 239.734812 
L 307.353439 235.946836 
L 307.59253 240.99747 
L 312.613454 240.99747 
L 312.852546 240.155698 
L 313.091638 240.99747 
L 313.808912 240.99747 
L 314.048004 238.893039 
L 314.287096 240.99747 
L 314.526187 240.99747 
L 314.765279 231.317089 
L 315.00437 234.684178 
L 315.243462 240.99747 
L 315.482554 237.209495 
L 315.721645 240.155698 
L 315.960737 240.99747 
L 317.395287 240.99747 
L 317.634378 238.051267 
L 317.87347 240.99747 
L 318.351653 240.99747 
L 318.590745 239.313925 
L 318.829836 240.155698 
L 319.068928 209.010122 
L 319.30802 201.855058 
L 319.547111 211.956325 
L 319.786203 240.99747 
L 320.025295 230.475316 
L 320.264386 237.209495 
L 320.503478 232.158861 
L 320.742569 240.99747 
L 320.981661 240.99747 
L 321.220753 240.155698 
L 321.459844 240.99747 
L 321.698936 240.155698 
L 321.938028 240.99747 
L 322.416211 240.99747 
L 322.655302 237.630381 
L 322.894394 240.576584 
L 323.133486 240.99747 
L 323.372577 200.592399 
L 323.611669 233.000633 
L 323.850761 228.791772 
L 324.089852 179.968978 
L 324.568035 231.317089 
L 324.807127 222.478479 
L 325.046219 207.747464 
L 325.28531 238.893039 
L 325.524402 240.99747 
L 327.676227 240.99747 
L 327.915318 240.576584 
L 328.15441 240.99747 
L 328.393501 240.99747 
L 328.632593 239.313925 
L 328.871685 240.99747 
L 329.110776 240.99747 
L 329.349868 230.475316 
L 329.58896 232.579747 
L 329.828051 213.218984 
L 330.067143 212.377212 
L 330.306234 183.336067 
L 330.545326 191.332904 
L 330.784418 195.541765 
L 331.023509 240.99747 
L 331.262601 237.630381 
L 331.501692 226.687341 
L 331.740784 224.162024 
L 331.979876 202.69683 
L 332.218967 235.52595 
L 332.458059 234.684178 
L 332.697151 212.377212 
L 332.936242 225.003796 
L 333.175334 212.798098 
L 333.414425 213.218984 
L 333.653517 236.367722 
L 333.892609 240.99747 
L 334.1317 240.576584 
L 334.370792 240.99747 
L 334.609884 240.576584 
L 334.848975 234.263292 
L 335.088067 240.99747 
L 335.327158 237.209495 
L 335.56625 240.155698 
L 335.805342 236.367722 
L 336.044433 211.114553 
L 336.283525 239.734812 
L 336.522617 238.472153 
L 336.761708 230.05443 
L 337.0008 240.99747 
L 337.239891 240.99747 
L 337.478983 238.893039 
L 337.718075 234.684178 
L 337.957166 235.946836 
L 338.196258 215.323415 
L 338.43535 238.893039 
L 338.913533 217.006959 
L 339.391716 239.734812 
L 339.630808 221.636707 
L 339.869899 240.99747 
L 340.108991 240.99747 
L 340.587174 238.472153 
L 340.826266 230.475316 
L 341.065357 240.99747 
L 341.304449 240.99747 
L 341.543541 228.370885 
L 341.782632 232.579747 
L 342.021724 240.99747 
L 342.260816 227.108227 
L 342.499907 224.58291 
L 342.738999 240.99747 
L 342.97809 237.209495 
L 343.217182 240.155698 
L 343.456274 240.99747 
L 343.695365 240.155698 
L 343.934457 238.893039 
L 344.41264 217.427845 
L 344.890823 235.946836 
L 345.129915 233.842405 
L 345.369007 225.003796 
L 345.608098 239.734812 
L 345.84719 238.051267 
L 346.086282 240.99747 
L 346.803556 240.99747 
L 347.042648 239.313925 
L 347.28174 238.472153 
L 347.520831 240.576584 
L 347.759923 240.99747 
L 347.999014 238.472153 
L 348.238106 239.734812 
L 348.477198 238.893039 
L 348.716289 230.475316 
L 348.955381 240.99747 
L 349.194473 238.051267 
L 349.433564 238.472153 
L 349.672656 240.99747 
L 350.150839 240.99747 
L 350.389931 238.051267 
L 350.868114 227.949999 
L 351.107206 240.99747 
L 351.82448 240.99747 
L 352.063572 238.893039 
L 352.302664 220.374049 
L 352.541755 237.630381 
L 352.780847 240.99747 
L 353.019939 240.99747 
L 353.25903 240.155698 
L 353.498122 240.155698 
L 353.737213 234.263292 
L 353.976305 199.750627 
L 354.215397 229.212658 
L 354.454488 169.025938 
L 354.69358 240.99747 
L 355.410855 240.99747 
L 355.649946 237.209495 
L 355.889038 239.734812 
L 356.12813 240.99747 
L 357.323588 240.99747 
L 357.562679 238.472153 
L 357.801771 240.99747 
L 358.040863 240.99747 
L 358.279954 232.158861 
L 358.519046 240.99747 
L 359.714504 240.99747 
L 360.192687 234.684178 
L 360.431779 233.842405 
L 360.670871 240.99747 
L 373.581818 240.99747 
L 373.581818 240.99747 
" style="fill:none;stroke:#1f77b4;stroke-linecap:square;stroke-width:1.5;"/>
   </g>
   <g id="line2d_14">
    <path clip-path="url(#pf89ca06885)" d="M 69.218182 216.755383 
L 69.457273 216.740041 
L 69.696365 224.549505 
L 69.935457 220.733703 
L 70.174548 224.857591 
L 70.41364 226.29672 
L 70.652732 226.705429 
L 70.891823 237.21368 
L 71.130915 238.462894 
L 71.370006 236.678009 
L 71.609098 237.822304 
L 71.84819 236.05569 
L 72.087281 237.028759 
L 72.326373 240.024967 
L 72.804556 237.469076 
L 73.043648 238.538793 
L 73.282739 238.977345 
L 73.760923 236.459692 
L 74.000014 223.524907 
L 74.239106 190.642701 
L 74.478198 199.19631 
L 74.717289 189.639958 
L 75.195472 224.067227 
L 75.434564 223.317619 
L 75.673656 240.825115 
L 75.912747 238.774067 
L 76.151839 234.85383 
L 76.390931 238.406255 
L 76.630022 227.204026 
L 76.869114 227.256242 
L 77.108205 223.488828 
L 77.586389 234.399037 
L 77.82548 234.089482 
L 78.064572 234.082722 
L 78.303664 231.847331 
L 78.542755 235.656441 
L 78.781847 230.147736 
L 79.020938 232.248809 
L 79.26003 232.593387 
L 79.499122 239.498794 
L 79.738213 238.607953 
L 79.977305 235.078575 
L 80.216396 238.120589 
L 80.455488 238.764107 
L 80.69458 238.899297 
L 80.933671 239.493744 
L 81.411855 237.024213 
L 81.650946 232.17088 
L 81.890038 235.450036 
L 82.129129 229.822143 
L 82.368221 236.51506 
L 82.607313 234.918541 
L 82.846404 234.489035 
L 83.085496 240.127201 
L 83.324588 235.633864 
L 83.563679 239.122647 
L 83.802771 236.32364 
L 84.041862 237.923725 
L 84.280954 238.127318 
L 84.520046 237.994797 
L 84.759137 239.00799 
L 84.998229 237.631208 
L 85.237321 239.695453 
L 85.954595 227.834132 
L 86.193687 221.198209 
L 86.432779 223.04408 
L 86.67187 225.82661 
L 86.910962 236.024977 
L 87.150054 238.894673 
L 87.389145 238.014287 
L 87.628237 240.497792 
L 87.867328 239.266247 
L 88.10642 239.832436 
L 88.823695 239.277925 
L 89.062787 239.768871 
L 89.301878 239.681119 
L 89.54097 236.622921 
L 89.780061 239.094126 
L 90.019153 235.328807 
L 90.258245 238.037425 
L 90.497336 238.495909 
L 90.736428 237.993478 
L 90.97552 238.514325 
L 91.214611 224.919893 
L 91.453703 233.980496 
L 91.692794 227.874452 
L 91.931886 238.279275 
L 92.170978 239.398488 
L 92.410069 237.548961 
L 92.649161 242.116364 
L 93.127344 238.881116 
L 93.366436 239.385153 
L 93.605527 239.609107 
L 93.844619 238.90371 
L 94.322802 238.361758 
L 94.561894 238.558766 
L 94.800986 239.264097 
L 95.040077 240.450613 
L 95.279169 238.176885 
L 95.51826 241.520176 
L 95.757352 239.553826 
L 95.996444 239.04065 
L 96.235535 239.818842 
L 96.474627 241.011983 
L 96.713718 240.712602 
L 96.95281 239.336662 
L 97.191902 239.691835 
L 97.430993 239.433725 
L 97.670085 241.326022 
L 97.909177 239.803991 
L 98.148268 240.280991 
L 98.38736 239.3862 
L 98.626451 240.287537 
L 98.865543 240.289624 
L 99.104635 238.944143 
L 99.343726 239.996584 
L 99.582818 238.905609 
L 99.82191 240.169648 
L 100.061001 240.388809 
L 100.300093 239.420605 
L 100.539184 240.631842 
L 100.778276 240.259194 
L 108.907391 240.255829 
L 118.231965 240.255829 
L 118.471056 237.729385 
L 118.710148 238.226193 
L 118.949239 237.654111 
L 119.427423 240.270557 
L 119.666514 239.82286 
L 119.905606 240.360507 
L 120.144698 240.391638 
L 120.383789 240.084093 
L 120.861972 240.258311 
L 121.101064 240.145629 
L 121.340156 240.250494 
L 121.579247 240.160114 
L 122.296522 240.316003 
L 122.535614 239.999513 
L 122.774705 240.370954 
L 123.013797 240.247877 
L 123.252889 239.982428 
L 123.970164 240.411195 
L 124.209255 240.128506 
L 124.687438 240.089753 
L 124.92653 240.407341 
L 125.643805 240.132165 
L 126.121988 240.2767 
L 126.36108 240.046575 
L 126.600171 240.138001 
L 126.839263 239.991798 
L 127.078355 240.149166 
L 127.317446 240.163608 
L 127.556538 240.0589 
L 128.273813 240.259398 
L 129.230179 240.247126 
L 130.664729 240.255369 
L 130.903821 239.770875 
L 131.142912 240.056842 
L 131.382004 239.823863 
L 131.621095 240.23648 
L 131.860187 240.265627 
L 132.099279 240.156607 
L 132.33837 240.306148 
L 133.294737 240.253882 
L 134.251103 240.255057 
L 134.968378 240.200712 
L 135.20747 240.288791 
L 135.924745 240.242847 
L 136.402928 240.270048 
L 136.64202 240.22665 
L 136.881111 239.518364 
L 137.120203 239.804932 
L 137.359294 239.375848 
L 137.598386 239.881128 
L 137.837478 240.01411 
L 138.076569 239.982767 
L 138.315661 240.321582 
L 138.554753 239.756782 
L 138.793844 239.605318 
L 139.032936 239.679686 
L 139.272027 239.248952 
L 139.511119 233.692516 
L 139.750211 237.025073 
L 139.989302 234.699782 
L 140.228394 239.931553 
L 140.467486 240.269316 
L 140.706577 239.165618 
L 140.945669 240.869656 
L 141.423852 239.749863 
L 141.662944 240.127352 
L 141.902035 240.208359 
L 142.141127 239.96666 
L 142.380219 237.583171 
L 142.61931 238.492406 
L 142.858402 237.693331 
L 143.097493 239.662406 
L 143.336585 240.453397 
L 143.575677 237.108713 
L 143.814768 237.385218 
L 144.05386 237.141412 
L 144.292952 236.575556 
L 144.532043 239.806729 
L 145.010226 238.265665 
L 145.48841 238.356531 
L 145.727501 238.746806 
L 145.966593 238.347462 
L 146.205684 238.725799 
L 146.444776 238.254235 
L 146.683868 239.857852 
L 146.922959 239.921249 
L 147.162051 239.551905 
L 147.401143 239.741995 
L 147.640234 239.177071 
L 147.879326 238.939663 
L 148.118417 239.404109 
L 148.357509 238.681451 
L 148.835692 231.233205 
L 149.074784 222.999774 
L 149.313876 224.427249 
L 149.552967 210.781282 
L 150.03115 219.973026 
L 150.270242 220.583738 
L 150.509334 234.195516 
L 150.748425 228.238817 
L 150.987517 233.301428 
L 151.226609 234.224239 
L 151.4657 232.573679 
L 151.704792 233.841773 
L 151.943883 236.880706 
L 152.182975 230.353476 
L 152.422067 230.751141 
L 152.661158 230.877044 
L 153.139342 236.531098 
L 153.378433 238.785667 
L 153.617525 237.822934 
L 154.095708 239.000557 
L 154.3348 236.55103 
L 154.812983 239.1551 
L 155.052075 239.608586 
L 155.291166 235.655105 
L 155.530258 229.320337 
L 155.769349 226.185634 
L 156.008441 226.48247 
L 156.247533 218.796103 
L 156.486624 216.168052 
L 156.725716 207.052479 
L 156.964808 213.499142 
L 157.203899 223.972309 
L 157.921174 237.047552 
L 158.160266 236.603304 
L 158.399357 237.838755 
L 158.638449 236.592342 
L 158.877541 236.802031 
L 159.116632 237.217622 
L 159.594815 235.047131 
L 159.833907 233.397538 
L 160.072999 228.194081 
L 160.31209 229.18565 
L 160.551182 227.851938 
L 160.790274 236.511066 
L 161.029365 234.926395 
L 161.268457 234.968349 
L 161.507548 232.695018 
L 161.74664 234.057428 
L 161.985732 233.583683 
L 162.224823 234.594434 
L 162.463915 233.72092 
L 162.703006 226.762401 
L 162.942098 225.274653 
L 163.18119 225.781809 
L 163.420281 228.371213 
L 163.659373 229.096323 
L 163.898465 234.574499 
L 164.137556 228.453833 
L 164.376648 237.508523 
L 164.615739 228.541817 
L 164.854831 233.148983 
L 165.093923 234.550327 
L 165.333014 237.966011 
L 165.572106 236.947707 
L 165.811198 237.490213 
L 166.050289 238.431295 
L 166.289381 235.989561 
L 166.528472 238.127123 
L 166.767564 236.225199 
L 167.006656 239.277257 
L 167.245747 236.854212 
L 167.484839 237.477266 
L 167.723931 234.351132 
L 167.963022 239.329382 
L 168.441205 237.315121 
L 168.680297 237.691101 
L 168.919389 238.330052 
L 169.15848 239.400819 
L 169.636664 238.773389 
L 169.875755 237.714162 
L 170.114847 239.101196 
L 170.353938 237.554072 
L 170.59303 238.728852 
L 170.832122 236.937913 
L 171.071213 238.406488 
L 171.310305 234.46825 
L 171.549397 237.953769 
L 171.788488 236.244984 
L 172.02758 221.059751 
L 172.266671 231.097833 
L 172.505763 223.451864 
L 172.744855 237.691021 
L 172.983946 240.005649 
L 173.223038 236.732911 
L 173.46213 241.386247 
L 173.701221 240.398461 
L 173.940313 238.706451 
L 174.179404 239.870176 
L 174.657588 238.857786 
L 174.896679 237.46857 
L 175.135771 238.671762 
L 175.374863 237.756763 
L 175.853046 240.675766 
L 176.092137 237.644249 
L 176.331229 240.508163 
L 176.809412 237.112466 
L 177.048504 238.55888 
L 177.287596 240.905134 
L 177.526687 240.500965 
L 177.765779 239.031325 
L 178.00487 239.371511 
L 178.243962 238.967719 
L 178.483054 241.125194 
L 178.722145 240.289903 
L 178.961237 239.938427 
L 179.200329 239.175761 
L 179.43942 240.253096 
L 179.678512 239.759012 
L 179.917603 238.617116 
L 180.156695 239.968255 
L 180.395787 238.36681 
L 180.634878 239.915802 
L 180.87397 240.410485 
L 181.113061 238.860553 
L 181.352153 240.652122 
L 181.591245 240.170625 
L 181.830336 240.339521 
L 182.069428 240.133374 
L 182.786703 240.064451 
L 183.025794 240.283869 
L 183.264886 240.062075 
L 183.743069 240.257749 
L 183.982161 240.125032 
L 184.221253 240.241618 
L 184.699436 240.134725 
L 186.612169 240.264363 
L 187.329444 240.249409 
L 188.763993 240.256063 
L 191.15491 240.255829 
L 195.936742 240.255829 
L 196.175834 239.894909 
L 196.654017 239.840597 
L 197.1322 240.251483 
L 197.610383 240.251946 
L 198.088567 240.232477 
L 199.523116 240.243949 
L 199.762208 240.123422 
L 200.0013 239.849492 
L 200.479483 239.888474 
L 200.718575 240.140369 
L 201.674941 240.291218 
L 202.153124 240.216702 
L 206.934957 240.251975 
L 209.086781 240.2381 
L 210.521331 240.255829 
L 211.955881 240.255829 
L 212.194973 238.812147 
L 212.434064 239.646011 
L 212.673156 239.001445 
L 212.912247 240.165519 
L 213.151339 240.298649 
L 213.390431 239.992106 
L 213.629522 240.416111 
L 214.107705 240.151391 
L 214.585889 240.261703 
L 214.82498 240.19062 
L 215.064072 240.277622 
L 215.303164 240.192833 
L 216.020438 240.307251 
L 216.25953 240.089774 
L 216.498622 240.384874 
L 216.737713 240.202125 
L 216.976805 239.638831 
L 217.215897 240.015255 
L 217.454988 239.89935 
L 217.69408 240.291021 
L 218.172263 240.121051 
L 218.650446 240.377273 
L 218.889538 240.211806 
L 219.12863 239.783539 
L 219.367721 239.97896 
L 219.606813 239.839899 
L 219.845904 240.235798 
L 220.084996 240.12846 
L 222.954096 240.257346 
L 223.193187 240.174796 
L 223.432279 238.893804 
L 223.67137 236.857981 
L 223.910462 233.821521 
L 224.149554 236.046663 
L 224.388645 236.704523 
L 224.627737 239.848523 
L 224.866829 239.955637 
L 225.10592 239.831595 
L 225.345012 240.550618 
L 225.584103 240.12591 
L 225.823195 239.955195 
L 226.062287 238.940737 
L 226.301378 239.648882 
L 226.54047 239.017934 
L 226.779562 240.115168 
L 227.257745 239.979449 
L 227.735928 240.219605 
L 227.97502 239.911962 
L 228.214111 240.332065 
L 228.453203 238.505591 
L 228.692295 239.259272 
L 228.931386 239.205012 
L 229.170478 240.3176 
L 229.409569 240.236041 
L 229.648661 239.54145 
L 229.887753 239.803741 
L 230.126844 239.32892 
L 230.365936 239.909397 
L 230.605027 239.571308 
L 230.844119 240.039134 
L 231.083211 239.935809 
L 231.322302 240.221282 
L 231.561394 232.500578 
L 231.800486 236.424477 
L 232.039577 233.203923 
L 232.278669 239.375146 
L 232.51776 240.332651 
L 232.756852 238.518894 
L 232.995944 240.722748 
L 233.235035 239.924616 
L 233.474127 239.653493 
L 233.713219 240.262488 
L 233.95231 240.146128 
L 234.191402 239.820072 
L 234.430493 238.08281 
L 234.669585 238.238987 
L 235.147768 229.914038 
L 235.38686 227.452724 
L 235.865043 232.206727 
L 236.104135 237.568377 
L 236.582318 234.104306 
L 236.82141 235.157719 
L 237.060501 230.172916 
L 237.299593 235.161357 
L 238.016868 239.861399 
L 238.255959 230.971961 
L 238.495051 226.609058 
L 238.734143 216.618324 
L 238.973234 169.836697 
L 239.212326 179.918338 
L 239.451418 146.024848 
L 239.690509 190.854009 
L 240.168692 220.407439 
L 240.407784 241.904103 
L 240.646876 235.654768 
L 240.885967 235.530731 
L 241.125059 235.088727 
L 241.364151 234.276192 
L 241.603242 234.259807 
L 241.842334 239.277121 
L 242.081425 236.371339 
L 242.320517 235.560143 
L 242.559609 227.159547 
L 242.7987 224.861909 
L 243.037792 220.944499 
L 243.276884 232.775404 
L 243.515975 234.391582 
L 243.755067 233.115298 
L 244.23325 237.247768 
L 244.472342 237.998736 
L 244.711433 226.51419 
L 245.189617 213.575546 
L 245.428708 227.370476 
L 245.906891 230.512095 
L 246.145983 226.126472 
L 246.385075 210.939899 
L 246.624166 209.845049 
L 246.863258 186.522366 
L 247.102349 200.66836 
L 247.341441 194.649679 
L 247.819624 214.074951 
L 248.058716 193.313288 
L 248.297808 220.565774 
L 248.536899 214.345054 
L 248.775991 233.959992 
L 249.015082 238.776894 
L 249.254174 231.275994 
L 249.493266 237.242016 
L 249.732357 233.787395 
L 249.971449 234.459677 
L 250.210541 239.795408 
L 250.449632 235.513046 
L 250.688724 236.771636 
L 250.927815 234.706656 
L 251.166907 236.846461 
L 251.405999 237.9132 
L 251.884182 223.580338 
L 252.123274 220.623733 
L 252.601457 227.235361 
L 252.840548 227.799069 
L 253.557823 237.717129 
L 253.796915 234.116638 
L 254.036007 235.85992 
L 254.275098 235.933977 
L 254.51419 237.38456 
L 254.992373 226.604257 
L 255.231465 228.479449 
L 255.470556 210.481565 
L 255.94874 202.487617 
L 256.426923 229.647993 
L 256.905106 237.436321 
L 257.144198 239.566998 
L 257.383289 239.963682 
L 257.622381 235.767263 
L 257.861473 237.875767 
L 258.100564 238.071841 
L 258.339656 238.793467 
L 258.578747 236.655768 
L 258.817839 237.451001 
L 259.056931 236.257621 
L 259.296022 240.231479 
L 259.774206 234.021128 
L 260.013297 227.477056 
L 260.252389 225.547598 
L 260.49148 226.240632 
L 260.730572 234.225228 
L 261.208755 235.901555 
L 261.447847 235.221381 
L 261.92603 239.701537 
L 262.165122 239.906375 
L 262.404213 240.76619 
L 262.643305 238.748601 
L 262.882397 237.708371 
L 263.121488 239.079946 
L 263.36058 236.560393 
L 263.599671 236.299 
L 263.838763 236.633933 
L 264.077855 236.00165 
L 264.316946 234.678197 
L 264.556038 234.57581 
L 264.79513 223.555985 
L 265.034221 233.682497 
L 265.273313 233.165792 
L 265.512404 238.820853 
L 265.990588 237.053554 
L 266.468771 240.70163 
L 266.707863 239.423404 
L 266.946954 239.080094 
L 267.186046 239.81835 
L 267.425137 239.87494 
L 267.664229 239.742921 
L 267.903321 238.893017 
L 268.142412 239.225066 
L 268.381504 238.265576 
L 268.620596 240.458134 
L 268.859687 238.59749 
L 269.098779 239.926368 
L 269.33787 239.103395 
L 269.816054 240.196179 
L 270.055145 235.467856 
L 270.294237 236.607999 
L 270.533329 231.762252 
L 270.77242 237.144361 
L 271.011512 237.832475 
L 271.250603 239.942439 
L 271.728787 240.045112 
L 271.967878 239.509577 
L 272.20697 239.998372 
L 272.446062 239.847083 
L 272.685153 238.658961 
L 272.924245 239.849739 
L 273.163336 239.124853 
L 273.402428 239.841226 
L 273.64152 240.011365 
L 273.880611 239.793769 
L 274.119703 239.787506 
L 274.358795 240.312099 
L 274.597886 239.645044 
L 274.836978 239.521013 
L 275.076069 239.70601 
L 275.554253 240.440238 
L 275.793344 240.094412 
L 276.032436 240.120987 
L 276.271528 239.768498 
L 276.510619 240.440341 
L 276.749711 240.236753 
L 276.988802 240.464006 
L 277.227894 240.007097 
L 277.466986 240.254925 
L 277.706077 240.158833 
L 277.945169 239.882414 
L 278.184261 240.041579 
L 278.423352 239.533392 
L 278.662444 240.003652 
L 278.901535 240.082342 
L 279.140627 239.922721 
L 279.379719 240.278741 
L 279.61881 240.160968 
L 279.857902 240.336731 
L 280.336085 240.231746 
L 280.814268 240.26231 
L 281.292452 239.793877 
L 281.770635 239.918578 
L 282.009726 237.598094 
L 282.248818 239.084941 
L 282.48791 237.893238 
L 282.727001 240.105737 
L 282.966093 240.296177 
L 283.205185 239.746274 
L 283.444276 240.535733 
L 283.922459 240.058418 
L 284.161551 240.229335 
L 284.400643 240.249928 
L 284.639734 240.127444 
L 284.878826 240.293173 
L 285.117918 240.125515 
L 285.357009 240.225694 
L 285.596101 240.197152 
L 285.835192 240.314047 
L 286.074284 239.911235 
L 286.313376 240.493361 
L 286.791559 240.006968 
L 287.508834 240.375597 
L 287.747925 240.104287 
L 287.987017 240.169736 
L 288.226109 240.105196 
L 288.4652 240.453465 
L 288.704292 240.245395 
L 288.943384 240.259956 
L 289.182475 240.083589 
L 289.421567 240.270578 
L 289.660658 240.224199 
L 289.89975 240.036098 
L 290.138842 240.206194 
L 290.377933 239.97824 
L 290.617025 240.253867 
L 290.856117 240.289845 
L 291.095208 240.089802 
L 291.3343 240.32985 
L 291.812483 240.255829 
L 304.962522 240.255829 
L 305.201614 238.571533 
L 305.440706 239.544375 
L 305.679797 238.792381 
L 305.918889 240.150467 
L 306.15798 240.305786 
L 306.397072 239.948152 
L 306.636164 239.119449 
L 306.875255 239.716132 
L 307.114347 238.984132 
L 307.353439 239.798478 
L 307.59253 238.705796 
L 308.070713 239.151217 
L 308.309805 240.117894 
L 308.548897 240.130537 
L 308.787988 239.969281 
L 309.02708 240.485624 
L 309.266172 239.992759 
L 309.505263 240.318996 
L 309.744355 240.1252 
L 310.222538 240.111555 
L 310.46163 240.380933 
L 310.700721 240.115411 
L 310.939813 240.243513 
L 311.417996 240.051394 
L 311.896179 240.417214 
L 312.374363 239.933091 
L 312.613454 240.218898 
L 312.852546 240.266454 
L 313.091638 240.021619 
L 313.330729 240.011468 
L 313.569821 239.825876 
L 314.048004 240.420178 
L 314.287096 239.50126 
L 314.526187 239.958913 
L 314.765279 239.646765 
L 315.00437 237.327532 
L 315.243462 237.26492 
L 315.482554 236.871435 
L 315.721645 237.347839 
L 315.960737 239.430193 
L 316.199829 238.705507 
L 316.43892 239.946705 
L 316.678012 240.419484 
L 316.917103 239.907456 
L 317.395287 240.286849 
L 317.634378 240.051363 
L 317.87347 239.306498 
L 318.112562 239.824264 
L 318.351653 239.327927 
L 318.590745 240.180655 
L 319.068928 239.325082 
L 319.547111 225.110085 
L 319.786203 218.80477 
L 320.025295 226.15769 
L 320.264386 229.640267 
L 320.503478 236.102438 
L 320.742569 233.749512 
L 320.981661 237.63642 
L 321.220753 238.322093 
L 321.459844 238.512959 
L 321.698936 239.822392 
L 321.938028 238.902116 
L 322.177119 239.823796 
L 322.416211 239.289634 
L 322.655302 239.534021 
L 322.894394 238.133497 
L 323.133486 239.514493 
L 323.372577 237.948504 
L 323.611669 227.972471 
L 323.850761 232.522446 
L 324.328944 216.770712 
L 324.568035 219.543783 
L 324.807127 216.019015 
L 325.046219 224.937783 
L 325.28531 224.850902 
L 325.524402 225.948328 
L 325.763494 231.322501 
L 326.002585 240.126372 
L 326.480768 237.526924 
L 326.71986 240.154495 
L 326.958952 238.708025 
L 327.198043 238.488276 
L 327.437135 238.484366 
L 327.676227 236.362796 
L 327.915318 238.671895 
L 328.15441 238.752382 
L 328.393501 236.666696 
L 328.632593 238.839245 
L 328.871685 239.30182 
L 329.110776 238.47651 
L 329.349868 237.052863 
L 329.58896 237.715768 
L 329.828051 235.855486 
L 330.067143 227.640707 
L 330.306234 225.20654 
L 330.545326 212.903209 
L 330.784418 211.166796 
L 331.023509 206.389909 
L 331.262601 219.960749 
L 331.501692 224.918054 
L 331.740784 233.299503 
L 331.979876 230.562137 
L 332.218967 220.354979 
L 332.458059 228.265046 
L 332.697151 223.823275 
L 333.175334 228.274308 
L 333.414425 219.300278 
L 333.653517 222.409202 
L 333.892609 227.712388 
L 334.1317 228.525904 
L 334.370792 237.538281 
L 334.609884 237.734728 
L 334.848975 237.681763 
L 335.088067 236.855218 
L 335.327158 237.495088 
L 335.56625 234.501346 
L 335.805342 237.321175 
L 336.044433 237.689731 
L 336.283525 228.570064 
L 336.522617 234.373942 
L 336.761708 228.710714 
L 337.239891 238.381228 
L 337.478983 236.155176 
L 337.718075 238.278839 
L 338.196258 233.81345 
L 338.43535 228.10788 
L 338.674441 233.025134 
L 338.913533 225.67822 
L 339.152624 227.532969 
L 339.391716 227.33969 
L 339.869899 230.445376 
L 340.108991 235.10288 
L 340.348083 232.904809 
L 340.587174 238.543666 
L 340.826266 237.845366 
L 341.065357 232.971772 
L 341.304449 236.470875 
L 341.543541 236.388622 
L 341.782632 234.59109 
L 342.021724 233.87321 
L 342.260816 235.180868 
L 342.499907 232.381638 
L 342.738999 234.255553 
L 342.97809 232.859988 
L 343.217182 233.722161 
L 343.456274 238.909438 
L 343.695365 238.405818 
L 343.934457 237.603533 
L 344.173549 238.502149 
L 344.41264 235.824799 
L 344.651732 229.589948 
L 344.890823 230.674537 
L 345.129915 229.943387 
L 345.369007 233.241231 
L 345.608098 232.538706 
L 345.84719 234.478029 
L 346.086282 234.353075 
L 346.325373 238.976295 
L 346.564465 237.866283 
L 346.803556 237.512959 
L 347.042648 239.702452 
L 347.28174 238.0756 
L 347.520831 237.321926 
L 347.999014 238.843949 
L 348.238106 238.095446 
L 348.477198 238.997824 
L 348.716289 237.914851 
L 348.955381 235.878258 
L 349.194473 238.219125 
L 349.433564 235.507643 
L 349.911747 239.281426 
L 350.150839 238.303668 
L 350.389931 239.215592 
L 350.629022 238.216881 
L 351.107206 234.600276 
L 351.346297 236.422313 
L 351.585389 236.113562 
L 351.82448 239.305042 
L 352.063572 240.1663 
L 352.302664 238.642963 
L 352.541755 233.777233 
L 352.780847 235.301066 
L 353.019939 233.214189 
L 353.25903 238.552395 
L 353.498122 239.019615 
L 353.737213 237.905732 
L 353.976305 237.899806 
L 354.215397 227.340638 
L 354.454488 229.573104 
L 354.69358 207.188738 
L 354.932672 227.961731 
L 355.171763 221.476453 
L 355.410855 237.385825 
L 355.649946 240.784394 
L 355.889038 235.283276 
L 356.12813 240.592779 
L 356.367221 239.368013 
L 356.606313 237.520806 
L 356.845405 239.309588 
L 357.084496 239.641221 
L 357.323588 237.874693 
L 357.562679 240.34204 
L 357.801771 238.369969 
L 358.040863 239.891535 
L 358.279954 237.458535 
L 358.519046 238.599266 
L 358.758138 236.013859 
L 358.997229 238.472797 
L 359.236321 238.608111 
L 359.475412 238.49526 
L 359.953596 240.572939 
L 360.192687 239.302286 
L 360.431779 235.400484 
L 360.670871 236.231887 
L 360.909962 236.179147 
L 361.149054 239.842795 
L 361.388145 239.391362 
L 361.627237 239.80717 
L 361.866329 238.861127 
L 362.10542 239.677906 
L 362.344512 239.666438 
L 362.583604 236.805785 
L 362.822695 239.737284 
L 363.061787 238.070573 
L 363.53997 240.480619 
L 363.779062 238.924531 
L 364.018153 240.83556 
L 364.257245 239.906928 
L 364.496336 240.090645 
L 364.735428 240.025472 
L 364.97452 240.3715 
L 365.213611 239.985548 
L 365.930886 240.382761 
L 366.409069 239.786732 
L 366.648161 240.151946 
L 366.887253 239.98962 
L 367.126344 240.426854 
L 367.604528 240.03904 
L 367.843619 240.251473 
L 368.321802 240.092975 
L 368.560894 239.951153 
L 369.517261 240.199195 
L 369.756352 240.178004 
L 369.995444 240.313027 
L 370.473627 240.255829 
L 373.581818 240.255829 
L 373.581818 240.255829 
" style="fill:none;stroke:#ff7f0e;stroke-linecap:square;stroke-width:1.5;"/>
   </g>
   <g id="patch_3">
    <path d="M 54 252 
L 54 34.56 
" style="fill:none;stroke:#000000;stroke-linecap:square;stroke-linejoin:miter;stroke-width:0.8;"/>
   </g>
   <g id="patch_4">
    <path d="M 388.8 252 
L 388.8 34.56 
" style="fill:none;stroke:#000000;stroke-linecap:square;stroke-linejoin:miter;stroke-width:0.8;"/>
   </g>
   <g id="patch_5">
    <path d="M 54 252 
L 388.8 252 
" style="fill:none;stroke:#000000;stroke-linecap:square;stroke-linejoin:miter;stroke-width:0.8;"/>
   </g>
   <g id="patch_6">
    <path d="M 54 34.56 
L 388.8 34.56 
" style="fill:none;stroke:#000000;stroke-linecap:square;stroke-linejoin:miter;stroke-width:0.8;"/>
   </g>
   <g id="legend_1">
    <g id="patch_7">
     <path d="M 271.970312 71.91625 
L 381.8 71.91625 
Q 383.8 71.91625 383.8 69.91625 
L 383.8 41.56 
Q 383.8 39.56 381.8 39.56 
L 271.970312 39.56 
Q 269.970312 39.56 269.970312 41.56 
L 269.970312 69.91625 
Q 269.970312 71.91625 271.970312 71.91625 
z
" style="fill:#ffffff;opacity:0.8;stroke:#cccccc;stroke-linejoin:miter;"/>
    </g>
    <g id="line2d_15">
     <path d="M 273.970312 47.658437 
L 293.970312 47.658437 
" style="fill:none;stroke:#1f77b4;stroke-linecap:square;stroke-width:1.5;"/>
    </g>
    <g id="line2d_16"/>
    <g id="text_13">
     <!-- True value -->
     <defs>
      <path d="M -0.296875 72.90625 
L 61.375 72.90625 
L 61.375 64.59375 
L 35.5 64.59375 
L 35.5 0 
L 25.59375 0 
L 25.59375 64.59375 
L -0.296875 64.59375 
z
" id="DejaVuSans-84"/>
      <path d="M 41.109375 46.296875 
Q 39.59375 47.171875 37.8125 47.578125 
Q 36.03125 48 33.890625 48 
Q 26.265625 48 22.1875 43.046875 
Q 18.109375 38.09375 18.109375 28.8125 
L 18.109375 0 
L 9.078125 0 
L 9.078125 54.6875 
L 18.109375 54.6875 
L 18.109375 46.1875 
Q 20.953125 51.171875 25.484375 53.578125 
Q 30.03125 56 36.53125 56 
Q 37.453125 56 38.578125 55.875 
Q 39.703125 55.765625 41.0625 55.515625 
z
" id="DejaVuSans-114"/>
      <path d="M 8.5 21.578125 
L 8.5 54.6875 
L 17.484375 54.6875 
L 17.484375 21.921875 
Q 17.484375 14.15625 20.5 10.265625 
Q 23.53125 6.390625 29.59375 6.390625 
Q 36.859375 6.390625 41.078125 11.03125 
Q 45.3125 15.671875 45.3125 23.6875 
L 45.3125 54.6875 
L 54.296875 54.6875 
L 54.296875 0 
L 45.3125 0 
L 45.3125 8.40625 
Q 42.046875 3.421875 37.71875 1 
Q 33.40625 -1.421875 27.6875 -1.421875 
Q 18.265625 -1.421875 13.375 4.4375 
Q 8.5 10.296875 8.5 21.578125 
z
M 31.109375 56 
z
" id="DejaVuSans-117"/>
      <path d="M 56.203125 29.59375 
L 56.203125 25.203125 
L 14.890625 25.203125 
Q 15.484375 15.921875 20.484375 11.0625 
Q 25.484375 6.203125 34.421875 6.203125 
Q 39.59375 6.203125 44.453125 7.46875 
Q 49.3125 8.734375 54.109375 11.28125 
L 54.109375 2.78125 
Q 49.265625 0.734375 44.1875 -0.34375 
Q 39.109375 -1.421875 33.890625 -1.421875 
Q 20.796875 -1.421875 13.15625 6.1875 
Q 5.515625 13.8125 5.515625 26.8125 
Q 5.515625 40.234375 12.765625 48.109375 
Q 20.015625 56 32.328125 56 
Q 43.359375 56 49.78125 48.890625 
Q 56.203125 41.796875 56.203125 29.59375 
z
M 47.21875 32.234375 
Q 47.125 39.59375 43.09375 43.984375 
Q 39.0625 48.390625 32.421875 48.390625 
Q 24.90625 48.390625 20.390625 44.140625 
Q 15.875 39.890625 15.1875 32.171875 
z
" id="DejaVuSans-101"/>
      <path id="DejaVuSans-32"/>
      <path d="M 2.984375 54.6875 
L 12.5 54.6875 
L 29.59375 8.796875 
L 46.6875 54.6875 
L 56.203125 54.6875 
L 35.6875 0 
L 23.484375 0 
z
" id="DejaVuSans-118"/>
      <path d="M 34.28125 27.484375 
Q 23.390625 27.484375 19.1875 25 
Q 14.984375 22.515625 14.984375 16.5 
Q 14.984375 11.71875 18.140625 8.90625 
Q 21.296875 6.109375 26.703125 6.109375 
Q 34.1875 6.109375 38.703125 11.40625 
Q 43.21875 16.703125 43.21875 25.484375 
L 43.21875 27.484375 
z
M 52.203125 31.203125 
L 52.203125 0 
L 43.21875 0 
L 43.21875 8.296875 
Q 40.140625 3.328125 35.546875 0.953125 
Q 30.953125 -1.421875 24.3125 -1.421875 
Q 15.921875 -1.421875 10.953125 3.296875 
Q 6 8.015625 6 15.921875 
Q 6 25.140625 12.171875 29.828125 
Q 18.359375 34.515625 30.609375 34.515625 
L 43.21875 34.515625 
L 43.21875 35.40625 
Q 43.21875 41.609375 39.140625 45 
Q 35.0625 48.390625 27.6875 48.390625 
Q 23 48.390625 18.546875 47.265625 
Q 14.109375 46.140625 10.015625 43.890625 
L 10.015625 52.203125 
Q 14.9375 54.109375 19.578125 55.046875 
Q 24.21875 56 28.609375 56 
Q 40.484375 56 46.34375 49.84375 
Q 52.203125 43.703125 52.203125 31.203125 
z
" id="DejaVuSans-97"/>
      <path d="M 9.421875 75.984375 
L 18.40625 75.984375 
L 18.40625 0 
L 9.421875 0 
z
" id="DejaVuSans-108"/>
     </defs>
     <g transform="translate(301.970312 51.158437)scale(0.1 -0.1)">
      <use xlink:href="#DejaVuSans-84"/>
      <use x="60.865234" xlink:href="#DejaVuSans-114"/>
      <use x="101.978516" xlink:href="#DejaVuSans-117"/>
      <use x="165.357422" xlink:href="#DejaVuSans-101"/>
      <use x="226.880859" xlink:href="#DejaVuSans-32"/>
      <use x="258.667969" xlink:href="#DejaVuSans-118"/>
      <use x="317.847656" xlink:href="#DejaVuSans-97"/>
      <use x="379.126953" xlink:href="#DejaVuSans-108"/>
      <use x="406.910156" xlink:href="#DejaVuSans-117"/>
      <use x="470.289062" xlink:href="#DejaVuSans-101"/>
     </g>
    </g>
    <g id="line2d_17">
     <path d="M 273.970312 62.336562 
L 293.970312 62.336562 
" style="fill:none;stroke:#ff7f0e;stroke-linecap:square;stroke-width:1.5;"/>
    </g>
    <g id="line2d_18"/>
    <g id="text_14">
     <!-- Predicted value -->
     <defs>
      <path d="M 19.671875 64.796875 
L 19.671875 37.40625 
L 32.078125 37.40625 
Q 38.96875 37.40625 42.71875 40.96875 
Q 46.484375 44.53125 46.484375 51.125 
Q 46.484375 57.671875 42.71875 61.234375 
Q 38.96875 64.796875 32.078125 64.796875 
z
M 9.8125 72.90625 
L 32.078125 72.90625 
Q 44.34375 72.90625 50.609375 67.359375 
Q 56.890625 61.8125 56.890625 51.125 
Q 56.890625 40.328125 50.609375 34.8125 
Q 44.34375 29.296875 32.078125 29.296875 
L 19.671875 29.296875 
L 19.671875 0 
L 9.8125 0 
z
" id="DejaVuSans-80"/>
      <path d="M 45.40625 46.390625 
L 45.40625 75.984375 
L 54.390625 75.984375 
L 54.390625 0 
L 45.40625 0 
L 45.40625 8.203125 
Q 42.578125 3.328125 38.25 0.953125 
Q 33.9375 -1.421875 27.875 -1.421875 
Q 17.96875 -1.421875 11.734375 6.484375 
Q 5.515625 14.40625 5.515625 27.296875 
Q 5.515625 40.1875 11.734375 48.09375 
Q 17.96875 56 27.875 56 
Q 33.9375 56 38.25 53.625 
Q 42.578125 51.265625 45.40625 46.390625 
z
M 14.796875 27.296875 
Q 14.796875 17.390625 18.875 11.75 
Q 22.953125 6.109375 30.078125 6.109375 
Q 37.203125 6.109375 41.296875 11.75 
Q 45.40625 17.390625 45.40625 27.296875 
Q 45.40625 37.203125 41.296875 42.84375 
Q 37.203125 48.484375 30.078125 48.484375 
Q 22.953125 48.484375 18.875 42.84375 
Q 14.796875 37.203125 14.796875 27.296875 
z
" id="DejaVuSans-100"/>
      <path d="M 9.421875 54.6875 
L 18.40625 54.6875 
L 18.40625 0 
L 9.421875 0 
z
M 9.421875 75.984375 
L 18.40625 75.984375 
L 18.40625 64.59375 
L 9.421875 64.59375 
z
" id="DejaVuSans-105"/>
      <path d="M 48.78125 52.59375 
L 48.78125 44.1875 
Q 44.96875 46.296875 41.140625 47.34375 
Q 37.3125 48.390625 33.40625 48.390625 
Q 24.65625 48.390625 19.8125 42.84375 
Q 14.984375 37.3125 14.984375 27.296875 
Q 14.984375 17.28125 19.8125 11.734375 
Q 24.65625 6.203125 33.40625 6.203125 
Q 37.3125 6.203125 41.140625 7.25 
Q 44.96875 8.296875 48.78125 10.40625 
L 48.78125 2.09375 
Q 45.015625 0.34375 40.984375 -0.53125 
Q 36.96875 -1.421875 32.421875 -1.421875 
Q 20.0625 -1.421875 12.78125 6.34375 
Q 5.515625 14.109375 5.515625 27.296875 
Q 5.515625 40.671875 12.859375 48.328125 
Q 20.21875 56 33.015625 56 
Q 37.15625 56 41.109375 55.140625 
Q 45.0625 54.296875 48.78125 52.59375 
z
" id="DejaVuSans-99"/>
      <path d="M 18.3125 70.21875 
L 18.3125 54.6875 
L 36.8125 54.6875 
L 36.8125 47.703125 
L 18.3125 47.703125 
L 18.3125 18.015625 
Q 18.3125 11.328125 20.140625 9.421875 
Q 21.96875 7.515625 27.59375 7.515625 
L 36.8125 7.515625 
L 36.8125 0 
L 27.59375 0 
Q 17.1875 0 13.234375 3.875 
Q 9.28125 7.765625 9.28125 18.015625 
L 9.28125 47.703125 
L 2.6875 47.703125 
L 2.6875 54.6875 
L 9.28125 54.6875 
L 9.28125 70.21875 
z
" id="DejaVuSans-116"/>
     </defs>
     <g transform="translate(301.970312 65.836562)scale(0.1 -0.1)">
      <use xlink:href="#DejaVuSans-80"/>
      <use x="60.287109" xlink:href="#DejaVuSans-114"/>
      <use x="101.369141" xlink:href="#DejaVuSans-101"/>
      <use x="162.892578" xlink:href="#DejaVuSans-100"/>
      <use x="226.369141" xlink:href="#DejaVuSans-105"/>
      <use x="254.152344" xlink:href="#DejaVuSans-99"/>
      <use x="309.132812" xlink:href="#DejaVuSans-116"/>
      <use x="348.341797" xlink:href="#DejaVuSans-101"/>
      <use x="409.865234" xlink:href="#DejaVuSans-100"/>
      <use x="473.341797" xlink:href="#DejaVuSans-32"/>
      <use x="505.128906" xlink:href="#DejaVuSans-118"/>
      <use x="564.308594" xlink:href="#DejaVuSans-97"/>
      <use x="625.587891" xlink:href="#DejaVuSans-108"/>
      <use x="653.371094" xlink:href="#DejaVuSans-117"/>
      <use x="716.75" xlink:href="#DejaVuSans-101"/>
     </g>
    </g>
   </g>
  </g>
 </g>
 <defs>
  <clipPath id="pf89ca06885">
   <rect height="217.44" width="334.8" x="54" y="34.56"/>
  </clipPath>
 </defs>
</svg>
