<?xml version="1.0" encoding="utf-8" standalone="no"?>
<!DOCTYPE svg PUBLIC "-//W3C//DTD SVG 1.1//EN"
  "http://www.w3.org/Graphics/SVG/1.1/DTD/svg11.dtd">
<!-- Created with matplotlib (https://matplotlib.org/) -->
<svg height="288pt" version="1.1" viewBox="0 0 432 288" width="432pt" xmlns="http://www.w3.org/2000/svg" xmlns:xlink="http://www.w3.org/1999/xlink">
 <defs>
  <style type="text/css">
*{stroke-linecap:butt;stroke-linejoin:round;}
  </style>
 </defs>
 <g id="figure_1">
  <g id="patch_1">
   <path d="M 0 288 
L 432 288 
L 432 0 
L 0 0 
z
" style="fill:#ffffff;"/>
  </g>
  <g id="axes_1">
   <g id="patch_2">
    <path d="M 54 252 
L 388.8 252 
L 388.8 34.56 
L 54 34.56 
z
" style="fill:#ffffff;"/>
   </g>
   <g id="matplotlib.axis_1">
    <g id="xtick_1">
     <g id="line2d_1">
      <defs>
       <path d="M 0 0 
L 0 3.5 
" id="maaef6090a2" style="stroke:#000000;stroke-width:0.8;"/>
      </defs>
      <g>
       <use style="stroke:#000000;stroke-width:0.8;" x="69.218182" xlink:href="#maaef6090a2" y="252"/>
      </g>
     </g>
     <g id="text_1">
      <!-- 0 -->
      <defs>
       <path d="M 31.78125 66.40625 
Q 24.171875 66.40625 20.328125 58.90625 
Q 16.5 51.421875 16.5 36.375 
Q 16.5 21.390625 20.328125 13.890625 
Q 24.171875 6.390625 31.78125 6.390625 
Q 39.453125 6.390625 43.28125 13.890625 
Q 47.125 21.390625 47.125 36.375 
Q 47.125 51.421875 43.28125 58.90625 
Q 39.453125 66.40625 31.78125 66.40625 
z
M 31.78125 74.21875 
Q 44.046875 74.21875 50.515625 64.515625 
Q 56.984375 54.828125 56.984375 36.375 
Q 56.984375 17.96875 50.515625 8.265625 
Q 44.046875 -1.421875 31.78125 -1.421875 
Q 19.53125 -1.421875 13.0625 8.265625 
Q 6.59375 17.96875 6.59375 36.375 
Q 6.59375 54.828125 13.0625 64.515625 
Q 19.53125 74.21875 31.78125 74.21875 
z
" id="DejaVuSans-48"/>
      </defs>
      <g transform="translate(66.036932 266.598437)scale(0.1 -0.1)">
       <use xlink:href="#DejaVuSans-48"/>
      </g>
     </g>
    </g>
    <g id="xtick_2">
     <g id="line2d_2">
      <g>
       <use style="stroke:#000000;stroke-width:0.8;" x="126.92839" xlink:href="#maaef6090a2" y="252"/>
      </g>
     </g>
     <g id="text_2">
      <!-- 500 -->
      <defs>
       <path d="M 10.796875 72.90625 
L 49.515625 72.90625 
L 49.515625 64.59375 
L 19.828125 64.59375 
L 19.828125 46.734375 
Q 21.96875 47.46875 24.109375 47.828125 
Q 26.265625 48.1875 28.421875 48.1875 
Q 40.625 48.1875 47.75 41.5 
Q 54.890625 34.8125 54.890625 23.390625 
Q 54.890625 11.625 47.5625 5.09375 
Q 40.234375 -1.421875 26.90625 -1.421875 
Q 22.3125 -1.421875 17.546875 -0.640625 
Q 12.796875 0.140625 7.71875 1.703125 
L 7.71875 11.625 
Q 12.109375 9.234375 16.796875 8.0625 
Q 21.484375 6.890625 26.703125 6.890625 
Q 35.15625 6.890625 40.078125 11.328125 
Q 45.015625 15.765625 45.015625 23.390625 
Q 45.015625 31 40.078125 35.4375 
Q 35.15625 39.890625 26.703125 39.890625 
Q 22.75 39.890625 18.8125 39.015625 
Q 14.890625 38.140625 10.796875 36.28125 
z
" id="DejaVuSans-53"/>
      </defs>
      <g transform="translate(117.38464 266.598437)scale(0.1 -0.1)">
       <use xlink:href="#DejaVuSans-53"/>
       <use x="63.623047" xlink:href="#DejaVuSans-48"/>
       <use x="127.246094" xlink:href="#DejaVuSans-48"/>
      </g>
     </g>
    </g>
    <g id="xtick_3">
     <g id="line2d_3">
      <g>
       <use style="stroke:#000000;stroke-width:0.8;" x="184.638598" xlink:href="#maaef6090a2" y="252"/>
      </g>
     </g>
     <g id="text_3">
      <!-- 1000 -->
      <defs>
       <path d="M 12.40625 8.296875 
L 28.515625 8.296875 
L 28.515625 63.921875 
L 10.984375 60.40625 
L 10.984375 69.390625 
L 28.421875 72.90625 
L 38.28125 72.90625 
L 38.28125 8.296875 
L 54.390625 8.296875 
L 54.390625 0 
L 12.40625 0 
z
" id="DejaVuSans-49"/>
      </defs>
      <g transform="translate(171.913598 266.598437)scale(0.1 -0.1)">
       <use xlink:href="#DejaVuSans-49"/>
       <use x="63.623047" xlink:href="#DejaVuSans-48"/>
       <use x="127.246094" xlink:href="#DejaVuSans-48"/>
       <use x="190.869141" xlink:href="#DejaVuSans-48"/>
      </g>
     </g>
    </g>
    <g id="xtick_4">
     <g id="line2d_4">
      <g>
       <use style="stroke:#000000;stroke-width:0.8;" x="242.348805" xlink:href="#maaef6090a2" y="252"/>
      </g>
     </g>
     <g id="text_4">
      <!-- 1500 -->
      <g transform="translate(229.623805 266.598437)scale(0.1 -0.1)">
       <use xlink:href="#DejaVuSans-49"/>
       <use x="63.623047" xlink:href="#DejaVuSans-53"/>
       <use x="127.246094" xlink:href="#DejaVuSans-48"/>
       <use x="190.869141" xlink:href="#DejaVuSans-48"/>
      </g>
     </g>
    </g>
    <g id="xtick_5">
     <g id="line2d_5">
      <g>
       <use style="stroke:#000000;stroke-width:0.8;" x="300.059013" xlink:href="#maaef6090a2" y="252"/>
      </g>
     </g>
     <g id="text_5">
      <!-- 2000 -->
      <defs>
       <path d="M 19.1875 8.296875 
L 53.609375 8.296875 
L 53.609375 0 
L 7.328125 0 
L 7.328125 8.296875 
Q 12.9375 14.109375 22.625 23.890625 
Q 32.328125 33.6875 34.8125 36.53125 
Q 39.546875 41.84375 41.421875 45.53125 
Q 43.3125 49.21875 43.3125 52.78125 
Q 43.3125 58.59375 39.234375 62.25 
Q 35.15625 65.921875 28.609375 65.921875 
Q 23.96875 65.921875 18.8125 64.3125 
Q 13.671875 62.703125 7.8125 59.421875 
L 7.8125 69.390625 
Q 13.765625 71.78125 18.9375 73 
Q 24.125 74.21875 28.421875 74.21875 
Q 39.75 74.21875 46.484375 68.546875 
Q 53.21875 62.890625 53.21875 53.421875 
Q 53.21875 48.921875 51.53125 44.890625 
Q 49.859375 40.875 45.40625 35.40625 
Q 44.1875 33.984375 37.640625 27.21875 
Q 31.109375 20.453125 19.1875 8.296875 
z
" id="DejaVuSans-50"/>
      </defs>
      <g transform="translate(287.334013 266.598437)scale(0.1 -0.1)">
       <use xlink:href="#DejaVuSans-50"/>
       <use x="63.623047" xlink:href="#DejaVuSans-48"/>
       <use x="127.246094" xlink:href="#DejaVuSans-48"/>
       <use x="190.869141" xlink:href="#DejaVuSans-48"/>
      </g>
     </g>
    </g>
    <g id="xtick_6">
     <g id="line2d_6">
      <g>
       <use style="stroke:#000000;stroke-width:0.8;" x="357.769221" xlink:href="#maaef6090a2" y="252"/>
      </g>
     </g>
     <g id="text_6">
      <!-- 2500 -->
      <g transform="translate(345.044221 266.598437)scale(0.1 -0.1)">
       <use xlink:href="#DejaVuSans-50"/>
       <use x="63.623047" xlink:href="#DejaVuSans-53"/>
       <use x="127.246094" xlink:href="#DejaVuSans-48"/>
       <use x="190.869141" xlink:href="#DejaVuSans-48"/>
      </g>
     </g>
    </g>
   </g>
   <g id="matplotlib.axis_2">
    <g id="ytick_1">
     <g id="line2d_7">
      <defs>
       <path d="M 0 0 
L -3.5 0 
" id="mf981a59d45" style="stroke:#000000;stroke-width:0.8;"/>
      </defs>
      <g>
       <use style="stroke:#000000;stroke-width:0.8;" x="54" xlink:href="#mf981a59d45" y="239.332577"/>
      </g>
     </g>
     <g id="text_7">
      <!-- 0 -->
      <g transform="translate(40.6375 243.131796)scale(0.1 -0.1)">
       <use xlink:href="#DejaVuSans-48"/>
      </g>
     </g>
    </g>
    <g id="ytick_2">
     <g id="line2d_8">
      <g>
       <use style="stroke:#000000;stroke-width:0.8;" x="54" xlink:href="#mf981a59d45" y="207.383571"/>
      </g>
     </g>
     <g id="text_8">
      <!-- 20 -->
      <g transform="translate(34.275 211.182789)scale(0.1 -0.1)">
       <use xlink:href="#DejaVuSans-50"/>
       <use x="63.623047" xlink:href="#DejaVuSans-48"/>
      </g>
     </g>
    </g>
    <g id="ytick_3">
     <g id="line2d_9">
      <g>
       <use style="stroke:#000000;stroke-width:0.8;" x="54" xlink:href="#mf981a59d45" y="175.434564"/>
      </g>
     </g>
     <g id="text_9">
      <!-- 40 -->
      <defs>
       <path d="M 37.796875 64.3125 
L 12.890625 25.390625 
L 37.796875 25.390625 
z
M 35.203125 72.90625 
L 47.609375 72.90625 
L 47.609375 25.390625 
L 58.015625 25.390625 
L 58.015625 17.1875 
L 47.609375 17.1875 
L 47.609375 0 
L 37.796875 0 
L 37.796875 17.1875 
L 4.890625 17.1875 
L 4.890625 26.703125 
z
" id="DejaVuSans-52"/>
      </defs>
      <g transform="translate(34.275 179.233783)scale(0.1 -0.1)">
       <use xlink:href="#DejaVuSans-52"/>
       <use x="63.623047" xlink:href="#DejaVuSans-48"/>
      </g>
     </g>
    </g>
    <g id="ytick_4">
     <g id="line2d_10">
      <g>
       <use style="stroke:#000000;stroke-width:0.8;" x="54" xlink:href="#mf981a59d45" y="143.485557"/>
      </g>
     </g>
     <g id="text_10">
      <!-- 60 -->
      <defs>
       <path d="M 33.015625 40.375 
Q 26.375 40.375 22.484375 35.828125 
Q 18.609375 31.296875 18.609375 23.390625 
Q 18.609375 15.53125 22.484375 10.953125 
Q 26.375 6.390625 33.015625 6.390625 
Q 39.65625 6.390625 43.53125 10.953125 
Q 47.40625 15.53125 47.40625 23.390625 
Q 47.40625 31.296875 43.53125 35.828125 
Q 39.65625 40.375 33.015625 40.375 
z
M 52.59375 71.296875 
L 52.59375 62.3125 
Q 48.875 64.0625 45.09375 64.984375 
Q 41.3125 65.921875 37.59375 65.921875 
Q 27.828125 65.921875 22.671875 59.328125 
Q 17.53125 52.734375 16.796875 39.40625 
Q 19.671875 43.65625 24.015625 45.921875 
Q 28.375 48.1875 33.59375 48.1875 
Q 44.578125 48.1875 50.953125 41.515625 
Q 57.328125 34.859375 57.328125 23.390625 
Q 57.328125 12.15625 50.6875 5.359375 
Q 44.046875 -1.421875 33.015625 -1.421875 
Q 20.359375 -1.421875 13.671875 8.265625 
Q 6.984375 17.96875 6.984375 36.375 
Q 6.984375 53.65625 15.1875 63.9375 
Q 23.390625 74.21875 37.203125 74.21875 
Q 40.921875 74.21875 44.703125 73.484375 
Q 48.484375 72.75 52.59375 71.296875 
z
" id="DejaVuSans-54"/>
      </defs>
      <g transform="translate(34.275 147.284776)scale(0.1 -0.1)">
       <use xlink:href="#DejaVuSans-54"/>
       <use x="63.623047" xlink:href="#DejaVuSans-48"/>
      </g>
     </g>
    </g>
    <g id="ytick_5">
     <g id="line2d_11">
      <g>
       <use style="stroke:#000000;stroke-width:0.8;" x="54" xlink:href="#mf981a59d45" y="111.536551"/>
      </g>
     </g>
     <g id="text_11">
      <!-- 80 -->
      <defs>
       <path d="M 31.78125 34.625 
Q 24.75 34.625 20.71875 30.859375 
Q 16.703125 27.09375 16.703125 20.515625 
Q 16.703125 13.921875 20.71875 10.15625 
Q 24.75 6.390625 31.78125 6.390625 
Q 38.8125 6.390625 42.859375 10.171875 
Q 46.921875 13.96875 46.921875 20.515625 
Q 46.921875 27.09375 42.890625 30.859375 
Q 38.875 34.625 31.78125 34.625 
z
M 21.921875 38.8125 
Q 15.578125 40.375 12.03125 44.71875 
Q 8.5 49.078125 8.5 55.328125 
Q 8.5 64.0625 14.71875 69.140625 
Q 20.953125 74.21875 31.78125 74.21875 
Q 42.671875 74.21875 48.875 69.140625 
Q 55.078125 64.0625 55.078125 55.328125 
Q 55.078125 49.078125 51.53125 44.71875 
Q 48 40.375 41.703125 38.8125 
Q 48.828125 37.15625 52.796875 32.3125 
Q 56.78125 27.484375 56.78125 20.515625 
Q 56.78125 9.90625 50.3125 4.234375 
Q 43.84375 -1.421875 31.78125 -1.421875 
Q 19.734375 -1.421875 13.25 4.234375 
Q 6.78125 9.90625 6.78125 20.515625 
Q 6.78125 27.484375 10.78125 32.3125 
Q 14.796875 37.15625 21.921875 38.8125 
z
M 18.3125 54.390625 
Q 18.3125 48.734375 21.84375 45.5625 
Q 25.390625 42.390625 31.78125 42.390625 
Q 38.140625 42.390625 41.71875 45.5625 
Q 45.3125 48.734375 45.3125 54.390625 
Q 45.3125 60.0625 41.71875 63.234375 
Q 38.140625 66.40625 31.78125 66.40625 
Q 25.390625 66.40625 21.84375 63.234375 
Q 18.3125 60.0625 18.3125 54.390625 
z
" id="DejaVuSans-56"/>
      </defs>
      <g transform="translate(34.275 115.335769)scale(0.1 -0.1)">
       <use xlink:href="#DejaVuSans-56"/>
       <use x="63.623047" xlink:href="#DejaVuSans-48"/>
      </g>
     </g>
    </g>
    <g id="ytick_6">
     <g id="line2d_12">
      <g>
       <use style="stroke:#000000;stroke-width:0.8;" x="54" xlink:href="#mf981a59d45" y="79.587544"/>
      </g>
     </g>
     <g id="text_12">
      <!-- 100 -->
      <g transform="translate(27.9125 83.386763)scale(0.1 -0.1)">
       <use xlink:href="#DejaVuSans-49"/>
       <use x="63.623047" xlink:href="#DejaVuSans-48"/>
       <use x="127.246094" xlink:href="#DejaVuSans-48"/>
      </g>
     </g>
    </g>
    <g id="ytick_7">
     <g id="line2d_13">
      <g>
       <use style="stroke:#000000;stroke-width:0.8;" x="54" xlink:href="#mf981a59d45" y="47.638537"/>
      </g>
     </g>
     <g id="text_13">
      <!-- 120 -->
      <g transform="translate(27.9125 51.437756)scale(0.1 -0.1)">
       <use xlink:href="#DejaVuSans-49"/>
       <use x="63.623047" xlink:href="#DejaVuSans-50"/>
       <use x="127.246094" xlink:href="#DejaVuSans-48"/>
      </g>
     </g>
    </g>
   </g>
   <g id="line2d_14">
    <path clip-path="url(#p60bd08fc14)" d="M 69.218182 237.735127 
L 69.333602 237.735127 
L 69.449023 239.332577 
L 70.256966 239.332577 
L 70.372386 224.955524 
L 70.487806 224.955524 
L 70.603227 185.019266 
L 70.718647 185.019266 
L 70.834068 221.760624 
L 70.949488 221.760624 
L 71.064908 239.332577 
L 71.180329 239.332577 
L 71.295749 237.735127 
L 71.642011 237.735127 
L 71.757431 188.214167 
L 71.872851 188.214167 
L 71.988272 223.358074 
L 72.103692 223.358074 
L 72.219113 216.968273 
L 72.334533 216.968273 
L 72.449953 103.549299 
L 72.565374 103.549299 
L 72.680794 148.277908 
L 72.796215 148.277908 
L 72.911635 239.332577 
L 73.027056 239.332577 
L 73.142476 231.345326 
L 73.257896 231.345326 
L 73.373317 239.332577 
L 73.950419 239.332577 
L 74.065839 194.603968 
L 74.18126 194.603968 
L 74.29668 239.332577 
L 75.335464 239.332577 
L 75.450884 237.735127 
L 75.566305 237.735127 
L 75.681725 239.332577 
L 75.797146 239.332577 
L 75.912566 231.345326 
L 76.027986 231.345326 
L 76.143407 229.747875 
L 76.258827 229.747875 
L 76.374248 234.540226 
L 76.489668 234.540226 
L 76.605088 239.332577 
L 76.720509 239.332577 
L 76.835929 237.735127 
L 77.182191 237.735127 
L 77.297611 236.137677 
L 77.413031 236.137677 
L 77.528452 173.837114 
L 77.643872 173.837114 
L 77.759293 221.760624 
L 77.874713 221.760624 
L 77.990133 236.137677 
L 78.105554 236.137677 
L 78.220974 239.332577 
L 78.336395 239.332577 
L 78.451815 237.735127 
L 78.567235 237.735127 
L 78.682656 239.332577 
L 78.798076 239.332577 
L 78.913497 231.345326 
L 79.028917 231.345326 
L 79.144338 193.006518 
L 79.259758 193.006518 
L 79.375178 44.443636 
L 79.490599 44.443636 
L 79.606019 183.421816 
L 79.72144 183.421816 
L 79.83686 234.540226 
L 79.95228 234.540226 
L 80.067701 237.735127 
L 80.183121 237.735127 
L 80.298542 232.942776 
L 80.413962 232.942776 
L 80.529383 229.747875 
L 80.644803 229.747875 
L 80.760223 239.332577 
L 80.875644 239.332577 
L 80.991064 212.175922 
L 81.106485 212.175922 
L 81.221905 239.332577 
L 81.337325 239.332577 
L 81.452746 234.540226 
L 81.568166 234.540226 
L 81.683587 207.383571 
L 81.799007 207.383571 
L 81.914428 177.032014 
L 82.029848 177.032014 
L 82.145268 237.735127 
L 82.49153 237.735127 
L 82.60695 210.578471 
L 82.72237 210.578471 
L 82.837791 232.942776 
L 83.184052 232.942776 
L 83.299473 237.735127 
L 83.414893 237.735127 
L 83.530313 239.332577 
L 83.645734 239.332577 
L 83.761154 191.409067 
L 83.876575 191.409067 
L 83.991995 226.552975 
L 84.107415 226.552975 
L 84.222836 237.735127 
L 84.338256 237.735127 
L 84.453677 239.332577 
L 84.799938 239.332577 
L 84.915358 237.735127 
L 85.030779 237.735127 
L 85.146199 221.760624 
L 85.26162 221.760624 
L 85.37704 228.150425 
L 85.49246 228.150425 
L 85.607881 239.332577 
L 86.184983 239.332577 
L 86.300403 212.175922 
L 86.415824 212.175922 
L 86.531244 231.345326 
L 86.646665 231.345326 
L 86.762085 232.942776 
L 86.877505 232.942776 
L 86.992926 224.955524 
L 87.108346 224.955524 
L 87.223767 237.735127 
L 87.339187 237.735127 
L 87.454608 239.332577 
L 87.570028 239.332577 
L 87.685448 236.137677 
L 87.800869 236.137677 
L 87.916289 237.735127 
L 88.03171 237.735127 
L 88.14713 231.345326 
L 88.26255 231.345326 
L 88.377971 221.760624 
L 88.493391 221.760624 
L 88.608812 232.942776 
L 88.724232 232.942776 
L 88.839652 231.345326 
L 88.955073 231.345326 
L 89.070493 239.332577 
L 89.878436 239.332577 
L 89.993857 234.540226 
L 90.109277 234.540226 
L 90.224697 197.798869 
L 90.340118 197.798869 
L 90.455538 220.163173 
L 90.570959 220.163173 
L 90.686379 239.332577 
L 91.263481 239.332577 
L 91.378902 220.163173 
L 91.494322 220.163173 
L 91.609742 239.332577 
L 91.725163 239.332577 
L 91.840583 236.137677 
L 91.956004 236.137677 
L 92.071424 239.332577 
L 92.186845 239.332577 
L 92.302265 232.942776 
L 92.417685 232.942776 
L 92.533106 239.332577 
L 92.879367 239.332577 
L 92.994787 196.201418 
L 93.110208 196.201418 
L 93.225628 237.735127 
L 93.341049 237.735127 
L 93.456469 207.383571 
L 93.57189 207.383571 
L 93.68731 239.332577 
L 93.80273 239.332577 
L 93.918151 237.735127 
L 94.033571 237.735127 
L 94.148992 236.137677 
L 94.264412 236.137677 
L 94.379832 239.332577 
L 94.495253 239.332577 
L 94.610673 231.345326 
L 94.726094 231.345326 
L 94.841514 239.332577 
L 95.187775 239.332577 
L 95.303196 232.942776 
L 95.418616 232.942776 
L 95.534037 191.409067 
L 95.649457 191.409067 
L 95.764877 218.565723 
L 95.880298 218.565723 
L 95.995718 234.540226 
L 96.111139 234.540226 
L 96.226559 237.735127 
L 96.34198 237.735127 
L 96.4574 239.332577 
L 97.265343 239.332577 
L 97.380763 232.942776 
L 97.496184 232.942776 
L 97.611604 237.735127 
L 97.727025 237.735127 
L 97.842445 239.332577 
L 97.957865 239.332577 
L 98.073286 229.747875 
L 98.188706 229.747875 
L 98.304127 237.735127 
L 98.419547 237.735127 
L 98.534967 239.332577 
L 99.11207 239.332577 
L 99.22749 234.540226 
L 99.34291 234.540226 
L 99.458331 183.421816 
L 99.573751 183.421816 
L 99.689172 218.565723 
L 99.804592 218.565723 
L 99.920012 239.332577 
L 100.266274 239.332577 
L 100.381694 221.760624 
L 100.497114 221.760624 
L 100.612535 237.735127 
L 100.727955 237.735127 
L 100.843376 239.332577 
L 113.424201 239.332577 
L 113.539621 232.942776 
L 113.655042 232.942776 
L 113.770462 239.332577 
L 126.582128 239.332577 
L 126.697549 237.735127 
L 126.812969 237.735127 
L 126.92839 226.552975 
L 127.04381 226.552975 
L 127.159231 234.540226 
L 127.274651 234.540226 
L 127.390071 239.332577 
L 135.35408 239.332577 
L 135.4695 223.358074 
L 135.584921 223.358074 
L 135.700341 239.332577 
L 138.12417 239.332577 
L 138.23959 153.070259 
L 138.355011 153.070259 
L 138.470431 229.747875 
L 138.585852 229.747875 
L 138.701272 239.332577 
L 138.816693 239.332577 
L 138.932113 237.735127 
L 139.047533 237.735127 
L 139.162954 239.332577 
L 143.433509 239.332577 
L 143.54893 237.735127 
L 143.66435 237.735127 
L 143.77977 239.332577 
L 143.895191 239.332577 
L 144.010611 228.150425 
L 144.126032 228.150425 
L 144.241452 221.760624 
L 144.356872 221.760624 
L 144.472293 239.332577 
L 144.818554 239.332577 
L 144.933975 215.370822 
L 145.049395 215.370822 
L 145.164815 234.540226 
L 145.280236 234.540226 
L 145.395656 239.332577 
L 146.203599 239.332577 
L 146.31902 204.18867 
L 146.43444 204.18867 
L 146.54986 239.332577 
L 146.896122 239.332577 
L 147.011542 237.735127 
L 147.126962 237.735127 
L 147.242383 234.540226 
L 147.357803 234.540226 
L 147.473224 239.332577 
L 147.588644 239.332577 
L 147.704065 215.370822 
L 147.819485 215.370822 
L 147.934905 239.332577 
L 150.127893 239.332577 
L 150.243314 185.019266 
L 150.358734 185.019266 
L 150.474155 207.383571 
L 150.589575 207.383571 
L 150.704995 239.332577 
L 150.820416 239.332577 
L 150.935836 223.358074 
L 151.051257 223.358074 
L 151.166677 210.578471 
L 151.282097 210.578471 
L 151.397518 239.332577 
L 151.512938 239.332577 
L 151.628359 229.747875 
L 151.743779 229.747875 
L 151.8592 231.345326 
L 151.97462 231.345326 
L 152.09004 200.993769 
L 152.205461 200.993769 
L 152.320881 156.26516 
L 152.436302 156.26516 
L 152.551722 215.370822 
L 152.667142 215.370822 
L 152.782563 239.332577 
L 154.283028 239.332577 
L 154.398449 204.18867 
L 154.513869 204.18867 
L 154.629289 239.332577 
L 154.74471 239.332577 
L 154.86013 220.163173 
L 154.975551 220.163173 
L 155.090971 239.332577 
L 155.206392 239.332577 
L 155.321812 205.78612 
L 155.437232 205.78612 
L 155.552653 239.332577 
L 155.668073 239.332577 
L 155.783494 215.370822 
L 155.898914 215.370822 
L 156.014334 239.332577 
L 156.129755 239.332577 
L 156.245175 188.214167 
L 156.360596 188.214167 
L 156.476016 218.565723 
L 156.591437 218.565723 
L 156.706857 199.396319 
L 156.822277 199.396319 
L 156.937698 216.968273 
L 157.053118 216.968273 
L 157.168539 175.434564 
L 157.283959 175.434564 
L 157.399379 208.981021 
L 157.5148 208.981021 
L 157.63022 239.332577 
L 157.745641 239.332577 
L 157.861061 237.735127 
L 157.976482 237.735127 
L 158.091902 224.955524 
L 158.207322 224.955524 
L 158.322743 218.565723 
L 158.438163 218.565723 
L 158.553584 223.358074 
L 158.669004 223.358074 
L 158.784424 239.332577 
L 159.361527 239.332577 
L 159.476947 237.735127 
L 159.592367 237.735127 
L 159.707788 232.942776 
L 159.823208 232.942776 
L 159.938629 231.345326 
L 160.054049 231.345326 
L 160.169469 129.108504 
L 160.28489 129.108504 
L 160.40031 234.540226 
L 160.515731 234.540226 
L 160.631151 239.332577 
L 160.746572 239.332577 
L 160.861992 180.226915 
L 160.977412 180.226915 
L 161.092833 239.332577 
L 161.208253 239.332577 
L 161.323674 236.137677 
L 161.439094 236.137677 
L 161.554514 232.942776 
L 161.669935 232.942776 
L 161.785355 239.332577 
L 161.900776 239.332577 
L 162.016196 237.735127 
L 162.131617 237.735127 
L 162.247037 239.332577 
L 162.362457 239.332577 
L 162.477878 231.345326 
L 162.593298 231.345326 
L 162.708719 226.552975 
L 162.824139 226.552975 
L 162.939559 229.747875 
L 163.05498 229.747875 
L 163.1704 234.540226 
L 163.285821 234.540226 
L 163.401241 239.332577 
L 163.516661 239.332577 
L 163.632082 232.942776 
L 163.747502 232.942776 
L 163.862923 224.955524 
L 163.978343 224.955524 
L 164.093764 226.552975 
L 164.209184 226.552975 
L 164.324604 236.137677 
L 164.440025 236.137677 
L 164.555445 239.332577 
L 164.901706 239.332577 
L 165.017127 221.760624 
L 165.132547 221.760624 
L 165.247968 202.59122 
L 165.363388 202.59122 
L 165.478809 234.540226 
L 165.594229 234.540226 
L 165.709649 236.137677 
L 166.055911 236.137677 
L 166.171331 237.735127 
L 166.517592 237.735127 
L 166.633013 239.332577 
L 166.748433 239.332577 
L 166.863854 231.345326 
L 166.979274 231.345326 
L 167.094694 207.383571 
L 167.210115 207.383571 
L 167.325535 221.760624 
L 167.440956 221.760624 
L 167.556376 202.59122 
L 167.671796 202.59122 
L 167.787217 237.735127 
L 167.902637 237.735127 
L 168.018058 239.332577 
L 168.59516 239.332577 
L 168.71058 236.137677 
L 168.826001 236.137677 
L 168.941421 202.59122 
L 169.056841 202.59122 
L 169.172262 216.968273 
L 169.287682 216.968273 
L 169.403103 151.472809 
L 169.518523 151.472809 
L 169.633944 223.358074 
L 169.749364 223.358074 
L 169.864784 213.773372 
L 169.980205 213.773372 
L 170.095625 239.332577 
L 170.211046 239.332577 
L 170.326466 212.175922 
L 170.441886 212.175922 
L 170.557307 119.523802 
L 170.672727 119.523802 
L 170.788148 215.370822 
L 170.903568 215.370822 
L 171.018989 239.332577 
L 171.134409 239.332577 
L 171.249829 213.773372 
L 171.36525 213.773372 
L 171.48067 239.332577 
L 172.057772 239.332577 
L 172.173193 215.370822 
L 172.288613 215.370822 
L 172.404034 224.955524 
L 172.519454 224.955524 
L 172.634874 218.565723 
L 172.750295 218.565723 
L 172.865715 239.332577 
L 172.981136 239.332577 
L 173.096556 161.057511 
L 173.211976 161.057511 
L 173.327397 237.735127 
L 173.442817 237.735127 
L 173.558238 239.332577 
L 174.13534 239.332577 
L 174.25076 237.735127 
L 174.366181 237.735127 
L 174.481601 239.332577 
L 175.982066 239.332577 
L 176.097487 237.735127 
L 176.212907 237.735127 
L 176.328328 239.332577 
L 177.136271 239.332577 
L 177.251691 231.345326 
L 177.367111 231.345326 
L 177.482532 224.955524 
L 177.597952 224.955524 
L 177.713373 185.019266 
L 177.828793 185.019266 
L 177.944213 180.226915 
L 178.059634 180.226915 
L 178.175054 223.358074 
L 178.290475 223.358074 
L 178.405895 183.421816 
L 178.521316 183.421816 
L 178.636736 239.332577 
L 178.752156 239.332577 
L 178.867577 210.578471 
L 178.982997 210.578471 
L 179.098418 239.332577 
L 179.213838 239.332577 
L 179.329258 232.942776 
L 179.444679 232.942776 
L 179.560099 239.332577 
L 179.906361 239.332577 
L 180.021781 237.735127 
L 180.137201 237.735127 
L 180.252622 239.332577 
L 181.753087 239.332577 
L 181.868508 236.137677 
L 181.983928 236.137677 
L 182.099348 239.332577 
L 182.676451 239.332577 
L 182.791871 237.735127 
L 182.907291 237.735127 
L 183.022712 180.226915 
L 183.138132 180.226915 
L 183.253553 239.332577 
L 183.368973 239.332577 
L 183.484393 229.747875 
L 183.599814 229.747875 
L 183.715234 236.137677 
L 183.830655 236.137677 
L 183.946075 239.332577 
L 186.139063 239.332577 
L 186.254483 237.735127 
L 186.369904 237.735127 
L 186.485324 239.332577 
L 202.528762 239.332577 
L 202.644182 237.735127 
L 202.759603 237.735127 
L 202.875023 239.332577 
L 205.529693 239.332577 
L 205.645113 236.137677 
L 205.760534 236.137677 
L 205.875954 239.332577 
L 212.224077 239.332577 
L 212.339497 232.942776 
L 212.454918 232.942776 
L 212.570338 239.332577 
L 213.14744 239.332577 
L 213.262861 236.137677 
L 213.378281 236.137677 
L 213.493702 221.760624 
L 213.609122 221.760624 
L 213.724542 239.332577 
L 217.071734 239.332577 
L 217.187155 232.942776 
L 217.302575 232.942776 
L 217.417996 239.332577 
L 223.535278 239.332577 
L 223.650698 146.680458 
L 223.766119 146.680458 
L 223.881539 239.332577 
L 223.996959 239.332577 
L 224.11238 236.137677 
L 224.2278 236.137677 
L 224.343221 191.409067 
L 224.458641 191.409067 
L 224.574061 205.78612 
L 224.689482 205.78612 
L 224.804902 239.332577 
L 224.920323 239.332577 
L 225.035743 212.175922 
L 225.151164 212.175922 
L 225.266584 239.332577 
L 226.536209 239.332577 
L 226.651629 237.735127 
L 226.767049 237.735127 
L 226.88247 239.332577 
L 227.459572 239.332577 
L 227.574992 215.370822 
L 227.690413 215.370822 
L 227.805833 239.332577 
L 228.382935 239.332577 
L 228.498356 229.747875 
L 228.613776 229.747875 
L 228.729196 236.137677 
L 228.844617 236.137677 
L 228.960037 239.332577 
L 229.075458 239.332577 
L 229.190878 216.968273 
L 229.306298 216.968273 
L 229.421719 239.332577 
L 230.922184 239.332577 
L 231.037605 220.163173 
L 231.153025 220.163173 
L 231.268446 239.332577 
L 232.076388 239.332577 
L 232.191809 226.552975 
L 232.307229 226.552975 
L 232.42265 239.332577 
L 232.768911 239.332577 
L 232.884331 237.735127 
L 232.999752 237.735127 
L 233.115172 196.201418 
L 233.230593 196.201418 
L 233.346013 213.773372 
L 233.461433 213.773372 
L 233.576854 239.332577 
L 233.923115 239.332577 
L 234.038536 165.849862 
L 234.153956 165.849862 
L 234.269376 237.735127 
L 234.384797 237.735127 
L 234.500217 239.332577 
L 235.30816 239.332577 
L 235.423581 221.760624 
L 235.539001 221.760624 
L 235.654421 239.332577 
L 235.769842 239.332577 
L 235.885262 220.163173 
L 236.000683 220.163173 
L 236.116103 239.332577 
L 236.462364 239.332577 
L 236.577785 178.629465 
L 236.693205 178.629465 
L 236.808626 232.942776 
L 236.924046 232.942776 
L 237.039466 237.735127 
L 237.154887 237.735127 
L 237.270307 226.552975 
L 237.385728 226.552975 
L 237.501148 239.332577 
L 238.07825 239.332577 
L 238.19367 207.383571 
L 238.309091 207.383571 
L 238.424511 239.332577 
L 239.694136 239.332577 
L 239.809556 237.735127 
L 240.155818 237.735127 
L 240.271238 138.693206 
L 240.386658 138.693206 
L 240.502079 226.552975 
L 240.617499 226.552975 
L 240.73292 178.629465 
L 240.84834 178.629465 
L 240.96376 231.345326 
L 241.079181 231.345326 
L 241.194601 226.552975 
L 241.310022 226.552975 
L 241.425442 207.383571 
L 241.540863 207.383571 
L 241.656283 239.332577 
L 241.771703 239.332577 
L 241.887124 237.735127 
L 242.002544 237.735127 
L 242.117965 239.332577 
L 242.464226 239.332577 
L 242.579646 234.540226 
L 242.695067 234.540226 
L 242.810487 208.981021 
L 242.925908 208.981021 
L 243.041328 234.540226 
L 243.156748 234.540226 
L 243.272169 224.955524 
L 243.387589 224.955524 
L 243.50301 106.744199 
L 243.61843 106.744199 
L 243.73385 132.303405 
L 243.849271 132.303405 
L 243.964691 197.798869 
L 244.080112 197.798869 
L 244.195532 239.332577 
L 245.003475 239.332577 
L 245.118895 232.942776 
L 245.234316 232.942776 
L 245.349736 239.332577 
L 245.695998 239.332577 
L 245.811418 231.345326 
L 245.926838 231.345326 
L 246.042259 237.735127 
L 246.157679 237.735127 
L 246.2731 239.332577 
L 246.38852 239.332577 
L 246.50394 193.006518 
L 246.619361 193.006518 
L 246.734781 181.824365 
L 246.850202 181.824365 
L 246.965622 175.434564 
L 247.081043 175.434564 
L 247.196463 178.629465 
L 247.311883 178.629465 
L 247.427304 239.332577 
L 248.004406 239.332577 
L 248.119826 218.565723 
L 248.235247 218.565723 
L 248.350667 138.693206 
L 248.466087 138.693206 
L 248.581508 216.968273 
L 248.696928 216.968273 
L 248.812349 159.460061 
L 248.927769 159.460061 
L 249.04319 95.562047 
L 249.15861 95.562047 
L 249.27403 186.616716 
L 249.389451 186.616716 
L 249.504871 169.044763 
L 249.620292 169.044763 
L 249.735712 232.942776 
L 249.851132 232.942776 
L 249.966553 236.137677 
L 250.081973 236.137677 
L 250.197394 220.163173 
L 250.312814 220.163173 
L 250.428235 124.316153 
L 250.543655 124.316153 
L 250.659075 237.735127 
L 250.774496 237.735127 
L 250.889916 196.201418 
L 251.005337 196.201418 
L 251.120757 208.981021 
L 251.236177 208.981021 
L 251.351598 218.565723 
L 251.467018 218.565723 
L 251.582439 239.332577 
L 251.697859 239.332577 
L 251.81328 218.565723 
L 251.9287 218.565723 
L 252.04412 121.121253 
L 252.159541 121.121253 
L 252.274961 165.849862 
L 252.390382 165.849862 
L 252.505802 205.78612 
L 252.621222 205.78612 
L 252.736643 223.358074 
L 252.852063 223.358074 
L 252.967484 239.332577 
L 253.544586 239.332577 
L 253.660006 236.137677 
L 253.775427 236.137677 
L 253.890847 239.332577 
L 254.69879 239.332577 
L 254.81421 237.735127 
L 254.929631 237.735127 
L 255.045051 229.747875 
L 255.160472 229.747875 
L 255.275892 223.358074 
L 255.391312 223.358074 
L 255.506733 239.332577 
L 255.622153 239.332577 
L 255.737574 202.59122 
L 255.852994 202.59122 
L 255.968415 232.942776 
L 256.083835 232.942776 
L 256.199255 228.150425 
L 256.314676 228.150425 
L 256.430096 178.629465 
L 256.545517 178.629465 
L 256.660937 98.756948 
L 256.776357 98.756948 
L 256.891778 226.552975 
L 257.007198 226.552975 
L 257.122619 239.332577 
L 257.238039 239.332577 
L 257.35346 228.150425 
L 257.46888 228.150425 
L 257.5843 239.332577 
L 258.161402 239.332577 
L 258.276823 236.137677 
L 258.392243 236.137677 
L 258.507664 228.150425 
L 258.623084 228.150425 
L 258.738504 234.540226 
L 258.853925 234.540226 
L 258.969345 178.629465 
L 259.084766 178.629465 
L 259.200186 199.396319 
L 259.315607 199.396319 
L 259.431027 137.095756 
L 259.546447 137.095756 
L 259.661868 181.824365 
L 259.777288 181.824365 
L 259.892709 231.345326 
L 260.008129 231.345326 
L 260.123549 239.332577 
L 260.23897 239.332577 
L 260.35439 231.345326 
L 260.700652 231.345326 
L 260.816072 223.358074 
L 260.931492 223.358074 
L 261.046913 239.332577 
L 261.162333 239.332577 
L 261.277754 236.137677 
L 261.393174 236.137677 
L 261.508594 232.942776 
L 261.624015 232.942776 
L 261.739435 224.955524 
L 261.854856 224.955524 
L 261.970276 239.332577 
L 262.085697 239.332577 
L 262.201117 200.993769 
L 262.316537 200.993769 
L 262.431958 239.332577 
L 263.470742 239.332577 
L 263.586162 210.578471 
L 263.701582 210.578471 
L 263.817003 143.485557 
L 263.932423 143.485557 
L 264.047844 213.773372 
L 264.163264 213.773372 
L 264.278684 212.175922 
L 264.394105 212.175922 
L 264.509525 165.849862 
L 264.624946 165.849862 
L 264.740366 239.332577 
L 266.933354 239.332577 
L 267.048774 236.137677 
L 267.164195 236.137677 
L 267.279615 239.332577 
L 267.395036 239.332577 
L 267.510456 223.358074 
L 267.625877 223.358074 
L 267.741297 239.332577 
L 267.856717 239.332577 
L 267.972138 224.955524 
L 268.087558 224.955524 
L 268.202979 237.735127 
L 268.318399 237.735127 
L 268.433819 239.332577 
L 268.54924 239.332577 
L 268.66466 236.137677 
L 268.780081 236.137677 
L 268.895501 239.332577 
L 269.010922 239.332577 
L 269.126342 210.578471 
L 269.241762 210.578471 
L 269.357183 224.955524 
L 269.472603 224.955524 
L 269.588024 239.332577 
L 284.708098 239.332577 
L 284.823518 237.735127 
L 284.938939 237.735127 
L 285.054359 239.332577 
L 292.325845 239.332577 
L 292.441266 234.540226 
L 292.556686 234.540226 
L 292.672107 239.332577 
L 296.711821 239.332577 
L 296.827242 237.735127 
L 296.942662 237.735127 
L 297.058083 239.332577 
L 297.404344 239.332577 
L 297.519764 232.942776 
L 297.635185 232.942776 
L 297.750605 239.332577 
L 300.405275 239.332577 
L 300.520695 226.552975 
L 300.636115 226.552975 
L 300.751536 239.332577 
L 303.406205 239.332577 
L 303.521626 212.175922 
L 303.637046 212.175922 
L 303.752467 239.332577 
L 305.714614 239.332577 
L 305.830034 236.137677 
L 305.945455 236.137677 
L 306.060875 239.332577 
L 306.176295 239.332577 
L 306.291716 208.981021 
L 306.407136 208.981021 
L 306.522557 239.332577 
L 308.484704 239.332577 
L 308.600124 237.735127 
L 308.715545 237.735127 
L 308.830965 218.565723 
L 308.946385 218.565723 
L 309.061806 234.540226 
L 309.177226 234.540226 
L 309.292647 194.603968 
L 309.408067 194.603968 
L 309.523487 239.332577 
L 309.638908 239.332577 
L 309.754328 236.137677 
L 309.869749 236.137677 
L 309.985169 224.955524 
L 310.10059 224.955524 
L 310.21601 213.773372 
L 310.33143 213.773372 
L 310.446851 239.332577 
L 316.564133 239.332577 
L 316.679553 223.358074 
L 316.794974 223.358074 
L 316.910394 239.332577 
L 317.949178 239.332577 
L 318.064598 221.760624 
L 318.180019 221.760624 
L 318.295439 239.332577 
L 318.410859 239.332577 
L 318.52628 236.137677 
L 318.6417 236.137677 
L 318.757121 239.332577 
L 319.103382 239.332577 
L 319.218802 212.175922 
L 319.334223 212.175922 
L 319.449643 193.006518 
L 319.565064 193.006518 
L 319.680484 236.137677 
L 319.795904 236.137677 
L 319.911325 239.332577 
L 320.488427 239.332577 
L 320.603847 204.18867 
L 320.719268 204.18867 
L 320.834688 237.735127 
L 320.950109 237.735127 
L 321.065529 205.78612 
L 321.180949 205.78612 
L 321.29637 156.26516 
L 321.41179 156.26516 
L 321.527211 239.332577 
L 321.873472 239.332577 
L 321.988892 231.345326 
L 322.104313 231.345326 
L 322.219733 208.981021 
L 322.335154 208.981021 
L 322.450574 234.540226 
L 322.565994 234.540226 
L 322.681415 232.942776 
L 322.796835 232.942776 
L 322.912256 216.968273 
L 323.027676 216.968273 
L 323.143096 239.332577 
L 323.489358 239.332577 
L 323.604778 234.540226 
L 323.720199 234.540226 
L 323.835619 239.332577 
L 324.874403 239.332577 
L 324.989823 165.849862 
L 325.105244 165.849862 
L 325.220664 207.383571 
L 325.336084 207.383571 
L 325.451505 239.332577 
L 325.566925 239.332577 
L 325.682346 196.201418 
L 325.797766 196.201418 
L 325.913186 239.332577 
L 326.028607 239.332577 
L 326.144027 119.523802 
L 326.259448 119.523802 
L 326.374868 220.163173 
L 326.490289 220.163173 
L 326.605709 239.332577 
L 326.721129 239.332577 
L 326.83655 234.540226 
L 326.95197 234.540226 
L 327.067391 220.163173 
L 327.182811 220.163173 
L 327.298231 239.332577 
L 327.413652 239.332577 
L 327.529072 232.942776 
L 327.644493 232.942776 
L 327.759913 236.137677 
L 327.875334 236.137677 
L 327.990754 239.332577 
L 328.337015 239.332577 
L 328.452436 236.137677 
L 328.567856 236.137677 
L 328.683276 237.735127 
L 328.798697 237.735127 
L 328.914117 239.332577 
L 329.260379 239.332577 
L 329.375799 234.540226 
L 329.491219 234.540226 
L 329.60664 236.137677 
L 329.72206 236.137677 
L 329.837481 239.332577 
L 330.645424 239.332577 
L 330.760844 236.137677 
L 330.876264 236.137677 
L 330.991685 231.345326 
L 331.107105 231.345326 
L 331.222526 181.824365 
L 331.337946 181.824365 
L 331.453366 146.680458 
L 331.568787 146.680458 
L 331.684207 216.968273 
L 331.799628 216.968273 
L 331.915048 157.86261 
L 332.030469 157.86261 
L 332.145889 191.409067 
L 332.261309 191.409067 
L 332.37673 239.332577 
L 332.953832 239.332577 
L 333.069252 237.735127 
L 333.184673 237.735127 
L 333.300093 223.358074 
L 333.415513 223.358074 
L 333.530934 239.332577 
L 333.646354 239.332577 
L 333.761775 205.78612 
L 333.877195 205.78612 
L 333.992616 239.332577 
L 334.108036 239.332577 
L 334.223456 204.18867 
L 334.338877 204.18867 
L 334.454297 224.955524 
L 334.569718 224.955524 
L 334.685138 218.565723 
L 334.800558 218.565723 
L 334.915979 226.552975 
L 335.031399 226.552975 
L 335.14682 237.735127 
L 335.493081 237.735127 
L 335.608501 234.540226 
L 335.723922 234.540226 
L 335.839342 183.421816 
L 335.954763 183.421816 
L 336.070183 221.760624 
L 336.185603 221.760624 
L 336.301024 234.540226 
L 336.416444 234.540226 
L 336.531865 213.773372 
L 336.647285 213.773372 
L 336.762706 237.735127 
L 336.878126 237.735127 
L 336.993546 239.332577 
L 337.570648 239.332577 
L 337.686069 153.070259 
L 337.801489 153.070259 
L 337.91691 237.735127 
L 338.03233 237.735127 
L 338.147751 223.358074 
L 338.263171 223.358074 
L 338.378591 232.942776 
L 338.494012 232.942776 
L 338.609432 239.332577 
L 338.955693 239.332577 
L 339.071114 237.735127 
L 339.186534 237.735127 
L 339.301955 239.332577 
L 339.648216 239.332577 
L 339.763636 237.735127 
L 339.879057 237.735127 
L 339.994477 231.345326 
L 340.109898 231.345326 
L 340.225318 205.78612 
L 340.340738 205.78612 
L 340.456159 234.540226 
L 340.571579 234.540226 
L 340.687 239.332577 
L 340.80242 239.332577 
L 340.917841 221.760624 
L 341.033261 221.760624 
L 341.148681 236.137677 
L 341.264102 236.137677 
L 341.379522 237.735127 
L 341.494943 237.735127 
L 341.610363 197.798869 
L 341.725783 197.798869 
L 341.841204 239.332577 
L 341.956624 239.332577 
L 342.072045 220.163173 
L 342.187465 220.163173 
L 342.302886 239.332577 
L 342.418306 239.332577 
L 342.533726 236.137677 
L 342.649147 236.137677 
L 342.764567 212.175922 
L 342.879988 212.175922 
L 342.995408 239.332577 
L 343.57251 239.332577 
L 343.68793 186.616716 
L 343.803351 186.616716 
L 343.918771 239.332577 
L 344.034192 239.332577 
L 344.149612 221.760624 
L 344.265033 221.760624 
L 344.380453 223.358074 
L 344.495873 223.358074 
L 344.611294 239.332577 
L 345.188396 239.332577 
L 345.303816 236.137677 
L 345.419237 236.137677 
L 345.534657 237.735127 
L 345.650078 237.735127 
L 345.765498 231.345326 
L 345.880918 231.345326 
L 345.996339 221.760624 
L 346.111759 221.760624 
L 346.22718 232.942776 
L 346.3426 232.942776 
L 346.45802 231.345326 
L 346.573441 231.345326 
L 346.688861 239.332577 
L 347.496804 239.332577 
L 347.612225 234.540226 
L 347.727645 234.540226 
L 347.843065 197.798869 
L 347.958486 197.798869 
L 348.073906 220.163173 
L 348.189327 220.163173 
L 348.304747 239.332577 
L 348.881849 239.332577 
L 348.99727 220.163173 
L 349.11269 220.163173 
L 349.22811 239.332577 
L 349.343531 239.332577 
L 349.458951 236.137677 
L 349.574372 236.137677 
L 349.689792 239.332577 
L 349.805213 239.332577 
L 349.920633 232.942776 
L 350.036053 232.942776 
L 350.151474 239.332577 
L 350.497735 239.332577 
L 350.613155 196.201418 
L 350.728576 196.201418 
L 350.843996 237.735127 
L 350.959417 237.735127 
L 351.074837 207.383571 
L 351.190258 207.383571 
L 351.305678 239.332577 
L 351.421098 239.332577 
L 351.536519 237.735127 
L 351.651939 237.735127 
L 351.76736 236.137677 
L 351.88278 236.137677 
L 351.9982 239.332577 
L 353.498666 239.332577 
L 353.614086 231.345326 
L 353.729507 231.345326 
L 353.844927 239.332577 
L 354.65287 239.332577 
L 354.76829 237.735127 
L 354.883711 237.735127 
L 354.999131 234.540226 
L 355.345392 234.540226 
L 355.460813 239.332577 
L 358.346323 239.332577 
L 358.461744 165.849862 
L 358.577164 165.849862 
L 358.692585 228.150425 
L 358.808005 228.150425 
L 358.923425 223.358074 
L 359.038846 223.358074 
L 359.154266 237.735127 
L 359.269687 237.735127 
L 359.385107 239.332577 
L 359.962209 239.332577 
L 360.07763 237.735127 
L 360.19305 237.735127 
L 360.30847 234.540226 
L 360.423891 234.540226 
L 360.539311 205.78612 
L 360.654732 205.78612 
L 360.770152 239.332577 
L 373.581818 239.332577 
L 373.581818 239.332577 
" style="fill:none;stroke:#1f77b4;stroke-linecap:square;stroke-width:1.5;"/>
   </g>
   <g id="line2d_15">
    <path clip-path="url(#p60bd08fc14)" d="M 69.218182 232.196332 
L 69.333602 228.560257 
L 69.564443 236.329688 
L 69.679863 236.311855 
L 69.910704 239.073755 
L 70.026125 238.958436 
L 70.141545 239.534656 
L 70.372386 238.72835 
L 70.603227 232.505846 
L 70.834068 214.25146 
L 70.949488 222.392836 
L 71.064908 222.551811 
L 71.295749 230.222212 
L 71.52659 234.807737 
L 71.757431 232.968689 
L 71.988272 214.479546 
L 72.103692 222.07961 
L 72.219113 221.418506 
L 72.334533 218.042512 
L 72.449953 218.378089 
L 72.680794 176.718846 
L 72.796215 185.092215 
L 72.911635 179.889638 
L 73.142476 215.294535 
L 73.488737 223.833607 
L 73.719578 219.784813 
L 73.950419 228.444861 
L 74.065839 226.963453 
L 74.29668 204.87029 
L 74.527521 220.399828 
L 74.873782 239.677825 
L 74.989203 239.75796 
L 75.220043 235.41032 
L 75.450884 238.986128 
L 75.566305 237.479117 
L 75.797146 233.72756 
L 75.912566 233.569883 
L 76.027986 228.58349 
L 76.143407 229.84061 
L 76.258827 233.450608 
L 76.374248 230.265189 
L 76.835929 238.660179 
L 77.06677 235.514616 
L 77.297611 235.636233 
L 77.528452 235.021106 
L 77.759293 210.37386 
L 77.990133 221.087002 
L 78.336395 233.004978 
L 78.451815 235.354286 
L 78.567235 234.002824 
L 78.682656 231.213074 
L 78.913497 235.560575 
L 79.144338 230.695136 
L 79.375178 213.762878 
L 79.606019 150.897014 
L 79.83686 188.911554 
L 80.067701 213.837655 
L 80.298542 227.482067 
L 80.529383 217.582643 
L 80.644803 220.098708 
L 80.875644 224.520608 
L 80.991064 220.44867 
L 81.106485 208.004391 
L 81.221905 208.096807 
L 81.337325 209.016572 
L 81.568166 233.817597 
L 81.683587 233.42709 
L 82.145268 209.110562 
L 82.376109 228.391869 
L 82.49153 229.474608 
L 82.60695 229.219719 
L 82.837791 218.249203 
L 82.953211 222.013574 
L 83.068632 221.216713 
L 83.184052 226.978415 
L 83.299473 226.534737 
L 83.530313 232.524564 
L 83.645734 228.56192 
L 83.761154 230.243683 
L 83.876575 214.083291 
L 83.991995 213.959858 
L 84.107415 227.131057 
L 84.222836 225.398988 
L 84.684518 235.19856 
L 84.799938 236.193989 
L 84.915358 233.2018 
L 85.030779 233.677583 
L 85.146199 235.563198 
L 85.37704 227.318324 
L 85.49246 227.654312 
L 85.607881 226.809861 
L 85.723301 228.090456 
L 86.069563 237.438564 
L 86.300403 236.376342 
L 86.531244 225.851618 
L 86.762085 231.484069 
L 86.992926 230.844921 
L 87.108346 227.712365 
L 87.223767 228.550455 
L 87.339187 232.424906 
L 87.454608 231.887457 
L 87.685448 234.988853 
L 87.800869 235.038236 
L 87.916289 235.389845 
L 88.14713 234.249608 
L 88.26255 230.536839 
L 88.377971 231.816323 
L 88.608812 228.529632 
L 88.839652 231.343014 
L 88.955073 231.207617 
L 89.070493 231.928518 
L 89.301334 236.243189 
L 89.532175 236.04593 
L 89.647595 236.098605 
L 89.763016 236.405444 
L 89.878436 236.36174 
L 89.993857 235.560359 
L 90.224697 233.727812 
L 90.455538 219.824271 
L 90.570959 224.943131 
L 90.686379 224.744231 
L 90.91722 232.202996 
L 91.148061 236.400632 
L 91.263481 235.845158 
L 91.378902 234.606905 
L 91.609742 228.114205 
L 91.725163 233.004147 
L 91.840583 232.859927 
L 92.071424 231.1677 
L 92.186845 230.867238 
L 92.417685 234.472905 
L 92.533106 233.4331 
L 92.763947 237.707195 
L 92.879367 237.587369 
L 92.994787 237.102162 
L 93.225628 220.530811 
L 93.456469 230.743788 
L 93.68731 221.435402 
L 93.918151 232.665271 
L 94.033571 232.479398 
L 94.148992 230.359409 
L 94.264412 232.20751 
L 94.379832 235.969252 
L 94.495253 235.883186 
L 94.726094 230.234211 
L 94.841514 231.170954 
L 94.956935 231.013249 
L 95.072355 232.783521 
L 95.187775 236.372607 
L 95.303196 235.353618 
L 95.418616 231.990665 
L 95.534037 234.549033 
L 95.764877 218.47355 
L 96.111139 228.90054 
L 96.226559 229.698929 
L 96.4574 233.665572 
L 96.57282 233.392929 
L 96.688241 232.31731 
L 96.803661 234.138711 
L 96.919082 234.160737 
L 97.149922 234.897389 
L 97.380763 233.084448 
L 97.496184 229.074202 
L 97.727025 235.930518 
L 97.842445 235.900754 
L 98.073286 237.500912 
L 98.304127 235.023804 
L 98.419547 236.768729 
L 98.534967 236.427949 
L 98.765808 237.223443 
L 98.881229 237.226146 
L 99.11207 236.651017 
L 99.458331 234.55656 
L 99.689172 215.501006 
L 99.920012 222.690064 
L 100.150853 230.572736 
L 100.381694 235.557133 
L 100.612535 226.337958 
L 100.843376 232.841386 
L 100.958796 233.761557 
L 101.189637 232.495085 
L 101.305057 232.892799 
L 101.420478 229.958416 
L 101.882159 238.467832 
L 101.99758 237.721066 
L 102.113 237.71267 
L 102.228421 238.0634 
L 102.343841 237.003823 
L 102.574682 239.057611 
L 102.805523 237.875716 
L 102.920943 237.518866 
L 103.036364 237.743161 
L 103.151784 237.43636 
L 103.267204 237.772733 
L 103.382625 237.157032 
L 103.613466 238.730187 
L 103.728886 238.127099 
L 103.844307 238.319931 
L 104.075147 237.563711 
L 104.190568 237.791389 
L 104.305988 237.708492 
L 104.536829 238.49192 
L 104.76767 238.26453 
L 104.998511 238.090565 
L 105.344772 238.226134 
L 108.114862 238.230904 
L 113.539621 238.230904 
L 113.770462 235.725414 
L 114.001303 237.475168 
L 114.462985 238.161192 
L 114.578405 238.001302 
L 114.693826 237.685499 
L 115.040087 238.107558 
L 115.270928 237.78675 
L 115.386348 237.833318 
L 115.501769 237.522695 
L 115.732609 238.478478 
L 115.96345 238.220243 
L 116.309711 238.309836 
L 117.463916 238.108321 
L 117.810177 238.253145 
L 118.502699 238.230904 
L 126.697549 238.230904 
L 126.92839 237.604532 
L 127.159231 233.03099 
L 127.274651 234.693427 
L 127.390071 234.716412 
L 127.620912 236.655462 
L 127.851753 237.583425 
L 127.967173 237.4769 
L 128.082594 237.068512 
L 128.428855 237.607651 
L 128.890537 236.543265 
L 129.121378 238.19223 
L 129.236798 238.141171 
L 129.352218 238.419209 
L 130.160161 238.215427 
L 130.621843 237.986459 
L 130.737263 238.08183 
L 130.852684 237.956186 
L 131.083525 238.35173 
L 131.198945 238.229857 
L 131.314365 238.302803 
L 131.545206 238.130309 
L 132.237729 238.230904 
L 135.4695 238.230904 
L 135.700341 231.967179 
L 135.931182 236.341563 
L 136.392864 238.056625 
L 136.623705 236.86739 
L 136.854545 238.037939 
L 136.969966 237.922538 
L 137.200807 237.120519 
L 137.316227 237.236938 
L 137.431648 236.460382 
L 137.662488 238.849839 
L 137.893329 238.204251 
L 138.12417 238.470374 
L 138.23959 238.428234 
L 138.470431 204.536249 
L 138.701272 224.229116 
L 139.047533 232.932725 
L 139.162954 235.733125 
L 139.278374 234.371476 
L 139.393795 230.267967 
L 139.624635 236.512027 
L 139.740056 236.021519 
L 139.970897 231.889086 
L 140.086317 232.067572 
L 140.201738 227.867643 
L 140.432578 240.480001 
L 140.663419 238.3473 
L 140.89426 239.330996 
L 141.125101 239.182287 
L 141.240521 239.065466 
L 141.586783 237.698076 
L 141.702203 237.068769 
L 141.817623 237.303945 
L 141.933044 237.10608 
L 142.048464 237.541268 
L 142.163885 236.459785 
L 142.394725 239.457391 
L 142.625566 238.40621 
L 142.856407 237.512026 
L 143.087248 238.180518 
L 143.54893 238.218087 
L 143.77977 237.604532 
L 144.010611 238.04197 
L 144.241452 233.722395 
L 144.472293 230.000839 
L 144.703134 235.148967 
L 144.933975 236.726695 
L 145.164815 227.600583 
L 145.280236 231.831812 
L 145.395656 231.783436 
L 145.626497 234.893602 
L 145.857338 235.944847 
L 146.088179 234.49471 
L 146.203599 235.240721 
L 146.31902 236.794257 
L 146.54986 223.356155 
L 146.780701 232.594987 
L 146.896122 232.198427 
L 147.242383 237.332754 
L 147.473224 233.183796 
L 147.704065 237.110708 
L 147.934905 226.331684 
L 148.165746 232.834388 
L 148.281167 231.521204 
L 148.512007 237.977523 
L 148.627428 237.771215 
L 148.858269 235.450321 
L 149.08911 238.303415 
L 149.435371 236.75648 
L 149.550791 236.523418 
L 149.666212 235.245416 
L 149.897052 238.874382 
L 150.012473 238.147861 
L 150.243314 237.786779 
L 150.474155 217.779791 
L 150.589575 220.52366 
L 150.704995 219.40513 
L 150.935836 229.809224 
L 151.051257 227.515753 
L 151.166677 228.509729 
L 151.397518 219.882208 
L 151.628359 229.737398 
L 151.743779 228.750784 
L 151.8592 229.030273 
L 152.09004 227.147119 
L 152.205461 213.865116 
L 152.320881 213.970666 
L 152.551722 198.153087 
L 152.667142 213.57197 
L 152.782563 213.327801 
L 153.013404 226.082889 
L 153.359665 232.85999 
L 153.475085 229.933436 
L 153.590506 230.358843 
L 153.821347 231.918526 
L 154.052187 227.652633 
L 154.167608 228.759281 
L 154.283028 228.362917 
L 154.398449 233.185934 
L 154.629289 224.610254 
L 154.86013 234.455504 
L 155.090971 228.828831 
L 155.321812 236.715266 
L 155.552653 219.662796 
L 155.783494 231.780245 
L 156.014334 220.756417 
L 156.245175 231.301387 
L 156.476016 211.518142 
L 156.706857 222.681903 
L 156.937698 210.918107 
L 157.168539 220.639785 
L 157.399379 200.281298 
L 157.63022 213.225837 
L 157.861061 221.70841 
L 158.091902 228.039778 
L 158.322743 219.826619 
L 158.438163 221.366791 
L 158.553584 221.254317 
L 158.669004 220.513273 
L 158.784424 221.112994 
L 159.015265 228.471877 
L 159.130686 227.114113 
L 159.476947 236.024091 
L 159.592367 236.995932 
L 160.054049 231.601618 
L 160.169469 230.426401 
L 160.40031 191.261417 
L 160.631151 220.453263 
L 160.861992 227.670923 
L 161.092833 211.772373 
L 161.208253 224.190679 
L 161.323674 221.703813 
L 161.439094 224.319672 
L 161.554514 229.94778 
L 161.669935 229.020103 
L 162.131617 220.980236 
L 162.362457 240.075832 
L 162.593298 231.113636 
L 162.708719 231.96783 
L 162.824139 227.639724 
L 163.05498 235.303014 
L 163.1704 232.983022 
L 163.285821 233.079164 
L 163.401241 233.587949 
L 163.516661 235.150943 
L 163.632082 234.775671 
L 163.862923 233.135431 
L 164.093764 228.181636 
L 164.324604 230.312097 
L 164.670866 232.708409 
L 164.786286 232.688864 
L 165.017127 236.79667 
L 165.478809 219.91103 
L 165.709649 229.011817 
L 166.286751 234.420114 
L 166.402172 233.308373 
L 166.633013 235.37171 
L 166.748433 235.543106 
L 166.863854 234.681642 
L 166.979274 230.696749 
L 167.094694 231.245826 
L 167.325535 222.150654 
L 167.440956 227.344375 
L 167.556376 226.162107 
L 167.787217 218.881946 
L 168.018058 231.146476 
L 168.479739 235.031767 
L 168.59516 234.304378 
L 168.826001 231.172887 
L 168.941421 232.230607 
L 169.172262 218.299319 
L 169.403103 222.476396 
L 169.633944 196.692997 
L 169.864784 219.741775 
L 170.095625 216.824932 
L 170.326466 230.871985 
L 170.557307 215.172354 
L 170.788148 180.79535 
L 170.903568 200.700103 
L 171.018989 200.925669 
L 171.249829 218.193865 
L 171.36525 210.991602 
L 171.48067 216.022568 
L 171.596091 227.557416 
L 171.711511 223.934803 
L 171.826931 225.953098 
L 172.057772 233.923193 
L 172.173193 230.568725 
L 172.404034 217.031717 
L 172.519454 215.232267 
L 172.750295 227.942912 
L 172.865715 223.490881 
L 173.096556 233.250217 
L 173.327397 202.490259 
L 173.558238 228.640782 
L 173.673658 228.665512 
L 173.789078 228.05696 
L 174.019919 232.769037 
L 174.25076 226.135212 
L 174.481601 232.369778 
L 174.712442 234.19208 
L 174.827862 233.55109 
L 174.943283 233.712338 
L 175.058703 228.813475 
L 175.289544 240.864214 
L 175.404964 239.394308 
L 175.520385 238.164798 
L 175.751226 238.949661 
L 175.982066 238.288417 
L 176.328328 237.215242 
L 176.443748 237.355308 
L 176.559168 236.854801 
L 176.790009 237.341103 
L 176.90543 237.533979 
L 177.02085 236.605925 
L 177.136271 237.424082 
L 177.251691 239.209452 
L 177.597952 232.027474 
L 177.713373 230.911505 
L 177.944213 214.48342 
L 178.175054 207.318702 
L 178.405895 219.968934 
L 178.636736 207.931641 
L 178.867577 224.48883 
L 179.098418 215.463154 
L 179.329258 227.83393 
L 179.560099 221.219589 
L 179.67552 223.041309 
L 179.906361 230.029282 
L 180.021781 229.001619 
L 180.252622 234.254055 
L 180.368042 232.51081 
L 180.483463 234.530935 
L 180.598883 239.213533 
L 180.714303 237.981492 
L 180.829724 235.550173 
L 181.060565 239.48904 
L 181.291406 236.818201 
L 181.406826 236.967462 
L 181.522246 237.946958 
L 181.637667 236.716032 
L 181.868508 237.189044 
L 181.983928 236.234375 
L 182.214769 236.982476 
L 182.330189 236.316837 
L 182.44561 236.755447 
L 182.56103 238.103537 
L 182.907291 236.946907 
L 183.022712 237.298694 
L 183.253553 214.712534 
L 183.484393 230.793233 
L 183.599814 229.168116 
L 183.715234 229.655989 
L 183.946075 234.82194 
L 184.061496 234.713764 
L 184.176916 232.105971 
L 184.407757 237.102689 
L 184.523177 236.534539 
L 184.754018 233.322436 
L 184.869438 234.110882 
L 184.984859 231.393144 
L 185.2157 239.768292 
L 185.44654 236.839457 
L 185.677381 239.125819 
L 185.908222 238.832907 
L 186.023643 238.871106 
L 186.254483 238.20311 
L 186.485324 236.884454 
L 186.600745 237.442394 
L 186.716165 237.321068 
L 186.831585 237.601458 
L 186.947006 236.862821 
L 187.177847 239.040173 
L 187.408688 237.884401 
L 187.524108 237.662758 
L 187.870369 238.199247 
L 188.10121 238.055899 
L 188.21663 238.004566 
L 188.562892 238.247969 
L 189.139994 238.244716 
L 202.644182 238.230904 
L 202.875023 237.604532 
L 203.105864 238.04197 
L 203.682966 238.173504 
L 203.913807 238.142397 
L 204.144648 238.200068 
L 204.60633 238.053852 
L 204.952591 238.247969 
L 205.529693 238.244716 
L 205.645113 238.243851 
L 205.875954 236.974048 
L 206.106795 237.831606 
L 206.683897 238.104371 
L 206.799317 237.984716 
L 207.145579 238.158899 
L 207.376419 238.004057 
L 207.49184 238.032111 
L 207.60726 237.8768 
L 207.838101 238.354691 
L 207.953522 238.265033 
L 208.184362 238.256952 
L 208.646044 238.256797 
L 209.684828 238.207439 
L 209.915669 238.242025 
L 211.300714 238.230904 
L 212.339497 238.230904 
L 212.570338 235.725414 
L 212.801179 237.475168 
L 213.262861 238.161192 
L 213.493702 236.432753 
L 213.724542 230.885752 
L 213.955383 235.550564 
L 214.532485 237.670057 
L 214.647906 236.760703 
L 214.878747 237.893606 
L 214.994167 237.765412 
L 215.225008 236.710622 
L 215.340428 237.029812 
L 215.455849 236.433742 
L 215.686689 238.862201 
L 215.80211 238.35894 
L 215.91753 238.184704 
L 216.148371 238.477563 
L 216.379212 238.349211 
L 216.494632 238.47115 
L 216.956314 237.906533 
L 217.071734 238.0115 
L 217.187155 237.964036 
L 217.417996 235.441339 
L 217.648836 237.768122 
L 217.764257 237.654563 
L 217.995098 237.832656 
L 218.110518 238.020207 
L 218.225939 237.948828 
L 218.341359 237.685499 
L 218.68762 238.107558 
L 218.918461 237.78675 
L 219.033881 237.833318 
L 219.149302 237.522695 
L 219.380143 238.478478 
L 219.610984 238.220243 
L 219.957245 238.309836 
L 221.111449 238.108321 
L 221.45771 238.253145 
L 222.150233 238.230904 
L 223.650698 238.230904 
L 223.881539 201.901296 
L 224.11238 227.272723 
L 224.343221 229.791872 
L 224.574061 218.051037 
L 224.689482 217.053173 
L 224.804902 211.25287 
L 225.035743 229.392186 
L 225.266584 219.048297 
L 225.497425 224.758895 
L 225.612845 221.418 
L 225.843686 237.645908 
L 225.959106 235.66337 
L 226.189947 231.667015 
L 226.305368 230.595617 
L 226.536209 236.64111 
L 226.651629 236.339252 
L 226.767049 237.499282 
L 226.99789 235.033901 
L 227.113311 236.334556 
L 227.228731 239.120174 
L 227.574992 236.763107 
L 227.805833 229.805677 
L 227.921253 234.415703 
L 228.152094 234.704429 
L 228.267515 234.211743 
L 228.498356 237.658953 
L 228.729196 232.580498 
L 229.075458 235.808373 
L 229.190878 235.975763 
L 229.421719 227.64909 
L 229.76798 236.28008 
L 229.883401 236.359654 
L 230.114241 237.590852 
L 230.229662 237.042402 
L 230.345082 235.825778 
L 230.460503 235.903487 
L 230.691343 237.904558 
L 230.922184 236.623967 
L 231.037605 236.630823 
L 231.153025 229.664578 
L 231.268446 229.449131 
L 231.383866 236.221843 
L 231.499286 235.86005 
L 231.614707 236.234641 
L 231.845548 237.771409 
L 231.960968 238.170926 
L 232.191809 236.42869 
L 232.42265 232.70956 
L 232.53807 235.723486 
L 232.768911 235.447944 
L 232.884331 235.842198 
L 232.999752 234.852239 
L 233.115172 236.003373 
L 233.346013 220.589442 
L 233.461433 223.062292 
L 233.576854 222.994781 
L 233.807695 231.194024 
L 234.038536 235.001756 
L 234.269376 204.750747 
L 234.500217 226.001723 
L 234.846478 231.30351 
L 234.961899 232.914915 
L 235.19274 228.636334 
L 235.423581 236.379427 
L 235.654421 227.566657 
L 235.885262 232.096422 
L 236.000683 222.980397 
L 236.116103 225.999295 
L 236.231523 237.6052 
L 236.577785 235.202482 
L 236.808626 213.947435 
L 236.924046 226.284765 
L 237.039466 225.450797 
L 237.270307 230.865671 
L 237.385728 227.915775 
L 237.616568 232.127952 
L 237.731989 229.122585 
L 237.847409 230.360963 
L 238.07825 236.476596 
L 238.19367 236.123314 
L 238.424511 220.816954 
L 238.770773 236.247128 
L 238.886193 235.181179 
L 239.001613 235.833529 
L 239.117034 237.315665 
L 239.347875 235.090569 
L 239.578715 238.632798 
L 239.694136 237.852999 
L 239.924977 235.070071 
L 240.040397 235.133827 
L 240.155818 233.427701 
L 240.271238 235.131781 
L 240.502079 197.350466 
L 240.73292 222.131064 
L 240.96376 205.302825 
L 241.194601 225.23054 
L 241.540863 216.619251 
L 241.771703 226.396791 
L 241.887124 221.803051 
L 242.002544 222.831247 
L 242.117965 225.925929 
L 242.233385 222.327811 
L 242.464226 234.462335 
L 242.695067 227.527301 
L 242.810487 232.445501 
L 243.041328 224.666044 
L 243.272169 231.273208 
L 243.387589 228.228817 
L 243.50301 228.692581 
L 243.73385 182.934094 
L 243.849271 181.475056 
L 243.964691 175.660582 
L 244.310953 213.170997 
L 244.426373 221.139534 
L 244.541793 221.127465 
L 244.657214 218.705566 
L 244.772634 220.012887 
L 245.003475 227.249998 
L 245.465157 214.955372 
L 245.811418 231.513403 
L 246.157679 239.536409 
L 246.2731 238.710146 
L 246.50394 239.519413 
L 246.734781 219.788392 
L 247.081043 202.164437 
L 247.196463 198.91309 
L 247.311883 199.733334 
L 247.427304 197.155775 
L 247.658145 220.609198 
L 248.004406 228.595991 
L 248.119826 228.577748 
L 248.350667 217.287799 
L 248.581508 185.838896 
L 248.812349 206.24008 
L 248.927769 190.27983 
L 249.04319 190.129294 
L 249.27403 166.493224 
L 249.389451 190.540585 
L 249.620292 185.870639 
L 249.735712 189.545079 
L 249.851132 208.364233 
L 249.966553 208.395715 
L 250.197394 207.464258 
L 250.312814 203.697394 
L 250.428235 209.576789 
L 250.659075 169.189114 
L 250.889916 205.582118 
L 251.005337 194.958339 
L 251.120757 199.289517 
L 251.351598 214.612791 
L 251.582439 210.88012 
L 251.81328 231.310035 
L 252.04412 217.092739 
L 252.274961 175.975331 
L 252.505802 182.583945 
L 252.621222 202.18881 
L 252.736643 199.912902 
L 252.967484 211.455098 
L 253.198325 222.151072 
L 253.544586 228.724201 
L 253.660006 226.795978 
L 253.890847 221.515932 
L 254.006267 217.650761 
L 254.237108 230.495108 
L 254.352529 230.32796 
L 254.58337 238.427752 
L 254.69879 238.97854 
L 254.81421 238.204752 
L 254.929631 238.795563 
L 255.045051 238.79088 
L 255.506733 228.973147 
L 255.622153 232.694339 
L 255.737574 232.4621 
L 255.968415 218.937993 
L 256.199255 230.348309 
L 256.314676 228.509472 
L 256.430096 228.982871 
L 256.891778 169.976647 
L 257.122619 209.013245 
L 257.35346 221.237476 
L 257.5843 223.571834 
L 257.699721 222.987598 
L 257.815141 221.499399 
L 258.045982 230.859058 
L 258.276823 226.250935 
L 258.392243 221.035484 
L 258.507664 223.974528 
L 258.623084 219.71383 
L 258.853925 238.624272 
L 258.969345 235.271103 
L 259.200186 213.731026 
L 259.315607 216.658168 
L 259.431027 216.111908 
L 259.661868 187.926432 
L 260.008129 211.352319 
L 260.123549 211.289684 
L 260.35439 223.450781 
L 260.469811 222.371643 
L 260.585231 218.541064 
L 260.816072 223.711576 
L 260.931492 216.421531 
L 261.046913 217.675653 
L 261.277754 223.509065 
L 261.393174 220.622935 
L 261.624015 232.292447 
L 261.854856 233.460914 
L 261.970276 231.432078 
L 262.201117 236.595382 
L 262.431958 220.428419 
L 262.662799 230.798882 
L 262.778219 230.881239 
L 262.893639 230.100571 
L 263.12448 235.585862 
L 263.239901 234.44492 
L 263.355321 231.805614 
L 263.470742 233.365584 
L 263.586162 236.859187 
L 264.047844 194.201219 
L 264.278684 212.03139 
L 264.509525 217.170905 
L 264.740366 200.922587 
L 264.855787 219.020782 
L 264.971207 219.144127 
L 265.317468 228.645931 
L 265.432889 227.234845 
L 265.663729 222.131449 
L 265.77915 221.857014 
L 266.009991 235.490453 
L 266.240832 230.981021 
L 266.356252 234.233431 
L 266.471672 232.871979 
L 266.702513 242.116364 
L 266.933354 238.822359 
L 267.048774 238.740208 
L 267.279615 236.418008 
L 267.395036 237.158709 
L 267.510456 236.362855 
L 267.741297 229.505464 
L 267.972138 236.115413 
L 268.202979 229.933487 
L 268.433819 233.973622 
L 268.66466 236.411804 
L 268.780081 235.359021 
L 268.895501 236.117495 
L 269.010922 235.954174 
L 269.126342 234.9737 
L 269.357183 225.438537 
L 269.588024 227.569971 
L 269.818864 233.25454 
L 269.934285 233.724708 
L 270.165126 237.149915 
L 270.280546 235.705525 
L 270.626807 236.772206 
L 270.973069 235.539465 
L 271.088489 233.927601 
L 271.31933 237.606785 
L 271.43475 237.35757 
L 271.665591 238.694686 
L 272.011852 238.452922 
L 272.127273 238.678492 
L 272.588954 237.632175 
L 272.935216 237.8918 
L 273.050636 237.512373 
L 273.281477 238.406722 
L 273.396897 238.215857 
L 273.512318 238.481172 
L 273.743159 238.006018 
L 274.551101 238.230904 
L 284.823518 238.230904 
L 285.054359 237.604532 
L 285.2852 238.04197 
L 285.862302 238.173504 
L 286.093143 238.142397 
L 286.323984 238.200068 
L 286.785666 238.053852 
L 287.131927 238.247969 
L 287.709029 238.244716 
L 292.441266 238.230904 
L 292.672107 236.351787 
L 292.902948 237.664102 
L 293.48005 238.058702 
L 293.59547 237.82185 
L 293.941731 238.138394 
L 294.172572 237.897789 
L 294.287993 237.932714 
L 294.403413 237.699748 
L 294.634254 238.416585 
L 294.749674 238.282097 
L 294.980515 238.269975 
L 295.326776 238.272338 
L 296.827242 238.232844 
L 297.058083 237.566081 
L 297.288923 238.04197 
L 297.519764 238.107003 
L 297.750605 235.707986 
L 297.981446 237.338816 
L 298.443128 238.072627 
L 298.673968 237.586102 
L 298.789389 237.699823 
L 299.02023 238.169451 
L 299.25107 237.784085 
L 299.366491 237.846341 
L 299.481911 237.546642 
L 299.712752 238.492289 
L 299.943593 238.226899 
L 300.289854 238.288406 
L 300.520695 238.264001 
L 300.751536 233.172835 
L 300.982377 236.660227 
L 301.444058 237.95608 
L 301.674899 237.246151 
L 301.90574 238.079118 
L 302.02116 237.942883 
L 302.252001 237.323515 
L 302.367422 237.435731 
L 302.482842 236.814487 
L 302.713683 238.726052 
L 302.944524 238.209582 
L 303.175365 238.42248 
L 303.521626 238.334475 
L 303.752467 227.549684 
L 303.983307 234.847586 
L 304.444989 237.689462 
L 304.67583 236.125047 
L 304.906671 237.908034 
L 305.022091 237.624025 
L 305.252932 236.305088 
L 305.368352 236.541161 
L 305.483773 235.221017 
L 305.714614 239.283093 
L 306.060875 237.199562 
L 306.176295 238.16548 
L 306.291716 238.188496 
L 306.522557 226.30211 
L 306.753397 234.536415 
L 306.984238 235.239768 
L 307.215079 237.543471 
L 307.3305 236.890004 
L 307.44592 234.942117 
L 307.676761 238.116226 
L 307.792181 237.385428 
L 308.023022 236.069316 
L 308.138442 236.15861 
L 308.253863 234.780486 
L 308.484704 239.454774 
L 308.715545 237.71016 
L 308.830965 237.877875 
L 309.061806 230.265831 
L 309.292647 233.974861 
L 309.523487 218.382039 
L 309.754328 231.737673 
L 309.985169 231.362711 
L 310.10059 229.800144 
L 310.21601 230.398246 
L 310.446851 221.612399 
L 310.677692 231.892357 
L 310.793112 231.397229 
L 310.908532 231.777603 
L 311.139373 233.898783 
L 311.254794 231.671772 
L 311.370214 233.705517 
L 311.485635 238.365324 
L 311.947316 235.772034 
L 312.062737 236.473363 
L 312.178157 236.196616 
L 312.293577 237.187306 
L 312.408998 239.176713 
L 312.639839 237.917449 
L 312.755259 237.614793 
L 312.9861 238.38504 
L 313.10152 238.205784 
L 313.216941 237.575234 
L 313.332361 237.75465 
L 313.447782 238.512616 
L 313.678622 237.638188 
L 313.909463 237.350229 
L 314.140304 237.980495 
L 314.255724 238.072564 
L 314.371145 238.635323 
L 314.601986 238.125895 
L 314.832827 238.025834 
L 315.063667 238.230904 
L 316.679553 238.230904 
L 316.910394 231.967179 
L 317.141235 236.341563 
L 317.602917 238.056625 
L 317.833757 236.86739 
L 318.064598 238.037939 
L 318.295439 230.455151 
L 318.52628 235.158662 
L 318.6417 233.768619 
L 318.757121 234.817672 
L 318.987962 237.831971 
L 319.218802 236.613473 
L 319.565064 219.46453 
L 319.680484 215.736759 
L 319.911325 228.219678 
L 320.257586 235.249331 
L 320.373007 234.961742 
L 320.603847 233.591103 
L 320.834688 222.629128 
L 320.950109 229.778694 
L 321.065529 229.326165 
L 321.180949 217.875899 
L 321.29637 217.612887 
L 321.527211 198.753107 
L 321.642631 222.606001 
L 321.758052 223.130192 
L 321.988892 231.228475 
L 322.219733 230.434342 
L 322.450574 215.905204 
L 322.796835 228.882901 
L 322.912256 225.374165 
L 323.027676 218.07171 
L 323.143096 219.649974 
L 323.604778 237.392068 
L 323.835619 234.192791 
L 323.951039 234.206207 
L 324.18188 233.349833 
L 324.412721 237.624481 
L 324.643562 234.866837 
L 324.758982 235.554445 
L 324.874403 235.285795 
L 324.989823 236.028759 
L 325.220664 208.409587 
L 325.566925 226.067792 
L 325.682346 228.093046 
L 325.913186 217.016044 
L 326.028607 227.311027 
L 326.144027 225.898993 
L 326.374868 184.392453 
L 326.605709 211.296226 
L 326.721129 216.169916 
L 326.83655 216.06914 
L 326.95197 216.678246 
L 327.067391 227.651157 
L 327.182811 224.866288 
L 327.298231 216.4124 
L 327.529072 230.493823 
L 327.759913 226.406631 
L 327.875334 229.397173 
L 327.990754 228.53956 
L 328.106174 222.055285 
L 328.337015 239.267284 
L 328.452436 237.203675 
L 328.683276 235.279743 
L 328.798697 236.037715 
L 328.914117 235.186519 
L 329.029538 235.710175 
L 329.260379 238.416904 
L 329.375799 237.643744 
L 329.60664 232.698675 
L 329.952901 236.47267 
L 330.068321 235.0089 
L 330.183742 236.308423 
L 330.299162 238.909611 
L 330.414583 237.525418 
L 330.530003 237.672769 
L 330.760844 236.594422 
L 330.991685 236.181032 
L 331.222526 234.500842 
L 331.568787 199.600124 
L 331.684207 194.232671 
L 331.915048 213.765055 
L 332.145889 195.083246 
L 332.261309 202.543127 
L 332.37673 201.849067 
L 332.607571 216.791175 
L 332.838411 226.707353 
L 332.953832 225.36828 
L 333.184673 218.470057 
L 333.300093 222.622924 
L 333.415513 219.166508 
L 333.530934 221.402194 
L 333.646354 230.28173 
L 333.761775 229.012974 
L 333.877195 215.443489 
L 333.992616 218.495139 
L 334.223456 234.134082 
L 334.454297 222.376731 
L 334.685138 228.203185 
L 334.915979 220.992168 
L 335.26224 227.951138 
L 335.377661 226.362157 
L 335.608501 232.114449 
L 335.839342 228.303609 
L 336.070183 211.541419 
L 336.416444 226.59878 
L 336.531865 227.103532 
L 336.647285 222.082428 
L 336.762706 223.414794 
L 336.878126 230.032225 
L 336.993546 228.831276 
L 337.224387 233.425436 
L 337.339808 234.412022 
L 337.455228 234.006287 
L 337.686069 230.479476 
L 337.91691 199.76983 
L 338.03233 223.897342 
L 338.147751 224.318919 
L 338.263171 222.157418 
L 338.378591 223.504915 
L 338.724853 233.701599 
L 338.840273 229.529191 
L 339.071114 236.657369 
L 339.186534 235.034633 
L 339.417375 230.245484 
L 339.532796 231.005011 
L 339.648216 227.185011 
L 339.879057 238.846047 
L 339.994477 237.257567 
L 340.109898 232.878254 
L 340.225318 234.16239 
L 340.456159 224.04847 
L 340.687 232.830537 
L 340.917841 234.778073 
L 341.148681 228.664961 
L 341.264102 231.963025 
L 341.379522 230.783473 
L 341.494943 232.561632 
L 341.610363 232.615959 
L 341.841204 219.970539 
L 342.072045 228.6184 
L 342.187465 222.639764 
L 342.302886 224.562846 
L 342.533726 234.643608 
L 342.764567 230.948443 
L 342.879988 224.440681 
L 342.995408 225.76134 
L 343.110828 232.98446 
L 343.226249 231.076698 
L 343.341669 231.555462 
L 343.45709 233.198804 
L 343.57251 231.979215 
L 343.68793 234.186367 
L 343.918771 214.066385 
L 344.149612 230.306433 
L 344.380453 226.48976 
L 344.495873 226.302475 
L 344.726714 229.462458 
L 344.842135 228.624094 
L 345.072975 236.250949 
L 345.188396 235.567957 
L 345.419237 231.922982 
L 345.534657 231.316519 
L 345.650078 229.874814 
L 345.880918 235.792898 
L 346.111759 227.502531 
L 346.22718 228.379121 
L 346.45802 232.407579 
L 346.573441 233.232009 
L 346.688861 232.837682 
L 346.919702 236.384417 
L 347.150543 235.275892 
L 347.496804 236.139991 
L 347.727645 233.445918 
L 347.843065 234.907115 
L 348.073906 219.295824 
L 348.189327 224.527481 
L 348.304747 224.475127 
L 348.535588 232.87835 
L 348.766429 236.119623 
L 348.881849 235.716234 
L 348.99727 234.497671 
L 349.22811 228.228911 
L 349.343531 233.057412 
L 349.458951 232.872743 
L 349.689792 231.1677 
L 349.805213 230.867238 
L 350.036053 234.472905 
L 350.151474 233.4331 
L 350.382315 237.707195 
L 350.497735 237.587369 
L 350.613155 237.102162 
L 350.843996 220.530811 
L 351.074837 230.743788 
L 351.305678 221.435402 
L 351.536519 232.665271 
L 351.651939 232.479398 
L 351.76736 230.359409 
L 351.88278 232.20751 
L 351.9982 235.969252 
L 352.113621 235.883186 
L 352.344462 232.722838 
L 352.459882 234.302817 
L 352.575303 232.194556 
L 352.690723 233.728192 
L 352.806143 237.143658 
L 353.036984 234.325387 
L 353.267825 239.940296 
L 353.498666 237.963096 
L 353.614086 238.406583 
L 353.844927 235.131912 
L 353.960348 237.087651 
L 354.306609 237.051519 
L 354.422029 237.370698 
L 354.53745 236.870189 
L 354.76829 237.882403 
L 355.114552 235.800937 
L 355.229972 235.843361 
L 355.460813 235.096188 
L 355.922495 237.809562 
L 356.153335 237.803864 
L 356.268756 237.856645 
L 356.384176 237.748426 
L 356.615017 237.872653 
L 356.961278 237.373274 
L 357.42296 238.377061 
L 357.53838 238.187672 
L 357.653801 238.249898 
L 357.769221 238.474694 
L 358.230903 238.171897 
L 358.461744 238.135594 
L 358.692585 209.266765 
L 358.923425 225.033836 
L 359.038846 224.44323 
L 359.154266 224.933424 
L 359.385107 234.114859 
L 359.500527 233.31168 
L 359.615948 230.372282 
L 359.846789 236.052171 
L 359.962209 235.535786 
L 360.19305 231.467079 
L 360.30847 232.083011 
L 360.423891 227.182921 
L 360.539311 230.893299 
L 360.770152 223.530501 
L 361.000993 233.695727 
L 361.231834 236.530103 
L 361.462675 238.317527 
L 361.578095 237.368802 
L 361.693515 235.332946 
L 361.924356 236.595237 
L 362.039777 236.33127 
L 362.270617 234.70226 
L 362.501458 233.905477 
L 362.732299 239.593119 
L 362.96314 237.695816 
L 363.193981 238.533992 
L 363.309401 238.623284 
L 363.540242 238.341492 
L 363.655662 238.263305 
L 364.001924 237.694169 
L 364.117344 237.845816 
L 364.232765 237.773018 
L 364.348185 237.968272 
L 364.463605 237.667532 
L 364.579026 237.990872 
L 364.694446 238.776834 
L 364.925287 238.206028 
L 365.156128 237.96175 
L 365.386969 238.230904 
L 373.581818 238.230904 
L 373.581818 238.230904 
" style="fill:none;stroke:#ff7f0e;stroke-linecap:square;stroke-width:1.5;"/>
   </g>
   <g id="patch_3">
    <path d="M 54 252 
L 54 34.56 
" style="fill:none;stroke:#000000;stroke-linecap:square;stroke-linejoin:miter;stroke-width:0.8;"/>
   </g>
   <g id="patch_4">
    <path d="M 388.8 252 
L 388.8 34.56 
" style="fill:none;stroke:#000000;stroke-linecap:square;stroke-linejoin:miter;stroke-width:0.8;"/>
   </g>
   <g id="patch_5">
    <path d="M 54 252 
L 388.8 252 
" style="fill:none;stroke:#000000;stroke-linecap:square;stroke-linejoin:miter;stroke-width:0.8;"/>
   </g>
   <g id="patch_6">
    <path d="M 54 34.56 
L 388.8 34.56 
" style="fill:none;stroke:#000000;stroke-linecap:square;stroke-linejoin:miter;stroke-width:0.8;"/>
   </g>
   <g id="legend_1">
    <g id="patch_7">
     <path d="M 271.970312 71.91625 
L 381.8 71.91625 
Q 383.8 71.91625 383.8 69.91625 
L 383.8 41.56 
Q 383.8 39.56 381.8 39.56 
L 271.970312 39.56 
Q 269.970312 39.56 269.970312 41.56 
L 269.970312 69.91625 
Q 269.970312 71.91625 271.970312 71.91625 
z
" style="fill:#ffffff;opacity:0.8;stroke:#cccccc;stroke-linejoin:miter;"/>
    </g>
    <g id="line2d_16">
     <path d="M 273.970312 47.658437 
L 293.970312 47.658437 
" style="fill:none;stroke:#1f77b4;stroke-linecap:square;stroke-width:1.5;"/>
    </g>
    <g id="line2d_17"/>
    <g id="text_14">
     <!-- True value -->
     <defs>
      <path d="M -0.296875 72.90625 
L 61.375 72.90625 
L 61.375 64.59375 
L 35.5 64.59375 
L 35.5 0 
L 25.59375 0 
L 25.59375 64.59375 
L -0.296875 64.59375 
z
" id="DejaVuSans-84"/>
      <path d="M 41.109375 46.296875 
Q 39.59375 47.171875 37.8125 47.578125 
Q 36.03125 48 33.890625 48 
Q 26.265625 48 22.1875 43.046875 
Q 18.109375 38.09375 18.109375 28.8125 
L 18.109375 0 
L 9.078125 0 
L 9.078125 54.6875 
L 18.109375 54.6875 
L 18.109375 46.1875 
Q 20.953125 51.171875 25.484375 53.578125 
Q 30.03125 56 36.53125 56 
Q 37.453125 56 38.578125 55.875 
Q 39.703125 55.765625 41.0625 55.515625 
z
" id="DejaVuSans-114"/>
      <path d="M 8.5 21.578125 
L 8.5 54.6875 
L 17.484375 54.6875 
L 17.484375 21.921875 
Q 17.484375 14.15625 20.5 10.265625 
Q 23.53125 6.390625 29.59375 6.390625 
Q 36.859375 6.390625 41.078125 11.03125 
Q 45.3125 15.671875 45.3125 23.6875 
L 45.3125 54.6875 
L 54.296875 54.6875 
L 54.296875 0 
L 45.3125 0 
L 45.3125 8.40625 
Q 42.046875 3.421875 37.71875 1 
Q 33.40625 -1.421875 27.6875 -1.421875 
Q 18.265625 -1.421875 13.375 4.4375 
Q 8.5 10.296875 8.5 21.578125 
z
M 31.109375 56 
z
" id="DejaVuSans-117"/>
      <path d="M 56.203125 29.59375 
L 56.203125 25.203125 
L 14.890625 25.203125 
Q 15.484375 15.921875 20.484375 11.0625 
Q 25.484375 6.203125 34.421875 6.203125 
Q 39.59375 6.203125 44.453125 7.46875 
Q 49.3125 8.734375 54.109375 11.28125 
L 54.109375 2.78125 
Q 49.265625 0.734375 44.1875 -0.34375 
Q 39.109375 -1.421875 33.890625 -1.421875 
Q 20.796875 -1.421875 13.15625 6.1875 
Q 5.515625 13.8125 5.515625 26.8125 
Q 5.515625 40.234375 12.765625 48.109375 
Q 20.015625 56 32.328125 56 
Q 43.359375 56 49.78125 48.890625 
Q 56.203125 41.796875 56.203125 29.59375 
z
M 47.21875 32.234375 
Q 47.125 39.59375 43.09375 43.984375 
Q 39.0625 48.390625 32.421875 48.390625 
Q 24.90625 48.390625 20.390625 44.140625 
Q 15.875 39.890625 15.1875 32.171875 
z
" id="DejaVuSans-101"/>
      <path id="DejaVuSans-32"/>
      <path d="M 2.984375 54.6875 
L 12.5 54.6875 
L 29.59375 8.796875 
L 46.6875 54.6875 
L 56.203125 54.6875 
L 35.6875 0 
L 23.484375 0 
z
" id="DejaVuSans-118"/>
      <path d="M 34.28125 27.484375 
Q 23.390625 27.484375 19.1875 25 
Q 14.984375 22.515625 14.984375 16.5 
Q 14.984375 11.71875 18.140625 8.90625 
Q 21.296875 6.109375 26.703125 6.109375 
Q 34.1875 6.109375 38.703125 11.40625 
Q 43.21875 16.703125 43.21875 25.484375 
L 43.21875 27.484375 
z
M 52.203125 31.203125 
L 52.203125 0 
L 43.21875 0 
L 43.21875 8.296875 
Q 40.140625 3.328125 35.546875 0.953125 
Q 30.953125 -1.421875 24.3125 -1.421875 
Q 15.921875 -1.421875 10.953125 3.296875 
Q 6 8.015625 6 15.921875 
Q 6 25.140625 12.171875 29.828125 
Q 18.359375 34.515625 30.609375 34.515625 
L 43.21875 34.515625 
L 43.21875 35.40625 
Q 43.21875 41.609375 39.140625 45 
Q 35.0625 48.390625 27.6875 48.390625 
Q 23 48.390625 18.546875 47.265625 
Q 14.109375 46.140625 10.015625 43.890625 
L 10.015625 52.203125 
Q 14.9375 54.109375 19.578125 55.046875 
Q 24.21875 56 28.609375 56 
Q 40.484375 56 46.34375 49.84375 
Q 52.203125 43.703125 52.203125 31.203125 
z
" id="DejaVuSans-97"/>
      <path d="M 9.421875 75.984375 
L 18.40625 75.984375 
L 18.40625 0 
L 9.421875 0 
z
" id="DejaVuSans-108"/>
     </defs>
     <g transform="translate(301.970312 51.158437)scale(0.1 -0.1)">
      <use xlink:href="#DejaVuSans-84"/>
      <use x="60.865234" xlink:href="#DejaVuSans-114"/>
      <use x="101.978516" xlink:href="#DejaVuSans-117"/>
      <use x="165.357422" xlink:href="#DejaVuSans-101"/>
      <use x="226.880859" xlink:href="#DejaVuSans-32"/>
      <use x="258.667969" xlink:href="#DejaVuSans-118"/>
      <use x="317.847656" xlink:href="#DejaVuSans-97"/>
      <use x="379.126953" xlink:href="#DejaVuSans-108"/>
      <use x="406.910156" xlink:href="#DejaVuSans-117"/>
      <use x="470.289062" xlink:href="#DejaVuSans-101"/>
     </g>
    </g>
    <g id="line2d_18">
     <path d="M 273.970312 62.336562 
L 293.970312 62.336562 
" style="fill:none;stroke:#ff7f0e;stroke-linecap:square;stroke-width:1.5;"/>
    </g>
    <g id="line2d_19"/>
    <g id="text_15">
     <!-- Predicted value -->
     <defs>
      <path d="M 19.671875 64.796875 
L 19.671875 37.40625 
L 32.078125 37.40625 
Q 38.96875 37.40625 42.71875 40.96875 
Q 46.484375 44.53125 46.484375 51.125 
Q 46.484375 57.671875 42.71875 61.234375 
Q 38.96875 64.796875 32.078125 64.796875 
z
M 9.8125 72.90625 
L 32.078125 72.90625 
Q 44.34375 72.90625 50.609375 67.359375 
Q 56.890625 61.8125 56.890625 51.125 
Q 56.890625 40.328125 50.609375 34.8125 
Q 44.34375 29.296875 32.078125 29.296875 
L 19.671875 29.296875 
L 19.671875 0 
L 9.8125 0 
z
" id="DejaVuSans-80"/>
      <path d="M 45.40625 46.390625 
L 45.40625 75.984375 
L 54.390625 75.984375 
L 54.390625 0 
L 45.40625 0 
L 45.40625 8.203125 
Q 42.578125 3.328125 38.25 0.953125 
Q 33.9375 -1.421875 27.875 -1.421875 
Q 17.96875 -1.421875 11.734375 6.484375 
Q 5.515625 14.40625 5.515625 27.296875 
Q 5.515625 40.1875 11.734375 48.09375 
Q 17.96875 56 27.875 56 
Q 33.9375 56 38.25 53.625 
Q 42.578125 51.265625 45.40625 46.390625 
z
M 14.796875 27.296875 
Q 14.796875 17.390625 18.875 11.75 
Q 22.953125 6.109375 30.078125 6.109375 
Q 37.203125 6.109375 41.296875 11.75 
Q 45.40625 17.390625 45.40625 27.296875 
Q 45.40625 37.203125 41.296875 42.84375 
Q 37.203125 48.484375 30.078125 48.484375 
Q 22.953125 48.484375 18.875 42.84375 
Q 14.796875 37.203125 14.796875 27.296875 
z
" id="DejaVuSans-100"/>
      <path d="M 9.421875 54.6875 
L 18.40625 54.6875 
L 18.40625 0 
L 9.421875 0 
z
M 9.421875 75.984375 
L 18.40625 75.984375 
L 18.40625 64.59375 
L 9.421875 64.59375 
z
" id="DejaVuSans-105"/>
      <path d="M 48.78125 52.59375 
L 48.78125 44.1875 
Q 44.96875 46.296875 41.140625 47.34375 
Q 37.3125 48.390625 33.40625 48.390625 
Q 24.65625 48.390625 19.8125 42.84375 
Q 14.984375 37.3125 14.984375 27.296875 
Q 14.984375 17.28125 19.8125 11.734375 
Q 24.65625 6.203125 33.40625 6.203125 
Q 37.3125 6.203125 41.140625 7.25 
Q 44.96875 8.296875 48.78125 10.40625 
L 48.78125 2.09375 
Q 45.015625 0.34375 40.984375 -0.53125 
Q 36.96875 -1.421875 32.421875 -1.421875 
Q 20.0625 -1.421875 12.78125 6.34375 
Q 5.515625 14.109375 5.515625 27.296875 
Q 5.515625 40.671875 12.859375 48.328125 
Q 20.21875 56 33.015625 56 
Q 37.15625 56 41.109375 55.140625 
Q 45.0625 54.296875 48.78125 52.59375 
z
" id="DejaVuSans-99"/>
      <path d="M 18.3125 70.21875 
L 18.3125 54.6875 
L 36.8125 54.6875 
L 36.8125 47.703125 
L 18.3125 47.703125 
L 18.3125 18.015625 
Q 18.3125 11.328125 20.140625 9.421875 
Q 21.96875 7.515625 27.59375 7.515625 
L 36.8125 7.515625 
L 36.8125 0 
L 27.59375 0 
Q 17.1875 0 13.234375 3.875 
Q 9.28125 7.765625 9.28125 18.015625 
L 9.28125 47.703125 
L 2.6875 47.703125 
L 2.6875 54.6875 
L 9.28125 54.6875 
L 9.28125 70.21875 
z
" id="DejaVuSans-116"/>
     </defs>
     <g transform="translate(301.970312 65.836562)scale(0.1 -0.1)">
      <use xlink:href="#DejaVuSans-80"/>
      <use x="60.287109" xlink:href="#DejaVuSans-114"/>
      <use x="101.369141" xlink:href="#DejaVuSans-101"/>
      <use x="162.892578" xlink:href="#DejaVuSans-100"/>
      <use x="226.369141" xlink:href="#DejaVuSans-105"/>
      <use x="254.152344" xlink:href="#DejaVuSans-99"/>
      <use x="309.132812" xlink:href="#DejaVuSans-116"/>
      <use x="348.341797" xlink:href="#DejaVuSans-101"/>
      <use x="409.865234" xlink:href="#DejaVuSans-100"/>
      <use x="473.341797" xlink:href="#DejaVuSans-32"/>
      <use x="505.128906" xlink:href="#DejaVuSans-118"/>
      <use x="564.308594" xlink:href="#DejaVuSans-97"/>
      <use x="625.587891" xlink:href="#DejaVuSans-108"/>
      <use x="653.371094" xlink:href="#DejaVuSans-117"/>
      <use x="716.75" xlink:href="#DejaVuSans-101"/>
     </g>
    </g>
   </g>
  </g>
 </g>
 <defs>
  <clipPath id="p60bd08fc14">
   <rect height="217.44" width="334.8" x="54" y="34.56"/>
  </clipPath>
 </defs>
</svg>
