<?xml version="1.0" encoding="utf-8" standalone="no"?>
<!DOCTYPE svg PUBLIC "-//W3C//DTD SVG 1.1//EN"
  "http://www.w3.org/Graphics/SVG/1.1/DTD/svg11.dtd">
<!-- Created with matplotlib (https://matplotlib.org/) -->
<svg height="288pt" version="1.1" viewBox="0 0 432 288" width="432pt" xmlns="http://www.w3.org/2000/svg" xmlns:xlink="http://www.w3.org/1999/xlink">
 <defs>
  <style type="text/css">
*{stroke-linecap:butt;stroke-linejoin:round;}
  </style>
 </defs>
 <g id="figure_1">
  <g id="patch_1">
   <path d="M 0 288 
L 432 288 
L 432 0 
L 0 0 
z
" style="fill:#ffffff;"/>
  </g>
  <g id="axes_1">
   <g id="patch_2">
    <path d="M 54 252 
L 388.8 252 
L 388.8 34.56 
L 54 34.56 
z
" style="fill:#ffffff;"/>
   </g>
   <g id="matplotlib.axis_1">
    <g id="xtick_1">
     <g id="line2d_1">
      <defs>
       <path d="M 0 0 
L 0 3.5 
" id="m89091a9e4f" style="stroke:#000000;stroke-width:0.8;"/>
      </defs>
      <g>
       <use style="stroke:#000000;stroke-width:0.8;" x="69.218182" xlink:href="#m89091a9e4f" y="252"/>
      </g>
     </g>
     <g id="text_1">
      <!-- 0 -->
      <defs>
       <path d="M 31.78125 66.40625 
Q 24.171875 66.40625 20.328125 58.90625 
Q 16.5 51.421875 16.5 36.375 
Q 16.5 21.390625 20.328125 13.890625 
Q 24.171875 6.390625 31.78125 6.390625 
Q 39.453125 6.390625 43.28125 13.890625 
Q 47.125 21.390625 47.125 36.375 
Q 47.125 51.421875 43.28125 58.90625 
Q 39.453125 66.40625 31.78125 66.40625 
z
M 31.78125 74.21875 
Q 44.046875 74.21875 50.515625 64.515625 
Q 56.984375 54.828125 56.984375 36.375 
Q 56.984375 17.96875 50.515625 8.265625 
Q 44.046875 -1.421875 31.78125 -1.421875 
Q 19.53125 -1.421875 13.0625 8.265625 
Q 6.59375 17.96875 6.59375 36.375 
Q 6.59375 54.828125 13.0625 64.515625 
Q 19.53125 74.21875 31.78125 74.21875 
z
" id="DejaVuSans-48"/>
      </defs>
      <g transform="translate(66.036932 266.598437)scale(0.1 -0.1)">
       <use xlink:href="#DejaVuSans-48"/>
      </g>
     </g>
    </g>
    <g id="xtick_2">
     <g id="line2d_2">
      <g>
       <use style="stroke:#000000;stroke-width:0.8;" x="116.115506" xlink:href="#m89091a9e4f" y="252"/>
      </g>
     </g>
     <g id="text_2">
      <!-- 200 -->
      <defs>
       <path d="M 19.1875 8.296875 
L 53.609375 8.296875 
L 53.609375 0 
L 7.328125 0 
L 7.328125 8.296875 
Q 12.9375 14.109375 22.625 23.890625 
Q 32.328125 33.6875 34.8125 36.53125 
Q 39.546875 41.84375 41.421875 45.53125 
Q 43.3125 49.21875 43.3125 52.78125 
Q 43.3125 58.59375 39.234375 62.25 
Q 35.15625 65.921875 28.609375 65.921875 
Q 23.96875 65.921875 18.8125 64.3125 
Q 13.671875 62.703125 7.8125 59.421875 
L 7.8125 69.390625 
Q 13.765625 71.78125 18.9375 73 
Q 24.125 74.21875 28.421875 74.21875 
Q 39.75 74.21875 46.484375 68.546875 
Q 53.21875 62.890625 53.21875 53.421875 
Q 53.21875 48.921875 51.53125 44.890625 
Q 49.859375 40.875 45.40625 35.40625 
Q 44.1875 33.984375 37.640625 27.21875 
Q 31.109375 20.453125 19.1875 8.296875 
z
" id="DejaVuSans-50"/>
      </defs>
      <g transform="translate(106.571756 266.598437)scale(0.1 -0.1)">
       <use xlink:href="#DejaVuSans-50"/>
       <use x="63.623047" xlink:href="#DejaVuSans-48"/>
       <use x="127.246094" xlink:href="#DejaVuSans-48"/>
      </g>
     </g>
    </g>
    <g id="xtick_3">
     <g id="line2d_3">
      <g>
       <use style="stroke:#000000;stroke-width:0.8;" x="163.012831" xlink:href="#m89091a9e4f" y="252"/>
      </g>
     </g>
     <g id="text_3">
      <!-- 400 -->
      <defs>
       <path d="M 37.796875 64.3125 
L 12.890625 25.390625 
L 37.796875 25.390625 
z
M 35.203125 72.90625 
L 47.609375 72.90625 
L 47.609375 25.390625 
L 58.015625 25.390625 
L 58.015625 17.1875 
L 47.609375 17.1875 
L 47.609375 0 
L 37.796875 0 
L 37.796875 17.1875 
L 4.890625 17.1875 
L 4.890625 26.703125 
z
" id="DejaVuSans-52"/>
      </defs>
      <g transform="translate(153.469081 266.598437)scale(0.1 -0.1)">
       <use xlink:href="#DejaVuSans-52"/>
       <use x="63.623047" xlink:href="#DejaVuSans-48"/>
       <use x="127.246094" xlink:href="#DejaVuSans-48"/>
      </g>
     </g>
    </g>
    <g id="xtick_4">
     <g id="line2d_4">
      <g>
       <use style="stroke:#000000;stroke-width:0.8;" x="209.910155" xlink:href="#m89091a9e4f" y="252"/>
      </g>
     </g>
     <g id="text_4">
      <!-- 600 -->
      <defs>
       <path d="M 33.015625 40.375 
Q 26.375 40.375 22.484375 35.828125 
Q 18.609375 31.296875 18.609375 23.390625 
Q 18.609375 15.53125 22.484375 10.953125 
Q 26.375 6.390625 33.015625 6.390625 
Q 39.65625 6.390625 43.53125 10.953125 
Q 47.40625 15.53125 47.40625 23.390625 
Q 47.40625 31.296875 43.53125 35.828125 
Q 39.65625 40.375 33.015625 40.375 
z
M 52.59375 71.296875 
L 52.59375 62.3125 
Q 48.875 64.0625 45.09375 64.984375 
Q 41.3125 65.921875 37.59375 65.921875 
Q 27.828125 65.921875 22.671875 59.328125 
Q 17.53125 52.734375 16.796875 39.40625 
Q 19.671875 43.65625 24.015625 45.921875 
Q 28.375 48.1875 33.59375 48.1875 
Q 44.578125 48.1875 50.953125 41.515625 
Q 57.328125 34.859375 57.328125 23.390625 
Q 57.328125 12.15625 50.6875 5.359375 
Q 44.046875 -1.421875 33.015625 -1.421875 
Q 20.359375 -1.421875 13.671875 8.265625 
Q 6.984375 17.96875 6.984375 36.375 
Q 6.984375 53.65625 15.1875 63.9375 
Q 23.390625 74.21875 37.203125 74.21875 
Q 40.921875 74.21875 44.703125 73.484375 
Q 48.484375 72.75 52.59375 71.296875 
z
" id="DejaVuSans-54"/>
      </defs>
      <g transform="translate(200.366405 266.598437)scale(0.1 -0.1)">
       <use xlink:href="#DejaVuSans-54"/>
       <use x="63.623047" xlink:href="#DejaVuSans-48"/>
       <use x="127.246094" xlink:href="#DejaVuSans-48"/>
      </g>
     </g>
    </g>
    <g id="xtick_5">
     <g id="line2d_5">
      <g>
       <use style="stroke:#000000;stroke-width:0.8;" x="256.80748" xlink:href="#m89091a9e4f" y="252"/>
      </g>
     </g>
     <g id="text_5">
      <!-- 800 -->
      <defs>
       <path d="M 31.78125 34.625 
Q 24.75 34.625 20.71875 30.859375 
Q 16.703125 27.09375 16.703125 20.515625 
Q 16.703125 13.921875 20.71875 10.15625 
Q 24.75 6.390625 31.78125 6.390625 
Q 38.8125 6.390625 42.859375 10.171875 
Q 46.921875 13.96875 46.921875 20.515625 
Q 46.921875 27.09375 42.890625 30.859375 
Q 38.875 34.625 31.78125 34.625 
z
M 21.921875 38.8125 
Q 15.578125 40.375 12.03125 44.71875 
Q 8.5 49.078125 8.5 55.328125 
Q 8.5 64.0625 14.71875 69.140625 
Q 20.953125 74.21875 31.78125 74.21875 
Q 42.671875 74.21875 48.875 69.140625 
Q 55.078125 64.0625 55.078125 55.328125 
Q 55.078125 49.078125 51.53125 44.71875 
Q 48 40.375 41.703125 38.8125 
Q 48.828125 37.15625 52.796875 32.3125 
Q 56.78125 27.484375 56.78125 20.515625 
Q 56.78125 9.90625 50.3125 4.234375 
Q 43.84375 -1.421875 31.78125 -1.421875 
Q 19.734375 -1.421875 13.25 4.234375 
Q 6.78125 9.90625 6.78125 20.515625 
Q 6.78125 27.484375 10.78125 32.3125 
Q 14.796875 37.15625 21.921875 38.8125 
z
M 18.3125 54.390625 
Q 18.3125 48.734375 21.84375 45.5625 
Q 25.390625 42.390625 31.78125 42.390625 
Q 38.140625 42.390625 41.71875 45.5625 
Q 45.3125 48.734375 45.3125 54.390625 
Q 45.3125 60.0625 41.71875 63.234375 
Q 38.140625 66.40625 31.78125 66.40625 
Q 25.390625 66.40625 21.84375 63.234375 
Q 18.3125 60.0625 18.3125 54.390625 
z
" id="DejaVuSans-56"/>
      </defs>
      <g transform="translate(247.26373 266.598437)scale(0.1 -0.1)">
       <use xlink:href="#DejaVuSans-56"/>
       <use x="63.623047" xlink:href="#DejaVuSans-48"/>
       <use x="127.246094" xlink:href="#DejaVuSans-48"/>
      </g>
     </g>
    </g>
    <g id="xtick_6">
     <g id="line2d_6">
      <g>
       <use style="stroke:#000000;stroke-width:0.8;" x="303.704805" xlink:href="#m89091a9e4f" y="252"/>
      </g>
     </g>
     <g id="text_6">
      <!-- 1000 -->
      <defs>
       <path d="M 12.40625 8.296875 
L 28.515625 8.296875 
L 28.515625 63.921875 
L 10.984375 60.40625 
L 10.984375 69.390625 
L 28.421875 72.90625 
L 38.28125 72.90625 
L 38.28125 8.296875 
L 54.390625 8.296875 
L 54.390625 0 
L 12.40625 0 
z
" id="DejaVuSans-49"/>
      </defs>
      <g transform="translate(290.979805 266.598437)scale(0.1 -0.1)">
       <use xlink:href="#DejaVuSans-49"/>
       <use x="63.623047" xlink:href="#DejaVuSans-48"/>
       <use x="127.246094" xlink:href="#DejaVuSans-48"/>
       <use x="190.869141" xlink:href="#DejaVuSans-48"/>
      </g>
     </g>
    </g>
    <g id="xtick_7">
     <g id="line2d_7">
      <g>
       <use style="stroke:#000000;stroke-width:0.8;" x="350.602129" xlink:href="#m89091a9e4f" y="252"/>
      </g>
     </g>
     <g id="text_7">
      <!-- 1200 -->
      <g transform="translate(337.877129 266.598437)scale(0.1 -0.1)">
       <use xlink:href="#DejaVuSans-49"/>
       <use x="63.623047" xlink:href="#DejaVuSans-50"/>
       <use x="127.246094" xlink:href="#DejaVuSans-48"/>
       <use x="190.869141" xlink:href="#DejaVuSans-48"/>
      </g>
     </g>
    </g>
   </g>
   <g id="matplotlib.axis_2">
    <g id="ytick_1">
     <g id="line2d_8">
      <defs>
       <path d="M 0 0 
L -3.5 0 
" id="m85714812fd" style="stroke:#000000;stroke-width:0.8;"/>
      </defs>
      <g>
       <use style="stroke:#000000;stroke-width:0.8;" x="54" xlink:href="#m85714812fd" y="241.676967"/>
      </g>
     </g>
     <g id="text_8">
      <!-- 0 -->
      <g transform="translate(40.6375 245.476186)scale(0.1 -0.1)">
       <use xlink:href="#DejaVuSans-48"/>
      </g>
     </g>
    </g>
    <g id="ytick_2">
     <g id="line2d_9">
      <g>
       <use style="stroke:#000000;stroke-width:0.8;" x="54" xlink:href="#m85714812fd" y="201.912182"/>
      </g>
     </g>
     <g id="text_9">
      <!-- 50 -->
      <defs>
       <path d="M 10.796875 72.90625 
L 49.515625 72.90625 
L 49.515625 64.59375 
L 19.828125 64.59375 
L 19.828125 46.734375 
Q 21.96875 47.46875 24.109375 47.828125 
Q 26.265625 48.1875 28.421875 48.1875 
Q 40.625 48.1875 47.75 41.5 
Q 54.890625 34.8125 54.890625 23.390625 
Q 54.890625 11.625 47.5625 5.09375 
Q 40.234375 -1.421875 26.90625 -1.421875 
Q 22.3125 -1.421875 17.546875 -0.640625 
Q 12.796875 0.140625 7.71875 1.703125 
L 7.71875 11.625 
Q 12.109375 9.234375 16.796875 8.0625 
Q 21.484375 6.890625 26.703125 6.890625 
Q 35.15625 6.890625 40.078125 11.328125 
Q 45.015625 15.765625 45.015625 23.390625 
Q 45.015625 31 40.078125 35.4375 
Q 35.15625 39.890625 26.703125 39.890625 
Q 22.75 39.890625 18.8125 39.015625 
Q 14.890625 38.140625 10.796875 36.28125 
z
" id="DejaVuSans-53"/>
      </defs>
      <g transform="translate(34.275 205.711401)scale(0.1 -0.1)">
       <use xlink:href="#DejaVuSans-53"/>
       <use x="63.623047" xlink:href="#DejaVuSans-48"/>
      </g>
     </g>
    </g>
    <g id="ytick_3">
     <g id="line2d_10">
      <g>
       <use style="stroke:#000000;stroke-width:0.8;" x="54" xlink:href="#m85714812fd" y="162.147398"/>
      </g>
     </g>
     <g id="text_10">
      <!-- 100 -->
      <g transform="translate(27.9125 165.946617)scale(0.1 -0.1)">
       <use xlink:href="#DejaVuSans-49"/>
       <use x="63.623047" xlink:href="#DejaVuSans-48"/>
       <use x="127.246094" xlink:href="#DejaVuSans-48"/>
      </g>
     </g>
    </g>
    <g id="ytick_4">
     <g id="line2d_11">
      <g>
       <use style="stroke:#000000;stroke-width:0.8;" x="54" xlink:href="#m85714812fd" y="122.382614"/>
      </g>
     </g>
     <g id="text_11">
      <!-- 150 -->
      <g transform="translate(27.9125 126.181832)scale(0.1 -0.1)">
       <use xlink:href="#DejaVuSans-49"/>
       <use x="63.623047" xlink:href="#DejaVuSans-53"/>
       <use x="127.246094" xlink:href="#DejaVuSans-48"/>
      </g>
     </g>
    </g>
    <g id="ytick_5">
     <g id="line2d_12">
      <g>
       <use style="stroke:#000000;stroke-width:0.8;" x="54" xlink:href="#m85714812fd" y="82.617829"/>
      </g>
     </g>
     <g id="text_12">
      <!-- 200 -->
      <g transform="translate(27.9125 86.417048)scale(0.1 -0.1)">
       <use xlink:href="#DejaVuSans-50"/>
       <use x="63.623047" xlink:href="#DejaVuSans-48"/>
       <use x="127.246094" xlink:href="#DejaVuSans-48"/>
      </g>
     </g>
    </g>
    <g id="ytick_6">
     <g id="line2d_13">
      <g>
       <use style="stroke:#000000;stroke-width:0.8;" x="54" xlink:href="#m85714812fd" y="42.853045"/>
      </g>
     </g>
     <g id="text_13">
      <!-- 250 -->
      <g transform="translate(27.9125 46.652264)scale(0.1 -0.1)">
       <use xlink:href="#DejaVuSans-50"/>
       <use x="63.623047" xlink:href="#DejaVuSans-53"/>
       <use x="127.246094" xlink:href="#DejaVuSans-48"/>
      </g>
     </g>
    </g>
   </g>
   <g id="line2d_14">
    <path clip-path="url(#pe69850a325)" d="M 69.218182 207.479252 
L 69.452668 211.455731 
L 69.687155 233.72401 
L 69.921642 237.700488 
L 70.156128 220.203983 
L 70.390615 238.495784 
L 70.625102 221.794575 
L 70.859588 224.180462 
L 71.094075 215.432209 
L 71.328561 229.747532 
L 71.563048 201.116887 
L 71.797535 220.999279 
L 72.032021 222.58987 
L 72.266508 238.495784 
L 72.500995 221.794575 
L 72.735481 239.29108 
L 72.969968 222.58987 
L 73.438941 240.881671 
L 73.673428 240.881671 
L 73.907914 222.58987 
L 74.142401 178.848608 
L 74.376888 240.086375 
L 74.611374 232.928714 
L 74.845861 229.747532 
L 75.314834 241.676967 
L 75.549321 236.905193 
L 76.018294 241.676967 
L 76.487267 193.16393 
L 76.721754 236.905193 
L 76.95624 236.109897 
L 77.190727 215.432209 
L 77.425214 182.02979 
L 77.6597 240.881671 
L 77.894187 240.881671 
L 78.128673 227.361644 
L 78.36316 232.928714 
L 78.597647 189.187451 
L 78.832133 228.15694 
L 79.06662 228.15694 
L 79.301107 241.676967 
L 79.535593 239.29108 
L 79.77008 217.818096 
L 80.004566 240.086375 
L 80.239053 238.495784 
L 80.47354 237.700488 
L 80.708026 241.676967 
L 80.942513 222.58987 
L 81.177 241.676967 
L 81.411486 240.086375 
L 81.645973 239.29108 
L 81.880459 193.16393 
L 82.114946 226.566349 
L 82.583919 237.700488 
L 82.818406 238.495784 
L 83.052893 228.15694 
L 83.287379 233.72401 
L 83.521866 225.771053 
L 83.756352 237.700488 
L 83.990839 213.046322 
L 84.225326 201.116887 
L 84.459812 227.361644 
L 84.694299 240.086375 
L 84.928786 236.905193 
L 85.163272 217.818096 
L 85.397759 232.928714 
L 85.632245 194.754521 
L 85.866732 241.676967 
L 86.335705 241.676967 
L 86.570192 222.58987 
L 86.804679 241.676967 
L 87.039165 237.700488 
L 87.273652 241.676967 
L 87.508138 240.086375 
L 87.742625 241.676967 
L 87.977112 241.676967 
L 88.211598 228.15694 
L 88.446085 241.676967 
L 88.680572 240.881671 
L 88.915058 231.338123 
L 89.384031 241.676967 
L 89.618518 234.519306 
L 90.087491 241.676967 
L 90.321978 236.109897 
L 90.556464 241.676967 
L 90.790951 241.676967 
L 91.025438 224.180462 
L 91.259924 224.975757 
L 91.494411 212.251026 
L 91.728898 44.443636 
L 91.963384 241.676967 
L 94.777224 241.676967 
L 95.246197 211.455731 
L 95.480684 234.519306 
L 95.71517 241.676967 
L 95.949657 241.676967 
L 96.184143 209.069844 
L 96.41863 237.700488 
L 96.653117 241.676967 
L 96.887603 241.676967 
L 97.12209 240.881671 
L 97.356577 241.676967 
L 122.681132 241.676967 
L 122.915618 229.747532 
L 123.150105 229.747532 
L 123.384592 238.495784 
L 123.619078 241.676967 
L 130.888164 241.676967 
L 131.12265 213.046322 
L 131.357137 241.676967 
L 131.591623 241.676967 
L 131.82611 232.133419 
L 132.060597 241.676967 
L 132.295083 237.700488 
L 132.52957 228.952236 
L 132.998543 240.881671 
L 133.23303 241.676967 
L 134.405463 241.676967 
L 134.63995 240.086375 
L 134.874436 239.29108 
L 135.108923 241.676967 
L 135.343409 241.676967 
L 135.577896 237.700488 
L 136.046869 211.455731 
L 136.281356 240.881671 
L 136.515843 241.676967 
L 136.750329 237.700488 
L 136.984816 241.676967 
L 137.688276 241.676967 
L 137.922762 240.086375 
L 138.157249 241.676967 
L 139.798655 241.676967 
L 140.033142 237.700488 
L 140.267629 215.432209 
L 140.502115 241.676967 
L 140.736602 238.495784 
L 140.971088 241.676967 
L 141.205575 241.676967 
L 141.440062 236.109897 
L 141.674548 207.479252 
L 141.909035 241.676967 
L 142.143522 207.479252 
L 142.378008 240.086375 
L 142.612495 239.29108 
L 142.846981 197.935704 
L 143.081468 176.46272 
L 143.315955 186.006269 
L 143.550441 240.881671 
L 143.784928 237.700488 
L 144.019414 216.227505 
L 144.253901 211.455731 
L 144.488388 241.676967 
L 144.722874 209.069844 
L 144.957361 236.905193 
L 145.191848 226.566349 
L 145.660821 240.881671 
L 145.895307 241.676967 
L 146.598767 241.676967 
L 146.833254 240.086375 
L 147.067741 226.566349 
L 147.302227 241.676967 
L 147.536714 241.676967 
L 147.7712 200.321591 
L 148.005687 241.676967 
L 148.240174 233.72401 
L 148.47466 241.676967 
L 148.709147 231.338123 
L 148.943634 233.72401 
L 149.17812 209.865139 
L 149.647093 241.676967 
L 150.116067 241.676967 
L 150.350553 228.15694 
L 150.58504 131.926162 
L 151.054013 240.086375 
L 151.2885 188.392156 
L 151.522986 232.133419 
L 151.757473 241.676967 
L 151.99196 241.676967 
L 152.226446 219.408688 
L 152.460933 216.227505 
L 152.69542 225.771053 
L 152.929906 219.408688 
L 153.164393 206.683957 
L 153.398879 219.408688 
L 153.633366 179.643903 
L 153.867853 219.408688 
L 154.102339 240.086375 
L 154.336826 241.676967 
L 154.571313 239.29108 
L 154.805799 224.180462 
L 155.040286 238.495784 
L 155.274772 234.519306 
L 155.509259 241.676967 
L 155.743746 229.747532 
L 155.978232 234.519306 
L 156.212719 234.519306 
L 156.447205 237.700488 
L 156.916179 233.72401 
L 157.150665 178.848608 
L 157.385152 240.881671 
L 157.619639 202.707478 
L 157.854125 241.676967 
L 158.323098 234.519306 
L 158.557585 241.676967 
L 158.792072 219.408688 
L 159.026558 240.086375 
L 159.261045 241.676967 
L 159.495532 236.905193 
L 159.730018 240.881671 
L 159.964505 236.109897 
L 160.198991 240.881671 
L 160.433478 240.086375 
L 160.667965 241.676967 
L 160.902451 234.519306 
L 161.136938 241.676967 
L 161.371425 236.109897 
L 161.605911 241.676967 
L 161.840398 241.676967 
L 162.074884 236.905193 
L 162.543858 220.999279 
L 162.778344 236.109897 
L 163.012831 229.747532 
L 163.247318 208.274548 
L 163.716291 240.086375 
L 164.419751 231.338123 
L 164.654237 166.919172 
L 164.888724 239.29108 
L 165.123211 239.29108 
L 165.592184 232.133419 
L 165.82667 230.542827 
L 166.061157 240.881671 
L 166.295644 236.109897 
L 166.53013 200.321591 
L 166.764617 218.613392 
L 166.999104 188.392156 
L 167.23359 186.801564 
L 167.468077 196.345113 
L 167.93705 226.566349 
L 168.171537 220.999279 
L 168.406023 162.147398 
L 168.64051 201.116887 
L 169.109483 241.676967 
L 169.34397 236.109897 
L 169.578456 241.676967 
L 169.812943 241.676967 
L 170.04743 238.495784 
L 170.281916 233.72401 
L 170.516403 232.133419 
L 170.750889 241.676967 
L 170.985376 240.086375 
L 171.219863 224.180462 
L 171.454349 229.747532 
L 171.688836 166.919172 
L 171.923323 231.338123 
L 172.157809 225.771053 
L 172.392296 240.881671 
L 172.626782 241.676967 
L 172.861269 241.676967 
L 173.095756 238.495784 
L 173.330242 230.542827 
L 173.564729 240.086375 
L 173.799216 241.676967 
L 174.033702 184.415677 
L 174.268189 241.676967 
L 174.502675 189.982747 
L 174.737162 186.006269 
L 175.206135 239.29108 
L 175.440622 182.02979 
L 175.675109 172.486242 
L 175.909595 224.180462 
L 176.144082 217.818096 
L 176.378568 204.29807 
L 176.613055 231.338123 
L 176.847542 241.676967 
L 177.082028 240.881671 
L 177.316515 241.676967 
L 180.364841 241.676967 
L 180.599328 240.881671 
L 180.833814 225.771053 
L 181.302788 241.676967 
L 183.413167 241.676967 
L 183.647654 240.881671 
L 183.88214 241.676967 
L 200.061717 241.676967 
L 200.296204 228.952236 
L 200.530691 241.676967 
L 210.613615 241.676967 
L 210.848102 227.361644 
L 211.082589 236.905193 
L 211.317075 241.676967 
L 211.551562 238.495784 
L 211.786048 241.676967 
L 212.489508 241.676967 
L 212.723995 232.133419 
L 212.958482 241.676967 
L 220.227567 241.676967 
L 220.462054 240.086375 
L 220.69654 241.676967 
L 220.931027 220.999279 
L 221.165513 241.676967 
L 221.4 232.928714 
L 221.634487 197.935704 
L 221.868973 201.912182 
L 222.10346 176.46272 
L 222.337946 193.959226 
L 222.572433 240.881671 
L 222.80692 241.676967 
L 223.041406 232.133419 
L 223.275893 229.747532 
L 223.51038 239.29108 
L 224.213839 241.676967 
L 224.917299 241.676967 
L 225.151786 240.881671 
L 225.386273 180.439199 
L 225.620759 223.385166 
L 225.855246 227.361644 
L 226.089732 209.865139 
L 226.324219 205.093365 
L 226.558706 232.928714 
L 226.793192 241.676967 
L 227.027679 240.881671 
L 227.262166 241.676967 
L 227.731139 241.676967 
L 227.965625 217.818096 
L 228.200112 241.676967 
L 228.434599 231.338123 
L 228.669085 240.881671 
L 228.903572 208.274548 
L 229.372545 241.676967 
L 229.607032 232.133419 
L 229.841518 241.676967 
L 230.076005 230.542827 
L 230.310492 241.676967 
L 230.544978 240.881671 
L 230.779465 191.573339 
L 231.013952 228.15694 
L 231.248438 239.29108 
L 231.717411 193.959226 
L 231.951898 236.905193 
L 232.186385 197.140408 
L 232.420871 232.928714 
L 232.655358 241.676967 
L 233.124331 241.676967 
L 233.358818 237.700488 
L 233.593304 215.432209 
L 234.062278 237.700488 
L 234.296764 217.022801 
L 234.765737 210.660435 
L 235.000224 203.502774 
L 235.234711 213.046322 
L 235.469197 121.587318 
L 235.703684 228.15694 
L 235.938171 184.415677 
L 236.172657 239.29108 
L 236.407144 241.676967 
L 236.876117 241.676967 
L 237.110604 217.022801 
L 237.34509 228.952236 
L 237.579577 231.338123 
L 238.04855 125.563796 
L 238.283037 153.399146 
L 238.517523 206.683957 
L 238.75201 164.533285 
L 239.220983 237.700488 
L 239.45547 223.385166 
L 239.689957 241.676967 
L 239.924443 241.676967 
L 240.15893 210.660435 
L 240.393416 236.109897 
L 240.627903 229.747532 
L 240.86239 229.747532 
L 241.096876 208.274548 
L 241.331363 238.495784 
L 241.56585 240.881671 
L 242.034823 231.338123 
L 242.269309 234.519306 
L 242.503796 241.676967 
L 242.972769 241.676967 
L 243.207256 239.29108 
L 243.441743 241.676967 
L 243.676229 234.519306 
L 243.910716 199.526295 
L 244.145202 184.415677 
L 244.379689 241.676967 
L 244.614176 241.676967 
L 244.848662 236.905193 
L 245.083149 241.676967 
L 245.317636 240.086375 
L 245.552122 219.408688 
L 245.786609 237.700488 
L 246.021095 180.439199 
L 246.255582 167.714468 
L 246.724555 225.771053 
L 246.959042 239.29108 
L 247.428015 218.613392 
L 247.662502 231.338123 
L 247.896988 215.432209 
L 248.131475 238.495784 
L 248.365962 170.100355 
L 248.600448 220.203983 
L 248.834935 241.676967 
L 249.772881 241.676967 
L 250.007368 237.700488 
L 250.241855 222.58987 
L 250.710828 241.676967 
L 250.945314 231.338123 
L 251.179801 189.982747 
L 251.414288 240.086375 
L 251.648774 236.109897 
L 251.883261 224.180462 
L 252.117748 235.314601 
L 252.352234 229.747532 
L 252.586721 194.754521 
L 252.821207 235.314601 
L 253.055694 225.771053 
L 253.290181 209.865139 
L 253.524667 213.841618 
L 253.759154 234.519306 
L 253.993641 238.495784 
L 254.228127 234.519306 
L 254.462614 217.022801 
L 254.6971 127.154388 
L 254.931587 222.58987 
L 255.166074 241.676967 
L 255.40056 237.700488 
L 255.635047 184.415677 
L 255.869534 240.086375 
L 256.10402 229.747532 
L 256.338507 236.109897 
L 256.572993 217.022801 
L 256.80748 235.314601 
L 257.041967 236.905193 
L 257.276453 195.549817 
L 257.51094 79.436647 
L 257.745427 135.107345 
L 257.979913 223.385166 
L 258.2144 180.439199 
L 258.448886 232.133419 
L 258.683373 241.676967 
L 258.91786 241.676967 
L 259.152346 233.72401 
L 259.386833 240.881671 
L 259.62132 195.549817 
L 259.855806 205.888661 
L 260.090293 241.676967 
L 260.324779 240.881671 
L 260.559266 223.385166 
L 260.793753 178.053312 
L 261.028239 234.519306 
L 261.262726 241.676967 
L 261.497212 241.676967 
L 261.966186 234.519306 
L 262.200672 238.495784 
L 262.435159 221.794575 
L 262.669646 220.203983 
L 262.904132 195.549817 
L 263.373105 239.29108 
L 263.607592 241.676967 
L 265.014512 241.676967 
L 265.248998 221.794575 
L 265.483485 240.881671 
L 265.717972 241.676967 
L 265.952458 241.676967 
L 266.186945 240.881671 
L 266.421432 225.771053 
L 266.655918 240.881671 
L 266.890405 240.086375 
L 267.124891 240.881671 
L 267.359378 240.086375 
L 267.593865 241.676967 
L 271.814624 241.676967 
L 272.049111 238.495784 
L 272.283597 241.676967 
L 279.787169 241.676967 
L 280.021656 236.905193 
L 280.256142 241.676967 
L 282.132035 241.676967 
L 282.366522 240.881671 
L 282.601009 241.676967 
L 291.042527 241.676967 
L 291.277014 232.928714 
L 291.5115 241.676967 
L 296.201233 241.676967 
L 296.435719 235.314601 
L 296.670206 241.676967 
L 298.546099 241.676967 
L 298.780586 228.15694 
L 299.015072 241.676967 
L 299.484045 240.086375 
L 299.718532 241.676967 
L 305.346211 241.676967 
L 305.580698 224.180462 
L 305.815184 230.542827 
L 306.049671 211.455731 
L 306.284157 241.676967 
L 307.222104 241.676967 
L 307.456591 220.203983 
L 307.691077 232.928714 
L 307.925564 237.700488 
L 308.16005 228.15694 
L 308.394537 237.700488 
L 308.629024 240.881671 
L 308.86351 241.676967 
L 309.097997 213.841618 
L 309.332484 216.227505 
L 309.56697 109.657883 
L 309.801457 230.542827 
L 310.035943 240.881671 
L 310.27043 189.187451 
L 310.504917 233.72401 
L 310.739403 241.676967 
L 310.97389 236.905193 
L 311.208377 240.086375 
L 311.442863 216.227505 
L 311.67735 214.636913 
L 311.911836 231.338123 
L 312.146323 119.996727 
L 312.615296 241.676967 
L 312.849783 228.952236 
L 313.08427 241.676967 
L 313.318756 125.563796 
L 313.787729 241.676967 
L 314.022216 231.338123 
L 314.256703 154.989737 
L 314.491189 240.086375 
L 314.725676 238.495784 
L 314.960162 227.361644 
L 315.194649 241.676967 
L 315.429136 241.676967 
L 315.663622 216.227505 
L 315.898109 240.881671 
L 316.132596 240.881671 
L 316.367082 240.086375 
L 316.601569 232.133419 
L 316.836055 236.905193 
L 317.070542 236.905193 
L 317.539515 241.676967 
L 318.242975 241.676967 
L 318.477462 236.905193 
L 318.711948 223.385166 
L 318.946435 221.794575 
L 319.180922 203.502774 
L 319.415408 232.928714 
L 319.649895 96.933152 
L 319.884382 147.03678 
L 320.118868 238.495784 
L 320.353355 209.865139 
L 320.587841 203.502774 
L 320.822328 237.700488 
L 321.056815 241.676967 
L 321.291301 218.613392 
L 321.525788 240.086375 
L 321.760275 240.881671 
L 321.994761 183.620382 
L 322.229248 226.566349 
L 322.463734 241.676967 
L 322.698221 237.700488 
L 322.932708 241.676967 
L 323.870654 241.676967 
L 324.105141 239.29108 
L 324.339627 230.542827 
L 324.574114 164.533285 
L 325.043087 228.15694 
L 325.277574 227.361644 
L 325.512061 241.676967 
L 325.746547 241.676967 
L 325.981034 240.881671 
L 326.21552 209.069844 
L 326.450007 239.29108 
L 326.684494 234.519306 
L 326.91898 240.881671 
L 327.153467 239.29108 
L 327.387953 223.385166 
L 327.62244 197.935704 
L 327.856927 188.392156 
L 328.091413 193.16393 
L 328.560387 213.046322 
L 328.794873 241.676967 
L 329.02936 181.234495 
L 329.263846 239.29108 
L 329.498333 217.022801 
L 329.73282 240.086375 
L 329.967306 241.676967 
L 330.201793 240.881671 
L 330.43628 192.368634 
L 330.670766 222.58987 
L 330.905253 212.251026 
L 331.139739 232.928714 
L 331.374226 232.928714 
L 331.608713 208.274548 
L 331.843199 225.771053 
L 332.077686 175.667425 
L 332.312173 236.109897 
L 332.546659 234.519306 
L 332.781146 241.676967 
L 333.015632 224.180462 
L 333.250119 234.519306 
L 333.484606 237.700488 
L 333.719092 239.29108 
L 333.953579 233.72401 
L 334.188066 239.29108 
L 334.422552 232.928714 
L 334.657039 212.251026 
L 334.891525 231.338123 
L 335.126012 240.086375 
L 335.360499 214.636913 
L 335.594985 212.251026 
L 335.829472 228.15694 
L 336.298445 241.676967 
L 336.532932 240.881671 
L 336.767418 241.676967 
L 337.001905 236.905193 
L 337.236392 238.495784 
L 337.470878 241.676967 
L 337.939852 241.676967 
L 338.174338 231.338123 
L 338.408825 172.486242 
L 338.643311 232.133419 
L 338.877798 240.086375 
L 339.112285 218.613392 
L 339.346771 207.479252 
L 339.581258 238.495784 
L 339.815745 235.314601 
L 340.050231 241.676967 
L 340.284718 230.542827 
L 340.519204 240.881671 
L 340.753691 240.086375 
L 340.988178 223.385166 
L 341.222664 241.676967 
L 341.457151 241.676967 
L 341.691637 238.495784 
L 341.926124 222.58987 
L 342.160611 238.495784 
L 342.395097 239.29108 
L 342.629584 241.676967 
L 343.098557 241.676967 
L 343.333044 240.086375 
L 343.56753 241.676967 
L 344.036504 241.676967 
L 344.27099 229.747532 
L 344.505477 157.375624 
L 344.739964 173.281538 
L 345.208937 241.676967 
L 345.443423 226.566349 
L 345.67791 241.676967 
L 345.912397 241.676967 
L 346.146883 232.133419 
L 346.38137 238.495784 
L 346.615857 224.180462 
L 346.850343 241.676967 
L 347.08483 157.375624 
L 347.319316 224.975757 
L 347.78829 238.495784 
L 348.022776 241.676967 
L 348.49175 241.676967 
L 348.726236 213.841618 
L 348.960723 168.509764 
L 349.195209 238.495784 
L 349.664183 206.683957 
L 349.898669 241.676967 
L 350.133156 240.881671 
L 350.367643 227.361644 
L 350.836616 241.676967 
L 351.071102 241.676967 
L 351.305589 232.928714 
L 351.540076 240.086375 
L 351.774562 241.676967 
L 352.243536 241.676967 
L 352.478022 238.495784 
L 352.712509 241.676967 
L 353.181482 241.676967 
L 353.415969 240.881671 
L 353.650455 236.905193 
L 353.884942 236.109897 
L 354.119428 233.72401 
L 354.353915 197.935704 
L 354.588402 222.58987 
L 354.822888 206.683957 
L 355.057375 241.676967 
L 358.105701 241.676967 
L 358.340188 236.109897 
L 358.574674 241.676967 
L 359.981594 241.676967 
L 360.216081 218.613392 
L 360.450567 206.683957 
L 360.685054 215.432209 
L 360.919541 240.086375 
L 361.154027 241.676967 
L 372.409385 241.676967 
L 372.643872 237.700488 
L 372.878358 241.676967 
L 373.581818 241.676967 
L 373.581818 241.676967 
" style="fill:none;stroke:#1f77b4;stroke-linecap:square;stroke-width:1.5;"/>
   </g>
   <g id="line2d_15">
    <path clip-path="url(#pe69850a325)" d="M 69.218182 224.950657 
L 69.452668 222.23347 
L 69.687155 228.718414 
L 69.921642 228.515046 
L 70.156128 221.728138 
L 70.390615 231.017147 
L 70.625102 229.001524 
L 70.859588 232.858082 
L 71.094075 230.029766 
L 71.328561 220.109518 
L 71.563048 228.191528 
L 71.797535 220.372765 
L 72.032021 222.114788 
L 72.266508 222.154659 
L 72.500995 223.528758 
L 72.735481 229.707309 
L 72.969968 230.028242 
L 73.204454 228.467625 
L 73.438941 228.474021 
L 73.673428 226.50083 
L 73.907914 233.77153 
L 74.142401 228.532125 
L 74.376888 215.149725 
L 74.611374 229.902619 
L 74.845861 229.907254 
L 75.080347 228.951354 
L 75.314834 233.642375 
L 75.549321 232.270104 
L 75.783807 233.697738 
L 76.018294 232.042519 
L 76.252781 234.8141 
L 76.721754 220.269151 
L 77.190727 232.531109 
L 77.425214 226.883726 
L 77.6597 218.303508 
L 77.894187 227.047957 
L 78.128673 230.526677 
L 78.36316 229.483323 
L 78.597647 231.869822 
L 78.832133 216.6619 
L 79.06662 224.941417 
L 79.301107 227.71876 
L 79.535593 233.608114 
L 79.77008 233.005886 
L 80.004566 223.852235 
L 80.239053 229.071553 
L 80.47354 229.433209 
L 80.708026 233.050195 
L 80.942513 231.975058 
L 81.177 225.591387 
L 81.411486 229.780974 
L 81.645973 236.802219 
L 81.880459 235.304032 
L 82.114946 223.264681 
L 82.349433 225.021048 
L 82.818406 234.42297 
L 83.052893 236.362535 
L 83.287379 227.596303 
L 83.521866 227.15667 
L 83.756352 229.176205 
L 83.990839 236.28776 
L 84.459812 220.204509 
L 84.928786 231.495301 
L 85.163272 234.180401 
L 85.397759 228.842236 
L 85.632245 227.61323 
L 85.866732 217.824938 
L 86.101219 230.056055 
L 86.335705 234.522088 
L 86.570192 233.704622 
L 86.804679 225.25157 
L 87.039165 233.053213 
L 87.273652 234.368772 
L 87.508138 233.971955 
L 87.742625 233.177596 
L 87.977112 230.798217 
L 88.211598 233.943864 
L 88.446085 232.623424 
L 88.680572 236.920728 
L 89.149545 230.145949 
L 89.384031 236.467251 
L 89.618518 237.136921 
L 89.853005 236.540822 
L 90.087491 234.864332 
L 90.321978 236.138616 
L 90.556464 233.767153 
L 90.790951 238.590843 
L 91.025438 236.937547 
L 91.259924 229.860733 
L 91.494411 229.617142 
L 91.728898 228.827308 
L 91.963384 185.433676 
L 92.197871 221.661896 
L 92.432357 228.540092 
L 92.666844 230.998079 
L 92.901331 237.276408 
L 93.135817 232.426802 
L 93.370304 233.480153 
L 93.604791 231.791923 
L 93.839277 232.575851 
L 94.073764 235.068707 
L 94.30825 232.625862 
L 94.542737 227.970512 
L 94.777224 235.875794 
L 95.246197 227.156122 
L 95.480684 229.532344 
L 95.71517 227.908972 
L 95.949657 236.73916 
L 96.184143 240.586747 
L 96.41863 230.277584 
L 96.653117 228.18517 
L 96.887603 238.32874 
L 97.12209 242.116364 
L 97.356577 237.962883 
L 97.591063 230.887997 
L 97.82555 236.549914 
L 98.060036 230.354317 
L 98.294523 241.404941 
L 98.763496 229.510403 
L 99.23247 240.298405 
L 99.466956 237.705062 
L 99.701443 241.913273 
L 99.935929 237.737381 
L 100.170416 239.014249 
L 100.404903 235.771476 
L 100.639389 237.791043 
L 100.873876 234.268053 
L 101.108363 227.980379 
L 101.342849 239.144036 
L 101.577336 240.270953 
L 101.811822 240.69376 
L 102.046309 238.277477 
L 102.515282 238.73601 
L 102.749769 240.808147 
L 103.218742 238.992837 
L 103.687715 240.486029 
L 103.922202 239.202906 
L 104.156689 239.765317 
L 104.391175 238.379379 
L 105.094635 239.716586 
L 105.329122 239.390756 
L 105.563608 238.416807 
L 105.798095 239.905462 
L 106.032582 240.107595 
L 108.846421 240.116141 
L 122.915618 240.116141 
L 123.150105 237.154689 
L 123.384592 236.212384 
L 123.853565 239.069949 
L 124.088052 239.771399 
L 124.322538 239.832013 
L 125.025998 239.55867 
L 125.494971 239.626777 
L 125.729458 239.292598 
L 126.198431 239.646783 
L 126.432918 239.447883 
L 126.667404 239.614276 
L 126.901891 239.529165 
L 127.136378 239.724456 
L 127.370864 240.204419 
L 127.605351 240.245087 
L 127.839838 239.662075 
L 128.074324 239.690388 
L 128.308811 240.328411 
L 128.543297 240.477152 
L 128.777784 239.867479 
L 129.246757 239.560901 
L 129.71573 240.1995 
L 129.950217 239.604199 
L 130.184704 239.530287 
L 130.41919 240.04932 
L 131.12265 240.192464 
L 131.357137 233.116067 
L 131.591623 237.783461 
L 131.82611 238.760709 
L 132.060597 236.491097 
L 132.295083 238.775735 
L 132.764057 235.910744 
L 133.23303 238.027547 
L 133.467516 238.928147 
L 133.702003 239.116882 
L 133.93649 238.318265 
L 134.170976 239.375422 
L 134.63995 238.251258 
L 134.874436 239.14817 
L 135.108923 237.585679 
L 135.577896 239.82841 
L 135.812383 238.168672 
L 136.281356 230.931909 
L 136.515843 236.928613 
L 136.750329 238.05051 
L 136.984816 237.468476 
L 137.219302 239.579412 
L 137.453789 237.378695 
L 137.688276 239.312453 
L 137.922762 239.080785 
L 138.157249 237.135775 
L 138.391736 238.570937 
L 138.626222 238.393458 
L 138.860709 237.224407 
L 139.095195 239.853887 
L 139.329682 238.621198 
L 139.564169 238.259604 
L 139.798655 238.687608 
L 140.033142 238.706677 
L 140.267629 238.84354 
L 140.502115 231.915964 
L 140.736602 236.870911 
L 140.971088 237.011469 
L 141.440062 240.519013 
L 141.674548 236.766797 
L 141.909035 228.75458 
L 142.143522 235.57677 
L 142.378008 228.883363 
L 142.612495 235.756925 
L 142.846981 236.628185 
L 143.081468 224.355861 
L 143.550441 216.903378 
L 143.784928 229.38434 
L 144.019414 233.906815 
L 144.253901 228.439805 
L 144.488388 226.840064 
L 144.722874 231.858469 
L 144.957361 223.471135 
L 145.191848 228.420597 
L 145.426334 228.854451 
L 145.660821 228.687425 
L 145.895307 233.602184 
L 146.129794 231.427304 
L 146.364281 234.885184 
L 146.598767 232.361939 
L 146.833254 234.295521 
L 147.067741 233.719095 
L 147.302227 231.867801 
L 147.536714 235.875481 
L 147.7712 236.199912 
L 148.005687 222.045378 
L 148.240174 234.538716 
L 148.47466 236.073442 
L 148.709147 236.137152 
L 149.412607 228.289856 
L 149.647093 229.605902 
L 149.88158 233.546524 
L 150.116067 233.776021 
L 150.350553 234.406596 
L 150.58504 231.933656 
L 150.819527 209.45241 
L 151.054013 207.694132 
L 151.2885 226.708538 
L 151.522986 217.168297 
L 151.757473 226.983275 
L 151.99196 229.637869 
L 152.226446 229.813549 
L 152.69542 221.250133 
L 152.929906 226.899704 
L 153.164393 225.467325 
L 153.398879 218.046141 
L 153.633366 222.769687 
L 153.867853 214.519284 
L 154.102339 213.921992 
L 154.336826 229.709974 
L 154.571313 229.013445 
L 154.805799 231.393088 
L 155.040286 230.541946 
L 155.274772 230.706499 
L 155.509259 226.952456 
L 155.743746 232.945927 
L 155.978232 234.140555 
L 156.447205 225.552122 
L 156.681692 232.359487 
L 157.150665 228.763465 
L 157.385152 219.749197 
L 157.619639 223.708747 
L 157.854125 223.636203 
L 158.088612 232.271998 
L 158.323098 231.85784 
L 158.557585 229.387074 
L 158.792072 236.322279 
L 159.026558 231.105035 
L 159.261045 233.187695 
L 159.495532 229.633799 
L 159.730018 229.4961 
L 159.964505 225.03704 
L 160.198991 231.408869 
L 160.433478 233.525589 
L 160.667965 230.042462 
L 160.902451 235.506129 
L 161.136938 233.400323 
L 161.371425 238.169781 
L 161.605911 234.33642 
L 161.840398 235.510127 
L 162.309371 234.406988 
L 162.543858 232.831956 
L 162.778344 229.685172 
L 163.012831 230.595032 
L 163.247318 233.850801 
L 163.481804 225.578576 
L 163.716291 231.907753 
L 164.185264 233.803685 
L 164.419751 235.070925 
L 164.654237 232.597191 
L 164.888724 216.601044 
L 165.123211 230.333503 
L 165.592184 234.630774 
L 166.061157 230.118191 
L 166.295644 232.918931 
L 166.53013 229.861118 
L 166.764617 224.735404 
L 166.999104 225.319101 
L 167.468077 214.464537 
L 167.702563 220.062205 
L 168.171537 223.883691 
L 168.406023 226.472416 
L 168.64051 210.916932 
L 169.109483 221.569792 
L 169.34397 225.799229 
L 169.578456 226.729083 
L 170.04743 232.57651 
L 170.516403 224.890272 
L 170.750889 228.450684 
L 170.985376 229.136224 
L 171.219863 232.037265 
L 171.454349 227.236835 
L 171.688836 226.159561 
L 171.923323 212.489049 
L 172.157809 225.521364 
L 172.392296 224.45473 
L 172.626782 232.481734 
L 172.861269 234.887511 
L 173.095756 235.711917 
L 173.330242 229.664858 
L 173.564729 228.02658 
L 173.799216 232.848021 
L 174.033702 230.739573 
L 174.268189 217.30686 
L 174.502675 227.181129 
L 174.737162 217.767467 
L 174.971649 217.114274 
L 175.206135 220.428379 
L 175.440622 226.835152 
L 175.675109 215.337727 
L 175.909595 210.981644 
L 176.144082 220.48585 
L 176.378568 220.01434 
L 176.613055 216.034825 
L 177.082028 229.601461 
L 177.316515 227.887925 
L 177.551002 224.591947 
L 177.785488 227.864259 
L 178.019975 225.210087 
L 178.254461 230.767119 
L 178.723435 231.419514 
L 178.957921 231.142439 
L 179.192408 235.540968 
L 179.426895 234.119579 
L 179.661381 234.845919 
L 179.895868 236.457964 
L 180.130354 241.407151 
L 180.364841 231.69967 
L 180.599328 235.20955 
L 180.833814 235.659266 
L 181.068301 229.681071 
L 181.302788 233.00275 
L 181.537274 234.604717 
L 181.771761 234.148779 
L 182.006247 238.265833 
L 182.240734 238.274047 
L 182.709707 234.243612 
L 182.944194 239.427807 
L 183.413167 234.236336 
L 183.647654 237.274089 
L 183.88214 235.871927 
L 184.116627 235.989286 
L 184.5856 237.5443 
L 184.820087 234.886642 
L 185.054573 235.340286 
L 185.28906 238.407804 
L 185.523547 238.060617 
L 185.758033 237.375506 
L 186.227007 240.508382 
L 186.461493 240.306126 
L 186.69598 239.637831 
L 186.930466 239.732778 
L 187.164953 239.529752 
L 187.39944 240.168616 
L 187.633926 240.147334 
L 187.868413 239.384327 
L 188.1029 239.684506 
L 188.337386 240.231132 
L 188.571873 240.009617 
L 188.806359 240.271322 
L 189.040846 240.178988 
L 189.275333 240.23042 
L 189.744306 239.789312 
L 189.978793 239.624812 
L 190.213279 239.159345 
L 190.682252 240.082382 
L 191.620199 240.129025 
L 193.027119 240.076487 
L 193.730579 240.116141 
L 200.296204 240.116141 
L 200.530691 236.957259 
L 200.765177 239.111016 
L 200.999664 239.637246 
L 201.23415 239.747131 
L 201.468637 240.245131 
L 201.703124 239.782484 
L 201.93761 239.984124 
L 202.172097 239.798553 
L 202.64107 239.91258 
L 202.875557 239.862206 
L 203.110043 239.545913 
L 203.34453 240.028133 
L 203.813503 239.687381 
L 204.04799 240.079067 
L 204.282477 239.641444 
L 204.516963 240.182927 
L 204.75145 240.270105 
L 204.985936 240.08191 
L 205.220423 239.624978 
L 205.689396 240.427384 
L 205.923883 240.177668 
L 206.15837 239.706377 
L 206.392856 240.069676 
L 206.627343 239.679621 
L 206.861829 240.404198 
L 207.330803 239.575989 
L 207.565289 240.053445 
L 207.799776 240.251601 
L 208.034263 239.97067 
L 208.268749 240.322285 
L 208.503236 240.030201 
L 208.737722 240.261681 
L 208.972209 239.917628 
L 209.206696 239.979398 
L 209.441182 239.851836 
L 209.675669 239.481669 
L 209.910155 240.116141 
L 210.848102 240.116141 
L 211.082589 236.562399 
L 211.551562 239.200462 
L 211.786048 238.731699 
L 212.020535 239.871595 
L 212.255022 239.669424 
L 212.723995 239.741596 
L 212.958482 237.272396 
L 213.192968 239.009595 
L 213.427455 239.31556 
L 213.661941 239.042191 
L 213.896428 239.849149 
L 214.365401 239.294499 
L 214.599888 239.653455 
L 214.834375 239.321677 
L 215.303348 240.114675 
L 215.537834 239.589023 
L 215.772321 239.501436 
L 216.241294 240.153469 
L 216.475781 240.151479 
L 216.710268 239.333744 
L 216.944754 240.038106 
L 217.179241 239.738486 
L 217.413727 240.148395 
L 217.882701 239.402931 
L 218.117187 240.148497 
L 218.351674 240.270485 
L 218.586161 239.560922 
L 218.820647 240.242978 
L 219.055134 239.803237 
L 219.28962 240.42732 
L 219.758594 239.461264 
L 219.99308 239.756883 
L 220.227567 239.355213 
L 220.462054 239.734925 
L 220.69654 239.809812 
L 220.931027 239.767427 
L 221.165513 235.032251 
L 221.4 238.287801 
L 221.634487 237.079771 
L 221.868973 227.726884 
L 222.10346 226.177528 
L 222.337946 218.304065 
L 222.572433 220.197969 
L 222.80692 232.214484 
L 223.041406 235.106934 
L 223.275893 234.877439 
L 223.51038 233.057324 
L 223.744866 233.379693 
L 223.979353 234.836851 
L 224.213839 234.686279 
L 224.448326 234.254655 
L 224.682813 235.257027 
L 224.917299 233.579607 
L 225.386273 236.13639 
L 225.620759 219.444975 
L 226.089732 230.29948 
L 226.324219 227.242821 
L 226.558706 226.723128 
L 227.027679 234.207798 
L 227.262166 234.845896 
L 227.496652 238.502166 
L 227.731139 236.857417 
L 228.200112 226.518472 
L 228.434599 233.486171 
L 228.669085 230.922102 
L 228.903572 232.510916 
L 229.138059 225.026336 
L 229.372545 226.749952 
L 229.607032 235.413018 
L 229.841518 234.202113 
L 230.076005 236.956782 
L 230.310492 230.532407 
L 230.544978 236.421585 
L 230.779465 236.481603 
L 231.013952 220.784235 
L 231.248438 224.441799 
L 231.482925 229.854032 
L 231.717411 224.986934 
L 231.951898 223.391302 
L 232.186385 229.67593 
L 232.420871 218.491534 
L 232.655358 228.415255 
L 232.889845 233.368996 
L 233.124331 233.196529 
L 233.358818 237.215687 
L 233.827791 229.075966 
L 234.062278 229.70029 
L 234.296764 231.020622 
L 234.531251 227.783855 
L 234.765737 221.558429 
L 235.000224 220.692456 
L 235.234711 220.702469 
L 235.469197 222.703207 
L 235.703684 196.884507 
L 235.938171 221.102322 
L 236.172657 216.39691 
L 236.407144 226.897881 
L 236.64163 231.383617 
L 236.876117 231.780215 
L 237.110604 230.970059 
L 237.34509 224.257226 
L 237.579577 226.347047 
L 237.814064 223.544456 
L 238.283037 193.930924 
L 238.517523 195.099446 
L 238.75201 209.115729 
L 238.986497 204.894961 
L 239.220983 216.346265 
L 239.45547 219.524194 
L 239.689957 225.303802 
L 240.15893 227.968469 
L 240.393416 217.606021 
L 240.627903 222.150088 
L 240.86239 219.638349 
L 241.096876 221.061925 
L 241.331363 214.969804 
L 241.56585 220.213977 
L 241.800336 221.687045 
L 242.034823 228.417432 
L 242.269309 226.026898 
L 242.503796 230.340963 
L 242.738283 230.586296 
L 242.972769 228.104778 
L 243.441743 238.780599 
L 243.676229 231.086405 
L 243.910716 231.321539 
L 244.145202 216.988906 
L 244.379689 213.225457 
L 244.614176 223.590693 
L 245.083149 225.288826 
L 245.552122 236.276088 
L 245.786609 228.1487 
L 246.021095 231.741311 
L 246.490069 210.720362 
L 246.724555 216.10143 
L 246.959042 218.348927 
L 247.193529 224.250128 
L 247.428015 221.033579 
L 247.662502 221.586399 
L 247.896988 224.799274 
L 248.131475 218.937304 
L 248.365962 229.658525 
L 248.600448 217.077577 
L 248.834935 218.186511 
L 249.069421 227.015027 
L 249.303908 231.357953 
L 249.538395 233.179398 
L 249.772881 230.792673 
L 250.007368 229.549333 
L 250.241855 229.373976 
L 250.476341 227.395863 
L 250.710828 233.135824 
L 250.945314 231.403948 
L 251.414288 221.913493 
L 251.648774 234.152647 
L 251.883261 230.734019 
L 252.117748 230.93565 
L 252.352234 229.429752 
L 252.586721 230.326615 
L 252.821207 223.854474 
L 253.055694 227.354661 
L 253.290181 221.526082 
L 253.524667 221.851447 
L 253.993641 230.996126 
L 254.228127 230.438676 
L 254.462614 232.011276 
L 254.6971 224.842928 
L 254.931587 202.907974 
L 255.166074 215.883299 
L 255.635047 227.187488 
L 255.869534 219.53959 
L 256.10402 223.229066 
L 256.338507 230.057378 
L 256.572993 227.807091 
L 257.041967 226.474734 
L 257.276453 227.497869 
L 257.51094 213.350858 
L 257.745427 189.251319 
L 257.979913 192.133466 
L 258.2144 209.324748 
L 258.448886 207.546984 
L 258.683373 224.102528 
L 259.152346 230.724229 
L 259.62132 219.82025 
L 259.855806 219.036668 
L 260.090293 219.413581 
L 260.324779 220.214922 
L 260.559266 218.201258 
L 260.793753 224.606611 
L 261.028239 208.184105 
L 261.262726 223.887708 
L 261.497212 222.269216 
L 261.731699 224.31373 
L 261.966186 232.697315 
L 262.200672 232.373388 
L 262.435159 223.98298 
L 262.669646 225.268014 
L 262.904132 230.666004 
L 263.138619 222.171388 
L 263.373105 218.849887 
L 263.607592 224.359828 
L 263.842079 225.415448 
L 264.311052 232.134893 
L 264.545539 225.31638 
L 264.780025 228.584176 
L 265.014512 235.945674 
L 265.248998 235.64942 
L 265.483485 229.681994 
L 266.186945 237.165615 
L 266.421432 233.100144 
L 266.655918 223.251327 
L 266.890405 222.384269 
L 267.359378 237.430421 
L 267.593865 234.869834 
L 267.828351 234.467768 
L 268.062838 238.473599 
L 268.297325 239.806475 
L 268.531811 237.481621 
L 269.000784 235.036595 
L 269.235271 235.658625 
L 269.469758 238.24258 
L 269.704244 237.732607 
L 269.938731 235.259291 
L 270.173218 234.810317 
L 270.407704 239.498955 
L 270.642191 240.364449 
L 270.876677 240.738671 
L 271.111164 238.914608 
L 271.345651 238.834507 
L 271.580137 238.171552 
L 271.814624 238.686889 
L 272.049111 237.775303 
L 272.283597 235.224334 
L 272.518084 238.653811 
L 272.987057 240.108945 
L 273.221544 240.233532 
L 273.45603 239.229966 
L 273.690517 240.154605 
L 274.15949 239.617185 
L 274.393977 239.832439 
L 274.628463 238.941776 
L 274.86295 240.131685 
L 275.097437 239.830505 
L 275.331923 239.889731 
L 275.800896 239.285956 
L 276.035383 239.891414 
L 276.504356 240.08194 
L 276.97333 239.99335 
L 277.442303 240.193952 
L 278.380249 240.007011 
L 278.614736 240.188155 
L 279.083709 239.981103 
L 279.552682 240.150006 
L 279.787169 240.079773 
L 280.021656 240.167677 
L 280.256142 238.910075 
L 280.490629 239.775604 
L 281.194089 240.098436 
L 281.428575 239.832402 
L 281.663062 240.066635 
L 282.132035 240.02545 
L 282.366522 240.039806 
L 282.601009 239.823485 
L 282.835495 239.839485 
L 283.069982 240.053207 
L 283.538955 239.963418 
L 283.773442 240.081385 
L 284.007928 239.929879 
L 284.242415 240.121337 
L 284.711388 240.090582 
L 284.945875 239.916084 
L 285.414848 240.227357 
L 285.883821 239.935682 
L 286.118308 240.0964 
L 286.352795 239.922778 
L 286.587281 240.228337 
L 287.056254 239.911445 
L 287.525228 240.169823 
L 287.759714 240.081042 
L 287.994201 240.19729 
L 288.228687 240.058303 
L 288.463174 240.167815 
L 288.697661 240.014416 
L 288.932147 240.082866 
L 289.401121 239.844455 
L 289.635607 240.112223 
L 291.277014 240.107595 
L 291.5115 237.927891 
L 291.745987 239.385463 
L 291.980473 239.786901 
L 292.21496 239.862447 
L 292.449447 240.204822 
L 292.683933 239.886752 
L 292.91842 240.02538 
L 293.152907 239.897799 
L 293.856366 239.941561 
L 294.090853 239.72411 
L 294.32534 240.055636 
L 294.794313 239.821369 
L 295.0288 240.090653 
L 295.263286 239.789787 
L 295.497773 240.162056 
L 295.732259 240.221991 
L 295.966746 240.092608 
L 296.201233 239.778466 
L 296.435719 240.147873 
L 296.670206 238.75068 
L 296.904693 239.655878 
L 297.139179 239.59498 
L 297.373666 239.899692 
L 297.608152 239.880529 
L 297.842639 240.147351 
L 298.077126 239.993253 
L 298.311612 239.585993 
L 298.546099 239.952116 
L 298.780586 240.107489 
L 299.015072 236.53285 
L 299.249559 238.904805 
L 299.484045 239.306797 
L 299.718532 239.236156 
L 299.953019 239.746763 
L 300.421992 239.518751 
L 300.656478 239.371167 
L 300.890965 239.886206 
L 301.125452 239.84639 
L 301.359938 239.545939 
L 301.594425 239.490398 
L 301.828912 240.136938 
L 302.297885 239.378922 
L 302.532371 240.02623 
L 302.766858 239.334145 
L 303.001345 240.275217 
L 303.235831 240.204057 
L 303.470318 239.754532 
L 303.704805 239.580903 
L 303.939291 240.250017 
L 304.173778 240.339124 
L 304.408264 240.226075 
L 304.642751 239.663018 
L 304.877238 240.182293 
L 305.111724 239.535163 
L 305.346211 240.299705 
L 305.580698 239.862993 
L 305.815184 234.844969 
L 306.049671 235.934294 
L 306.284157 231.175656 
L 306.518644 236.576545 
L 306.753131 239.052899 
L 306.987617 238.810358 
L 307.222104 240.098355 
L 307.456591 238.580983 
L 307.691077 233.714628 
L 308.16005 235.820688 
L 308.394537 233.970455 
L 308.629024 236.579616 
L 308.86351 236.637196 
L 309.097997 238.073162 
L 309.332484 231.421914 
L 309.56697 228.891238 
L 309.801457 203.027827 
L 310.035943 223.258087 
L 310.27043 232.296191 
L 310.504917 221.032277 
L 310.739403 232.550483 
L 310.97389 230.855544 
L 311.208377 234.032526 
L 311.442863 234.214566 
L 311.67735 227.395525 
L 311.911836 224.69692 
L 312.146323 228.334741 
L 312.38081 197.352431 
L 312.849783 225.233669 
L 313.08427 220.777073 
L 313.318756 234.318152 
L 313.553243 201.583147 
L 314.022216 227.789472 
L 314.256703 222.805848 
L 314.491189 206.954618 
L 314.725676 225.268603 
L 314.960162 225.7637 
L 315.194649 221.801483 
L 315.663622 227.986198 
L 315.898109 223.169385 
L 316.132596 224.292736 
L 316.367082 228.489324 
L 316.601569 227.355954 
L 316.836055 228.608688 
L 317.070542 227.78379 
L 317.305029 226.177873 
L 317.539515 237.418588 
L 317.774002 236.699089 
L 318.008489 234.606612 
L 318.242975 227.225248 
L 318.477462 228.155463 
L 318.711948 237.687624 
L 319.180922 218.20841 
L 319.649895 228.39398 
L 319.884382 200.140253 
L 320.118868 201.784386 
L 320.353355 219.027579 
L 320.587841 215.480422 
L 320.822328 224.389043 
L 321.291301 225.417596 
L 321.525788 218.173083 
L 321.760275 228.7509 
L 321.994761 227.079868 
L 322.229248 216.709704 
L 322.463734 216.587942 
L 322.698221 220.019919 
L 322.932708 226.337762 
L 323.401681 229.606981 
L 323.636168 226.85351 
L 324.105141 236.852345 
L 324.339627 236.317943 
L 324.574114 228.380053 
L 324.808601 212.482636 
L 325.043087 223.570579 
L 325.277574 229.014756 
L 325.512061 222.50804 
L 325.746547 233.801761 
L 325.981034 229.152234 
L 326.21552 233.474521 
L 326.684494 226.37061 
L 326.91898 226.542931 
L 327.153467 235.95993 
L 327.62244 230.127145 
L 328.091413 215.848843 
L 328.3259 212.627943 
L 328.560387 215.385477 
L 328.794873 220.14965 
L 329.02936 220.791507 
L 329.263846 213.846642 
L 329.498333 226.27981 
L 329.73282 222.961845 
L 329.967306 230.911597 
L 330.201793 233.343901 
L 330.43628 230.218622 
L 330.670766 218.884869 
L 330.905253 220.054565 
L 331.139739 219.829713 
L 331.608713 226.062564 
L 331.843199 220.52073 
L 332.077686 227.764643 
L 332.312173 213.943087 
L 332.781146 232.131998 
L 333.015632 231.073811 
L 333.250119 229.456621 
L 333.484606 228.680924 
L 333.719092 229.419026 
L 333.953579 223.419689 
L 334.188066 229.468942 
L 334.422552 228.755236 
L 334.657039 231.155949 
L 334.891525 221.876875 
L 335.126012 229.779018 
L 335.594985 225.738807 
L 335.829472 227.373391 
L 336.063959 228.087903 
L 336.298445 231.788992 
L 336.532932 233.623783 
L 336.767418 230.269225 
L 337.001905 232.669758 
L 337.236392 230.197842 
L 337.705365 232.305516 
L 337.939852 230.736779 
L 338.174338 233.672419 
L 338.408825 229.892448 
L 338.643311 218.313758 
L 338.877798 227.139422 
L 339.112285 231.328091 
L 339.346771 228.050175 
L 339.581258 226.570749 
L 339.815745 229.216427 
L 340.050231 234.389114 
L 340.284718 232.588474 
L 340.519204 232.576319 
L 340.753691 233.034082 
L 340.988178 232.946489 
L 341.222664 227.50276 
L 341.457151 232.03929 
L 341.691637 232.57065 
L 341.926124 232.317168 
L 342.395097 231.062862 
L 342.864071 237.068285 
L 343.098557 236.841649 
L 343.333044 234.224967 
L 343.56753 238.596668 
L 343.802017 239.075003 
L 344.27099 234.021699 
L 344.505477 234.571086 
L 344.739964 213.485262 
L 344.97445 213.837 
L 345.67791 232.116127 
L 345.912397 235.885776 
L 346.38137 233.27943 
L 346.615857 233.962924 
L 346.850343 230.462172 
L 347.08483 233.071298 
L 347.319316 211.100644 
L 347.553803 222.182144 
L 348.022776 227.588239 
L 348.257263 233.683918 
L 348.49175 231.147582 
L 348.726236 233.739885 
L 348.960723 228.805268 
L 349.195209 216.428697 
L 349.429696 225.947565 
L 349.898669 224.488614 
L 350.133156 235.17054 
L 350.602129 227.209411 
L 350.836616 230.397073 
L 351.071102 231.151546 
L 351.305589 234.4003 
L 351.540076 230.483065 
L 351.774562 230.257835 
L 352.009049 233.659383 
L 352.243536 234.582106 
L 352.712509 237.693168 
L 352.946995 233.218498 
L 353.181482 236.586886 
L 353.415969 234.204618 
L 353.650455 233.923987 
L 353.884942 229.304786 
L 354.119428 231.282737 
L 354.353915 234.882579 
L 354.588402 226.658683 
L 355.057375 228.758734 
L 355.291862 230.908252 
L 355.526348 238.49739 
L 355.760835 234.142857 
L 355.995321 233.250024 
L 356.229808 235.172311 
L 356.464295 232.19261 
L 356.698781 234.474311 
L 356.933268 238.515888 
L 357.167755 236.443944 
L 357.402241 237.341132 
L 357.636728 235.487146 
L 357.871214 236.745552 
L 358.105701 235.443492 
L 358.340188 232.503035 
L 358.574674 236.949342 
L 358.809161 237.09327 
L 359.278134 238.646507 
L 359.512621 239.000053 
L 359.747107 238.817298 
L 359.981594 240.079549 
L 360.216081 239.244478 
L 360.685054 226.26792 
L 361.388514 236.938798 
L 361.623 237.70477 
L 361.857487 237.695335 
L 362.091974 238.15333 
L 362.32646 239.072659 
L 362.560947 237.989871 
L 362.795434 239.24056 
L 363.02992 236.779788 
L 363.264407 236.814067 
L 363.73338 235.552294 
L 363.967867 236.669778 
L 364.202353 236.312837 
L 364.43684 238.781384 
L 364.671327 239.404186 
L 364.905813 240.681931 
L 365.374786 238.561424 
L 365.84376 241.176639 
L 366.547219 238.322122 
L 366.781706 239.354432 
L 367.016193 239.76536 
L 367.250679 239.389322 
L 367.485166 238.26682 
L 367.719653 238.787262 
L 367.954139 240.02816 
L 368.188626 240.361279 
L 368.423112 240.244166 
L 368.657599 240.550583 
L 369.361059 238.869804 
L 369.595546 237.932475 
L 369.830032 237.809121 
L 370.299005 240.036832 
L 370.767979 240.116141 
L 372.643872 240.116141 
L 372.878358 239.128991 
L 373.112845 239.80204 
L 373.581818 240.000826 
L 373.581818 240.000826 
" style="fill:none;stroke:#ff7f0e;stroke-linecap:square;stroke-width:1.5;"/>
   </g>
   <g id="patch_3">
    <path d="M 54 252 
L 54 34.56 
" style="fill:none;stroke:#000000;stroke-linecap:square;stroke-linejoin:miter;stroke-width:0.8;"/>
   </g>
   <g id="patch_4">
    <path d="M 388.8 252 
L 388.8 34.56 
" style="fill:none;stroke:#000000;stroke-linecap:square;stroke-linejoin:miter;stroke-width:0.8;"/>
   </g>
   <g id="patch_5">
    <path d="M 54 252 
L 388.8 252 
" style="fill:none;stroke:#000000;stroke-linecap:square;stroke-linejoin:miter;stroke-width:0.8;"/>
   </g>
   <g id="patch_6">
    <path d="M 54 34.56 
L 388.8 34.56 
" style="fill:none;stroke:#000000;stroke-linecap:square;stroke-linejoin:miter;stroke-width:0.8;"/>
   </g>
   <g id="legend_1">
    <g id="patch_7">
     <path d="M 271.970312 71.91625 
L 381.8 71.91625 
Q 383.8 71.91625 383.8 69.91625 
L 383.8 41.56 
Q 383.8 39.56 381.8 39.56 
L 271.970312 39.56 
Q 269.970312 39.56 269.970312 41.56 
L 269.970312 69.91625 
Q 269.970312 71.91625 271.970312 71.91625 
z
" style="fill:#ffffff;opacity:0.8;stroke:#cccccc;stroke-linejoin:miter;"/>
    </g>
    <g id="line2d_16">
     <path d="M 273.970312 47.658437 
L 293.970312 47.658437 
" style="fill:none;stroke:#1f77b4;stroke-linecap:square;stroke-width:1.5;"/>
    </g>
    <g id="line2d_17"/>
    <g id="text_14">
     <!-- True value -->
     <defs>
      <path d="M -0.296875 72.90625 
L 61.375 72.90625 
L 61.375 64.59375 
L 35.5 64.59375 
L 35.5 0 
L 25.59375 0 
L 25.59375 64.59375 
L -0.296875 64.59375 
z
" id="DejaVuSans-84"/>
      <path d="M 41.109375 46.296875 
Q 39.59375 47.171875 37.8125 47.578125 
Q 36.03125 48 33.890625 48 
Q 26.265625 48 22.1875 43.046875 
Q 18.109375 38.09375 18.109375 28.8125 
L 18.109375 0 
L 9.078125 0 
L 9.078125 54.6875 
L 18.109375 54.6875 
L 18.109375 46.1875 
Q 20.953125 51.171875 25.484375 53.578125 
Q 30.03125 56 36.53125 56 
Q 37.453125 56 38.578125 55.875 
Q 39.703125 55.765625 41.0625 55.515625 
z
" id="DejaVuSans-114"/>
      <path d="M 8.5 21.578125 
L 8.5 54.6875 
L 17.484375 54.6875 
L 17.484375 21.921875 
Q 17.484375 14.15625 20.5 10.265625 
Q 23.53125 6.390625 29.59375 6.390625 
Q 36.859375 6.390625 41.078125 11.03125 
Q 45.3125 15.671875 45.3125 23.6875 
L 45.3125 54.6875 
L 54.296875 54.6875 
L 54.296875 0 
L 45.3125 0 
L 45.3125 8.40625 
Q 42.046875 3.421875 37.71875 1 
Q 33.40625 -1.421875 27.6875 -1.421875 
Q 18.265625 -1.421875 13.375 4.4375 
Q 8.5 10.296875 8.5 21.578125 
z
M 31.109375 56 
z
" id="DejaVuSans-117"/>
      <path d="M 56.203125 29.59375 
L 56.203125 25.203125 
L 14.890625 25.203125 
Q 15.484375 15.921875 20.484375 11.0625 
Q 25.484375 6.203125 34.421875 6.203125 
Q 39.59375 6.203125 44.453125 7.46875 
Q 49.3125 8.734375 54.109375 11.28125 
L 54.109375 2.78125 
Q 49.265625 0.734375 44.1875 -0.34375 
Q 39.109375 -1.421875 33.890625 -1.421875 
Q 20.796875 -1.421875 13.15625 6.1875 
Q 5.515625 13.8125 5.515625 26.8125 
Q 5.515625 40.234375 12.765625 48.109375 
Q 20.015625 56 32.328125 56 
Q 43.359375 56 49.78125 48.890625 
Q 56.203125 41.796875 56.203125 29.59375 
z
M 47.21875 32.234375 
Q 47.125 39.59375 43.09375 43.984375 
Q 39.0625 48.390625 32.421875 48.390625 
Q 24.90625 48.390625 20.390625 44.140625 
Q 15.875 39.890625 15.1875 32.171875 
z
" id="DejaVuSans-101"/>
      <path id="DejaVuSans-32"/>
      <path d="M 2.984375 54.6875 
L 12.5 54.6875 
L 29.59375 8.796875 
L 46.6875 54.6875 
L 56.203125 54.6875 
L 35.6875 0 
L 23.484375 0 
z
" id="DejaVuSans-118"/>
      <path d="M 34.28125 27.484375 
Q 23.390625 27.484375 19.1875 25 
Q 14.984375 22.515625 14.984375 16.5 
Q 14.984375 11.71875 18.140625 8.90625 
Q 21.296875 6.109375 26.703125 6.109375 
Q 34.1875 6.109375 38.703125 11.40625 
Q 43.21875 16.703125 43.21875 25.484375 
L 43.21875 27.484375 
z
M 52.203125 31.203125 
L 52.203125 0 
L 43.21875 0 
L 43.21875 8.296875 
Q 40.140625 3.328125 35.546875 0.953125 
Q 30.953125 -1.421875 24.3125 -1.421875 
Q 15.921875 -1.421875 10.953125 3.296875 
Q 6 8.015625 6 15.921875 
Q 6 25.140625 12.171875 29.828125 
Q 18.359375 34.515625 30.609375 34.515625 
L 43.21875 34.515625 
L 43.21875 35.40625 
Q 43.21875 41.609375 39.140625 45 
Q 35.0625 48.390625 27.6875 48.390625 
Q 23 48.390625 18.546875 47.265625 
Q 14.109375 46.140625 10.015625 43.890625 
L 10.015625 52.203125 
Q 14.9375 54.109375 19.578125 55.046875 
Q 24.21875 56 28.609375 56 
Q 40.484375 56 46.34375 49.84375 
Q 52.203125 43.703125 52.203125 31.203125 
z
" id="DejaVuSans-97"/>
      <path d="M 9.421875 75.984375 
L 18.40625 75.984375 
L 18.40625 0 
L 9.421875 0 
z
" id="DejaVuSans-108"/>
     </defs>
     <g transform="translate(301.970312 51.158437)scale(0.1 -0.1)">
      <use xlink:href="#DejaVuSans-84"/>
      <use x="60.865234" xlink:href="#DejaVuSans-114"/>
      <use x="101.978516" xlink:href="#DejaVuSans-117"/>
      <use x="165.357422" xlink:href="#DejaVuSans-101"/>
      <use x="226.880859" xlink:href="#DejaVuSans-32"/>
      <use x="258.667969" xlink:href="#DejaVuSans-118"/>
      <use x="317.847656" xlink:href="#DejaVuSans-97"/>
      <use x="379.126953" xlink:href="#DejaVuSans-108"/>
      <use x="406.910156" xlink:href="#DejaVuSans-117"/>
      <use x="470.289062" xlink:href="#DejaVuSans-101"/>
     </g>
    </g>
    <g id="line2d_18">
     <path d="M 273.970312 62.336562 
L 293.970312 62.336562 
" style="fill:none;stroke:#ff7f0e;stroke-linecap:square;stroke-width:1.5;"/>
    </g>
    <g id="line2d_19"/>
    <g id="text_15">
     <!-- Predicted value -->
     <defs>
      <path d="M 19.671875 64.796875 
L 19.671875 37.40625 
L 32.078125 37.40625 
Q 38.96875 37.40625 42.71875 40.96875 
Q 46.484375 44.53125 46.484375 51.125 
Q 46.484375 57.671875 42.71875 61.234375 
Q 38.96875 64.796875 32.078125 64.796875 
z
M 9.8125 72.90625 
L 32.078125 72.90625 
Q 44.34375 72.90625 50.609375 67.359375 
Q 56.890625 61.8125 56.890625 51.125 
Q 56.890625 40.328125 50.609375 34.8125 
Q 44.34375 29.296875 32.078125 29.296875 
L 19.671875 29.296875 
L 19.671875 0 
L 9.8125 0 
z
" id="DejaVuSans-80"/>
      <path d="M 45.40625 46.390625 
L 45.40625 75.984375 
L 54.390625 75.984375 
L 54.390625 0 
L 45.40625 0 
L 45.40625 8.203125 
Q 42.578125 3.328125 38.25 0.953125 
Q 33.9375 -1.421875 27.875 -1.421875 
Q 17.96875 -1.421875 11.734375 6.484375 
Q 5.515625 14.40625 5.515625 27.296875 
Q 5.515625 40.1875 11.734375 48.09375 
Q 17.96875 56 27.875 56 
Q 33.9375 56 38.25 53.625 
Q 42.578125 51.265625 45.40625 46.390625 
z
M 14.796875 27.296875 
Q 14.796875 17.390625 18.875 11.75 
Q 22.953125 6.109375 30.078125 6.109375 
Q 37.203125 6.109375 41.296875 11.75 
Q 45.40625 17.390625 45.40625 27.296875 
Q 45.40625 37.203125 41.296875 42.84375 
Q 37.203125 48.484375 30.078125 48.484375 
Q 22.953125 48.484375 18.875 42.84375 
Q 14.796875 37.203125 14.796875 27.296875 
z
" id="DejaVuSans-100"/>
      <path d="M 9.421875 54.6875 
L 18.40625 54.6875 
L 18.40625 0 
L 9.421875 0 
z
M 9.421875 75.984375 
L 18.40625 75.984375 
L 18.40625 64.59375 
L 9.421875 64.59375 
z
" id="DejaVuSans-105"/>
      <path d="M 48.78125 52.59375 
L 48.78125 44.1875 
Q 44.96875 46.296875 41.140625 47.34375 
Q 37.3125 48.390625 33.40625 48.390625 
Q 24.65625 48.390625 19.8125 42.84375 
Q 14.984375 37.3125 14.984375 27.296875 
Q 14.984375 17.28125 19.8125 11.734375 
Q 24.65625 6.203125 33.40625 6.203125 
Q 37.3125 6.203125 41.140625 7.25 
Q 44.96875 8.296875 48.78125 10.40625 
L 48.78125 2.09375 
Q 45.015625 0.34375 40.984375 -0.53125 
Q 36.96875 -1.421875 32.421875 -1.421875 
Q 20.0625 -1.421875 12.78125 6.34375 
Q 5.515625 14.109375 5.515625 27.296875 
Q 5.515625 40.671875 12.859375 48.328125 
Q 20.21875 56 33.015625 56 
Q 37.15625 56 41.109375 55.140625 
Q 45.0625 54.296875 48.78125 52.59375 
z
" id="DejaVuSans-99"/>
      <path d="M 18.3125 70.21875 
L 18.3125 54.6875 
L 36.8125 54.6875 
L 36.8125 47.703125 
L 18.3125 47.703125 
L 18.3125 18.015625 
Q 18.3125 11.328125 20.140625 9.421875 
Q 21.96875 7.515625 27.59375 7.515625 
L 36.8125 7.515625 
L 36.8125 0 
L 27.59375 0 
Q 17.1875 0 13.234375 3.875 
Q 9.28125 7.765625 9.28125 18.015625 
L 9.28125 47.703125 
L 2.6875 47.703125 
L 2.6875 54.6875 
L 9.28125 54.6875 
L 9.28125 70.21875 
z
" id="DejaVuSans-116"/>
     </defs>
     <g transform="translate(301.970312 65.836562)scale(0.1 -0.1)">
      <use xlink:href="#DejaVuSans-80"/>
      <use x="60.287109" xlink:href="#DejaVuSans-114"/>
      <use x="101.369141" xlink:href="#DejaVuSans-101"/>
      <use x="162.892578" xlink:href="#DejaVuSans-100"/>
      <use x="226.369141" xlink:href="#DejaVuSans-105"/>
      <use x="254.152344" xlink:href="#DejaVuSans-99"/>
      <use x="309.132812" xlink:href="#DejaVuSans-116"/>
      <use x="348.341797" xlink:href="#DejaVuSans-101"/>
      <use x="409.865234" xlink:href="#DejaVuSans-100"/>
      <use x="473.341797" xlink:href="#DejaVuSans-32"/>
      <use x="505.128906" xlink:href="#DejaVuSans-118"/>
      <use x="564.308594" xlink:href="#DejaVuSans-97"/>
      <use x="625.587891" xlink:href="#DejaVuSans-108"/>
      <use x="653.371094" xlink:href="#DejaVuSans-117"/>
      <use x="716.75" xlink:href="#DejaVuSans-101"/>
     </g>
    </g>
   </g>
  </g>
 </g>
 <defs>
  <clipPath id="pe69850a325">
   <rect height="217.44" width="334.8" x="54" y="34.56"/>
  </clipPath>
 </defs>
</svg>
