<?xml version="1.0" encoding="utf-8" standalone="no"?>
<!DOCTYPE svg PUBLIC "-//W3C//DTD SVG 1.1//EN"
  "http://www.w3.org/Graphics/SVG/1.1/DTD/svg11.dtd">
<!-- Created with matplotlib (https://matplotlib.org/) -->
<svg height="288pt" version="1.1" viewBox="0 0 432 288" width="432pt" xmlns="http://www.w3.org/2000/svg" xmlns:xlink="http://www.w3.org/1999/xlink">
 <defs>
  <style type="text/css">
*{stroke-linecap:butt;stroke-linejoin:round;}
  </style>
 </defs>
 <g id="figure_1">
  <g id="patch_1">
   <path d="M 0 288 
L 432 288 
L 432 0 
L 0 0 
z
" style="fill:#ffffff;"/>
  </g>
  <g id="axes_1">
   <g id="patch_2">
    <path d="M 54 252 
L 388.8 252 
L 388.8 34.56 
L 54 34.56 
z
" style="fill:#ffffff;"/>
   </g>
   <g id="matplotlib.axis_1">
    <g id="xtick_1">
     <g id="line2d_1">
      <defs>
       <path d="M 0 0 
L 0 3.5 
" id="mb879884a6e" style="stroke:#000000;stroke-width:0.8;"/>
      </defs>
      <g>
       <use style="stroke:#000000;stroke-width:0.8;" x="69.218182" xlink:href="#mb879884a6e" y="252"/>
      </g>
     </g>
     <g id="text_1">
      <!-- 0 -->
      <defs>
       <path d="M 31.78125 66.40625 
Q 24.171875 66.40625 20.328125 58.90625 
Q 16.5 51.421875 16.5 36.375 
Q 16.5 21.390625 20.328125 13.890625 
Q 24.171875 6.390625 31.78125 6.390625 
Q 39.453125 6.390625 43.28125 13.890625 
Q 47.125 21.390625 47.125 36.375 
Q 47.125 51.421875 43.28125 58.90625 
Q 39.453125 66.40625 31.78125 66.40625 
z
M 31.78125 74.21875 
Q 44.046875 74.21875 50.515625 64.515625 
Q 56.984375 54.828125 56.984375 36.375 
Q 56.984375 17.96875 50.515625 8.265625 
Q 44.046875 -1.421875 31.78125 -1.421875 
Q 19.53125 -1.421875 13.0625 8.265625 
Q 6.59375 17.96875 6.59375 36.375 
Q 6.59375 54.828125 13.0625 64.515625 
Q 19.53125 74.21875 31.78125 74.21875 
z
" id="DejaVuSans-48"/>
      </defs>
      <g transform="translate(66.036932 266.598437)scale(0.1 -0.1)">
       <use xlink:href="#DejaVuSans-48"/>
      </g>
     </g>
    </g>
    <g id="xtick_2">
     <g id="line2d_2">
      <g>
       <use style="stroke:#000000;stroke-width:0.8;" x="116.115506" xlink:href="#mb879884a6e" y="252"/>
      </g>
     </g>
     <g id="text_2">
      <!-- 200 -->
      <defs>
       <path d="M 19.1875 8.296875 
L 53.609375 8.296875 
L 53.609375 0 
L 7.328125 0 
L 7.328125 8.296875 
Q 12.9375 14.109375 22.625 23.890625 
Q 32.328125 33.6875 34.8125 36.53125 
Q 39.546875 41.84375 41.421875 45.53125 
Q 43.3125 49.21875 43.3125 52.78125 
Q 43.3125 58.59375 39.234375 62.25 
Q 35.15625 65.921875 28.609375 65.921875 
Q 23.96875 65.921875 18.8125 64.3125 
Q 13.671875 62.703125 7.8125 59.421875 
L 7.8125 69.390625 
Q 13.765625 71.78125 18.9375 73 
Q 24.125 74.21875 28.421875 74.21875 
Q 39.75 74.21875 46.484375 68.546875 
Q 53.21875 62.890625 53.21875 53.421875 
Q 53.21875 48.921875 51.53125 44.890625 
Q 49.859375 40.875 45.40625 35.40625 
Q 44.1875 33.984375 37.640625 27.21875 
Q 31.109375 20.453125 19.1875 8.296875 
z
" id="DejaVuSans-50"/>
      </defs>
      <g transform="translate(106.571756 266.598437)scale(0.1 -0.1)">
       <use xlink:href="#DejaVuSans-50"/>
       <use x="63.623047" xlink:href="#DejaVuSans-48"/>
       <use x="127.246094" xlink:href="#DejaVuSans-48"/>
      </g>
     </g>
    </g>
    <g id="xtick_3">
     <g id="line2d_3">
      <g>
       <use style="stroke:#000000;stroke-width:0.8;" x="163.012831" xlink:href="#mb879884a6e" y="252"/>
      </g>
     </g>
     <g id="text_3">
      <!-- 400 -->
      <defs>
       <path d="M 37.796875 64.3125 
L 12.890625 25.390625 
L 37.796875 25.390625 
z
M 35.203125 72.90625 
L 47.609375 72.90625 
L 47.609375 25.390625 
L 58.015625 25.390625 
L 58.015625 17.1875 
L 47.609375 17.1875 
L 47.609375 0 
L 37.796875 0 
L 37.796875 17.1875 
L 4.890625 17.1875 
L 4.890625 26.703125 
z
" id="DejaVuSans-52"/>
      </defs>
      <g transform="translate(153.469081 266.598437)scale(0.1 -0.1)">
       <use xlink:href="#DejaVuSans-52"/>
       <use x="63.623047" xlink:href="#DejaVuSans-48"/>
       <use x="127.246094" xlink:href="#DejaVuSans-48"/>
      </g>
     </g>
    </g>
    <g id="xtick_4">
     <g id="line2d_4">
      <g>
       <use style="stroke:#000000;stroke-width:0.8;" x="209.910155" xlink:href="#mb879884a6e" y="252"/>
      </g>
     </g>
     <g id="text_4">
      <!-- 600 -->
      <defs>
       <path d="M 33.015625 40.375 
Q 26.375 40.375 22.484375 35.828125 
Q 18.609375 31.296875 18.609375 23.390625 
Q 18.609375 15.53125 22.484375 10.953125 
Q 26.375 6.390625 33.015625 6.390625 
Q 39.65625 6.390625 43.53125 10.953125 
Q 47.40625 15.53125 47.40625 23.390625 
Q 47.40625 31.296875 43.53125 35.828125 
Q 39.65625 40.375 33.015625 40.375 
z
M 52.59375 71.296875 
L 52.59375 62.3125 
Q 48.875 64.0625 45.09375 64.984375 
Q 41.3125 65.921875 37.59375 65.921875 
Q 27.828125 65.921875 22.671875 59.328125 
Q 17.53125 52.734375 16.796875 39.40625 
Q 19.671875 43.65625 24.015625 45.921875 
Q 28.375 48.1875 33.59375 48.1875 
Q 44.578125 48.1875 50.953125 41.515625 
Q 57.328125 34.859375 57.328125 23.390625 
Q 57.328125 12.15625 50.6875 5.359375 
Q 44.046875 -1.421875 33.015625 -1.421875 
Q 20.359375 -1.421875 13.671875 8.265625 
Q 6.984375 17.96875 6.984375 36.375 
Q 6.984375 53.65625 15.1875 63.9375 
Q 23.390625 74.21875 37.203125 74.21875 
Q 40.921875 74.21875 44.703125 73.484375 
Q 48.484375 72.75 52.59375 71.296875 
z
" id="DejaVuSans-54"/>
      </defs>
      <g transform="translate(200.366405 266.598437)scale(0.1 -0.1)">
       <use xlink:href="#DejaVuSans-54"/>
       <use x="63.623047" xlink:href="#DejaVuSans-48"/>
       <use x="127.246094" xlink:href="#DejaVuSans-48"/>
      </g>
     </g>
    </g>
    <g id="xtick_5">
     <g id="line2d_5">
      <g>
       <use style="stroke:#000000;stroke-width:0.8;" x="256.80748" xlink:href="#mb879884a6e" y="252"/>
      </g>
     </g>
     <g id="text_5">
      <!-- 800 -->
      <defs>
       <path d="M 31.78125 34.625 
Q 24.75 34.625 20.71875 30.859375 
Q 16.703125 27.09375 16.703125 20.515625 
Q 16.703125 13.921875 20.71875 10.15625 
Q 24.75 6.390625 31.78125 6.390625 
Q 38.8125 6.390625 42.859375 10.171875 
Q 46.921875 13.96875 46.921875 20.515625 
Q 46.921875 27.09375 42.890625 30.859375 
Q 38.875 34.625 31.78125 34.625 
z
M 21.921875 38.8125 
Q 15.578125 40.375 12.03125 44.71875 
Q 8.5 49.078125 8.5 55.328125 
Q 8.5 64.0625 14.71875 69.140625 
Q 20.953125 74.21875 31.78125 74.21875 
Q 42.671875 74.21875 48.875 69.140625 
Q 55.078125 64.0625 55.078125 55.328125 
Q 55.078125 49.078125 51.53125 44.71875 
Q 48 40.375 41.703125 38.8125 
Q 48.828125 37.15625 52.796875 32.3125 
Q 56.78125 27.484375 56.78125 20.515625 
Q 56.78125 9.90625 50.3125 4.234375 
Q 43.84375 -1.421875 31.78125 -1.421875 
Q 19.734375 -1.421875 13.25 4.234375 
Q 6.78125 9.90625 6.78125 20.515625 
Q 6.78125 27.484375 10.78125 32.3125 
Q 14.796875 37.15625 21.921875 38.8125 
z
M 18.3125 54.390625 
Q 18.3125 48.734375 21.84375 45.5625 
Q 25.390625 42.390625 31.78125 42.390625 
Q 38.140625 42.390625 41.71875 45.5625 
Q 45.3125 48.734375 45.3125 54.390625 
Q 45.3125 60.0625 41.71875 63.234375 
Q 38.140625 66.40625 31.78125 66.40625 
Q 25.390625 66.40625 21.84375 63.234375 
Q 18.3125 60.0625 18.3125 54.390625 
z
" id="DejaVuSans-56"/>
      </defs>
      <g transform="translate(247.26373 266.598437)scale(0.1 -0.1)">
       <use xlink:href="#DejaVuSans-56"/>
       <use x="63.623047" xlink:href="#DejaVuSans-48"/>
       <use x="127.246094" xlink:href="#DejaVuSans-48"/>
      </g>
     </g>
    </g>
    <g id="xtick_6">
     <g id="line2d_6">
      <g>
       <use style="stroke:#000000;stroke-width:0.8;" x="303.704805" xlink:href="#mb879884a6e" y="252"/>
      </g>
     </g>
     <g id="text_6">
      <!-- 1000 -->
      <defs>
       <path d="M 12.40625 8.296875 
L 28.515625 8.296875 
L 28.515625 63.921875 
L 10.984375 60.40625 
L 10.984375 69.390625 
L 28.421875 72.90625 
L 38.28125 72.90625 
L 38.28125 8.296875 
L 54.390625 8.296875 
L 54.390625 0 
L 12.40625 0 
z
" id="DejaVuSans-49"/>
      </defs>
      <g transform="translate(290.979805 266.598437)scale(0.1 -0.1)">
       <use xlink:href="#DejaVuSans-49"/>
       <use x="63.623047" xlink:href="#DejaVuSans-48"/>
       <use x="127.246094" xlink:href="#DejaVuSans-48"/>
       <use x="190.869141" xlink:href="#DejaVuSans-48"/>
      </g>
     </g>
    </g>
    <g id="xtick_7">
     <g id="line2d_7">
      <g>
       <use style="stroke:#000000;stroke-width:0.8;" x="350.602129" xlink:href="#mb879884a6e" y="252"/>
      </g>
     </g>
     <g id="text_7">
      <!-- 1200 -->
      <g transform="translate(337.877129 266.598437)scale(0.1 -0.1)">
       <use xlink:href="#DejaVuSans-49"/>
       <use x="63.623047" xlink:href="#DejaVuSans-50"/>
       <use x="127.246094" xlink:href="#DejaVuSans-48"/>
       <use x="190.869141" xlink:href="#DejaVuSans-48"/>
      </g>
     </g>
    </g>
   </g>
   <g id="matplotlib.axis_2">
    <g id="ytick_1">
     <g id="line2d_8">
      <defs>
       <path d="M 0 0 
L -3.5 0 
" id="m4f446ce560" style="stroke:#000000;stroke-width:0.8;"/>
      </defs>
      <g>
       <use style="stroke:#000000;stroke-width:0.8;" x="54" xlink:href="#m4f446ce560" y="240.872585"/>
      </g>
     </g>
     <g id="text_8">
      <!-- 0 -->
      <g transform="translate(40.6375 244.671804)scale(0.1 -0.1)">
       <use xlink:href="#DejaVuSans-48"/>
      </g>
     </g>
    </g>
    <g id="ytick_2">
     <g id="line2d_9">
      <g>
       <use style="stroke:#000000;stroke-width:0.8;" x="54" xlink:href="#m4f446ce560" y="214.328132"/>
      </g>
     </g>
     <g id="text_9">
      <!-- 25 -->
      <defs>
       <path d="M 10.796875 72.90625 
L 49.515625 72.90625 
L 49.515625 64.59375 
L 19.828125 64.59375 
L 19.828125 46.734375 
Q 21.96875 47.46875 24.109375 47.828125 
Q 26.265625 48.1875 28.421875 48.1875 
Q 40.625 48.1875 47.75 41.5 
Q 54.890625 34.8125 54.890625 23.390625 
Q 54.890625 11.625 47.5625 5.09375 
Q 40.234375 -1.421875 26.90625 -1.421875 
Q 22.3125 -1.421875 17.546875 -0.640625 
Q 12.796875 0.140625 7.71875 1.703125 
L 7.71875 11.625 
Q 12.109375 9.234375 16.796875 8.0625 
Q 21.484375 6.890625 26.703125 6.890625 
Q 35.15625 6.890625 40.078125 11.328125 
Q 45.015625 15.765625 45.015625 23.390625 
Q 45.015625 31 40.078125 35.4375 
Q 35.15625 39.890625 26.703125 39.890625 
Q 22.75 39.890625 18.8125 39.015625 
Q 14.890625 38.140625 10.796875 36.28125 
z
" id="DejaVuSans-53"/>
      </defs>
      <g transform="translate(34.275 218.127351)scale(0.1 -0.1)">
       <use xlink:href="#DejaVuSans-50"/>
       <use x="63.623047" xlink:href="#DejaVuSans-53"/>
      </g>
     </g>
    </g>
    <g id="ytick_3">
     <g id="line2d_10">
      <g>
       <use style="stroke:#000000;stroke-width:0.8;" x="54" xlink:href="#m4f446ce560" y="187.78368"/>
      </g>
     </g>
     <g id="text_10">
      <!-- 50 -->
      <g transform="translate(34.275 191.582899)scale(0.1 -0.1)">
       <use xlink:href="#DejaVuSans-53"/>
       <use x="63.623047" xlink:href="#DejaVuSans-48"/>
      </g>
     </g>
    </g>
    <g id="ytick_4">
     <g id="line2d_11">
      <g>
       <use style="stroke:#000000;stroke-width:0.8;" x="54" xlink:href="#m4f446ce560" y="161.239227"/>
      </g>
     </g>
     <g id="text_11">
      <!-- 75 -->
      <defs>
       <path d="M 8.203125 72.90625 
L 55.078125 72.90625 
L 55.078125 68.703125 
L 28.609375 0 
L 18.3125 0 
L 43.21875 64.59375 
L 8.203125 64.59375 
z
" id="DejaVuSans-55"/>
      </defs>
      <g transform="translate(34.275 165.038446)scale(0.1 -0.1)">
       <use xlink:href="#DejaVuSans-55"/>
       <use x="63.623047" xlink:href="#DejaVuSans-53"/>
      </g>
     </g>
    </g>
    <g id="ytick_5">
     <g id="line2d_12">
      <g>
       <use style="stroke:#000000;stroke-width:0.8;" x="54" xlink:href="#m4f446ce560" y="134.694775"/>
      </g>
     </g>
     <g id="text_12">
      <!-- 100 -->
      <g transform="translate(27.9125 138.493994)scale(0.1 -0.1)">
       <use xlink:href="#DejaVuSans-49"/>
       <use x="63.623047" xlink:href="#DejaVuSans-48"/>
       <use x="127.246094" xlink:href="#DejaVuSans-48"/>
      </g>
     </g>
    </g>
    <g id="ytick_6">
     <g id="line2d_13">
      <g>
       <use style="stroke:#000000;stroke-width:0.8;" x="54" xlink:href="#m4f446ce560" y="108.150322"/>
      </g>
     </g>
     <g id="text_13">
      <!-- 125 -->
      <g transform="translate(27.9125 111.949541)scale(0.1 -0.1)">
       <use xlink:href="#DejaVuSans-49"/>
       <use x="63.623047" xlink:href="#DejaVuSans-50"/>
       <use x="127.246094" xlink:href="#DejaVuSans-53"/>
      </g>
     </g>
    </g>
    <g id="ytick_7">
     <g id="line2d_14">
      <g>
       <use style="stroke:#000000;stroke-width:0.8;" x="54" xlink:href="#m4f446ce560" y="81.60587"/>
      </g>
     </g>
     <g id="text_14">
      <!-- 150 -->
      <g transform="translate(27.9125 85.405089)scale(0.1 -0.1)">
       <use xlink:href="#DejaVuSans-49"/>
       <use x="63.623047" xlink:href="#DejaVuSans-53"/>
       <use x="127.246094" xlink:href="#DejaVuSans-48"/>
      </g>
     </g>
    </g>
    <g id="ytick_8">
     <g id="line2d_15">
      <g>
       <use style="stroke:#000000;stroke-width:0.8;" x="54" xlink:href="#m4f446ce560" y="55.061417"/>
      </g>
     </g>
     <g id="text_15">
      <!-- 175 -->
      <g transform="translate(27.9125 58.860636)scale(0.1 -0.1)">
       <use xlink:href="#DejaVuSans-49"/>
       <use x="63.623047" xlink:href="#DejaVuSans-55"/>
       <use x="127.246094" xlink:href="#DejaVuSans-53"/>
      </g>
     </g>
    </g>
   </g>
   <g id="line2d_16">
    <path clip-path="url(#pbd4ab0f300)" d="M 69.218182 239.810807 
L 69.452668 237.687251 
L 69.687155 233.440138 
L 69.921642 240.872585 
L 70.156128 240.872585 
L 70.390615 239.810807 
L 70.625102 231.316582 
L 70.859588 217.513467 
L 71.094075 232.37836 
L 71.328561 222.822357 
L 71.563048 227.06947 
L 72.032021 240.872585 
L 72.266508 239.810807 
L 72.500995 235.563694 
L 72.735481 238.749029 
L 73.204454 227.06947 
L 73.438941 239.810807 
L 73.673428 240.872585 
L 73.907914 238.749029 
L 74.142401 233.440138 
L 74.376888 235.563694 
L 74.611374 213.266354 
L 74.845861 228.131248 
L 75.080347 99.656098 
L 75.314834 238.749029 
L 75.549321 237.687251 
L 75.783807 228.131248 
L 76.018294 238.749029 
L 76.252781 240.872585 
L 76.721754 240.872585 
L 76.95624 210.08102 
L 77.190727 230.254804 
L 77.425214 234.501916 
L 77.6597 218.575245 
L 77.894187 240.872585 
L 78.128673 206.895686 
L 78.36316 235.563694 
L 78.597647 229.193026 
L 78.832133 240.872585 
L 79.06662 227.06947 
L 79.301107 197.339683 
L 79.535593 235.563694 
L 80.239053 136.818331 
L 80.47354 206.895686 
L 80.708026 239.810807 
L 80.942513 235.563694 
L 81.177 235.563694 
L 81.411486 240.872585 
L 81.645973 240.872585 
L 81.880459 238.749029 
L 82.114946 223.884135 
L 82.349433 218.575245 
L 82.583919 238.749029 
L 82.818406 236.625473 
L 83.052893 240.872585 
L 83.287379 219.637023 
L 83.521866 218.575245 
L 83.756352 234.501916 
L 83.990839 240.872585 
L 84.694299 240.872585 
L 84.928786 238.749029 
L 85.163272 240.872585 
L 85.397759 240.872585 
L 85.632245 207.957464 
L 85.866732 240.872585 
L 86.101219 213.266354 
L 86.570192 240.872585 
L 86.804679 240.872585 
L 87.039165 238.749029 
L 87.273652 240.872585 
L 87.508138 237.687251 
L 87.742625 240.872585 
L 88.211598 240.872585 
L 88.446085 215.38991 
L 88.680572 240.872585 
L 88.915058 239.810807 
L 89.149545 239.810807 
L 89.384031 223.884135 
L 89.618518 216.451689 
L 89.853005 197.339683 
L 90.087491 240.872585 
L 90.321978 229.193026 
L 90.556464 198.401461 
L 90.790951 232.37836 
L 91.025438 216.451689 
L 91.259924 237.687251 
L 91.494411 237.687251 
L 91.728898 236.625473 
L 91.963384 206.895686 
L 92.197871 232.37836 
L 92.432357 240.872585 
L 93.370304 240.872585 
L 93.604791 239.810807 
L 93.839277 240.872585 
L 94.777224 240.872585 
L 95.01171 239.810807 
L 95.246197 239.810807 
L 95.480684 236.625473 
L 95.71517 240.872585 
L 95.949657 240.872585 
L 96.184143 235.563694 
L 96.41863 181.413011 
L 96.653117 240.872585 
L 122.915618 240.872585 
L 123.150105 223.884135 
L 123.384592 240.872585 
L 131.591623 240.872585 
L 131.82611 228.131248 
L 132.060597 240.872585 
L 132.295083 238.749029 
L 132.52957 240.872585 
L 134.874436 240.872585 
L 135.108923 237.687251 
L 135.343409 237.687251 
L 135.577896 240.872585 
L 139.564169 240.872585 
L 139.798655 238.749029 
L 140.033142 240.872585 
L 140.502115 240.872585 
L 140.736602 239.810807 
L 140.971088 240.872585 
L 141.205575 240.872585 
L 141.440062 229.193026 
L 141.674548 240.872585 
L 141.909035 226.007692 
L 142.143522 239.810807 
L 142.378008 240.872585 
L 143.550441 240.872585 
L 143.784928 228.131248 
L 144.019414 240.872585 
L 144.253901 240.872585 
L 144.722874 230.254804 
L 144.957361 240.872585 
L 146.598767 240.872585 
L 146.833254 223.884135 
L 147.067741 231.316582 
L 147.302227 209.019242 
L 147.536714 237.687251 
L 147.7712 223.884135 
L 148.005687 239.810807 
L 148.240174 240.872585 
L 148.47466 238.749029 
L 148.709147 214.328132 
L 148.943634 240.872585 
L 149.17812 237.687251 
L 149.412607 240.872585 
L 149.647093 237.687251 
L 149.88158 240.872585 
L 150.819527 240.872585 
L 151.054013 237.687251 
L 151.2885 240.872585 
L 151.522986 234.501916 
L 151.757473 240.872585 
L 152.226446 240.872585 
L 152.460933 176.104121 
L 152.69542 232.37836 
L 152.929906 133.632997 
L 153.164393 201.586795 
L 153.633366 154.868559 
L 153.867853 237.687251 
L 154.102339 218.575245 
L 154.336826 235.563694 
L 154.805799 224.945913 
L 155.040286 229.193026 
L 155.274772 216.451689 
L 155.509259 240.872585 
L 155.743746 238.749029 
L 155.978232 230.254804 
L 156.212719 209.019242 
L 156.447205 229.193026 
L 156.681692 238.749029 
L 156.916179 145.312556 
L 157.150665 240.872585 
L 157.619639 240.872585 
L 157.854125 233.440138 
L 158.088612 232.37836 
L 158.557585 240.872585 
L 158.792072 240.872585 
L 159.026558 237.687251 
L 159.261045 217.513467 
L 159.495532 217.513467 
L 159.730018 238.749029 
L 159.964505 237.687251 
L 160.667965 226.007692 
L 161.136938 240.872585 
L 161.371425 224.945913 
L 161.605911 237.687251 
L 161.840398 236.625473 
L 162.074884 240.872585 
L 162.309371 233.440138 
L 162.543858 234.501916 
L 162.778344 232.37836 
L 163.012831 229.193026 
L 163.247318 235.563694 
L 163.481804 234.501916 
L 163.716291 216.451689 
L 164.185264 239.810807 
L 164.419751 220.698801 
L 164.654237 239.810807 
L 164.888724 227.06947 
L 165.123211 239.810807 
L 165.357697 240.872585 
L 165.592184 231.316582 
L 165.82667 204.772129 
L 166.061157 161.239227 
L 166.53013 215.38991 
L 166.764617 178.227677 
L 166.999104 227.06947 
L 167.23359 239.810807 
L 167.468077 230.254804 
L 167.702563 190.969014 
L 167.93705 227.06947 
L 168.171537 240.872585 
L 168.406023 226.007692 
L 168.64051 223.884135 
L 168.874996 238.749029 
L 169.109483 240.872585 
L 169.34397 232.37836 
L 169.578456 238.749029 
L 169.812943 240.872585 
L 170.04743 209.019242 
L 170.516403 235.563694 
L 170.750889 240.872585 
L 170.985376 240.872585 
L 171.219863 238.749029 
L 171.454349 232.37836 
L 171.688836 240.872585 
L 172.392296 240.872585 
L 172.626782 239.810807 
L 172.861269 178.227677 
L 173.330242 240.872585 
L 173.564729 239.810807 
L 173.799216 239.810807 
L 174.033702 240.872585 
L 174.268189 240.872585 
L 174.502675 219.637023 
L 174.737162 178.227677 
L 175.206135 237.687251 
L 175.440622 224.945913 
L 175.675109 240.872585 
L 175.909595 232.37836 
L 176.144082 235.563694 
L 176.378568 233.440138 
L 176.613055 240.872585 
L 179.192408 240.872585 
L 179.426895 239.810807 
L 179.661381 240.872585 
L 179.895868 238.749029 
L 180.130354 218.575245 
L 180.364841 229.193026 
L 180.599328 224.945913 
L 180.833814 240.872585 
L 183.88214 240.872585 
L 184.116627 239.810807 
L 184.351114 240.872585 
L 199.358257 240.872585 
L 199.592744 239.810807 
L 199.827231 240.872585 
L 209.910155 240.872585 
L 210.144642 235.563694 
L 210.379129 240.872585 
L 210.848102 240.872585 
L 211.082589 235.563694 
L 211.317075 240.872585 
L 214.365401 240.872585 
L 214.599888 239.810807 
L 214.834375 226.007692 
L 215.068861 236.625473 
L 215.303348 240.872585 
L 219.524107 240.872585 
L 219.758594 220.698801 
L 219.99308 240.872585 
L 220.462054 240.872585 
L 220.69654 236.625473 
L 220.931027 240.872585 
L 221.165513 240.872585 
L 221.4 239.810807 
L 221.634487 240.872585 
L 222.10346 233.440138 
L 222.337946 210.08102 
L 222.572433 240.872585 
L 222.80692 219.637023 
L 223.041406 240.872585 
L 226.089732 240.872585 
L 226.324219 238.749029 
L 226.558706 218.575245 
L 226.793192 240.872585 
L 227.027679 235.563694 
L 227.262166 240.872585 
L 227.496652 234.501916 
L 227.731139 238.749029 
L 227.965625 240.872585 
L 228.434599 240.872585 
L 228.669085 219.637023 
L 228.903572 240.872585 
L 229.841518 240.872585 
L 230.076005 233.440138 
L 230.310492 240.872585 
L 230.544978 229.193026 
L 230.779465 240.872585 
L 231.013952 224.945913 
L 231.482925 240.872585 
L 232.186385 240.872585 
L 232.420871 237.687251 
L 232.655358 240.872585 
L 233.827791 240.872585 
L 234.062278 228.131248 
L 234.296764 240.872585 
L 235.938171 240.872585 
L 236.172657 237.687251 
L 236.407144 239.810807 
L 236.64163 240.872585 
L 236.876117 239.810807 
L 237.110604 240.872585 
L 237.814064 240.872585 
L 238.04855 239.810807 
L 238.283037 172.918786 
L 238.517523 238.749029 
L 238.75201 197.339683 
L 238.986497 223.884135 
L 239.220983 227.06947 
L 239.689957 239.810807 
L 239.924443 240.872585 
L 240.15893 240.872585 
L 240.393416 239.810807 
L 240.627903 199.463239 
L 240.86239 112.397435 
L 241.096876 190.969014 
L 241.331363 158.053893 
L 241.56585 67.802755 
L 242.034823 213.266354 
L 242.269309 239.810807 
L 242.503796 240.872585 
L 242.738283 240.872585 
L 242.972769 234.501916 
L 243.207256 239.810807 
L 243.441743 223.884135 
L 243.676229 240.872585 
L 243.910716 239.810807 
L 244.145202 161.239227 
L 244.379689 240.872585 
L 244.614176 131.509441 
L 244.848662 138.941887 
L 245.083149 195.216127 
L 245.552122 237.687251 
L 245.786609 234.501916 
L 246.021095 240.872585 
L 246.255582 240.872585 
L 246.490069 213.266354 
L 246.724555 226.007692 
L 247.193529 205.833908 
L 247.428015 222.822357 
L 247.662502 227.06947 
L 247.896988 238.749029 
L 248.131475 223.884135 
L 248.365962 234.501916 
L 248.600448 211.142798 
L 248.834935 227.06947 
L 249.069421 205.833908 
L 249.303908 171.857008 
L 249.538395 192.030792 
L 249.772881 226.007692 
L 250.007368 216.451689 
L 250.241855 216.451689 
L 250.476341 131.509441 
L 250.710828 223.884135 
L 250.945314 231.316582 
L 251.179801 232.37836 
L 251.414288 240.872585 
L 252.352234 240.872585 
L 252.586721 219.637023 
L 252.821207 227.06947 
L 253.055694 238.749029 
L 253.290181 236.625473 
L 253.524667 237.687251 
L 253.759154 217.513467 
L 253.993641 161.239227 
L 254.228127 229.193026 
L 254.462614 199.463239 
L 254.6971 236.625473 
L 254.931587 226.007692 
L 255.166074 239.810807 
L 255.40056 239.810807 
L 255.635047 232.37836 
L 255.869534 240.872585 
L 256.338507 240.872585 
L 256.572993 237.687251 
L 256.80748 224.945913 
L 257.041967 223.884135 
L 257.276453 234.501916 
L 257.51094 236.625473 
L 257.745427 224.945913 
L 257.979913 194.154348 
L 258.2144 239.810807 
L 258.448886 240.872585 
L 258.683373 238.749029 
L 258.91786 240.872585 
L 259.152346 240.872585 
L 259.386833 234.501916 
L 259.855806 240.872585 
L 260.090293 237.687251 
L 260.324779 240.872585 
L 260.559266 237.687251 
L 260.793753 240.872585 
L 261.262726 200.525017 
L 261.497212 240.872585 
L 261.731699 240.872585 
L 261.966186 178.227677 
L 262.200672 156.992115 
L 262.435159 222.822357 
L 262.669646 195.216127 
L 262.904132 203.710351 
L 263.138619 239.810807 
L 263.373105 240.872585 
L 265.952458 240.872585 
L 266.186945 238.749029 
L 266.421432 224.945913 
L 266.655918 131.509441 
L 266.890405 240.872585 
L 267.124891 235.563694 
L 267.359378 185.660124 
L 267.593865 240.872585 
L 268.062838 240.872585 
L 268.297325 239.810807 
L 268.531811 240.872585 
L 271.814624 240.872585 
L 272.049111 234.501916 
L 272.283597 240.872585 
L 283.304468 240.872585 
L 283.538955 238.749029 
L 283.773442 240.872585 
L 291.042527 240.872585 
L 291.277014 239.810807 
L 291.5115 239.810807 
L 291.745987 240.872585 
L 296.435719 240.872585 
L 296.670206 236.625473 
L 296.904693 240.872585 
L 299.015072 240.872585 
L 299.249559 239.810807 
L 299.484045 214.328132 
L 299.718532 239.810807 
L 299.953019 240.872585 
L 305.580698 240.872585 
L 305.815184 233.440138 
L 306.049671 240.872585 
L 307.456591 240.872585 
L 307.691077 222.822357 
L 307.925564 240.872585 
L 308.16005 240.872585 
L 308.394537 210.08102 
L 308.629024 236.625473 
L 308.86351 240.872585 
L 314.725676 240.872585 
L 314.960162 239.810807 
L 315.194649 240.872585 
L 315.663622 240.872585 
L 315.898109 236.625473 
L 316.132596 235.563694 
L 316.367082 240.872585 
L 317.070542 240.872585 
L 317.305029 214.328132 
L 317.539515 240.872585 
L 318.242975 240.872585 
L 318.477462 237.687251 
L 318.711948 205.833908 
L 318.946435 240.872585 
L 319.415408 240.872585 
L 319.649895 233.440138 
L 319.884382 232.37836 
L 320.118868 206.895686 
L 320.353355 60.370308 
L 320.822328 240.872585 
L 321.056815 240.872585 
L 321.291301 230.254804 
L 321.525788 205.833908 
L 321.760275 240.872585 
L 321.994761 233.440138 
L 322.229248 187.78368 
L 322.463734 240.872585 
L 322.698221 227.06947 
L 322.932708 239.810807 
L 323.167194 240.872585 
L 323.636168 240.872585 
L 323.870654 224.945913 
L 324.105141 185.660124 
L 324.339627 235.563694 
L 324.574114 232.37836 
L 324.808601 214.328132 
L 325.043087 234.501916 
L 325.277574 240.872585 
L 325.512061 162.301005 
L 325.746547 179.289455 
L 325.981034 236.625473 
L 326.21552 211.142798 
L 326.450007 240.872585 
L 326.684494 222.822357 
L 326.91898 239.810807 
L 327.153467 214.328132 
L 327.387953 239.810807 
L 327.62244 238.749029 
L 327.856927 238.749029 
L 328.091413 240.872585 
L 329.02936 240.872585 
L 329.263846 238.749029 
L 329.498333 239.810807 
L 329.73282 239.810807 
L 329.967306 240.872585 
L 330.201793 239.810807 
L 330.670766 202.648573 
L 330.905253 193.09257 
L 331.139739 178.227677 
L 331.374226 239.810807 
L 331.608713 227.06947 
L 331.843199 240.872585 
L 332.077686 230.254804 
L 332.312173 236.625473 
L 332.546659 239.810807 
L 333.015632 230.254804 
L 333.250119 233.440138 
L 333.484606 238.749029 
L 333.719092 215.38991 
L 333.953579 214.328132 
L 334.188066 220.698801 
L 334.422552 230.254804 
L 334.657039 228.131248 
L 334.891525 240.872585 
L 335.360499 235.563694 
L 335.594985 229.193026 
L 335.829472 239.810807 
L 336.063959 234.501916 
L 336.298445 239.810807 
L 336.532932 222.822357 
L 336.767418 240.872585 
L 337.001905 216.451689 
L 337.236392 235.563694 
L 337.470878 170.79523 
L 337.705365 222.822357 
L 337.939852 236.625473 
L 338.174338 234.501916 
L 338.408825 239.810807 
L 338.643311 228.131248 
L 338.877798 228.131248 
L 339.112285 239.810807 
L 339.346771 231.316582 
L 339.581258 203.710351 
L 339.815745 213.266354 
L 340.050231 232.37836 
L 340.284718 239.810807 
L 340.519204 240.872585 
L 340.988178 240.872585 
L 341.222664 228.131248 
L 341.457151 199.463239 
L 341.691637 231.316582 
L 341.926124 240.872585 
L 342.395097 44.443636 
L 342.629584 238.749029 
L 342.864071 240.872585 
L 343.098557 240.872585 
L 343.333044 239.810807 
L 343.56753 233.440138 
L 343.802017 239.810807 
L 344.036504 232.37836 
L 344.27099 240.872585 
L 344.505477 239.810807 
L 344.739964 233.440138 
L 345.208937 239.810807 
L 345.443423 240.872585 
L 345.67791 192.030792 
L 345.912397 227.06947 
L 346.146883 239.810807 
L 346.38137 240.872585 
L 347.08483 240.872585 
L 347.319316 171.857008 
L 347.553803 239.810807 
L 347.78829 239.810807 
L 348.022776 240.872585 
L 348.49175 240.872585 
L 348.726236 239.810807 
L 348.960723 240.872585 
L 349.195209 240.872585 
L 349.429696 233.440138 
L 349.664183 190.969014 
L 349.898669 240.872585 
L 350.133156 217.513467 
L 350.367643 235.563694 
L 350.602129 239.810807 
L 350.836616 201.586795 
L 351.071102 228.131248 
L 351.540076 239.810807 
L 351.774562 240.872585 
L 352.009049 239.810807 
L 352.243536 240.872585 
L 352.712509 240.872585 
L 352.946995 236.625473 
L 353.181482 221.760579 
L 353.415969 189.907236 
L 353.650455 238.749029 
L 353.884942 230.254804 
L 354.119428 231.316582 
L 354.353915 196.277905 
L 354.588402 202.648573 
L 354.822888 240.872585 
L 357.871214 240.872585 
L 358.105701 239.810807 
L 358.340188 239.810807 
L 358.574674 240.872585 
L 358.809161 239.810807 
L 359.043648 240.872585 
L 359.981594 240.872585 
L 360.216081 219.637023 
L 360.450567 84.791204 
L 360.685054 234.501916 
L 360.919541 240.872585 
L 373.581818 240.872585 
L 373.581818 240.872585 
" style="fill:none;stroke:#1f77b4;stroke-linecap:square;stroke-width:1.5;"/>
   </g>
   <g id="line2d_17">
    <path clip-path="url(#pbd4ab0f300)" d="M 69.218182 222.286419 
L 69.687155 233.540134 
L 69.921642 231.286753 
L 70.156128 231.919067 
L 70.390615 238.801454 
L 70.625102 238.169356 
L 70.859588 234.957398 
L 71.094075 227.681773 
L 71.328561 231.276315 
L 71.563048 231.619718 
L 71.797535 230.186532 
L 72.266508 237.154722 
L 72.500995 236.770028 
L 72.735481 233.52418 
L 72.969968 233.351244 
L 73.204454 232.617146 
L 73.438941 229.439217 
L 73.907914 238.264374 
L 74.142401 237.609112 
L 74.376888 235.428235 
L 74.611374 235.144074 
L 74.845861 228.774804 
L 75.080347 227.848143 
L 75.314834 191.202442 
L 75.783807 233.6766 
L 76.252781 225.672366 
L 76.487267 236.805738 
L 76.95624 225.41163 
L 77.190727 208.034524 
L 77.425214 229.442125 
L 77.6597 236.967476 
L 77.894187 229.374478 
L 78.128673 233.342549 
L 78.36316 227.854437 
L 78.597647 232.591709 
L 78.832133 230.270534 
L 79.06662 229.90951 
L 79.535593 223.081482 
L 79.77008 225.579414 
L 80.004566 224.502773 
L 80.239053 203.609503 
L 80.47354 193.030279 
L 80.942513 227.52628 
L 81.411486 220.670387 
L 81.645973 231.233501 
L 81.880459 227.596375 
L 82.114946 217.67471 
L 82.349433 213.22294 
L 82.818406 236.638365 
L 83.052893 235.442307 
L 83.287379 235.382533 
L 83.521866 229.256259 
L 83.756352 229.21388 
L 83.990839 230.975415 
L 84.225326 230.496151 
L 84.459812 232.138076 
L 84.694299 237.783479 
L 84.928786 238.397783 
L 85.163272 236.864875 
L 85.397759 233.066093 
L 85.632245 235.431031 
L 85.866732 229.237051 
L 86.101219 234.330907 
L 86.335705 228.391634 
L 86.570192 228.202788 
L 87.039165 239.252844 
L 87.273652 235.385304 
L 87.508138 235.164057 
L 87.742625 232.027037 
L 87.977112 235.654221 
L 88.211598 233.832083 
L 88.446085 236.153471 
L 88.680572 230.23645 
L 89.149545 239.348599 
L 89.384031 237.827977 
L 89.618518 231.365946 
L 89.853005 228.964291 
L 90.087491 221.868649 
L 90.321978 229.834648 
L 90.556464 229.928146 
L 90.790951 221.905405 
L 91.025438 227.93267 
L 91.259924 228.535253 
L 91.728898 227.213025 
L 91.963384 230.084764 
L 92.197871 224.809189 
L 92.666844 229.072583 
L 92.901331 235.405996 
L 93.135817 234.090839 
L 93.370304 238.748289 
L 93.604791 237.588061 
L 94.073764 232.737427 
L 94.30825 238.343283 
L 94.542737 239.034884 
L 94.777224 238.558503 
L 95.01171 239.59962 
L 95.246197 239.166738 
L 95.480684 239.367663 
L 95.71517 237.587683 
L 96.184143 238.313495 
L 96.41863 238.320879 
L 96.653117 220.432911 
L 97.12209 237.591472 
L 97.356577 237.858305 
L 97.591063 234.797901 
L 97.82555 239.942174 
L 98.060036 237.320382 
L 98.52901 229.660053 
L 98.763496 239.468815 
L 98.997983 240.151865 
L 99.23247 239.493026 
L 99.466956 239.289352 
L 99.701443 238.773439 
L 99.935929 240.023139 
L 100.170416 239.587848 
L 100.404903 238.514447 
L 100.639389 238.38297 
L 100.873876 240.388302 
L 101.108363 239.324648 
L 101.342849 239.515045 
L 101.577336 239.487468 
L 101.811822 240.011454 
L 102.046309 239.73591 
L 102.280796 240.14033 
L 102.515282 238.876985 
L 102.749769 238.75021 
L 102.984255 239.336311 
L 103.218742 240.333348 
L 103.453229 239.525535 
L 103.687715 239.251417 
L 103.922202 239.861923 
L 104.156689 239.331688 
L 104.391175 239.247597 
L 104.625662 239.842414 
L 104.860148 238.876531 
L 105.329122 239.800104 
L 105.563608 239.592792 
L 106.970528 239.661978 
L 123.150105 239.661978 
L 123.384592 234.527147 
L 123.853565 239.489451 
L 124.088052 239.297369 
L 124.322538 238.585273 
L 124.557025 239.860791 
L 125.025998 238.361717 
L 125.260485 237.026066 
L 125.494971 239.510725 
L 125.729458 240.002395 
L 126.198431 239.637597 
L 126.432918 239.513247 
L 126.667404 239.845766 
L 127.370864 239.364181 
L 127.605351 239.861109 
L 127.839838 239.572367 
L 128.543297 239.774719 
L 128.777784 239.678804 
L 129.012271 239.80662 
L 129.246757 239.460449 
L 129.481244 239.42067 
L 129.71573 239.549205 
L 129.950217 239.861694 
L 130.41919 239.537915 
L 130.653677 239.742284 
L 131.12265 239.534731 
L 131.357137 239.734264 
L 131.591623 239.447062 
L 131.82611 239.564797 
L 132.060597 235.851993 
L 132.52957 238.879237 
L 132.764057 239.070343 
L 132.998543 238.832884 
L 133.23303 239.765511 
L 133.702003 238.711634 
L 133.93649 237.631232 
L 134.170976 239.386005 
L 134.63995 239.726066 
L 135.108923 239.564262 
L 135.577896 238.210199 
L 135.812383 239.039516 
L 136.281356 239.518443 
L 136.515843 239.392941 
L 136.750329 239.620447 
L 137.219302 239.004671 
L 137.453789 239.147592 
L 137.688276 239.82002 
L 138.157249 239.515254 
L 138.391736 239.519749 
L 138.626222 239.788175 
L 139.095195 239.561655 
L 139.329682 239.630382 
L 139.798655 239.597116 
L 140.033142 239.042233 
L 140.267629 239.154345 
L 140.502115 239.591084 
L 140.736602 239.644685 
L 140.971088 239.210535 
L 141.205575 239.513598 
L 141.440062 239.512009 
L 141.674548 235.878634 
L 141.909035 237.531521 
L 142.143522 235.078304 
L 142.612495 238.536055 
L 142.846981 239.301773 
L 143.081468 238.334868 
L 143.315955 238.908659 
L 143.550441 237.466849 
L 143.784928 238.310678 
L 144.019414 233.600174 
L 144.488388 239.787934 
L 144.957361 234.77956 
L 145.191848 238.056665 
L 145.426334 239.118069 
L 145.895307 237.038279 
L 146.129794 239.154745 
L 146.364281 239.282149 
L 146.598767 237.887618 
L 146.833254 237.969993 
L 147.067741 234.396902 
L 147.302227 234.819187 
L 147.536714 228.382864 
L 147.7712 233.202837 
L 148.005687 231.953663 
L 148.240174 235.83217 
L 148.709147 237.104967 
L 148.943634 226.001638 
L 149.17812 231.640447 
L 149.412607 232.949262 
L 149.647093 236.744037 
L 149.88158 234.543981 
L 150.116067 239.04961 
L 150.350553 238.823618 
L 150.819527 235.158531 
L 151.054013 238.463383 
L 151.522986 238.593771 
L 151.757473 237.120809 
L 151.99196 237.936511 
L 152.226446 239.802444 
L 152.460933 239.309802 
L 152.69542 219.611723 
L 152.929906 226.600154 
L 153.164393 204.813507 
L 153.398879 208.908758 
L 153.633366 207.659702 
L 153.867853 200.962734 
L 154.102339 216.265496 
L 154.336826 223.698552 
L 154.571313 215.943299 
L 154.805799 219.122275 
L 155.040286 212.90363 
L 155.274772 217.960011 
L 155.509259 215.19779 
L 155.743746 220.345128 
L 155.978232 236.284914 
L 156.212719 232.047918 
L 156.447205 225.177547 
L 156.681692 227.137895 
L 156.916179 232.288357 
L 157.150665 203.398069 
L 157.619639 235.742323 
L 157.854125 235.323583 
L 158.088612 227.208089 
L 158.323098 231.437137 
L 158.557585 232.252928 
L 158.792072 231.867313 
L 159.026558 223.347853 
L 159.261045 236.299696 
L 159.730018 228.013028 
L 159.964505 232.091506 
L 160.198991 233.366258 
L 160.433478 235.407618 
L 160.667965 233.009252 
L 160.902451 229.335277 
L 161.136938 229.283162 
L 161.371425 230.589517 
L 161.605911 227.761313 
L 161.840398 234.12569 
L 162.309371 235.930506 
L 162.543858 231.811497 
L 162.778344 233.838754 
L 163.012831 233.248554 
L 163.247318 231.666665 
L 163.481804 231.503253 
L 163.716291 236.054932 
L 163.950777 229.659836 
L 164.185264 228.796714 
L 164.419751 234.647752 
L 164.654237 229.184709 
L 165.123211 232.661572 
L 165.357697 233.598062 
L 165.592184 233.446449 
L 165.82667 231.645939 
L 166.061157 223.392315 
L 166.295644 208.868554 
L 166.53013 208.999242 
L 166.764617 220.80685 
L 166.999104 209.992118 
L 167.468077 232.435899 
L 167.702563 226.644396 
L 167.93705 204.956409 
L 168.171537 210.831894 
L 168.406023 225.940148 
L 168.64051 224.745871 
L 168.874996 219.00356 
L 169.109483 232.798095 
L 169.34397 237.473145 
L 169.578456 230.878498 
L 169.812943 227.417675 
L 170.04743 234.235299 
L 170.281916 228.047289 
L 170.516403 226.41429 
L 170.985376 235.304697 
L 171.219863 237.633169 
L 171.454349 236.989138 
L 171.688836 234.577617 
L 171.923323 235.026148 
L 172.157809 232.686441 
L 172.392296 234.226662 
L 172.626782 237.558431 
L 172.861269 238.88164 
L 173.095756 219.716853 
L 173.330242 218.800174 
L 173.564729 233.613725 
L 173.799216 236.770887 
L 174.033702 232.503229 
L 174.268189 236.852255 
L 174.502675 237.375721 
L 174.737162 225.56868 
L 174.971649 204.463044 
L 175.206135 213.632304 
L 175.440622 232.715917 
L 175.675109 231.470487 
L 175.909595 232.90219 
L 176.144082 233.437336 
L 176.378568 232.653539 
L 176.613055 226.374674 
L 176.847542 225.350673 
L 177.316515 238.536385 
L 177.551002 237.553344 
L 177.785488 238.155567 
L 178.019975 237.135844 
L 178.254461 239.149389 
L 178.488948 238.616457 
L 178.723435 238.770191 
L 178.957921 238.258796 
L 179.192408 238.292015 
L 179.426895 238.590308 
L 179.895868 239.758341 
L 180.130354 238.536738 
L 180.364841 233.031952 
L 180.599328 232.748645 
L 180.833814 231.61784 
L 181.068301 235.07936 
L 181.537274 238.148851 
L 181.771761 238.087077 
L 182.006247 237.027292 
L 182.240734 234.813235 
L 182.709707 236.865551 
L 182.944194 239.715307 
L 183.413167 238.717166 
L 183.647654 239.654585 
L 183.88214 239.377421 
L 184.116627 239.359727 
L 184.351114 238.72877 
L 184.5856 239.27248 
L 184.820087 239.279915 
L 185.054573 239.681657 
L 185.28906 239.47281 
L 185.523547 239.7471 
L 185.758033 239.699548 
L 185.99252 239.855577 
L 186.227007 239.330261 
L 186.69598 239.197617 
L 186.930466 239.630249 
L 187.633926 239.673279 
L 187.868413 239.471751 
L 188.337386 239.554779 
L 188.571873 239.30943 
L 188.806359 239.453265 
L 189.040846 239.443419 
L 189.509819 239.679623 
L 190.213279 239.649383 
L 199.358257 239.661978 
L 199.592744 239.661978 
L 199.827231 239.341051 
L 200.296204 239.651195 
L 201.93761 239.652525 
L 202.64107 239.660454 
L 206.15837 239.65493 
L 207.330803 239.657199 
L 210.144642 239.661978 
L 210.379129 238.057343 
L 210.848102 239.608063 
L 211.082589 239.548038 
L 211.317075 237.720873 
L 211.551562 238.928663 
L 211.786048 239.473534 
L 212.020535 239.141706 
L 212.255022 238.501785 
L 212.489508 239.67684 
L 212.723995 239.633829 
L 213.192968 238.830636 
L 213.427455 239.568233 
L 213.661941 239.825792 
L 214.365401 239.522438 
L 214.599888 239.78164 
L 214.834375 239.315906 
L 215.068861 234.943744 
L 215.303348 236.036154 
L 215.537834 238.949334 
L 215.772321 239.209774 
L 216.006808 238.676759 
L 216.241294 239.465849 
L 216.475781 239.213555 
L 216.944754 237.128648 
L 217.413727 239.814767 
L 217.648214 239.832239 
L 218.117187 239.492381 
L 218.351674 239.770001 
L 219.055134 239.341669 
L 219.28962 239.772901 
L 219.524107 239.560684 
L 219.758594 239.580187 
L 219.99308 233.545725 
L 220.462054 239.505459 
L 220.69654 239.347177 
L 220.931027 236.944424 
L 221.165513 238.993137 
L 221.4 238.961114 
L 221.634487 237.85138 
L 221.868973 236.131506 
L 222.10346 238.4509 
L 222.337946 237.24653 
L 222.572433 228.893391 
L 222.80692 234.103114 
L 223.041406 232.346005 
L 223.51038 237.238644 
L 223.744866 238.914356 
L 223.979353 236.096356 
L 224.213839 236.646788 
L 224.448326 234.235402 
L 224.682813 237.841227 
L 224.917299 236.923061 
L 225.151786 239.819161 
L 225.386273 239.998958 
L 225.620759 239.758338 
L 225.855246 239.698969 
L 226.089732 239.093606 
L 226.324219 239.338906 
L 226.558706 238.833234 
L 226.793192 232.631286 
L 227.262166 238.060606 
L 227.496652 238.076421 
L 227.731139 236.324443 
L 227.965625 238.21843 
L 228.200112 238.262098 
L 228.669085 235.340392 
L 228.903572 232.249954 
L 229.372545 238.75791 
L 229.841518 237.84202 
L 230.076005 239.909251 
L 230.310492 236.767956 
L 230.544978 236.632261 
L 230.779465 231.755365 
L 231.013952 237.736015 
L 231.248438 234.291385 
L 231.482925 234.473224 
L 231.951898 238.770321 
L 232.186385 237.256878 
L 232.420871 238.538531 
L 232.655358 236.198913 
L 232.889845 237.074902 
L 233.124331 236.814989 
L 233.593304 239.599352 
L 233.827791 239.624772 
L 234.062278 239.82009 
L 234.296764 235.218224 
L 234.765737 239.104396 
L 235.000224 238.789625 
L 235.234711 238.168998 
L 235.469197 240.049418 
L 236.172657 237.592966 
L 236.407144 238.537824 
L 236.64163 238.786571 
L 236.876117 239.740068 
L 237.110604 238.755472 
L 237.34509 238.795485 
L 237.579577 239.601393 
L 237.814064 239.587569 
L 238.04855 239.261093 
L 238.283037 238.43636 
L 238.517523 218.686864 
L 238.75201 228.663963 
L 238.986497 225.018769 
L 239.45547 228.093722 
L 239.689957 234.684242 
L 239.924443 233.302487 
L 240.15893 232.939149 
L 240.393416 226.71624 
L 240.627903 234.275623 
L 240.86239 220.045355 
L 241.096876 190.781979 
L 241.331363 202.694555 
L 241.56585 203.641914 
L 241.800336 169.825531 
L 242.034823 177.941092 
L 242.269309 211.769479 
L 242.503796 218.025472 
L 242.738283 210.126139 
L 242.972769 208.281156 
L 243.207256 218.121013 
L 243.441743 212.235715 
L 243.676229 201.530496 
L 244.145202 237.604873 
L 244.379689 217.676973 
L 244.614176 226.197007 
L 245.083149 188.119173 
L 245.552122 217.256266 
L 246.021095 224.10827 
L 246.255582 221.27338 
L 246.490069 227.19108 
L 246.724555 206.083665 
L 246.959042 209.336599 
L 247.193529 220.512145 
L 247.428015 221.481191 
L 247.662502 225.903396 
L 247.896988 226.364885 
L 248.131475 230.841734 
L 248.365962 229.760566 
L 248.600448 227.626717 
L 248.834935 218.926891 
L 249.069421 222.540031 
L 249.538395 206.026407 
L 249.772881 208.109761 
L 250.007368 222.917357 
L 250.476341 219.032001 
L 250.710828 192.283054 
L 250.945314 208.772818 
L 251.179801 216.440629 
L 251.414288 215.344708 
L 251.648774 222.819609 
L 251.883261 234.418657 
L 252.352234 226.679339 
L 252.586721 218.889076 
L 252.821207 227.834316 
L 253.290181 232.623882 
L 253.524667 234.74364 
L 253.759154 234.468532 
L 253.993641 232.290127 
L 254.228127 210.280024 
L 254.462614 219.904552 
L 254.6971 217.553424 
L 254.931587 226.601912 
L 255.166074 227.363876 
L 255.40056 233.952475 
L 256.10402 223.164076 
L 256.338507 234.836392 
L 256.572993 231.402957 
L 256.80748 234.280482 
L 257.041967 231.106181 
L 257.276453 231.245274 
L 257.51094 234.220011 
L 257.745427 233.229336 
L 257.979913 231.31446 
L 258.2144 220.037621 
L 258.448886 230.617469 
L 258.683373 234.961145 
L 258.91786 231.049127 
L 259.152346 231.693551 
L 259.386833 239.314525 
L 259.855806 231.860684 
L 260.090293 230.648492 
L 260.324779 237.212013 
L 260.559266 238.555323 
L 260.793753 238.616965 
L 261.028239 237.615635 
L 261.497212 223.73372 
L 261.966186 237.286985 
L 262.435159 201.664068 
L 262.669646 219.848475 
L 262.904132 217.632153 
L 263.138619 208.879532 
L 263.607592 236.239825 
L 263.842079 230.467479 
L 264.076565 220.500586 
L 264.311052 222.745257 
L 264.545539 232.628431 
L 264.780025 232.353799 
L 265.014512 233.799182 
L 265.248998 238.284975 
L 265.483485 239.971528 
L 265.717972 240.426489 
L 265.952458 238.128796 
L 266.186945 237.711907 
L 266.421432 237.876828 
L 266.655918 234.323282 
L 266.890405 202.965259 
L 267.359378 235.997378 
L 267.593865 218.474526 
L 267.828351 224.967827 
L 268.062838 240.281862 
L 268.531811 223.391768 
L 268.766298 222.733094 
L 269.000784 236.563544 
L 269.235271 235.474481 
L 269.469758 231.514889 
L 269.704244 238.755283 
L 269.938731 238.689911 
L 270.173218 240.677695 
L 270.642191 235.932285 
L 271.111164 240.439433 
L 271.345651 237.550843 
L 271.580137 238.338694 
L 271.814624 240.194565 
L 272.049111 240.052052 
L 272.283597 237.806896 
L 272.518084 239.320673 
L 272.987057 237.985352 
L 273.45603 240.258858 
L 273.690517 238.477082 
L 273.925004 238.138401 
L 274.15949 239.755923 
L 274.393977 238.898506 
L 274.628463 238.618191 
L 274.86295 240.185237 
L 275.097437 237.907555 
L 275.331923 238.624846 
L 275.56641 240.136731 
L 275.800896 238.810161 
L 276.26987 239.670193 
L 277.911276 239.716219 
L 278.380249 239.571488 
L 279.083709 239.655877 
L 279.318196 239.615454 
L 279.552682 239.692093 
L 280.021656 239.61426 
L 280.256142 239.689085 
L 280.490629 239.581385 
L 281.428575 239.657669 
L 283.538955 239.661978 
L 283.773442 239.020124 
L 284.242415 239.640412 
L 284.711388 239.52739 
L 284.945875 239.68683 
L 285.414848 239.499445 
L 285.649335 239.332489 
L 285.883821 239.643071 
L 286.352795 239.67581 
L 287.759714 239.624753 
L 288.228687 239.650777 
L 291.277014 239.65242 
L 291.5115 239.325145 
L 291.745987 239.190998 
L 292.21496 239.61626 
L 292.683933 239.604767 
L 292.91842 239.646062 
L 293.62188 239.48778 
L 293.856366 239.673801 
L 295.0288 239.674036 
L 296.201233 239.654462 
L 296.670206 239.666819 
L 296.904693 238.386368 
L 297.373666 239.615291 
L 297.842639 239.370672 
L 298.077126 239.717115 
L 298.546099 239.328142 
L 298.780586 239.000265 
L 299.015072 239.624405 
L 299.249559 239.73435 
L 299.484045 239.365281 
L 299.718532 231.464706 
L 300.187505 239.252972 
L 300.421992 239.017885 
L 300.656478 237.922102 
L 300.890965 239.803255 
L 301.125452 238.970274 
L 301.594425 235.444985 
L 301.828912 239.273353 
L 302.063398 240.219527 
L 302.532371 239.657663 
L 302.766858 239.389167 
L 303.001345 239.880095 
L 303.704805 239.19373 
L 303.939291 239.917892 
L 304.173778 239.552568 
L 304.642751 239.58015 
L 304.877238 239.855053 
L 305.111724 239.650627 
L 305.346211 239.852142 
L 305.580698 239.351331 
L 305.815184 239.260605 
L 306.049671 237.23381 
L 306.284157 238.852348 
L 306.518644 239.565803 
L 306.753131 239.312614 
L 306.987617 239.303865 
L 307.222104 239.626547 
L 307.456591 239.274552 
L 307.691077 239.184675 
L 307.925564 232.715647 
L 308.394537 239.684633 
L 308.629024 229.988682 
L 308.86351 232.590903 
L 309.097997 238.858368 
L 309.332484 238.580999 
L 309.56697 236.241771 
L 309.801457 236.873265 
L 310.035943 238.640418 
L 310.27043 237.646443 
L 310.504917 234.637693 
L 310.739403 238.689541 
L 310.97389 240.067702 
L 311.208377 240.19225 
L 311.67735 239.257177 
L 312.146323 239.830505 
L 312.38081 239.191483 
L 312.615296 239.131764 
L 312.849783 239.903835 
L 313.08427 239.614851 
L 313.787729 239.587701 
L 314.022216 239.495896 
L 314.256703 239.714501 
L 314.725676 239.174935 
L 314.960162 239.257234 
L 315.194649 239.755141 
L 315.663622 239.287062 
L 315.898109 239.830533 
L 316.132596 237.964111 
L 316.367082 237.080408 
L 316.601569 238.939412 
L 316.836055 239.044269 
L 317.070542 238.872038 
L 317.305029 239.416025 
L 317.539515 231.590902 
L 318.008489 238.322698 
L 318.477462 238.028951 
L 318.711948 239.144458 
L 318.946435 227.938644 
L 319.415408 235.131079 
L 319.649895 238.525875 
L 319.884382 235.719634 
L 320.118868 236.349932 
L 320.353355 226.838104 
L 320.587841 176.400242 
L 320.822328 182.986422 
L 321.056815 224.769972 
L 321.291301 233.200477 
L 321.525788 222.753446 
L 321.760275 222.302958 
L 321.994761 226.234139 
L 322.229248 216.055683 
L 322.463734 186.885346 
L 322.932708 237.502961 
L 323.167194 237.236384 
L 323.401681 231.262434 
L 323.636168 232.411252 
L 323.870654 237.541628 
L 324.105141 231.533668 
L 324.339627 209.746612 
L 324.808601 234.285544 
L 325.043087 227.846732 
L 325.277574 229.133647 
L 325.512061 237.629411 
L 325.746547 212.922374 
L 325.981034 201.289548 
L 326.21552 219.425936 
L 326.450007 222.429918 
L 326.684494 223.065818 
L 326.91898 224.433884 
L 327.153467 234.463892 
L 327.387953 222.454656 
L 327.62244 217.667522 
L 328.091413 234.905913 
L 328.3259 231.646321 
L 328.560387 237.932403 
L 328.794873 232.339543 
L 329.02936 235.653273 
L 329.263846 236.051532 
L 329.498333 237.364273 
L 329.73282 237.474759 
L 330.201793 238.393099 
L 330.43628 237.414464 
L 331.374226 211.679093 
L 331.608713 227.34649 
L 332.077686 231.328302 
L 332.546659 228.96549 
L 332.781146 224.888717 
L 333.015632 225.970059 
L 333.250119 224.249306 
L 333.484606 233.457517 
L 333.719092 236.36669 
L 334.188066 223.784696 
L 334.657039 231.443283 
L 334.891525 228.851396 
L 335.360499 234.482298 
L 335.594985 234.007706 
L 335.829472 227.557172 
L 336.063959 231.648732 
L 336.298445 233.161637 
L 336.532932 236.248841 
L 336.767418 231.314317 
L 337.001905 235.619797 
L 337.236392 229.191847 
L 337.470878 231.753993 
L 337.705365 213.87246 
L 338.174338 231.254721 
L 338.408825 232.983262 
L 338.643311 229.799038 
L 338.877798 231.973639 
L 339.112285 227.417391 
L 339.346771 229.205847 
L 339.581258 223.265609 
L 339.815745 221.696157 
L 340.050231 224.666689 
L 340.519204 234.699558 
L 340.753691 232.51125 
L 340.988178 236.114304 
L 341.222664 237.205332 
L 341.457151 230.434377 
L 341.691637 215.038509 
L 342.160611 235.923231 
L 342.629584 160.368959 
L 343.098557 232.726652 
L 343.333044 223.463203 
L 343.56753 219.354274 
L 343.802017 233.025106 
L 344.036504 224.688031 
L 344.27099 205.364429 
L 344.505477 206.289521 
L 344.739964 237.923463 
L 344.97445 241.757567 
L 345.208937 237.31639 
L 345.443423 235.503821 
L 345.67791 236.310435 
L 345.912397 224.108749 
L 346.146883 224.260843 
L 346.38137 232.418057 
L 346.615857 235.314904 
L 347.08483 237.425734 
L 347.319316 237.609313 
L 347.553803 214.182839 
L 347.78829 220.672704 
L 348.022776 236.135021 
L 348.257263 238.82211 
L 348.49175 231.864154 
L 348.726236 236.439175 
L 348.960723 236.958681 
L 349.195209 236.540909 
L 349.429696 227.823655 
L 349.664183 234.947318 
L 349.898669 223.388881 
L 350.133156 230.761166 
L 350.367643 230.744654 
L 350.836616 232.509035 
L 351.071102 226.763358 
L 351.305589 226.054844 
L 351.540076 229.654671 
L 351.774562 229.34828 
L 352.243536 235.201373 
L 352.478022 237.690011 
L 352.712509 236.866503 
L 352.946995 232.032073 
L 353.181482 236.754384 
L 353.415969 231.701109 
L 353.650455 219.735876 
L 353.884942 230.02087 
L 354.119428 234.999577 
L 354.353915 231.953785 
L 354.588402 221.221659 
L 354.822888 220.541962 
L 355.057375 228.310499 
L 355.291862 230.564062 
L 355.526348 228.323419 
L 355.760835 234.721009 
L 355.995321 236.631221 
L 356.464295 229.996473 
L 356.698781 233.330738 
L 356.933268 240.310492 
L 357.167755 239.940115 
L 357.402241 238.112578 
L 357.636728 238.632742 
L 357.871214 240.253656 
L 358.105701 238.399557 
L 358.340188 238.600906 
L 358.574674 237.738454 
L 358.809161 239.085992 
L 359.043648 239.68875 
L 359.512621 238.237142 
L 359.981594 239.526925 
L 360.216081 240.088158 
L 360.450567 232.463866 
L 360.685054 187.89518 
L 361.154027 236.500744 
L 361.388514 234.934637 
L 361.623 229.460629 
L 361.857487 239.631585 
L 362.091974 233.812757 
L 362.560947 214.420083 
L 362.795434 237.237636 
L 363.02992 242.116364 
L 363.498893 239.329697 
L 363.73338 238.449954 
L 363.967867 241.288214 
L 364.43684 237.60274 
L 364.671327 237.09388 
L 364.905813 241.260646 
L 365.1403 238.871433 
L 365.609273 239.476893 
L 365.84376 240.704805 
L 366.078246 240.019163 
L 366.312733 240.746855 
L 366.547219 237.549338 
L 366.781706 237.200959 
L 367.016193 238.786048 
L 367.250679 241.422209 
L 367.485166 239.424342 
L 367.719653 238.618278 
L 367.954139 240.256515 
L 368.188626 238.829787 
L 368.423112 238.554577 
L 368.657599 240.009744 
L 368.892086 237.593072 
L 369.361059 239.980063 
L 369.595546 239.490854 
L 370.533492 239.661978 
L 373.581818 239.661978 
L 373.581818 239.661978 
" style="fill:none;stroke:#ff7f0e;stroke-linecap:square;stroke-width:1.5;"/>
   </g>
   <g id="patch_3">
    <path d="M 54 252 
L 54 34.56 
" style="fill:none;stroke:#000000;stroke-linecap:square;stroke-linejoin:miter;stroke-width:0.8;"/>
   </g>
   <g id="patch_4">
    <path d="M 388.8 252 
L 388.8 34.56 
" style="fill:none;stroke:#000000;stroke-linecap:square;stroke-linejoin:miter;stroke-width:0.8;"/>
   </g>
   <g id="patch_5">
    <path d="M 54 252 
L 388.8 252 
" style="fill:none;stroke:#000000;stroke-linecap:square;stroke-linejoin:miter;stroke-width:0.8;"/>
   </g>
   <g id="patch_6">
    <path d="M 54 34.56 
L 388.8 34.56 
" style="fill:none;stroke:#000000;stroke-linecap:square;stroke-linejoin:miter;stroke-width:0.8;"/>
   </g>
   <g id="legend_1">
    <g id="patch_7">
     <path d="M 61 71.91625 
L 170.829688 71.91625 
Q 172.829688 71.91625 172.829688 69.91625 
L 172.829688 41.56 
Q 172.829688 39.56 170.829688 39.56 
L 61 39.56 
Q 59 39.56 59 41.56 
L 59 69.91625 
Q 59 71.91625 61 71.91625 
z
" style="fill:#ffffff;opacity:0.8;stroke:#cccccc;stroke-linejoin:miter;"/>
    </g>
    <g id="line2d_18">
     <path d="M 63 47.658437 
L 83 47.658437 
" style="fill:none;stroke:#1f77b4;stroke-linecap:square;stroke-width:1.5;"/>
    </g>
    <g id="line2d_19"/>
    <g id="text_16">
     <!-- True value -->
     <defs>
      <path d="M -0.296875 72.90625 
L 61.375 72.90625 
L 61.375 64.59375 
L 35.5 64.59375 
L 35.5 0 
L 25.59375 0 
L 25.59375 64.59375 
L -0.296875 64.59375 
z
" id="DejaVuSans-84"/>
      <path d="M 41.109375 46.296875 
Q 39.59375 47.171875 37.8125 47.578125 
Q 36.03125 48 33.890625 48 
Q 26.265625 48 22.1875 43.046875 
Q 18.109375 38.09375 18.109375 28.8125 
L 18.109375 0 
L 9.078125 0 
L 9.078125 54.6875 
L 18.109375 54.6875 
L 18.109375 46.1875 
Q 20.953125 51.171875 25.484375 53.578125 
Q 30.03125 56 36.53125 56 
Q 37.453125 56 38.578125 55.875 
Q 39.703125 55.765625 41.0625 55.515625 
z
" id="DejaVuSans-114"/>
      <path d="M 8.5 21.578125 
L 8.5 54.6875 
L 17.484375 54.6875 
L 17.484375 21.921875 
Q 17.484375 14.15625 20.5 10.265625 
Q 23.53125 6.390625 29.59375 6.390625 
Q 36.859375 6.390625 41.078125 11.03125 
Q 45.3125 15.671875 45.3125 23.6875 
L 45.3125 54.6875 
L 54.296875 54.6875 
L 54.296875 0 
L 45.3125 0 
L 45.3125 8.40625 
Q 42.046875 3.421875 37.71875 1 
Q 33.40625 -1.421875 27.6875 -1.421875 
Q 18.265625 -1.421875 13.375 4.4375 
Q 8.5 10.296875 8.5 21.578125 
z
M 31.109375 56 
z
" id="DejaVuSans-117"/>
      <path d="M 56.203125 29.59375 
L 56.203125 25.203125 
L 14.890625 25.203125 
Q 15.484375 15.921875 20.484375 11.0625 
Q 25.484375 6.203125 34.421875 6.203125 
Q 39.59375 6.203125 44.453125 7.46875 
Q 49.3125 8.734375 54.109375 11.28125 
L 54.109375 2.78125 
Q 49.265625 0.734375 44.1875 -0.34375 
Q 39.109375 -1.421875 33.890625 -1.421875 
Q 20.796875 -1.421875 13.15625 6.1875 
Q 5.515625 13.8125 5.515625 26.8125 
Q 5.515625 40.234375 12.765625 48.109375 
Q 20.015625 56 32.328125 56 
Q 43.359375 56 49.78125 48.890625 
Q 56.203125 41.796875 56.203125 29.59375 
z
M 47.21875 32.234375 
Q 47.125 39.59375 43.09375 43.984375 
Q 39.0625 48.390625 32.421875 48.390625 
Q 24.90625 48.390625 20.390625 44.140625 
Q 15.875 39.890625 15.1875 32.171875 
z
" id="DejaVuSans-101"/>
      <path id="DejaVuSans-32"/>
      <path d="M 2.984375 54.6875 
L 12.5 54.6875 
L 29.59375 8.796875 
L 46.6875 54.6875 
L 56.203125 54.6875 
L 35.6875 0 
L 23.484375 0 
z
" id="DejaVuSans-118"/>
      <path d="M 34.28125 27.484375 
Q 23.390625 27.484375 19.1875 25 
Q 14.984375 22.515625 14.984375 16.5 
Q 14.984375 11.71875 18.140625 8.90625 
Q 21.296875 6.109375 26.703125 6.109375 
Q 34.1875 6.109375 38.703125 11.40625 
Q 43.21875 16.703125 43.21875 25.484375 
L 43.21875 27.484375 
z
M 52.203125 31.203125 
L 52.203125 0 
L 43.21875 0 
L 43.21875 8.296875 
Q 40.140625 3.328125 35.546875 0.953125 
Q 30.953125 -1.421875 24.3125 -1.421875 
Q 15.921875 -1.421875 10.953125 3.296875 
Q 6 8.015625 6 15.921875 
Q 6 25.140625 12.171875 29.828125 
Q 18.359375 34.515625 30.609375 34.515625 
L 43.21875 34.515625 
L 43.21875 35.40625 
Q 43.21875 41.609375 39.140625 45 
Q 35.0625 48.390625 27.6875 48.390625 
Q 23 48.390625 18.546875 47.265625 
Q 14.109375 46.140625 10.015625 43.890625 
L 10.015625 52.203125 
Q 14.9375 54.109375 19.578125 55.046875 
Q 24.21875 56 28.609375 56 
Q 40.484375 56 46.34375 49.84375 
Q 52.203125 43.703125 52.203125 31.203125 
z
" id="DejaVuSans-97"/>
      <path d="M 9.421875 75.984375 
L 18.40625 75.984375 
L 18.40625 0 
L 9.421875 0 
z
" id="DejaVuSans-108"/>
     </defs>
     <g transform="translate(91 51.158437)scale(0.1 -0.1)">
      <use xlink:href="#DejaVuSans-84"/>
      <use x="60.865234" xlink:href="#DejaVuSans-114"/>
      <use x="101.978516" xlink:href="#DejaVuSans-117"/>
      <use x="165.357422" xlink:href="#DejaVuSans-101"/>
      <use x="226.880859" xlink:href="#DejaVuSans-32"/>
      <use x="258.667969" xlink:href="#DejaVuSans-118"/>
      <use x="317.847656" xlink:href="#DejaVuSans-97"/>
      <use x="379.126953" xlink:href="#DejaVuSans-108"/>
      <use x="406.910156" xlink:href="#DejaVuSans-117"/>
      <use x="470.289062" xlink:href="#DejaVuSans-101"/>
     </g>
    </g>
    <g id="line2d_20">
     <path d="M 63 62.336562 
L 83 62.336562 
" style="fill:none;stroke:#ff7f0e;stroke-linecap:square;stroke-width:1.5;"/>
    </g>
    <g id="line2d_21"/>
    <g id="text_17">
     <!-- Predicted value -->
     <defs>
      <path d="M 19.671875 64.796875 
L 19.671875 37.40625 
L 32.078125 37.40625 
Q 38.96875 37.40625 42.71875 40.96875 
Q 46.484375 44.53125 46.484375 51.125 
Q 46.484375 57.671875 42.71875 61.234375 
Q 38.96875 64.796875 32.078125 64.796875 
z
M 9.8125 72.90625 
L 32.078125 72.90625 
Q 44.34375 72.90625 50.609375 67.359375 
Q 56.890625 61.8125 56.890625 51.125 
Q 56.890625 40.328125 50.609375 34.8125 
Q 44.34375 29.296875 32.078125 29.296875 
L 19.671875 29.296875 
L 19.671875 0 
L 9.8125 0 
z
" id="DejaVuSans-80"/>
      <path d="M 45.40625 46.390625 
L 45.40625 75.984375 
L 54.390625 75.984375 
L 54.390625 0 
L 45.40625 0 
L 45.40625 8.203125 
Q 42.578125 3.328125 38.25 0.953125 
Q 33.9375 -1.421875 27.875 -1.421875 
Q 17.96875 -1.421875 11.734375 6.484375 
Q 5.515625 14.40625 5.515625 27.296875 
Q 5.515625 40.1875 11.734375 48.09375 
Q 17.96875 56 27.875 56 
Q 33.9375 56 38.25 53.625 
Q 42.578125 51.265625 45.40625 46.390625 
z
M 14.796875 27.296875 
Q 14.796875 17.390625 18.875 11.75 
Q 22.953125 6.109375 30.078125 6.109375 
Q 37.203125 6.109375 41.296875 11.75 
Q 45.40625 17.390625 45.40625 27.296875 
Q 45.40625 37.203125 41.296875 42.84375 
Q 37.203125 48.484375 30.078125 48.484375 
Q 22.953125 48.484375 18.875 42.84375 
Q 14.796875 37.203125 14.796875 27.296875 
z
" id="DejaVuSans-100"/>
      <path d="M 9.421875 54.6875 
L 18.40625 54.6875 
L 18.40625 0 
L 9.421875 0 
z
M 9.421875 75.984375 
L 18.40625 75.984375 
L 18.40625 64.59375 
L 9.421875 64.59375 
z
" id="DejaVuSans-105"/>
      <path d="M 48.78125 52.59375 
L 48.78125 44.1875 
Q 44.96875 46.296875 41.140625 47.34375 
Q 37.3125 48.390625 33.40625 48.390625 
Q 24.65625 48.390625 19.8125 42.84375 
Q 14.984375 37.3125 14.984375 27.296875 
Q 14.984375 17.28125 19.8125 11.734375 
Q 24.65625 6.203125 33.40625 6.203125 
Q 37.3125 6.203125 41.140625 7.25 
Q 44.96875 8.296875 48.78125 10.40625 
L 48.78125 2.09375 
Q 45.015625 0.34375 40.984375 -0.53125 
Q 36.96875 -1.421875 32.421875 -1.421875 
Q 20.0625 -1.421875 12.78125 6.34375 
Q 5.515625 14.109375 5.515625 27.296875 
Q 5.515625 40.671875 12.859375 48.328125 
Q 20.21875 56 33.015625 56 
Q 37.15625 56 41.109375 55.140625 
Q 45.0625 54.296875 48.78125 52.59375 
z
" id="DejaVuSans-99"/>
      <path d="M 18.3125 70.21875 
L 18.3125 54.6875 
L 36.8125 54.6875 
L 36.8125 47.703125 
L 18.3125 47.703125 
L 18.3125 18.015625 
Q 18.3125 11.328125 20.140625 9.421875 
Q 21.96875 7.515625 27.59375 7.515625 
L 36.8125 7.515625 
L 36.8125 0 
L 27.59375 0 
Q 17.1875 0 13.234375 3.875 
Q 9.28125 7.765625 9.28125 18.015625 
L 9.28125 47.703125 
L 2.6875 47.703125 
L 2.6875 54.6875 
L 9.28125 54.6875 
L 9.28125 70.21875 
z
" id="DejaVuSans-116"/>
     </defs>
     <g transform="translate(91 65.836562)scale(0.1 -0.1)">
      <use xlink:href="#DejaVuSans-80"/>
      <use x="60.287109" xlink:href="#DejaVuSans-114"/>
      <use x="101.369141" xlink:href="#DejaVuSans-101"/>
      <use x="162.892578" xlink:href="#DejaVuSans-100"/>
      <use x="226.369141" xlink:href="#DejaVuSans-105"/>
      <use x="254.152344" xlink:href="#DejaVuSans-99"/>
      <use x="309.132812" xlink:href="#DejaVuSans-116"/>
      <use x="348.341797" xlink:href="#DejaVuSans-101"/>
      <use x="409.865234" xlink:href="#DejaVuSans-100"/>
      <use x="473.341797" xlink:href="#DejaVuSans-32"/>
      <use x="505.128906" xlink:href="#DejaVuSans-118"/>
      <use x="564.308594" xlink:href="#DejaVuSans-97"/>
      <use x="625.587891" xlink:href="#DejaVuSans-108"/>
      <use x="653.371094" xlink:href="#DejaVuSans-117"/>
      <use x="716.75" xlink:href="#DejaVuSans-101"/>
     </g>
    </g>
   </g>
  </g>
 </g>
 <defs>
  <clipPath id="pbd4ab0f300">
   <rect height="217.44" width="334.8" x="54" y="34.56"/>
  </clipPath>
 </defs>
</svg>
