<?xml version="1.0" encoding="utf-8" standalone="no"?>
<!DOCTYPE svg PUBLIC "-//W3C//DTD SVG 1.1//EN"
  "http://www.w3.org/Graphics/SVG/1.1/DTD/svg11.dtd">
<!-- Created with matplotlib (https://matplotlib.org/) -->
<svg height="288pt" version="1.1" viewBox="0 0 432 288" width="432pt" xmlns="http://www.w3.org/2000/svg" xmlns:xlink="http://www.w3.org/1999/xlink">
 <defs>
  <style type="text/css">
*{stroke-linecap:butt;stroke-linejoin:round;}
  </style>
 </defs>
 <g id="figure_1">
  <g id="patch_1">
   <path d="M 0 288 
L 432 288 
L 432 0 
L 0 0 
z
" style="fill:#ffffff;"/>
  </g>
  <g id="axes_1">
   <g id="patch_2">
    <path d="M 54 252 
L 388.8 252 
L 388.8 34.56 
L 54 34.56 
z
" style="fill:#ffffff;"/>
   </g>
   <g id="matplotlib.axis_1">
    <g id="xtick_1">
     <g id="line2d_1">
      <defs>
       <path d="M 0 0 
L 0 3.5 
" id="m6661a7b5f5" style="stroke:#000000;stroke-width:0.8;"/>
      </defs>
      <g>
       <use style="stroke:#000000;stroke-width:0.8;" x="69.218182" xlink:href="#m6661a7b5f5" y="252"/>
      </g>
     </g>
     <g id="text_1">
      <!-- 0 -->
      <defs>
       <path d="M 31.78125 66.40625 
Q 24.171875 66.40625 20.328125 58.90625 
Q 16.5 51.421875 16.5 36.375 
Q 16.5 21.390625 20.328125 13.890625 
Q 24.171875 6.390625 31.78125 6.390625 
Q 39.453125 6.390625 43.28125 13.890625 
Q 47.125 21.390625 47.125 36.375 
Q 47.125 51.421875 43.28125 58.90625 
Q 39.453125 66.40625 31.78125 66.40625 
z
M 31.78125 74.21875 
Q 44.046875 74.21875 50.515625 64.515625 
Q 56.984375 54.828125 56.984375 36.375 
Q 56.984375 17.96875 50.515625 8.265625 
Q 44.046875 -1.421875 31.78125 -1.421875 
Q 19.53125 -1.421875 13.0625 8.265625 
Q 6.59375 17.96875 6.59375 36.375 
Q 6.59375 54.828125 13.0625 64.515625 
Q 19.53125 74.21875 31.78125 74.21875 
z
" id="DejaVuSans-48"/>
      </defs>
      <g transform="translate(66.036932 266.598437)scale(0.1 -0.1)">
       <use xlink:href="#DejaVuSans-48"/>
      </g>
     </g>
    </g>
    <g id="xtick_2">
     <g id="line2d_2">
      <g>
       <use style="stroke:#000000;stroke-width:0.8;" x="118.388398" xlink:href="#m6661a7b5f5" y="252"/>
      </g>
     </g>
     <g id="text_2">
      <!-- 200 -->
      <defs>
       <path d="M 19.1875 8.296875 
L 53.609375 8.296875 
L 53.609375 0 
L 7.328125 0 
L 7.328125 8.296875 
Q 12.9375 14.109375 22.625 23.890625 
Q 32.328125 33.6875 34.8125 36.53125 
Q 39.546875 41.84375 41.421875 45.53125 
Q 43.3125 49.21875 43.3125 52.78125 
Q 43.3125 58.59375 39.234375 62.25 
Q 35.15625 65.921875 28.609375 65.921875 
Q 23.96875 65.921875 18.8125 64.3125 
Q 13.671875 62.703125 7.8125 59.421875 
L 7.8125 69.390625 
Q 13.765625 71.78125 18.9375 73 
Q 24.125 74.21875 28.421875 74.21875 
Q 39.75 74.21875 46.484375 68.546875 
Q 53.21875 62.890625 53.21875 53.421875 
Q 53.21875 48.921875 51.53125 44.890625 
Q 49.859375 40.875 45.40625 35.40625 
Q 44.1875 33.984375 37.640625 27.21875 
Q 31.109375 20.453125 19.1875 8.296875 
z
" id="DejaVuSans-50"/>
      </defs>
      <g transform="translate(108.844648 266.598437)scale(0.1 -0.1)">
       <use xlink:href="#DejaVuSans-50"/>
       <use x="63.623047" xlink:href="#DejaVuSans-48"/>
       <use x="127.246094" xlink:href="#DejaVuSans-48"/>
      </g>
     </g>
    </g>
    <g id="xtick_3">
     <g id="line2d_3">
      <g>
       <use style="stroke:#000000;stroke-width:0.8;" x="167.558614" xlink:href="#m6661a7b5f5" y="252"/>
      </g>
     </g>
     <g id="text_3">
      <!-- 400 -->
      <defs>
       <path d="M 37.796875 64.3125 
L 12.890625 25.390625 
L 37.796875 25.390625 
z
M 35.203125 72.90625 
L 47.609375 72.90625 
L 47.609375 25.390625 
L 58.015625 25.390625 
L 58.015625 17.1875 
L 47.609375 17.1875 
L 47.609375 0 
L 37.796875 0 
L 37.796875 17.1875 
L 4.890625 17.1875 
L 4.890625 26.703125 
z
" id="DejaVuSans-52"/>
      </defs>
      <g transform="translate(158.014864 266.598437)scale(0.1 -0.1)">
       <use xlink:href="#DejaVuSans-52"/>
       <use x="63.623047" xlink:href="#DejaVuSans-48"/>
       <use x="127.246094" xlink:href="#DejaVuSans-48"/>
      </g>
     </g>
    </g>
    <g id="xtick_4">
     <g id="line2d_4">
      <g>
       <use style="stroke:#000000;stroke-width:0.8;" x="216.728829" xlink:href="#m6661a7b5f5" y="252"/>
      </g>
     </g>
     <g id="text_4">
      <!-- 600 -->
      <defs>
       <path d="M 33.015625 40.375 
Q 26.375 40.375 22.484375 35.828125 
Q 18.609375 31.296875 18.609375 23.390625 
Q 18.609375 15.53125 22.484375 10.953125 
Q 26.375 6.390625 33.015625 6.390625 
Q 39.65625 6.390625 43.53125 10.953125 
Q 47.40625 15.53125 47.40625 23.390625 
Q 47.40625 31.296875 43.53125 35.828125 
Q 39.65625 40.375 33.015625 40.375 
z
M 52.59375 71.296875 
L 52.59375 62.3125 
Q 48.875 64.0625 45.09375 64.984375 
Q 41.3125 65.921875 37.59375 65.921875 
Q 27.828125 65.921875 22.671875 59.328125 
Q 17.53125 52.734375 16.796875 39.40625 
Q 19.671875 43.65625 24.015625 45.921875 
Q 28.375 48.1875 33.59375 48.1875 
Q 44.578125 48.1875 50.953125 41.515625 
Q 57.328125 34.859375 57.328125 23.390625 
Q 57.328125 12.15625 50.6875 5.359375 
Q 44.046875 -1.421875 33.015625 -1.421875 
Q 20.359375 -1.421875 13.671875 8.265625 
Q 6.984375 17.96875 6.984375 36.375 
Q 6.984375 53.65625 15.1875 63.9375 
Q 23.390625 74.21875 37.203125 74.21875 
Q 40.921875 74.21875 44.703125 73.484375 
Q 48.484375 72.75 52.59375 71.296875 
z
" id="DejaVuSans-54"/>
      </defs>
      <g transform="translate(207.185079 266.598437)scale(0.1 -0.1)">
       <use xlink:href="#DejaVuSans-54"/>
       <use x="63.623047" xlink:href="#DejaVuSans-48"/>
       <use x="127.246094" xlink:href="#DejaVuSans-48"/>
      </g>
     </g>
    </g>
    <g id="xtick_5">
     <g id="line2d_5">
      <g>
       <use style="stroke:#000000;stroke-width:0.8;" x="265.899045" xlink:href="#m6661a7b5f5" y="252"/>
      </g>
     </g>
     <g id="text_5">
      <!-- 800 -->
      <defs>
       <path d="M 31.78125 34.625 
Q 24.75 34.625 20.71875 30.859375 
Q 16.703125 27.09375 16.703125 20.515625 
Q 16.703125 13.921875 20.71875 10.15625 
Q 24.75 6.390625 31.78125 6.390625 
Q 38.8125 6.390625 42.859375 10.171875 
Q 46.921875 13.96875 46.921875 20.515625 
Q 46.921875 27.09375 42.890625 30.859375 
Q 38.875 34.625 31.78125 34.625 
z
M 21.921875 38.8125 
Q 15.578125 40.375 12.03125 44.71875 
Q 8.5 49.078125 8.5 55.328125 
Q 8.5 64.0625 14.71875 69.140625 
Q 20.953125 74.21875 31.78125 74.21875 
Q 42.671875 74.21875 48.875 69.140625 
Q 55.078125 64.0625 55.078125 55.328125 
Q 55.078125 49.078125 51.53125 44.71875 
Q 48 40.375 41.703125 38.8125 
Q 48.828125 37.15625 52.796875 32.3125 
Q 56.78125 27.484375 56.78125 20.515625 
Q 56.78125 9.90625 50.3125 4.234375 
Q 43.84375 -1.421875 31.78125 -1.421875 
Q 19.734375 -1.421875 13.25 4.234375 
Q 6.78125 9.90625 6.78125 20.515625 
Q 6.78125 27.484375 10.78125 32.3125 
Q 14.796875 37.15625 21.921875 38.8125 
z
M 18.3125 54.390625 
Q 18.3125 48.734375 21.84375 45.5625 
Q 25.390625 42.390625 31.78125 42.390625 
Q 38.140625 42.390625 41.71875 45.5625 
Q 45.3125 48.734375 45.3125 54.390625 
Q 45.3125 60.0625 41.71875 63.234375 
Q 38.140625 66.40625 31.78125 66.40625 
Q 25.390625 66.40625 21.84375 63.234375 
Q 18.3125 60.0625 18.3125 54.390625 
z
" id="DejaVuSans-56"/>
      </defs>
      <g transform="translate(256.355295 266.598437)scale(0.1 -0.1)">
       <use xlink:href="#DejaVuSans-56"/>
       <use x="63.623047" xlink:href="#DejaVuSans-48"/>
       <use x="127.246094" xlink:href="#DejaVuSans-48"/>
      </g>
     </g>
    </g>
    <g id="xtick_6">
     <g id="line2d_6">
      <g>
       <use style="stroke:#000000;stroke-width:0.8;" x="315.069261" xlink:href="#m6661a7b5f5" y="252"/>
      </g>
     </g>
     <g id="text_6">
      <!-- 1000 -->
      <defs>
       <path d="M 12.40625 8.296875 
L 28.515625 8.296875 
L 28.515625 63.921875 
L 10.984375 60.40625 
L 10.984375 69.390625 
L 28.421875 72.90625 
L 38.28125 72.90625 
L 38.28125 8.296875 
L 54.390625 8.296875 
L 54.390625 0 
L 12.40625 0 
z
" id="DejaVuSans-49"/>
      </defs>
      <g transform="translate(302.344261 266.598437)scale(0.1 -0.1)">
       <use xlink:href="#DejaVuSans-49"/>
       <use x="63.623047" xlink:href="#DejaVuSans-48"/>
       <use x="127.246094" xlink:href="#DejaVuSans-48"/>
       <use x="190.869141" xlink:href="#DejaVuSans-48"/>
      </g>
     </g>
    </g>
    <g id="xtick_7">
     <g id="line2d_7">
      <g>
       <use style="stroke:#000000;stroke-width:0.8;" x="364.239477" xlink:href="#m6661a7b5f5" y="252"/>
      </g>
     </g>
     <g id="text_7">
      <!-- 1200 -->
      <g transform="translate(351.514477 266.598437)scale(0.1 -0.1)">
       <use xlink:href="#DejaVuSans-49"/>
       <use x="63.623047" xlink:href="#DejaVuSans-50"/>
       <use x="127.246094" xlink:href="#DejaVuSans-48"/>
       <use x="190.869141" xlink:href="#DejaVuSans-48"/>
      </g>
     </g>
    </g>
   </g>
   <g id="matplotlib.axis_2">
    <g id="ytick_1">
     <g id="line2d_8">
      <defs>
       <path d="M 0 0 
L -3.5 0 
" id="m43d471659f" style="stroke:#000000;stroke-width:0.8;"/>
      </defs>
      <g>
       <use style="stroke:#000000;stroke-width:0.8;" x="54" xlink:href="#m43d471659f" y="238.817898"/>
      </g>
     </g>
     <g id="text_8">
      <!-- 0 -->
      <g transform="translate(40.6375 242.617117)scale(0.1 -0.1)">
       <use xlink:href="#DejaVuSans-48"/>
      </g>
     </g>
    </g>
    <g id="ytick_2">
     <g id="line2d_9">
      <g>
       <use style="stroke:#000000;stroke-width:0.8;" x="54" xlink:href="#m43d471659f" y="206.313841"/>
      </g>
     </g>
     <g id="text_9">
      <!-- 50 -->
      <defs>
       <path d="M 10.796875 72.90625 
L 49.515625 72.90625 
L 49.515625 64.59375 
L 19.828125 64.59375 
L 19.828125 46.734375 
Q 21.96875 47.46875 24.109375 47.828125 
Q 26.265625 48.1875 28.421875 48.1875 
Q 40.625 48.1875 47.75 41.5 
Q 54.890625 34.8125 54.890625 23.390625 
Q 54.890625 11.625 47.5625 5.09375 
Q 40.234375 -1.421875 26.90625 -1.421875 
Q 22.3125 -1.421875 17.546875 -0.640625 
Q 12.796875 0.140625 7.71875 1.703125 
L 7.71875 11.625 
Q 12.109375 9.234375 16.796875 8.0625 
Q 21.484375 6.890625 26.703125 6.890625 
Q 35.15625 6.890625 40.078125 11.328125 
Q 45.015625 15.765625 45.015625 23.390625 
Q 45.015625 31 40.078125 35.4375 
Q 35.15625 39.890625 26.703125 39.890625 
Q 22.75 39.890625 18.8125 39.015625 
Q 14.890625 38.140625 10.796875 36.28125 
z
" id="DejaVuSans-53"/>
      </defs>
      <g transform="translate(34.275 210.11306)scale(0.1 -0.1)">
       <use xlink:href="#DejaVuSans-53"/>
       <use x="63.623047" xlink:href="#DejaVuSans-48"/>
      </g>
     </g>
    </g>
    <g id="ytick_3">
     <g id="line2d_10">
      <g>
       <use style="stroke:#000000;stroke-width:0.8;" x="54" xlink:href="#m43d471659f" y="173.809784"/>
      </g>
     </g>
     <g id="text_10">
      <!-- 100 -->
      <g transform="translate(27.9125 177.609003)scale(0.1 -0.1)">
       <use xlink:href="#DejaVuSans-49"/>
       <use x="63.623047" xlink:href="#DejaVuSans-48"/>
       <use x="127.246094" xlink:href="#DejaVuSans-48"/>
      </g>
     </g>
    </g>
    <g id="ytick_4">
     <g id="line2d_11">
      <g>
       <use style="stroke:#000000;stroke-width:0.8;" x="54" xlink:href="#m43d471659f" y="141.305727"/>
      </g>
     </g>
     <g id="text_11">
      <!-- 150 -->
      <g transform="translate(27.9125 145.104945)scale(0.1 -0.1)">
       <use xlink:href="#DejaVuSans-49"/>
       <use x="63.623047" xlink:href="#DejaVuSans-53"/>
       <use x="127.246094" xlink:href="#DejaVuSans-48"/>
      </g>
     </g>
    </g>
    <g id="ytick_5">
     <g id="line2d_12">
      <g>
       <use style="stroke:#000000;stroke-width:0.8;" x="54" xlink:href="#m43d471659f" y="108.80167"/>
      </g>
     </g>
     <g id="text_12">
      <!-- 200 -->
      <g transform="translate(27.9125 112.600888)scale(0.1 -0.1)">
       <use xlink:href="#DejaVuSans-50"/>
       <use x="63.623047" xlink:href="#DejaVuSans-48"/>
       <use x="127.246094" xlink:href="#DejaVuSans-48"/>
      </g>
     </g>
    </g>
    <g id="ytick_6">
     <g id="line2d_13">
      <g>
       <use style="stroke:#000000;stroke-width:0.8;" x="54" xlink:href="#m43d471659f" y="76.297612"/>
      </g>
     </g>
     <g id="text_13">
      <!-- 250 -->
      <g transform="translate(27.9125 80.096831)scale(0.1 -0.1)">
       <use xlink:href="#DejaVuSans-50"/>
       <use x="63.623047" xlink:href="#DejaVuSans-53"/>
       <use x="127.246094" xlink:href="#DejaVuSans-48"/>
      </g>
     </g>
    </g>
    <g id="ytick_7">
     <g id="line2d_14">
      <g>
       <use style="stroke:#000000;stroke-width:0.8;" x="54" xlink:href="#m43d471659f" y="43.793555"/>
      </g>
     </g>
     <g id="text_14">
      <!-- 300 -->
      <defs>
       <path d="M 40.578125 39.3125 
Q 47.65625 37.796875 51.625 33 
Q 55.609375 28.21875 55.609375 21.1875 
Q 55.609375 10.40625 48.1875 4.484375 
Q 40.765625 -1.421875 27.09375 -1.421875 
Q 22.515625 -1.421875 17.65625 -0.515625 
Q 12.796875 0.390625 7.625 2.203125 
L 7.625 11.71875 
Q 11.71875 9.328125 16.59375 8.109375 
Q 21.484375 6.890625 26.8125 6.890625 
Q 36.078125 6.890625 40.9375 10.546875 
Q 45.796875 14.203125 45.796875 21.1875 
Q 45.796875 27.640625 41.28125 31.265625 
Q 36.765625 34.90625 28.71875 34.90625 
L 20.21875 34.90625 
L 20.21875 43.015625 
L 29.109375 43.015625 
Q 36.375 43.015625 40.234375 45.921875 
Q 44.09375 48.828125 44.09375 54.296875 
Q 44.09375 59.90625 40.109375 62.90625 
Q 36.140625 65.921875 28.71875 65.921875 
Q 24.65625 65.921875 20.015625 65.03125 
Q 15.375 64.15625 9.8125 62.3125 
L 9.8125 71.09375 
Q 15.4375 72.65625 20.34375 73.4375 
Q 25.25 74.21875 29.59375 74.21875 
Q 40.828125 74.21875 47.359375 69.109375 
Q 53.90625 64.015625 53.90625 55.328125 
Q 53.90625 49.265625 50.4375 45.09375 
Q 46.96875 40.921875 40.578125 39.3125 
z
" id="DejaVuSans-51"/>
      </defs>
      <g transform="translate(27.9125 47.592774)scale(0.1 -0.1)">
       <use xlink:href="#DejaVuSans-51"/>
       <use x="63.623047" xlink:href="#DejaVuSans-48"/>
       <use x="127.246094" xlink:href="#DejaVuSans-48"/>
      </g>
     </g>
    </g>
   </g>
   <g id="line2d_15">
    <path clip-path="url(#p093e4dbe9e)" d="M 69.218182 238.817898 
L 69.709884 231.667006 
L 69.955735 224.516113 
L 70.447437 238.817898 
L 70.939139 229.066681 
L 71.18499 238.167817 
L 71.430842 238.817898 
L 71.676693 227.766519 
L 71.922544 238.817898 
L 72.414246 220.615626 
L 72.660097 238.817898 
L 72.905948 238.817898 
L 73.151799 226.466356 
L 73.39765 238.167817 
L 73.643501 238.167817 
L 73.889352 238.817898 
L 74.381054 238.817898 
L 74.626906 237.517736 
L 74.872757 238.817898 
L 75.118608 236.867655 
L 75.364459 238.817898 
L 75.61031 236.217574 
L 75.856161 238.817898 
L 76.102012 231.667006 
L 76.347863 238.817898 
L 76.593714 231.667006 
L 76.839565 238.817898 
L 77.085416 234.917411 
L 77.331267 223.215951 
L 77.577119 183.561001 
L 77.82297 223.866032 
L 78.068821 234.26733 
L 78.314672 238.817898 
L 78.560523 221.915788 
L 78.806374 238.817898 
L 81.019034 238.817898 
L 81.264885 236.867655 
L 81.510736 230.366843 
L 81.756587 236.867655 
L 82.002438 234.26733 
L 82.248289 238.817898 
L 82.49414 238.817898 
L 82.739991 232.317087 
L 82.985842 141.305727 
L 83.231693 238.167817 
L 83.477544 238.817898 
L 110.767014 238.817898 
L 111.012865 222.56587 
L 111.504567 238.817898 
L 119.371802 238.817898 
L 119.617653 238.167817 
L 119.863504 238.817898 
L 120.109355 233.617249 
L 120.355206 238.817898 
L 120.601057 232.967168 
L 120.846909 238.817898 
L 123.059568 238.817898 
L 123.305419 231.667006 
L 123.55127 238.817898 
L 123.797121 234.26733 
L 124.042973 238.817898 
L 124.288824 238.817898 
L 124.534675 237.517736 
L 124.780526 238.817898 
L 128.714143 238.817898 
L 128.959994 237.517736 
L 129.205845 238.817898 
L 129.451696 225.166194 
L 129.697547 238.817898 
L 129.943398 238.817898 
L 130.18925 233.617249 
L 130.435101 231.016924 
L 130.680952 238.167817 
L 130.926803 237.517736 
L 131.172654 238.817898 
L 131.418505 238.817898 
L 131.664356 238.167817 
L 131.910207 228.4166 
L 132.156058 238.167817 
L 132.401909 234.26733 
L 132.64776 91.249479 
L 132.893611 238.817898 
L 133.385314 238.817898 
L 133.631165 237.517736 
L 133.877016 238.817898 
L 135.597973 238.817898 
L 135.843824 233.617249 
L 136.089675 238.167817 
L 136.335527 238.167817 
L 136.581378 232.967168 
L 136.827229 235.567492 
L 137.07308 236.867655 
L 137.318931 238.817898 
L 137.564782 203.713516 
L 137.810633 230.366843 
L 138.056484 223.866032 
L 138.302335 222.56587 
L 138.548186 211.51449 
L 138.794037 231.016924 
L 139.039888 238.817898 
L 140.023293 238.817898 
L 140.269144 237.517736 
L 140.514995 238.817898 
L 140.760846 199.162948 
L 141.252548 238.817898 
L 141.498399 222.56587 
L 141.74425 219.315464 
L 141.990101 206.963922 
L 142.235952 65.246233 
L 142.481803 82.148343 
L 142.727655 180.310595 
L 142.973506 61.345746 
L 143.219357 191.361975 
L 143.465208 238.817898 
L 143.711059 220.615626 
L 143.95691 236.867655 
L 144.202761 236.867655 
L 144.448612 188.76165 
L 144.694463 186.811407 
L 144.940314 238.817898 
L 145.186165 238.167817 
L 145.432016 236.217574 
L 145.677868 223.215951 
L 145.923719 220.615626 
L 146.415421 238.167817 
L 146.661272 238.167817 
L 146.907123 238.817898 
L 147.398825 238.817898 
L 147.644676 214.114815 
L 147.890527 232.967168 
L 148.136378 238.817898 
L 148.382229 236.867655 
L 148.62808 238.817898 
L 148.873932 236.217574 
L 149.119783 211.51449 
L 149.365634 232.317087 
L 149.611485 238.167817 
L 149.857336 236.867655 
L 150.349038 184.211082 
L 150.594889 216.715139 
L 150.84074 229.716762 
L 151.086591 236.217574 
L 151.332442 228.4166 
L 151.578293 238.167817 
L 151.824145 233.617249 
L 152.069996 238.817898 
L 152.807549 238.817898 
L 153.0534 233.617249 
L 153.299251 234.917411 
L 153.790953 200.463111 
L 154.036804 200.463111 
L 154.282655 234.917411 
L 154.774357 238.817898 
L 155.020209 236.867655 
L 155.26606 238.167817 
L 155.511911 216.715139 
L 155.757762 231.016924 
L 156.003613 197.212705 
L 156.249464 195.262462 
L 156.495315 150.406863 
L 156.741166 218.015302 
L 156.987017 219.315464 
L 157.232868 234.26733 
L 157.478719 221.915788 
L 157.72457 233.617249 
L 157.970422 226.466356 
L 158.216273 226.466356 
L 158.462124 221.915788 
L 158.707975 236.867655 
L 158.953826 238.817898 
L 159.691379 238.817898 
L 159.93723 231.016924 
L 160.183081 229.716762 
L 160.428932 238.817898 
L 160.920634 238.817898 
L 161.166486 228.4166 
L 161.412337 236.217574 
L 161.658188 238.167817 
L 161.904039 238.817898 
L 163.133294 238.817898 
L 163.379145 206.313841 
L 163.624996 238.817898 
L 163.870847 201.113192 
L 164.116698 203.063435 
L 164.36255 238.817898 
L 164.608401 238.817898 
L 164.854252 236.217574 
L 165.100103 238.167817 
L 165.345954 208.914166 
L 165.591805 195.912543 
L 165.837656 222.56587 
L 166.083507 224.516113 
L 166.329358 238.817898 
L 166.575209 238.817898 
L 166.82106 232.967168 
L 167.066911 234.917411 
L 167.312763 238.817898 
L 168.787869 238.817898 
L 169.03372 235.567492 
L 169.279571 238.817898 
L 169.525422 227.766519 
L 169.771273 238.817898 
L 170.262975 238.817898 
L 170.508827 238.167817 
L 170.754678 218.665383 
L 171.000529 238.817898 
L 171.492231 238.817898 
L 171.738082 209.564247 
L 171.983933 238.817898 
L 174.688295 238.817898 
L 174.934146 235.567492 
L 175.179997 238.817898 
L 190.668615 238.817898 
L 190.914466 237.517736 
L 191.160317 237.517736 
L 191.406168 238.817898 
L 194.602232 238.817898 
L 194.848083 237.517736 
L 195.093934 238.817898 
L 206.894786 238.817898 
L 207.140637 238.167817 
L 207.386488 229.066681 
L 207.63234 238.817898 
L 212.057659 238.817898 
L 212.30351 237.517736 
L 212.549361 238.817898 
L 213.532765 238.817898 
L 213.778617 208.914166 
L 214.024468 234.917411 
L 214.270319 238.817898 
L 214.51617 218.665383 
L 214.762021 236.217574 
L 215.007872 233.617249 
L 215.253723 214.114815 
L 215.499574 238.167817 
L 215.745425 238.817898 
L 216.728829 238.817898 
L 216.974681 236.217574 
L 217.220532 238.817898 
L 218.203936 238.817898 
L 218.449787 235.567492 
L 218.695638 238.817898 
L 218.941489 236.867655 
L 219.18734 214.114815 
L 219.433191 221.265707 
L 219.679042 238.817898 
L 219.924894 234.26733 
L 220.170745 238.817898 
L 221.154149 238.817898 
L 221.4 223.215951 
L 221.891702 238.817898 
L 223.61266 238.817898 
L 223.858511 237.517736 
L 224.104362 238.817898 
L 224.350213 236.867655 
L 224.596064 236.867655 
L 224.841915 238.817898 
L 225.333617 238.817898 
L 225.579468 232.317087 
L 225.825319 238.817898 
L 226.071171 237.517736 
L 226.562873 238.817898 
L 226.808724 238.817898 
L 227.054575 233.617249 
L 227.300426 221.265707 
L 227.546277 238.817898 
L 228.775532 238.817898 
L 229.021383 234.26733 
L 229.267235 238.817898 
L 230.004788 238.817898 
L 230.250639 222.56587 
L 230.49649 236.217574 
L 230.742341 238.817898 
L 230.988192 238.167817 
L 231.234043 238.817898 
L 231.479894 238.817898 
L 231.725745 190.061812 
L 231.971596 238.817898 
L 232.217447 233.617249 
L 232.463299 238.817898 
L 232.70915 227.766519 
L 232.955001 238.167817 
L 233.200852 238.817898 
L 233.446703 231.667006 
L 233.692554 238.817898 
L 233.938405 235.567492 
L 234.184256 226.466356 
L 234.675958 146.506376 
L 234.921809 155.607512 
L 235.16766 182.260839 
L 235.413512 195.262462 
L 235.905214 238.817898 
L 236.642767 238.817898 
L 236.888618 232.317087 
L 237.134469 219.965545 
L 237.38032 236.867655 
L 237.626171 238.817898 
L 237.872022 238.167817 
L 238.117873 235.567492 
L 238.363724 228.4166 
L 238.609576 210.864409 
L 238.855427 160.808161 
L 239.101278 238.167817 
L 239.347129 238.817898 
L 239.59298 238.817898 
L 239.838831 234.26733 
L 240.084682 233.617249 
L 240.330533 223.215951 
L 240.576384 238.817898 
L 240.822235 197.212705 
L 241.068086 184.211082 
L 241.559789 228.4166 
L 241.80564 238.817898 
L 242.051491 231.016924 
L 242.297342 172.509622 
L 242.543193 72.397126 
L 242.789044 44.443636 
L 243.034895 102.300858 
L 243.280746 210.214328 
L 243.526597 224.516113 
L 243.772448 216.065058 
L 244.26415 144.556132 
L 244.510001 232.317087 
L 244.755853 238.817898 
L 245.739257 238.817898 
L 245.985108 236.867655 
L 246.230959 238.167817 
L 246.47681 238.817898 
L 246.722661 225.166194 
L 246.968512 237.517736 
L 247.214363 237.517736 
L 247.460214 238.817898 
L 247.706066 238.167817 
L 247.951917 236.217574 
L 248.197768 214.114815 
L 248.443619 207.614003 
L 248.68947 175.760027 
L 248.935321 211.51449 
L 249.181172 216.715139 
L 249.427023 238.817898 
L 249.918725 238.817898 
L 250.164576 233.617249 
L 250.410427 238.817898 
L 250.656278 238.817898 
L 250.90213 234.26733 
L 251.147981 220.615626 
L 251.393832 219.965545 
L 251.639683 207.614003 
L 251.885534 183.561001 
L 252.131385 186.161326 
L 252.377236 238.817898 
L 253.852342 238.817898 
L 254.098194 236.867655 
L 254.344045 238.817898 
L 254.589896 234.917411 
L 254.835747 222.56587 
L 255.081598 236.867655 
L 255.327449 238.817898 
L 255.5733 237.517736 
L 255.819151 238.817898 
L 256.065002 238.817898 
L 256.310853 238.167817 
L 256.556704 221.915788 
L 256.802555 230.366843 
L 257.048407 215.414977 
L 257.294258 237.517736 
L 257.540109 223.215951 
L 257.78596 225.166194 
L 258.031811 236.867655 
L 258.277662 238.817898 
L 259.752768 238.817898 
L 259.998619 229.716762 
L 260.244471 238.167817 
L 260.490322 231.667006 
L 260.736173 238.817898 
L 260.982024 234.917411 
L 261.227875 237.517736 
L 261.473726 180.960676 
L 261.719577 237.517736 
L 261.965428 221.915788 
L 262.211279 238.167817 
L 262.45713 230.366843 
L 262.702981 229.066681 
L 262.948832 236.217574 
L 263.194684 238.817898 
L 266.636599 238.817898 
L 266.88245 232.967168 
L 267.374152 238.167817 
L 267.620003 238.817898 
L 271.061918 238.817898 
L 271.307769 237.517736 
L 271.55362 238.817898 
L 275.241386 238.817898 
L 275.487237 237.517736 
L 275.733089 238.817898 
L 278.929153 238.817898 
L 279.175004 232.317087 
L 279.420855 238.817898 
L 287.288089 238.817898 
L 287.53394 235.567492 
L 287.779791 238.817898 
L 295.647026 238.817898 
L 295.892877 235.567492 
L 296.138728 238.167817 
L 296.384579 238.817898 
L 302.039154 238.817898 
L 302.285005 238.167817 
L 302.530856 238.817898 
L 302.776707 236.867655 
L 303.022558 231.667006 
L 303.268409 219.965545 
L 303.514261 238.817898 
L 304.251814 238.817898 
L 304.497665 217.36522 
L 304.743516 238.817898 
L 304.989367 238.817898 
L 305.235218 225.816275 
L 305.481069 230.366843 
L 305.72692 238.817898 
L 310.398091 238.817898 
L 310.643942 238.167817 
L 310.889793 238.817898 
L 311.135644 237.517736 
L 311.381495 238.817898 
L 311.873197 238.817898 
L 312.119048 236.867655 
L 312.364899 238.817898 
L 312.856602 238.817898 
L 313.102453 234.26733 
L 313.348304 225.816275 
L 313.594155 236.217574 
L 313.840006 238.167817 
L 314.085857 238.817898 
L 315.560963 238.817898 
L 315.806815 238.167817 
L 316.052666 191.361975 
L 316.298517 238.817898 
L 316.790219 238.817898 
L 317.03607 232.317087 
L 317.281921 238.167817 
L 317.527772 216.715139 
L 317.773623 217.36522 
L 318.019474 199.162948 
L 318.265325 238.167817 
L 318.511176 238.817898 
L 318.757027 238.817898 
L 319.002879 234.917411 
L 319.24873 238.817898 
L 319.494581 238.817898 
L 319.740432 238.167817 
L 319.986283 238.817898 
L 321.215538 238.817898 
L 321.461389 237.517736 
L 321.70724 238.817898 
L 321.953091 229.066681 
L 322.198943 235.567492 
L 322.444794 212.814652 
L 322.690645 232.967168 
L 322.936496 238.817898 
L 323.182347 212.814652 
L 323.428198 231.016924 
L 323.674049 226.466356 
L 323.9199 238.817898 
L 324.411602 238.817898 
L 324.657453 231.016924 
L 324.903304 238.817898 
L 325.886709 238.817898 
L 326.13256 237.517736 
L 326.378411 222.56587 
L 326.624262 235.567492 
L 326.870113 232.967168 
L 327.361815 238.167817 
L 327.607666 238.817898 
L 328.099368 238.817898 
L 328.34522 236.217574 
L 328.591071 231.667006 
L 328.836922 154.30735 
L 329.082773 156.907674 
L 329.328624 192.012056 
L 329.574475 205.013679 
L 329.820326 238.817898 
L 330.066177 237.517736 
L 330.312028 235.567492 
L 330.557879 237.517736 
L 330.80373 234.917411 
L 331.049581 234.26733 
L 331.295433 222.56587 
L 331.541284 238.167817 
L 331.787135 237.517736 
L 332.032986 233.617249 
L 332.278837 216.065058 
L 332.524688 219.965545 
L 332.770539 236.867655 
L 333.01639 234.917411 
L 333.262241 238.817898 
L 333.999794 238.817898 
L 334.245645 226.466356 
L 334.491497 238.817898 
L 334.737348 238.817898 
L 334.983199 224.516113 
L 335.22905 238.167817 
L 335.474901 238.817898 
L 335.720752 231.016924 
L 335.966603 238.817898 
L 336.212454 238.167817 
L 336.458305 234.917411 
L 336.704156 238.817898 
L 336.950007 238.167817 
L 337.195858 234.917411 
L 337.44171 238.167817 
L 337.933412 218.665383 
L 338.179263 165.358729 
L 338.425114 229.066681 
L 338.670965 236.867655 
L 338.916816 238.817898 
L 339.162667 223.866032 
L 339.408518 237.517736 
L 339.654369 238.817898 
L 339.90022 237.517736 
L 340.146071 235.567492 
L 340.391922 238.817898 
L 340.883625 195.912543 
L 341.129476 238.817898 
L 341.375327 234.26733 
L 341.621178 238.167817 
L 341.867029 238.817898 
L 342.11288 231.016924 
L 342.358731 236.217574 
L 342.604582 238.817898 
L 342.850433 219.315464 
L 343.096284 234.26733 
L 343.342135 230.366843 
L 343.587986 162.108323 
L 343.833838 221.915788 
L 344.079689 224.516113 
L 344.571391 236.867655 
L 344.817242 237.517736 
L 345.063093 238.817898 
L 345.800646 238.817898 
L 346.046497 234.917411 
L 346.538199 238.817898 
L 346.784051 238.817898 
L 347.029902 225.166194 
L 347.275753 236.867655 
L 347.521604 232.317087 
L 347.767455 238.817898 
L 348.013306 238.817898 
L 348.505008 231.016924 
L 348.750859 236.867655 
L 348.99671 238.817898 
L 349.242561 237.517736 
L 349.488412 215.414977 
L 349.734263 232.967168 
L 349.980115 235.567492 
L 350.225966 232.967168 
L 350.471817 238.817898 
L 350.717668 238.817898 
L 350.963519 234.26733 
L 351.20937 238.817898 
L 351.455221 236.217574 
L 351.701072 158.207836 
L 351.946923 238.817898 
L 352.192774 234.26733 
L 352.438625 238.817898 
L 352.684476 238.167817 
L 352.930328 238.817898 
L 353.176179 238.817898 
L 353.42203 219.965545 
L 353.667881 211.51449 
L 354.159583 238.817898 
L 355.142987 238.817898 
L 355.388838 238.167817 
L 355.634689 238.817898 
L 357.109796 238.817898 
L 357.355647 238.167817 
L 357.601498 238.817898 
L 357.847349 231.667006 
L 358.0932 237.517736 
L 358.339051 238.817898 
L 359.322456 238.817898 
L 359.568307 232.967168 
L 359.814158 196.562624 
L 360.060009 229.716762 
L 360.30586 238.167817 
L 360.551711 238.817898 
L 373.581818 238.817898 
L 373.581818 238.817898 
" style="fill:none;stroke:#1f77b4;stroke-linecap:square;stroke-width:1.5;"/>
   </g>
   <g id="line2d_16">
    <path clip-path="url(#p093e4dbe9e)" d="M 69.218182 230.356157 
L 69.464033 236.066697 
L 69.709884 236.692809 
L 70.201586 231.271579 
L 70.447437 231.566573 
L 70.939139 233.919062 
L 71.18499 232.97027 
L 71.430842 234.95534 
L 71.676693 234.728438 
L 71.922544 233.131543 
L 72.168395 235.803598 
L 72.414246 231.342067 
L 72.660097 230.427046 
L 73.151799 233.526581 
L 73.39765 232.510845 
L 73.889352 235.442522 
L 74.135203 236.324528 
L 74.381054 235.487054 
L 74.626906 237.20182 
L 74.872757 237.024356 
L 75.118608 237.623111 
L 75.364459 235.796487 
L 75.61031 237.412325 
L 75.856161 236.281696 
L 76.102012 236.355485 
L 76.347863 235.034472 
L 76.593714 237.024578 
L 76.839565 233.046963 
L 77.085416 236.163876 
L 77.577119 232.223161 
L 77.82297 216.562785 
L 78.068821 222.526286 
L 78.314672 220.943283 
L 78.560523 230.791415 
L 78.806374 227.335515 
L 79.052225 235.38695 
L 79.298076 233.812682 
L 79.543927 237.199294 
L 79.789778 235.276726 
L 80.035629 237.386493 
L 80.28148 237.577144 
L 80.527331 236.945281 
L 80.773183 237.524659 
L 81.019034 237.268437 
L 81.510736 237.173083 
L 81.756587 234.835029 
L 82.002438 235.443424 
L 82.248289 233.511744 
L 82.49414 236.836044 
L 82.739991 235.937002 
L 82.985842 235.469336 
L 83.231693 205.62878 
L 83.477544 222.923546 
L 83.723396 214.883893 
L 83.969247 234.548866 
L 84.215098 230.952471 
L 84.460949 240.267897 
L 84.7068 237.502655 
L 84.952651 236.553434 
L 85.198502 237.027193 
L 85.444353 236.022977 
L 85.690204 238.394795 
L 85.936055 236.397582 
L 86.181906 238.040353 
L 86.427757 236.55143 
L 86.673608 235.850782 
L 86.91946 239.520241 
L 87.411162 236.520399 
L 87.902864 238.192111 
L 88.148715 237.369001 
L 88.394566 237.696767 
L 88.640417 238.498172 
L 89.132119 235.44666 
L 89.37797 238.436562 
L 89.623821 238.204846 
L 89.869672 237.155323 
L 90.115524 239.244739 
L 90.361375 235.910658 
L 90.607226 238.089261 
L 90.853077 237.128265 
L 91.344779 238.476442 
L 91.836481 236.225455 
L 92.082332 236.289746 
L 92.328183 238.413704 
L 92.574034 239.483274 
L 92.819885 236.205775 
L 93.065737 237.817267 
L 95.770098 237.828161 
L 111.012865 237.828161 
L 111.258716 232.598819 
L 111.504567 233.206051 
L 111.750419 233.268237 
L 111.99627 235.72774 
L 112.242121 236.421966 
L 112.487972 237.74142 
L 112.733823 237.998958 
L 112.979674 237.721594 
L 113.471376 237.561984 
L 113.717227 237.792365 
L 113.963078 237.634727 
L 114.45478 237.881505 
L 114.700632 237.658788 
L 114.946483 237.976894 
L 115.438185 237.713248 
L 115.929887 237.913958 
L 116.175738 237.745087 
L 116.913291 237.800779 
L 117.159142 237.376401 
L 117.650844 237.952876 
L 117.896696 237.725337 
L 118.142547 238.029989 
L 118.388398 237.650583 
L 118.634249 237.764303 
L 119.125951 237.781442 
L 119.371802 237.959655 
L 119.617653 237.805662 
L 119.863504 237.342285 
L 120.109355 237.370014 
L 120.355206 235.967816 
L 120.601057 237.468144 
L 120.846909 234.630743 
L 121.09276 236.829515 
L 121.338611 236.160038 
L 121.584462 237.840689 
L 121.830313 237.365136 
L 122.076164 237.974438 
L 122.322015 237.774509 
L 122.567866 237.722636 
L 122.813717 237.817174 
L 123.059568 237.677846 
L 123.305419 237.870621 
L 123.55127 235.460253 
L 123.797121 236.865565 
L 124.042973 234.881827 
L 124.288824 236.963606 
L 124.534675 236.367847 
L 124.780526 237.484536 
L 125.026377 237.289374 
L 125.272228 237.632157 
L 125.518079 237.760338 
L 125.76393 237.587905 
L 126.009781 237.857735 
L 126.255632 237.56736 
L 126.501483 237.882248 
L 126.747334 237.645984 
L 126.993185 237.743119 
L 127.239037 238.053424 
L 127.484888 237.560523 
L 127.730739 237.995558 
L 127.97659 237.674092 
L 128.222441 237.8553 
L 128.714143 237.811935 
L 128.959994 237.808084 
L 129.205845 237.28358 
L 129.451696 237.438864 
L 129.697547 233.175601 
L 129.943398 235.877931 
L 130.18925 234.840763 
L 130.435101 235.891629 
L 130.680952 233.410869 
L 130.926803 236.002328 
L 131.172654 235.300475 
L 131.418505 236.873626 
L 131.664356 237.070886 
L 131.910207 237.494966 
L 132.156058 234.265732 
L 132.401909 235.758757 
L 132.64776 233.888049 
L 132.893611 189.31528 
L 133.139462 216.566233 
L 133.385314 205.940104 
L 133.631165 233.69637 
L 133.877016 226.358528 
L 134.122867 242.116364 
L 134.368718 236.876472 
L 134.614569 236.954227 
L 134.86042 236.627101 
L 135.106271 236.027593 
L 135.352122 238.329628 
L 135.597973 235.296631 
L 135.843824 238.798537 
L 136.089675 236.262259 
L 136.335527 235.06242 
L 136.581378 238.57324 
L 136.827229 234.397544 
L 137.07308 234.891442 
L 137.564782 237.356778 
L 137.810633 224.441529 
L 138.056484 230.247349 
L 138.302335 224.792773 
L 138.548186 227.081812 
L 138.794037 216.947163 
L 139.039888 229.626921 
L 139.285739 229.391737 
L 139.777442 238.167645 
L 140.023293 234.682059 
L 140.269144 238.446746 
L 140.514995 235.463311 
L 140.760846 237.299548 
L 141.006697 225.195062 
L 141.252548 226.53848 
L 141.498399 225.296079 
L 141.74425 225.614709 
L 141.990101 226.681635 
L 142.235952 224.107048 
L 142.481803 171.286704 
L 142.727655 155.433344 
L 142.973506 158.685772 
L 143.219357 132.337511 
L 143.465208 170.610295 
L 143.711059 183.326179 
L 143.95691 216.423327 
L 144.202761 220.450271 
L 144.448612 231.101565 
L 144.940314 208.995723 
L 145.186165 216.707049 
L 145.432016 220.770863 
L 145.677868 231.988619 
L 145.923719 225.983089 
L 146.16957 231.0382 
L 146.661272 227.747209 
L 146.907123 233.69012 
L 147.152974 236.284287 
L 147.398825 234.774996 
L 147.644676 236.223367 
L 147.890527 231.518083 
L 148.136378 230.157109 
L 148.382229 226.440663 
L 148.62808 233.63113 
L 148.873932 234.274035 
L 149.365634 230.260868 
L 149.611485 230.420346 
L 149.857336 226.631449 
L 150.103187 235.845519 
L 150.594889 213.700726 
L 150.84074 213.81995 
L 151.086591 215.996932 
L 151.332442 222.820239 
L 151.578293 225.899287 
L 151.824145 234.350628 
L 152.069996 228.541034 
L 152.315847 234.738471 
L 152.561698 237.043961 
L 152.807549 234.809891 
L 153.0534 236.449964 
L 153.545102 233.582858 
L 154.282655 214.828253 
L 155.020209 232.891899 
L 155.26606 234.447645 
L 155.511911 237.501145 
L 155.757762 229.729957 
L 156.003613 231.522351 
L 156.249464 217.026945 
L 156.495315 213.43807 
L 156.741166 191.954239 
L 156.987017 208.662839 
L 157.232868 206.005868 
L 157.478719 224.649381 
L 157.72457 220.638299 
L 157.970422 232.309294 
L 158.216273 226.421388 
L 158.462124 229.78174 
L 158.707975 226.193649 
L 158.953826 229.447718 
L 159.199677 230.207986 
L 159.445528 234.46221 
L 159.691379 236.289229 
L 159.93723 237.077215 
L 160.183081 233.444158 
L 160.674783 234.068256 
L 161.166486 236.665228 
L 161.412337 233.536329 
L 161.658188 234.793065 
L 161.904039 234.81148 
L 162.14989 236.152906 
L 162.395741 235.28238 
L 162.641592 235.195271 
L 162.887443 236.264212 
L 163.133294 237.974095 
L 163.379145 237.346015 
L 163.624996 227.429319 
L 163.870847 231.68886 
L 164.116698 218.310981 
L 164.36255 219.288513 
L 164.608401 222.068954 
L 164.854252 229.558035 
L 165.100103 232.249656 
L 165.345954 233.299841 
L 165.837656 218.91346 
L 166.083507 220.347505 
L 166.329358 218.27373 
L 166.575209 228.784348 
L 167.066911 234.700876 
L 167.312763 234.707808 
L 167.558614 235.21204 
L 168.050316 236.995011 
L 168.542018 236.883392 
L 168.787869 238.017537 
L 169.279571 236.235253 
L 169.525422 237.334519 
L 169.771273 233.469581 
L 170.017124 234.965316 
L 170.262975 234.155922 
L 170.508827 238.518272 
L 170.754678 236.057479 
L 171.000529 232.067564 
L 171.24638 234.613766 
L 171.492231 232.014024 
L 171.738082 236.557352 
L 171.983933 226.309058 
L 172.229784 234.166696 
L 172.475635 231.123537 
L 172.721486 236.505818 
L 172.967337 234.351815 
L 173.213188 237.281529 
L 173.45904 238.358033 
L 173.704891 237.503646 
L 174.442444 236.723135 
L 174.688295 236.74407 
L 174.934146 238.071107 
L 175.179997 236.893698 
L 175.425848 236.757013 
L 175.671699 237.229184 
L 175.91755 237.071373 
L 176.409252 238.090612 
L 176.655104 237.995513 
L 176.900955 236.79942 
L 177.146806 238.053859 
L 177.392657 237.987449 
L 177.638508 237.539559 
L 177.884359 237.392075 
L 178.376061 237.903568 
L 178.621912 237.290944 
L 178.867763 238.369418 
L 179.113614 237.610418 
L 179.359465 237.666373 
L 179.605316 237.326659 
L 179.851168 237.536796 
L 180.097019 238.145426 
L 180.34287 238.034201 
L 180.588721 237.084564 
L 180.834572 237.344907 
L 181.326274 238.380842 
L 181.572125 237.351144 
L 181.817976 237.80125 
L 182.063827 237.881444 
L 182.309678 237.76707 
L 182.555529 237.844713 
L 183.047232 237.829789 
L 183.538934 237.811413 
L 184.030636 237.776132 
L 184.522338 237.886856 
L 184.768189 237.77369 
L 185.505742 237.828161 
L 190.914466 237.828161 
L 191.160317 237.409814 
L 191.406168 237.240852 
L 192.635424 237.862478 
L 193.372977 237.802693 
L 194.848083 237.83269 
L 195.093934 237.419577 
L 195.339786 237.645358 
L 195.585637 237.542721 
L 195.831488 237.804804 
L 196.077339 237.727095 
L 196.32319 237.860167 
L 197.306594 237.787226 
L 197.798296 237.804566 
L 198.289999 237.826334 
L 199.027552 237.810731 
L 199.765105 237.807891 
L 200.256807 237.815233 
L 200.748509 237.823852 
L 200.99436 237.773111 
L 201.486063 237.833449 
L 202.961169 237.828812 
L 205.665531 237.828161 
L 207.140637 237.828161 
L 207.386488 237.618987 
L 207.63234 234.606075 
L 207.878191 236.419099 
L 208.124042 235.684539 
L 208.369893 237.540599 
L 208.615744 237.119004 
L 208.861595 238.123344 
L 209.107446 237.784689 
L 210.336701 237.695365 
L 210.582553 237.875231 
L 211.074255 237.731221 
L 211.320106 237.963952 
L 211.565957 237.758673 
L 212.30351 237.863675 
L 212.549361 237.341462 
L 212.795212 237.674433 
L 213.041063 237.600971 
L 213.286914 237.734679 
L 213.532765 237.486383 
L 213.778617 237.943787 
L 214.024468 228.235051 
L 214.270319 232.610982 
L 214.762021 229.562482 
L 215.007872 232.091914 
L 215.253723 231.955156 
L 215.499574 228.153588 
L 215.745425 231.625421 
L 215.991276 232.371037 
L 216.237127 236.129015 
L 216.482978 235.934032 
L 216.728829 238.030814 
L 216.974681 237.691624 
L 217.220532 236.784758 
L 217.466383 236.663906 
L 217.712234 237.396219 
L 217.958085 237.678835 
L 218.203936 236.954362 
L 218.449787 238.307439 
L 218.695638 236.783662 
L 218.941489 236.915626 
L 219.18734 236.823083 
L 219.433191 229.629011 
L 219.679042 227.956946 
L 219.924894 229.479644 
L 220.416596 234.91526 
L 220.662447 235.527752 
L 220.908298 238.798709 
L 221.154149 236.627603 
L 221.4 236.95932 
L 221.645851 232.6943 
L 221.891702 232.862911 
L 222.137553 233.219578 
L 222.383404 235.65721 
L 222.629255 235.679684 
L 223.120958 237.948377 
L 223.366809 238.138396 
L 223.61266 236.801455 
L 223.858511 237.414213 
L 224.104362 237.463435 
L 224.350213 236.623088 
L 224.596064 236.900863 
L 224.841915 237.517031 
L 225.087766 236.412962 
L 225.579468 237.446271 
L 225.825319 235.628082 
L 226.071171 236.792595 
L 226.317022 236.287102 
L 226.562873 237.097277 
L 226.808724 236.606857 
L 227.054575 237.920038 
L 227.300426 235.744055 
L 227.546277 231.162698 
L 227.792128 234.300397 
L 228.037979 233.448675 
L 228.28383 236.270202 
L 228.529681 236.623775 
L 228.775532 238.623032 
L 229.267235 235.850475 
L 229.513086 237.193843 
L 229.758937 236.596158 
L 230.004788 237.667379 
L 230.250639 237.029723 
L 230.49649 232.427089 
L 230.742341 234.681684 
L 230.988192 234.18516 
L 231.234043 236.721846 
L 231.479894 236.122224 
L 231.725745 237.782644 
L 231.971596 222.15744 
L 232.217447 231.412148 
L 232.463299 225.23003 
L 232.70915 235.83725 
L 232.955001 229.526075 
L 233.200852 237.096973 
L 233.446703 234.250642 
L 233.692554 235.200598 
L 233.938405 235.687584 
L 234.184256 234.914506 
L 234.430107 233.409441 
L 235.16766 186.735163 
L 235.413512 185.922512 
L 235.659363 193.141538 
L 236.642767 235.127863 
L 236.888618 235.461889 
L 237.134469 233.828065 
L 237.38032 229.551341 
L 237.626171 230.989801 
L 237.872022 230.705329 
L 238.117873 235.610719 
L 238.363724 235.097667 
L 238.609576 234.039079 
L 238.855427 227.049528 
L 239.101278 205.060458 
L 239.347129 220.781617 
L 239.59298 218.49834 
L 239.838831 234.152329 
L 240.084682 230.977413 
L 240.330533 237.428937 
L 240.576384 228.636586 
L 240.822235 230.734343 
L 241.068086 218.964911 
L 241.313937 212.92382 
L 241.559789 209.80802 
L 242.051491 225.636935 
L 242.297342 228.479968 
L 242.543193 213.007577 
L 243.034895 137.655936 
L 243.280746 127.158927 
L 244.018299 207.063661 
L 244.26415 204.777412 
L 244.510001 192.186644 
L 244.755853 203.769928 
L 245.001704 207.849909 
L 245.247555 226.276871 
L 245.493406 228.976479 
L 245.739257 237.626949 
L 245.985108 236.010477 
L 246.230959 233.584129 
L 246.47681 236.05112 
L 246.722661 235.967535 
L 246.968512 231.482864 
L 247.706066 234.706535 
L 247.951917 235.271445 
L 248.197768 238.401955 
L 248.935321 203.562461 
L 249.181172 211.1289 
L 249.427023 211.078853 
L 249.672874 225.746498 
L 249.918725 226.333773 
L 250.164576 232.404592 
L 250.410427 230.84254 
L 250.656278 237.559618 
L 251.147981 233.980478 
L 251.639683 220.732326 
L 251.885534 217.610318 
L 252.377236 206.088855 
L 252.623087 216.71007 
L 252.868938 219.013129 
L 253.114789 230.684755 
L 253.36064 233.966418 
L 253.606491 239.842252 
L 254.098194 235.024065 
L 254.589896 235.881235 
L 254.835747 234.339987 
L 255.081598 231.335055 
L 255.327449 234.086302 
L 255.5733 233.364583 
L 255.819151 236.46996 
L 256.065002 235.918265 
L 256.310853 237.405397 
L 256.556704 236.821378 
L 256.802555 232.400137 
L 257.048407 232.127041 
L 257.294258 223.809462 
L 257.540109 230.648335 
L 257.78596 224.360418 
L 258.031811 228.739448 
L 258.277662 230.051142 
L 258.523513 234.508252 
L 258.769364 235.778498 
L 259.015215 236.166517 
L 259.261066 237.552696 
L 259.506917 236.536985 
L 259.752768 237.730525 
L 259.998619 236.51885 
L 260.244471 234.435513 
L 260.490322 236.074297 
L 260.736173 231.704213 
L 260.982024 234.917222 
L 261.227875 233.842778 
L 261.473726 237.762054 
L 261.719577 217.613432 
L 261.965428 228.914945 
L 262.211279 218.859081 
L 262.45713 233.672136 
L 262.702981 226.525281 
L 262.948832 234.178215 
L 263.194684 232.137813 
L 263.440535 235.142396 
L 263.686386 235.48764 
L 263.932237 235.614501 
L 264.178088 238.410149 
L 264.423939 236.536871 
L 264.66979 237.911743 
L 265.161492 236.957242 
L 265.407343 238.352308 
L 265.653194 236.612074 
L 265.899045 237.572889 
L 266.144896 237.542324 
L 266.390748 237.714397 
L 266.636599 237.229057 
L 266.88245 237.327332 
L 267.620003 234.592167 
L 267.865854 237.056925 
L 268.111705 237.128864 
L 268.357556 237.426201 
L 268.603407 238.557884 
L 268.849258 236.308692 
L 269.095109 238.161296 
L 269.34096 236.9741 
L 269.586812 238.019296 
L 269.832663 237.898575 
L 270.570216 236.768774 
L 271.061918 238.601928 
L 271.307769 236.771201 
L 271.55362 237.405777 
L 271.799471 237.263168 
L 272.045322 237.66323 
L 272.291173 237.834531 
L 272.537025 237.648601 
L 272.782876 237.813926 
L 273.028727 237.665053 
L 273.520429 237.846839 
L 273.76628 237.777741 
L 274.012131 237.910694 
L 274.257982 237.737322 
L 274.503833 237.825928 
L 274.995535 237.801943 
L 275.241386 237.889524 
L 275.487237 237.809816 
L 275.733089 237.311474 
L 275.97894 237.527511 
L 276.224791 237.527449 
L 276.470642 237.895093 
L 276.716493 237.68456 
L 276.962344 237.843975 
L 277.699897 237.829904 
L 279.175004 237.804846 
L 279.420855 235.755777 
L 279.666706 236.984619 
L 279.912557 236.398099 
L 280.158408 237.653088 
L 280.404259 237.326688 
L 280.65011 238.023917 
L 280.895961 237.826138 
L 281.633514 237.70769 
L 281.879366 237.865471 
L 282.125217 237.742855 
L 282.616919 237.855957 
L 282.86277 237.732864 
L 283.108621 237.928288 
L 283.354472 237.774327 
L 284.092025 237.848209 
L 284.337876 237.763172 
L 285.07543 237.821646 
L 285.321281 237.640066 
L 285.567132 237.877004 
L 286.058834 237.77434 
L 286.304685 237.934726 
L 286.550536 237.705978 
L 286.796387 237.861265 
L 287.042238 237.782447 
L 287.53394 237.879196 
L 287.779791 236.748796 
L 288.025643 237.311153 
L 288.271494 237.014874 
L 288.517345 237.780411 
L 288.763196 237.702547 
L 289.254898 237.814659 
L 295.892877 237.853679 
L 296.138728 236.765544 
L 296.384579 237.149281 
L 296.63043 236.982421 
L 296.876281 237.622613 
L 297.122132 237.62792 
L 297.367984 237.824383 
L 299.334792 237.834497 
L 299.580643 237.793379 
L 299.826494 237.867828 
L 300.318197 237.811435 
L 301.547452 237.848746 
L 302.776707 237.719413 
L 303.022558 237.106694 
L 303.268409 235.207442 
L 303.514261 230.363028 
L 303.760112 233.770424 
L 304.005963 233.38794 
L 304.251814 236.914011 
L 304.497665 236.613419 
L 304.743516 231.403361 
L 304.989367 234.858571 
L 305.235218 232.987395 
L 305.481069 232.979914 
L 305.72692 231.523576 
L 305.972771 234.519851 
L 306.218622 235.359051 
L 306.710325 237.427553 
L 306.956176 237.630059 
L 307.202027 238.041944 
L 307.447878 237.253936 
L 307.93958 237.856577 
L 308.185431 237.475083 
L 308.431282 237.950789 
L 308.922984 237.648767 
L 309.168835 237.71446 
L 309.414686 237.538629 
L 310.15224 237.952977 
L 310.398091 237.856713 
L 310.643942 236.907956 
L 310.889793 237.912611 
L 311.135644 237.699377 
L 311.381495 236.763876 
L 311.627346 237.962385 
L 311.873197 236.988363 
L 312.119048 237.462 
L 312.364899 236.861589 
L 312.61075 237.705349 
L 312.856602 237.689594 
L 313.102453 237.290853 
L 313.348304 235.847763 
L 313.594155 232.849309 
L 313.840006 234.414061 
L 314.085857 234.460896 
L 314.82341 238.261979 
L 315.069261 237.708019 
L 315.315112 237.610097 
L 315.806815 237.631294 
L 316.052666 237.605912 
L 316.298517 222.298119 
L 316.544368 231.543297 
L 316.790219 227.420186 
L 317.03607 236.552947 
L 317.281921 232.292002 
L 317.527772 238.151588 
L 317.773623 228.994554 
L 318.019474 227.535368 
L 318.265325 216.654162 
L 318.511176 226.670236 
L 318.757027 227.139689 
L 319.002879 235.131852 
L 319.24873 234.209013 
L 319.494581 237.900742 
L 319.740432 236.148275 
L 319.986283 237.489768 
L 320.232134 236.677686 
L 320.477985 237.004071 
L 320.723836 237.638666 
L 320.969687 237.558952 
L 321.215538 237.293897 
L 321.461389 237.966503 
L 321.70724 237.558857 
L 321.953091 237.580893 
L 322.198943 232.603291 
L 322.444794 235.613979 
L 322.690645 227.110698 
L 322.936496 231.507943 
L 323.182347 230.863732 
L 323.428198 226.756411 
L 323.674049 229.756816 
L 323.9199 226.513023 
L 324.165751 233.218402 
L 324.411602 233.135253 
L 324.657453 237.697569 
L 324.903304 232.863739 
L 325.149156 236.556516 
L 325.395007 235.133328 
L 325.640858 237.994366 
L 325.886709 236.294495 
L 326.13256 237.301826 
L 326.378411 237.531587 
L 326.624262 231.462634 
L 326.870113 233.103475 
L 327.115964 231.974118 
L 327.361815 234.987668 
L 327.607666 234.787164 
L 327.853517 236.388996 
L 328.099368 237.12026 
L 328.34522 237.355891 
L 328.591071 236.4772 
L 328.836922 234.840905 
L 329.082773 209.297347 
L 329.328624 197.631863 
L 329.574475 193.651011 
L 329.820326 199.769222 
L 330.312028 225.870513 
L 330.557879 233.68806 
L 330.80373 234.813781 
L 331.049581 234.968274 
L 331.295433 233.045979 
L 331.541284 229.294425 
L 331.787135 232.808267 
L 332.032986 232.426744 
L 332.278837 234.1352 
L 332.524688 226.677113 
L 332.770539 228.826958 
L 333.01639 229.293217 
L 333.262241 230.469538 
L 333.508092 234.734802 
L 333.753943 235.614678 
L 333.999794 237.907072 
L 334.245645 236.99506 
L 334.491497 233.858273 
L 334.737348 235.634721 
L 334.983199 232.506223 
L 335.22905 231.15655 
L 335.474901 233.787111 
L 335.720752 234.17112 
L 335.966603 235.78317 
L 336.212454 235.050911 
L 336.458305 235.532985 
L 336.704156 235.385801 
L 336.950007 235.680272 
L 337.195858 237.1002 
L 337.44171 235.592265 
L 337.687561 235.352336 
L 338.179263 227.867965 
L 338.425114 209.115952 
L 338.670965 219.402356 
L 338.916816 218.648245 
L 339.162667 231.947701 
L 339.408518 226.666317 
L 339.654369 236.891962 
L 339.90022 233.726503 
L 340.146071 235.564435 
L 340.391922 234.158914 
L 340.637774 236.785695 
L 340.883625 229.905338 
L 341.129476 218.843706 
L 341.375327 227.009485 
L 341.621178 225.952157 
L 341.867029 233.880857 
L 342.11288 234.907996 
L 342.358731 235.321738 
L 342.604582 235.140891 
L 342.850433 235.472619 
L 343.096284 230.239585 
L 343.342135 232.055973 
L 343.587986 230.175499 
L 343.833838 210.12795 
L 344.079689 218.197874 
L 344.32554 212.21396 
L 344.571391 227.025571 
L 344.817242 227.478763 
L 345.063093 234.696698 
L 345.308944 236.233659 
L 345.554795 235.71649 
L 345.800646 237.045535 
L 346.046497 235.843679 
L 346.292348 236.794669 
L 346.538199 235.452304 
L 346.784051 235.615678 
L 347.029902 234.710465 
L 347.275753 231.551496 
L 347.521604 236.618913 
L 347.767455 233.188392 
L 348.013306 234.806882 
L 348.259157 234.153327 
L 348.505008 237.102128 
L 348.750859 233.724035 
L 349.242561 236.296017 
L 349.488412 235.289989 
L 349.734263 226.623155 
L 349.980115 232.212734 
L 350.225966 231.167968 
L 350.717668 234.470638 
L 350.963519 235.560767 
L 351.20937 235.967876 
L 351.455221 236.038389 
L 351.701072 235.751403 
L 351.946923 211.097727 
L 352.192774 225.714389 
L 352.438625 217.693262 
L 352.684476 233.356824 
L 352.930328 230.516626 
L 353.176179 240.481316 
L 353.913732 225.645863 
L 354.159583 225.17847 
L 354.405434 229.666922 
L 354.651285 231.467264 
L 354.897136 236.28188 
L 355.142987 237.654623 
L 355.388838 237.106286 
L 355.634689 237.949451 
L 355.88054 236.44068 
L 356.126392 236.736646 
L 356.372243 237.288249 
L 356.618094 238.417882 
L 356.863945 236.772968 
L 357.109796 237.725925 
L 357.355647 237.900853 
L 357.847349 235.87039 
L 358.0932 235.864124 
L 358.339051 236.200097 
L 358.584902 235.036411 
L 358.830753 238.481175 
L 359.076604 236.066375 
L 359.322456 238.191369 
L 359.814158 235.359127 
L 360.060009 223.779335 
L 360.30586 227.648889 
L 360.551711 226.118729 
L 360.797562 232.800856 
L 361.043413 234.673162 
L 361.289264 239.515992 
L 361.535115 236.303254 
L 361.780966 237.814406 
L 362.026817 237.469017 
L 362.272669 236.887109 
L 362.51852 237.041058 
L 362.764371 236.784377 
L 363.010222 238.139345 
L 363.256073 238.073187 
L 363.501924 237.26995 
L 363.747775 238.064219 
L 363.993626 237.449788 
L 364.731179 237.917246 
L 364.97703 237.696007 
L 365.222881 237.722311 
L 365.468733 238.077218 
L 365.960435 236.744188 
L 366.206286 237.980935 
L 366.452137 237.966295 
L 366.697988 237.508561 
L 366.943839 238.216521 
L 367.18969 237.210966 
L 367.435541 237.977307 
L 367.681392 237.471718 
L 368.173094 238.129728 
L 368.664797 237.077801 
L 368.910648 237.044709 
L 369.40235 238.527414 
L 369.648201 237.287578 
L 369.894052 237.687382 
L 370.385754 237.828161 
L 373.581818 237.828161 
L 373.581818 237.828161 
" style="fill:none;stroke:#ff7f0e;stroke-linecap:square;stroke-width:1.5;"/>
   </g>
   <g id="patch_3">
    <path d="M 54 252 
L 54 34.56 
" style="fill:none;stroke:#000000;stroke-linecap:square;stroke-linejoin:miter;stroke-width:0.8;"/>
   </g>
   <g id="patch_4">
    <path d="M 388.8 252 
L 388.8 34.56 
" style="fill:none;stroke:#000000;stroke-linecap:square;stroke-linejoin:miter;stroke-width:0.8;"/>
   </g>
   <g id="patch_5">
    <path d="M 54 252 
L 388.8 252 
" style="fill:none;stroke:#000000;stroke-linecap:square;stroke-linejoin:miter;stroke-width:0.8;"/>
   </g>
   <g id="patch_6">
    <path d="M 54 34.56 
L 388.8 34.56 
" style="fill:none;stroke:#000000;stroke-linecap:square;stroke-linejoin:miter;stroke-width:0.8;"/>
   </g>
   <g id="legend_1">
    <g id="patch_7">
     <path d="M 271.970312 71.91625 
L 381.8 71.91625 
Q 383.8 71.91625 383.8 69.91625 
L 383.8 41.56 
Q 383.8 39.56 381.8 39.56 
L 271.970312 39.56 
Q 269.970312 39.56 269.970312 41.56 
L 269.970312 69.91625 
Q 269.970312 71.91625 271.970312 71.91625 
z
" style="fill:#ffffff;opacity:0.8;stroke:#cccccc;stroke-linejoin:miter;"/>
    </g>
    <g id="line2d_17">
     <path d="M 273.970312 47.658437 
L 293.970312 47.658437 
" style="fill:none;stroke:#1f77b4;stroke-linecap:square;stroke-width:1.5;"/>
    </g>
    <g id="line2d_18"/>
    <g id="text_15">
     <!-- True value -->
     <defs>
      <path d="M -0.296875 72.90625 
L 61.375 72.90625 
L 61.375 64.59375 
L 35.5 64.59375 
L 35.5 0 
L 25.59375 0 
L 25.59375 64.59375 
L -0.296875 64.59375 
z
" id="DejaVuSans-84"/>
      <path d="M 41.109375 46.296875 
Q 39.59375 47.171875 37.8125 47.578125 
Q 36.03125 48 33.890625 48 
Q 26.265625 48 22.1875 43.046875 
Q 18.109375 38.09375 18.109375 28.8125 
L 18.109375 0 
L 9.078125 0 
L 9.078125 54.6875 
L 18.109375 54.6875 
L 18.109375 46.1875 
Q 20.953125 51.171875 25.484375 53.578125 
Q 30.03125 56 36.53125 56 
Q 37.453125 56 38.578125 55.875 
Q 39.703125 55.765625 41.0625 55.515625 
z
" id="DejaVuSans-114"/>
      <path d="M 8.5 21.578125 
L 8.5 54.6875 
L 17.484375 54.6875 
L 17.484375 21.921875 
Q 17.484375 14.15625 20.5 10.265625 
Q 23.53125 6.390625 29.59375 6.390625 
Q 36.859375 6.390625 41.078125 11.03125 
Q 45.3125 15.671875 45.3125 23.6875 
L 45.3125 54.6875 
L 54.296875 54.6875 
L 54.296875 0 
L 45.3125 0 
L 45.3125 8.40625 
Q 42.046875 3.421875 37.71875 1 
Q 33.40625 -1.421875 27.6875 -1.421875 
Q 18.265625 -1.421875 13.375 4.4375 
Q 8.5 10.296875 8.5 21.578125 
z
M 31.109375 56 
z
" id="DejaVuSans-117"/>
      <path d="M 56.203125 29.59375 
L 56.203125 25.203125 
L 14.890625 25.203125 
Q 15.484375 15.921875 20.484375 11.0625 
Q 25.484375 6.203125 34.421875 6.203125 
Q 39.59375 6.203125 44.453125 7.46875 
Q 49.3125 8.734375 54.109375 11.28125 
L 54.109375 2.78125 
Q 49.265625 0.734375 44.1875 -0.34375 
Q 39.109375 -1.421875 33.890625 -1.421875 
Q 20.796875 -1.421875 13.15625 6.1875 
Q 5.515625 13.8125 5.515625 26.8125 
Q 5.515625 40.234375 12.765625 48.109375 
Q 20.015625 56 32.328125 56 
Q 43.359375 56 49.78125 48.890625 
Q 56.203125 41.796875 56.203125 29.59375 
z
M 47.21875 32.234375 
Q 47.125 39.59375 43.09375 43.984375 
Q 39.0625 48.390625 32.421875 48.390625 
Q 24.90625 48.390625 20.390625 44.140625 
Q 15.875 39.890625 15.1875 32.171875 
z
" id="DejaVuSans-101"/>
      <path id="DejaVuSans-32"/>
      <path d="M 2.984375 54.6875 
L 12.5 54.6875 
L 29.59375 8.796875 
L 46.6875 54.6875 
L 56.203125 54.6875 
L 35.6875 0 
L 23.484375 0 
z
" id="DejaVuSans-118"/>
      <path d="M 34.28125 27.484375 
Q 23.390625 27.484375 19.1875 25 
Q 14.984375 22.515625 14.984375 16.5 
Q 14.984375 11.71875 18.140625 8.90625 
Q 21.296875 6.109375 26.703125 6.109375 
Q 34.1875 6.109375 38.703125 11.40625 
Q 43.21875 16.703125 43.21875 25.484375 
L 43.21875 27.484375 
z
M 52.203125 31.203125 
L 52.203125 0 
L 43.21875 0 
L 43.21875 8.296875 
Q 40.140625 3.328125 35.546875 0.953125 
Q 30.953125 -1.421875 24.3125 -1.421875 
Q 15.921875 -1.421875 10.953125 3.296875 
Q 6 8.015625 6 15.921875 
Q 6 25.140625 12.171875 29.828125 
Q 18.359375 34.515625 30.609375 34.515625 
L 43.21875 34.515625 
L 43.21875 35.40625 
Q 43.21875 41.609375 39.140625 45 
Q 35.0625 48.390625 27.6875 48.390625 
Q 23 48.390625 18.546875 47.265625 
Q 14.109375 46.140625 10.015625 43.890625 
L 10.015625 52.203125 
Q 14.9375 54.109375 19.578125 55.046875 
Q 24.21875 56 28.609375 56 
Q 40.484375 56 46.34375 49.84375 
Q 52.203125 43.703125 52.203125 31.203125 
z
" id="DejaVuSans-97"/>
      <path d="M 9.421875 75.984375 
L 18.40625 75.984375 
L 18.40625 0 
L 9.421875 0 
z
" id="DejaVuSans-108"/>
     </defs>
     <g transform="translate(301.970312 51.158437)scale(0.1 -0.1)">
      <use xlink:href="#DejaVuSans-84"/>
      <use x="60.865234" xlink:href="#DejaVuSans-114"/>
      <use x="101.978516" xlink:href="#DejaVuSans-117"/>
      <use x="165.357422" xlink:href="#DejaVuSans-101"/>
      <use x="226.880859" xlink:href="#DejaVuSans-32"/>
      <use x="258.667969" xlink:href="#DejaVuSans-118"/>
      <use x="317.847656" xlink:href="#DejaVuSans-97"/>
      <use x="379.126953" xlink:href="#DejaVuSans-108"/>
      <use x="406.910156" xlink:href="#DejaVuSans-117"/>
      <use x="470.289062" xlink:href="#DejaVuSans-101"/>
     </g>
    </g>
    <g id="line2d_19">
     <path d="M 273.970312 62.336562 
L 293.970312 62.336562 
" style="fill:none;stroke:#ff7f0e;stroke-linecap:square;stroke-width:1.5;"/>
    </g>
    <g id="line2d_20"/>
    <g id="text_16">
     <!-- Predicted value -->
     <defs>
      <path d="M 19.671875 64.796875 
L 19.671875 37.40625 
L 32.078125 37.40625 
Q 38.96875 37.40625 42.71875 40.96875 
Q 46.484375 44.53125 46.484375 51.125 
Q 46.484375 57.671875 42.71875 61.234375 
Q 38.96875 64.796875 32.078125 64.796875 
z
M 9.8125 72.90625 
L 32.078125 72.90625 
Q 44.34375 72.90625 50.609375 67.359375 
Q 56.890625 61.8125 56.890625 51.125 
Q 56.890625 40.328125 50.609375 34.8125 
Q 44.34375 29.296875 32.078125 29.296875 
L 19.671875 29.296875 
L 19.671875 0 
L 9.8125 0 
z
" id="DejaVuSans-80"/>
      <path d="M 45.40625 46.390625 
L 45.40625 75.984375 
L 54.390625 75.984375 
L 54.390625 0 
L 45.40625 0 
L 45.40625 8.203125 
Q 42.578125 3.328125 38.25 0.953125 
Q 33.9375 -1.421875 27.875 -1.421875 
Q 17.96875 -1.421875 11.734375 6.484375 
Q 5.515625 14.40625 5.515625 27.296875 
Q 5.515625 40.1875 11.734375 48.09375 
Q 17.96875 56 27.875 56 
Q 33.9375 56 38.25 53.625 
Q 42.578125 51.265625 45.40625 46.390625 
z
M 14.796875 27.296875 
Q 14.796875 17.390625 18.875 11.75 
Q 22.953125 6.109375 30.078125 6.109375 
Q 37.203125 6.109375 41.296875 11.75 
Q 45.40625 17.390625 45.40625 27.296875 
Q 45.40625 37.203125 41.296875 42.84375 
Q 37.203125 48.484375 30.078125 48.484375 
Q 22.953125 48.484375 18.875 42.84375 
Q 14.796875 37.203125 14.796875 27.296875 
z
" id="DejaVuSans-100"/>
      <path d="M 9.421875 54.6875 
L 18.40625 54.6875 
L 18.40625 0 
L 9.421875 0 
z
M 9.421875 75.984375 
L 18.40625 75.984375 
L 18.40625 64.59375 
L 9.421875 64.59375 
z
" id="DejaVuSans-105"/>
      <path d="M 48.78125 52.59375 
L 48.78125 44.1875 
Q 44.96875 46.296875 41.140625 47.34375 
Q 37.3125 48.390625 33.40625 48.390625 
Q 24.65625 48.390625 19.8125 42.84375 
Q 14.984375 37.3125 14.984375 27.296875 
Q 14.984375 17.28125 19.8125 11.734375 
Q 24.65625 6.203125 33.40625 6.203125 
Q 37.3125 6.203125 41.140625 7.25 
Q 44.96875 8.296875 48.78125 10.40625 
L 48.78125 2.09375 
Q 45.015625 0.34375 40.984375 -0.53125 
Q 36.96875 -1.421875 32.421875 -1.421875 
Q 20.0625 -1.421875 12.78125 6.34375 
Q 5.515625 14.109375 5.515625 27.296875 
Q 5.515625 40.671875 12.859375 48.328125 
Q 20.21875 56 33.015625 56 
Q 37.15625 56 41.109375 55.140625 
Q 45.0625 54.296875 48.78125 52.59375 
z
" id="DejaVuSans-99"/>
      <path d="M 18.3125 70.21875 
L 18.3125 54.6875 
L 36.8125 54.6875 
L 36.8125 47.703125 
L 18.3125 47.703125 
L 18.3125 18.015625 
Q 18.3125 11.328125 20.140625 9.421875 
Q 21.96875 7.515625 27.59375 7.515625 
L 36.8125 7.515625 
L 36.8125 0 
L 27.59375 0 
Q 17.1875 0 13.234375 3.875 
Q 9.28125 7.765625 9.28125 18.015625 
L 9.28125 47.703125 
L 2.6875 47.703125 
L 2.6875 54.6875 
L 9.28125 54.6875 
L 9.28125 70.21875 
z
" id="DejaVuSans-116"/>
     </defs>
     <g transform="translate(301.970312 65.836562)scale(0.1 -0.1)">
      <use xlink:href="#DejaVuSans-80"/>
      <use x="60.287109" xlink:href="#DejaVuSans-114"/>
      <use x="101.369141" xlink:href="#DejaVuSans-101"/>
      <use x="162.892578" xlink:href="#DejaVuSans-100"/>
      <use x="226.369141" xlink:href="#DejaVuSans-105"/>
      <use x="254.152344" xlink:href="#DejaVuSans-99"/>
      <use x="309.132812" xlink:href="#DejaVuSans-116"/>
      <use x="348.341797" xlink:href="#DejaVuSans-101"/>
      <use x="409.865234" xlink:href="#DejaVuSans-100"/>
      <use x="473.341797" xlink:href="#DejaVuSans-32"/>
      <use x="505.128906" xlink:href="#DejaVuSans-118"/>
      <use x="564.308594" xlink:href="#DejaVuSans-97"/>
      <use x="625.587891" xlink:href="#DejaVuSans-108"/>
      <use x="653.371094" xlink:href="#DejaVuSans-117"/>
      <use x="716.75" xlink:href="#DejaVuSans-101"/>
     </g>
    </g>
   </g>
  </g>
 </g>
 <defs>
  <clipPath id="p093e4dbe9e">
   <rect height="217.44" width="334.8" x="54" y="34.56"/>
  </clipPath>
 </defs>
</svg>
